<?xml version="1.0" encoding="utf-8" standalone="no"?>
<!DOCTYPE svg PUBLIC "-//W3C//DTD SVG 1.1//EN"
  "http://www.w3.org/Graphics/SVG/1.1/DTD/svg11.dtd">
<svg xmlns:xlink="http://www.w3.org/1999/xlink" width="576pt" height="432pt" viewBox="0 0 576 432" xmlns="http://www.w3.org/2000/svg" version="1.1">
 <metadata>
  <rdf:RDF xmlns:dc="http://purl.org/dc/elements/1.1/" xmlns:cc="http://creativecommons.org/ns#" xmlns:rdf="http://www.w3.org/1999/02/22-rdf-syntax-ns#">
   <cc:Work>
    <dc:type rdf:resource="http://purl.org/dc/dcmitype/StillImage"/>
    <dc:date>2022-04-04T10:26:54.321886</dc:date>
    <dc:format>image/svg+xml</dc:format>
    <dc:creator>
     <cc:Agent>
      <dc:title>Matplotlib v3.5.1, https://matplotlib.org/</dc:title>
     </cc:Agent>
    </dc:creator>
   </cc:Work>
  </rdf:RDF>
 </metadata>
 <defs>
  <style type="text/css">*{stroke-linejoin: round; stroke-linecap: butt}</style>
 </defs>
 <g id="figure_1">
  <g id="patch_1">
   <path d="M 0 432 
L 576 432 
L 576 0 
L 0 0 
L 0 432 
z
" style="fill: none"/>
  </g>
  <g id="axes_1">
   <g id="patch_2">
    <path d="M 72 378 
L 518.4 378 
L 518.4 51.84 
L 72 51.84 
z
" style="fill: #ffffff"/>
   </g>
   <g id="patch_3">
    <path d="M 109.591579 378 
L 113.240119 378 
L 113.240119 378 
L 109.591579 378 
z
" clip-path="url(#p4dfd55c79a)" style="fill: #a5e10f; fill-opacity: 0.5"/>
   </g>
   <g id="patch_4">
    <path d="M 113.240119 378 
L 116.888659 378 
L 116.888659 378 
L 113.240119 378 
z
" clip-path="url(#p4dfd55c79a)" style="fill: #a5e10f; fill-opacity: 0.5"/>
   </g>
   <g id="patch_5">
    <path d="M 116.888659 378 
L 120.5372 378 
L 120.5372 378 
L 116.888659 378 
z
" clip-path="url(#p4dfd55c79a)" style="fill: #a5e10f; fill-opacity: 0.5"/>
   </g>
   <g id="patch_6">
    <path d="M 120.5372 378 
L 124.18574 378 
L 124.18574 378 
L 120.5372 378 
z
" clip-path="url(#p4dfd55c79a)" style="fill: #a5e10f; fill-opacity: 0.5"/>
   </g>
   <g id="patch_7">
    <path d="M 124.18574 378 
L 127.83428 378 
L 127.83428 378 
L 124.18574 378 
z
" clip-path="url(#p4dfd55c79a)" style="fill: #a5e10f; fill-opacity: 0.5"/>
   </g>
   <g id="patch_8">
    <path d="M 127.83428 378 
L 131.48282 378 
L 131.48282 378 
L 127.83428 378 
z
" clip-path="url(#p4dfd55c79a)" style="fill: #a5e10f; fill-opacity: 0.5"/>
   </g>
   <g id="patch_9">
    <path d="M 131.48282 378 
L 135.131361 378 
L 135.131361 378 
L 131.48282 378 
z
" clip-path="url(#p4dfd55c79a)" style="fill: #a5e10f; fill-opacity: 0.5"/>
   </g>
   <g id="patch_10">
    <path d="M 135.131361 378 
L 138.779901 378 
L 138.779901 378 
L 135.131361 378 
z
" clip-path="url(#p4dfd55c79a)" style="fill: #a5e10f; fill-opacity: 0.5"/>
   </g>
   <g id="patch_11">
    <path d="M 138.779901 378 
L 142.428441 378 
L 142.428441 378 
L 138.779901 378 
z
" clip-path="url(#p4dfd55c79a)" style="fill: #a5e10f; fill-opacity: 0.5"/>
   </g>
   <g id="patch_12">
    <path d="M 142.428441 378 
L 146.076981 378 
L 146.076981 378 
L 142.428441 378 
z
" clip-path="url(#p4dfd55c79a)" style="fill: #a5e10f; fill-opacity: 0.5"/>
   </g>
   <g id="patch_13">
    <path d="M 146.076981 378 
L 149.725522 378 
L 149.725522 367.979724 
L 146.076981 367.979724 
z
" clip-path="url(#p4dfd55c79a)" style="fill: #a5e10f; fill-opacity: 0.5"/>
   </g>
   <g id="patch_14">
    <path d="M 149.725522 378 
L 153.374062 378 
L 153.374062 378 
L 149.725522 378 
z
" clip-path="url(#p4dfd55c79a)" style="fill: #a5e10f; fill-opacity: 0.5"/>
   </g>
   <g id="patch_15">
    <path d="M 153.374062 378 
L 157.022602 378 
L 157.022602 378 
L 153.374062 378 
z
" clip-path="url(#p4dfd55c79a)" style="fill: #a5e10f; fill-opacity: 0.5"/>
   </g>
   <g id="patch_16">
    <path d="M 157.022602 378 
L 160.671142 378 
L 160.671142 378 
L 157.022602 378 
z
" clip-path="url(#p4dfd55c79a)" style="fill: #a5e10f; fill-opacity: 0.5"/>
   </g>
   <g id="patch_17">
    <path d="M 160.671142 378 
L 164.319683 378 
L 164.319683 378 
L 160.671142 378 
z
" clip-path="url(#p4dfd55c79a)" style="fill: #a5e10f; fill-opacity: 0.5"/>
   </g>
   <g id="patch_18">
    <path d="M 164.319683 378 
L 167.968223 378 
L 167.968223 378 
L 164.319683 378 
z
" clip-path="url(#p4dfd55c79a)" style="fill: #a5e10f; fill-opacity: 0.5"/>
   </g>
   <g id="patch_19">
    <path d="M 167.968223 378 
L 171.616763 378 
L 171.616763 378 
L 167.968223 378 
z
" clip-path="url(#p4dfd55c79a)" style="fill: #a5e10f; fill-opacity: 0.5"/>
   </g>
   <g id="patch_20">
    <path d="M 171.616763 378 
L 175.265303 378 
L 175.265303 378 
L 171.616763 378 
z
" clip-path="url(#p4dfd55c79a)" style="fill: #a5e10f; fill-opacity: 0.5"/>
   </g>
   <g id="patch_21">
    <path d="M 175.265303 378 
L 178.913844 378 
L 178.913844 378 
L 175.265303 378 
z
" clip-path="url(#p4dfd55c79a)" style="fill: #a5e10f; fill-opacity: 0.5"/>
   </g>
   <g id="patch_22">
    <path d="M 178.913844 378 
L 182.562384 378 
L 182.562384 378 
L 178.913844 378 
z
" clip-path="url(#p4dfd55c79a)" style="fill: #a5e10f; fill-opacity: 0.5"/>
   </g>
   <g id="patch_23">
    <path d="M 182.562384 378 
L 186.210924 378 
L 186.210924 378 
L 182.562384 378 
z
" clip-path="url(#p4dfd55c79a)" style="fill: #a5e10f; fill-opacity: 0.5"/>
   </g>
   <g id="patch_24">
    <path d="M 186.210924 378 
L 189.859464 378 
L 189.859464 378 
L 186.210924 378 
z
" clip-path="url(#p4dfd55c79a)" style="fill: #a5e10f; fill-opacity: 0.5"/>
   </g>
   <g id="patch_25">
    <path d="M 189.859464 378 
L 193.508005 378 
L 193.508005 378 
L 189.859464 378 
z
" clip-path="url(#p4dfd55c79a)" style="fill: #a5e10f; fill-opacity: 0.5"/>
   </g>
   <g id="patch_26">
    <path d="M 193.508005 378 
L 197.156545 378 
L 197.156545 378 
L 193.508005 378 
z
" clip-path="url(#p4dfd55c79a)" style="fill: #a5e10f; fill-opacity: 0.5"/>
   </g>
   <g id="patch_27">
    <path d="M 197.156545 378 
L 200.805085 378 
L 200.805085 378 
L 197.156545 378 
z
" clip-path="url(#p4dfd55c79a)" style="fill: #a5e10f; fill-opacity: 0.5"/>
   </g>
   <g id="patch_28">
    <path d="M 200.805085 378 
L 204.453625 378 
L 204.453625 378 
L 200.805085 378 
z
" clip-path="url(#p4dfd55c79a)" style="fill: #a5e10f; fill-opacity: 0.5"/>
   </g>
   <g id="patch_29">
    <path d="M 204.453625 378 
L 208.102166 378 
L 208.102166 378 
L 204.453625 378 
z
" clip-path="url(#p4dfd55c79a)" style="fill: #a5e10f; fill-opacity: 0.5"/>
   </g>
   <g id="patch_30">
    <path d="M 208.102166 378 
L 211.750706 378 
L 211.750706 378 
L 208.102166 378 
z
" clip-path="url(#p4dfd55c79a)" style="fill: #a5e10f; fill-opacity: 0.5"/>
   </g>
   <g id="patch_31">
    <path d="M 211.750706 378 
L 215.399246 378 
L 215.399246 378 
L 211.750706 378 
z
" clip-path="url(#p4dfd55c79a)" style="fill: #a5e10f; fill-opacity: 0.5"/>
   </g>
   <g id="patch_32">
    <path d="M 215.399246 378 
L 219.047786 378 
L 219.047786 378 
L 215.399246 378 
z
" clip-path="url(#p4dfd55c79a)" style="fill: #a5e10f; fill-opacity: 0.5"/>
   </g>
   <g id="patch_33">
    <path d="M 219.047786 378 
L 222.696326 378 
L 222.696326 378 
L 219.047786 378 
z
" clip-path="url(#p4dfd55c79a)" style="fill: #a5e10f; fill-opacity: 0.5"/>
   </g>
   <g id="patch_34">
    <path d="M 222.696326 378 
L 226.344867 378 
L 226.344867 367.979724 
L 222.696326 367.979724 
z
" clip-path="url(#p4dfd55c79a)" style="fill: #a5e10f; fill-opacity: 0.5"/>
   </g>
   <g id="patch_35">
    <path d="M 226.344867 378 
L 229.993407 378 
L 229.993407 378 
L 226.344867 378 
z
" clip-path="url(#p4dfd55c79a)" style="fill: #a5e10f; fill-opacity: 0.5"/>
   </g>
   <g id="patch_36">
    <path d="M 229.993407 378 
L 233.641947 378 
L 233.641947 367.979724 
L 229.993407 367.979724 
z
" clip-path="url(#p4dfd55c79a)" style="fill: #a5e10f; fill-opacity: 0.5"/>
   </g>
   <g id="patch_37">
    <path d="M 233.641947 378 
L 237.290487 378 
L 237.290487 378 
L 233.641947 378 
z
" clip-path="url(#p4dfd55c79a)" style="fill: #a5e10f; fill-opacity: 0.5"/>
   </g>
   <g id="patch_38">
    <path d="M 237.290487 378 
L 240.939028 378 
L 240.939028 378 
L 237.290487 378 
z
" clip-path="url(#p4dfd55c79a)" style="fill: #a5e10f; fill-opacity: 0.5"/>
   </g>
   <g id="patch_39">
    <path d="M 240.939028 378 
L 244.587568 378 
L 244.587568 347.939171 
L 240.939028 347.939171 
z
" clip-path="url(#p4dfd55c79a)" style="fill: #a5e10f; fill-opacity: 0.5"/>
   </g>
   <g id="patch_40">
    <path d="M 244.587568 378 
L 248.236108 378 
L 248.236108 337.918894 
L 244.587568 337.918894 
z
" clip-path="url(#p4dfd55c79a)" style="fill: #a5e10f; fill-opacity: 0.5"/>
   </g>
   <g id="patch_41">
    <path d="M 248.236108 378 
L 251.884648 378 
L 251.884648 367.979724 
L 248.236108 367.979724 
z
" clip-path="url(#p4dfd55c79a)" style="fill: #a5e10f; fill-opacity: 0.5"/>
   </g>
   <g id="patch_42">
    <path d="M 251.884648 378 
L 255.533189 378 
L 255.533189 347.939171 
L 251.884648 347.939171 
z
" clip-path="url(#p4dfd55c79a)" style="fill: #a5e10f; fill-opacity: 0.5"/>
   </g>
   <g id="patch_43">
    <path d="M 255.533189 378 
L 259.181729 378 
L 259.181729 317.878341 
L 255.533189 317.878341 
z
" clip-path="url(#p4dfd55c79a)" style="fill: #a5e10f; fill-opacity: 0.5"/>
   </g>
   <g id="patch_44">
    <path d="M 259.181729 378 
L 262.830269 378 
L 262.830269 317.878341 
L 259.181729 317.878341 
z
" clip-path="url(#p4dfd55c79a)" style="fill: #a5e10f; fill-opacity: 0.5"/>
   </g>
   <g id="patch_45">
    <path d="M 262.830269 378 
L 266.478809 378 
L 266.478809 247.736406 
L 262.830269 247.736406 
z
" clip-path="url(#p4dfd55c79a)" style="fill: #a5e10f; fill-opacity: 0.5"/>
   </g>
   <g id="patch_46">
    <path d="M 266.478809 378 
L 270.12735 378 
L 270.12735 237.716129 
L 266.478809 237.716129 
z
" clip-path="url(#p4dfd55c79a)" style="fill: #a5e10f; fill-opacity: 0.5"/>
   </g>
   <g id="patch_47">
    <path d="M 270.12735 378 
L 273.77589 378 
L 273.77589 287.817512 
L 270.12735 287.817512 
z
" clip-path="url(#p4dfd55c79a)" style="fill: #a5e10f; fill-opacity: 0.5"/>
   </g>
   <g id="patch_48">
    <path d="M 273.77589 378 
L 277.42443 378 
L 277.42443 197.635023 
L 273.77589 197.635023 
z
" clip-path="url(#p4dfd55c79a)" style="fill: #a5e10f; fill-opacity: 0.5"/>
   </g>
   <g id="patch_49">
    <path d="M 277.42443 378 
L 281.07297 378 
L 281.07297 277.797235 
L 277.42443 277.797235 
z
" clip-path="url(#p4dfd55c79a)" style="fill: #a5e10f; fill-opacity: 0.5"/>
   </g>
   <g id="patch_50">
    <path d="M 281.07297 378 
L 284.721511 378 
L 284.721511 217.675576 
L 281.07297 217.675576 
z
" clip-path="url(#p4dfd55c79a)" style="fill: #a5e10f; fill-opacity: 0.5"/>
   </g>
   <g id="patch_51">
    <path d="M 284.721511 378 
L 288.370051 378 
L 288.370051 327.898618 
L 284.721511 327.898618 
z
" clip-path="url(#p4dfd55c79a)" style="fill: #a5e10f; fill-opacity: 0.5"/>
   </g>
   <g id="patch_52">
    <path d="M 288.370051 378 
L 292.018591 378 
L 292.018591 327.898618 
L 288.370051 327.898618 
z
" clip-path="url(#p4dfd55c79a)" style="fill: #a5e10f; fill-opacity: 0.5"/>
   </g>
   <g id="patch_53">
    <path d="M 109.591579 378 
L 113.240119 378 
L 113.240119 357.959447 
L 109.591579 357.959447 
z
" clip-path="url(#p4dfd55c79a)" style="fill: #24b4b1; fill-opacity: 0.5"/>
   </g>
   <g id="patch_54">
    <path d="M 113.240119 378 
L 116.888659 378 
L 116.888659 347.939171 
L 113.240119 347.939171 
z
" clip-path="url(#p4dfd55c79a)" style="fill: #24b4b1; fill-opacity: 0.5"/>
   </g>
   <g id="patch_55">
    <path d="M 116.888659 378 
L 120.5372 378 
L 120.5372 367.979724 
L 116.888659 367.979724 
z
" clip-path="url(#p4dfd55c79a)" style="fill: #24b4b1; fill-opacity: 0.5"/>
   </g>
   <g id="patch_56">
    <path d="M 120.5372 378 
L 124.18574 378 
L 124.18574 367.979724 
L 120.5372 367.979724 
z
" clip-path="url(#p4dfd55c79a)" style="fill: #24b4b1; fill-opacity: 0.5"/>
   </g>
   <g id="patch_57">
    <path d="M 124.18574 378 
L 127.83428 378 
L 127.83428 357.959447 
L 124.18574 357.959447 
z
" clip-path="url(#p4dfd55c79a)" style="fill: #24b4b1; fill-opacity: 0.5"/>
   </g>
   <g id="patch_58">
    <path d="M 127.83428 378 
L 131.48282 378 
L 131.48282 237.716129 
L 127.83428 237.716129 
z
" clip-path="url(#p4dfd55c79a)" style="fill: #24b4b1; fill-opacity: 0.5"/>
   </g>
   <g id="patch_59">
    <path d="M 131.48282 378 
L 135.131361 378 
L 135.131361 227.695853 
L 131.48282 227.695853 
z
" clip-path="url(#p4dfd55c79a)" style="fill: #24b4b1; fill-opacity: 0.5"/>
   </g>
   <g id="patch_60">
    <path d="M 135.131361 378 
L 138.779901 378 
L 138.779901 187.614747 
L 135.131361 187.614747 
z
" clip-path="url(#p4dfd55c79a)" style="fill: #24b4b1; fill-opacity: 0.5"/>
   </g>
   <g id="patch_61">
    <path d="M 138.779901 378 
L 142.428441 378 
L 142.428441 167.574194 
L 138.779901 167.574194 
z
" clip-path="url(#p4dfd55c79a)" style="fill: #24b4b1; fill-opacity: 0.5"/>
   </g>
   <g id="patch_62">
    <path d="M 142.428441 378 
L 146.076981 378 
L 146.076981 217.675576 
L 142.428441 217.675576 
z
" clip-path="url(#p4dfd55c79a)" style="fill: #24b4b1; fill-opacity: 0.5"/>
   </g>
   <g id="patch_63">
    <path d="M 146.076981 378 
L 149.725522 378 
L 149.725522 187.614747 
L 146.076981 187.614747 
z
" clip-path="url(#p4dfd55c79a)" style="fill: #24b4b1; fill-opacity: 0.5"/>
   </g>
   <g id="patch_64">
    <path d="M 149.725522 378 
L 153.374062 378 
L 153.374062 147.533641 
L 149.725522 147.533641 
z
" clip-path="url(#p4dfd55c79a)" style="fill: #24b4b1; fill-opacity: 0.5"/>
   </g>
   <g id="patch_65">
    <path d="M 153.374062 378 
L 157.022602 378 
L 157.022602 117.472811 
L 153.374062 117.472811 
z
" clip-path="url(#p4dfd55c79a)" style="fill: #24b4b1; fill-opacity: 0.5"/>
   </g>
   <g id="patch_66">
    <path d="M 157.022602 378 
L 160.671142 378 
L 160.671142 67.371429 
L 157.022602 67.371429 
z
" clip-path="url(#p4dfd55c79a)" style="fill: #24b4b1; fill-opacity: 0.5"/>
   </g>
   <g id="patch_67">
    <path d="M 160.671142 378 
L 164.319683 378 
L 164.319683 237.716129 
L 160.671142 237.716129 
z
" clip-path="url(#p4dfd55c79a)" style="fill: #24b4b1; fill-opacity: 0.5"/>
   </g>
   <g id="patch_68">
    <path d="M 164.319683 378 
L 167.968223 378 
L 167.968223 247.736406 
L 164.319683 247.736406 
z
" clip-path="url(#p4dfd55c79a)" style="fill: #24b4b1; fill-opacity: 0.5"/>
   </g>
   <g id="patch_69">
    <path d="M 167.968223 378 
L 171.616763 378 
L 171.616763 247.736406 
L 167.968223 247.736406 
z
" clip-path="url(#p4dfd55c79a)" style="fill: #24b4b1; fill-opacity: 0.5"/>
   </g>
   <g id="patch_70">
    <path d="M 171.616763 378 
L 175.265303 378 
L 175.265303 307.858065 
L 171.616763 307.858065 
z
" clip-path="url(#p4dfd55c79a)" style="fill: #24b4b1; fill-opacity: 0.5"/>
   </g>
   <g id="patch_71">
    <path d="M 175.265303 378 
L 178.913844 378 
L 178.913844 367.979724 
L 175.265303 367.979724 
z
" clip-path="url(#p4dfd55c79a)" style="fill: #24b4b1; fill-opacity: 0.5"/>
   </g>
   <g id="patch_72">
    <path d="M 178.913844 378 
L 182.562384 378 
L 182.562384 367.979724 
L 178.913844 367.979724 
z
" clip-path="url(#p4dfd55c79a)" style="fill: #24b4b1; fill-opacity: 0.5"/>
   </g>
   <g id="patch_73">
    <path d="M 182.562384 378 
L 186.210924 378 
L 186.210924 367.979724 
L 182.562384 367.979724 
z
" clip-path="url(#p4dfd55c79a)" style="fill: #24b4b1; fill-opacity: 0.5"/>
   </g>
   <g id="patch_74">
    <path d="M 186.210924 378 
L 189.859464 378 
L 189.859464 378 
L 186.210924 378 
z
" clip-path="url(#p4dfd55c79a)" style="fill: #24b4b1; fill-opacity: 0.5"/>
   </g>
   <g id="patch_75">
    <path d="M 189.859464 378 
L 193.508005 378 
L 193.508005 357.959447 
L 189.859464 357.959447 
z
" clip-path="url(#p4dfd55c79a)" style="fill: #24b4b1; fill-opacity: 0.5"/>
   </g>
   <g id="patch_76">
    <path d="M 193.508005 378 
L 197.156545 378 
L 197.156545 378 
L 193.508005 378 
z
" clip-path="url(#p4dfd55c79a)" style="fill: #24b4b1; fill-opacity: 0.5"/>
   </g>
   <g id="patch_77">
    <path d="M 197.156545 378 
L 200.805085 378 
L 200.805085 367.979724 
L 197.156545 367.979724 
z
" clip-path="url(#p4dfd55c79a)" style="fill: #24b4b1; fill-opacity: 0.5"/>
   </g>
   <g id="patch_78">
    <path d="M 200.805085 378 
L 204.453625 378 
L 204.453625 378 
L 200.805085 378 
z
" clip-path="url(#p4dfd55c79a)" style="fill: #24b4b1; fill-opacity: 0.5"/>
   </g>
   <g id="patch_79">
    <path d="M 204.453625 378 
L 208.102166 378 
L 208.102166 378 
L 204.453625 378 
z
" clip-path="url(#p4dfd55c79a)" style="fill: #24b4b1; fill-opacity: 0.5"/>
   </g>
   <g id="patch_80">
    <path d="M 208.102166 378 
L 211.750706 378 
L 211.750706 378 
L 208.102166 378 
z
" clip-path="url(#p4dfd55c79a)" style="fill: #24b4b1; fill-opacity: 0.5"/>
   </g>
   <g id="patch_81">
    <path d="M 211.750706 378 
L 215.399246 378 
L 215.399246 378 
L 211.750706 378 
z
" clip-path="url(#p4dfd55c79a)" style="fill: #24b4b1; fill-opacity: 0.5"/>
   </g>
   <g id="patch_82">
    <path d="M 215.399246 378 
L 219.047786 378 
L 219.047786 378 
L 215.399246 378 
z
" clip-path="url(#p4dfd55c79a)" style="fill: #24b4b1; fill-opacity: 0.5"/>
   </g>
   <g id="patch_83">
    <path d="M 219.047786 378 
L 222.696326 378 
L 222.696326 378 
L 219.047786 378 
z
" clip-path="url(#p4dfd55c79a)" style="fill: #24b4b1; fill-opacity: 0.5"/>
   </g>
   <g id="patch_84">
    <path d="M 222.696326 378 
L 226.344867 378 
L 226.344867 378 
L 222.696326 378 
z
" clip-path="url(#p4dfd55c79a)" style="fill: #24b4b1; fill-opacity: 0.5"/>
   </g>
   <g id="patch_85">
    <path d="M 226.344867 378 
L 229.993407 378 
L 229.993407 378 
L 226.344867 378 
z
" clip-path="url(#p4dfd55c79a)" style="fill: #24b4b1; fill-opacity: 0.5"/>
   </g>
   <g id="patch_86">
    <path d="M 229.993407 378 
L 233.641947 378 
L 233.641947 378 
L 229.993407 378 
z
" clip-path="url(#p4dfd55c79a)" style="fill: #24b4b1; fill-opacity: 0.5"/>
   </g>
   <g id="patch_87">
    <path d="M 233.641947 378 
L 237.290487 378 
L 237.290487 378 
L 233.641947 378 
z
" clip-path="url(#p4dfd55c79a)" style="fill: #24b4b1; fill-opacity: 0.5"/>
   </g>
   <g id="patch_88">
    <path d="M 237.290487 378 
L 240.939028 378 
L 240.939028 378 
L 237.290487 378 
z
" clip-path="url(#p4dfd55c79a)" style="fill: #24b4b1; fill-opacity: 0.5"/>
   </g>
   <g id="patch_89">
    <path d="M 240.939028 378 
L 244.587568 378 
L 244.587568 378 
L 240.939028 378 
z
" clip-path="url(#p4dfd55c79a)" style="fill: #24b4b1; fill-opacity: 0.5"/>
   </g>
   <g id="patch_90">
    <path d="M 244.587568 378 
L 248.236108 378 
L 248.236108 378 
L 244.587568 378 
z
" clip-path="url(#p4dfd55c79a)" style="fill: #24b4b1; fill-opacity: 0.5"/>
   </g>
   <g id="patch_91">
    <path d="M 248.236108 378 
L 251.884648 378 
L 251.884648 378 
L 248.236108 378 
z
" clip-path="url(#p4dfd55c79a)" style="fill: #24b4b1; fill-opacity: 0.5"/>
   </g>
   <g id="patch_92">
    <path d="M 251.884648 378 
L 255.533189 378 
L 255.533189 378 
L 251.884648 378 
z
" clip-path="url(#p4dfd55c79a)" style="fill: #24b4b1; fill-opacity: 0.5"/>
   </g>
   <g id="patch_93">
    <path d="M 255.533189 378 
L 259.181729 378 
L 259.181729 378 
L 255.533189 378 
z
" clip-path="url(#p4dfd55c79a)" style="fill: #24b4b1; fill-opacity: 0.5"/>
   </g>
   <g id="patch_94">
    <path d="M 259.181729 378 
L 262.830269 378 
L 262.830269 378 
L 259.181729 378 
z
" clip-path="url(#p4dfd55c79a)" style="fill: #24b4b1; fill-opacity: 0.5"/>
   </g>
   <g id="patch_95">
    <path d="M 262.830269 378 
L 266.478809 378 
L 266.478809 378 
L 262.830269 378 
z
" clip-path="url(#p4dfd55c79a)" style="fill: #24b4b1; fill-opacity: 0.5"/>
   </g>
   <g id="patch_96">
    <path d="M 266.478809 378 
L 270.12735 378 
L 270.12735 378 
L 266.478809 378 
z
" clip-path="url(#p4dfd55c79a)" style="fill: #24b4b1; fill-opacity: 0.5"/>
   </g>
   <g id="patch_97">
    <path d="M 270.12735 378 
L 273.77589 378 
L 273.77589 378 
L 270.12735 378 
z
" clip-path="url(#p4dfd55c79a)" style="fill: #24b4b1; fill-opacity: 0.5"/>
   </g>
   <g id="patch_98">
    <path d="M 273.77589 378 
L 277.42443 378 
L 277.42443 378 
L 273.77589 378 
z
" clip-path="url(#p4dfd55c79a)" style="fill: #24b4b1; fill-opacity: 0.5"/>
   </g>
   <g id="patch_99">
    <path d="M 277.42443 378 
L 281.07297 378 
L 281.07297 378 
L 277.42443 378 
z
" clip-path="url(#p4dfd55c79a)" style="fill: #24b4b1; fill-opacity: 0.5"/>
   </g>
   <g id="patch_100">
    <path d="M 281.07297 378 
L 284.721511 378 
L 284.721511 378 
L 281.07297 378 
z
" clip-path="url(#p4dfd55c79a)" style="fill: #24b4b1; fill-opacity: 0.5"/>
   </g>
   <g id="patch_101">
    <path d="M 284.721511 378 
L 288.370051 378 
L 288.370051 378 
L 284.721511 378 
z
" clip-path="url(#p4dfd55c79a)" style="fill: #24b4b1; fill-opacity: 0.5"/>
   </g>
   <g id="patch_102">
    <path d="M 288.370051 378 
L 292.018591 378 
L 292.018591 378 
L 288.370051 378 
z
" clip-path="url(#p4dfd55c79a)" style="fill: #24b4b1; fill-opacity: 0.5"/>
   </g>
   <g id="patch_103">
    <path d="M 80.422642 378 
L 88.825069 378 
L 88.825069 377.608178 
L 80.422642 377.608178 
L 80.422642 378 
z
" clip-path="url(#p4dfd55c79a)" style="fill: none"/>
   </g>
   <g id="patch_104">
    <path d="M 88.825069 378 
L 97.227496 378 
L 97.227496 378 
L 88.825069 378 
L 88.825069 378 
z
" clip-path="url(#p4dfd55c79a)" style="fill: none"/>
   </g>
   <g id="patch_105">
    <path d="M 97.227496 378 
L 105.629923 378 
L 105.629923 377.956464 
L 97.227496 377.956464 
L 97.227496 378 
z
" clip-path="url(#p4dfd55c79a)" style="fill: none"/>
   </g>
   <g id="patch_106">
    <path d="M 105.629923 378 
L 114.03235 378 
L 114.03235 377.172821 
L 105.629923 377.172821 
L 105.629923 378 
z
" clip-path="url(#p4dfd55c79a)" style="fill: none"/>
   </g>
   <g id="patch_107">
    <path d="M 114.03235 378 
L 122.434777 378 
L 122.434777 376.040891 
L 114.03235 376.040891 
L 114.03235 378 
z
" clip-path="url(#p4dfd55c79a)" style="fill: none"/>
   </g>
   <g id="patch_108">
    <path d="M 122.434777 378 
L 130.837205 378 
L 130.837205 371.730851 
L 122.434777 371.730851 
L 122.434777 378 
z
" clip-path="url(#p4dfd55c79a)" style="fill: none"/>
   </g>
   <g id="patch_109">
    <path d="M 130.837205 378 
L 139.239632 378 
L 139.239632 367.769097 
L 130.837205 367.769097 
L 130.837205 378 
z
" clip-path="url(#p4dfd55c79a)" style="fill: none"/>
   </g>
   <g id="patch_110">
    <path d="M 139.239632 378 
L 147.642059 378 
L 147.642059 363.154307 
L 139.239632 363.154307 
L 139.239632 378 
z
" clip-path="url(#p4dfd55c79a)" style="fill: none"/>
   </g>
   <g id="patch_111">
    <path d="M 147.642059 378 
L 156.044486 378 
L 156.044486 366.245346 
L 147.642059 366.245346 
L 147.642059 378 
z
" clip-path="url(#p4dfd55c79a)" style="fill: none"/>
   </g>
   <g id="patch_112">
    <path d="M 156.044486 378 
L 164.446913 378 
L 164.446913 368.073847 
L 156.044486 368.073847 
L 156.044486 378 
z
" clip-path="url(#p4dfd55c79a)" style="fill: none"/>
   </g>
   <g id="patch_113">
    <path d="M 164.446913 378 
L 172.84934 378 
L 172.84934 365.722916 
L 164.446913 365.722916 
L 164.446913 378 
z
" clip-path="url(#p4dfd55c79a)" style="fill: none"/>
   </g>
   <g id="patch_114">
    <path d="M 172.84934 378 
L 181.251768 378 
L 181.251768 365.809988 
L 172.84934 365.809988 
L 172.84934 378 
z
" clip-path="url(#p4dfd55c79a)" style="fill: none"/>
   </g>
   <g id="patch_115">
    <path d="M 181.251768 378 
L 189.654195 378 
L 189.654195 361.499948 
L 181.251768 361.499948 
L 181.251768 378 
z
" clip-path="url(#p4dfd55c79a)" style="fill: none"/>
   </g>
   <g id="patch_116">
    <path d="M 189.654195 378 
L 198.056622 378 
L 198.056622 364.503915 
L 189.654195 364.503915 
L 189.654195 378 
z
" clip-path="url(#p4dfd55c79a)" style="fill: none"/>
   </g>
   <g id="patch_117">
    <path d="M 198.056622 378 
L 206.459049 378 
L 206.459049 363.0237 
L 198.056622 363.0237 
L 198.056622 378 
z
" clip-path="url(#p4dfd55c79a)" style="fill: none"/>
   </g>
   <g id="patch_118">
    <path d="M 206.459049 378 
L 214.861476 378 
L 214.861476 362.414199 
L 206.459049 362.414199 
L 206.459049 378 
z
" clip-path="url(#p4dfd55c79a)" style="fill: none"/>
   </g>
   <g id="patch_119">
    <path d="M 214.861476 378 
L 223.263903 378 
L 223.263903 364.808666 
L 214.861476 364.808666 
L 214.861476 378 
z
" clip-path="url(#p4dfd55c79a)" style="fill: none"/>
   </g>
   <g id="patch_120">
    <path d="M 223.263903 378 
L 231.666331 378 
L 231.666331 359.845589 
L 223.263903 359.845589 
L 223.263903 378 
z
" clip-path="url(#p4dfd55c79a)" style="fill: none"/>
   </g>
   <g id="patch_121">
    <path d="M 231.666331 378 
L 240.068758 378 
L 240.068758 362.022377 
L 231.666331 362.022377 
L 231.666331 378 
z
" clip-path="url(#p4dfd55c79a)" style="fill: none"/>
   </g>
   <g id="patch_122">
    <path d="M 240.068758 378 
L 248.471185 378 
L 248.471185 354.838977 
L 240.068758 354.838977 
L 240.068758 378 
z
" clip-path="url(#p4dfd55c79a)" style="fill: none"/>
   </g>
   <g id="patch_123">
    <path d="M 248.471185 378 
L 256.873612 378 
L 256.873612 357.320515 
L 248.471185 357.320515 
L 248.471185 378 
z
" clip-path="url(#p4dfd55c79a)" style="fill: none"/>
   </g>
   <g id="patch_124">
    <path d="M 256.873612 378 
L 265.276039 378 
L 265.276039 355.01312 
L 256.873612 355.01312 
L 256.873612 378 
z
" clip-path="url(#p4dfd55c79a)" style="fill: none"/>
   </g>
   <g id="patch_125">
    <path d="M 265.276039 378 
L 273.678466 378 
L 273.678466 352.226832 
L 265.276039 352.226832 
L 265.276039 378 
z
" clip-path="url(#p4dfd55c79a)" style="fill: none"/>
   </g>
   <g id="patch_126">
    <path d="M 273.678466 378 
L 282.080894 378 
L 282.080894 350.833688 
L 273.678466 350.833688 
L 273.678466 378 
z
" clip-path="url(#p4dfd55c79a)" style="fill: none"/>
   </g>
   <g id="patch_127">
    <path d="M 282.080894 378 
L 290.483321 378 
L 290.483321 355.492014 
L 282.080894 355.492014 
L 282.080894 378 
z
" clip-path="url(#p4dfd55c79a)" style="fill: none"/>
   </g>
   <g id="patch_128">
    <path d="M 290.483321 378 
L 298.885748 378 
L 298.885748 360.019732 
L 290.483321 360.019732 
L 290.483321 378 
z
" clip-path="url(#p4dfd55c79a)" style="fill: none"/>
   </g>
   <g id="patch_129">
    <path d="M 298.885748 378 
L 307.288175 378 
L 307.288175 361.282269 
L 298.885748 361.282269 
L 298.885748 378 
z
" clip-path="url(#p4dfd55c79a)" style="fill: none"/>
   </g>
   <g id="patch_130">
    <path d="M 307.288175 378 
L 315.690602 378 
L 315.690602 365.026344 
L 307.288175 365.026344 
L 307.288175 378 
z
" clip-path="url(#p4dfd55c79a)" style="fill: none"/>
   </g>
   <g id="patch_131">
    <path d="M 315.690602 378 
L 324.093029 378 
L 324.093029 367.986776 
L 315.690602 367.986776 
L 315.690602 378 
z
" clip-path="url(#p4dfd55c79a)" style="fill: none"/>
   </g>
   <g id="patch_132">
    <path d="M 324.093029 378 
L 332.495457 378 
L 332.495457 370.163564 
L 324.093029 370.163564 
L 324.093029 378 
z
" clip-path="url(#p4dfd55c79a)" style="fill: none"/>
   </g>
   <g id="patch_133">
    <path d="M 332.495457 378 
L 340.897884 378 
L 340.897884 372.862781 
L 332.495457 372.862781 
L 332.495457 378 
z
" clip-path="url(#p4dfd55c79a)" style="fill: none"/>
   </g>
   <g id="patch_134">
    <path d="M 340.897884 378 
L 349.300311 378 
L 349.300311 375.997355 
L 340.897884 375.997355 
L 340.897884 378 
z
" clip-path="url(#p4dfd55c79a)" style="fill: none"/>
   </g>
   <g id="patch_135">
    <path d="M 349.300311 378 
L 357.702738 378 
L 357.702738 376.171498 
L 349.300311 376.171498 
L 349.300311 378 
z
" clip-path="url(#p4dfd55c79a)" style="fill: none"/>
   </g>
   <g id="patch_136">
    <path d="M 357.702738 378 
L 366.105165 378 
L 366.105165 376.25857 
L 357.702738 376.25857 
L 357.702738 378 
z
" clip-path="url(#p4dfd55c79a)" style="fill: none"/>
   </g>
   <g id="patch_137">
    <path d="M 366.105165 378 
L 374.507592 378 
L 374.507592 375.170176 
L 366.105165 375.170176 
L 366.105165 378 
z
" clip-path="url(#p4dfd55c79a)" style="fill: none"/>
   </g>
   <g id="patch_138">
    <path d="M 374.507592 378 
L 382.91002 378 
L 382.91002 372.601566 
L 374.507592 372.601566 
L 374.507592 378 
z
" clip-path="url(#p4dfd55c79a)" style="fill: none"/>
   </g>
   <g id="patch_139">
    <path d="M 382.91002 378 
L 391.312447 378 
L 391.312447 372.25328 
L 382.91002 372.25328 
L 382.91002 378 
z
" clip-path="url(#p4dfd55c79a)" style="fill: none"/>
   </g>
   <g id="patch_140">
    <path d="M 391.312447 378 
L 399.714874 378 
L 399.714874 370.555386 
L 391.312447 370.555386 
L 391.312447 378 
z
" clip-path="url(#p4dfd55c79a)" style="fill: none"/>
   </g>
   <g id="patch_141">
    <path d="M 399.714874 378 
L 408.117301 378 
L 408.117301 367.246668 
L 399.714874 367.246668 
L 399.714874 378 
z
" clip-path="url(#p4dfd55c79a)" style="fill: none"/>
   </g>
   <g id="patch_142">
    <path d="M 408.117301 378 
L 416.519728 378 
L 416.519728 363.589664 
L 408.117301 363.589664 
L 408.117301 378 
z
" clip-path="url(#p4dfd55c79a)" style="fill: none"/>
   </g>
   <g id="patch_143">
    <path d="M 416.519728 378 
L 424.922155 378 
L 424.922155 366.985453 
L 416.519728 366.985453 
L 416.519728 378 
z
" clip-path="url(#p4dfd55c79a)" style="fill: none"/>
   </g>
   <g id="patch_144">
    <path d="M 424.922155 378 
L 433.324583 378 
L 433.324583 369.68467 
L 424.922155 369.68467 
L 424.922155 378 
z
" clip-path="url(#p4dfd55c79a)" style="fill: none"/>
   </g>
   <g id="patch_145">
    <path d="M 433.324583 378 
L 441.72701 378 
L 441.72701 373.167531 
L 433.324583 373.167531 
L 433.324583 378 
z
" clip-path="url(#p4dfd55c79a)" style="fill: none"/>
   </g>
   <g id="patch_146">
    <path d="M 441.72701 378 
L 450.129437 378 
L 450.129437 371.600244 
L 441.72701 371.600244 
L 441.72701 378 
z
" clip-path="url(#p4dfd55c79a)" style="fill: none"/>
   </g>
   <g id="patch_147">
    <path d="M 450.129437 378 
L 458.531864 378 
L 458.531864 371.774387 
L 450.129437 371.774387 
L 450.129437 378 
z
" clip-path="url(#p4dfd55c79a)" style="fill: none"/>
   </g>
   <g id="patch_148">
    <path d="M 458.531864 378 
L 466.934291 378 
L 466.934291 372.862781 
L 458.531864 372.862781 
L 458.531864 378 
z
" clip-path="url(#p4dfd55c79a)" style="fill: none"/>
   </g>
   <g id="patch_149">
    <path d="M 466.934291 378 
L 475.336718 378 
L 475.336718 373.646424 
L 466.934291 373.646424 
L 466.934291 378 
z
" clip-path="url(#p4dfd55c79a)" style="fill: none"/>
   </g>
   <g id="patch_150">
    <path d="M 475.336718 378 
L 483.739146 378 
L 483.739146 371.251958 
L 475.336718 371.251958 
L 475.336718 378 
z
" clip-path="url(#p4dfd55c79a)" style="fill: none"/>
   </g>
   <g id="patch_151">
    <path d="M 483.739146 378 
L 492.141573 378 
L 492.141573 376.345641 
L 483.739146 376.345641 
L 483.739146 378 
z
" clip-path="url(#p4dfd55c79a)" style="fill: none"/>
   </g>
   <g id="patch_152">
    <path d="M 492.141573 378 
L 500.544 378 
L 500.544 377.869393 
L 492.141573 377.869393 
L 492.141573 378 
z
" clip-path="url(#p4dfd55c79a)" style="fill: none"/>
   </g>
   <g id="patch_153">
    <path d="M 80.422642 378 
L 88.825069 378 
L 88.825069 377.521107 
L 80.422642 377.521107 
L 80.422642 378 
z
" clip-path="url(#p4dfd55c79a)" style="fill: none"/>
   </g>
   <g id="patch_154">
    <path d="M 88.825069 378 
L 97.227496 378 
L 97.227496 377.825857 
L 88.825069 377.825857 
L 88.825069 378 
z
" clip-path="url(#p4dfd55c79a)" style="fill: none"/>
   </g>
   <g id="patch_155">
    <path d="M 97.227496 378 
L 105.629923 378 
L 105.629923 377.69525 
L 97.227496 377.69525 
L 97.227496 378 
z
" clip-path="url(#p4dfd55c79a)" style="fill: none"/>
   </g>
   <g id="patch_156">
    <path d="M 105.629923 378 
L 114.03235 378 
L 114.03235 376.040891 
L 105.629923 376.040891 
L 105.629923 378 
z
" clip-path="url(#p4dfd55c79a)" style="fill: none"/>
   </g>
   <g id="patch_157">
    <path d="M 114.03235 378 
L 122.434777 378 
L 122.434777 374.299461 
L 114.03235 374.299461 
L 114.03235 378 
z
" clip-path="url(#p4dfd55c79a)" style="fill: none"/>
   </g>
   <g id="patch_158">
    <path d="M 122.434777 378 
L 130.837205 378 
L 130.837205 365.766452 
L 122.434777 365.766452 
L 122.434777 378 
z
" clip-path="url(#p4dfd55c79a)" style="fill: none"/>
   </g>
   <g id="patch_159">
    <path d="M 130.837205 378 
L 139.239632 378 
L 139.239632 354.40362 
L 130.837205 354.40362 
L 130.837205 378 
z
" clip-path="url(#p4dfd55c79a)" style="fill: none"/>
   </g>
   <g id="patch_160">
    <path d="M 139.239632 378 
L 147.642059 378 
L 147.642059 344.129181 
L 139.239632 344.129181 
L 139.239632 378 
z
" clip-path="url(#p4dfd55c79a)" style="fill: none"/>
   </g>
   <g id="patch_161">
    <path d="M 147.642059 378 
L 156.044486 378 
L 156.044486 353.57644 
L 147.642059 353.57644 
L 147.642059 378 
z
" clip-path="url(#p4dfd55c79a)" style="fill: none"/>
   </g>
   <g id="patch_162">
    <path d="M 156.044486 378 
L 164.446913 378 
L 164.446913 356.623943 
L 156.044486 356.623943 
L 156.044486 378 
z
" clip-path="url(#p4dfd55c79a)" style="fill: none"/>
   </g>
   <g id="patch_163">
    <path d="M 164.446913 378 
L 172.84934 378 
L 172.84934 355.143728 
L 164.446913 355.143728 
L 164.446913 378 
z
" clip-path="url(#p4dfd55c79a)" style="fill: none"/>
   </g>
   <g id="patch_164">
    <path d="M 172.84934 378 
L 181.251768 378 
L 181.251768 352.226832 
L 172.84934 352.226832 
L 172.84934 378 
z
" clip-path="url(#p4dfd55c79a)" style="fill: none"/>
   </g>
   <g id="patch_165">
    <path d="M 181.251768 378 
L 189.654195 378 
L 189.654195 347.82972 
L 181.251768 347.82972 
L 181.251768 378 
z
" clip-path="url(#p4dfd55c79a)" style="fill: none"/>
   </g>
   <g id="patch_166">
    <path d="M 189.654195 378 
L 198.056622 378 
L 198.056622 347.52497 
L 189.654195 347.52497 
L 189.654195 378 
z
" clip-path="url(#p4dfd55c79a)" style="fill: none"/>
   </g>
   <g id="patch_167">
    <path d="M 198.056622 378 
L 206.459049 378 
L 206.459049 348.874578 
L 198.056622 348.874578 
L 198.056622 378 
z
" clip-path="url(#p4dfd55c79a)" style="fill: none"/>
   </g>
   <g id="patch_168">
    <path d="M 206.459049 378 
L 214.861476 378 
L 214.861476 346.654255 
L 206.459049 346.654255 
L 206.459049 378 
z
" clip-path="url(#p4dfd55c79a)" style="fill: none"/>
   </g>
   <g id="patch_169">
    <path d="M 214.861476 378 
L 223.263903 378 
L 223.263903 349.397008 
L 214.861476 349.397008 
L 214.861476 378 
z
" clip-path="url(#p4dfd55c79a)" style="fill: none"/>
   </g>
   <g id="patch_170">
    <path d="M 223.263903 378 
L 231.666331 378 
L 231.666331 340.994606 
L 223.263903 340.994606 
L 223.263903 378 
z
" clip-path="url(#p4dfd55c79a)" style="fill: none"/>
   </g>
   <g id="patch_171">
    <path d="M 231.666331 378 
L 240.068758 378 
L 240.068758 340.385106 
L 231.666331 340.385106 
L 231.666331 378 
z
" clip-path="url(#p4dfd55c79a)" style="fill: none"/>
   </g>
   <g id="patch_172">
    <path d="M 240.068758 378 
L 248.471185 378 
L 248.471185 333.46292 
L 240.068758 333.46292 
L 240.068758 378 
z
" clip-path="url(#p4dfd55c79a)" style="fill: none"/>
   </g>
   <g id="patch_173">
    <path d="M 248.471185 378 
L 256.873612 378 
L 256.873612 332.243919 
L 248.471185 332.243919 
L 248.471185 378 
z
" clip-path="url(#p4dfd55c79a)" style="fill: none"/>
   </g>
   <g id="patch_174">
    <path d="M 256.873612 378 
L 265.276039 378 
L 265.276039 327.454986 
L 256.873612 327.454986 
L 256.873612 378 
z
" clip-path="url(#p4dfd55c79a)" style="fill: none"/>
   </g>
   <g id="patch_175">
    <path d="M 265.276039 378 
L 273.678466 378 
L 273.678466 323.362625 
L 265.276039 323.362625 
L 265.276039 378 
z
" clip-path="url(#p4dfd55c79a)" style="fill: none"/>
   </g>
   <g id="patch_176">
    <path d="M 273.678466 378 
L 282.080894 378 
L 282.080894 320.968158 
L 273.678466 320.968158 
L 273.678466 378 
z
" clip-path="url(#p4dfd55c79a)" style="fill: none"/>
   </g>
   <g id="patch_177">
    <path d="M 282.080894 378 
L 290.483321 378 
L 290.483321 330.154203 
L 282.080894 330.154203 
L 282.080894 378 
z
" clip-path="url(#p4dfd55c79a)" style="fill: none"/>
   </g>
   <g id="patch_178">
    <path d="M 290.483321 378 
L 298.885748 378 
L 298.885748 341.77825 
L 290.483321 341.77825 
L 290.483321 378 
z
" clip-path="url(#p4dfd55c79a)" style="fill: none"/>
   </g>
   <g id="patch_179">
    <path d="M 298.885748 378 
L 307.288175 378 
L 307.288175 346.044754 
L 298.885748 346.044754 
L 298.885748 378 
z
" clip-path="url(#p4dfd55c79a)" style="fill: none"/>
   </g>
   <g id="patch_180">
    <path d="M 307.288175 378 
L 315.690602 378 
L 315.690602 349.832365 
L 307.288175 349.832365 
L 307.288175 378 
z
" clip-path="url(#p4dfd55c79a)" style="fill: none"/>
   </g>
   <g id="patch_181">
    <path d="M 315.690602 378 
L 324.093029 378 
L 324.093029 354.577763 
L 315.690602 354.577763 
L 315.690602 378 
z
" clip-path="url(#p4dfd55c79a)" style="fill: none"/>
   </g>
   <g id="patch_182">
    <path d="M 324.093029 378 
L 332.495457 378 
L 332.495457 358.887803 
L 324.093029 358.887803 
L 324.093029 378 
z
" clip-path="url(#p4dfd55c79a)" style="fill: none"/>
   </g>
   <g id="patch_183">
    <path d="M 332.495457 378 
L 340.897884 378 
L 340.897884 369.68467 
L 332.495457 369.68467 
L 332.495457 378 
z
" clip-path="url(#p4dfd55c79a)" style="fill: none"/>
   </g>
   <g id="patch_184">
    <path d="M 340.897884 378 
L 349.300311 378 
L 349.300311 373.472281 
L 340.897884 373.472281 
L 340.897884 378 
z
" clip-path="url(#p4dfd55c79a)" style="fill: none"/>
   </g>
   <g id="patch_185">
    <path d="M 349.300311 378 
L 357.702738 378 
L 357.702738 375.300783 
L 349.300311 375.300783 
L 349.300311 378 
z
" clip-path="url(#p4dfd55c79a)" style="fill: none"/>
   </g>
   <g id="patch_186">
    <path d="M 357.702738 378 
L 366.105165 378 
L 366.105165 374.691282 
L 357.702738 374.691282 
L 357.702738 378 
z
" clip-path="url(#p4dfd55c79a)" style="fill: none"/>
   </g>
   <g id="patch_187">
    <path d="M 366.105165 378 
L 374.507592 378 
L 374.507592 372.122673 
L 366.105165 372.122673 
L 366.105165 378 
z
" clip-path="url(#p4dfd55c79a)" style="fill: none"/>
   </g>
   <g id="patch_188">
    <path d="M 374.507592 378 
L 382.91002 378 
L 382.91002 368.552741 
L 374.507592 368.552741 
L 374.507592 378 
z
" clip-path="url(#p4dfd55c79a)" style="fill: none"/>
   </g>
   <g id="patch_189">
    <path d="M 382.91002 378 
L 391.312447 378 
L 391.312447 363.6332 
L 382.91002 363.6332 
L 382.91002 378 
z
" clip-path="url(#p4dfd55c79a)" style="fill: none"/>
   </g>
   <g id="patch_190">
    <path d="M 391.312447 378 
L 399.714874 378 
L 399.714874 362.414199 
L 391.312447 362.414199 
L 391.312447 378 
z
" clip-path="url(#p4dfd55c79a)" style="fill: none"/>
   </g>
   <g id="patch_191">
    <path d="M 399.714874 378 
L 408.117301 378 
L 408.117301 353.924726 
L 399.714874 353.924726 
L 399.714874 378 
z
" clip-path="url(#p4dfd55c79a)" style="fill: none"/>
   </g>
   <g id="patch_192">
    <path d="M 408.117301 378 
L 416.519728 378 
L 416.519728 350.70308 
L 408.117301 350.70308 
L 408.117301 378 
z
" clip-path="url(#p4dfd55c79a)" style="fill: none"/>
   </g>
   <g id="patch_193">
    <path d="M 416.519728 378 
L 424.922155 378 
L 424.922155 352.879868 
L 416.519728 352.879868 
L 416.519728 378 
z
" clip-path="url(#p4dfd55c79a)" style="fill: none"/>
   </g>
   <g id="patch_194">
    <path d="M 424.922155 378 
L 433.324583 378 
L 433.324583 361.021055 
L 424.922155 361.021055 
L 424.922155 378 
z
" clip-path="url(#p4dfd55c79a)" style="fill: none"/>
   </g>
   <g id="patch_195">
    <path d="M 433.324583 378 
L 441.72701 378 
L 441.72701 367.682026 
L 433.324583 367.682026 
L 433.324583 378 
z
" clip-path="url(#p4dfd55c79a)" style="fill: none"/>
   </g>
   <g id="patch_196">
    <path d="M 441.72701 378 
L 450.129437 378 
L 450.129437 364.721594 
L 441.72701 364.721594 
L 441.72701 378 
z
" clip-path="url(#p4dfd55c79a)" style="fill: none"/>
   </g>
   <g id="patch_197">
    <path d="M 450.129437 378 
L 458.531864 378 
L 458.531864 364.242701 
L 450.129437 364.242701 
L 450.129437 378 
z
" clip-path="url(#p4dfd55c79a)" style="fill: none"/>
   </g>
   <g id="patch_198">
    <path d="M 458.531864 378 
L 466.934291 378 
L 466.934291 368.030312 
L 458.531864 368.030312 
L 458.531864 378 
z
" clip-path="url(#p4dfd55c79a)" style="fill: none"/>
   </g>
   <g id="patch_199">
    <path d="M 466.934291 378 
L 475.336718 378 
L 475.336718 369.466992 
L 466.934291 369.466992 
L 466.934291 378 
z
" clip-path="url(#p4dfd55c79a)" style="fill: none"/>
   </g>
   <g id="patch_200">
    <path d="M 475.336718 378 
L 483.739146 378 
L 483.739146 363.0237 
L 475.336718 363.0237 
L 475.336718 378 
z
" clip-path="url(#p4dfd55c79a)" style="fill: none"/>
   </g>
   <g id="patch_201">
    <path d="M 483.739146 378 
L 492.141573 378 
L 492.141573 374.517139 
L 483.739146 374.517139 
L 483.739146 378 
z
" clip-path="url(#p4dfd55c79a)" style="fill: none"/>
   </g>
   <g id="patch_202">
    <path d="M 492.141573 378 
L 500.544 378 
L 500.544 377.651714 
L 492.141573 377.651714 
L 492.141573 378 
z
" clip-path="url(#p4dfd55c79a)" style="fill: none"/>
   </g>
   <g id="matplotlib.axis_1">
    <g id="xtick_1">
     <g id="line2d_1">
      <defs>
       <path id="m9998cbf67d" d="M 0 0 
L 0 3.5 
" style="stroke: #000000; stroke-width: 0.8"/>
      </defs>
      <g>
       <use xlink:href="#m9998cbf67d" x="72" y="378" style="stroke: #000000; stroke-width: 0.8"/>
      </g>
     </g>
     <g id="text_1">
      <!-- 0.00 -->
      <g transform="translate(60.867188 392.598437)scale(0.1 -0.1)">
       <defs>
        <path id="DejaVuSans-30" d="M 2034 4250 
Q 1547 4250 1301 3770 
Q 1056 3291 1056 2328 
Q 1056 1369 1301 889 
Q 1547 409 2034 409 
Q 2525 409 2770 889 
Q 3016 1369 3016 2328 
Q 3016 3291 2770 3770 
Q 2525 4250 2034 4250 
z
M 2034 4750 
Q 2819 4750 3233 4129 
Q 3647 3509 3647 2328 
Q 3647 1150 3233 529 
Q 2819 -91 2034 -91 
Q 1250 -91 836 529 
Q 422 1150 422 2328 
Q 422 3509 836 4129 
Q 1250 4750 2034 4750 
z
" transform="scale(0.015625)"/>
        <path id="DejaVuSans-2e" d="M 684 794 
L 1344 794 
L 1344 0 
L 684 0 
L 684 794 
z
" transform="scale(0.015625)"/>
       </defs>
       <use xlink:href="#DejaVuSans-30"/>
       <use xlink:href="#DejaVuSans-2e" x="63.623047"/>
       <use xlink:href="#DejaVuSans-30" x="95.410156"/>
       <use xlink:href="#DejaVuSans-30" x="159.033203"/>
      </g>
     </g>
    </g>
    <g id="xtick_2">
     <g id="line2d_2">
      <g>
       <use xlink:href="#m9998cbf67d" x="183.6" y="378" style="stroke: #000000; stroke-width: 0.8"/>
      </g>
     </g>
     <g id="text_2">
      <!-- 0.25 -->
      <g transform="translate(172.467187 392.598437)scale(0.1 -0.1)">
       <defs>
        <path id="DejaVuSans-32" d="M 1228 531 
L 3431 531 
L 3431 0 
L 469 0 
L 469 531 
Q 828 903 1448 1529 
Q 2069 2156 2228 2338 
Q 2531 2678 2651 2914 
Q 2772 3150 2772 3378 
Q 2772 3750 2511 3984 
Q 2250 4219 1831 4219 
Q 1534 4219 1204 4116 
Q 875 4013 500 3803 
L 500 4441 
Q 881 4594 1212 4672 
Q 1544 4750 1819 4750 
Q 2544 4750 2975 4387 
Q 3406 4025 3406 3419 
Q 3406 3131 3298 2873 
Q 3191 2616 2906 2266 
Q 2828 2175 2409 1742 
Q 1991 1309 1228 531 
z
" transform="scale(0.015625)"/>
        <path id="DejaVuSans-35" d="M 691 4666 
L 3169 4666 
L 3169 4134 
L 1269 4134 
L 1269 2991 
Q 1406 3038 1543 3061 
Q 1681 3084 1819 3084 
Q 2600 3084 3056 2656 
Q 3513 2228 3513 1497 
Q 3513 744 3044 326 
Q 2575 -91 1722 -91 
Q 1428 -91 1123 -41 
Q 819 9 494 109 
L 494 744 
Q 775 591 1075 516 
Q 1375 441 1709 441 
Q 2250 441 2565 725 
Q 2881 1009 2881 1497 
Q 2881 1984 2565 2268 
Q 2250 2553 1709 2553 
Q 1456 2553 1204 2497 
Q 953 2441 691 2322 
L 691 4666 
z
" transform="scale(0.015625)"/>
       </defs>
       <use xlink:href="#DejaVuSans-30"/>
       <use xlink:href="#DejaVuSans-2e" x="63.623047"/>
       <use xlink:href="#DejaVuSans-32" x="95.410156"/>
       <use xlink:href="#DejaVuSans-35" x="159.033203"/>
      </g>
     </g>
    </g>
    <g id="xtick_3">
     <g id="line2d_3">
      <g>
       <use xlink:href="#m9998cbf67d" x="295.2" y="378" style="stroke: #000000; stroke-width: 0.8"/>
      </g>
     </g>
     <g id="text_3">
      <!-- 0.50 -->
      <g transform="translate(284.067187 392.598437)scale(0.1 -0.1)">
       <use xlink:href="#DejaVuSans-30"/>
       <use xlink:href="#DejaVuSans-2e" x="63.623047"/>
       <use xlink:href="#DejaVuSans-35" x="95.410156"/>
       <use xlink:href="#DejaVuSans-30" x="159.033203"/>
      </g>
     </g>
    </g>
    <g id="xtick_4">
     <g id="line2d_4">
      <g>
       <use xlink:href="#m9998cbf67d" x="406.8" y="378" style="stroke: #000000; stroke-width: 0.8"/>
      </g>
     </g>
     <g id="text_4">
      <!-- 0.75 -->
      <g transform="translate(395.667187 392.598437)scale(0.1 -0.1)">
       <defs>
        <path id="DejaVuSans-37" d="M 525 4666 
L 3525 4666 
L 3525 4397 
L 1831 0 
L 1172 0 
L 2766 4134 
L 525 4134 
L 525 4666 
z
" transform="scale(0.015625)"/>
       </defs>
       <use xlink:href="#DejaVuSans-30"/>
       <use xlink:href="#DejaVuSans-2e" x="63.623047"/>
       <use xlink:href="#DejaVuSans-37" x="95.410156"/>
       <use xlink:href="#DejaVuSans-35" x="159.033203"/>
      </g>
     </g>
    </g>
    <g id="xtick_5">
     <g id="line2d_5">
      <g>
       <use xlink:href="#m9998cbf67d" x="518.4" y="378" style="stroke: #000000; stroke-width: 0.8"/>
      </g>
     </g>
     <g id="text_5">
      <!-- 1.00 -->
      <g transform="translate(507.267187 392.598437)scale(0.1 -0.1)">
       <defs>
        <path id="DejaVuSans-31" d="M 794 531 
L 1825 531 
L 1825 4091 
L 703 3866 
L 703 4441 
L 1819 4666 
L 2450 4666 
L 2450 531 
L 3481 531 
L 3481 0 
L 794 0 
L 794 531 
z
" transform="scale(0.015625)"/>
       </defs>
       <use xlink:href="#DejaVuSans-31"/>
       <use xlink:href="#DejaVuSans-2e" x="63.623047"/>
       <use xlink:href="#DejaVuSans-30" x="95.410156"/>
       <use xlink:href="#DejaVuSans-30" x="159.033203"/>
      </g>
     </g>
    </g>
    <g id="text_6">
     <!-- ratio_roeske -->
     <g transform="translate(264.697656 406.276563)scale(0.1 -0.1)">
      <defs>
       <path id="DejaVuSans-72" d="M 2631 2963 
Q 2534 3019 2420 3045 
Q 2306 3072 2169 3072 
Q 1681 3072 1420 2755 
Q 1159 2438 1159 1844 
L 1159 0 
L 581 0 
L 581 3500 
L 1159 3500 
L 1159 2956 
Q 1341 3275 1631 3429 
Q 1922 3584 2338 3584 
Q 2397 3584 2469 3576 
Q 2541 3569 2628 3553 
L 2631 2963 
z
" transform="scale(0.015625)"/>
       <path id="DejaVuSans-61" d="M 2194 1759 
Q 1497 1759 1228 1600 
Q 959 1441 959 1056 
Q 959 750 1161 570 
Q 1363 391 1709 391 
Q 2188 391 2477 730 
Q 2766 1069 2766 1631 
L 2766 1759 
L 2194 1759 
z
M 3341 1997 
L 3341 0 
L 2766 0 
L 2766 531 
Q 2569 213 2275 61 
Q 1981 -91 1556 -91 
Q 1019 -91 701 211 
Q 384 513 384 1019 
Q 384 1609 779 1909 
Q 1175 2209 1959 2209 
L 2766 2209 
L 2766 2266 
Q 2766 2663 2505 2880 
Q 2244 3097 1772 3097 
Q 1472 3097 1187 3025 
Q 903 2953 641 2809 
L 641 3341 
Q 956 3463 1253 3523 
Q 1550 3584 1831 3584 
Q 2591 3584 2966 3190 
Q 3341 2797 3341 1997 
z
" transform="scale(0.015625)"/>
       <path id="DejaVuSans-74" d="M 1172 4494 
L 1172 3500 
L 2356 3500 
L 2356 3053 
L 1172 3053 
L 1172 1153 
Q 1172 725 1289 603 
Q 1406 481 1766 481 
L 2356 481 
L 2356 0 
L 1766 0 
Q 1100 0 847 248 
Q 594 497 594 1153 
L 594 3053 
L 172 3053 
L 172 3500 
L 594 3500 
L 594 4494 
L 1172 4494 
z
" transform="scale(0.015625)"/>
       <path id="DejaVuSans-69" d="M 603 3500 
L 1178 3500 
L 1178 0 
L 603 0 
L 603 3500 
z
M 603 4863 
L 1178 4863 
L 1178 4134 
L 603 4134 
L 603 4863 
z
" transform="scale(0.015625)"/>
       <path id="DejaVuSans-6f" d="M 1959 3097 
Q 1497 3097 1228 2736 
Q 959 2375 959 1747 
Q 959 1119 1226 758 
Q 1494 397 1959 397 
Q 2419 397 2687 759 
Q 2956 1122 2956 1747 
Q 2956 2369 2687 2733 
Q 2419 3097 1959 3097 
z
M 1959 3584 
Q 2709 3584 3137 3096 
Q 3566 2609 3566 1747 
Q 3566 888 3137 398 
Q 2709 -91 1959 -91 
Q 1206 -91 779 398 
Q 353 888 353 1747 
Q 353 2609 779 3096 
Q 1206 3584 1959 3584 
z
" transform="scale(0.015625)"/>
       <path id="DejaVuSans-5f" d="M 3263 -1063 
L 3263 -1509 
L -63 -1509 
L -63 -1063 
L 3263 -1063 
z
" transform="scale(0.015625)"/>
       <path id="DejaVuSans-65" d="M 3597 1894 
L 3597 1613 
L 953 1613 
Q 991 1019 1311 708 
Q 1631 397 2203 397 
Q 2534 397 2845 478 
Q 3156 559 3463 722 
L 3463 178 
Q 3153 47 2828 -22 
Q 2503 -91 2169 -91 
Q 1331 -91 842 396 
Q 353 884 353 1716 
Q 353 2575 817 3079 
Q 1281 3584 2069 3584 
Q 2775 3584 3186 3129 
Q 3597 2675 3597 1894 
z
M 3022 2063 
Q 3016 2534 2758 2815 
Q 2500 3097 2075 3097 
Q 1594 3097 1305 2825 
Q 1016 2553 972 2059 
L 3022 2063 
z
" transform="scale(0.015625)"/>
       <path id="DejaVuSans-73" d="M 2834 3397 
L 2834 2853 
Q 2591 2978 2328 3040 
Q 2066 3103 1784 3103 
Q 1356 3103 1142 2972 
Q 928 2841 928 2578 
Q 928 2378 1081 2264 
Q 1234 2150 1697 2047 
L 1894 2003 
Q 2506 1872 2764 1633 
Q 3022 1394 3022 966 
Q 3022 478 2636 193 
Q 2250 -91 1575 -91 
Q 1294 -91 989 -36 
Q 684 19 347 128 
L 347 722 
Q 666 556 975 473 
Q 1284 391 1588 391 
Q 1994 391 2212 530 
Q 2431 669 2431 922 
Q 2431 1156 2273 1281 
Q 2116 1406 1581 1522 
L 1381 1569 
Q 847 1681 609 1914 
Q 372 2147 372 2553 
Q 372 3047 722 3315 
Q 1072 3584 1716 3584 
Q 2034 3584 2315 3537 
Q 2597 3491 2834 3397 
z
" transform="scale(0.015625)"/>
       <path id="DejaVuSans-6b" d="M 581 4863 
L 1159 4863 
L 1159 1991 
L 2875 3500 
L 3609 3500 
L 1753 1863 
L 3688 0 
L 2938 0 
L 1159 1709 
L 1159 0 
L 581 0 
L 581 4863 
z
" transform="scale(0.015625)"/>
      </defs>
      <use xlink:href="#DejaVuSans-72"/>
      <use xlink:href="#DejaVuSans-61" x="41.113281"/>
      <use xlink:href="#DejaVuSans-74" x="102.392578"/>
      <use xlink:href="#DejaVuSans-69" x="141.601562"/>
      <use xlink:href="#DejaVuSans-6f" x="169.384766"/>
      <use xlink:href="#DejaVuSans-5f" x="230.566406"/>
      <use xlink:href="#DejaVuSans-72" x="280.566406"/>
      <use xlink:href="#DejaVuSans-6f" x="319.429688"/>
      <use xlink:href="#DejaVuSans-65" x="380.611328"/>
      <use xlink:href="#DejaVuSans-73" x="442.134766"/>
      <use xlink:href="#DejaVuSans-6b" x="494.234375"/>
      <use xlink:href="#DejaVuSans-65" x="548.519531"/>
     </g>
    </g>
   </g>
   <g id="matplotlib.axis_2">
    <g id="ytick_1">
     <g id="line2d_6">
      <defs>
       <path id="mf82513593d" d="M 0 0 
L -3.5 0 
" style="stroke: #000000; stroke-width: 0.8"/>
      </defs>
      <g>
       <use xlink:href="#mf82513593d" x="72" y="378" style="stroke: #000000; stroke-width: 0.8"/>
      </g>
     </g>
     <g id="text_7">
      <!-- 0 -->
      <g transform="translate(58.6375 381.799219)scale(0.1 -0.1)">
       <use xlink:href="#DejaVuSans-30"/>
      </g>
     </g>
    </g>
    <g id="ytick_2">
     <g id="line2d_7">
      <g>
       <use xlink:href="#mf82513593d" x="72" y="318.705662" style="stroke: #000000; stroke-width: 0.8"/>
      </g>
     </g>
     <g id="text_8">
      <!-- 2 -->
      <g transform="translate(58.6375 322.50488)scale(0.1 -0.1)">
       <use xlink:href="#DejaVuSans-32"/>
      </g>
     </g>
    </g>
    <g id="ytick_3">
     <g id="line2d_8">
      <g>
       <use xlink:href="#mf82513593d" x="72" y="259.411323" style="stroke: #000000; stroke-width: 0.8"/>
      </g>
     </g>
     <g id="text_9">
      <!-- 4 -->
      <g transform="translate(58.6375 263.210542)scale(0.1 -0.1)">
       <defs>
        <path id="DejaVuSans-34" d="M 2419 4116 
L 825 1625 
L 2419 1625 
L 2419 4116 
z
M 2253 4666 
L 3047 4666 
L 3047 1625 
L 3713 1625 
L 3713 1100 
L 3047 1100 
L 3047 0 
L 2419 0 
L 2419 1100 
L 313 1100 
L 313 1709 
L 2253 4666 
z
" transform="scale(0.015625)"/>
       </defs>
       <use xlink:href="#DejaVuSans-34"/>
      </g>
     </g>
    </g>
    <g id="ytick_4">
     <g id="line2d_9">
      <g>
       <use xlink:href="#mf82513593d" x="72" y="200.116985" style="stroke: #000000; stroke-width: 0.8"/>
      </g>
     </g>
     <g id="text_10">
      <!-- 6 -->
      <g transform="translate(58.6375 203.916204)scale(0.1 -0.1)">
       <defs>
        <path id="DejaVuSans-36" d="M 2113 2584 
Q 1688 2584 1439 2293 
Q 1191 2003 1191 1497 
Q 1191 994 1439 701 
Q 1688 409 2113 409 
Q 2538 409 2786 701 
Q 3034 994 3034 1497 
Q 3034 2003 2786 2293 
Q 2538 2584 2113 2584 
z
M 3366 4563 
L 3366 3988 
Q 3128 4100 2886 4159 
Q 2644 4219 2406 4219 
Q 1781 4219 1451 3797 
Q 1122 3375 1075 2522 
Q 1259 2794 1537 2939 
Q 1816 3084 2150 3084 
Q 2853 3084 3261 2657 
Q 3669 2231 3669 1497 
Q 3669 778 3244 343 
Q 2819 -91 2113 -91 
Q 1303 -91 875 529 
Q 447 1150 447 2328 
Q 447 3434 972 4092 
Q 1497 4750 2381 4750 
Q 2619 4750 2861 4703 
Q 3103 4656 3366 4563 
z
" transform="scale(0.015625)"/>
       </defs>
       <use xlink:href="#DejaVuSans-36"/>
      </g>
     </g>
    </g>
    <g id="ytick_5">
     <g id="line2d_10">
      <g>
       <use xlink:href="#mf82513593d" x="72" y="140.822647" style="stroke: #000000; stroke-width: 0.8"/>
      </g>
     </g>
     <g id="text_11">
      <!-- 8 -->
      <g transform="translate(58.6375 144.621866)scale(0.1 -0.1)">
       <defs>
        <path id="DejaVuSans-38" d="M 2034 2216 
Q 1584 2216 1326 1975 
Q 1069 1734 1069 1313 
Q 1069 891 1326 650 
Q 1584 409 2034 409 
Q 2484 409 2743 651 
Q 3003 894 3003 1313 
Q 3003 1734 2745 1975 
Q 2488 2216 2034 2216 
z
M 1403 2484 
Q 997 2584 770 2862 
Q 544 3141 544 3541 
Q 544 4100 942 4425 
Q 1341 4750 2034 4750 
Q 2731 4750 3128 4425 
Q 3525 4100 3525 3541 
Q 3525 3141 3298 2862 
Q 3072 2584 2669 2484 
Q 3125 2378 3379 2068 
Q 3634 1759 3634 1313 
Q 3634 634 3220 271 
Q 2806 -91 2034 -91 
Q 1263 -91 848 271 
Q 434 634 434 1313 
Q 434 1759 690 2068 
Q 947 2378 1403 2484 
z
M 1172 3481 
Q 1172 3119 1398 2916 
Q 1625 2713 2034 2713 
Q 2441 2713 2670 2916 
Q 2900 3119 2900 3481 
Q 2900 3844 2670 4047 
Q 2441 4250 2034 4250 
Q 1625 4250 1398 4047 
Q 1172 3844 1172 3481 
z
" transform="scale(0.015625)"/>
       </defs>
       <use xlink:href="#DejaVuSans-38"/>
      </g>
     </g>
    </g>
    <g id="ytick_6">
     <g id="line2d_11">
      <g>
       <use xlink:href="#mf82513593d" x="72" y="81.528309" style="stroke: #000000; stroke-width: 0.8"/>
      </g>
     </g>
     <g id="text_12">
      <!-- 10 -->
      <g transform="translate(52.275 85.327527)scale(0.1 -0.1)">
       <use xlink:href="#DejaVuSans-31"/>
       <use xlink:href="#DejaVuSans-30" x="63.623047"/>
      </g>
     </g>
    </g>
    <g id="text_13">
     <!-- Density -->
     <g transform="translate(46.195312 233.928594)rotate(-90)scale(0.1 -0.1)">
      <defs>
       <path id="DejaVuSans-44" d="M 1259 4147 
L 1259 519 
L 2022 519 
Q 2988 519 3436 956 
Q 3884 1394 3884 2338 
Q 3884 3275 3436 3711 
Q 2988 4147 2022 4147 
L 1259 4147 
z
M 628 4666 
L 1925 4666 
Q 3281 4666 3915 4102 
Q 4550 3538 4550 2338 
Q 4550 1131 3912 565 
Q 3275 0 1925 0 
L 628 0 
L 628 4666 
z
" transform="scale(0.015625)"/>
       <path id="DejaVuSans-6e" d="M 3513 2113 
L 3513 0 
L 2938 0 
L 2938 2094 
Q 2938 2591 2744 2837 
Q 2550 3084 2163 3084 
Q 1697 3084 1428 2787 
Q 1159 2491 1159 1978 
L 1159 0 
L 581 0 
L 581 3500 
L 1159 3500 
L 1159 2956 
Q 1366 3272 1645 3428 
Q 1925 3584 2291 3584 
Q 2894 3584 3203 3211 
Q 3513 2838 3513 2113 
z
" transform="scale(0.015625)"/>
       <path id="DejaVuSans-79" d="M 2059 -325 
Q 1816 -950 1584 -1140 
Q 1353 -1331 966 -1331 
L 506 -1331 
L 506 -850 
L 844 -850 
Q 1081 -850 1212 -737 
Q 1344 -625 1503 -206 
L 1606 56 
L 191 3500 
L 800 3500 
L 1894 763 
L 2988 3500 
L 3597 3500 
L 2059 -325 
z
" transform="scale(0.015625)"/>
      </defs>
      <use xlink:href="#DejaVuSans-44"/>
      <use xlink:href="#DejaVuSans-65" x="77.001953"/>
      <use xlink:href="#DejaVuSans-6e" x="138.525391"/>
      <use xlink:href="#DejaVuSans-73" x="201.904297"/>
      <use xlink:href="#DejaVuSans-69" x="254.003906"/>
      <use xlink:href="#DejaVuSans-74" x="281.787109"/>
      <use xlink:href="#DejaVuSans-79" x="320.996094"/>
     </g>
    </g>
   </g>
   <g id="line2d_12">
    <path d="M 109.591579 378 
L 130.676108 377.912996 
L 134.342983 377.695281 
L 138.009857 377.214243 
L 146.260325 375.838584 
L 148.093762 375.807312 
L 149.9272 375.9395 
L 152.677356 376.373941 
L 159.094386 377.521026 
L 162.761261 377.843631 
L 167.344854 377.974913 
L 181.095634 377.999994 
L 206.763756 377.904733 
L 210.430631 377.669541 
L 213.180787 377.307988 
L 216.847661 376.551347 
L 228.765004 373.563487 
L 230.598441 372.731478 
L 232.431879 371.543541 
L 234.265316 369.920066 
L 236.098753 367.839115 
L 237.932191 365.354851 
L 240.682346 361.15592 
L 247.099377 350.863022 
L 248.932814 347.32356 
L 250.766252 342.914574 
L 251.68297 340.269121 
L 253.516408 333.939104 
L 255.349845 326.170455 
L 257.183282 317.120388 
L 259.933438 302.066273 
L 262.683594 287.05693 
L 264.517031 278.108326 
L 266.350469 270.538386 
L 267.267187 267.346187 
L 268.183906 264.562676 
L 269.100625 262.185077 
L 270.017343 260.20472 
L 270.934062 258.611379 
L 271.850781 257.397545 
L 272.767499 256.562057 
L 273.684218 256.112617 
L 274.600937 256.066843 
L 275.517655 256.451721 
L 276.434374 257.301486 
L 277.351093 258.654187 
L 278.267811 260.54732 
L 279.18453 263.012996 
L 280.101249 266.073169 
L 281.017967 269.735406 
L 281.934686 273.989636 
L 283.768123 284.135276 
L 285.601561 296.039104 
L 292.018591 340.274543 
L 292.018591 340.274543 
" clip-path="url(#p4dfd55c79a)" style="fill: none; stroke: #a5e10f; stroke-width: 1.5; stroke-linecap: square"/>
   </g>
   <g id="line2d_13">
    <path d="M 109.591579 367.759079 
L 112.341735 363.240004 
L 114.175172 360.806681 
L 116.00861 359.007107 
L 117.842047 357.422659 
L 118.758765 356.403226 
L 119.675484 354.99224 
L 120.592203 352.976548 
L 121.508921 350.133848 
L 122.42564 346.252045 
L 123.342359 341.151495 
L 124.259077 334.707934 
L 125.175796 326.873067 
L 126.092515 317.689361 
L 127.925952 295.923391 
L 132.509545 236.245353 
L 133.426264 226.170303 
L 134.342983 217.324943 
L 135.259701 209.827262 
L 136.17642 203.714478 
L 137.093139 198.946729 
L 138.009857 195.414038 
L 138.926576 192.945888 
L 139.843295 191.323198 
L 140.760013 190.29274 
L 143.510169 188.072024 
L 144.426888 186.806004 
L 145.343606 184.96625 
L 146.260325 182.449163 
L 147.177044 179.213532 
L 148.093762 175.279833 
L 149.9272 165.694203 
L 152.677356 149.944323 
L 153.594074 145.51134 
L 154.510793 142.118904 
L 155.427512 140.167964 
L 156.34423 140.018932 
L 157.260949 141.942039 
L 158.177668 146.071086 
L 159.094386 152.371707 
L 160.011105 160.633643 
L 161.844542 181.475266 
L 165.511417 227.302985 
L 167.344854 247.590897 
L 171.011729 284.339978 
L 174.678603 319.812634 
L 176.512041 335.224212 
L 177.428759 341.832747 
L 178.345478 347.605298 
L 179.262197 352.530594 
L 180.178915 356.645167 
L 181.095634 360.020412 
L 182.012353 362.746647 
L 182.929071 364.917863 
L 183.84579 366.620198 
L 184.762509 367.925882 
L 185.679227 368.892845 
L 186.595946 369.568713 
L 187.512665 369.996954 
L 188.429383 370.222656 
L 190.262821 370.271643 
L 193.012976 370.156199 
L 194.846414 370.436043 
L 196.679851 371.121135 
L 198.513288 372.124874 
L 204.930319 376.127444 
L 206.763756 376.917825 
L 208.597194 377.446145 
L 210.430631 377.750956 
L 213.180787 377.941732 
L 218.681099 377.998758 
L 292.018591 378 
L 292.018591 378 
" clip-path="url(#p4dfd55c79a)" style="fill: none; stroke: #24b4b1; stroke-width: 1.5; stroke-linecap: square"/>
   </g>
   <g id="line2d_14">
    <path d="M 80.422642 377.863916 
L 90.978455 377.686326 
L 97.311942 377.405067 
L 103.64543 376.857364 
L 107.867755 376.282389 
L 112.090081 375.506195 
L 116.312406 374.521287 
L 122.645894 372.712342 
L 133.201707 369.459531 
L 137.424032 368.374267 
L 141.646357 367.531147 
L 145.868682 366.945867 
L 150.091007 366.580188 
L 158.535658 366.186877 
L 166.980308 365.73801 
L 175.424959 365.036606 
L 188.091934 363.967442 
L 196.536585 363.478022 
L 213.425886 362.621007 
L 219.759373 362.053378 
L 226.092861 361.227734 
L 232.426349 360.152796 
L 242.982162 358.046594 
L 253.537975 356.003919 
L 259.871463 355.017121 
L 264.093788 354.544875 
L 268.316113 354.287298 
L 272.538439 354.302344 
L 276.760764 354.631366 
L 280.983089 355.283263 
L 285.205414 356.227727 
L 289.427739 357.401994 
L 295.761227 359.4257 
L 323.206341 368.552165 
L 331.650992 371.078927 
L 337.984479 372.710642 
L 342.206805 373.60774 
L 346.42913 374.314173 
L 350.651455 374.806529 
L 354.87378 375.073572 
L 359.096105 375.117414 
L 363.318431 374.952573 
L 367.540756 374.60343 
L 373.874244 373.801141 
L 380.207731 372.756141 
L 388.652382 371.128826 
L 399.208195 369.037501 
L 403.43052 368.352605 
L 407.652845 367.868361 
L 411.875171 367.651297 
L 416.097496 367.732516 
L 420.319821 368.093539 
L 424.542146 368.667689 
L 439.320284 370.975829 
L 445.653772 371.635878 
L 454.098423 372.212881 
L 468.876561 373.095764 
L 475.210049 373.666321 
L 481.543537 374.439632 
L 500.544 377.025357 
L 500.544 377.025357 
" clip-path="url(#p4dfd55c79a)" style="fill: none; stroke-dasharray: 5.55,2.4; stroke-dashoffset: 0; stroke: #a5e10f; stroke-width: 1.5"/>
   </g>
   <g id="line2d_15">
    <path d="M 80.422642 377.795217 
L 90.978455 377.502899 
L 97.311942 377.054741 
L 101.534268 376.50009 
L 105.756593 375.622233 
L 107.867755 375.025597 
L 109.978918 374.30435 
L 112.090081 373.445632 
L 114.201243 372.439701 
L 116.312406 371.28166 
L 118.423568 369.973272 
L 122.645894 366.9551 
L 133.201707 358.602854 
L 135.312869 357.166668 
L 137.424032 355.915973 
L 139.535194 354.880666 
L 141.646357 354.07675 
L 143.75752 353.504999 
L 145.868682 353.151175 
L 147.979845 352.987766 
L 152.20217 353.074553 
L 160.646821 353.66311 
L 164.869146 353.614433 
L 169.091471 353.19252 
L 173.313796 352.452132 
L 188.091934 349.376289 
L 192.31426 348.822037 
L 198.647747 348.284428 
L 204.981235 347.798291 
L 209.20356 347.310102 
L 213.425886 346.58639 
L 217.648211 345.583026 
L 221.870536 344.30174 
L 226.092861 342.785046 
L 232.426349 340.215674 
L 245.093325 334.688134 
L 253.537975 331.041298 
L 257.7603 329.373803 
L 261.982626 327.960751 
L 264.093788 327.402827 
L 266.204951 326.97751 
L 268.316113 326.711185 
L 270.427276 326.628966 
L 272.538439 326.752332 
L 274.649601 327.096613 
L 276.760764 327.668705 
L 278.871926 328.465407 
L 280.983089 329.472718 
L 283.094252 330.666327 
L 287.316577 333.475067 
L 299.983552 342.617075 
L 304.205878 345.323792 
L 318.984016 354.407608 
L 325.317504 358.780544 
L 333.762154 364.762647 
L 337.984479 367.452942 
L 342.206805 369.716017 
L 344.317967 370.649766 
L 346.42913 371.439999 
L 348.540292 372.083137 
L 350.651455 372.579113 
L 352.762618 372.930608 
L 354.87378 373.142244 
L 356.984943 373.219841 
L 359.096105 373.169852 
L 361.207268 372.999017 
L 365.429593 372.322593 
L 369.651918 371.249183 
L 373.874244 369.845377 
L 378.096569 368.186004 
L 384.430057 365.38092 
L 399.208195 358.516653 
L 403.43052 356.908267 
L 405.541683 356.264545 
L 407.652845 355.760691 
L 409.764008 355.418709 
L 411.875171 355.255831 
L 413.986333 355.282468 
L 416.097496 355.500565 
L 418.208658 355.902608 
L 420.319821 356.471429 
L 424.542146 357.997647 
L 435.097959 362.348137 
L 439.320284 363.645875 
L 443.54261 364.567227 
L 447.764935 365.206993 
L 458.320748 366.394548 
L 470.987724 367.876949 
L 475.210049 368.58958 
L 479.432374 369.574521 
L 483.654699 370.856757 
L 496.321675 375.225505 
L 500.544 376.298509 
L 500.544 376.298509 
" clip-path="url(#p4dfd55c79a)" style="fill: none; stroke-dasharray: 5.55,2.4; stroke-dashoffset: 0; stroke: #24b4b1; stroke-width: 1.5"/>
   </g>
   <g id="patch_203">
    <path d="M 72 378 
L 72 51.84 
" style="fill: none; stroke: #000000; stroke-width: 0.8; stroke-linejoin: miter; stroke-linecap: square"/>
   </g>
   <g id="patch_204">
    <path d="M 518.4 378 
L 518.4 51.84 
" style="fill: none; stroke: #000000; stroke-width: 0.8; stroke-linejoin: miter; stroke-linecap: square"/>
   </g>
   <g id="patch_205">
    <path d="M 72 378 
L 518.4 378 
" style="fill: none; stroke: #000000; stroke-width: 0.8; stroke-linejoin: miter; stroke-linecap: square"/>
   </g>
   <g id="patch_206">
    <path d="M 72 51.84 
L 518.4 51.84 
" style="fill: none; stroke: #000000; stroke-width: 0.8; stroke-linejoin: miter; stroke-linecap: square"/>
   </g>
   <g id="legend_1">
    <g id="patch_207">
     <path d="M 466.675 103.874375 
L 511.4 103.874375 
Q 513.4 103.874375 513.4 101.874375 
L 513.4 58.84 
Q 513.4 56.84 511.4 56.84 
L 466.675 56.84 
Q 464.675 56.84 464.675 58.84 
L 464.675 101.874375 
Q 464.675 103.874375 466.675 103.874375 
z
" style="fill: #ffffff; opacity: 0.8; stroke: #cccccc; stroke-linejoin: miter"/>
    </g>
    <g id="text_14">
     <!-- label2 -->
     <g transform="translate(473.763281 68.438437)scale(0.1 -0.1)">
      <defs>
       <path id="DejaVuSans-6c" d="M 603 4863 
L 1178 4863 
L 1178 0 
L 603 0 
L 603 4863 
z
" transform="scale(0.015625)"/>
       <path id="DejaVuSans-62" d="M 3116 1747 
Q 3116 2381 2855 2742 
Q 2594 3103 2138 3103 
Q 1681 3103 1420 2742 
Q 1159 2381 1159 1747 
Q 1159 1113 1420 752 
Q 1681 391 2138 391 
Q 2594 391 2855 752 
Q 3116 1113 3116 1747 
z
M 1159 2969 
Q 1341 3281 1617 3432 
Q 1894 3584 2278 3584 
Q 2916 3584 3314 3078 
Q 3713 2572 3713 1747 
Q 3713 922 3314 415 
Q 2916 -91 2278 -91 
Q 1894 -91 1617 61 
Q 1341 213 1159 525 
L 1159 0 
L 581 0 
L 581 4863 
L 1159 4863 
L 1159 2969 
z
" transform="scale(0.015625)"/>
      </defs>
      <use xlink:href="#DejaVuSans-6c"/>
      <use xlink:href="#DejaVuSans-61" x="27.783203"/>
      <use xlink:href="#DejaVuSans-62" x="89.0625"/>
      <use xlink:href="#DejaVuSans-65" x="152.539062"/>
      <use xlink:href="#DejaVuSans-6c" x="214.0625"/>
      <use xlink:href="#DejaVuSans-32" x="241.845703"/>
     </g>
    </g>
    <g id="patch_208">
     <path d="M 468.675 83.116562 
L 488.675 83.116562 
L 488.675 76.116562 
L 468.675 76.116562 
L 468.675 83.116562 
z
" style="fill: none"/>
    </g>
    <g id="text_15">
     <!-- 9 -->
     <g transform="translate(496.675 83.116562)scale(0.1 -0.1)">
      <defs>
       <path id="DejaVuSans-39" d="M 703 97 
L 703 672 
Q 941 559 1184 500 
Q 1428 441 1663 441 
Q 2288 441 2617 861 
Q 2947 1281 2994 2138 
Q 2813 1869 2534 1725 
Q 2256 1581 1919 1581 
Q 1219 1581 811 2004 
Q 403 2428 403 3163 
Q 403 3881 828 4315 
Q 1253 4750 1959 4750 
Q 2769 4750 3195 4129 
Q 3622 3509 3622 2328 
Q 3622 1225 3098 567 
Q 2575 -91 1691 -91 
Q 1453 -91 1209 -44 
Q 966 3 703 97 
z
M 1959 2075 
Q 2384 2075 2632 2365 
Q 2881 2656 2881 3163 
Q 2881 3666 2632 3958 
Q 2384 4250 1959 4250 
Q 1534 4250 1286 3958 
Q 1038 3666 1038 3163 
Q 1038 2656 1286 2365 
Q 1534 2075 1959 2075 
z
" transform="scale(0.015625)"/>
      </defs>
      <use xlink:href="#DejaVuSans-39"/>
     </g>
    </g>
    <g id="patch_209">
     <path d="M 468.675 97.794688 
L 488.675 97.794688 
L 488.675 90.794688 
L 468.675 90.794688 
L 468.675 97.794688 
z
" style="fill: none"/>
    </g>
    <g id="text_16">
     <!-- 33 -->
     <g transform="translate(496.675 97.794688)scale(0.1 -0.1)">
      <defs>
       <path id="DejaVuSans-33" d="M 2597 2516 
Q 3050 2419 3304 2112 
Q 3559 1806 3559 1356 
Q 3559 666 3084 287 
Q 2609 -91 1734 -91 
Q 1441 -91 1130 -33 
Q 819 25 488 141 
L 488 750 
Q 750 597 1062 519 
Q 1375 441 1716 441 
Q 2309 441 2620 675 
Q 2931 909 2931 1356 
Q 2931 1769 2642 2001 
Q 2353 2234 1838 2234 
L 1294 2234 
L 1294 2753 
L 1863 2753 
Q 2328 2753 2575 2939 
Q 2822 3125 2822 3475 
Q 2822 3834 2567 4026 
Q 2313 4219 1838 4219 
Q 1578 4219 1281 4162 
Q 984 4106 628 3988 
L 628 4550 
Q 988 4650 1302 4700 
Q 1616 4750 1894 4750 
Q 2613 4750 3031 4423 
Q 3450 4097 3450 3541 
Q 3450 3153 3228 2886 
Q 3006 2619 2597 2516 
z
" transform="scale(0.015625)"/>
      </defs>
      <use xlink:href="#DejaVuSans-33"/>
      <use xlink:href="#DejaVuSans-33" x="63.623047"/>
     </g>
    </g>
   </g>
  </g>
 </g>
 <defs>
  <clipPath id="p4dfd55c79a">
   <rect x="72" y="51.84" width="446.4" height="326.16"/>
  </clipPath>
 </defs>
</svg>
