<?xml version="1.0" encoding="utf-8" standalone="no"?>
<!DOCTYPE svg PUBLIC "-//W3C//DTD SVG 1.1//EN"
  "http://www.w3.org/Graphics/SVG/1.1/DTD/svg11.dtd">
<svg xmlns:xlink="http://www.w3.org/1999/xlink" width="576pt" height="432pt" viewBox="0 0 576 432" xmlns="http://www.w3.org/2000/svg" version="1.1">
 <metadata>
  <rdf:RDF xmlns:dc="http://purl.org/dc/elements/1.1/" xmlns:cc="http://creativecommons.org/ns#" xmlns:rdf="http://www.w3.org/1999/02/22-rdf-syntax-ns#">
   <cc:Work>
    <dc:type rdf:resource="http://purl.org/dc/dcmitype/StillImage"/>
    <dc:date>2022-04-12T13:57:21.509988</dc:date>
    <dc:format>image/svg+xml</dc:format>
    <dc:creator>
     <cc:Agent>
      <dc:title>Matplotlib v3.5.1, https://matplotlib.org/</dc:title>
     </cc:Agent>
    </dc:creator>
   </cc:Work>
  </rdf:RDF>
 </metadata>
 <defs>
  <style type="text/css">*{stroke-linejoin: round; stroke-linecap: butt}</style>
 </defs>
 <g id="figure_1">
  <g id="patch_1">
   <path d="M 0 432 
L 576 432 
L 576 0 
L 0 0 
L 0 432 
z
" style="fill: none"/>
  </g>
  <g id="axes_1">
   <g id="patch_2">
    <path d="M 72 378 
L 518.4 378 
L 518.4 51.84 
L 72 51.84 
z
" style="fill: #ffffff"/>
   </g>
   <g id="patch_3">
    <path d="M 289.222117 378 
L 293.324966 378 
L 293.324966 354.702857 
L 289.222117 354.702857 
z
" clip-path="url(#pb5da790e0a)" style="fill: #a5e10f; fill-opacity: 0.5"/>
   </g>
   <g id="patch_4">
    <path d="M 293.324966 378 
L 297.427816 378 
L 297.427816 354.702857 
L 293.324966 354.702857 
z
" clip-path="url(#pb5da790e0a)" style="fill: #a5e10f; fill-opacity: 0.5"/>
   </g>
   <g id="patch_5">
    <path d="M 297.427816 378 
L 301.530665 378 
L 301.530665 346.937143 
L 297.427816 346.937143 
z
" clip-path="url(#pb5da790e0a)" style="fill: #a5e10f; fill-opacity: 0.5"/>
   </g>
   <g id="patch_6">
    <path d="M 301.530665 378 
L 305.633515 378 
L 305.633515 315.874286 
L 301.530665 315.874286 
z
" clip-path="url(#pb5da790e0a)" style="fill: #a5e10f; fill-opacity: 0.5"/>
   </g>
   <g id="patch_7">
    <path d="M 305.633515 378 
L 309.736364 378 
L 309.736364 284.811429 
L 305.633515 284.811429 
z
" clip-path="url(#pb5da790e0a)" style="fill: #a5e10f; fill-opacity: 0.5"/>
   </g>
   <g id="patch_8">
    <path d="M 309.736364 378 
L 313.839214 378 
L 313.839214 145.028571 
L 309.736364 145.028571 
z
" clip-path="url(#pb5da790e0a)" style="fill: #a5e10f; fill-opacity: 0.5"/>
   </g>
   <g id="patch_9">
    <path d="M 313.839214 378 
L 317.942063 378 
L 317.942063 129.497143 
L 313.839214 129.497143 
z
" clip-path="url(#pb5da790e0a)" style="fill: #a5e10f; fill-opacity: 0.5"/>
   </g>
   <g id="patch_10">
    <path d="M 317.942063 378 
L 322.044913 378 
L 322.044913 82.902857 
L 317.942063 82.902857 
z
" clip-path="url(#pb5da790e0a)" style="fill: #a5e10f; fill-opacity: 0.5"/>
   </g>
   <g id="patch_11">
    <path d="M 322.044913 378 
L 326.147762 378 
L 326.147762 121.731429 
L 322.044913 121.731429 
z
" clip-path="url(#pb5da790e0a)" style="fill: #a5e10f; fill-opacity: 0.5"/>
   </g>
   <g id="patch_12">
    <path d="M 326.147762 378 
L 330.250612 378 
L 330.250612 129.497143 
L 326.147762 129.497143 
z
" clip-path="url(#pb5da790e0a)" style="fill: #a5e10f; fill-opacity: 0.5"/>
   </g>
   <g id="patch_13">
    <path d="M 330.250612 378 
L 334.353461 378 
L 334.353461 160.56 
L 330.250612 160.56 
z
" clip-path="url(#pb5da790e0a)" style="fill: #a5e10f; fill-opacity: 0.5"/>
   </g>
   <g id="patch_14">
    <path d="M 334.353461 378 
L 338.456311 378 
L 338.456311 238.217143 
L 334.353461 238.217143 
z
" clip-path="url(#pb5da790e0a)" style="fill: #a5e10f; fill-opacity: 0.5"/>
   </g>
   <g id="patch_15">
    <path d="M 338.456311 378 
L 342.55916 378 
L 342.55916 284.811429 
L 338.456311 284.811429 
z
" clip-path="url(#pb5da790e0a)" style="fill: #a5e10f; fill-opacity: 0.5"/>
   </g>
   <g id="patch_16">
    <path d="M 342.55916 378 
L 346.66201 378 
L 346.66201 362.468571 
L 342.55916 362.468571 
z
" clip-path="url(#pb5da790e0a)" style="fill: #a5e10f; fill-opacity: 0.5"/>
   </g>
   <g id="patch_17">
    <path d="M 346.66201 378 
L 350.764859 378 
L 350.764859 378 
L 346.66201 378 
z
" clip-path="url(#pb5da790e0a)" style="fill: #a5e10f; fill-opacity: 0.5"/>
   </g>
   <g id="patch_18">
    <path d="M 350.764859 378 
L 354.867709 378 
L 354.867709 378 
L 350.764859 378 
z
" clip-path="url(#pb5da790e0a)" style="fill: #a5e10f; fill-opacity: 0.5"/>
   </g>
   <g id="patch_19">
    <path d="M 354.867709 378 
L 358.970558 378 
L 358.970558 378 
L 354.867709 378 
z
" clip-path="url(#pb5da790e0a)" style="fill: #a5e10f; fill-opacity: 0.5"/>
   </g>
   <g id="patch_20">
    <path d="M 358.970558 378 
L 363.073408 378 
L 363.073408 378 
L 358.970558 378 
z
" clip-path="url(#pb5da790e0a)" style="fill: #a5e10f; fill-opacity: 0.5"/>
   </g>
   <g id="patch_21">
    <path d="M 363.073408 378 
L 367.176257 378 
L 367.176257 378 
L 363.073408 378 
z
" clip-path="url(#pb5da790e0a)" style="fill: #a5e10f; fill-opacity: 0.5"/>
   </g>
   <g id="patch_22">
    <path d="M 367.176257 378 
L 371.279107 378 
L 371.279107 378 
L 367.176257 378 
z
" clip-path="url(#pb5da790e0a)" style="fill: #a5e10f; fill-opacity: 0.5"/>
   </g>
   <g id="patch_23">
    <path d="M 371.279107 378 
L 375.381956 378 
L 375.381956 378 
L 371.279107 378 
z
" clip-path="url(#pb5da790e0a)" style="fill: #a5e10f; fill-opacity: 0.5"/>
   </g>
   <g id="patch_24">
    <path d="M 375.381956 378 
L 379.484806 378 
L 379.484806 378 
L 375.381956 378 
z
" clip-path="url(#pb5da790e0a)" style="fill: #a5e10f; fill-opacity: 0.5"/>
   </g>
   <g id="patch_25">
    <path d="M 379.484806 378 
L 383.587655 378 
L 383.587655 378 
L 379.484806 378 
z
" clip-path="url(#pb5da790e0a)" style="fill: #a5e10f; fill-opacity: 0.5"/>
   </g>
   <g id="patch_26">
    <path d="M 383.587655 378 
L 387.690505 378 
L 387.690505 378 
L 383.587655 378 
z
" clip-path="url(#pb5da790e0a)" style="fill: #a5e10f; fill-opacity: 0.5"/>
   </g>
   <g id="patch_27">
    <path d="M 387.690505 378 
L 391.793354 378 
L 391.793354 378 
L 387.690505 378 
z
" clip-path="url(#pb5da790e0a)" style="fill: #a5e10f; fill-opacity: 0.5"/>
   </g>
   <g id="patch_28">
    <path d="M 391.793354 378 
L 395.896204 378 
L 395.896204 378 
L 391.793354 378 
z
" clip-path="url(#pb5da790e0a)" style="fill: #a5e10f; fill-opacity: 0.5"/>
   </g>
   <g id="patch_29">
    <path d="M 395.896204 378 
L 399.999054 378 
L 399.999054 378 
L 395.896204 378 
z
" clip-path="url(#pb5da790e0a)" style="fill: #a5e10f; fill-opacity: 0.5"/>
   </g>
   <g id="patch_30">
    <path d="M 399.999054 378 
L 404.101903 378 
L 404.101903 378 
L 399.999054 378 
z
" clip-path="url(#pb5da790e0a)" style="fill: #a5e10f; fill-opacity: 0.5"/>
   </g>
   <g id="patch_31">
    <path d="M 404.101903 378 
L 408.204753 378 
L 408.204753 378 
L 404.101903 378 
z
" clip-path="url(#pb5da790e0a)" style="fill: #a5e10f; fill-opacity: 0.5"/>
   </g>
   <g id="patch_32">
    <path d="M 408.204753 378 
L 412.307602 378 
L 412.307602 378 
L 408.204753 378 
z
" clip-path="url(#pb5da790e0a)" style="fill: #a5e10f; fill-opacity: 0.5"/>
   </g>
   <g id="patch_33">
    <path d="M 412.307602 378 
L 416.410452 378 
L 416.410452 378 
L 412.307602 378 
z
" clip-path="url(#pb5da790e0a)" style="fill: #a5e10f; fill-opacity: 0.5"/>
   </g>
   <g id="patch_34">
    <path d="M 416.410452 378 
L 420.513301 378 
L 420.513301 378 
L 416.410452 378 
z
" clip-path="url(#pb5da790e0a)" style="fill: #a5e10f; fill-opacity: 0.5"/>
   </g>
   <g id="patch_35">
    <path d="M 420.513301 378 
L 424.616151 378 
L 424.616151 378 
L 420.513301 378 
z
" clip-path="url(#pb5da790e0a)" style="fill: #a5e10f; fill-opacity: 0.5"/>
   </g>
   <g id="patch_36">
    <path d="M 424.616151 378 
L 428.719 378 
L 428.719 378 
L 424.616151 378 
z
" clip-path="url(#pb5da790e0a)" style="fill: #a5e10f; fill-opacity: 0.5"/>
   </g>
   <g id="patch_37">
    <path d="M 428.719 378 
L 432.82185 378 
L 432.82185 378 
L 428.719 378 
z
" clip-path="url(#pb5da790e0a)" style="fill: #a5e10f; fill-opacity: 0.5"/>
   </g>
   <g id="patch_38">
    <path d="M 432.82185 378 
L 436.924699 378 
L 436.924699 378 
L 432.82185 378 
z
" clip-path="url(#pb5da790e0a)" style="fill: #a5e10f; fill-opacity: 0.5"/>
   </g>
   <g id="patch_39">
    <path d="M 436.924699 378 
L 441.027549 378 
L 441.027549 378 
L 436.924699 378 
z
" clip-path="url(#pb5da790e0a)" style="fill: #a5e10f; fill-opacity: 0.5"/>
   </g>
   <g id="patch_40">
    <path d="M 441.027549 378 
L 445.130398 378 
L 445.130398 378 
L 441.027549 378 
z
" clip-path="url(#pb5da790e0a)" style="fill: #a5e10f; fill-opacity: 0.5"/>
   </g>
   <g id="patch_41">
    <path d="M 445.130398 378 
L 449.233248 378 
L 449.233248 378 
L 445.130398 378 
z
" clip-path="url(#pb5da790e0a)" style="fill: #a5e10f; fill-opacity: 0.5"/>
   </g>
   <g id="patch_42">
    <path d="M 449.233248 378 
L 453.336097 378 
L 453.336097 378 
L 449.233248 378 
z
" clip-path="url(#pb5da790e0a)" style="fill: #a5e10f; fill-opacity: 0.5"/>
   </g>
   <g id="patch_43">
    <path d="M 453.336097 378 
L 457.438947 378 
L 457.438947 378 
L 453.336097 378 
z
" clip-path="url(#pb5da790e0a)" style="fill: #a5e10f; fill-opacity: 0.5"/>
   </g>
   <g id="patch_44">
    <path d="M 457.438947 378 
L 461.541796 378 
L 461.541796 378 
L 457.438947 378 
z
" clip-path="url(#pb5da790e0a)" style="fill: #a5e10f; fill-opacity: 0.5"/>
   </g>
   <g id="patch_45">
    <path d="M 461.541796 378 
L 465.644646 378 
L 465.644646 378 
L 461.541796 378 
z
" clip-path="url(#pb5da790e0a)" style="fill: #a5e10f; fill-opacity: 0.5"/>
   </g>
   <g id="patch_46">
    <path d="M 465.644646 378 
L 469.747495 378 
L 469.747495 378 
L 465.644646 378 
z
" clip-path="url(#pb5da790e0a)" style="fill: #a5e10f; fill-opacity: 0.5"/>
   </g>
   <g id="patch_47">
    <path d="M 469.747495 378 
L 473.850345 378 
L 473.850345 378 
L 469.747495 378 
z
" clip-path="url(#pb5da790e0a)" style="fill: #a5e10f; fill-opacity: 0.5"/>
   </g>
   <g id="patch_48">
    <path d="M 473.850345 378 
L 477.953194 378 
L 477.953194 378 
L 473.850345 378 
z
" clip-path="url(#pb5da790e0a)" style="fill: #a5e10f; fill-opacity: 0.5"/>
   </g>
   <g id="patch_49">
    <path d="M 477.953194 378 
L 482.056044 378 
L 482.056044 378 
L 477.953194 378 
z
" clip-path="url(#pb5da790e0a)" style="fill: #a5e10f; fill-opacity: 0.5"/>
   </g>
   <g id="patch_50">
    <path d="M 482.056044 378 
L 486.158893 378 
L 486.158893 378 
L 482.056044 378 
z
" clip-path="url(#pb5da790e0a)" style="fill: #a5e10f; fill-opacity: 0.5"/>
   </g>
   <g id="patch_51">
    <path d="M 486.158893 378 
L 490.261743 378 
L 490.261743 378 
L 486.158893 378 
z
" clip-path="url(#pb5da790e0a)" style="fill: #a5e10f; fill-opacity: 0.5"/>
   </g>
   <g id="patch_52">
    <path d="M 490.261743 378 
L 494.364592 378 
L 494.364592 378 
L 490.261743 378 
z
" clip-path="url(#pb5da790e0a)" style="fill: #a5e10f; fill-opacity: 0.5"/>
   </g>
   <g id="patch_53">
    <path d="M 289.222117 378 
L 293.324966 378 
L 293.324966 378 
L 289.222117 378 
z
" clip-path="url(#pb5da790e0a)" style="fill: #24b4b1; fill-opacity: 0.5"/>
   </g>
   <g id="patch_54">
    <path d="M 293.324966 378 
L 297.427816 378 
L 297.427816 378 
L 293.324966 378 
z
" clip-path="url(#pb5da790e0a)" style="fill: #24b4b1; fill-opacity: 0.5"/>
   </g>
   <g id="patch_55">
    <path d="M 297.427816 378 
L 301.530665 378 
L 301.530665 378 
L 297.427816 378 
z
" clip-path="url(#pb5da790e0a)" style="fill: #24b4b1; fill-opacity: 0.5"/>
   </g>
   <g id="patch_56">
    <path d="M 301.530665 378 
L 305.633515 378 
L 305.633515 378 
L 301.530665 378 
z
" clip-path="url(#pb5da790e0a)" style="fill: #24b4b1; fill-opacity: 0.5"/>
   </g>
   <g id="patch_57">
    <path d="M 305.633515 378 
L 309.736364 378 
L 309.736364 378 
L 305.633515 378 
z
" clip-path="url(#pb5da790e0a)" style="fill: #24b4b1; fill-opacity: 0.5"/>
   </g>
   <g id="patch_58">
    <path d="M 309.736364 378 
L 313.839214 378 
L 313.839214 378 
L 309.736364 378 
z
" clip-path="url(#pb5da790e0a)" style="fill: #24b4b1; fill-opacity: 0.5"/>
   </g>
   <g id="patch_59">
    <path d="M 313.839214 378 
L 317.942063 378 
L 317.942063 378 
L 313.839214 378 
z
" clip-path="url(#pb5da790e0a)" style="fill: #24b4b1; fill-opacity: 0.5"/>
   </g>
   <g id="patch_60">
    <path d="M 317.942063 378 
L 322.044913 378 
L 322.044913 378 
L 317.942063 378 
z
" clip-path="url(#pb5da790e0a)" style="fill: #24b4b1; fill-opacity: 0.5"/>
   </g>
   <g id="patch_61">
    <path d="M 322.044913 378 
L 326.147762 378 
L 326.147762 378 
L 322.044913 378 
z
" clip-path="url(#pb5da790e0a)" style="fill: #24b4b1; fill-opacity: 0.5"/>
   </g>
   <g id="patch_62">
    <path d="M 326.147762 378 
L 330.250612 378 
L 330.250612 378 
L 326.147762 378 
z
" clip-path="url(#pb5da790e0a)" style="fill: #24b4b1; fill-opacity: 0.5"/>
   </g>
   <g id="patch_63">
    <path d="M 330.250612 378 
L 334.353461 378 
L 334.353461 378 
L 330.250612 378 
z
" clip-path="url(#pb5da790e0a)" style="fill: #24b4b1; fill-opacity: 0.5"/>
   </g>
   <g id="patch_64">
    <path d="M 334.353461 378 
L 338.456311 378 
L 338.456311 378 
L 334.353461 378 
z
" clip-path="url(#pb5da790e0a)" style="fill: #24b4b1; fill-opacity: 0.5"/>
   </g>
   <g id="patch_65">
    <path d="M 338.456311 378 
L 342.55916 378 
L 342.55916 378 
L 338.456311 378 
z
" clip-path="url(#pb5da790e0a)" style="fill: #24b4b1; fill-opacity: 0.5"/>
   </g>
   <g id="patch_66">
    <path d="M 342.55916 378 
L 346.66201 378 
L 346.66201 378 
L 342.55916 378 
z
" clip-path="url(#pb5da790e0a)" style="fill: #24b4b1; fill-opacity: 0.5"/>
   </g>
   <g id="patch_67">
    <path d="M 346.66201 378 
L 350.764859 378 
L 350.764859 378 
L 346.66201 378 
z
" clip-path="url(#pb5da790e0a)" style="fill: #24b4b1; fill-opacity: 0.5"/>
   </g>
   <g id="patch_68">
    <path d="M 350.764859 378 
L 354.867709 378 
L 354.867709 378 
L 350.764859 378 
z
" clip-path="url(#pb5da790e0a)" style="fill: #24b4b1; fill-opacity: 0.5"/>
   </g>
   <g id="patch_69">
    <path d="M 354.867709 378 
L 358.970558 378 
L 358.970558 378 
L 354.867709 378 
z
" clip-path="url(#pb5da790e0a)" style="fill: #24b4b1; fill-opacity: 0.5"/>
   </g>
   <g id="patch_70">
    <path d="M 358.970558 378 
L 363.073408 378 
L 363.073408 378 
L 358.970558 378 
z
" clip-path="url(#pb5da790e0a)" style="fill: #24b4b1; fill-opacity: 0.5"/>
   </g>
   <g id="patch_71">
    <path d="M 363.073408 378 
L 367.176257 378 
L 367.176257 378 
L 363.073408 378 
z
" clip-path="url(#pb5da790e0a)" style="fill: #24b4b1; fill-opacity: 0.5"/>
   </g>
   <g id="patch_72">
    <path d="M 367.176257 378 
L 371.279107 378 
L 371.279107 378 
L 367.176257 378 
z
" clip-path="url(#pb5da790e0a)" style="fill: #24b4b1; fill-opacity: 0.5"/>
   </g>
   <g id="patch_73">
    <path d="M 371.279107 378 
L 375.381956 378 
L 375.381956 378 
L 371.279107 378 
z
" clip-path="url(#pb5da790e0a)" style="fill: #24b4b1; fill-opacity: 0.5"/>
   </g>
   <g id="patch_74">
    <path d="M 375.381956 378 
L 379.484806 378 
L 379.484806 378 
L 375.381956 378 
z
" clip-path="url(#pb5da790e0a)" style="fill: #24b4b1; fill-opacity: 0.5"/>
   </g>
   <g id="patch_75">
    <path d="M 379.484806 378 
L 383.587655 378 
L 383.587655 378 
L 379.484806 378 
z
" clip-path="url(#pb5da790e0a)" style="fill: #24b4b1; fill-opacity: 0.5"/>
   </g>
   <g id="patch_76">
    <path d="M 383.587655 378 
L 387.690505 378 
L 387.690505 378 
L 383.587655 378 
z
" clip-path="url(#pb5da790e0a)" style="fill: #24b4b1; fill-opacity: 0.5"/>
   </g>
   <g id="patch_77">
    <path d="M 387.690505 378 
L 391.793354 378 
L 391.793354 378 
L 387.690505 378 
z
" clip-path="url(#pb5da790e0a)" style="fill: #24b4b1; fill-opacity: 0.5"/>
   </g>
   <g id="patch_78">
    <path d="M 391.793354 378 
L 395.896204 378 
L 395.896204 378 
L 391.793354 378 
z
" clip-path="url(#pb5da790e0a)" style="fill: #24b4b1; fill-opacity: 0.5"/>
   </g>
   <g id="patch_79">
    <path d="M 395.896204 378 
L 399.999054 378 
L 399.999054 378 
L 395.896204 378 
z
" clip-path="url(#pb5da790e0a)" style="fill: #24b4b1; fill-opacity: 0.5"/>
   </g>
   <g id="patch_80">
    <path d="M 399.999054 378 
L 404.101903 378 
L 404.101903 378 
L 399.999054 378 
z
" clip-path="url(#pb5da790e0a)" style="fill: #24b4b1; fill-opacity: 0.5"/>
   </g>
   <g id="patch_81">
    <path d="M 404.101903 378 
L 408.204753 378 
L 408.204753 378 
L 404.101903 378 
z
" clip-path="url(#pb5da790e0a)" style="fill: #24b4b1; fill-opacity: 0.5"/>
   </g>
   <g id="patch_82">
    <path d="M 408.204753 378 
L 412.307602 378 
L 412.307602 378 
L 408.204753 378 
z
" clip-path="url(#pb5da790e0a)" style="fill: #24b4b1; fill-opacity: 0.5"/>
   </g>
   <g id="patch_83">
    <path d="M 412.307602 378 
L 416.410452 378 
L 416.410452 378 
L 412.307602 378 
z
" clip-path="url(#pb5da790e0a)" style="fill: #24b4b1; fill-opacity: 0.5"/>
   </g>
   <g id="patch_84">
    <path d="M 416.410452 378 
L 420.513301 378 
L 420.513301 378 
L 416.410452 378 
z
" clip-path="url(#pb5da790e0a)" style="fill: #24b4b1; fill-opacity: 0.5"/>
   </g>
   <g id="patch_85">
    <path d="M 420.513301 378 
L 424.616151 378 
L 424.616151 378 
L 420.513301 378 
z
" clip-path="url(#pb5da790e0a)" style="fill: #24b4b1; fill-opacity: 0.5"/>
   </g>
   <g id="patch_86">
    <path d="M 424.616151 378 
L 428.719 378 
L 428.719 378 
L 424.616151 378 
z
" clip-path="url(#pb5da790e0a)" style="fill: #24b4b1; fill-opacity: 0.5"/>
   </g>
   <g id="patch_87">
    <path d="M 428.719 378 
L 432.82185 378 
L 432.82185 378 
L 428.719 378 
z
" clip-path="url(#pb5da790e0a)" style="fill: #24b4b1; fill-opacity: 0.5"/>
   </g>
   <g id="patch_88">
    <path d="M 432.82185 378 
L 436.924699 378 
L 436.924699 370.234286 
L 432.82185 370.234286 
z
" clip-path="url(#pb5da790e0a)" style="fill: #24b4b1; fill-opacity: 0.5"/>
   </g>
   <g id="patch_89">
    <path d="M 436.924699 378 
L 441.027549 378 
L 441.027549 378 
L 436.924699 378 
z
" clip-path="url(#pb5da790e0a)" style="fill: #24b4b1; fill-opacity: 0.5"/>
   </g>
   <g id="patch_90">
    <path d="M 441.027549 378 
L 445.130398 378 
L 445.130398 378 
L 441.027549 378 
z
" clip-path="url(#pb5da790e0a)" style="fill: #24b4b1; fill-opacity: 0.5"/>
   </g>
   <g id="patch_91">
    <path d="M 445.130398 378 
L 449.233248 378 
L 449.233248 378 
L 445.130398 378 
z
" clip-path="url(#pb5da790e0a)" style="fill: #24b4b1; fill-opacity: 0.5"/>
   </g>
   <g id="patch_92">
    <path d="M 449.233248 378 
L 453.336097 378 
L 453.336097 378 
L 449.233248 378 
z
" clip-path="url(#pb5da790e0a)" style="fill: #24b4b1; fill-opacity: 0.5"/>
   </g>
   <g id="patch_93">
    <path d="M 453.336097 378 
L 457.438947 378 
L 457.438947 378 
L 453.336097 378 
z
" clip-path="url(#pb5da790e0a)" style="fill: #24b4b1; fill-opacity: 0.5"/>
   </g>
   <g id="patch_94">
    <path d="M 457.438947 378 
L 461.541796 378 
L 461.541796 378 
L 457.438947 378 
z
" clip-path="url(#pb5da790e0a)" style="fill: #24b4b1; fill-opacity: 0.5"/>
   </g>
   <g id="patch_95">
    <path d="M 461.541796 378 
L 465.644646 378 
L 465.644646 362.468571 
L 461.541796 362.468571 
z
" clip-path="url(#pb5da790e0a)" style="fill: #24b4b1; fill-opacity: 0.5"/>
   </g>
   <g id="patch_96">
    <path d="M 465.644646 378 
L 469.747495 378 
L 469.747495 331.405714 
L 465.644646 331.405714 
z
" clip-path="url(#pb5da790e0a)" style="fill: #24b4b1; fill-opacity: 0.5"/>
   </g>
   <g id="patch_97">
    <path d="M 469.747495 378 
L 473.850345 378 
L 473.850345 199.388571 
L 469.747495 199.388571 
z
" clip-path="url(#pb5da790e0a)" style="fill: #24b4b1; fill-opacity: 0.5"/>
   </g>
   <g id="patch_98">
    <path d="M 473.850345 378 
L 477.953194 378 
L 477.953194 67.371429 
L 473.850345 67.371429 
z
" clip-path="url(#pb5da790e0a)" style="fill: #24b4b1; fill-opacity: 0.5"/>
   </g>
   <g id="patch_99">
    <path d="M 477.953194 378 
L 482.056044 378 
L 482.056044 160.56 
L 477.953194 160.56 
z
" clip-path="url(#pb5da790e0a)" style="fill: #24b4b1; fill-opacity: 0.5"/>
   </g>
   <g id="patch_100">
    <path d="M 482.056044 378 
L 486.158893 378 
L 486.158893 230.451429 
L 482.056044 230.451429 
z
" clip-path="url(#pb5da790e0a)" style="fill: #24b4b1; fill-opacity: 0.5"/>
   </g>
   <g id="patch_101">
    <path d="M 486.158893 378 
L 490.261743 378 
L 490.261743 370.234286 
L 486.158893 370.234286 
z
" clip-path="url(#pb5da790e0a)" style="fill: #24b4b1; fill-opacity: 0.5"/>
   </g>
   <g id="patch_102">
    <path d="M 490.261743 378 
L 494.364592 378 
L 494.364592 370.234286 
L 490.261743 370.234286 
z
" clip-path="url(#pb5da790e0a)" style="fill: #24b4b1; fill-opacity: 0.5"/>
   </g>
   <g id="patch_103">
    <path d="M 80.422642 378 
L 88.825069 378 
L 88.825069 377.624065 
L 80.422642 377.624065 
L 80.422642 378 
z
" clip-path="url(#pb5da790e0a)" style="fill: none"/>
   </g>
   <g id="patch_104">
    <path d="M 88.825069 378 
L 97.227496 378 
L 97.227496 377.849626 
L 88.825069 377.849626 
L 88.825069 378 
z
" clip-path="url(#pb5da790e0a)" style="fill: none"/>
   </g>
   <g id="patch_105">
    <path d="M 97.227496 378 
L 105.629923 378 
L 105.629923 377.736845 
L 97.227496 377.736845 
L 97.227496 378 
z
" clip-path="url(#pb5da790e0a)" style="fill: none"/>
   </g>
   <g id="patch_106">
    <path d="M 105.629923 378 
L 114.03235 378 
L 114.03235 376.233104 
L 105.629923 376.233104 
L 105.629923 378 
z
" clip-path="url(#pb5da790e0a)" style="fill: none"/>
   </g>
   <g id="patch_107">
    <path d="M 114.03235 378 
L 122.434777 378 
L 122.434777 374.541396 
L 114.03235 374.541396 
L 114.03235 378 
z
" clip-path="url(#pb5da790e0a)" style="fill: none"/>
   </g>
   <g id="patch_108">
    <path d="M 122.434777 378 
L 130.837205 378 
L 130.837205 366.947504 
L 122.434777 366.947504 
L 122.434777 378 
z
" clip-path="url(#pb5da790e0a)" style="fill: none"/>
   </g>
   <g id="patch_109">
    <path d="M 130.837205 378 
L 139.239632 378 
L 139.239632 354.579234 
L 130.837205 354.579234 
L 130.837205 378 
z
" clip-path="url(#pb5da790e0a)" style="fill: none"/>
   </g>
   <g id="patch_110">
    <path d="M 139.239632 378 
L 147.642059 378 
L 147.642059 349.20336 
L 139.239632 349.20336 
L 139.239632 378 
z
" clip-path="url(#pb5da790e0a)" style="fill: none"/>
   </g>
   <g id="patch_111">
    <path d="M 147.642059 378 
L 156.044486 378 
L 156.044486 354.992763 
L 147.642059 354.992763 
L 147.642059 378 
z
" clip-path="url(#pb5da790e0a)" style="fill: none"/>
   </g>
   <g id="patch_112">
    <path d="M 156.044486 378 
L 164.446913 378 
L 164.446913 357.436342 
L 156.044486 357.436342 
L 156.044486 378 
z
" clip-path="url(#pb5da790e0a)" style="fill: none"/>
   </g>
   <g id="patch_113">
    <path d="M 164.446913 378 
L 172.84934 378 
L 172.84934 357.210781 
L 164.446913 357.210781 
L 164.446913 378 
z
" clip-path="url(#pb5da790e0a)" style="fill: none"/>
   </g>
   <g id="patch_114">
    <path d="M 172.84934 378 
L 181.251768 378 
L 181.251768 354.579234 
L 172.84934 354.579234 
L 172.84934 378 
z
" clip-path="url(#pb5da790e0a)" style="fill: none"/>
   </g>
   <g id="patch_115">
    <path d="M 181.251768 378 
L 189.654195 378 
L 189.654195 350.556727 
L 181.251768 350.556727 
L 181.251768 378 
z
" clip-path="url(#pb5da790e0a)" style="fill: none"/>
   </g>
   <g id="patch_116">
    <path d="M 189.654195 378 
L 198.056622 378 
L 198.056622 351.007849 
L 189.654195 351.007849 
L 189.654195 378 
z
" clip-path="url(#pb5da790e0a)" style="fill: none"/>
   </g>
   <g id="patch_117">
    <path d="M 198.056622 378 
L 206.459049 378 
L 206.459049 351.534159 
L 198.056622 351.534159 
L 198.056622 378 
z
" clip-path="url(#pb5da790e0a)" style="fill: none"/>
   </g>
   <g id="patch_118">
    <path d="M 206.459049 378 
L 214.861476 378 
L 214.861476 348.301116 
L 206.459049 348.301116 
L 206.459049 378 
z
" clip-path="url(#pb5da790e0a)" style="fill: none"/>
   </g>
   <g id="patch_119">
    <path d="M 214.861476 378 
L 223.263903 378 
L 223.263903 351.233411 
L 214.861476 351.233411 
L 214.861476 378 
z
" clip-path="url(#pb5da790e0a)" style="fill: none"/>
   </g>
   <g id="patch_120">
    <path d="M 223.263903 378 
L 231.666331 378 
L 231.666331 342.549306 
L 223.263903 342.549306 
L 223.263903 378 
z
" clip-path="url(#pb5da790e0a)" style="fill: none"/>
   </g>
   <g id="patch_121">
    <path d="M 231.666331 378 
L 240.068758 378 
L 240.068758 344.579357 
L 231.666331 344.579357 
L 231.666331 378 
z
" clip-path="url(#pb5da790e0a)" style="fill: none"/>
   </g>
   <g id="patch_122">
    <path d="M 240.068758 378 
L 248.471185 378 
L 248.471185 337.887709 
L 240.068758 337.887709 
L 240.068758 378 
z
" clip-path="url(#pb5da790e0a)" style="fill: none"/>
   </g>
   <g id="patch_123">
    <path d="M 248.471185 378 
L 256.873612 378 
L 256.873612 335.895253 
L 248.471185 335.895253 
L 248.471185 378 
z
" clip-path="url(#pb5da790e0a)" style="fill: none"/>
   </g>
   <g id="patch_124">
    <path d="M 256.873612 378 
L 265.276039 378 
L 265.276039 331.158469 
L 256.873612 331.158469 
L 256.873612 378 
z
" clip-path="url(#pb5da790e0a)" style="fill: none"/>
   </g>
   <g id="patch_125">
    <path d="M 265.276039 378 
L 273.678466 378 
L 273.678466 331.045688 
L 265.276039 331.045688 
L 265.276039 378 
z
" clip-path="url(#pb5da790e0a)" style="fill: none"/>
   </g>
   <g id="patch_126">
    <path d="M 273.678466 378 
L 282.080894 378 
L 282.080894 326.120936 
L 273.678466 326.120936 
L 273.678466 378 
z
" clip-path="url(#pb5da790e0a)" style="fill: none"/>
   </g>
   <g id="patch_127">
    <path d="M 282.080894 378 
L 290.483321 378 
L 290.483321 335.820066 
L 282.080894 335.820066 
L 282.080894 378 
z
" clip-path="url(#pb5da790e0a)" style="fill: none"/>
   </g>
   <g id="patch_128">
    <path d="M 290.483321 378 
L 298.885748 378 
L 298.885748 346.007911 
L 290.483321 346.007911 
L 290.483321 378 
z
" clip-path="url(#pb5da790e0a)" style="fill: none"/>
   </g>
   <g id="patch_129">
    <path d="M 298.885748 378 
L 307.288175 378 
L 307.288175 349.015393 
L 298.885748 349.015393 
L 298.885748 378 
z
" clip-path="url(#pb5da790e0a)" style="fill: none"/>
   </g>
   <g id="patch_130">
    <path d="M 307.288175 378 
L 315.690602 378 
L 315.690602 353.188274 
L 307.288175 353.188274 
L 307.288175 378 
z
" clip-path="url(#pb5da790e0a)" style="fill: none"/>
   </g>
   <g id="patch_131">
    <path d="M 315.690602 378 
L 324.093029 378 
L 324.093029 359.01527 
L 315.690602 359.01527 
L 315.690602 378 
z
" clip-path="url(#pb5da790e0a)" style="fill: none"/>
   </g>
   <g id="patch_132">
    <path d="M 324.093029 378 
L 332.495457 378 
L 332.495457 361.04532 
L 324.093029 361.04532 
L 324.093029 378 
z
" clip-path="url(#pb5da790e0a)" style="fill: none"/>
   </g>
   <g id="patch_133">
    <path d="M 332.495457 378 
L 340.897884 378 
L 340.897884 368.263277 
L 332.495457 368.263277 
L 332.495457 378 
z
" clip-path="url(#pb5da790e0a)" style="fill: none"/>
   </g>
   <g id="patch_134">
    <path d="M 340.897884 378 
L 349.300311 378 
L 349.300311 373.864712 
L 340.897884 373.864712 
L 340.897884 378 
z
" clip-path="url(#pb5da790e0a)" style="fill: none"/>
   </g>
   <g id="patch_135">
    <path d="M 349.300311 378 
L 357.702738 378 
L 357.702738 375.406047 
L 349.300311 375.406047 
L 349.300311 378 
z
" clip-path="url(#pb5da790e0a)" style="fill: none"/>
   </g>
   <g id="patch_136">
    <path d="M 357.702738 378 
L 366.105165 378 
L 366.105165 374.165461 
L 357.702738 374.165461 
L 357.702738 378 
z
" clip-path="url(#pb5da790e0a)" style="fill: none"/>
   </g>
   <g id="patch_137">
    <path d="M 366.105165 378 
L 374.507592 378 
L 374.507592 372.887281 
L 366.105165 372.887281 
L 366.105165 378 
z
" clip-path="url(#pb5da790e0a)" style="fill: none"/>
   </g>
   <g id="patch_138">
    <path d="M 374.507592 378 
L 382.91002 378 
L 382.91002 368.751993 
L 374.507592 368.751993 
L 374.507592 378 
z
" clip-path="url(#pb5da790e0a)" style="fill: none"/>
   </g>
   <g id="patch_139">
    <path d="M 382.91002 378 
L 391.312447 378 
L 391.312447 366.308414 
L 382.91002 366.308414 
L 382.91002 378 
z
" clip-path="url(#pb5da790e0a)" style="fill: none"/>
   </g>
   <g id="patch_140">
    <path d="M 391.312447 378 
L 399.714874 378 
L 399.714874 362.022752 
L 391.312447 362.022752 
L 391.312447 378 
z
" clip-path="url(#pb5da790e0a)" style="fill: none"/>
   </g>
   <g id="patch_141">
    <path d="M 399.714874 378 
L 408.117301 378 
L 408.117301 355.594259 
L 399.714874 355.594259 
L 399.714874 378 
z
" clip-path="url(#pb5da790e0a)" style="fill: none"/>
   </g>
   <g id="patch_142">
    <path d="M 408.117301 378 
L 416.519728 378 
L 416.519728 352.361216 
L 408.117301 352.361216 
L 408.117301 378 
z
" clip-path="url(#pb5da790e0a)" style="fill: none"/>
   </g>
   <g id="patch_143">
    <path d="M 416.519728 378 
L 424.922155 378 
L 424.922155 356.270943 
L 416.519728 356.270943 
L 416.519728 378 
z
" clip-path="url(#pb5da790e0a)" style="fill: none"/>
   </g>
   <g id="patch_144">
    <path d="M 424.922155 378 
L 433.324583 378 
L 433.324583 361.722004 
L 424.922155 361.722004 
L 424.922155 378 
z
" clip-path="url(#pb5da790e0a)" style="fill: none"/>
   </g>
   <g id="patch_145">
    <path d="M 433.324583 378 
L 441.72701 378 
L 441.72701 368.939961 
L 433.324583 368.939961 
L 433.324583 378 
z
" clip-path="url(#pb5da790e0a)" style="fill: none"/>
   </g>
   <g id="patch_146">
    <path d="M 441.72701 378 
L 450.129437 378 
L 450.129437 365.669324 
L 441.72701 365.669324 
L 441.72701 378 
z
" clip-path="url(#pb5da790e0a)" style="fill: none"/>
   </g>
   <g id="patch_147">
    <path d="M 450.129437 378 
L 458.531864 378 
L 458.531864 366.007666 
L 450.129437 366.007666 
L 450.129437 378 
z
" clip-path="url(#pb5da790e0a)" style="fill: none"/>
   </g>
   <g id="patch_148">
    <path d="M 458.531864 378 
L 466.934291 378 
L 466.934291 368.263277 
L 458.531864 368.263277 
L 458.531864 378 
z
" clip-path="url(#pb5da790e0a)" style="fill: none"/>
   </g>
   <g id="patch_149">
    <path d="M 466.934291 378 
L 475.336718 378 
L 475.336718 370.330921 
L 466.934291 370.330921 
L 466.934291 378 
z
" clip-path="url(#pb5da790e0a)" style="fill: none"/>
   </g>
   <g id="patch_150">
    <path d="M 475.336718 378 
L 483.739146 378 
L 483.739146 366.195633 
L 475.336718 366.195633 
L 475.336718 378 
z
" clip-path="url(#pb5da790e0a)" style="fill: none"/>
   </g>
   <g id="patch_151">
    <path d="M 483.739146 378 
L 492.141573 378 
L 492.141573 375.293266 
L 483.739146 375.293266 
L 483.739146 378 
z
" clip-path="url(#pb5da790e0a)" style="fill: none"/>
   </g>
   <g id="patch_152">
    <path d="M 492.141573 378 
L 500.544 378 
L 500.544 377.624065 
L 492.141573 377.624065 
L 492.141573 378 
z
" clip-path="url(#pb5da790e0a)" style="fill: none"/>
   </g>
   <g id="patch_153">
    <path d="M 80.422642 378 
L 88.825069 378 
L 88.825069 377.812032 
L 80.422642 377.812032 
L 80.422642 378 
z
" clip-path="url(#pb5da790e0a)" style="fill: none"/>
   </g>
   <g id="patch_154">
    <path d="M 88.825069 378 
L 97.227496 378 
L 97.227496 378 
L 88.825069 378 
L 88.825069 378 
z
" clip-path="url(#pb5da790e0a)" style="fill: none"/>
   </g>
   <g id="patch_155">
    <path d="M 97.227496 378 
L 105.629923 378 
L 105.629923 377.924813 
L 97.227496 377.924813 
L 97.227496 378 
z
" clip-path="url(#pb5da790e0a)" style="fill: none"/>
   </g>
   <g id="patch_156">
    <path d="M 105.629923 378 
L 114.03235 378 
L 114.03235 376.571446 
L 105.629923 376.571446 
L 105.629923 378 
z
" clip-path="url(#pb5da790e0a)" style="fill: none"/>
   </g>
   <g id="patch_157">
    <path d="M 114.03235 378 
L 122.434777 378 
L 122.434777 376.797007 
L 114.03235 376.797007 
L 114.03235 378 
z
" clip-path="url(#pb5da790e0a)" style="fill: none"/>
   </g>
   <g id="patch_158">
    <path d="M 122.434777 378 
L 130.837205 378 
L 130.837205 372.060223 
L 122.434777 372.060223 
L 122.434777 378 
z
" clip-path="url(#pb5da790e0a)" style="fill: none"/>
   </g>
   <g id="patch_159">
    <path d="M 130.837205 378 
L 139.239632 378 
L 139.239632 366.872317 
L 130.837205 366.872317 
L 130.837205 378 
z
" clip-path="url(#pb5da790e0a)" style="fill: none"/>
   </g>
   <g id="patch_160">
    <path d="M 139.239632 378 
L 147.642059 378 
L 147.642059 364.127989 
L 139.239632 364.127989 
L 139.239632 378 
z
" clip-path="url(#pb5da790e0a)" style="fill: none"/>
   </g>
   <g id="patch_161">
    <path d="M 147.642059 378 
L 156.044486 378 
L 156.044486 367.248252 
L 147.642059 367.248252 
L 147.642059 378 
z
" clip-path="url(#pb5da790e0a)" style="fill: none"/>
   </g>
   <g id="patch_162">
    <path d="M 156.044486 378 
L 164.446913 378 
L 164.446913 368.789587 
L 156.044486 368.789587 
L 156.044486 378 
z
" clip-path="url(#pb5da790e0a)" style="fill: none"/>
   </g>
   <g id="patch_163">
    <path d="M 164.446913 378 
L 172.84934 378 
L 172.84934 368.451245 
L 164.446913 368.451245 
L 164.446913 378 
z
" clip-path="url(#pb5da790e0a)" style="fill: none"/>
   </g>
   <g id="patch_164">
    <path d="M 172.84934 378 
L 181.251768 378 
L 181.251768 366.346007 
L 172.84934 366.346007 
L 172.84934 378 
z
" clip-path="url(#pb5da790e0a)" style="fill: none"/>
   </g>
   <g id="patch_165">
    <path d="M 181.251768 378 
L 189.654195 378 
L 189.654195 365.293389 
L 181.251768 365.293389 
L 181.251768 378 
z
" clip-path="url(#pb5da790e0a)" style="fill: none"/>
   </g>
   <g id="patch_166">
    <path d="M 189.654195 378 
L 198.056622 378 
L 198.056622 363.902428 
L 189.654195 363.902428 
L 189.654195 378 
z
" clip-path="url(#pb5da790e0a)" style="fill: none"/>
   </g>
   <g id="patch_167">
    <path d="M 198.056622 378 
L 206.459049 378 
L 206.459049 364.842266 
L 198.056622 364.842266 
L 198.056622 378 
z
" clip-path="url(#pb5da790e0a)" style="fill: none"/>
   </g>
   <g id="patch_168">
    <path d="M 206.459049 378 
L 214.861476 378 
L 214.861476 364.203177 
L 206.459049 364.203177 
L 206.459049 378 
z
" clip-path="url(#pb5da790e0a)" style="fill: none"/>
   </g>
   <g id="patch_169">
    <path d="M 214.861476 378 
L 223.263903 378 
L 223.263903 366.346007 
L 214.861476 366.346007 
L 214.861476 378 
z
" clip-path="url(#pb5da790e0a)" style="fill: none"/>
   </g>
   <g id="patch_170">
    <path d="M 223.263903 378 
L 231.666331 378 
L 231.666331 363.112964 
L 223.263903 363.112964 
L 223.263903 378 
z
" clip-path="url(#pb5da790e0a)" style="fill: none"/>
   </g>
   <g id="patch_171">
    <path d="M 231.666331 378 
L 240.068758 378 
L 240.068758 361.759597 
L 231.666331 361.759597 
L 231.666331 378 
z
" clip-path="url(#pb5da790e0a)" style="fill: none"/>
   </g>
   <g id="patch_172">
    <path d="M 240.068758 378 
L 248.471185 378 
L 248.471185 358.188213 
L 240.068758 358.188213 
L 240.068758 378 
z
" clip-path="url(#pb5da790e0a)" style="fill: none"/>
   </g>
   <g id="patch_173">
    <path d="M 248.471185 378 
L 256.873612 378 
L 256.873612 358.075432 
L 248.471185 358.075432 
L 248.471185 378 
z
" clip-path="url(#pb5da790e0a)" style="fill: none"/>
   </g>
   <g id="patch_174">
    <path d="M 256.873612 378 
L 265.276039 378 
L 265.276039 356.759659 
L 256.873612 356.759659 
L 256.873612 378 
z
" clip-path="url(#pb5da790e0a)" style="fill: none"/>
   </g>
   <g id="patch_175">
    <path d="M 265.276039 378 
L 273.678466 378 
L 273.678466 356.458911 
L 265.276039 356.458911 
L 265.276039 378 
z
" clip-path="url(#pb5da790e0a)" style="fill: none"/>
   </g>
   <g id="patch_176">
    <path d="M 273.678466 378 
L 282.080894 378 
L 282.080894 353.78977 
L 273.678466 353.78977 
L 273.678466 378 
z
" clip-path="url(#pb5da790e0a)" style="fill: none"/>
   </g>
   <g id="patch_177">
    <path d="M 282.080894 378 
L 290.483321 378 
L 290.483321 358.413774 
L 282.080894 358.413774 
L 282.080894 378 
z
" clip-path="url(#pb5da790e0a)" style="fill: none"/>
   </g>
   <g id="patch_178">
    <path d="M 290.483321 378 
L 298.885748 378 
L 298.885748 362.285907 
L 290.483321 362.285907 
L 290.483321 378 
z
" clip-path="url(#pb5da790e0a)" style="fill: none"/>
   </g>
   <g id="patch_179">
    <path d="M 298.885748 378 
L 307.288175 378 
L 307.288175 363.789648 
L 298.885748 363.789648 
L 298.885748 378 
z
" clip-path="url(#pb5da790e0a)" style="fill: none"/>
   </g>
   <g id="patch_180">
    <path d="M 307.288175 378 
L 315.690602 378 
L 315.690602 366.533975 
L 307.288175 366.533975 
L 307.288175 378 
z
" clip-path="url(#pb5da790e0a)" style="fill: none"/>
   </g>
   <g id="patch_181">
    <path d="M 315.690602 378 
L 324.093029 378 
L 324.093029 367.887342 
L 315.690602 367.887342 
L 315.690602 378 
z
" clip-path="url(#pb5da790e0a)" style="fill: none"/>
   </g>
   <g id="patch_182">
    <path d="M 324.093029 378 
L 332.495457 378 
L 332.495457 369.541457 
L 324.093029 369.541457 
L 324.093029 378 
z
" clip-path="url(#pb5da790e0a)" style="fill: none"/>
   </g>
   <g id="patch_183">
    <path d="M 332.495457 378 
L 340.897884 378 
L 340.897884 374.240648 
L 332.495457 374.240648 
L 332.495457 378 
z
" clip-path="url(#pb5da790e0a)" style="fill: none"/>
   </g>
   <g id="patch_184">
    <path d="M 340.897884 378 
L 349.300311 378 
L 349.300311 376.157917 
L 340.897884 376.157917 
L 340.897884 378 
z
" clip-path="url(#pb5da790e0a)" style="fill: none"/>
   </g>
   <g id="patch_185">
    <path d="M 349.300311 378 
L 357.702738 378 
L 357.702738 376.421072 
L 349.300311 376.421072 
L 349.300311 378 
z
" clip-path="url(#pb5da790e0a)" style="fill: none"/>
   </g>
   <g id="patch_186">
    <path d="M 357.702738 378 
L 366.105165 378 
L 366.105165 375.932356 
L 357.702738 375.932356 
L 357.702738 378 
z
" clip-path="url(#pb5da790e0a)" style="fill: none"/>
   </g>
   <g id="patch_187">
    <path d="M 366.105165 378 
L 374.507592 378 
L 374.507592 375.518827 
L 366.105165 375.518827 
L 366.105165 378 
z
" clip-path="url(#pb5da790e0a)" style="fill: none"/>
   </g>
   <g id="patch_188">
    <path d="M 374.507592 378 
L 382.91002 378 
L 382.91002 373.902306 
L 374.507592 373.902306 
L 374.507592 378 
z
" clip-path="url(#pb5da790e0a)" style="fill: none"/>
   </g>
   <g id="patch_189">
    <path d="M 382.91002 378 
L 391.312447 378 
L 391.312447 371.909849 
L 382.91002 371.909849 
L 382.91002 378 
z
" clip-path="url(#pb5da790e0a)" style="fill: none"/>
   </g>
   <g id="patch_190">
    <path d="M 391.312447 378 
L 399.714874 378 
L 399.714874 371.421133 
L 391.312447 371.421133 
L 391.312447 378 
z
" clip-path="url(#pb5da790e0a)" style="fill: none"/>
   </g>
   <g id="patch_191">
    <path d="M 399.714874 378 
L 408.117301 378 
L 408.117301 367.097878 
L 399.714874 367.097878 
L 399.714874 378 
z
" clip-path="url(#pb5da790e0a)" style="fill: none"/>
   </g>
   <g id="patch_192">
    <path d="M 408.117301 378 
L 416.519728 378 
L 416.519728 365.443763 
L 408.117301 365.443763 
L 408.117301 378 
z
" clip-path="url(#pb5da790e0a)" style="fill: none"/>
   </g>
   <g id="patch_193">
    <path d="M 416.519728 378 
L 424.922155 378 
L 424.922155 368.376058 
L 416.519728 368.376058 
L 416.519728 378 
z
" clip-path="url(#pb5da790e0a)" style="fill: none"/>
   </g>
   <g id="patch_194">
    <path d="M 424.922155 378 
L 433.324583 378 
L 433.324583 371.195572 
L 424.922155 371.195572 
L 424.922155 378 
z
" clip-path="url(#pb5da790e0a)" style="fill: none"/>
   </g>
   <g id="patch_195">
    <path d="M 433.324583 378 
L 441.72701 378 
L 441.72701 373.601558 
L 433.324583 373.601558 
L 433.324583 378 
z
" clip-path="url(#pb5da790e0a)" style="fill: none"/>
   </g>
   <g id="patch_196">
    <path d="M 441.72701 378 
L 450.129437 378 
L 450.129437 372.210597 
L 441.72701 372.210597 
L 441.72701 378 
z
" clip-path="url(#pb5da790e0a)" style="fill: none"/>
   </g>
   <g id="patch_197">
    <path d="M 450.129437 378 
L 458.531864 378 
L 458.531864 372.66172 
L 450.129437 372.66172 
L 450.129437 378 
z
" clip-path="url(#pb5da790e0a)" style="fill: none"/>
   </g>
   <g id="patch_198">
    <path d="M 458.531864 378 
L 466.934291 378 
L 466.934291 374.127867 
L 458.531864 374.127867 
L 458.531864 378 
z
" clip-path="url(#pb5da790e0a)" style="fill: none"/>
   </g>
   <g id="patch_199">
    <path d="M 466.934291 378 
L 475.336718 378 
L 475.336718 374.466209 
L 466.934291 374.466209 
L 466.934291 378 
z
" clip-path="url(#pb5da790e0a)" style="fill: none"/>
   </g>
   <g id="patch_200">
    <path d="M 475.336718 378 
L 483.739146 378 
L 483.739146 372.285784 
L 475.336718 372.285784 
L 475.336718 378 
z
" clip-path="url(#pb5da790e0a)" style="fill: none"/>
   </g>
   <g id="patch_201">
    <path d="M 483.739146 378 
L 492.141573 378 
L 492.141573 376.496259 
L 483.739146 376.496259 
L 483.739146 378 
z
" clip-path="url(#pb5da790e0a)" style="fill: none"/>
   </g>
   <g id="patch_202">
    <path d="M 492.141573 378 
L 500.544 378 
L 500.544 377.736845 
L 492.141573 377.736845 
L 492.141573 378 
z
" clip-path="url(#pb5da790e0a)" style="fill: none"/>
   </g>
   <g id="matplotlib.axis_1">
    <g id="xtick_1">
     <g id="line2d_1">
      <defs>
       <path id="m7b9e98de34" d="M 0 0 
L 0 3.5 
" style="stroke: #000000; stroke-width: 0.8"/>
      </defs>
      <g>
       <use xlink:href="#m7b9e98de34" x="72" y="378" style="stroke: #000000; stroke-width: 0.8"/>
      </g>
     </g>
     <g id="text_1">
      <!-- 0.00 -->
      <g transform="translate(60.867188 392.598437)scale(0.1 -0.1)">
       <defs>
        <path id="DejaVuSans-30" d="M 2034 4250 
Q 1547 4250 1301 3770 
Q 1056 3291 1056 2328 
Q 1056 1369 1301 889 
Q 1547 409 2034 409 
Q 2525 409 2770 889 
Q 3016 1369 3016 2328 
Q 3016 3291 2770 3770 
Q 2525 4250 2034 4250 
z
M 2034 4750 
Q 2819 4750 3233 4129 
Q 3647 3509 3647 2328 
Q 3647 1150 3233 529 
Q 2819 -91 2034 -91 
Q 1250 -91 836 529 
Q 422 1150 422 2328 
Q 422 3509 836 4129 
Q 1250 4750 2034 4750 
z
" transform="scale(0.015625)"/>
        <path id="DejaVuSans-2e" d="M 684 794 
L 1344 794 
L 1344 0 
L 684 0 
L 684 794 
z
" transform="scale(0.015625)"/>
       </defs>
       <use xlink:href="#DejaVuSans-30"/>
       <use xlink:href="#DejaVuSans-2e" x="63.623047"/>
       <use xlink:href="#DejaVuSans-30" x="95.410156"/>
       <use xlink:href="#DejaVuSans-30" x="159.033203"/>
      </g>
     </g>
    </g>
    <g id="xtick_2">
     <g id="line2d_2">
      <g>
       <use xlink:href="#m7b9e98de34" x="183.6" y="378" style="stroke: #000000; stroke-width: 0.8"/>
      </g>
     </g>
     <g id="text_2">
      <!-- 0.25 -->
      <g transform="translate(172.467187 392.598437)scale(0.1 -0.1)">
       <defs>
        <path id="DejaVuSans-32" d="M 1228 531 
L 3431 531 
L 3431 0 
L 469 0 
L 469 531 
Q 828 903 1448 1529 
Q 2069 2156 2228 2338 
Q 2531 2678 2651 2914 
Q 2772 3150 2772 3378 
Q 2772 3750 2511 3984 
Q 2250 4219 1831 4219 
Q 1534 4219 1204 4116 
Q 875 4013 500 3803 
L 500 4441 
Q 881 4594 1212 4672 
Q 1544 4750 1819 4750 
Q 2544 4750 2975 4387 
Q 3406 4025 3406 3419 
Q 3406 3131 3298 2873 
Q 3191 2616 2906 2266 
Q 2828 2175 2409 1742 
Q 1991 1309 1228 531 
z
" transform="scale(0.015625)"/>
        <path id="DejaVuSans-35" d="M 691 4666 
L 3169 4666 
L 3169 4134 
L 1269 4134 
L 1269 2991 
Q 1406 3038 1543 3061 
Q 1681 3084 1819 3084 
Q 2600 3084 3056 2656 
Q 3513 2228 3513 1497 
Q 3513 744 3044 326 
Q 2575 -91 1722 -91 
Q 1428 -91 1123 -41 
Q 819 9 494 109 
L 494 744 
Q 775 591 1075 516 
Q 1375 441 1709 441 
Q 2250 441 2565 725 
Q 2881 1009 2881 1497 
Q 2881 1984 2565 2268 
Q 2250 2553 1709 2553 
Q 1456 2553 1204 2497 
Q 953 2441 691 2322 
L 691 4666 
z
" transform="scale(0.015625)"/>
       </defs>
       <use xlink:href="#DejaVuSans-30"/>
       <use xlink:href="#DejaVuSans-2e" x="63.623047"/>
       <use xlink:href="#DejaVuSans-32" x="95.410156"/>
       <use xlink:href="#DejaVuSans-35" x="159.033203"/>
      </g>
     </g>
    </g>
    <g id="xtick_3">
     <g id="line2d_3">
      <g>
       <use xlink:href="#m7b9e98de34" x="295.2" y="378" style="stroke: #000000; stroke-width: 0.8"/>
      </g>
     </g>
     <g id="text_3">
      <!-- 0.50 -->
      <g transform="translate(284.067187 392.598437)scale(0.1 -0.1)">
       <use xlink:href="#DejaVuSans-30"/>
       <use xlink:href="#DejaVuSans-2e" x="63.623047"/>
       <use xlink:href="#DejaVuSans-35" x="95.410156"/>
       <use xlink:href="#DejaVuSans-30" x="159.033203"/>
      </g>
     </g>
    </g>
    <g id="xtick_4">
     <g id="line2d_4">
      <g>
       <use xlink:href="#m7b9e98de34" x="406.8" y="378" style="stroke: #000000; stroke-width: 0.8"/>
      </g>
     </g>
     <g id="text_4">
      <!-- 0.75 -->
      <g transform="translate(395.667187 392.598437)scale(0.1 -0.1)">
       <defs>
        <path id="DejaVuSans-37" d="M 525 4666 
L 3525 4666 
L 3525 4397 
L 1831 0 
L 1172 0 
L 2766 4134 
L 525 4134 
L 525 4666 
z
" transform="scale(0.015625)"/>
       </defs>
       <use xlink:href="#DejaVuSans-30"/>
       <use xlink:href="#DejaVuSans-2e" x="63.623047"/>
       <use xlink:href="#DejaVuSans-37" x="95.410156"/>
       <use xlink:href="#DejaVuSans-35" x="159.033203"/>
      </g>
     </g>
    </g>
    <g id="xtick_5">
     <g id="line2d_5">
      <g>
       <use xlink:href="#m7b9e98de34" x="518.4" y="378" style="stroke: #000000; stroke-width: 0.8"/>
      </g>
     </g>
     <g id="text_5">
      <!-- 1.00 -->
      <g transform="translate(507.267187 392.598437)scale(0.1 -0.1)">
       <defs>
        <path id="DejaVuSans-31" d="M 794 531 
L 1825 531 
L 1825 4091 
L 703 3866 
L 703 4441 
L 1819 4666 
L 2450 4666 
L 2450 531 
L 3481 531 
L 3481 0 
L 794 0 
L 794 531 
z
" transform="scale(0.015625)"/>
       </defs>
       <use xlink:href="#DejaVuSans-31"/>
       <use xlink:href="#DejaVuSans-2e" x="63.623047"/>
       <use xlink:href="#DejaVuSans-30" x="95.410156"/>
       <use xlink:href="#DejaVuSans-30" x="159.033203"/>
      </g>
     </g>
    </g>
    <g id="text_6">
     <!-- ratio_roeske -->
     <g transform="translate(264.697656 406.276563)scale(0.1 -0.1)">
      <defs>
       <path id="DejaVuSans-72" d="M 2631 2963 
Q 2534 3019 2420 3045 
Q 2306 3072 2169 3072 
Q 1681 3072 1420 2755 
Q 1159 2438 1159 1844 
L 1159 0 
L 581 0 
L 581 3500 
L 1159 3500 
L 1159 2956 
Q 1341 3275 1631 3429 
Q 1922 3584 2338 3584 
Q 2397 3584 2469 3576 
Q 2541 3569 2628 3553 
L 2631 2963 
z
" transform="scale(0.015625)"/>
       <path id="DejaVuSans-61" d="M 2194 1759 
Q 1497 1759 1228 1600 
Q 959 1441 959 1056 
Q 959 750 1161 570 
Q 1363 391 1709 391 
Q 2188 391 2477 730 
Q 2766 1069 2766 1631 
L 2766 1759 
L 2194 1759 
z
M 3341 1997 
L 3341 0 
L 2766 0 
L 2766 531 
Q 2569 213 2275 61 
Q 1981 -91 1556 -91 
Q 1019 -91 701 211 
Q 384 513 384 1019 
Q 384 1609 779 1909 
Q 1175 2209 1959 2209 
L 2766 2209 
L 2766 2266 
Q 2766 2663 2505 2880 
Q 2244 3097 1772 3097 
Q 1472 3097 1187 3025 
Q 903 2953 641 2809 
L 641 3341 
Q 956 3463 1253 3523 
Q 1550 3584 1831 3584 
Q 2591 3584 2966 3190 
Q 3341 2797 3341 1997 
z
" transform="scale(0.015625)"/>
       <path id="DejaVuSans-74" d="M 1172 4494 
L 1172 3500 
L 2356 3500 
L 2356 3053 
L 1172 3053 
L 1172 1153 
Q 1172 725 1289 603 
Q 1406 481 1766 481 
L 2356 481 
L 2356 0 
L 1766 0 
Q 1100 0 847 248 
Q 594 497 594 1153 
L 594 3053 
L 172 3053 
L 172 3500 
L 594 3500 
L 594 4494 
L 1172 4494 
z
" transform="scale(0.015625)"/>
       <path id="DejaVuSans-69" d="M 603 3500 
L 1178 3500 
L 1178 0 
L 603 0 
L 603 3500 
z
M 603 4863 
L 1178 4863 
L 1178 4134 
L 603 4134 
L 603 4863 
z
" transform="scale(0.015625)"/>
       <path id="DejaVuSans-6f" d="M 1959 3097 
Q 1497 3097 1228 2736 
Q 959 2375 959 1747 
Q 959 1119 1226 758 
Q 1494 397 1959 397 
Q 2419 397 2687 759 
Q 2956 1122 2956 1747 
Q 2956 2369 2687 2733 
Q 2419 3097 1959 3097 
z
M 1959 3584 
Q 2709 3584 3137 3096 
Q 3566 2609 3566 1747 
Q 3566 888 3137 398 
Q 2709 -91 1959 -91 
Q 1206 -91 779 398 
Q 353 888 353 1747 
Q 353 2609 779 3096 
Q 1206 3584 1959 3584 
z
" transform="scale(0.015625)"/>
       <path id="DejaVuSans-5f" d="M 3263 -1063 
L 3263 -1509 
L -63 -1509 
L -63 -1063 
L 3263 -1063 
z
" transform="scale(0.015625)"/>
       <path id="DejaVuSans-65" d="M 3597 1894 
L 3597 1613 
L 953 1613 
Q 991 1019 1311 708 
Q 1631 397 2203 397 
Q 2534 397 2845 478 
Q 3156 559 3463 722 
L 3463 178 
Q 3153 47 2828 -22 
Q 2503 -91 2169 -91 
Q 1331 -91 842 396 
Q 353 884 353 1716 
Q 353 2575 817 3079 
Q 1281 3584 2069 3584 
Q 2775 3584 3186 3129 
Q 3597 2675 3597 1894 
z
M 3022 2063 
Q 3016 2534 2758 2815 
Q 2500 3097 2075 3097 
Q 1594 3097 1305 2825 
Q 1016 2553 972 2059 
L 3022 2063 
z
" transform="scale(0.015625)"/>
       <path id="DejaVuSans-73" d="M 2834 3397 
L 2834 2853 
Q 2591 2978 2328 3040 
Q 2066 3103 1784 3103 
Q 1356 3103 1142 2972 
Q 928 2841 928 2578 
Q 928 2378 1081 2264 
Q 1234 2150 1697 2047 
L 1894 2003 
Q 2506 1872 2764 1633 
Q 3022 1394 3022 966 
Q 3022 478 2636 193 
Q 2250 -91 1575 -91 
Q 1294 -91 989 -36 
Q 684 19 347 128 
L 347 722 
Q 666 556 975 473 
Q 1284 391 1588 391 
Q 1994 391 2212 530 
Q 2431 669 2431 922 
Q 2431 1156 2273 1281 
Q 2116 1406 1581 1522 
L 1381 1569 
Q 847 1681 609 1914 
Q 372 2147 372 2553 
Q 372 3047 722 3315 
Q 1072 3584 1716 3584 
Q 2034 3584 2315 3537 
Q 2597 3491 2834 3397 
z
" transform="scale(0.015625)"/>
       <path id="DejaVuSans-6b" d="M 581 4863 
L 1159 4863 
L 1159 1991 
L 2875 3500 
L 3609 3500 
L 1753 1863 
L 3688 0 
L 2938 0 
L 1159 1709 
L 1159 0 
L 581 0 
L 581 4863 
z
" transform="scale(0.015625)"/>
      </defs>
      <use xlink:href="#DejaVuSans-72"/>
      <use xlink:href="#DejaVuSans-61" x="41.113281"/>
      <use xlink:href="#DejaVuSans-74" x="102.392578"/>
      <use xlink:href="#DejaVuSans-69" x="141.601562"/>
      <use xlink:href="#DejaVuSans-6f" x="169.384766"/>
      <use xlink:href="#DejaVuSans-5f" x="230.566406"/>
      <use xlink:href="#DejaVuSans-72" x="280.566406"/>
      <use xlink:href="#DejaVuSans-6f" x="319.429688"/>
      <use xlink:href="#DejaVuSans-65" x="380.611328"/>
      <use xlink:href="#DejaVuSans-73" x="442.134766"/>
      <use xlink:href="#DejaVuSans-6b" x="494.234375"/>
      <use xlink:href="#DejaVuSans-65" x="548.519531"/>
     </g>
    </g>
   </g>
   <g id="matplotlib.axis_2">
    <g id="ytick_1">
     <g id="line2d_6">
      <defs>
       <path id="mb12663539d" d="M 0 0 
L -3.5 0 
" style="stroke: #000000; stroke-width: 0.8"/>
      </defs>
      <g>
       <use xlink:href="#mb12663539d" x="72" y="378" style="stroke: #000000; stroke-width: 0.8"/>
      </g>
     </g>
     <g id="text_7">
      <!-- 0 -->
      <g transform="translate(58.6375 381.799219)scale(0.1 -0.1)">
       <use xlink:href="#DejaVuSans-30"/>
      </g>
     </g>
    </g>
    <g id="ytick_2">
     <g id="line2d_7">
      <g>
       <use xlink:href="#mb12663539d" x="72" y="324.326409" style="stroke: #000000; stroke-width: 0.8"/>
      </g>
     </g>
     <g id="text_8">
      <!-- 2 -->
      <g transform="translate(58.6375 328.125628)scale(0.1 -0.1)">
       <use xlink:href="#DejaVuSans-32"/>
      </g>
     </g>
    </g>
    <g id="ytick_3">
     <g id="line2d_8">
      <g>
       <use xlink:href="#mb12663539d" x="72" y="270.652819" style="stroke: #000000; stroke-width: 0.8"/>
      </g>
     </g>
     <g id="text_9">
      <!-- 4 -->
      <g transform="translate(58.6375 274.452037)scale(0.1 -0.1)">
       <defs>
        <path id="DejaVuSans-34" d="M 2419 4116 
L 825 1625 
L 2419 1625 
L 2419 4116 
z
M 2253 4666 
L 3047 4666 
L 3047 1625 
L 3713 1625 
L 3713 1100 
L 3047 1100 
L 3047 0 
L 2419 0 
L 2419 1100 
L 313 1100 
L 313 1709 
L 2253 4666 
z
" transform="scale(0.015625)"/>
       </defs>
       <use xlink:href="#DejaVuSans-34"/>
      </g>
     </g>
    </g>
    <g id="ytick_4">
     <g id="line2d_9">
      <g>
       <use xlink:href="#mb12663539d" x="72" y="216.979228" style="stroke: #000000; stroke-width: 0.8"/>
      </g>
     </g>
     <g id="text_10">
      <!-- 6 -->
      <g transform="translate(58.6375 220.778447)scale(0.1 -0.1)">
       <defs>
        <path id="DejaVuSans-36" d="M 2113 2584 
Q 1688 2584 1439 2293 
Q 1191 2003 1191 1497 
Q 1191 994 1439 701 
Q 1688 409 2113 409 
Q 2538 409 2786 701 
Q 3034 994 3034 1497 
Q 3034 2003 2786 2293 
Q 2538 2584 2113 2584 
z
M 3366 4563 
L 3366 3988 
Q 3128 4100 2886 4159 
Q 2644 4219 2406 4219 
Q 1781 4219 1451 3797 
Q 1122 3375 1075 2522 
Q 1259 2794 1537 2939 
Q 1816 3084 2150 3084 
Q 2853 3084 3261 2657 
Q 3669 2231 3669 1497 
Q 3669 778 3244 343 
Q 2819 -91 2113 -91 
Q 1303 -91 875 529 
Q 447 1150 447 2328 
Q 447 3434 972 4092 
Q 1497 4750 2381 4750 
Q 2619 4750 2861 4703 
Q 3103 4656 3366 4563 
z
" transform="scale(0.015625)"/>
       </defs>
       <use xlink:href="#DejaVuSans-36"/>
      </g>
     </g>
    </g>
    <g id="ytick_5">
     <g id="line2d_10">
      <g>
       <use xlink:href="#mb12663539d" x="72" y="163.305637" style="stroke: #000000; stroke-width: 0.8"/>
      </g>
     </g>
     <g id="text_11">
      <!-- 8 -->
      <g transform="translate(58.6375 167.104856)scale(0.1 -0.1)">
       <defs>
        <path id="DejaVuSans-38" d="M 2034 2216 
Q 1584 2216 1326 1975 
Q 1069 1734 1069 1313 
Q 1069 891 1326 650 
Q 1584 409 2034 409 
Q 2484 409 2743 651 
Q 3003 894 3003 1313 
Q 3003 1734 2745 1975 
Q 2488 2216 2034 2216 
z
M 1403 2484 
Q 997 2584 770 2862 
Q 544 3141 544 3541 
Q 544 4100 942 4425 
Q 1341 4750 2034 4750 
Q 2731 4750 3128 4425 
Q 3525 4100 3525 3541 
Q 3525 3141 3298 2862 
Q 3072 2584 2669 2484 
Q 3125 2378 3379 2068 
Q 3634 1759 3634 1313 
Q 3634 634 3220 271 
Q 2806 -91 2034 -91 
Q 1263 -91 848 271 
Q 434 634 434 1313 
Q 434 1759 690 2068 
Q 947 2378 1403 2484 
z
M 1172 3481 
Q 1172 3119 1398 2916 
Q 1625 2713 2034 2713 
Q 2441 2713 2670 2916 
Q 2900 3119 2900 3481 
Q 2900 3844 2670 4047 
Q 2441 4250 2034 4250 
Q 1625 4250 1398 4047 
Q 1172 3844 1172 3481 
z
" transform="scale(0.015625)"/>
       </defs>
       <use xlink:href="#DejaVuSans-38"/>
      </g>
     </g>
    </g>
    <g id="ytick_6">
     <g id="line2d_11">
      <g>
       <use xlink:href="#mb12663539d" x="72" y="109.632046" style="stroke: #000000; stroke-width: 0.8"/>
      </g>
     </g>
     <g id="text_12">
      <!-- 10 -->
      <g transform="translate(52.275 113.431265)scale(0.1 -0.1)">
       <use xlink:href="#DejaVuSans-31"/>
       <use xlink:href="#DejaVuSans-30" x="63.623047"/>
      </g>
     </g>
    </g>
    <g id="ytick_7">
     <g id="line2d_12">
      <g>
       <use xlink:href="#mb12663539d" x="72" y="55.958456" style="stroke: #000000; stroke-width: 0.8"/>
      </g>
     </g>
     <g id="text_13">
      <!-- 12 -->
      <g transform="translate(52.275 59.757674)scale(0.1 -0.1)">
       <use xlink:href="#DejaVuSans-31"/>
       <use xlink:href="#DejaVuSans-32" x="63.623047"/>
      </g>
     </g>
    </g>
    <g id="text_14">
     <!-- Density -->
     <g transform="translate(46.195312 233.928594)rotate(-90)scale(0.1 -0.1)">
      <defs>
       <path id="DejaVuSans-44" d="M 1259 4147 
L 1259 519 
L 2022 519 
Q 2988 519 3436 956 
Q 3884 1394 3884 2338 
Q 3884 3275 3436 3711 
Q 2988 4147 2022 4147 
L 1259 4147 
z
M 628 4666 
L 1925 4666 
Q 3281 4666 3915 4102 
Q 4550 3538 4550 2338 
Q 4550 1131 3912 565 
Q 3275 0 1925 0 
L 628 0 
L 628 4666 
z
" transform="scale(0.015625)"/>
       <path id="DejaVuSans-6e" d="M 3513 2113 
L 3513 0 
L 2938 0 
L 2938 2094 
Q 2938 2591 2744 2837 
Q 2550 3084 2163 3084 
Q 1697 3084 1428 2787 
Q 1159 2491 1159 1978 
L 1159 0 
L 581 0 
L 581 3500 
L 1159 3500 
L 1159 2956 
Q 1366 3272 1645 3428 
Q 1925 3584 2291 3584 
Q 2894 3584 3203 3211 
Q 3513 2838 3513 2113 
z
" transform="scale(0.015625)"/>
       <path id="DejaVuSans-79" d="M 2059 -325 
Q 1816 -950 1584 -1140 
Q 1353 -1331 966 -1331 
L 506 -1331 
L 506 -850 
L 844 -850 
Q 1081 -850 1212 -737 
Q 1344 -625 1503 -206 
L 1606 56 
L 191 3500 
L 800 3500 
L 1894 763 
L 2988 3500 
L 3597 3500 
L 2059 -325 
z
" transform="scale(0.015625)"/>
      </defs>
      <use xlink:href="#DejaVuSans-44"/>
      <use xlink:href="#DejaVuSans-65" x="77.001953"/>
      <use xlink:href="#DejaVuSans-6e" x="138.525391"/>
      <use xlink:href="#DejaVuSans-73" x="201.904297"/>
      <use xlink:href="#DejaVuSans-69" x="254.003906"/>
      <use xlink:href="#DejaVuSans-74" x="281.787109"/>
      <use xlink:href="#DejaVuSans-79" x="320.996094"/>
     </g>
    </g>
   </g>
   <g id="line2d_13">
    <path d="M 289.222117 368.001549 
L 291.28385 362.827575 
L 293.345584 356.559349 
L 297.46905 342.673058 
L 300.561651 333.452376 
L 301.592517 329.365775 
L 302.623384 323.890104 
L 303.654251 316.423273 
L 304.685117 306.405048 
L 305.715984 293.451249 
L 306.746851 277.523992 
L 308.808584 238.901904 
L 310.870318 198.036571 
L 312.932051 162.207646 
L 313.962918 147.091117 
L 314.993784 133.858927 
L 316.024651 122.543585 
L 317.055518 113.328289 
L 318.086385 106.506916 
L 319.117251 102.330104 
L 320.148118 100.824576 
L 321.178985 101.693031 
L 322.209851 104.363747 
L 323.240718 108.179749 
L 325.302452 117.578633 
L 326.333318 123.181821 
L 327.364185 129.848649 
L 328.395052 137.944145 
L 329.425918 147.576446 
L 331.487652 170.234251 
L 336.641985 230.912069 
L 338.703719 260.568561 
L 342.827186 326.461828 
L 343.858052 339.581926 
L 344.888919 350.198889 
L 345.919786 358.365822 
L 346.950653 364.411675 
L 347.981519 368.77831 
L 349.012386 371.887123 
L 350.043253 374.07299 
L 351.074119 375.57904 
L 352.104986 376.581671 
L 353.135853 377.216971 
L 354.16672 377.595306 
L 356.228453 377.912902 
L 359.321053 377.995125 
L 395.401388 378 
L 494.364592 378 
L 494.364592 378 
" clip-path="url(#pb5da790e0a)" style="fill: none; stroke: #a5e10f; stroke-width: 1.5; stroke-linecap: square"/>
   </g>
   <g id="line2d_14">
    <path d="M 289.222117 378 
L 429.419989 377.952936 
L 430.450856 377.836473 
L 431.481723 377.529952 
L 432.51259 376.882241 
L 433.543456 375.801087 
L 435.60519 373.181751 
L 436.636056 372.63326 
L 437.666923 373.05478 
L 438.69779 374.230234 
L 439.728657 375.622629 
L 440.759523 376.759681 
L 441.79039 377.464668 
L 442.821257 377.808853 
L 444.88299 377.986202 
L 454.160791 377.990592 
L 456.222524 377.854128 
L 457.253391 377.562931 
L 458.284257 376.89882 
L 459.315124 375.635725 
L 460.345991 373.577173 
L 461.376858 370.556508 
L 462.407724 366.317787 
L 463.438591 360.46126 
L 464.469458 352.685328 
L 465.500324 343.104834 
L 466.531191 332.025395 
L 467.562058 319.043892 
L 468.592924 302.35798 
L 469.623791 279.369308 
L 470.654658 248.593794 
L 473.747258 138.571994 
L 474.778125 113.676592 
L 475.808991 100.654219 
L 476.839858 99.19168 
L 477.870725 106.511153 
L 478.901592 118.739209 
L 479.932458 133.452482 
L 480.963325 151.579203 
L 481.994192 176.2709 
L 483.025058 209.195041 
L 485.086792 286.151686 
L 486.117659 318.54398 
L 487.148525 342.138439 
L 488.179392 357.32416 
L 489.210259 366.175627 
L 490.241125 370.814992 
L 491.271992 372.732885 
L 492.302859 372.992847 
L 493.333726 372.596083 
L 494.364592 372.457263 
L 494.364592 372.457263 
" clip-path="url(#pb5da790e0a)" style="fill: none; stroke: #24b4b1; stroke-width: 1.5; stroke-linecap: square"/>
   </g>
   <g id="line2d_15">
    <path d="M 80.422642 377.825933 
L 90.978455 377.554589 
L 97.311942 377.149713 
L 101.534268 376.653824 
L 105.756593 375.866787 
L 107.867755 375.328799 
L 109.978918 374.675338 
L 112.090081 373.893664 
L 114.201243 372.974126 
L 116.312406 371.911882 
L 118.423568 370.708622 
L 122.645894 367.926742 
L 133.201707 360.215873 
L 135.312869 358.88416 
L 137.424032 357.718714 
L 139.535194 356.746 
L 141.646357 355.980345 
L 143.75752 355.422964 
L 145.868682 355.062265 
L 147.979845 354.875369 
L 152.20217 354.89082 
L 162.757983 355.478821 
L 166.980308 355.368719 
L 171.202634 354.960893 
L 175.424959 354.318795 
L 190.203097 351.807236 
L 196.536585 351.089749 
L 204.981235 350.209379 
L 209.20356 349.623329 
L 213.425886 348.858352 
L 217.648211 347.885557 
L 221.870536 346.708471 
L 228.204024 344.640716 
L 236.648674 341.573407 
L 253.537975 335.308344 
L 257.7603 333.985664 
L 261.982626 332.914181 
L 266.204951 332.203406 
L 268.316113 332.026769 
L 270.427276 331.995808 
L 272.538439 332.130108 
L 274.649601 332.446291 
L 276.760764 332.955361 
L 278.871926 333.660288 
L 280.983089 334.554355 
L 283.094252 335.620703 
L 287.316577 338.159266 
L 302.094715 347.946533 
L 308.428203 351.624542 
L 337.984479 368.076481 
L 342.206805 370.038749 
L 346.42913 371.594812 
L 348.540292 372.191631 
L 350.651455 372.659538 
L 352.762618 372.997134 
L 354.87378 373.206242 
L 356.984943 373.291189 
L 361.207268 373.113785 
L 365.429593 372.521966 
L 369.651918 371.575033 
L 373.874244 370.330408 
L 378.096569 368.844588 
L 384.430057 366.284687 
L 401.319358 359.082585 
L 405.541683 357.815076 
L 407.652845 357.37806 
L 409.764008 357.098964 
L 411.875171 356.991827 
L 413.986333 357.063731 
L 416.097496 357.313547 
L 418.208658 357.731327 
L 420.319821 358.29846 
L 424.542146 359.76953 
L 432.986797 363.082686 
L 437.209122 364.430497 
L 441.431447 365.419026 
L 445.653772 366.097361 
L 454.098423 367.036903 
L 464.654236 368.267697 
L 470.987724 369.15368 
L 475.210049 369.905089 
L 479.432374 370.866128 
L 483.654699 372.043691 
L 494.210512 375.245093 
L 498.432837 376.255887 
L 500.544 376.658478 
L 500.544 376.658478 
" clip-path="url(#pb5da790e0a)" style="fill: none; stroke-dasharray: 5.55,2.4; stroke-dashoffset: 0; stroke: #a5e10f; stroke-width: 1.5"/>
   </g>
   <g id="line2d_16">
    <path d="M 80.422642 377.906979 
L 90.978455 377.711828 
L 97.311942 377.425318 
L 103.64543 376.894886 
L 107.867755 376.346608 
L 112.090081 375.60589 
L 116.312406 374.659419 
L 120.534731 373.524682 
L 135.312869 369.199691 
L 139.535194 368.306966 
L 143.75752 367.703621 
L 147.979845 367.37821 
L 154.313333 367.25554 
L 164.869146 367.204533 
L 171.202634 366.902574 
L 179.647284 366.198533 
L 190.203097 365.323041 
L 198.647747 364.905568 
L 213.425886 364.36204 
L 219.759373 363.83156 
L 226.092861 362.991922 
L 232.426349 361.899449 
L 249.31565 358.818733 
L 255.649138 357.90782 
L 261.982626 357.242993 
L 266.204951 356.993789 
L 270.427276 356.954275 
L 274.649601 357.168281 
L 278.871926 357.658761 
L 283.094252 358.414203 
L 287.316577 359.386395 
L 293.650065 361.089521 
L 308.428203 365.167363 
L 325.317504 369.731709 
L 335.873317 372.582824 
L 340.095642 373.553117 
L 344.317967 374.345111 
L 348.540292 374.924383 
L 352.762618 375.278571 
L 356.984943 375.414577 
L 361.207268 375.351402 
L 365.429593 375.112715 
L 371.763081 374.476498 
L 378.096569 373.569972 
L 386.541219 372.065064 
L 399.208195 369.712544 
L 403.43052 369.125193 
L 407.652845 368.750118 
L 411.875171 368.635739 
L 416.097496 368.793943 
L 420.319821 369.192644 
L 426.653309 370.082061 
L 437.209122 371.628533 
L 443.54261 372.310493 
L 451.98726 372.947659 
L 477.321211 374.576987 
L 485.765862 375.49707 
L 498.432837 376.960967 
L 500.544 377.150828 
L 500.544 377.150828 
" clip-path="url(#pb5da790e0a)" style="fill: none; stroke-dasharray: 5.55,2.4; stroke-dashoffset: 0; stroke: #24b4b1; stroke-width: 1.5"/>
   </g>
   <g id="patch_203">
    <path d="M 72 378 
L 72 51.84 
" style="fill: none; stroke: #000000; stroke-width: 0.8; stroke-linejoin: miter; stroke-linecap: square"/>
   </g>
   <g id="patch_204">
    <path d="M 518.4 378 
L 518.4 51.84 
" style="fill: none; stroke: #000000; stroke-width: 0.8; stroke-linejoin: miter; stroke-linecap: square"/>
   </g>
   <g id="patch_205">
    <path d="M 72 378 
L 518.4 378 
" style="fill: none; stroke: #000000; stroke-width: 0.8; stroke-linejoin: miter; stroke-linecap: square"/>
   </g>
   <g id="patch_206">
    <path d="M 72 51.84 
L 518.4 51.84 
" style="fill: none; stroke: #000000; stroke-width: 0.8; stroke-linejoin: miter; stroke-linecap: square"/>
   </g>
   <g id="legend_1">
    <g id="patch_207">
     <path d="M 79 103.874375 
L 123.725 103.874375 
Q 125.725 103.874375 125.725 101.874375 
L 125.725 58.84 
Q 125.725 56.84 123.725 56.84 
L 79 56.84 
Q 77 56.84 77 58.84 
L 77 101.874375 
Q 77 103.874375 79 103.874375 
z
" style="fill: #ffffff; opacity: 0.8; stroke: #cccccc; stroke-linejoin: miter"/>
    </g>
    <g id="text_15">
     <!-- label2 -->
     <g transform="translate(86.088281 68.438437)scale(0.1 -0.1)">
      <defs>
       <path id="DejaVuSans-6c" d="M 603 4863 
L 1178 4863 
L 1178 0 
L 603 0 
L 603 4863 
z
" transform="scale(0.015625)"/>
       <path id="DejaVuSans-62" d="M 3116 1747 
Q 3116 2381 2855 2742 
Q 2594 3103 2138 3103 
Q 1681 3103 1420 2742 
Q 1159 2381 1159 1747 
Q 1159 1113 1420 752 
Q 1681 391 2138 391 
Q 2594 391 2855 752 
Q 3116 1113 3116 1747 
z
M 1159 2969 
Q 1341 3281 1617 3432 
Q 1894 3584 2278 3584 
Q 2916 3584 3314 3078 
Q 3713 2572 3713 1747 
Q 3713 922 3314 415 
Q 2916 -91 2278 -91 
Q 1894 -91 1617 61 
Q 1341 213 1159 525 
L 1159 0 
L 581 0 
L 581 4863 
L 1159 4863 
L 1159 2969 
z
" transform="scale(0.015625)"/>
      </defs>
      <use xlink:href="#DejaVuSans-6c"/>
      <use xlink:href="#DejaVuSans-61" x="27.783203"/>
      <use xlink:href="#DejaVuSans-62" x="89.0625"/>
      <use xlink:href="#DejaVuSans-65" x="152.539062"/>
      <use xlink:href="#DejaVuSans-6c" x="214.0625"/>
      <use xlink:href="#DejaVuSans-32" x="241.845703"/>
     </g>
    </g>
    <g id="patch_208">
     <path d="M 81 83.116562 
L 101 83.116562 
L 101 76.116562 
L 81 76.116562 
L 81 83.116562 
z
" style="fill: none"/>
    </g>
    <g id="text_16">
     <!-- 15 -->
     <g transform="translate(109 83.116562)scale(0.1 -0.1)">
      <use xlink:href="#DejaVuSans-31"/>
      <use xlink:href="#DejaVuSans-35" x="63.623047"/>
     </g>
    </g>
    <g id="patch_209">
     <path d="M 81 97.794688 
L 101 97.794688 
L 101 90.794688 
L 81 90.794688 
L 81 97.794688 
z
" style="fill: none"/>
    </g>
    <g id="text_17">
     <!-- 26 -->
     <g transform="translate(109 97.794688)scale(0.1 -0.1)">
      <use xlink:href="#DejaVuSans-32"/>
      <use xlink:href="#DejaVuSans-36" x="63.623047"/>
     </g>
    </g>
   </g>
  </g>
 </g>
 <defs>
  <clipPath id="pb5da790e0a">
   <rect x="72" y="51.84" width="446.4" height="326.16"/>
  </clipPath>
 </defs>
</svg>
