<?xml version="1.0" encoding="utf-8" standalone="no"?>
<!DOCTYPE svg PUBLIC "-//W3C//DTD SVG 1.1//EN"
  "http://www.w3.org/Graphics/SVG/1.1/DTD/svg11.dtd">
<svg xmlns:xlink="http://www.w3.org/1999/xlink" width="576pt" height="432pt" viewBox="0 0 576 432" xmlns="http://www.w3.org/2000/svg" version="1.1">
 <metadata>
  <rdf:RDF xmlns:dc="http://purl.org/dc/elements/1.1/" xmlns:cc="http://creativecommons.org/ns#" xmlns:rdf="http://www.w3.org/1999/02/22-rdf-syntax-ns#">
   <cc:Work>
    <dc:type rdf:resource="http://purl.org/dc/dcmitype/StillImage"/>
    <dc:date>2022-04-12T13:56:57.918370</dc:date>
    <dc:format>image/svg+xml</dc:format>
    <dc:creator>
     <cc:Agent>
      <dc:title>Matplotlib v3.5.1, https://matplotlib.org/</dc:title>
     </cc:Agent>
    </dc:creator>
   </cc:Work>
  </rdf:RDF>
 </metadata>
 <defs>
  <style type="text/css">*{stroke-linejoin: round; stroke-linecap: butt}</style>
 </defs>
 <g id="figure_1">
  <g id="patch_1">
   <path d="M 0 432 
L 576 432 
L 576 0 
L 0 0 
L 0 432 
z
" style="fill: none"/>
  </g>
  <g id="axes_1">
   <g id="patch_2">
    <path d="M 72 378 
L 518.4 378 
L 518.4 51.84 
L 72 51.84 
z
" style="fill: #ffffff"/>
   </g>
   <g id="patch_3">
    <path d="M 189.101484 378 
L 191.64625 378 
L 191.64625 378 
L 189.101484 378 
z
" clip-path="url(#p5bee9965e3)" style="fill: #a5e10f; fill-opacity: 0.5"/>
   </g>
   <g id="patch_4">
    <path d="M 191.64625 378 
L 194.191016 378 
L 194.191016 378 
L 191.64625 378 
z
" clip-path="url(#p5bee9965e3)" style="fill: #a5e10f; fill-opacity: 0.5"/>
   </g>
   <g id="patch_5">
    <path d="M 194.191016 378 
L 196.735781 378 
L 196.735781 378 
L 194.191016 378 
z
" clip-path="url(#p5bee9965e3)" style="fill: #a5e10f; fill-opacity: 0.5"/>
   </g>
   <g id="patch_6">
    <path d="M 196.735781 378 
L 199.280547 378 
L 199.280547 378 
L 196.735781 378 
z
" clip-path="url(#p5bee9965e3)" style="fill: #a5e10f; fill-opacity: 0.5"/>
   </g>
   <g id="patch_7">
    <path d="M 199.280547 378 
L 201.825313 378 
L 201.825313 363.208163 
L 199.280547 363.208163 
z
" clip-path="url(#p5bee9965e3)" style="fill: #a5e10f; fill-opacity: 0.5"/>
   </g>
   <g id="patch_8">
    <path d="M 201.825313 378 
L 204.370078 378 
L 204.370078 348.416327 
L 201.825313 348.416327 
z
" clip-path="url(#p5bee9965e3)" style="fill: #a5e10f; fill-opacity: 0.5"/>
   </g>
   <g id="patch_9">
    <path d="M 204.370078 378 
L 206.914844 378 
L 206.914844 333.62449 
L 204.370078 333.62449 
z
" clip-path="url(#p5bee9965e3)" style="fill: #a5e10f; fill-opacity: 0.5"/>
   </g>
   <g id="patch_10">
    <path d="M 206.914844 378 
L 209.45961 378 
L 209.45961 333.62449 
L 206.914844 333.62449 
z
" clip-path="url(#p5bee9965e3)" style="fill: #a5e10f; fill-opacity: 0.5"/>
   </g>
   <g id="patch_11">
    <path d="M 209.45961 378 
L 212.004375 378 
L 212.004375 259.665306 
L 209.45961 259.665306 
z
" clip-path="url(#p5bee9965e3)" style="fill: #a5e10f; fill-opacity: 0.5"/>
   </g>
   <g id="patch_12">
    <path d="M 212.004375 378 
L 214.549141 378 
L 214.549141 318.832653 
L 212.004375 318.832653 
z
" clip-path="url(#p5bee9965e3)" style="fill: #a5e10f; fill-opacity: 0.5"/>
   </g>
   <g id="patch_13">
    <path d="M 214.549141 378 
L 217.093906 378 
L 217.093906 244.873469 
L 214.549141 244.873469 
z
" clip-path="url(#p5bee9965e3)" style="fill: #a5e10f; fill-opacity: 0.5"/>
   </g>
   <g id="patch_14">
    <path d="M 217.093906 378 
L 219.638672 378 
L 219.638672 304.040816 
L 217.093906 304.040816 
z
" clip-path="url(#p5bee9965e3)" style="fill: #a5e10f; fill-opacity: 0.5"/>
   </g>
   <g id="patch_15">
    <path d="M 219.638672 378 
L 222.183438 378 
L 222.183438 230.081633 
L 219.638672 230.081633 
z
" clip-path="url(#p5bee9965e3)" style="fill: #a5e10f; fill-opacity: 0.5"/>
   </g>
   <g id="patch_16">
    <path d="M 222.183438 378 
L 224.728203 378 
L 224.728203 185.706122 
L 222.183438 185.706122 
z
" clip-path="url(#p5bee9965e3)" style="fill: #a5e10f; fill-opacity: 0.5"/>
   </g>
   <g id="patch_17">
    <path d="M 224.728203 378 
L 227.272969 378 
L 227.272969 289.24898 
L 224.728203 289.24898 
z
" clip-path="url(#p5bee9965e3)" style="fill: #a5e10f; fill-opacity: 0.5"/>
   </g>
   <g id="patch_18">
    <path d="M 227.272969 378 
L 229.817735 378 
L 229.817735 289.24898 
L 227.272969 289.24898 
z
" clip-path="url(#p5bee9965e3)" style="fill: #a5e10f; fill-opacity: 0.5"/>
   </g>
   <g id="patch_19">
    <path d="M 229.817735 378 
L 232.3625 378 
L 232.3625 200.497959 
L 229.817735 200.497959 
z
" clip-path="url(#p5bee9965e3)" style="fill: #a5e10f; fill-opacity: 0.5"/>
   </g>
   <g id="patch_20">
    <path d="M 232.3625 378 
L 234.907266 378 
L 234.907266 259.665306 
L 232.3625 259.665306 
z
" clip-path="url(#p5bee9965e3)" style="fill: #a5e10f; fill-opacity: 0.5"/>
   </g>
   <g id="patch_21">
    <path d="M 234.907266 378 
L 237.452032 378 
L 237.452032 244.873469 
L 234.907266 244.873469 
z
" clip-path="url(#p5bee9965e3)" style="fill: #a5e10f; fill-opacity: 0.5"/>
   </g>
   <g id="patch_22">
    <path d="M 237.452032 378 
L 239.996797 378 
L 239.996797 230.081633 
L 237.452032 230.081633 
z
" clip-path="url(#p5bee9965e3)" style="fill: #a5e10f; fill-opacity: 0.5"/>
   </g>
   <g id="patch_23">
    <path d="M 239.996797 378 
L 242.541563 378 
L 242.541563 215.289796 
L 239.996797 215.289796 
z
" clip-path="url(#p5bee9965e3)" style="fill: #a5e10f; fill-opacity: 0.5"/>
   </g>
   <g id="patch_24">
    <path d="M 242.541563 378 
L 245.086328 378 
L 245.086328 244.873469 
L 242.541563 244.873469 
z
" clip-path="url(#p5bee9965e3)" style="fill: #a5e10f; fill-opacity: 0.5"/>
   </g>
   <g id="patch_25">
    <path d="M 245.086328 378 
L 247.631094 378 
L 247.631094 156.122449 
L 245.086328 156.122449 
z
" clip-path="url(#p5bee9965e3)" style="fill: #a5e10f; fill-opacity: 0.5"/>
   </g>
   <g id="patch_26">
    <path d="M 247.631094 378 
L 250.17586 378 
L 250.17586 126.538776 
L 247.631094 126.538776 
z
" clip-path="url(#p5bee9965e3)" style="fill: #a5e10f; fill-opacity: 0.5"/>
   </g>
   <g id="patch_27">
    <path d="M 250.17586 378 
L 252.720625 378 
L 252.720625 126.538776 
L 250.17586 126.538776 
z
" clip-path="url(#p5bee9965e3)" style="fill: #a5e10f; fill-opacity: 0.5"/>
   </g>
   <g id="patch_28">
    <path d="M 252.720625 378 
L 255.265391 378 
L 255.265391 141.330612 
L 252.720625 141.330612 
z
" clip-path="url(#p5bee9965e3)" style="fill: #a5e10f; fill-opacity: 0.5"/>
   </g>
   <g id="patch_29">
    <path d="M 255.265391 378 
L 257.810157 378 
L 257.810157 200.497959 
L 255.265391 200.497959 
z
" clip-path="url(#p5bee9965e3)" style="fill: #a5e10f; fill-opacity: 0.5"/>
   </g>
   <g id="patch_30">
    <path d="M 257.810157 378 
L 260.354922 378 
L 260.354922 82.163265 
L 257.810157 82.163265 
z
" clip-path="url(#p5bee9965e3)" style="fill: #a5e10f; fill-opacity: 0.5"/>
   </g>
   <g id="patch_31">
    <path d="M 260.354922 378 
L 262.899688 378 
L 262.899688 67.371429 
L 260.354922 67.371429 
z
" clip-path="url(#p5bee9965e3)" style="fill: #a5e10f; fill-opacity: 0.5"/>
   </g>
   <g id="patch_32">
    <path d="M 262.899688 378 
L 265.444453 378 
L 265.444453 289.24898 
L 262.899688 289.24898 
z
" clip-path="url(#p5bee9965e3)" style="fill: #a5e10f; fill-opacity: 0.5"/>
   </g>
   <g id="patch_33">
    <path d="M 265.444453 378 
L 267.989219 378 
L 267.989219 185.706122 
L 265.444453 185.706122 
z
" clip-path="url(#p5bee9965e3)" style="fill: #a5e10f; fill-opacity: 0.5"/>
   </g>
   <g id="patch_34">
    <path d="M 267.989219 378 
L 270.533985 378 
L 270.533985 185.706122 
L 267.989219 185.706122 
z
" clip-path="url(#p5bee9965e3)" style="fill: #a5e10f; fill-opacity: 0.5"/>
   </g>
   <g id="patch_35">
    <path d="M 270.533985 378 
L 273.07875 378 
L 273.07875 304.040816 
L 270.533985 304.040816 
z
" clip-path="url(#p5bee9965e3)" style="fill: #a5e10f; fill-opacity: 0.5"/>
   </g>
   <g id="patch_36">
    <path d="M 273.07875 378 
L 275.623516 378 
L 275.623516 304.040816 
L 273.07875 304.040816 
z
" clip-path="url(#p5bee9965e3)" style="fill: #a5e10f; fill-opacity: 0.5"/>
   </g>
   <g id="patch_37">
    <path d="M 275.623516 378 
L 278.168282 378 
L 278.168282 244.873469 
L 275.623516 244.873469 
z
" clip-path="url(#p5bee9965e3)" style="fill: #a5e10f; fill-opacity: 0.5"/>
   </g>
   <g id="patch_38">
    <path d="M 278.168282 378 
L 280.713047 378 
L 280.713047 289.24898 
L 278.168282 289.24898 
z
" clip-path="url(#p5bee9965e3)" style="fill: #a5e10f; fill-opacity: 0.5"/>
   </g>
   <g id="patch_39">
    <path d="M 280.713047 378 
L 283.257813 378 
L 283.257813 333.62449 
L 280.713047 333.62449 
z
" clip-path="url(#p5bee9965e3)" style="fill: #a5e10f; fill-opacity: 0.5"/>
   </g>
   <g id="patch_40">
    <path d="M 283.257813 378 
L 285.802579 378 
L 285.802579 348.416327 
L 283.257813 348.416327 
z
" clip-path="url(#p5bee9965e3)" style="fill: #a5e10f; fill-opacity: 0.5"/>
   </g>
   <g id="patch_41">
    <path d="M 285.802579 378 
L 288.347344 378 
L 288.347344 289.24898 
L 285.802579 289.24898 
z
" clip-path="url(#p5bee9965e3)" style="fill: #a5e10f; fill-opacity: 0.5"/>
   </g>
   <g id="patch_42">
    <path d="M 288.347344 378 
L 290.89211 378 
L 290.89211 378 
L 288.347344 378 
z
" clip-path="url(#p5bee9965e3)" style="fill: #a5e10f; fill-opacity: 0.5"/>
   </g>
   <g id="patch_43">
    <path d="M 290.89211 378 
L 293.436875 378 
L 293.436875 378 
L 290.89211 378 
z
" clip-path="url(#p5bee9965e3)" style="fill: #a5e10f; fill-opacity: 0.5"/>
   </g>
   <g id="patch_44">
    <path d="M 293.436875 378 
L 295.981641 378 
L 295.981641 363.208163 
L 293.436875 363.208163 
z
" clip-path="url(#p5bee9965e3)" style="fill: #a5e10f; fill-opacity: 0.5"/>
   </g>
   <g id="patch_45">
    <path d="M 295.981641 378 
L 298.526407 378 
L 298.526407 348.416327 
L 295.981641 348.416327 
z
" clip-path="url(#p5bee9965e3)" style="fill: #a5e10f; fill-opacity: 0.5"/>
   </g>
   <g id="patch_46">
    <path d="M 298.526407 378 
L 301.071172 378 
L 301.071172 363.208163 
L 298.526407 363.208163 
z
" clip-path="url(#p5bee9965e3)" style="fill: #a5e10f; fill-opacity: 0.5"/>
   </g>
   <g id="patch_47">
    <path d="M 301.071172 378 
L 303.615938 378 
L 303.615938 378 
L 301.071172 378 
z
" clip-path="url(#p5bee9965e3)" style="fill: #a5e10f; fill-opacity: 0.5"/>
   </g>
   <g id="patch_48">
    <path d="M 303.615938 378 
L 306.160704 378 
L 306.160704 378 
L 303.615938 378 
z
" clip-path="url(#p5bee9965e3)" style="fill: #a5e10f; fill-opacity: 0.5"/>
   </g>
   <g id="patch_49">
    <path d="M 306.160704 378 
L 308.705469 378 
L 308.705469 378 
L 306.160704 378 
z
" clip-path="url(#p5bee9965e3)" style="fill: #a5e10f; fill-opacity: 0.5"/>
   </g>
   <g id="patch_50">
    <path d="M 308.705469 378 
L 311.250235 378 
L 311.250235 378 
L 308.705469 378 
z
" clip-path="url(#p5bee9965e3)" style="fill: #a5e10f; fill-opacity: 0.5"/>
   </g>
   <g id="patch_51">
    <path d="M 311.250235 378 
L 313.795001 378 
L 313.795001 378 
L 311.250235 378 
z
" clip-path="url(#p5bee9965e3)" style="fill: #a5e10f; fill-opacity: 0.5"/>
   </g>
   <g id="patch_52">
    <path d="M 313.795001 378 
L 316.339766 378 
L 316.339766 363.208163 
L 313.795001 363.208163 
z
" clip-path="url(#p5bee9965e3)" style="fill: #a5e10f; fill-opacity: 0.5"/>
   </g>
   <g id="patch_53">
    <path d="M 189.101484 378 
L 191.64625 378 
L 191.64625 363.208163 
L 189.101484 363.208163 
z
" clip-path="url(#p5bee9965e3)" style="fill: #24b4b1; fill-opacity: 0.5"/>
   </g>
   <g id="patch_54">
    <path d="M 191.64625 378 
L 194.191016 378 
L 194.191016 378 
L 191.64625 378 
z
" clip-path="url(#p5bee9965e3)" style="fill: #24b4b1; fill-opacity: 0.5"/>
   </g>
   <g id="patch_55">
    <path d="M 194.191016 378 
L 196.735781 378 
L 196.735781 348.416327 
L 194.191016 348.416327 
z
" clip-path="url(#p5bee9965e3)" style="fill: #24b4b1; fill-opacity: 0.5"/>
   </g>
   <g id="patch_56">
    <path d="M 196.735781 378 
L 199.280547 378 
L 199.280547 348.416327 
L 196.735781 348.416327 
z
" clip-path="url(#p5bee9965e3)" style="fill: #24b4b1; fill-opacity: 0.5"/>
   </g>
   <g id="patch_57">
    <path d="M 199.280547 378 
L 201.825313 378 
L 201.825313 363.208163 
L 199.280547 363.208163 
z
" clip-path="url(#p5bee9965e3)" style="fill: #24b4b1; fill-opacity: 0.5"/>
   </g>
   <g id="patch_58">
    <path d="M 201.825313 378 
L 204.370078 378 
L 204.370078 333.62449 
L 201.825313 333.62449 
z
" clip-path="url(#p5bee9965e3)" style="fill: #24b4b1; fill-opacity: 0.5"/>
   </g>
   <g id="patch_59">
    <path d="M 204.370078 378 
L 206.914844 378 
L 206.914844 289.24898 
L 204.370078 289.24898 
z
" clip-path="url(#p5bee9965e3)" style="fill: #24b4b1; fill-opacity: 0.5"/>
   </g>
   <g id="patch_60">
    <path d="M 206.914844 378 
L 209.45961 378 
L 209.45961 274.457143 
L 206.914844 274.457143 
z
" clip-path="url(#p5bee9965e3)" style="fill: #24b4b1; fill-opacity: 0.5"/>
   </g>
   <g id="patch_61">
    <path d="M 209.45961 378 
L 212.004375 378 
L 212.004375 259.665306 
L 209.45961 259.665306 
z
" clip-path="url(#p5bee9965e3)" style="fill: #24b4b1; fill-opacity: 0.5"/>
   </g>
   <g id="patch_62">
    <path d="M 212.004375 378 
L 214.549141 378 
L 214.549141 215.289796 
L 212.004375 215.289796 
z
" clip-path="url(#p5bee9965e3)" style="fill: #24b4b1; fill-opacity: 0.5"/>
   </g>
   <g id="patch_63">
    <path d="M 214.549141 378 
L 217.093906 378 
L 217.093906 230.081633 
L 214.549141 230.081633 
z
" clip-path="url(#p5bee9965e3)" style="fill: #24b4b1; fill-opacity: 0.5"/>
   </g>
   <g id="patch_64">
    <path d="M 217.093906 378 
L 219.638672 378 
L 219.638672 230.081633 
L 217.093906 230.081633 
z
" clip-path="url(#p5bee9965e3)" style="fill: #24b4b1; fill-opacity: 0.5"/>
   </g>
   <g id="patch_65">
    <path d="M 219.638672 378 
L 222.183438 378 
L 222.183438 170.914286 
L 219.638672 170.914286 
z
" clip-path="url(#p5bee9965e3)" style="fill: #24b4b1; fill-opacity: 0.5"/>
   </g>
   <g id="patch_66">
    <path d="M 222.183438 378 
L 224.728203 378 
L 224.728203 185.706122 
L 222.183438 185.706122 
z
" clip-path="url(#p5bee9965e3)" style="fill: #24b4b1; fill-opacity: 0.5"/>
   </g>
   <g id="patch_67">
    <path d="M 224.728203 378 
L 227.272969 378 
L 227.272969 200.497959 
L 224.728203 200.497959 
z
" clip-path="url(#p5bee9965e3)" style="fill: #24b4b1; fill-opacity: 0.5"/>
   </g>
   <g id="patch_68">
    <path d="M 227.272969 378 
L 229.817735 378 
L 229.817735 259.665306 
L 227.272969 259.665306 
z
" clip-path="url(#p5bee9965e3)" style="fill: #24b4b1; fill-opacity: 0.5"/>
   </g>
   <g id="patch_69">
    <path d="M 229.817735 378 
L 232.3625 378 
L 232.3625 170.914286 
L 229.817735 170.914286 
z
" clip-path="url(#p5bee9965e3)" style="fill: #24b4b1; fill-opacity: 0.5"/>
   </g>
   <g id="patch_70">
    <path d="M 232.3625 378 
L 234.907266 378 
L 234.907266 274.457143 
L 232.3625 274.457143 
z
" clip-path="url(#p5bee9965e3)" style="fill: #24b4b1; fill-opacity: 0.5"/>
   </g>
   <g id="patch_71">
    <path d="M 234.907266 378 
L 237.452032 378 
L 237.452032 348.416327 
L 234.907266 348.416327 
z
" clip-path="url(#p5bee9965e3)" style="fill: #24b4b1; fill-opacity: 0.5"/>
   </g>
   <g id="patch_72">
    <path d="M 237.452032 378 
L 239.996797 378 
L 239.996797 333.62449 
L 237.452032 333.62449 
z
" clip-path="url(#p5bee9965e3)" style="fill: #24b4b1; fill-opacity: 0.5"/>
   </g>
   <g id="patch_73">
    <path d="M 239.996797 378 
L 242.541563 378 
L 242.541563 318.832653 
L 239.996797 318.832653 
z
" clip-path="url(#p5bee9965e3)" style="fill: #24b4b1; fill-opacity: 0.5"/>
   </g>
   <g id="patch_74">
    <path d="M 242.541563 378 
L 245.086328 378 
L 245.086328 333.62449 
L 242.541563 333.62449 
z
" clip-path="url(#p5bee9965e3)" style="fill: #24b4b1; fill-opacity: 0.5"/>
   </g>
   <g id="patch_75">
    <path d="M 245.086328 378 
L 247.631094 378 
L 247.631094 348.416327 
L 245.086328 348.416327 
z
" clip-path="url(#p5bee9965e3)" style="fill: #24b4b1; fill-opacity: 0.5"/>
   </g>
   <g id="patch_76">
    <path d="M 247.631094 378 
L 250.17586 378 
L 250.17586 348.416327 
L 247.631094 348.416327 
z
" clip-path="url(#p5bee9965e3)" style="fill: #24b4b1; fill-opacity: 0.5"/>
   </g>
   <g id="patch_77">
    <path d="M 250.17586 378 
L 252.720625 378 
L 252.720625 363.208163 
L 250.17586 363.208163 
z
" clip-path="url(#p5bee9965e3)" style="fill: #24b4b1; fill-opacity: 0.5"/>
   </g>
   <g id="patch_78">
    <path d="M 252.720625 378 
L 255.265391 378 
L 255.265391 363.208163 
L 252.720625 363.208163 
z
" clip-path="url(#p5bee9965e3)" style="fill: #24b4b1; fill-opacity: 0.5"/>
   </g>
   <g id="patch_79">
    <path d="M 255.265391 378 
L 257.810157 378 
L 257.810157 378 
L 255.265391 378 
z
" clip-path="url(#p5bee9965e3)" style="fill: #24b4b1; fill-opacity: 0.5"/>
   </g>
   <g id="patch_80">
    <path d="M 257.810157 378 
L 260.354922 378 
L 260.354922 378 
L 257.810157 378 
z
" clip-path="url(#p5bee9965e3)" style="fill: #24b4b1; fill-opacity: 0.5"/>
   </g>
   <g id="patch_81">
    <path d="M 260.354922 378 
L 262.899688 378 
L 262.899688 378 
L 260.354922 378 
z
" clip-path="url(#p5bee9965e3)" style="fill: #24b4b1; fill-opacity: 0.5"/>
   </g>
   <g id="patch_82">
    <path d="M 262.899688 378 
L 265.444453 378 
L 265.444453 363.208163 
L 262.899688 363.208163 
z
" clip-path="url(#p5bee9965e3)" style="fill: #24b4b1; fill-opacity: 0.5"/>
   </g>
   <g id="patch_83">
    <path d="M 265.444453 378 
L 267.989219 378 
L 267.989219 378 
L 265.444453 378 
z
" clip-path="url(#p5bee9965e3)" style="fill: #24b4b1; fill-opacity: 0.5"/>
   </g>
   <g id="patch_84">
    <path d="M 267.989219 378 
L 270.533985 378 
L 270.533985 378 
L 267.989219 378 
z
" clip-path="url(#p5bee9965e3)" style="fill: #24b4b1; fill-opacity: 0.5"/>
   </g>
   <g id="patch_85">
    <path d="M 270.533985 378 
L 273.07875 378 
L 273.07875 378 
L 270.533985 378 
z
" clip-path="url(#p5bee9965e3)" style="fill: #24b4b1; fill-opacity: 0.5"/>
   </g>
   <g id="patch_86">
    <path d="M 273.07875 378 
L 275.623516 378 
L 275.623516 378 
L 273.07875 378 
z
" clip-path="url(#p5bee9965e3)" style="fill: #24b4b1; fill-opacity: 0.5"/>
   </g>
   <g id="patch_87">
    <path d="M 275.623516 378 
L 278.168282 378 
L 278.168282 378 
L 275.623516 378 
z
" clip-path="url(#p5bee9965e3)" style="fill: #24b4b1; fill-opacity: 0.5"/>
   </g>
   <g id="patch_88">
    <path d="M 278.168282 378 
L 280.713047 378 
L 280.713047 378 
L 278.168282 378 
z
" clip-path="url(#p5bee9965e3)" style="fill: #24b4b1; fill-opacity: 0.5"/>
   </g>
   <g id="patch_89">
    <path d="M 280.713047 378 
L 283.257813 378 
L 283.257813 378 
L 280.713047 378 
z
" clip-path="url(#p5bee9965e3)" style="fill: #24b4b1; fill-opacity: 0.5"/>
   </g>
   <g id="patch_90">
    <path d="M 283.257813 378 
L 285.802579 378 
L 285.802579 378 
L 283.257813 378 
z
" clip-path="url(#p5bee9965e3)" style="fill: #24b4b1; fill-opacity: 0.5"/>
   </g>
   <g id="patch_91">
    <path d="M 285.802579 378 
L 288.347344 378 
L 288.347344 378 
L 285.802579 378 
z
" clip-path="url(#p5bee9965e3)" style="fill: #24b4b1; fill-opacity: 0.5"/>
   </g>
   <g id="patch_92">
    <path d="M 288.347344 378 
L 290.89211 378 
L 290.89211 378 
L 288.347344 378 
z
" clip-path="url(#p5bee9965e3)" style="fill: #24b4b1; fill-opacity: 0.5"/>
   </g>
   <g id="patch_93">
    <path d="M 290.89211 378 
L 293.436875 378 
L 293.436875 378 
L 290.89211 378 
z
" clip-path="url(#p5bee9965e3)" style="fill: #24b4b1; fill-opacity: 0.5"/>
   </g>
   <g id="patch_94">
    <path d="M 293.436875 378 
L 295.981641 378 
L 295.981641 378 
L 293.436875 378 
z
" clip-path="url(#p5bee9965e3)" style="fill: #24b4b1; fill-opacity: 0.5"/>
   </g>
   <g id="patch_95">
    <path d="M 295.981641 378 
L 298.526407 378 
L 298.526407 378 
L 295.981641 378 
z
" clip-path="url(#p5bee9965e3)" style="fill: #24b4b1; fill-opacity: 0.5"/>
   </g>
   <g id="patch_96">
    <path d="M 298.526407 378 
L 301.071172 378 
L 301.071172 378 
L 298.526407 378 
z
" clip-path="url(#p5bee9965e3)" style="fill: #24b4b1; fill-opacity: 0.5"/>
   </g>
   <g id="patch_97">
    <path d="M 301.071172 378 
L 303.615938 378 
L 303.615938 378 
L 301.071172 378 
z
" clip-path="url(#p5bee9965e3)" style="fill: #24b4b1; fill-opacity: 0.5"/>
   </g>
   <g id="patch_98">
    <path d="M 303.615938 378 
L 306.160704 378 
L 306.160704 378 
L 303.615938 378 
z
" clip-path="url(#p5bee9965e3)" style="fill: #24b4b1; fill-opacity: 0.5"/>
   </g>
   <g id="patch_99">
    <path d="M 306.160704 378 
L 308.705469 378 
L 308.705469 378 
L 306.160704 378 
z
" clip-path="url(#p5bee9965e3)" style="fill: #24b4b1; fill-opacity: 0.5"/>
   </g>
   <g id="patch_100">
    <path d="M 308.705469 378 
L 311.250235 378 
L 311.250235 378 
L 308.705469 378 
z
" clip-path="url(#p5bee9965e3)" style="fill: #24b4b1; fill-opacity: 0.5"/>
   </g>
   <g id="patch_101">
    <path d="M 311.250235 378 
L 313.795001 378 
L 313.795001 378 
L 311.250235 378 
z
" clip-path="url(#p5bee9965e3)" style="fill: #24b4b1; fill-opacity: 0.5"/>
   </g>
   <g id="patch_102">
    <path d="M 313.795001 378 
L 316.339766 378 
L 316.339766 378 
L 313.795001 378 
z
" clip-path="url(#p5bee9965e3)" style="fill: #24b4b1; fill-opacity: 0.5"/>
   </g>
   <g id="patch_103">
    <path d="M 80.422642 378 
L 88.825069 378 
L 88.825069 377.414351 
L 80.422642 377.414351 
L 80.422642 378 
z
" clip-path="url(#p5bee9965e3)" style="fill: none"/>
   </g>
   <g id="patch_104">
    <path d="M 88.825069 378 
L 97.227496 378 
L 97.227496 377.594551 
L 88.825069 377.594551 
L 88.825069 378 
z
" clip-path="url(#p5bee9965e3)" style="fill: none"/>
   </g>
   <g id="patch_105">
    <path d="M 97.227496 378 
L 105.629923 378 
L 105.629923 377.77475 
L 97.227496 377.77475 
L 97.227496 378 
z
" clip-path="url(#p5bee9965e3)" style="fill: none"/>
   </g>
   <g id="patch_106">
    <path d="M 105.629923 378 
L 114.03235 378 
L 114.03235 375.792554 
L 105.629923 375.792554 
L 105.629923 378 
z
" clip-path="url(#p5bee9965e3)" style="fill: none"/>
   </g>
   <g id="patch_107">
    <path d="M 114.03235 378 
L 122.434777 378 
L 122.434777 372.548961 
L 114.03235 372.548961 
L 114.03235 378 
z
" clip-path="url(#p5bee9965e3)" style="fill: none"/>
   </g>
   <g id="patch_108">
    <path d="M 122.434777 378 
L 130.837205 378 
L 130.837205 360.926083 
L 122.434777 360.926083 
L 122.434777 378 
z
" clip-path="url(#p5bee9965e3)" style="fill: none"/>
   </g>
   <g id="patch_109">
    <path d="M 130.837205 378 
L 139.239632 378 
L 139.239632 344.843265 
L 130.837205 344.843265 
L 130.837205 378 
z
" clip-path="url(#p5bee9965e3)" style="fill: none"/>
   </g>
   <g id="patch_110">
    <path d="M 139.239632 378 
L 147.642059 378 
L 147.642059 335.743183 
L 139.239632 335.743183 
L 139.239632 378 
z
" clip-path="url(#p5bee9965e3)" style="fill: none"/>
   </g>
   <g id="patch_111">
    <path d="M 147.642059 378 
L 156.044486 378 
L 156.044486 344.302666 
L 147.642059 344.302666 
L 147.642059 378 
z
" clip-path="url(#p5bee9965e3)" style="fill: none"/>
   </g>
   <g id="patch_112">
    <path d="M 156.044486 378 
L 164.446913 378 
L 164.446913 350.069055 
L 156.044486 350.069055 
L 156.044486 378 
z
" clip-path="url(#p5bee9965e3)" style="fill: none"/>
   </g>
   <g id="patch_113">
    <path d="M 164.446913 378 
L 172.84934 378 
L 172.84934 345.924463 
L 164.446913 345.924463 
L 164.446913 378 
z
" clip-path="url(#p5bee9965e3)" style="fill: none"/>
   </g>
   <g id="patch_114">
    <path d="M 172.84934 378 
L 181.251768 378 
L 181.251768 343.176418 
L 172.84934 343.176418 
L 172.84934 378 
z
" clip-path="url(#p5bee9965e3)" style="fill: none"/>
   </g>
   <g id="patch_115">
    <path d="M 181.251768 378 
L 189.654195 378 
L 189.654195 337.815479 
L 181.251768 337.815479 
L 181.251768 378 
z
" clip-path="url(#p5bee9965e3)" style="fill: none"/>
   </g>
   <g id="patch_116">
    <path d="M 189.654195 378 
L 198.056622 378 
L 198.056622 336.824381 
L 189.654195 336.824381 
L 189.654195 378 
z
" clip-path="url(#p5bee9965e3)" style="fill: none"/>
   </g>
   <g id="patch_117">
    <path d="M 198.056622 378 
L 206.459049 378 
L 206.459049 337.635279 
L 198.056622 337.635279 
L 198.056622 378 
z
" clip-path="url(#p5bee9965e3)" style="fill: none"/>
   </g>
   <g id="patch_118">
    <path d="M 206.459049 378 
L 214.861476 378 
L 214.861476 336.238732 
L 206.459049 336.238732 
L 206.459049 378 
z
" clip-path="url(#p5bee9965e3)" style="fill: none"/>
   </g>
   <g id="patch_119">
    <path d="M 214.861476 378 
L 223.263903 378 
L 223.263903 339.797675 
L 214.861476 339.797675 
L 214.861476 378 
z
" clip-path="url(#p5bee9965e3)" style="fill: none"/>
   </g>
   <g id="patch_120">
    <path d="M 223.263903 378 
L 231.666331 378 
L 231.666331 327.994598 
L 223.263903 327.994598 
L 223.263903 378 
z
" clip-path="url(#p5bee9965e3)" style="fill: none"/>
   </g>
   <g id="patch_121">
    <path d="M 231.666331 378 
L 240.068758 378 
L 240.068758 329.210946 
L 231.666331 329.210946 
L 231.666331 378 
z
" clip-path="url(#p5bee9965e3)" style="fill: none"/>
   </g>
   <g id="patch_122">
    <path d="M 240.068758 378 
L 248.471185 378 
L 248.471185 316.146471 
L 240.068758 316.146471 
L 240.068758 378 
z
" clip-path="url(#p5bee9965e3)" style="fill: none"/>
   </g>
   <g id="patch_123">
    <path d="M 248.471185 378 
L 256.873612 378 
L 256.873612 313.848926 
L 248.471185 313.848926 
L 248.471185 378 
z
" clip-path="url(#p5bee9965e3)" style="fill: none"/>
   </g>
   <g id="patch_124">
    <path d="M 256.873612 378 
L 265.276039 378 
L 265.276039 310.425132 
L 256.873612 310.425132 
L 256.873612 378 
z
" clip-path="url(#p5bee9965e3)" style="fill: none"/>
   </g>
   <g id="patch_125">
    <path d="M 265.276039 378 
L 273.678466 378 
L 273.678466 301.59535 
L 265.276039 301.59535 
L 265.276039 378 
z
" clip-path="url(#p5bee9965e3)" style="fill: none"/>
   </g>
   <g id="patch_126">
    <path d="M 273.678466 378 
L 282.080894 378 
L 282.080894 301.14485 
L 273.678466 301.14485 
L 273.678466 378 
z
" clip-path="url(#p5bee9965e3)" style="fill: none"/>
   </g>
   <g id="patch_127">
    <path d="M 282.080894 378 
L 290.483321 378 
L 290.483321 316.281621 
L 282.080894 316.281621 
L 282.080894 378 
z
" clip-path="url(#p5bee9965e3)" style="fill: none"/>
   </g>
   <g id="patch_128">
    <path d="M 290.483321 378 
L 298.885748 378 
L 298.885748 326.327751 
L 290.483321 326.327751 
L 290.483321 378 
z
" clip-path="url(#p5bee9965e3)" style="fill: none"/>
   </g>
   <g id="patch_129">
    <path d="M 298.885748 378 
L 307.288175 378 
L 307.288175 333.265438 
L 298.885748 333.265438 
L 298.885748 378 
z
" clip-path="url(#p5bee9965e3)" style="fill: none"/>
   </g>
   <g id="patch_130">
    <path d="M 307.288175 378 
L 315.690602 378 
L 315.690602 341.059072 
L 307.288175 341.059072 
L 307.288175 378 
z
" clip-path="url(#p5bee9965e3)" style="fill: none"/>
   </g>
   <g id="patch_131">
    <path d="M 315.690602 378 
L 324.093029 378 
L 324.093029 349.528456 
L 315.690602 349.528456 
L 315.690602 378 
z
" clip-path="url(#p5bee9965e3)" style="fill: none"/>
   </g>
   <g id="patch_132">
    <path d="M 324.093029 378 
L 332.495457 378 
L 332.495457 353.087399 
L 324.093029 353.087399 
L 324.093029 378 
z
" clip-path="url(#p5bee9965e3)" style="fill: none"/>
   </g>
   <g id="patch_133">
    <path d="M 332.495457 378 
L 340.897884 378 
L 340.897884 363.809278 
L 332.495457 363.809278 
L 332.495457 378 
z
" clip-path="url(#p5bee9965e3)" style="fill: none"/>
   </g>
   <g id="patch_134">
    <path d="M 340.897884 378 
L 349.300311 378 
L 349.300311 371.152413 
L 340.897884 371.152413 
L 340.897884 378 
z
" clip-path="url(#p5bee9965e3)" style="fill: none"/>
   </g>
   <g id="patch_135">
    <path d="M 349.300311 378 
L 357.702738 378 
L 357.702738 372.81926 
L 349.300311 372.81926 
L 349.300311 378 
z
" clip-path="url(#p5bee9965e3)" style="fill: none"/>
   </g>
   <g id="patch_136">
    <path d="M 357.702738 378 
L 366.105165 378 
L 366.105165 372.95441 
L 357.702738 372.95441 
L 357.702738 378 
z
" clip-path="url(#p5bee9965e3)" style="fill: none"/>
   </g>
   <g id="patch_137">
    <path d="M 366.105165 378 
L 374.507592 378 
L 374.507592 368.854868 
L 366.105165 368.854868 
L 366.105165 378 
z
" clip-path="url(#p5bee9965e3)" style="fill: none"/>
   </g>
   <g id="patch_138">
    <path d="M 374.507592 378 
L 382.91002 378 
L 382.91002 364.124627 
L 374.507592 364.124627 
L 374.507592 378 
z
" clip-path="url(#p5bee9965e3)" style="fill: none"/>
   </g>
   <g id="patch_139">
    <path d="M 382.91002 378 
L 391.312447 378 
L 391.312447 359.169137 
L 382.91002 359.169137 
L 382.91002 378 
z
" clip-path="url(#p5bee9965e3)" style="fill: none"/>
   </g>
   <g id="patch_140">
    <path d="M 391.312447 378 
L 399.714874 378 
L 399.714874 356.060693 
L 391.312447 356.060693 
L 391.312447 378 
z
" clip-path="url(#p5bee9965e3)" style="fill: none"/>
   </g>
   <g id="patch_141">
    <path d="M 399.714874 378 
L 408.117301 378 
L 408.117301 344.843265 
L 399.714874 344.843265 
L 399.714874 378 
z
" clip-path="url(#p5bee9965e3)" style="fill: none"/>
   </g>
   <g id="patch_142">
    <path d="M 408.117301 378 
L 416.519728 378 
L 416.519728 337.950628 
L 408.117301 337.950628 
L 408.117301 378 
z
" clip-path="url(#p5bee9965e3)" style="fill: none"/>
   </g>
   <g id="patch_143">
    <path d="M 416.519728 378 
L 424.922155 378 
L 424.922155 345.293764 
L 416.519728 345.293764 
L 416.519728 378 
z
" clip-path="url(#p5bee9965e3)" style="fill: none"/>
   </g>
   <g id="patch_144">
    <path d="M 424.922155 378 
L 433.324583 378 
L 433.324583 355.475044 
L 424.922155 355.475044 
L 424.922155 378 
z
" clip-path="url(#p5bee9965e3)" style="fill: none"/>
   </g>
   <g id="patch_145">
    <path d="M 433.324583 378 
L 441.72701 378 
L 441.72701 365.115725 
L 433.324583 365.115725 
L 433.324583 378 
z
" clip-path="url(#p5bee9965e3)" style="fill: none"/>
   </g>
   <g id="patch_146">
    <path d="M 441.72701 378 
L 450.129437 378 
L 450.129437 361.331533 
L 441.72701 361.331533 
L 441.72701 378 
z
" clip-path="url(#p5bee9965e3)" style="fill: none"/>
   </g>
   <g id="patch_147">
    <path d="M 450.129437 378 
L 458.531864 378 
L 458.531864 362.052331 
L 450.129437 362.052331 
L 450.129437 378 
z
" clip-path="url(#p5bee9965e3)" style="fill: none"/>
   </g>
   <g id="patch_148">
    <path d="M 458.531864 378 
L 466.934291 378 
L 466.934291 365.205825 
L 458.531864 365.205825 
L 458.531864 378 
z
" clip-path="url(#p5bee9965e3)" style="fill: none"/>
   </g>
   <g id="patch_149">
    <path d="M 466.934291 378 
L 475.336718 378 
L 475.336718 367.097921 
L 466.934291 367.097921 
L 466.934291 378 
z
" clip-path="url(#p5bee9965e3)" style="fill: none"/>
   </g>
   <g id="patch_150">
    <path d="M 475.336718 378 
L 483.739146 378 
L 483.739146 358.403288 
L 475.336718 358.403288 
L 475.336718 378 
z
" clip-path="url(#p5bee9965e3)" style="fill: none"/>
   </g>
   <g id="patch_151">
    <path d="M 483.739146 378 
L 492.141573 378 
L 492.141573 374.080658 
L 483.739146 374.080658 
L 483.739146 378 
z
" clip-path="url(#p5bee9965e3)" style="fill: none"/>
   </g>
   <g id="patch_152">
    <path d="M 492.141573 378 
L 500.544 378 
L 500.544 377.594551 
L 492.141573 377.594551 
L 492.141573 378 
z
" clip-path="url(#p5bee9965e3)" style="fill: none"/>
   </g>
   <g id="patch_153">
    <path d="M 80.422642 378 
L 88.825069 378 
L 88.825069 377.86485 
L 80.422642 377.86485 
L 80.422642 378 
z
" clip-path="url(#p5bee9965e3)" style="fill: none"/>
   </g>
   <g id="patch_154">
    <path d="M 88.825069 378 
L 97.227496 378 
L 97.227496 378 
L 88.825069 378 
L 88.825069 378 
z
" clip-path="url(#p5bee9965e3)" style="fill: none"/>
   </g>
   <g id="patch_155">
    <path d="M 97.227496 378 
L 105.629923 378 
L 105.629923 377.77475 
L 97.227496 377.77475 
L 97.227496 378 
z
" clip-path="url(#p5bee9965e3)" style="fill: none"/>
   </g>
   <g id="patch_156">
    <path d="M 105.629923 378 
L 114.03235 378 
L 114.03235 376.693553 
L 105.629923 376.693553 
L 105.629923 378 
z
" clip-path="url(#p5bee9965e3)" style="fill: none"/>
   </g>
   <g id="patch_157">
    <path d="M 114.03235 378 
L 122.434777 378 
L 122.434777 375.206905 
L 114.03235 375.206905 
L 114.03235 378 
z
" clip-path="url(#p5bee9965e3)" style="fill: none"/>
   </g>
   <g id="patch_158">
    <path d="M 122.434777 378 
L 130.837205 378 
L 130.837205 370.341515 
L 122.434777 370.341515 
L 122.434777 378 
z
" clip-path="url(#p5bee9965e3)" style="fill: none"/>
   </g>
   <g id="patch_159">
    <path d="M 130.837205 378 
L 139.239632 378 
L 139.239632 363.313729 
L 130.837205 363.313729 
L 130.837205 378 
z
" clip-path="url(#p5bee9965e3)" style="fill: none"/>
   </g>
   <g id="patch_160">
    <path d="M 139.239632 378 
L 147.642059 378 
L 147.642059 358.268139 
L 139.239632 358.268139 
L 139.239632 378 
z
" clip-path="url(#p5bee9965e3)" style="fill: none"/>
   </g>
   <g id="patch_161">
    <path d="M 147.642059 378 
L 156.044486 378 
L 156.044486 363.043429 
L 147.642059 363.043429 
L 147.642059 378 
z
" clip-path="url(#p5bee9965e3)" style="fill: none"/>
   </g>
   <g id="patch_162">
    <path d="M 156.044486 378 
L 164.446913 378 
L 164.446913 364.349877 
L 156.044486 364.349877 
L 156.044486 378 
z
" clip-path="url(#p5bee9965e3)" style="fill: none"/>
   </g>
   <g id="patch_163">
    <path d="M 164.446913 378 
L 172.84934 378 
L 172.84934 363.538978 
L 164.446913 363.538978 
L 164.446913 378 
z
" clip-path="url(#p5bee9965e3)" style="fill: none"/>
   </g>
   <g id="patch_164">
    <path d="M 172.84934 378 
L 181.251768 378 
L 181.251768 361.962231 
L 172.84934 361.962231 
L 172.84934 378 
z
" clip-path="url(#p5bee9965e3)" style="fill: none"/>
   </g>
   <g id="patch_165">
    <path d="M 181.251768 378 
L 189.654195 378 
L 189.654195 359.259237 
L 181.251768 359.259237 
L 181.251768 378 
z
" clip-path="url(#p5bee9965e3)" style="fill: none"/>
   </g>
   <g id="patch_166">
    <path d="M 189.654195 378 
L 198.056622 378 
L 198.056622 361.016183 
L 189.654195 361.016183 
L 189.654195 378 
z
" clip-path="url(#p5bee9965e3)" style="fill: none"/>
   </g>
   <g id="patch_167">
    <path d="M 198.056622 378 
L 206.459049 378 
L 206.459049 359.574586 
L 198.056622 359.574586 
L 198.056622 378 
z
" clip-path="url(#p5bee9965e3)" style="fill: none"/>
   </g>
   <g id="patch_168">
    <path d="M 206.459049 378 
L 214.861476 378 
L 214.861476 359.394386 
L 206.459049 359.394386 
L 206.459049 378 
z
" clip-path="url(#p5bee9965e3)" style="fill: none"/>
   </g>
   <g id="patch_169">
    <path d="M 214.861476 378 
L 223.263903 378 
L 223.263903 358.268139 
L 214.861476 358.268139 
L 214.861476 378 
z
" clip-path="url(#p5bee9965e3)" style="fill: none"/>
   </g>
   <g id="patch_170">
    <path d="M 223.263903 378 
L 231.666331 378 
L 231.666331 357.45724 
L 223.263903 357.45724 
L 223.263903 378 
z
" clip-path="url(#p5bee9965e3)" style="fill: none"/>
   </g>
   <g id="patch_171">
    <path d="M 231.666331 378 
L 240.068758 378 
L 240.068758 354.483946 
L 231.666331 354.483946 
L 231.666331 378 
z
" clip-path="url(#p5bee9965e3)" style="fill: none"/>
   </g>
   <g id="patch_172">
    <path d="M 240.068758 378 
L 248.471185 378 
L 248.471185 351.465602 
L 240.068758 351.465602 
L 240.068758 378 
z
" clip-path="url(#p5bee9965e3)" style="fill: none"/>
   </g>
   <g id="patch_173">
    <path d="M 248.471185 378 
L 256.873612 378 
L 256.873612 349.032907 
L 248.471185 349.032907 
L 248.471185 378 
z
" clip-path="url(#p5bee9965e3)" style="fill: none"/>
   </g>
   <g id="patch_174">
    <path d="M 256.873612 378 
L 265.276039 378 
L 265.276039 346.690311 
L 256.873612 346.690311 
L 256.873612 378 
z
" clip-path="url(#p5bee9965e3)" style="fill: none"/>
   </g>
   <g id="patch_175">
    <path d="M 265.276039 378 
L 273.678466 378 
L 273.678466 343.446718 
L 265.276039 343.446718 
L 265.276039 378 
z
" clip-path="url(#p5bee9965e3)" style="fill: none"/>
   </g>
   <g id="patch_176">
    <path d="M 273.678466 378 
L 282.080894 378 
L 282.080894 342.635819 
L 273.678466 342.635819 
L 273.678466 378 
z
" clip-path="url(#p5bee9965e3)" style="fill: none"/>
   </g>
   <g id="patch_177">
    <path d="M 282.080894 378 
L 290.483321 378 
L 290.483321 349.618556 
L 282.080894 349.618556 
L 282.080894 378 
z
" clip-path="url(#p5bee9965e3)" style="fill: none"/>
   </g>
   <g id="patch_178">
    <path d="M 290.483321 378 
L 298.885748 378 
L 298.885748 356.646342 
L 290.483321 356.646342 
L 290.483321 378 
z
" clip-path="url(#p5bee9965e3)" style="fill: none"/>
   </g>
   <g id="patch_179">
    <path d="M 298.885748 378 
L 307.288175 378 
L 307.288175 358.538438 
L 298.885748 358.538438 
L 298.885748 378 
z
" clip-path="url(#p5bee9965e3)" style="fill: none"/>
   </g>
   <g id="patch_180">
    <path d="M 307.288175 378 
L 315.690602 378 
L 315.690602 359.980035 
L 307.288175 359.980035 
L 307.288175 378 
z
" clip-path="url(#p5bee9965e3)" style="fill: none"/>
   </g>
   <g id="patch_181">
    <path d="M 315.690602 378 
L 324.093029 378 
L 324.093029 363.899378 
L 315.690602 363.899378 
L 315.690602 378 
z
" clip-path="url(#p5bee9965e3)" style="fill: none"/>
   </g>
   <g id="patch_182">
    <path d="M 324.093029 378 
L 332.495457 378 
L 332.495457 366.512272 
L 324.093029 366.512272 
L 324.093029 378 
z
" clip-path="url(#p5bee9965e3)" style="fill: none"/>
   </g>
   <g id="patch_183">
    <path d="M 332.495457 378 
L 340.897884 378 
L 340.897884 372.143511 
L 332.495457 372.143511 
L 332.495457 378 
z
" clip-path="url(#p5bee9965e3)" style="fill: none"/>
   </g>
   <g id="patch_184">
    <path d="M 340.897884 378 
L 349.300311 378 
L 349.300311 375.522255 
L 340.897884 375.522255 
L 340.897884 378 
z
" clip-path="url(#p5bee9965e3)" style="fill: none"/>
   </g>
   <g id="patch_185">
    <path d="M 349.300311 378 
L 357.702738 378 
L 357.702738 376.152954 
L 349.300311 376.152954 
L 349.300311 378 
z
" clip-path="url(#p5bee9965e3)" style="fill: none"/>
   </g>
   <g id="patch_186">
    <path d="M 357.702738 378 
L 366.105165 378 
L 366.105165 374.981656 
L 357.702738 374.981656 
L 357.702738 378 
z
" clip-path="url(#p5bee9965e3)" style="fill: none"/>
   </g>
   <g id="patch_187">
    <path d="M 366.105165 378 
L 374.507592 378 
L 374.507592 374.350957 
L 366.105165 374.350957 
L 366.105165 378 
z
" clip-path="url(#p5bee9965e3)" style="fill: none"/>
   </g>
   <g id="patch_188">
    <path d="M 374.507592 378 
L 382.91002 378 
L 382.91002 370.792014 
L 374.507592 370.792014 
L 374.507592 378 
z
" clip-path="url(#p5bee9965e3)" style="fill: none"/>
   </g>
   <g id="patch_189">
    <path d="M 382.91002 378 
L 391.312447 378 
L 391.312447 371.107363 
L 382.91002 371.107363 
L 382.91002 378 
z
" clip-path="url(#p5bee9965e3)" style="fill: none"/>
   </g>
   <g id="patch_190">
    <path d="M 391.312447 378 
L 399.714874 378 
L 399.714874 367.413271 
L 391.312447 367.413271 
L 391.312447 378 
z
" clip-path="url(#p5bee9965e3)" style="fill: none"/>
   </g>
   <g id="patch_191">
    <path d="M 399.714874 378 
L 408.117301 378 
L 408.117301 363.043429 
L 399.714874 363.043429 
L 399.714874 378 
z
" clip-path="url(#p5bee9965e3)" style="fill: none"/>
   </g>
   <g id="patch_192">
    <path d="M 408.117301 378 
L 416.519728 378 
L 416.519728 361.106283 
L 408.117301 361.106283 
L 408.117301 378 
z
" clip-path="url(#p5bee9965e3)" style="fill: none"/>
   </g>
   <g id="patch_193">
    <path d="M 416.519728 378 
L 424.922155 378 
L 424.922155 363.043429 
L 416.519728 363.043429 
L 416.519728 378 
z
" clip-path="url(#p5bee9965e3)" style="fill: none"/>
   </g>
   <g id="patch_194">
    <path d="M 424.922155 378 
L 433.324583 378 
L 433.324583 367.59347 
L 424.922155 367.59347 
L 424.922155 378 
z
" clip-path="url(#p5bee9965e3)" style="fill: none"/>
   </g>
   <g id="patch_195">
    <path d="M 433.324583 378 
L 441.72701 378 
L 441.72701 372.278661 
L 433.324583 372.278661 
L 433.324583 378 
z
" clip-path="url(#p5bee9965e3)" style="fill: none"/>
   </g>
   <g id="patch_196">
    <path d="M 441.72701 378 
L 450.129437 378 
L 450.129437 370.386565 
L 441.72701 370.386565 
L 441.72701 378 
z
" clip-path="url(#p5bee9965e3)" style="fill: none"/>
   </g>
   <g id="patch_197">
    <path d="M 450.129437 378 
L 458.531864 378 
L 458.531864 369.800916 
L 450.129437 369.800916 
L 450.129437 378 
z
" clip-path="url(#p5bee9965e3)" style="fill: none"/>
   </g>
   <g id="patch_198">
    <path d="M 458.531864 378 
L 466.934291 378 
L 466.934291 372.233611 
L 458.531864 372.233611 
L 458.531864 378 
z
" clip-path="url(#p5bee9965e3)" style="fill: none"/>
   </g>
   <g id="patch_199">
    <path d="M 466.934291 378 
L 475.336718 378 
L 475.336718 372.594011 
L 466.934291 372.594011 
L 466.934291 378 
z
" clip-path="url(#p5bee9965e3)" style="fill: none"/>
   </g>
   <g id="patch_200">
    <path d="M 475.336718 378 
L 483.739146 378 
L 483.739146 368.674668 
L 475.336718 368.674668 
L 475.336718 378 
z
" clip-path="url(#p5bee9965e3)" style="fill: none"/>
   </g>
   <g id="patch_201">
    <path d="M 483.739146 378 
L 492.141573 378 
L 492.141573 376.333153 
L 483.739146 376.333153 
L 483.739146 378 
z
" clip-path="url(#p5bee9965e3)" style="fill: none"/>
   </g>
   <g id="patch_202">
    <path d="M 492.141573 378 
L 500.544 378 
L 500.544 377.86485 
L 492.141573 377.86485 
L 492.141573 378 
z
" clip-path="url(#p5bee9965e3)" style="fill: none"/>
   </g>
   <g id="matplotlib.axis_1">
    <g id="xtick_1">
     <g id="line2d_1">
      <defs>
       <path id="m9b7a2c9045" d="M 0 0 
L 0 3.5 
" style="stroke: #000000; stroke-width: 0.8"/>
      </defs>
      <g>
       <use xlink:href="#m9b7a2c9045" x="72" y="378" style="stroke: #000000; stroke-width: 0.8"/>
      </g>
     </g>
     <g id="text_1">
      <!-- 0.00 -->
      <g transform="translate(60.867188 392.598437)scale(0.1 -0.1)">
       <defs>
        <path id="DejaVuSans-30" d="M 2034 4250 
Q 1547 4250 1301 3770 
Q 1056 3291 1056 2328 
Q 1056 1369 1301 889 
Q 1547 409 2034 409 
Q 2525 409 2770 889 
Q 3016 1369 3016 2328 
Q 3016 3291 2770 3770 
Q 2525 4250 2034 4250 
z
M 2034 4750 
Q 2819 4750 3233 4129 
Q 3647 3509 3647 2328 
Q 3647 1150 3233 529 
Q 2819 -91 2034 -91 
Q 1250 -91 836 529 
Q 422 1150 422 2328 
Q 422 3509 836 4129 
Q 1250 4750 2034 4750 
z
" transform="scale(0.015625)"/>
        <path id="DejaVuSans-2e" d="M 684 794 
L 1344 794 
L 1344 0 
L 684 0 
L 684 794 
z
" transform="scale(0.015625)"/>
       </defs>
       <use xlink:href="#DejaVuSans-30"/>
       <use xlink:href="#DejaVuSans-2e" x="63.623047"/>
       <use xlink:href="#DejaVuSans-30" x="95.410156"/>
       <use xlink:href="#DejaVuSans-30" x="159.033203"/>
      </g>
     </g>
    </g>
    <g id="xtick_2">
     <g id="line2d_2">
      <g>
       <use xlink:href="#m9b7a2c9045" x="183.6" y="378" style="stroke: #000000; stroke-width: 0.8"/>
      </g>
     </g>
     <g id="text_2">
      <!-- 0.25 -->
      <g transform="translate(172.467187 392.598437)scale(0.1 -0.1)">
       <defs>
        <path id="DejaVuSans-32" d="M 1228 531 
L 3431 531 
L 3431 0 
L 469 0 
L 469 531 
Q 828 903 1448 1529 
Q 2069 2156 2228 2338 
Q 2531 2678 2651 2914 
Q 2772 3150 2772 3378 
Q 2772 3750 2511 3984 
Q 2250 4219 1831 4219 
Q 1534 4219 1204 4116 
Q 875 4013 500 3803 
L 500 4441 
Q 881 4594 1212 4672 
Q 1544 4750 1819 4750 
Q 2544 4750 2975 4387 
Q 3406 4025 3406 3419 
Q 3406 3131 3298 2873 
Q 3191 2616 2906 2266 
Q 2828 2175 2409 1742 
Q 1991 1309 1228 531 
z
" transform="scale(0.015625)"/>
        <path id="DejaVuSans-35" d="M 691 4666 
L 3169 4666 
L 3169 4134 
L 1269 4134 
L 1269 2991 
Q 1406 3038 1543 3061 
Q 1681 3084 1819 3084 
Q 2600 3084 3056 2656 
Q 3513 2228 3513 1497 
Q 3513 744 3044 326 
Q 2575 -91 1722 -91 
Q 1428 -91 1123 -41 
Q 819 9 494 109 
L 494 744 
Q 775 591 1075 516 
Q 1375 441 1709 441 
Q 2250 441 2565 725 
Q 2881 1009 2881 1497 
Q 2881 1984 2565 2268 
Q 2250 2553 1709 2553 
Q 1456 2553 1204 2497 
Q 953 2441 691 2322 
L 691 4666 
z
" transform="scale(0.015625)"/>
       </defs>
       <use xlink:href="#DejaVuSans-30"/>
       <use xlink:href="#DejaVuSans-2e" x="63.623047"/>
       <use xlink:href="#DejaVuSans-32" x="95.410156"/>
       <use xlink:href="#DejaVuSans-35" x="159.033203"/>
      </g>
     </g>
    </g>
    <g id="xtick_3">
     <g id="line2d_3">
      <g>
       <use xlink:href="#m9b7a2c9045" x="295.2" y="378" style="stroke: #000000; stroke-width: 0.8"/>
      </g>
     </g>
     <g id="text_3">
      <!-- 0.50 -->
      <g transform="translate(284.067187 392.598437)scale(0.1 -0.1)">
       <use xlink:href="#DejaVuSans-30"/>
       <use xlink:href="#DejaVuSans-2e" x="63.623047"/>
       <use xlink:href="#DejaVuSans-35" x="95.410156"/>
       <use xlink:href="#DejaVuSans-30" x="159.033203"/>
      </g>
     </g>
    </g>
    <g id="xtick_4">
     <g id="line2d_4">
      <g>
       <use xlink:href="#m9b7a2c9045" x="406.8" y="378" style="stroke: #000000; stroke-width: 0.8"/>
      </g>
     </g>
     <g id="text_4">
      <!-- 0.75 -->
      <g transform="translate(395.667187 392.598437)scale(0.1 -0.1)">
       <defs>
        <path id="DejaVuSans-37" d="M 525 4666 
L 3525 4666 
L 3525 4397 
L 1831 0 
L 1172 0 
L 2766 4134 
L 525 4134 
L 525 4666 
z
" transform="scale(0.015625)"/>
       </defs>
       <use xlink:href="#DejaVuSans-30"/>
       <use xlink:href="#DejaVuSans-2e" x="63.623047"/>
       <use xlink:href="#DejaVuSans-37" x="95.410156"/>
       <use xlink:href="#DejaVuSans-35" x="159.033203"/>
      </g>
     </g>
    </g>
    <g id="xtick_5">
     <g id="line2d_5">
      <g>
       <use xlink:href="#m9b7a2c9045" x="518.4" y="378" style="stroke: #000000; stroke-width: 0.8"/>
      </g>
     </g>
     <g id="text_5">
      <!-- 1.00 -->
      <g transform="translate(507.267187 392.598437)scale(0.1 -0.1)">
       <defs>
        <path id="DejaVuSans-31" d="M 794 531 
L 1825 531 
L 1825 4091 
L 703 3866 
L 703 4441 
L 1819 4666 
L 2450 4666 
L 2450 531 
L 3481 531 
L 3481 0 
L 794 0 
L 794 531 
z
" transform="scale(0.015625)"/>
       </defs>
       <use xlink:href="#DejaVuSans-31"/>
       <use xlink:href="#DejaVuSans-2e" x="63.623047"/>
       <use xlink:href="#DejaVuSans-30" x="95.410156"/>
       <use xlink:href="#DejaVuSans-30" x="159.033203"/>
      </g>
     </g>
    </g>
    <g id="text_6">
     <!-- ratio_roeske -->
     <g transform="translate(264.697656 406.276563)scale(0.1 -0.1)">
      <defs>
       <path id="DejaVuSans-72" d="M 2631 2963 
Q 2534 3019 2420 3045 
Q 2306 3072 2169 3072 
Q 1681 3072 1420 2755 
Q 1159 2438 1159 1844 
L 1159 0 
L 581 0 
L 581 3500 
L 1159 3500 
L 1159 2956 
Q 1341 3275 1631 3429 
Q 1922 3584 2338 3584 
Q 2397 3584 2469 3576 
Q 2541 3569 2628 3553 
L 2631 2963 
z
" transform="scale(0.015625)"/>
       <path id="DejaVuSans-61" d="M 2194 1759 
Q 1497 1759 1228 1600 
Q 959 1441 959 1056 
Q 959 750 1161 570 
Q 1363 391 1709 391 
Q 2188 391 2477 730 
Q 2766 1069 2766 1631 
L 2766 1759 
L 2194 1759 
z
M 3341 1997 
L 3341 0 
L 2766 0 
L 2766 531 
Q 2569 213 2275 61 
Q 1981 -91 1556 -91 
Q 1019 -91 701 211 
Q 384 513 384 1019 
Q 384 1609 779 1909 
Q 1175 2209 1959 2209 
L 2766 2209 
L 2766 2266 
Q 2766 2663 2505 2880 
Q 2244 3097 1772 3097 
Q 1472 3097 1187 3025 
Q 903 2953 641 2809 
L 641 3341 
Q 956 3463 1253 3523 
Q 1550 3584 1831 3584 
Q 2591 3584 2966 3190 
Q 3341 2797 3341 1997 
z
" transform="scale(0.015625)"/>
       <path id="DejaVuSans-74" d="M 1172 4494 
L 1172 3500 
L 2356 3500 
L 2356 3053 
L 1172 3053 
L 1172 1153 
Q 1172 725 1289 603 
Q 1406 481 1766 481 
L 2356 481 
L 2356 0 
L 1766 0 
Q 1100 0 847 248 
Q 594 497 594 1153 
L 594 3053 
L 172 3053 
L 172 3500 
L 594 3500 
L 594 4494 
L 1172 4494 
z
" transform="scale(0.015625)"/>
       <path id="DejaVuSans-69" d="M 603 3500 
L 1178 3500 
L 1178 0 
L 603 0 
L 603 3500 
z
M 603 4863 
L 1178 4863 
L 1178 4134 
L 603 4134 
L 603 4863 
z
" transform="scale(0.015625)"/>
       <path id="DejaVuSans-6f" d="M 1959 3097 
Q 1497 3097 1228 2736 
Q 959 2375 959 1747 
Q 959 1119 1226 758 
Q 1494 397 1959 397 
Q 2419 397 2687 759 
Q 2956 1122 2956 1747 
Q 2956 2369 2687 2733 
Q 2419 3097 1959 3097 
z
M 1959 3584 
Q 2709 3584 3137 3096 
Q 3566 2609 3566 1747 
Q 3566 888 3137 398 
Q 2709 -91 1959 -91 
Q 1206 -91 779 398 
Q 353 888 353 1747 
Q 353 2609 779 3096 
Q 1206 3584 1959 3584 
z
" transform="scale(0.015625)"/>
       <path id="DejaVuSans-5f" d="M 3263 -1063 
L 3263 -1509 
L -63 -1509 
L -63 -1063 
L 3263 -1063 
z
" transform="scale(0.015625)"/>
       <path id="DejaVuSans-65" d="M 3597 1894 
L 3597 1613 
L 953 1613 
Q 991 1019 1311 708 
Q 1631 397 2203 397 
Q 2534 397 2845 478 
Q 3156 559 3463 722 
L 3463 178 
Q 3153 47 2828 -22 
Q 2503 -91 2169 -91 
Q 1331 -91 842 396 
Q 353 884 353 1716 
Q 353 2575 817 3079 
Q 1281 3584 2069 3584 
Q 2775 3584 3186 3129 
Q 3597 2675 3597 1894 
z
M 3022 2063 
Q 3016 2534 2758 2815 
Q 2500 3097 2075 3097 
Q 1594 3097 1305 2825 
Q 1016 2553 972 2059 
L 3022 2063 
z
" transform="scale(0.015625)"/>
       <path id="DejaVuSans-73" d="M 2834 3397 
L 2834 2853 
Q 2591 2978 2328 3040 
Q 2066 3103 1784 3103 
Q 1356 3103 1142 2972 
Q 928 2841 928 2578 
Q 928 2378 1081 2264 
Q 1234 2150 1697 2047 
L 1894 2003 
Q 2506 1872 2764 1633 
Q 3022 1394 3022 966 
Q 3022 478 2636 193 
Q 2250 -91 1575 -91 
Q 1294 -91 989 -36 
Q 684 19 347 128 
L 347 722 
Q 666 556 975 473 
Q 1284 391 1588 391 
Q 1994 391 2212 530 
Q 2431 669 2431 922 
Q 2431 1156 2273 1281 
Q 2116 1406 1581 1522 
L 1381 1569 
Q 847 1681 609 1914 
Q 372 2147 372 2553 
Q 372 3047 722 3315 
Q 1072 3584 1716 3584 
Q 2034 3584 2315 3537 
Q 2597 3491 2834 3397 
z
" transform="scale(0.015625)"/>
       <path id="DejaVuSans-6b" d="M 581 4863 
L 1159 4863 
L 1159 1991 
L 2875 3500 
L 3609 3500 
L 1753 1863 
L 3688 0 
L 2938 0 
L 1159 1709 
L 1159 0 
L 581 0 
L 581 4863 
z
" transform="scale(0.015625)"/>
      </defs>
      <use xlink:href="#DejaVuSans-72"/>
      <use xlink:href="#DejaVuSans-61" x="41.113281"/>
      <use xlink:href="#DejaVuSans-74" x="102.392578"/>
      <use xlink:href="#DejaVuSans-69" x="141.601562"/>
      <use xlink:href="#DejaVuSans-6f" x="169.384766"/>
      <use xlink:href="#DejaVuSans-5f" x="230.566406"/>
      <use xlink:href="#DejaVuSans-72" x="280.566406"/>
      <use xlink:href="#DejaVuSans-6f" x="319.429688"/>
      <use xlink:href="#DejaVuSans-65" x="380.611328"/>
      <use xlink:href="#DejaVuSans-73" x="442.134766"/>
      <use xlink:href="#DejaVuSans-6b" x="494.234375"/>
      <use xlink:href="#DejaVuSans-65" x="548.519531"/>
     </g>
    </g>
   </g>
   <g id="matplotlib.axis_2">
    <g id="ytick_1">
     <g id="line2d_6">
      <defs>
       <path id="m2967dea09c" d="M 0 0 
L -3.5 0 
" style="stroke: #000000; stroke-width: 0.8"/>
      </defs>
      <g>
       <use xlink:href="#m2967dea09c" x="72" y="378" style="stroke: #000000; stroke-width: 0.8"/>
      </g>
     </g>
     <g id="text_7">
      <!-- 0 -->
      <g transform="translate(58.6375 381.799219)scale(0.1 -0.1)">
       <use xlink:href="#DejaVuSans-30"/>
      </g>
     </g>
    </g>
    <g id="ytick_2">
     <g id="line2d_7">
      <g>
       <use xlink:href="#m2967dea09c" x="72" y="338.536867" style="stroke: #000000; stroke-width: 0.8"/>
      </g>
     </g>
     <g id="text_8">
      <!-- 1 -->
      <g transform="translate(58.6375 342.336086)scale(0.1 -0.1)">
       <use xlink:href="#DejaVuSans-31"/>
      </g>
     </g>
    </g>
    <g id="ytick_3">
     <g id="line2d_8">
      <g>
       <use xlink:href="#m2967dea09c" x="72" y="299.073734" style="stroke: #000000; stroke-width: 0.8"/>
      </g>
     </g>
     <g id="text_9">
      <!-- 2 -->
      <g transform="translate(58.6375 302.872952)scale(0.1 -0.1)">
       <use xlink:href="#DejaVuSans-32"/>
      </g>
     </g>
    </g>
    <g id="ytick_4">
     <g id="line2d_9">
      <g>
       <use xlink:href="#m2967dea09c" x="72" y="259.6106" style="stroke: #000000; stroke-width: 0.8"/>
      </g>
     </g>
     <g id="text_10">
      <!-- 3 -->
      <g transform="translate(58.6375 263.409819)scale(0.1 -0.1)">
       <defs>
        <path id="DejaVuSans-33" d="M 2597 2516 
Q 3050 2419 3304 2112 
Q 3559 1806 3559 1356 
Q 3559 666 3084 287 
Q 2609 -91 1734 -91 
Q 1441 -91 1130 -33 
Q 819 25 488 141 
L 488 750 
Q 750 597 1062 519 
Q 1375 441 1716 441 
Q 2309 441 2620 675 
Q 2931 909 2931 1356 
Q 2931 1769 2642 2001 
Q 2353 2234 1838 2234 
L 1294 2234 
L 1294 2753 
L 1863 2753 
Q 2328 2753 2575 2939 
Q 2822 3125 2822 3475 
Q 2822 3834 2567 4026 
Q 2313 4219 1838 4219 
Q 1578 4219 1281 4162 
Q 984 4106 628 3988 
L 628 4550 
Q 988 4650 1302 4700 
Q 1616 4750 1894 4750 
Q 2613 4750 3031 4423 
Q 3450 4097 3450 3541 
Q 3450 3153 3228 2886 
Q 3006 2619 2597 2516 
z
" transform="scale(0.015625)"/>
       </defs>
       <use xlink:href="#DejaVuSans-33"/>
      </g>
     </g>
    </g>
    <g id="ytick_5">
     <g id="line2d_10">
      <g>
       <use xlink:href="#m2967dea09c" x="72" y="220.147467" style="stroke: #000000; stroke-width: 0.8"/>
      </g>
     </g>
     <g id="text_11">
      <!-- 4 -->
      <g transform="translate(58.6375 223.946686)scale(0.1 -0.1)">
       <defs>
        <path id="DejaVuSans-34" d="M 2419 4116 
L 825 1625 
L 2419 1625 
L 2419 4116 
z
M 2253 4666 
L 3047 4666 
L 3047 1625 
L 3713 1625 
L 3713 1100 
L 3047 1100 
L 3047 0 
L 2419 0 
L 2419 1100 
L 313 1100 
L 313 1709 
L 2253 4666 
z
" transform="scale(0.015625)"/>
       </defs>
       <use xlink:href="#DejaVuSans-34"/>
      </g>
     </g>
    </g>
    <g id="ytick_6">
     <g id="line2d_11">
      <g>
       <use xlink:href="#m2967dea09c" x="72" y="180.684334" style="stroke: #000000; stroke-width: 0.8"/>
      </g>
     </g>
     <g id="text_12">
      <!-- 5 -->
      <g transform="translate(58.6375 184.483553)scale(0.1 -0.1)">
       <use xlink:href="#DejaVuSans-35"/>
      </g>
     </g>
    </g>
    <g id="ytick_7">
     <g id="line2d_12">
      <g>
       <use xlink:href="#m2967dea09c" x="72" y="141.221201" style="stroke: #000000; stroke-width: 0.8"/>
      </g>
     </g>
     <g id="text_13">
      <!-- 6 -->
      <g transform="translate(58.6375 145.02042)scale(0.1 -0.1)">
       <defs>
        <path id="DejaVuSans-36" d="M 2113 2584 
Q 1688 2584 1439 2293 
Q 1191 2003 1191 1497 
Q 1191 994 1439 701 
Q 1688 409 2113 409 
Q 2538 409 2786 701 
Q 3034 994 3034 1497 
Q 3034 2003 2786 2293 
Q 2538 2584 2113 2584 
z
M 3366 4563 
L 3366 3988 
Q 3128 4100 2886 4159 
Q 2644 4219 2406 4219 
Q 1781 4219 1451 3797 
Q 1122 3375 1075 2522 
Q 1259 2794 1537 2939 
Q 1816 3084 2150 3084 
Q 2853 3084 3261 2657 
Q 3669 2231 3669 1497 
Q 3669 778 3244 343 
Q 2819 -91 2113 -91 
Q 1303 -91 875 529 
Q 447 1150 447 2328 
Q 447 3434 972 4092 
Q 1497 4750 2381 4750 
Q 2619 4750 2861 4703 
Q 3103 4656 3366 4563 
z
" transform="scale(0.015625)"/>
       </defs>
       <use xlink:href="#DejaVuSans-36"/>
      </g>
     </g>
    </g>
    <g id="ytick_8">
     <g id="line2d_13">
      <g>
       <use xlink:href="#m2967dea09c" x="72" y="101.758068" style="stroke: #000000; stroke-width: 0.8"/>
      </g>
     </g>
     <g id="text_14">
      <!-- 7 -->
      <g transform="translate(58.6375 105.557287)scale(0.1 -0.1)">
       <use xlink:href="#DejaVuSans-37"/>
      </g>
     </g>
    </g>
    <g id="ytick_9">
     <g id="line2d_14">
      <g>
       <use xlink:href="#m2967dea09c" x="72" y="62.294935" style="stroke: #000000; stroke-width: 0.8"/>
      </g>
     </g>
     <g id="text_15">
      <!-- 8 -->
      <g transform="translate(58.6375 66.094153)scale(0.1 -0.1)">
       <defs>
        <path id="DejaVuSans-38" d="M 2034 2216 
Q 1584 2216 1326 1975 
Q 1069 1734 1069 1313 
Q 1069 891 1326 650 
Q 1584 409 2034 409 
Q 2484 409 2743 651 
Q 3003 894 3003 1313 
Q 3003 1734 2745 1975 
Q 2488 2216 2034 2216 
z
M 1403 2484 
Q 997 2584 770 2862 
Q 544 3141 544 3541 
Q 544 4100 942 4425 
Q 1341 4750 2034 4750 
Q 2731 4750 3128 4425 
Q 3525 4100 3525 3541 
Q 3525 3141 3298 2862 
Q 3072 2584 2669 2484 
Q 3125 2378 3379 2068 
Q 3634 1759 3634 1313 
Q 3634 634 3220 271 
Q 2806 -91 2034 -91 
Q 1263 -91 848 271 
Q 434 634 434 1313 
Q 434 1759 690 2068 
Q 947 2378 1403 2484 
z
M 1172 3481 
Q 1172 3119 1398 2916 
Q 1625 2713 2034 2713 
Q 2441 2713 2670 2916 
Q 2900 3119 2900 3481 
Q 2900 3844 2670 4047 
Q 2441 4250 2034 4250 
Q 1625 4250 1398 4047 
Q 1172 3844 1172 3481 
z
" transform="scale(0.015625)"/>
       </defs>
       <use xlink:href="#DejaVuSans-38"/>
      </g>
     </g>
    </g>
    <g id="text_16">
     <!-- Density -->
     <g transform="translate(52.557812 233.928594)rotate(-90)scale(0.1 -0.1)">
      <defs>
       <path id="DejaVuSans-44" d="M 1259 4147 
L 1259 519 
L 2022 519 
Q 2988 519 3436 956 
Q 3884 1394 3884 2338 
Q 3884 3275 3436 3711 
Q 2988 4147 2022 4147 
L 1259 4147 
z
M 628 4666 
L 1925 4666 
Q 3281 4666 3915 4102 
Q 4550 3538 4550 2338 
Q 4550 1131 3912 565 
Q 3275 0 1925 0 
L 628 0 
L 628 4666 
z
" transform="scale(0.015625)"/>
       <path id="DejaVuSans-6e" d="M 3513 2113 
L 3513 0 
L 2938 0 
L 2938 2094 
Q 2938 2591 2744 2837 
Q 2550 3084 2163 3084 
Q 1697 3084 1428 2787 
Q 1159 2491 1159 1978 
L 1159 0 
L 581 0 
L 581 3500 
L 1159 3500 
L 1159 2956 
Q 1366 3272 1645 3428 
Q 1925 3584 2291 3584 
Q 2894 3584 3203 3211 
Q 3513 2838 3513 2113 
z
" transform="scale(0.015625)"/>
       <path id="DejaVuSans-79" d="M 2059 -325 
Q 1816 -950 1584 -1140 
Q 1353 -1331 966 -1331 
L 506 -1331 
L 506 -850 
L 844 -850 
Q 1081 -850 1212 -737 
Q 1344 -625 1503 -206 
L 1606 56 
L 191 3500 
L 800 3500 
L 1894 763 
L 2988 3500 
L 3597 3500 
L 2059 -325 
z
" transform="scale(0.015625)"/>
      </defs>
      <use xlink:href="#DejaVuSans-44"/>
      <use xlink:href="#DejaVuSans-65" x="77.001953"/>
      <use xlink:href="#DejaVuSans-6e" x="138.525391"/>
      <use xlink:href="#DejaVuSans-73" x="201.904297"/>
      <use xlink:href="#DejaVuSans-69" x="254.003906"/>
      <use xlink:href="#DejaVuSans-74" x="281.787109"/>
      <use xlink:href="#DejaVuSans-79" x="320.996094"/>
     </g>
    </g>
   </g>
   <g id="line2d_15">
    <path d="M 189.101484 376.325382 
L 190.380261 375.535054 
L 191.659038 374.464115 
L 192.937815 373.051174 
L 194.216591 371.233584 
L 195.495368 368.950645 
L 196.774145 366.147147 
L 198.052921 362.777239 
L 199.331698 358.808696 
L 200.610475 354.227594 
L 202.52864 346.235064 
L 204.446805 337.042125 
L 207.004358 323.460235 
L 212.119465 295.753518 
L 214.03763 286.410367 
L 215.955795 277.967128 
L 217.87396 270.463417 
L 219.792125 263.903246 
L 221.71029 258.294082 
L 223.628455 253.620694 
L 225.54662 249.778267 
L 227.464785 246.524183 
L 231.301116 240.26341 
L 232.579892 237.80471 
L 233.858669 234.983718 
L 235.137446 231.718524 
L 236.416222 227.943679 
L 237.694999 223.610975 
L 238.973776 218.693486 
L 240.891941 210.236199 
L 242.810106 200.661344 
L 248.564601 170.800312 
L 249.843378 165.453518 
L 251.122154 161.089847 
L 252.400931 157.886091 
L 253.040319 156.761075 
L 253.679708 155.970129 
L 254.319096 155.521675 
L 254.958485 155.421365 
L 255.597873 155.672259 
L 256.237261 156.274991 
L 256.87665 157.227922 
L 257.516038 158.527256 
L 258.155426 160.16713 
L 259.434203 164.435034 
L 260.71298 169.945189 
L 261.991756 176.580793 
L 263.270533 184.196945 
L 265.188698 197.08611 
L 267.746252 216.015267 
L 272.861358 254.538402 
L 275.418912 272.189364 
L 277.976465 288.317329 
L 280.534019 303.044749 
L 283.091572 316.535225 
L 285.649125 328.774851 
L 287.56729 336.998634 
L 289.485455 344.25116 
L 291.403621 350.426416 
L 292.682397 353.932251 
L 293.961174 356.974848 
L 295.239951 359.601857 
L 297.158116 362.904727 
L 299.076281 365.647159 
L 300.994446 368.010344 
L 302.912611 370.077829 
L 304.830776 371.838967 
L 306.748941 373.237625 
L 308.027718 373.947397 
L 309.306494 374.480718 
L 311.224659 374.992388 
L 313.142824 375.25967 
L 316.339766 375.525312 
L 316.339766 375.525312 
" clip-path="url(#p5bee9965e3)" style="fill: none; stroke: #a5e10f; stroke-width: 1.5; stroke-linecap: square"/>
   </g>
   <g id="line2d_16">
    <path d="M 189.101484 370.546694 
L 191.01965 367.827383 
L 192.937815 364.632564 
L 194.216591 362.127751 
L 195.495368 359.168281 
L 196.774145 355.555587 
L 198.052921 351.053212 
L 199.331698 345.43154 
L 200.610475 338.52411 
L 201.889251 330.274467 
L 203.168028 320.756538 
L 205.086193 304.557624 
L 210.840688 253.24778 
L 212.119465 243.719969 
L 213.398242 235.377554 
L 214.677018 228.192599 
L 215.955795 222.047678 
L 217.234572 216.83231 
L 218.513349 212.526811 
L 219.792125 209.230314 
L 220.431514 208.0157 
L 221.070902 207.123683 
L 221.71029 206.57786 
L 222.349679 206.398663 
L 222.989067 206.602778 
L 223.628455 207.203511 
L 224.267844 208.211925 
L 224.907232 209.63839 
L 225.54662 211.494064 
L 226.186009 213.79182 
L 227.464785 219.772034 
L 228.743562 227.682967 
L 230.022339 237.53074 
L 231.301116 249.10097 
L 236.416222 299.394868 
L 237.694999 309.195646 
L 238.973776 317.150373 
L 240.252552 323.478516 
L 241.531329 328.603848 
L 243.449494 335.044691 
L 250.482766 356.77057 
L 252.400931 361.954478 
L 253.679708 364.913757 
L 254.958485 367.398864 
L 256.237261 369.384913 
L 257.516038 370.888012 
L 258.794815 371.966792 
L 260.073591 372.71856 
L 261.991756 373.501733 
L 265.188698 374.753504 
L 270.303805 377.018107 
L 272.22197 377.528746 
L 274.140135 377.808498 
L 276.697688 377.955659 
L 283.091572 377.999695 
L 316.339766 378 
L 316.339766 378 
" clip-path="url(#p5bee9965e3)" style="fill: none; stroke: #24b4b1; stroke-width: 1.5; stroke-linecap: square"/>
   </g>
   <g id="line2d_17">
    <path d="M 80.422642 377.721434 
L 90.978455 377.407125 
L 95.20078 377.1246 
L 99.423105 376.620621 
L 103.64543 375.758926 
L 105.756593 375.142857 
L 107.867755 374.373313 
L 109.978918 373.427545 
L 112.090081 372.284475 
L 114.201243 370.927005 
L 116.312406 369.344893 
L 118.423568 367.53787 
L 120.534731 365.518559 
L 124.757056 360.969478 
L 131.090544 353.725799 
L 133.201707 351.494696 
L 135.312869 349.481385 
L 137.424032 347.74754 
L 139.535194 346.337231 
L 141.646357 345.272877 
L 143.75752 344.553311 
L 145.868682 344.154214 
L 147.979845 344.030861 
L 150.091007 344.122872 
L 154.313333 344.670951 
L 158.535658 345.246987 
L 160.646821 345.40865 
L 162.757983 345.441797 
L 164.869146 345.333007 
L 166.980308 345.083059 
L 171.202634 344.216393 
L 175.424959 343.016455 
L 183.869609 340.439255 
L 188.091934 339.386703 
L 192.31426 338.600019 
L 196.536585 338.059472 
L 209.20356 336.775349 
L 213.425886 335.961189 
L 217.648211 334.737529 
L 221.870536 333.051079 
L 226.092861 330.928182 
L 230.315186 328.461825 
L 236.648674 324.386174 
L 247.204487 317.466686 
L 253.537975 313.620981 
L 257.7603 311.302919 
L 261.982626 309.32915 
L 264.093788 308.543245 
L 266.204951 307.941773 
L 268.316113 307.565942 
L 270.427276 307.454933 
L 272.538439 307.641337 
L 274.649601 308.146832 
L 276.760764 308.9788 
L 278.871926 310.128473 
L 280.983089 311.570966 
L 283.094252 313.267271 
L 287.316577 317.218069 
L 302.094715 332.070987 
L 308.428203 337.797244 
L 333.762154 359.867388 
L 337.984479 363.227691 
L 340.095642 364.749671 
L 342.206805 366.133294 
L 344.317967 367.357309 
L 346.42913 368.405005 
L 348.540292 369.265021 
L 350.651455 369.931474 
L 352.762618 370.403504 
L 354.87378 370.684421 
L 356.984943 370.780711 
L 359.096105 370.701119 
L 361.207268 370.455942 
L 363.318431 370.056589 
L 365.429593 369.515337 
L 369.651918 368.0596 
L 373.874244 366.196621 
L 378.096569 364.028271 
L 382.318894 361.632539 
L 388.652382 357.707761 
L 401.319358 349.499084 
L 403.43052 348.361181 
L 405.541683 347.400144 
L 407.652845 346.663137 
L 409.764008 346.191867 
L 411.875171 346.017917 
L 413.986333 346.158725 
L 416.097496 346.614814 
L 418.208658 347.368697 
L 420.319821 348.385653 
L 422.430984 349.616255 
L 426.653309 352.471982 
L 430.875634 355.416898 
L 432.986797 356.776004 
L 435.097959 358.002335 
L 437.209122 359.071054 
L 439.320284 359.972799 
L 441.431447 360.712666 
L 443.54261 361.307698 
L 447.764935 362.168326 
L 454.098423 363.044055 
L 473.098886 365.393682 
L 475.210049 365.846292 
L 477.321211 366.413745 
L 479.432374 367.107531 
L 483.654699 368.854648 
L 496.321675 374.793313 
L 498.432837 375.525982 
L 500.544 376.137584 
L 500.544 376.137584 
" clip-path="url(#p5bee9965e3)" style="fill: none; stroke-dasharray: 5.55,2.4; stroke-dashoffset: 0; stroke: #a5e10f; stroke-width: 1.5"/>
   </g>
   <g id="line2d_18">
    <path d="M 80.422642 377.904337 
L 88.867292 377.735369 
L 95.20078 377.432709 
L 99.423105 377.080871 
L 103.64543 376.554417 
L 107.867755 375.802318 
L 112.090081 374.780169 
L 116.312406 373.466169 
L 120.534731 371.8801 
L 126.868219 369.172086 
L 133.201707 366.504719 
L 137.424032 365.023905 
L 141.646357 363.922176 
L 145.868682 363.231832 
L 150.091007 362.895694 
L 156.424495 362.776184 
L 164.869146 362.624021 
L 171.202634 362.211584 
L 196.536585 360.053484 
L 207.092398 359.209228 
L 213.425886 358.510556 
L 219.759373 357.59605 
L 226.092861 356.410225 
L 232.426349 354.940613 
L 240.871 352.652749 
L 253.537975 349.110301 
L 257.7603 348.087788 
L 261.982626 347.261594 
L 266.204951 346.732777 
L 268.316113 346.61411 
L 270.427276 346.60938 
L 272.538439 346.728257 
L 274.649601 346.976674 
L 276.760764 347.355854 
L 278.871926 347.861708 
L 283.094252 349.210441 
L 287.316577 350.893646 
L 302.094715 357.239344 
L 312.650528 361.261515 
L 321.095179 364.577772 
L 333.762154 369.67346 
L 337.984479 371.164008 
L 342.206805 372.425746 
L 346.42913 373.400956 
L 350.651455 374.056194 
L 354.87378 374.384553 
L 359.096105 374.402186 
L 363.318431 374.141322 
L 367.540756 373.64266 
L 371.763081 372.948825 
L 378.096569 371.626758 
L 384.430057 370.060472 
L 401.319358 365.667965 
L 405.541683 364.919555 
L 409.764008 364.506989 
L 413.986333 364.492738 
L 418.208658 364.880547 
L 422.430984 365.607415 
L 428.764471 367.065715 
L 435.097959 368.538594 
L 439.320284 369.346757 
L 443.54261 369.967774 
L 449.876097 370.598164 
L 458.320748 371.137247 
L 468.876561 371.810862 
L 475.210049 372.465375 
L 481.543537 373.44546 
L 500.544 376.886843 
L 500.544 376.886843 
" clip-path="url(#p5bee9965e3)" style="fill: none; stroke-dasharray: 5.55,2.4; stroke-dashoffset: 0; stroke: #24b4b1; stroke-width: 1.5"/>
   </g>
   <g id="patch_203">
    <path d="M 72 378 
L 72 51.84 
" style="fill: none; stroke: #000000; stroke-width: 0.8; stroke-linejoin: miter; stroke-linecap: square"/>
   </g>
   <g id="patch_204">
    <path d="M 518.4 378 
L 518.4 51.84 
" style="fill: none; stroke: #000000; stroke-width: 0.8; stroke-linejoin: miter; stroke-linecap: square"/>
   </g>
   <g id="patch_205">
    <path d="M 72 378 
L 518.4 378 
" style="fill: none; stroke: #000000; stroke-width: 0.8; stroke-linejoin: miter; stroke-linecap: square"/>
   </g>
   <g id="patch_206">
    <path d="M 72 51.84 
L 518.4 51.84 
" style="fill: none; stroke: #000000; stroke-width: 0.8; stroke-linejoin: miter; stroke-linecap: square"/>
   </g>
   <g id="legend_1">
    <g id="patch_207">
     <path d="M 466.675 103.874375 
L 511.4 103.874375 
Q 513.4 103.874375 513.4 101.874375 
L 513.4 58.84 
Q 513.4 56.84 511.4 56.84 
L 466.675 56.84 
Q 464.675 56.84 464.675 58.84 
L 464.675 101.874375 
Q 464.675 103.874375 466.675 103.874375 
z
" style="fill: #ffffff; opacity: 0.8; stroke: #cccccc; stroke-linejoin: miter"/>
    </g>
    <g id="text_17">
     <!-- label2 -->
     <g transform="translate(473.763281 68.438437)scale(0.1 -0.1)">
      <defs>
       <path id="DejaVuSans-6c" d="M 603 4863 
L 1178 4863 
L 1178 0 
L 603 0 
L 603 4863 
z
" transform="scale(0.015625)"/>
       <path id="DejaVuSans-62" d="M 3116 1747 
Q 3116 2381 2855 2742 
Q 2594 3103 2138 3103 
Q 1681 3103 1420 2742 
Q 1159 2381 1159 1747 
Q 1159 1113 1420 752 
Q 1681 391 2138 391 
Q 2594 391 2855 752 
Q 3116 1113 3116 1747 
z
M 1159 2969 
Q 1341 3281 1617 3432 
Q 1894 3584 2278 3584 
Q 2916 3584 3314 3078 
Q 3713 2572 3713 1747 
Q 3713 922 3314 415 
Q 2916 -91 2278 -91 
Q 1894 -91 1617 61 
Q 1341 213 1159 525 
L 1159 0 
L 581 0 
L 581 4863 
L 1159 4863 
L 1159 2969 
z
" transform="scale(0.015625)"/>
      </defs>
      <use xlink:href="#DejaVuSans-6c"/>
      <use xlink:href="#DejaVuSans-61" x="27.783203"/>
      <use xlink:href="#DejaVuSans-62" x="89.0625"/>
      <use xlink:href="#DejaVuSans-65" x="152.539062"/>
      <use xlink:href="#DejaVuSans-6c" x="214.0625"/>
      <use xlink:href="#DejaVuSans-32" x="241.845703"/>
     </g>
    </g>
    <g id="patch_208">
     <path d="M 468.675 83.116562 
L 488.675 83.116562 
L 488.675 76.116562 
L 468.675 76.116562 
L 468.675 83.116562 
z
" style="fill: none"/>
    </g>
    <g id="text_18">
     <!-- 28 -->
     <g transform="translate(496.675 83.116562)scale(0.1 -0.1)">
      <use xlink:href="#DejaVuSans-32"/>
      <use xlink:href="#DejaVuSans-38" x="63.623047"/>
     </g>
    </g>
    <g id="patch_209">
     <path d="M 468.675 97.794688 
L 488.675 97.794688 
L 488.675 90.794688 
L 468.675 90.794688 
L 468.675 97.794688 
z
" style="fill: none"/>
    </g>
    <g id="text_19">
     <!-- 32 -->
     <g transform="translate(496.675 97.794688)scale(0.1 -0.1)">
      <use xlink:href="#DejaVuSans-33"/>
      <use xlink:href="#DejaVuSans-32" x="63.623047"/>
     </g>
    </g>
   </g>
  </g>
 </g>
 <defs>
  <clipPath id="p5bee9965e3">
   <rect x="72" y="51.84" width="446.4" height="326.16"/>
  </clipPath>
 </defs>
</svg>
