<?xml version="1.0" encoding="utf-8" standalone="no"?>
<!DOCTYPE svg PUBLIC "-//W3C//DTD SVG 1.1//EN"
  "http://www.w3.org/Graphics/SVG/1.1/DTD/svg11.dtd">
<svg xmlns:xlink="http://www.w3.org/1999/xlink" width="576pt" height="432pt" viewBox="0 0 576 432" xmlns="http://www.w3.org/2000/svg" version="1.1">
 <metadata>
  <rdf:RDF xmlns:dc="http://purl.org/dc/elements/1.1/" xmlns:cc="http://creativecommons.org/ns#" xmlns:rdf="http://www.w3.org/1999/02/22-rdf-syntax-ns#">
   <cc:Work>
    <dc:type rdf:resource="http://purl.org/dc/dcmitype/StillImage"/>
    <dc:date>2022-04-12T13:56:38.323191</dc:date>
    <dc:format>image/svg+xml</dc:format>
    <dc:creator>
     <cc:Agent>
      <dc:title>Matplotlib v3.5.1, https://matplotlib.org/</dc:title>
     </cc:Agent>
    </dc:creator>
   </cc:Work>
  </rdf:RDF>
 </metadata>
 <defs>
  <style type="text/css">*{stroke-linejoin: round; stroke-linecap: butt}</style>
 </defs>
 <g id="figure_1">
  <g id="patch_1">
   <path d="M 0 432 
L 576 432 
L 576 0 
L 0 0 
L 0 432 
z
" style="fill: none"/>
  </g>
  <g id="axes_1">
   <g id="patch_2">
    <path d="M 72 378 
L 518.4 378 
L 518.4 51.84 
L 72 51.84 
z
" style="fill: #ffffff"/>
   </g>
   <g id="patch_3">
    <path d="M 170.359322 378 
L 174.095806 378 
L 174.095806 371.097143 
L 170.359322 371.097143 
z
" clip-path="url(#p393f111093)" style="fill: #a5e10f; fill-opacity: 0.5"/>
   </g>
   <g id="patch_4">
    <path d="M 174.095806 378 
L 177.832289 378 
L 177.832289 378 
L 174.095806 378 
z
" clip-path="url(#p393f111093)" style="fill: #a5e10f; fill-opacity: 0.5"/>
   </g>
   <g id="patch_5">
    <path d="M 177.832289 378 
L 181.568772 378 
L 181.568772 378 
L 177.832289 378 
z
" clip-path="url(#p393f111093)" style="fill: #a5e10f; fill-opacity: 0.5"/>
   </g>
   <g id="patch_6">
    <path d="M 181.568772 378 
L 185.305256 378 
L 185.305256 378 
L 181.568772 378 
z
" clip-path="url(#p393f111093)" style="fill: #a5e10f; fill-opacity: 0.5"/>
   </g>
   <g id="patch_7">
    <path d="M 185.305256 378 
L 189.041739 378 
L 189.041739 371.097143 
L 185.305256 371.097143 
z
" clip-path="url(#p393f111093)" style="fill: #a5e10f; fill-opacity: 0.5"/>
   </g>
   <g id="patch_8">
    <path d="M 189.041739 378 
L 192.778223 378 
L 192.778223 378 
L 189.041739 378 
z
" clip-path="url(#p393f111093)" style="fill: #a5e10f; fill-opacity: 0.5"/>
   </g>
   <g id="patch_9">
    <path d="M 192.778223 378 
L 196.514706 378 
L 196.514706 364.194286 
L 192.778223 364.194286 
z
" clip-path="url(#p393f111093)" style="fill: #a5e10f; fill-opacity: 0.5"/>
   </g>
   <g id="patch_10">
    <path d="M 196.514706 378 
L 200.25119 378 
L 200.25119 378 
L 196.514706 378 
z
" clip-path="url(#p393f111093)" style="fill: #a5e10f; fill-opacity: 0.5"/>
   </g>
   <g id="patch_11">
    <path d="M 200.25119 378 
L 203.987673 378 
L 203.987673 378 
L 200.25119 378 
z
" clip-path="url(#p393f111093)" style="fill: #a5e10f; fill-opacity: 0.5"/>
   </g>
   <g id="patch_12">
    <path d="M 203.987673 378 
L 207.724157 378 
L 207.724157 364.194286 
L 203.987673 364.194286 
z
" clip-path="url(#p393f111093)" style="fill: #a5e10f; fill-opacity: 0.5"/>
   </g>
   <g id="patch_13">
    <path d="M 207.724157 378 
L 211.46064 378 
L 211.46064 350.388571 
L 207.724157 350.388571 
z
" clip-path="url(#p393f111093)" style="fill: #a5e10f; fill-opacity: 0.5"/>
   </g>
   <g id="patch_14">
    <path d="M 211.46064 378 
L 215.197124 378 
L 215.197124 343.485714 
L 211.46064 343.485714 
z
" clip-path="url(#p393f111093)" style="fill: #a5e10f; fill-opacity: 0.5"/>
   </g>
   <g id="patch_15">
    <path d="M 215.197124 378 
L 218.933607 378 
L 218.933607 302.068571 
L 215.197124 302.068571 
z
" clip-path="url(#p393f111093)" style="fill: #a5e10f; fill-opacity: 0.5"/>
   </g>
   <g id="patch_16">
    <path d="M 218.933607 378 
L 222.670091 378 
L 222.670091 308.971429 
L 218.933607 308.971429 
z
" clip-path="url(#p393f111093)" style="fill: #a5e10f; fill-opacity: 0.5"/>
   </g>
   <g id="patch_17">
    <path d="M 222.670091 378 
L 226.406574 378 
L 226.406574 246.845714 
L 222.670091 246.845714 
z
" clip-path="url(#p393f111093)" style="fill: #a5e10f; fill-opacity: 0.5"/>
   </g>
   <g id="patch_18">
    <path d="M 226.406574 378 
L 230.143058 378 
L 230.143058 233.04 
L 226.406574 233.04 
z
" clip-path="url(#p393f111093)" style="fill: #a5e10f; fill-opacity: 0.5"/>
   </g>
   <g id="patch_19">
    <path d="M 230.143058 378 
L 233.879541 378 
L 233.879541 198.525714 
L 230.143058 198.525714 
z
" clip-path="url(#p393f111093)" style="fill: #a5e10f; fill-opacity: 0.5"/>
   </g>
   <g id="patch_20">
    <path d="M 233.879541 378 
L 237.616025 378 
L 237.616025 150.205714 
L 233.879541 150.205714 
z
" clip-path="url(#p393f111093)" style="fill: #a5e10f; fill-opacity: 0.5"/>
   </g>
   <g id="patch_21">
    <path d="M 237.616025 378 
L 241.352508 378 
L 241.352508 122.594286 
L 237.616025 122.594286 
z
" clip-path="url(#p393f111093)" style="fill: #a5e10f; fill-opacity: 0.5"/>
   </g>
   <g id="patch_22">
    <path d="M 241.352508 378 
L 245.088992 378 
L 245.088992 122.594286 
L 241.352508 122.594286 
z
" clip-path="url(#p393f111093)" style="fill: #a5e10f; fill-opacity: 0.5"/>
   </g>
   <g id="patch_23">
    <path d="M 245.088992 378 
L 248.825475 378 
L 248.825475 67.371429 
L 245.088992 67.371429 
z
" clip-path="url(#p393f111093)" style="fill: #a5e10f; fill-opacity: 0.5"/>
   </g>
   <g id="patch_24">
    <path d="M 248.825475 378 
L 252.561959 378 
L 252.561959 136.4 
L 248.825475 136.4 
z
" clip-path="url(#p393f111093)" style="fill: #a5e10f; fill-opacity: 0.5"/>
   </g>
   <g id="patch_25">
    <path d="M 252.561959 378 
L 256.298442 378 
L 256.298442 143.302857 
L 252.561959 143.302857 
z
" clip-path="url(#p393f111093)" style="fill: #a5e10f; fill-opacity: 0.5"/>
   </g>
   <g id="patch_26">
    <path d="M 256.298442 378 
L 260.034926 378 
L 260.034926 177.817143 
L 256.298442 177.817143 
z
" clip-path="url(#p393f111093)" style="fill: #a5e10f; fill-opacity: 0.5"/>
   </g>
   <g id="patch_27">
    <path d="M 260.034926 378 
L 263.771409 378 
L 263.771409 246.845714 
L 260.034926 246.845714 
z
" clip-path="url(#p393f111093)" style="fill: #a5e10f; fill-opacity: 0.5"/>
   </g>
   <g id="patch_28">
    <path d="M 263.771409 378 
L 267.507893 378 
L 267.507893 302.068571 
L 263.771409 302.068571 
z
" clip-path="url(#p393f111093)" style="fill: #a5e10f; fill-opacity: 0.5"/>
   </g>
   <g id="patch_29">
    <path d="M 267.507893 378 
L 271.244376 378 
L 271.244376 315.874286 
L 267.507893 315.874286 
z
" clip-path="url(#p393f111093)" style="fill: #a5e10f; fill-opacity: 0.5"/>
   </g>
   <g id="patch_30">
    <path d="M 271.244376 378 
L 274.98086 378 
L 274.98086 315.874286 
L 271.244376 315.874286 
z
" clip-path="url(#p393f111093)" style="fill: #a5e10f; fill-opacity: 0.5"/>
   </g>
   <g id="patch_31">
    <path d="M 274.98086 378 
L 278.717343 378 
L 278.717343 364.194286 
L 274.98086 364.194286 
z
" clip-path="url(#p393f111093)" style="fill: #a5e10f; fill-opacity: 0.5"/>
   </g>
   <g id="patch_32">
    <path d="M 278.717343 378 
L 282.453827 378 
L 282.453827 357.291429 
L 278.717343 357.291429 
z
" clip-path="url(#p393f111093)" style="fill: #a5e10f; fill-opacity: 0.5"/>
   </g>
   <g id="patch_33">
    <path d="M 282.453827 378 
L 286.19031 378 
L 286.19031 364.194286 
L 282.453827 364.194286 
z
" clip-path="url(#p393f111093)" style="fill: #a5e10f; fill-opacity: 0.5"/>
   </g>
   <g id="patch_34">
    <path d="M 286.19031 378 
L 289.926794 378 
L 289.926794 364.194286 
L 286.19031 364.194286 
z
" clip-path="url(#p393f111093)" style="fill: #a5e10f; fill-opacity: 0.5"/>
   </g>
   <g id="patch_35">
    <path d="M 289.926794 378 
L 293.663277 378 
L 293.663277 378 
L 289.926794 378 
z
" clip-path="url(#p393f111093)" style="fill: #a5e10f; fill-opacity: 0.5"/>
   </g>
   <g id="patch_36">
    <path d="M 293.663277 378 
L 297.399761 378 
L 297.399761 371.097143 
L 293.663277 371.097143 
z
" clip-path="url(#p393f111093)" style="fill: #a5e10f; fill-opacity: 0.5"/>
   </g>
   <g id="patch_37">
    <path d="M 297.399761 378 
L 301.136244 378 
L 301.136244 378 
L 297.399761 378 
z
" clip-path="url(#p393f111093)" style="fill: #a5e10f; fill-opacity: 0.5"/>
   </g>
   <g id="patch_38">
    <path d="M 301.136244 378 
L 304.872728 378 
L 304.872728 378 
L 301.136244 378 
z
" clip-path="url(#p393f111093)" style="fill: #a5e10f; fill-opacity: 0.5"/>
   </g>
   <g id="patch_39">
    <path d="M 304.872728 378 
L 308.609211 378 
L 308.609211 378 
L 304.872728 378 
z
" clip-path="url(#p393f111093)" style="fill: #a5e10f; fill-opacity: 0.5"/>
   </g>
   <g id="patch_40">
    <path d="M 308.609211 378 
L 312.345694 378 
L 312.345694 378 
L 308.609211 378 
z
" clip-path="url(#p393f111093)" style="fill: #a5e10f; fill-opacity: 0.5"/>
   </g>
   <g id="patch_41">
    <path d="M 312.345694 378 
L 316.082178 378 
L 316.082178 378 
L 312.345694 378 
z
" clip-path="url(#p393f111093)" style="fill: #a5e10f; fill-opacity: 0.5"/>
   </g>
   <g id="patch_42">
    <path d="M 316.082178 378 
L 319.818661 378 
L 319.818661 378 
L 316.082178 378 
z
" clip-path="url(#p393f111093)" style="fill: #a5e10f; fill-opacity: 0.5"/>
   </g>
   <g id="patch_43">
    <path d="M 319.818661 378 
L 323.555145 378 
L 323.555145 378 
L 319.818661 378 
z
" clip-path="url(#p393f111093)" style="fill: #a5e10f; fill-opacity: 0.5"/>
   </g>
   <g id="patch_44">
    <path d="M 323.555145 378 
L 327.291628 378 
L 327.291628 378 
L 323.555145 378 
z
" clip-path="url(#p393f111093)" style="fill: #a5e10f; fill-opacity: 0.5"/>
   </g>
   <g id="patch_45">
    <path d="M 327.291628 378 
L 331.028112 378 
L 331.028112 378 
L 327.291628 378 
z
" clip-path="url(#p393f111093)" style="fill: #a5e10f; fill-opacity: 0.5"/>
   </g>
   <g id="patch_46">
    <path d="M 331.028112 378 
L 334.764595 378 
L 334.764595 378 
L 331.028112 378 
z
" clip-path="url(#p393f111093)" style="fill: #a5e10f; fill-opacity: 0.5"/>
   </g>
   <g id="patch_47">
    <path d="M 334.764595 378 
L 338.501079 378 
L 338.501079 378 
L 334.764595 378 
z
" clip-path="url(#p393f111093)" style="fill: #a5e10f; fill-opacity: 0.5"/>
   </g>
   <g id="patch_48">
    <path d="M 338.501079 378 
L 342.237562 378 
L 342.237562 378 
L 338.501079 378 
z
" clip-path="url(#p393f111093)" style="fill: #a5e10f; fill-opacity: 0.5"/>
   </g>
   <g id="patch_49">
    <path d="M 342.237562 378 
L 345.974046 378 
L 345.974046 378 
L 342.237562 378 
z
" clip-path="url(#p393f111093)" style="fill: #a5e10f; fill-opacity: 0.5"/>
   </g>
   <g id="patch_50">
    <path d="M 345.974046 378 
L 349.710529 378 
L 349.710529 378 
L 345.974046 378 
z
" clip-path="url(#p393f111093)" style="fill: #a5e10f; fill-opacity: 0.5"/>
   </g>
   <g id="patch_51">
    <path d="M 349.710529 378 
L 353.447013 378 
L 353.447013 378 
L 349.710529 378 
z
" clip-path="url(#p393f111093)" style="fill: #a5e10f; fill-opacity: 0.5"/>
   </g>
   <g id="patch_52">
    <path d="M 353.447013 378 
L 357.183496 378 
L 357.183496 378 
L 353.447013 378 
z
" clip-path="url(#p393f111093)" style="fill: #a5e10f; fill-opacity: 0.5"/>
   </g>
   <g id="patch_53">
    <path d="M 170.359322 378 
L 174.095806 378 
L 174.095806 378 
L 170.359322 378 
z
" clip-path="url(#p393f111093)" style="fill: #24b4b1; fill-opacity: 0.5"/>
   </g>
   <g id="patch_54">
    <path d="M 174.095806 378 
L 177.832289 378 
L 177.832289 378 
L 174.095806 378 
z
" clip-path="url(#p393f111093)" style="fill: #24b4b1; fill-opacity: 0.5"/>
   </g>
   <g id="patch_55">
    <path d="M 177.832289 378 
L 181.568772 378 
L 181.568772 378 
L 177.832289 378 
z
" clip-path="url(#p393f111093)" style="fill: #24b4b1; fill-opacity: 0.5"/>
   </g>
   <g id="patch_56">
    <path d="M 181.568772 378 
L 185.305256 378 
L 185.305256 378 
L 181.568772 378 
z
" clip-path="url(#p393f111093)" style="fill: #24b4b1; fill-opacity: 0.5"/>
   </g>
   <g id="patch_57">
    <path d="M 185.305256 378 
L 189.041739 378 
L 189.041739 378 
L 185.305256 378 
z
" clip-path="url(#p393f111093)" style="fill: #24b4b1; fill-opacity: 0.5"/>
   </g>
   <g id="patch_58">
    <path d="M 189.041739 378 
L 192.778223 378 
L 192.778223 378 
L 189.041739 378 
z
" clip-path="url(#p393f111093)" style="fill: #24b4b1; fill-opacity: 0.5"/>
   </g>
   <g id="patch_59">
    <path d="M 192.778223 378 
L 196.514706 378 
L 196.514706 378 
L 192.778223 378 
z
" clip-path="url(#p393f111093)" style="fill: #24b4b1; fill-opacity: 0.5"/>
   </g>
   <g id="patch_60">
    <path d="M 196.514706 378 
L 200.25119 378 
L 200.25119 378 
L 196.514706 378 
z
" clip-path="url(#p393f111093)" style="fill: #24b4b1; fill-opacity: 0.5"/>
   </g>
   <g id="patch_61">
    <path d="M 200.25119 378 
L 203.987673 378 
L 203.987673 378 
L 200.25119 378 
z
" clip-path="url(#p393f111093)" style="fill: #24b4b1; fill-opacity: 0.5"/>
   </g>
   <g id="patch_62">
    <path d="M 203.987673 378 
L 207.724157 378 
L 207.724157 378 
L 203.987673 378 
z
" clip-path="url(#p393f111093)" style="fill: #24b4b1; fill-opacity: 0.5"/>
   </g>
   <g id="patch_63">
    <path d="M 207.724157 378 
L 211.46064 378 
L 211.46064 378 
L 207.724157 378 
z
" clip-path="url(#p393f111093)" style="fill: #24b4b1; fill-opacity: 0.5"/>
   </g>
   <g id="patch_64">
    <path d="M 211.46064 378 
L 215.197124 378 
L 215.197124 378 
L 211.46064 378 
z
" clip-path="url(#p393f111093)" style="fill: #24b4b1; fill-opacity: 0.5"/>
   </g>
   <g id="patch_65">
    <path d="M 215.197124 378 
L 218.933607 378 
L 218.933607 378 
L 215.197124 378 
z
" clip-path="url(#p393f111093)" style="fill: #24b4b1; fill-opacity: 0.5"/>
   </g>
   <g id="patch_66">
    <path d="M 218.933607 378 
L 222.670091 378 
L 222.670091 378 
L 218.933607 378 
z
" clip-path="url(#p393f111093)" style="fill: #24b4b1; fill-opacity: 0.5"/>
   </g>
   <g id="patch_67">
    <path d="M 222.670091 378 
L 226.406574 378 
L 226.406574 378 
L 222.670091 378 
z
" clip-path="url(#p393f111093)" style="fill: #24b4b1; fill-opacity: 0.5"/>
   </g>
   <g id="patch_68">
    <path d="M 226.406574 378 
L 230.143058 378 
L 230.143058 378 
L 226.406574 378 
z
" clip-path="url(#p393f111093)" style="fill: #24b4b1; fill-opacity: 0.5"/>
   </g>
   <g id="patch_69">
    <path d="M 230.143058 378 
L 233.879541 378 
L 233.879541 378 
L 230.143058 378 
z
" clip-path="url(#p393f111093)" style="fill: #24b4b1; fill-opacity: 0.5"/>
   </g>
   <g id="patch_70">
    <path d="M 233.879541 378 
L 237.616025 378 
L 237.616025 378 
L 233.879541 378 
z
" clip-path="url(#p393f111093)" style="fill: #24b4b1; fill-opacity: 0.5"/>
   </g>
   <g id="patch_71">
    <path d="M 237.616025 378 
L 241.352508 378 
L 241.352508 371.097143 
L 237.616025 371.097143 
z
" clip-path="url(#p393f111093)" style="fill: #24b4b1; fill-opacity: 0.5"/>
   </g>
   <g id="patch_72">
    <path d="M 241.352508 378 
L 245.088992 378 
L 245.088992 364.194286 
L 241.352508 364.194286 
z
" clip-path="url(#p393f111093)" style="fill: #24b4b1; fill-opacity: 0.5"/>
   </g>
   <g id="patch_73">
    <path d="M 245.088992 378 
L 248.825475 378 
L 248.825475 378 
L 245.088992 378 
z
" clip-path="url(#p393f111093)" style="fill: #24b4b1; fill-opacity: 0.5"/>
   </g>
   <g id="patch_74">
    <path d="M 248.825475 378 
L 252.561959 378 
L 252.561959 378 
L 248.825475 378 
z
" clip-path="url(#p393f111093)" style="fill: #24b4b1; fill-opacity: 0.5"/>
   </g>
   <g id="patch_75">
    <path d="M 252.561959 378 
L 256.298442 378 
L 256.298442 364.194286 
L 252.561959 364.194286 
z
" clip-path="url(#p393f111093)" style="fill: #24b4b1; fill-opacity: 0.5"/>
   </g>
   <g id="patch_76">
    <path d="M 256.298442 378 
L 260.034926 378 
L 260.034926 378 
L 256.298442 378 
z
" clip-path="url(#p393f111093)" style="fill: #24b4b1; fill-opacity: 0.5"/>
   </g>
   <g id="patch_77">
    <path d="M 260.034926 378 
L 263.771409 378 
L 263.771409 350.388571 
L 260.034926 350.388571 
z
" clip-path="url(#p393f111093)" style="fill: #24b4b1; fill-opacity: 0.5"/>
   </g>
   <g id="patch_78">
    <path d="M 263.771409 378 
L 267.507893 378 
L 267.507893 329.68 
L 263.771409 329.68 
z
" clip-path="url(#p393f111093)" style="fill: #24b4b1; fill-opacity: 0.5"/>
   </g>
   <g id="patch_79">
    <path d="M 267.507893 378 
L 271.244376 378 
L 271.244376 350.388571 
L 267.507893 350.388571 
z
" clip-path="url(#p393f111093)" style="fill: #24b4b1; fill-opacity: 0.5"/>
   </g>
   <g id="patch_80">
    <path d="M 271.244376 378 
L 274.98086 378 
L 274.98086 288.262857 
L 271.244376 288.262857 
z
" clip-path="url(#p393f111093)" style="fill: #24b4b1; fill-opacity: 0.5"/>
   </g>
   <g id="patch_81">
    <path d="M 274.98086 378 
L 278.717343 378 
L 278.717343 308.971429 
L 274.98086 308.971429 
z
" clip-path="url(#p393f111093)" style="fill: #24b4b1; fill-opacity: 0.5"/>
   </g>
   <g id="patch_82">
    <path d="M 278.717343 378 
L 282.453827 378 
L 282.453827 274.457143 
L 278.717343 274.457143 
z
" clip-path="url(#p393f111093)" style="fill: #24b4b1; fill-opacity: 0.5"/>
   </g>
   <g id="patch_83">
    <path d="M 282.453827 378 
L 286.19031 378 
L 286.19031 246.845714 
L 282.453827 246.845714 
z
" clip-path="url(#p393f111093)" style="fill: #24b4b1; fill-opacity: 0.5"/>
   </g>
   <g id="patch_84">
    <path d="M 286.19031 378 
L 289.926794 378 
L 289.926794 198.525714 
L 286.19031 198.525714 
z
" clip-path="url(#p393f111093)" style="fill: #24b4b1; fill-opacity: 0.5"/>
   </g>
   <g id="patch_85">
    <path d="M 289.926794 378 
L 293.663277 378 
L 293.663277 260.651429 
L 289.926794 260.651429 
z
" clip-path="url(#p393f111093)" style="fill: #24b4b1; fill-opacity: 0.5"/>
   </g>
   <g id="patch_86">
    <path d="M 293.663277 378 
L 297.399761 378 
L 297.399761 226.137143 
L 293.663277 226.137143 
z
" clip-path="url(#p393f111093)" style="fill: #24b4b1; fill-opacity: 0.5"/>
   </g>
   <g id="patch_87">
    <path d="M 297.399761 378 
L 301.136244 378 
L 301.136244 226.137143 
L 297.399761 226.137143 
z
" clip-path="url(#p393f111093)" style="fill: #24b4b1; fill-opacity: 0.5"/>
   </g>
   <g id="patch_88">
    <path d="M 301.136244 378 
L 304.872728 378 
L 304.872728 191.622857 
L 301.136244 191.622857 
z
" clip-path="url(#p393f111093)" style="fill: #24b4b1; fill-opacity: 0.5"/>
   </g>
   <g id="patch_89">
    <path d="M 304.872728 378 
L 308.609211 378 
L 308.609211 253.748571 
L 304.872728 253.748571 
z
" clip-path="url(#p393f111093)" style="fill: #24b4b1; fill-opacity: 0.5"/>
   </g>
   <g id="patch_90">
    <path d="M 308.609211 378 
L 312.345694 378 
L 312.345694 315.874286 
L 308.609211 315.874286 
z
" clip-path="url(#p393f111093)" style="fill: #24b4b1; fill-opacity: 0.5"/>
   </g>
   <g id="patch_91">
    <path d="M 312.345694 378 
L 316.082178 378 
L 316.082178 260.651429 
L 312.345694 260.651429 
z
" clip-path="url(#p393f111093)" style="fill: #24b4b1; fill-opacity: 0.5"/>
   </g>
   <g id="patch_92">
    <path d="M 316.082178 378 
L 319.818661 378 
L 319.818661 315.874286 
L 316.082178 315.874286 
z
" clip-path="url(#p393f111093)" style="fill: #24b4b1; fill-opacity: 0.5"/>
   </g>
   <g id="patch_93">
    <path d="M 319.818661 378 
L 323.555145 378 
L 323.555145 343.485714 
L 319.818661 343.485714 
z
" clip-path="url(#p393f111093)" style="fill: #24b4b1; fill-opacity: 0.5"/>
   </g>
   <g id="patch_94">
    <path d="M 323.555145 378 
L 327.291628 378 
L 327.291628 322.777143 
L 323.555145 322.777143 
z
" clip-path="url(#p393f111093)" style="fill: #24b4b1; fill-opacity: 0.5"/>
   </g>
   <g id="patch_95">
    <path d="M 327.291628 378 
L 331.028112 378 
L 331.028112 343.485714 
L 327.291628 343.485714 
z
" clip-path="url(#p393f111093)" style="fill: #24b4b1; fill-opacity: 0.5"/>
   </g>
   <g id="patch_96">
    <path d="M 331.028112 378 
L 334.764595 378 
L 334.764595 350.388571 
L 331.028112 350.388571 
z
" clip-path="url(#p393f111093)" style="fill: #24b4b1; fill-opacity: 0.5"/>
   </g>
   <g id="patch_97">
    <path d="M 334.764595 378 
L 338.501079 378 
L 338.501079 357.291429 
L 334.764595 357.291429 
z
" clip-path="url(#p393f111093)" style="fill: #24b4b1; fill-opacity: 0.5"/>
   </g>
   <g id="patch_98">
    <path d="M 338.501079 378 
L 342.237562 378 
L 342.237562 364.194286 
L 338.501079 364.194286 
z
" clip-path="url(#p393f111093)" style="fill: #24b4b1; fill-opacity: 0.5"/>
   </g>
   <g id="patch_99">
    <path d="M 342.237562 378 
L 345.974046 378 
L 345.974046 378 
L 342.237562 378 
z
" clip-path="url(#p393f111093)" style="fill: #24b4b1; fill-opacity: 0.5"/>
   </g>
   <g id="patch_100">
    <path d="M 345.974046 378 
L 349.710529 378 
L 349.710529 364.194286 
L 345.974046 364.194286 
z
" clip-path="url(#p393f111093)" style="fill: #24b4b1; fill-opacity: 0.5"/>
   </g>
   <g id="patch_101">
    <path d="M 349.710529 378 
L 353.447013 378 
L 353.447013 371.097143 
L 349.710529 371.097143 
z
" clip-path="url(#p393f111093)" style="fill: #24b4b1; fill-opacity: 0.5"/>
   </g>
   <g id="patch_102">
    <path d="M 353.447013 378 
L 357.183496 378 
L 357.183496 364.194286 
L 353.447013 364.194286 
z
" clip-path="url(#p393f111093)" style="fill: #24b4b1; fill-opacity: 0.5"/>
   </g>
   <g id="patch_103">
    <path d="M 80.422642 378 
L 88.825069 378 
L 88.825069 377.600959 
L 80.422642 377.600959 
L 80.422642 378 
z
" clip-path="url(#p393f111093)" style="fill: none"/>
   </g>
   <g id="patch_104">
    <path d="M 88.825069 378 
L 97.227496 378 
L 97.227496 377.907914 
L 88.825069 377.907914 
L 88.825069 378 
z
" clip-path="url(#p393f111093)" style="fill: none"/>
   </g>
   <g id="patch_105">
    <path d="M 97.227496 378 
L 105.629923 378 
L 105.629923 377.508872 
L 97.227496 377.508872 
L 97.227496 378 
z
" clip-path="url(#p393f111093)" style="fill: none"/>
   </g>
   <g id="patch_106">
    <path d="M 105.629923 378 
L 114.03235 378 
L 114.03235 375.667143 
L 105.629923 375.667143 
L 105.629923 378 
z
" clip-path="url(#p393f111093)" style="fill: none"/>
   </g>
   <g id="patch_107">
    <path d="M 114.03235 378 
L 122.434777 378 
L 122.434777 373.30359 
L 114.03235 373.30359 
L 114.03235 378 
z
" clip-path="url(#p393f111093)" style="fill: none"/>
   </g>
   <g id="patch_108">
    <path d="M 122.434777 378 
L 130.837205 378 
L 130.837205 363.880076 
L 122.434777 363.880076 
L 122.434777 378 
z
" clip-path="url(#p393f111093)" style="fill: none"/>
   </g>
   <g id="patch_109">
    <path d="M 130.837205 378 
L 139.239632 378 
L 139.239632 351.018667 
L 130.837205 351.018667 
L 130.837205 378 
z
" clip-path="url(#p393f111093)" style="fill: none"/>
   </g>
   <g id="patch_110">
    <path d="M 139.239632 378 
L 147.642059 378 
L 147.642059 341.104024 
L 139.239632 341.104024 
L 139.239632 378 
z
" clip-path="url(#p393f111093)" style="fill: none"/>
   </g>
   <g id="patch_111">
    <path d="M 147.642059 378 
L 156.044486 378 
L 156.044486 348.225377 
L 147.642059 348.225377 
L 147.642059 378 
z
" clip-path="url(#p393f111093)" style="fill: none"/>
   </g>
   <g id="patch_112">
    <path d="M 156.044486 378 
L 164.446913 378 
L 164.446913 352.49205 
L 156.044486 352.49205 
L 156.044486 378 
z
" clip-path="url(#p393f111093)" style="fill: none"/>
   </g>
   <g id="patch_113">
    <path d="M 164.446913 378 
L 172.84934 378 
L 172.84934 352.123704 
L 164.446913 352.123704 
L 164.446913 378 
z
" clip-path="url(#p393f111093)" style="fill: none"/>
   </g>
   <g id="patch_114">
    <path d="M 172.84934 378 
L 181.251768 378 
L 181.251768 346.107389 
L 172.84934 346.107389 
L 172.84934 378 
z
" clip-path="url(#p393f111093)" style="fill: none"/>
   </g>
   <g id="patch_115">
    <path d="M 181.251768 378 
L 189.654195 378 
L 189.654195 340.735678 
L 181.251768 340.735678 
L 181.251768 378 
z
" clip-path="url(#p393f111093)" style="fill: none"/>
   </g>
   <g id="patch_116">
    <path d="M 189.654195 378 
L 198.056622 378 
L 198.056622 342.822971 
L 189.654195 342.822971 
L 189.654195 378 
z
" clip-path="url(#p393f111093)" style="fill: none"/>
   </g>
   <g id="patch_117">
    <path d="M 198.056622 378 
L 206.459049 378 
L 206.459049 341.748629 
L 198.056622 341.748629 
L 198.056622 378 
z
" clip-path="url(#p393f111093)" style="fill: none"/>
   </g>
   <g id="patch_118">
    <path d="M 206.459049 378 
L 214.861476 378 
L 214.861476 342.209062 
L 206.459049 342.209062 
L 206.459049 378 
z
" clip-path="url(#p393f111093)" style="fill: none"/>
   </g>
   <g id="patch_119">
    <path d="M 214.861476 378 
L 223.263903 378 
L 223.263903 344.296355 
L 214.861476 344.296355 
L 214.861476 378 
z
" clip-path="url(#p393f111093)" style="fill: none"/>
   </g>
   <g id="patch_120">
    <path d="M 223.263903 378 
L 231.666331 378 
L 231.666331 334.87284 
L 223.263903 334.87284 
L 223.263903 378 
z
" clip-path="url(#p393f111093)" style="fill: none"/>
   </g>
   <g id="patch_121">
    <path d="M 231.666331 378 
L 240.068758 378 
L 240.068758 334.565885 
L 231.666331 334.565885 
L 231.666331 378 
z
" clip-path="url(#p393f111093)" style="fill: none"/>
   </g>
   <g id="patch_122">
    <path d="M 240.068758 378 
L 248.471185 378 
L 248.471185 324.282897 
L 240.068758 324.282897 
L 240.068758 378 
z
" clip-path="url(#p393f111093)" style="fill: none"/>
   </g>
   <g id="patch_123">
    <path d="M 248.471185 378 
L 256.873612 378 
L 256.873612 321.029175 
L 248.471185 321.029175 
L 248.471185 378 
z
" clip-path="url(#p393f111093)" style="fill: none"/>
   </g>
   <g id="patch_124">
    <path d="M 256.873612 378 
L 265.276039 378 
L 265.276039 318.880491 
L 256.873612 318.880491 
L 256.873612 378 
z
" clip-path="url(#p393f111093)" style="fill: none"/>
   </g>
   <g id="patch_125">
    <path d="M 265.276039 378 
L 273.678466 378 
L 273.678466 314.122691 
L 265.276039 314.122691 
L 265.276039 378 
z
" clip-path="url(#p393f111093)" style="fill: none"/>
   </g>
   <g id="patch_126">
    <path d="M 273.678466 378 
L 282.080894 378 
L 282.080894 309.487672 
L 273.678466 309.487672 
L 273.678466 378 
z
" clip-path="url(#p393f111093)" style="fill: none"/>
   </g>
   <g id="patch_127">
    <path d="M 282.080894 378 
L 290.483321 378 
L 290.483321 320.353875 
L 282.080894 320.353875 
L 282.080894 378 
z
" clip-path="url(#p393f111093)" style="fill: none"/>
   </g>
   <g id="patch_128">
    <path d="M 290.483321 378 
L 298.885748 378 
L 298.885748 334.688667 
L 290.483321 334.688667 
L 290.483321 378 
z
" clip-path="url(#p393f111093)" style="fill: none"/>
   </g>
   <g id="patch_129">
    <path d="M 298.885748 378 
L 307.288175 378 
L 307.288175 339.016731 
L 298.885748 339.016731 
L 298.885748 378 
z
" clip-path="url(#p393f111093)" style="fill: none"/>
   </g>
   <g id="patch_130">
    <path d="M 307.288175 378 
L 315.690602 378 
L 315.690602 345.493479 
L 307.288175 345.493479 
L 307.288175 378 
z
" clip-path="url(#p393f111093)" style="fill: none"/>
   </g>
   <g id="patch_131">
    <path d="M 315.690602 378 
L 324.093029 378 
L 324.093029 352.031618 
L 315.690602 352.031618 
L 315.690602 378 
z
" clip-path="url(#p393f111093)" style="fill: none"/>
   </g>
   <g id="patch_132">
    <path d="M 324.093029 378 
L 332.495457 378 
L 332.495457 355.561599 
L 324.093029 355.561599 
L 324.093029 378 
z
" clip-path="url(#p393f111093)" style="fill: none"/>
   </g>
   <g id="patch_133">
    <path d="M 332.495457 378 
L 340.897884 378 
L 340.897884 365.199982 
L 332.495457 365.199982 
L 332.495457 378 
z
" clip-path="url(#p393f111093)" style="fill: none"/>
   </g>
   <g id="patch_134">
    <path d="M 340.897884 378 
L 349.300311 378 
L 349.300311 372.382726 
L 340.897884 372.382726 
L 340.897884 378 
z
" clip-path="url(#p393f111093)" style="fill: none"/>
   </g>
   <g id="patch_135">
    <path d="M 349.300311 378 
L 357.702738 378 
L 357.702738 374.040282 
L 349.300311 374.040282 
L 349.300311 378 
z
" clip-path="url(#p393f111093)" style="fill: none"/>
   </g>
   <g id="patch_136">
    <path d="M 357.702738 378 
L 366.105165 378 
L 366.105165 373.364981 
L 357.702738 373.364981 
L 357.702738 378 
z
" clip-path="url(#p393f111093)" style="fill: none"/>
   </g>
   <g id="patch_137">
    <path d="M 366.105165 378 
L 374.507592 378 
L 374.507592 370.940038 
L 366.105165 370.940038 
L 366.105165 378 
z
" clip-path="url(#p393f111093)" style="fill: none"/>
   </g>
   <g id="patch_138">
    <path d="M 374.507592 378 
L 382.91002 378 
L 382.91002 365.199982 
L 374.507592 365.199982 
L 374.507592 378 
z
" clip-path="url(#p393f111093)" style="fill: none"/>
   </g>
   <g id="patch_139">
    <path d="M 382.91002 378 
L 391.312447 378 
L 391.312447 360.38079 
L 382.91002 360.38079 
L 382.91002 378 
z
" clip-path="url(#p393f111093)" style="fill: none"/>
   </g>
   <g id="patch_140">
    <path d="M 391.312447 378 
L 399.714874 378 
L 399.714874 358.846016 
L 391.312447 358.846016 
L 391.312447 378 
z
" clip-path="url(#p393f111093)" style="fill: none"/>
   </g>
   <g id="patch_141">
    <path d="M 399.714874 378 
L 408.117301 378 
L 408.117301 348.501637 
L 399.714874 348.501637 
L 399.714874 378 
z
" clip-path="url(#p393f111093)" style="fill: none"/>
   </g>
   <g id="patch_142">
    <path d="M 408.117301 378 
L 416.519728 378 
L 416.519728 344.173573 
L 408.117301 344.173573 
L 408.117301 378 
z
" clip-path="url(#p393f111093)" style="fill: none"/>
   </g>
   <g id="patch_143">
    <path d="M 416.519728 378 
L 424.922155 378 
L 424.922155 349.453197 
L 416.519728 349.453197 
L 416.519728 378 
z
" clip-path="url(#p393f111093)" style="fill: none"/>
   </g>
   <g id="patch_144">
    <path d="M 424.922155 378 
L 433.324583 378 
L 433.324583 357.434023 
L 424.922155 357.434023 
L 424.922155 378 
z
" clip-path="url(#p393f111093)" style="fill: none"/>
   </g>
   <g id="patch_145">
    <path d="M 433.324583 378 
L 441.72701 378 
L 441.72701 366.427801 
L 433.324583 366.427801 
L 433.324583 378 
z
" clip-path="url(#p393f111093)" style="fill: none"/>
   </g>
   <g id="patch_146">
    <path d="M 441.72701 378 
L 450.129437 378 
L 450.129437 363.204775 
L 441.72701 363.204775 
L 441.72701 378 
z
" clip-path="url(#p393f111093)" style="fill: none"/>
   </g>
   <g id="patch_147">
    <path d="M 450.129437 378 
L 458.531864 378 
L 458.531864 364.279117 
L 450.129437 364.279117 
L 450.129437 378 
z
" clip-path="url(#p393f111093)" style="fill: none"/>
   </g>
   <g id="patch_148">
    <path d="M 458.531864 378 
L 466.934291 378 
L 466.934291 365.936673 
L 458.531864 365.936673 
L 458.531864 378 
z
" clip-path="url(#p393f111093)" style="fill: none"/>
   </g>
   <g id="patch_149">
    <path d="M 466.934291 378 
L 475.336718 378 
L 475.336718 369.650827 
L 466.934291 369.650827 
L 466.934291 378 
z
" clip-path="url(#p393f111093)" style="fill: none"/>
   </g>
   <g id="patch_150">
    <path d="M 475.336718 378 
L 483.739146 378 
L 483.739146 361.33235 
L 475.336718 361.33235 
L 475.336718 378 
z
" clip-path="url(#p393f111093)" style="fill: none"/>
   </g>
   <g id="patch_151">
    <path d="M 483.739146 378 
L 492.141573 378 
L 492.141573 374.285846 
L 483.739146 374.285846 
L 483.739146 378 
z
" clip-path="url(#p393f111093)" style="fill: none"/>
   </g>
   <g id="patch_152">
    <path d="M 492.141573 378 
L 500.544 378 
L 500.544 377.693045 
L 492.141573 377.693045 
L 492.141573 378 
z
" clip-path="url(#p393f111093)" style="fill: none"/>
   </g>
   <g id="patch_153">
    <path d="M 80.422642 378 
L 88.825069 378 
L 88.825069 377.785132 
L 80.422642 377.785132 
L 80.422642 378 
z
" clip-path="url(#p393f111093)" style="fill: none"/>
   </g>
   <g id="patch_154">
    <path d="M 88.825069 378 
L 97.227496 378 
L 97.227496 377.877218 
L 88.825069 377.877218 
L 88.825069 378 
z
" clip-path="url(#p393f111093)" style="fill: none"/>
   </g>
   <g id="patch_155">
    <path d="M 97.227496 378 
L 105.629923 378 
L 105.629923 377.600959 
L 97.227496 377.600959 
L 97.227496 378 
z
" clip-path="url(#p393f111093)" style="fill: none"/>
   </g>
   <g id="patch_156">
    <path d="M 105.629923 378 
L 114.03235 378 
L 114.03235 376.495921 
L 105.629923 376.495921 
L 105.629923 378 
z
" clip-path="url(#p393f111093)" style="fill: none"/>
   </g>
   <g id="patch_157">
    <path d="M 114.03235 378 
L 122.434777 378 
L 122.434777 374.377932 
L 114.03235 374.377932 
L 114.03235 378 
z
" clip-path="url(#p393f111093)" style="fill: none"/>
   </g>
   <g id="patch_158">
    <path d="M 122.434777 378 
L 130.837205 378 
L 130.837205 368.760658 
L 122.434777 368.760658 
L 122.434777 378 
z
" clip-path="url(#p393f111093)" style="fill: none"/>
   </g>
   <g id="patch_159">
    <path d="M 130.837205 378 
L 139.239632 378 
L 139.239632 358.201411 
L 130.837205 358.201411 
L 130.837205 378 
z
" clip-path="url(#p393f111093)" style="fill: none"/>
   </g>
   <g id="patch_160">
    <path d="M 139.239632 378 
L 147.642059 378 
L 147.642059 353.013873 
L 139.239632 353.013873 
L 139.239632 378 
z
" clip-path="url(#p393f111093)" style="fill: none"/>
   </g>
   <g id="patch_161">
    <path d="M 147.642059 378 
L 156.044486 378 
L 156.044486 357.894456 
L 147.642059 357.894456 
L 147.642059 378 
z
" clip-path="url(#p393f111093)" style="fill: none"/>
   </g>
   <g id="patch_162">
    <path d="M 156.044486 378 
L 164.446913 378 
L 164.446913 360.534268 
L 156.044486 360.534268 
L 156.044486 378 
z
" clip-path="url(#p393f111093)" style="fill: none"/>
   </g>
   <g id="patch_163">
    <path d="M 164.446913 378 
L 172.84934 378 
L 172.84934 360.442181 
L 164.446913 360.442181 
L 164.446913 378 
z
" clip-path="url(#p393f111093)" style="fill: none"/>
   </g>
   <g id="patch_164">
    <path d="M 172.84934 378 
L 181.251768 378 
L 181.251768 356.9122 
L 172.84934 356.9122 
L 172.84934 378 
z
" clip-path="url(#p393f111093)" style="fill: none"/>
   </g>
   <g id="patch_165">
    <path d="M 181.251768 378 
L 189.654195 378 
L 189.654195 352.737614 
L 181.251768 352.737614 
L 181.251768 378 
z
" clip-path="url(#p393f111093)" style="fill: none"/>
   </g>
   <g id="patch_166">
    <path d="M 189.654195 378 
L 198.056622 378 
L 198.056622 354.210997 
L 189.654195 354.210997 
L 189.654195 378 
z
" clip-path="url(#p393f111093)" style="fill: none"/>
   </g>
   <g id="patch_167">
    <path d="M 198.056622 378 
L 206.459049 378 
L 206.459049 354.978384 
L 198.056622 354.978384 
L 198.056622 378 
z
" clip-path="url(#p393f111093)" style="fill: none"/>
   </g>
   <g id="patch_168">
    <path d="M 206.459049 378 
L 214.861476 378 
L 214.861476 353.259437 
L 206.459049 353.259437 
L 206.459049 378 
z
" clip-path="url(#p393f111093)" style="fill: none"/>
   </g>
   <g id="patch_169">
    <path d="M 214.861476 378 
L 223.263903 378 
L 223.263903 356.144813 
L 214.861476 356.144813 
L 214.861476 378 
z
" clip-path="url(#p393f111093)" style="fill: none"/>
   </g>
   <g id="patch_170">
    <path d="M 223.263903 378 
L 231.666331 378 
L 231.666331 350.128497 
L 223.263903 350.128497 
L 223.263903 378 
z
" clip-path="url(#p393f111093)" style="fill: none"/>
   </g>
   <g id="patch_171">
    <path d="M 231.666331 378 
L 240.068758 378 
L 240.068758 347.979813 
L 231.666331 347.979813 
L 231.666331 378 
z
" clip-path="url(#p393f111093)" style="fill: none"/>
   </g>
   <g id="patch_172">
    <path d="M 240.068758 378 
L 248.471185 378 
L 248.471185 341.011938 
L 240.068758 341.011938 
L 240.068758 378 
z
" clip-path="url(#p393f111093)" style="fill: none"/>
   </g>
   <g id="patch_173">
    <path d="M 248.471185 378 
L 256.873612 378 
L 256.873612 339.661336 
L 248.471185 339.661336 
L 248.471185 378 
z
" clip-path="url(#p393f111093)" style="fill: none"/>
   </g>
   <g id="patch_174">
    <path d="M 256.873612 378 
L 265.276039 378 
L 265.276039 339.968291 
L 256.873612 339.968291 
L 256.873612 378 
z
" clip-path="url(#p393f111093)" style="fill: none"/>
   </g>
   <g id="patch_175">
    <path d="M 265.276039 378 
L 273.678466 378 
L 273.678466 333.951976 
L 265.276039 333.951976 
L 265.276039 378 
z
" clip-path="url(#p393f111093)" style="fill: none"/>
   </g>
   <g id="patch_176">
    <path d="M 273.678466 378 
L 282.080894 378 
L 282.080894 333.338066 
L 273.678466 333.338066 
L 273.678466 378 
z
" clip-path="url(#p393f111093)" style="fill: none"/>
   </g>
   <g id="patch_177">
    <path d="M 282.080894 378 
L 290.483321 378 
L 290.483321 341.779325 
L 282.080894 341.779325 
L 282.080894 378 
z
" clip-path="url(#p393f111093)" style="fill: none"/>
   </g>
   <g id="patch_178">
    <path d="M 290.483321 378 
L 298.885748 378 
L 298.885748 348.7472 
L 290.483321 348.7472 
L 290.483321 378 
z
" clip-path="url(#p393f111093)" style="fill: none"/>
   </g>
   <g id="patch_179">
    <path d="M 298.885748 378 
L 307.288175 378 
L 307.288175 352.860396 
L 298.885748 352.860396 
L 298.885748 378 
z
" clip-path="url(#p393f111093)" style="fill: none"/>
   </g>
   <g id="patch_180">
    <path d="M 307.288175 378 
L 315.690602 378 
L 315.690602 356.513159 
L 307.288175 356.513159 
L 307.288175 378 
z
" clip-path="url(#p393f111093)" style="fill: none"/>
   </g>
   <g id="patch_181">
    <path d="M 315.690602 378 
L 324.093029 378 
L 324.093029 360.841223 
L 315.690602 360.841223 
L 315.690602 378 
z
" clip-path="url(#p393f111093)" style="fill: none"/>
   </g>
   <g id="patch_182">
    <path d="M 324.093029 378 
L 332.495457 378 
L 332.495457 364.678158 
L 324.093029 364.678158 
L 324.093029 378 
z
" clip-path="url(#p393f111093)" style="fill: none"/>
   </g>
   <g id="patch_183">
    <path d="M 332.495457 378 
L 340.897884 378 
L 340.897884 369.681523 
L 332.495457 369.681523 
L 332.495457 378 
z
" clip-path="url(#p393f111093)" style="fill: none"/>
   </g>
   <g id="patch_184">
    <path d="M 340.897884 378 
L 349.300311 378 
L 349.300311 374.470019 
L 340.897884 374.470019 
L 340.897884 378 
z
" clip-path="url(#p393f111093)" style="fill: none"/>
   </g>
   <g id="patch_185">
    <path d="M 349.300311 378 
L 357.702738 378 
L 357.702738 375.544361 
L 349.300311 375.544361 
L 349.300311 378 
z
" clip-path="url(#p393f111093)" style="fill: none"/>
   </g>
   <g id="patch_186">
    <path d="M 357.702738 378 
L 366.105165 378 
L 366.105165 374.776974 
L 357.702738 374.776974 
L 357.702738 378 
z
" clip-path="url(#p393f111093)" style="fill: none"/>
   </g>
   <g id="patch_187">
    <path d="M 366.105165 378 
L 374.507592 378 
L 374.507592 372.96594 
L 366.105165 372.96594 
L 366.105165 378 
z
" clip-path="url(#p393f111093)" style="fill: none"/>
   </g>
   <g id="patch_188">
    <path d="M 374.507592 378 
L 382.91002 378 
L 382.91002 369.528045 
L 374.507592 369.528045 
L 374.507592 378 
z
" clip-path="url(#p393f111093)" style="fill: none"/>
   </g>
   <g id="patch_189">
    <path d="M 382.91002 378 
L 391.312447 378 
L 391.312447 366.151542 
L 382.91002 366.151542 
L 382.91002 378 
z
" clip-path="url(#p393f111093)" style="fill: none"/>
   </g>
   <g id="patch_190">
    <path d="M 391.312447 378 
L 399.714874 378 
L 399.714874 364.401899 
L 391.312447 364.401899 
L 391.312447 378 
z
" clip-path="url(#p393f111093)" style="fill: none"/>
   </g>
   <g id="patch_191">
    <path d="M 399.714874 378 
L 408.117301 378 
L 408.117301 358.600452 
L 399.714874 358.600452 
L 399.714874 378 
z
" clip-path="url(#p393f111093)" style="fill: none"/>
   </g>
   <g id="patch_192">
    <path d="M 408.117301 378 
L 416.519728 378 
L 416.519728 356.451768 
L 408.117301 356.451768 
L 408.117301 378 
z
" clip-path="url(#p393f111093)" style="fill: none"/>
   </g>
   <g id="patch_193">
    <path d="M 416.519728 378 
L 424.922155 378 
L 424.922155 359.337144 
L 416.519728 359.337144 
L 416.519728 378 
z
" clip-path="url(#p393f111093)" style="fill: none"/>
   </g>
   <g id="patch_194">
    <path d="M 424.922155 378 
L 433.324583 378 
L 433.324583 365.506937 
L 424.922155 365.506937 
L 424.922155 378 
z
" clip-path="url(#p393f111093)" style="fill: none"/>
   </g>
   <g id="patch_195">
    <path d="M 433.324583 378 
L 441.72701 378 
L 441.72701 369.865696 
L 433.324583 369.865696 
L 433.324583 378 
z
" clip-path="url(#p393f111093)" style="fill: none"/>
   </g>
   <g id="patch_196">
    <path d="M 441.72701 378 
L 450.129437 378 
L 450.129437 368.023967 
L 441.72701 368.023967 
L 441.72701 378 
z
" clip-path="url(#p393f111093)" style="fill: none"/>
   </g>
   <g id="patch_197">
    <path d="M 450.129437 378 
L 458.531864 378 
L 458.531864 367.440752 
L 450.129437 367.440752 
L 450.129437 378 
z
" clip-path="url(#p393f111093)" style="fill: none"/>
   </g>
   <g id="patch_198">
    <path d="M 458.531864 378 
L 466.934291 378 
L 466.934291 371.032124 
L 458.531864 371.032124 
L 458.531864 378 
z
" clip-path="url(#p393f111093)" style="fill: none"/>
   </g>
   <g id="patch_199">
    <path d="M 466.934291 378 
L 475.336718 378 
L 475.336718 372.536203 
L 466.934291 372.536203 
L 466.934291 378 
z
" clip-path="url(#p393f111093)" style="fill: none"/>
   </g>
   <g id="patch_200">
    <path d="M 475.336718 378 
L 483.739146 378 
L 483.739146 366.888234 
L 475.336718 366.888234 
L 475.336718 378 
z
" clip-path="url(#p393f111093)" style="fill: none"/>
   </g>
   <g id="patch_201">
    <path d="M 483.739146 378 
L 492.141573 378 
L 492.141573 374.807669 
L 483.739146 374.807669 
L 483.739146 378 
z
" clip-path="url(#p393f111093)" style="fill: none"/>
   </g>
   <g id="patch_202">
    <path d="M 492.141573 378 
L 500.544 378 
L 500.544 377.66235 
L 492.141573 377.66235 
L 492.141573 378 
z
" clip-path="url(#p393f111093)" style="fill: none"/>
   </g>
   <g id="matplotlib.axis_1">
    <g id="xtick_1">
     <g id="line2d_1">
      <defs>
       <path id="m9b86be15b4" d="M 0 0 
L 0 3.5 
" style="stroke: #000000; stroke-width: 0.8"/>
      </defs>
      <g>
       <use xlink:href="#m9b86be15b4" x="72" y="378" style="stroke: #000000; stroke-width: 0.8"/>
      </g>
     </g>
     <g id="text_1">
      <!-- 0.00 -->
      <g transform="translate(60.867188 392.598437)scale(0.1 -0.1)">
       <defs>
        <path id="DejaVuSans-30" d="M 2034 4250 
Q 1547 4250 1301 3770 
Q 1056 3291 1056 2328 
Q 1056 1369 1301 889 
Q 1547 409 2034 409 
Q 2525 409 2770 889 
Q 3016 1369 3016 2328 
Q 3016 3291 2770 3770 
Q 2525 4250 2034 4250 
z
M 2034 4750 
Q 2819 4750 3233 4129 
Q 3647 3509 3647 2328 
Q 3647 1150 3233 529 
Q 2819 -91 2034 -91 
Q 1250 -91 836 529 
Q 422 1150 422 2328 
Q 422 3509 836 4129 
Q 1250 4750 2034 4750 
z
" transform="scale(0.015625)"/>
        <path id="DejaVuSans-2e" d="M 684 794 
L 1344 794 
L 1344 0 
L 684 0 
L 684 794 
z
" transform="scale(0.015625)"/>
       </defs>
       <use xlink:href="#DejaVuSans-30"/>
       <use xlink:href="#DejaVuSans-2e" x="63.623047"/>
       <use xlink:href="#DejaVuSans-30" x="95.410156"/>
       <use xlink:href="#DejaVuSans-30" x="159.033203"/>
      </g>
     </g>
    </g>
    <g id="xtick_2">
     <g id="line2d_2">
      <g>
       <use xlink:href="#m9b86be15b4" x="183.6" y="378" style="stroke: #000000; stroke-width: 0.8"/>
      </g>
     </g>
     <g id="text_2">
      <!-- 0.25 -->
      <g transform="translate(172.467187 392.598437)scale(0.1 -0.1)">
       <defs>
        <path id="DejaVuSans-32" d="M 1228 531 
L 3431 531 
L 3431 0 
L 469 0 
L 469 531 
Q 828 903 1448 1529 
Q 2069 2156 2228 2338 
Q 2531 2678 2651 2914 
Q 2772 3150 2772 3378 
Q 2772 3750 2511 3984 
Q 2250 4219 1831 4219 
Q 1534 4219 1204 4116 
Q 875 4013 500 3803 
L 500 4441 
Q 881 4594 1212 4672 
Q 1544 4750 1819 4750 
Q 2544 4750 2975 4387 
Q 3406 4025 3406 3419 
Q 3406 3131 3298 2873 
Q 3191 2616 2906 2266 
Q 2828 2175 2409 1742 
Q 1991 1309 1228 531 
z
" transform="scale(0.015625)"/>
        <path id="DejaVuSans-35" d="M 691 4666 
L 3169 4666 
L 3169 4134 
L 1269 4134 
L 1269 2991 
Q 1406 3038 1543 3061 
Q 1681 3084 1819 3084 
Q 2600 3084 3056 2656 
Q 3513 2228 3513 1497 
Q 3513 744 3044 326 
Q 2575 -91 1722 -91 
Q 1428 -91 1123 -41 
Q 819 9 494 109 
L 494 744 
Q 775 591 1075 516 
Q 1375 441 1709 441 
Q 2250 441 2565 725 
Q 2881 1009 2881 1497 
Q 2881 1984 2565 2268 
Q 2250 2553 1709 2553 
Q 1456 2553 1204 2497 
Q 953 2441 691 2322 
L 691 4666 
z
" transform="scale(0.015625)"/>
       </defs>
       <use xlink:href="#DejaVuSans-30"/>
       <use xlink:href="#DejaVuSans-2e" x="63.623047"/>
       <use xlink:href="#DejaVuSans-32" x="95.410156"/>
       <use xlink:href="#DejaVuSans-35" x="159.033203"/>
      </g>
     </g>
    </g>
    <g id="xtick_3">
     <g id="line2d_3">
      <g>
       <use xlink:href="#m9b86be15b4" x="295.2" y="378" style="stroke: #000000; stroke-width: 0.8"/>
      </g>
     </g>
     <g id="text_3">
      <!-- 0.50 -->
      <g transform="translate(284.067187 392.598437)scale(0.1 -0.1)">
       <use xlink:href="#DejaVuSans-30"/>
       <use xlink:href="#DejaVuSans-2e" x="63.623047"/>
       <use xlink:href="#DejaVuSans-35" x="95.410156"/>
       <use xlink:href="#DejaVuSans-30" x="159.033203"/>
      </g>
     </g>
    </g>
    <g id="xtick_4">
     <g id="line2d_4">
      <g>
       <use xlink:href="#m9b86be15b4" x="406.8" y="378" style="stroke: #000000; stroke-width: 0.8"/>
      </g>
     </g>
     <g id="text_4">
      <!-- 0.75 -->
      <g transform="translate(395.667187 392.598437)scale(0.1 -0.1)">
       <defs>
        <path id="DejaVuSans-37" d="M 525 4666 
L 3525 4666 
L 3525 4397 
L 1831 0 
L 1172 0 
L 2766 4134 
L 525 4134 
L 525 4666 
z
" transform="scale(0.015625)"/>
       </defs>
       <use xlink:href="#DejaVuSans-30"/>
       <use xlink:href="#DejaVuSans-2e" x="63.623047"/>
       <use xlink:href="#DejaVuSans-37" x="95.410156"/>
       <use xlink:href="#DejaVuSans-35" x="159.033203"/>
      </g>
     </g>
    </g>
    <g id="xtick_5">
     <g id="line2d_5">
      <g>
       <use xlink:href="#m9b86be15b4" x="518.4" y="378" style="stroke: #000000; stroke-width: 0.8"/>
      </g>
     </g>
     <g id="text_5">
      <!-- 1.00 -->
      <g transform="translate(507.267187 392.598437)scale(0.1 -0.1)">
       <defs>
        <path id="DejaVuSans-31" d="M 794 531 
L 1825 531 
L 1825 4091 
L 703 3866 
L 703 4441 
L 1819 4666 
L 2450 4666 
L 2450 531 
L 3481 531 
L 3481 0 
L 794 0 
L 794 531 
z
" transform="scale(0.015625)"/>
       </defs>
       <use xlink:href="#DejaVuSans-31"/>
       <use xlink:href="#DejaVuSans-2e" x="63.623047"/>
       <use xlink:href="#DejaVuSans-30" x="95.410156"/>
       <use xlink:href="#DejaVuSans-30" x="159.033203"/>
      </g>
     </g>
    </g>
    <g id="text_6">
     <!-- ratio_roeske -->
     <g transform="translate(264.697656 406.276563)scale(0.1 -0.1)">
      <defs>
       <path id="DejaVuSans-72" d="M 2631 2963 
Q 2534 3019 2420 3045 
Q 2306 3072 2169 3072 
Q 1681 3072 1420 2755 
Q 1159 2438 1159 1844 
L 1159 0 
L 581 0 
L 581 3500 
L 1159 3500 
L 1159 2956 
Q 1341 3275 1631 3429 
Q 1922 3584 2338 3584 
Q 2397 3584 2469 3576 
Q 2541 3569 2628 3553 
L 2631 2963 
z
" transform="scale(0.015625)"/>
       <path id="DejaVuSans-61" d="M 2194 1759 
Q 1497 1759 1228 1600 
Q 959 1441 959 1056 
Q 959 750 1161 570 
Q 1363 391 1709 391 
Q 2188 391 2477 730 
Q 2766 1069 2766 1631 
L 2766 1759 
L 2194 1759 
z
M 3341 1997 
L 3341 0 
L 2766 0 
L 2766 531 
Q 2569 213 2275 61 
Q 1981 -91 1556 -91 
Q 1019 -91 701 211 
Q 384 513 384 1019 
Q 384 1609 779 1909 
Q 1175 2209 1959 2209 
L 2766 2209 
L 2766 2266 
Q 2766 2663 2505 2880 
Q 2244 3097 1772 3097 
Q 1472 3097 1187 3025 
Q 903 2953 641 2809 
L 641 3341 
Q 956 3463 1253 3523 
Q 1550 3584 1831 3584 
Q 2591 3584 2966 3190 
Q 3341 2797 3341 1997 
z
" transform="scale(0.015625)"/>
       <path id="DejaVuSans-74" d="M 1172 4494 
L 1172 3500 
L 2356 3500 
L 2356 3053 
L 1172 3053 
L 1172 1153 
Q 1172 725 1289 603 
Q 1406 481 1766 481 
L 2356 481 
L 2356 0 
L 1766 0 
Q 1100 0 847 248 
Q 594 497 594 1153 
L 594 3053 
L 172 3053 
L 172 3500 
L 594 3500 
L 594 4494 
L 1172 4494 
z
" transform="scale(0.015625)"/>
       <path id="DejaVuSans-69" d="M 603 3500 
L 1178 3500 
L 1178 0 
L 603 0 
L 603 3500 
z
M 603 4863 
L 1178 4863 
L 1178 4134 
L 603 4134 
L 603 4863 
z
" transform="scale(0.015625)"/>
       <path id="DejaVuSans-6f" d="M 1959 3097 
Q 1497 3097 1228 2736 
Q 959 2375 959 1747 
Q 959 1119 1226 758 
Q 1494 397 1959 397 
Q 2419 397 2687 759 
Q 2956 1122 2956 1747 
Q 2956 2369 2687 2733 
Q 2419 3097 1959 3097 
z
M 1959 3584 
Q 2709 3584 3137 3096 
Q 3566 2609 3566 1747 
Q 3566 888 3137 398 
Q 2709 -91 1959 -91 
Q 1206 -91 779 398 
Q 353 888 353 1747 
Q 353 2609 779 3096 
Q 1206 3584 1959 3584 
z
" transform="scale(0.015625)"/>
       <path id="DejaVuSans-5f" d="M 3263 -1063 
L 3263 -1509 
L -63 -1509 
L -63 -1063 
L 3263 -1063 
z
" transform="scale(0.015625)"/>
       <path id="DejaVuSans-65" d="M 3597 1894 
L 3597 1613 
L 953 1613 
Q 991 1019 1311 708 
Q 1631 397 2203 397 
Q 2534 397 2845 478 
Q 3156 559 3463 722 
L 3463 178 
Q 3153 47 2828 -22 
Q 2503 -91 2169 -91 
Q 1331 -91 842 396 
Q 353 884 353 1716 
Q 353 2575 817 3079 
Q 1281 3584 2069 3584 
Q 2775 3584 3186 3129 
Q 3597 2675 3597 1894 
z
M 3022 2063 
Q 3016 2534 2758 2815 
Q 2500 3097 2075 3097 
Q 1594 3097 1305 2825 
Q 1016 2553 972 2059 
L 3022 2063 
z
" transform="scale(0.015625)"/>
       <path id="DejaVuSans-73" d="M 2834 3397 
L 2834 2853 
Q 2591 2978 2328 3040 
Q 2066 3103 1784 3103 
Q 1356 3103 1142 2972 
Q 928 2841 928 2578 
Q 928 2378 1081 2264 
Q 1234 2150 1697 2047 
L 1894 2003 
Q 2506 1872 2764 1633 
Q 3022 1394 3022 966 
Q 3022 478 2636 193 
Q 2250 -91 1575 -91 
Q 1294 -91 989 -36 
Q 684 19 347 128 
L 347 722 
Q 666 556 975 473 
Q 1284 391 1588 391 
Q 1994 391 2212 530 
Q 2431 669 2431 922 
Q 2431 1156 2273 1281 
Q 2116 1406 1581 1522 
L 1381 1569 
Q 847 1681 609 1914 
Q 372 2147 372 2553 
Q 372 3047 722 3315 
Q 1072 3584 1716 3584 
Q 2034 3584 2315 3537 
Q 2597 3491 2834 3397 
z
" transform="scale(0.015625)"/>
       <path id="DejaVuSans-6b" d="M 581 4863 
L 1159 4863 
L 1159 1991 
L 2875 3500 
L 3609 3500 
L 1753 1863 
L 3688 0 
L 2938 0 
L 1159 1709 
L 1159 0 
L 581 0 
L 581 4863 
z
" transform="scale(0.015625)"/>
      </defs>
      <use xlink:href="#DejaVuSans-72"/>
      <use xlink:href="#DejaVuSans-61" x="41.113281"/>
      <use xlink:href="#DejaVuSans-74" x="102.392578"/>
      <use xlink:href="#DejaVuSans-69" x="141.601562"/>
      <use xlink:href="#DejaVuSans-6f" x="169.384766"/>
      <use xlink:href="#DejaVuSans-5f" x="230.566406"/>
      <use xlink:href="#DejaVuSans-72" x="280.566406"/>
      <use xlink:href="#DejaVuSans-6f" x="319.429688"/>
      <use xlink:href="#DejaVuSans-65" x="380.611328"/>
      <use xlink:href="#DejaVuSans-73" x="442.134766"/>
      <use xlink:href="#DejaVuSans-6b" x="494.234375"/>
      <use xlink:href="#DejaVuSans-65" x="548.519531"/>
     </g>
    </g>
   </g>
   <g id="matplotlib.axis_2">
    <g id="ytick_1">
     <g id="line2d_6">
      <defs>
       <path id="m8f4f0a6b5d" d="M 0 0 
L -3.5 0 
" style="stroke: #000000; stroke-width: 0.8"/>
      </defs>
      <g>
       <use xlink:href="#m8f4f0a6b5d" x="72" y="378" style="stroke: #000000; stroke-width: 0.8"/>
      </g>
     </g>
     <g id="text_7">
      <!-- 0 -->
      <g transform="translate(58.6375 381.799219)scale(0.1 -0.1)">
       <use xlink:href="#DejaVuSans-30"/>
      </g>
     </g>
    </g>
    <g id="ytick_2">
     <g id="line2d_7">
      <g>
       <use xlink:href="#m8f4f0a6b5d" x="72" y="338.363812" style="stroke: #000000; stroke-width: 0.8"/>
      </g>
     </g>
     <g id="text_8">
      <!-- 1 -->
      <g transform="translate(58.6375 342.16303)scale(0.1 -0.1)">
       <use xlink:href="#DejaVuSans-31"/>
      </g>
     </g>
    </g>
    <g id="ytick_3">
     <g id="line2d_8">
      <g>
       <use xlink:href="#m8f4f0a6b5d" x="72" y="298.727623" style="stroke: #000000; stroke-width: 0.8"/>
      </g>
     </g>
     <g id="text_9">
      <!-- 2 -->
      <g transform="translate(58.6375 302.526842)scale(0.1 -0.1)">
       <use xlink:href="#DejaVuSans-32"/>
      </g>
     </g>
    </g>
    <g id="ytick_4">
     <g id="line2d_9">
      <g>
       <use xlink:href="#m8f4f0a6b5d" x="72" y="259.091435" style="stroke: #000000; stroke-width: 0.8"/>
      </g>
     </g>
     <g id="text_10">
      <!-- 3 -->
      <g transform="translate(58.6375 262.890654)scale(0.1 -0.1)">
       <defs>
        <path id="DejaVuSans-33" d="M 2597 2516 
Q 3050 2419 3304 2112 
Q 3559 1806 3559 1356 
Q 3559 666 3084 287 
Q 2609 -91 1734 -91 
Q 1441 -91 1130 -33 
Q 819 25 488 141 
L 488 750 
Q 750 597 1062 519 
Q 1375 441 1716 441 
Q 2309 441 2620 675 
Q 2931 909 2931 1356 
Q 2931 1769 2642 2001 
Q 2353 2234 1838 2234 
L 1294 2234 
L 1294 2753 
L 1863 2753 
Q 2328 2753 2575 2939 
Q 2822 3125 2822 3475 
Q 2822 3834 2567 4026 
Q 2313 4219 1838 4219 
Q 1578 4219 1281 4162 
Q 984 4106 628 3988 
L 628 4550 
Q 988 4650 1302 4700 
Q 1616 4750 1894 4750 
Q 2613 4750 3031 4423 
Q 3450 4097 3450 3541 
Q 3450 3153 3228 2886 
Q 3006 2619 2597 2516 
z
" transform="scale(0.015625)"/>
       </defs>
       <use xlink:href="#DejaVuSans-33"/>
      </g>
     </g>
    </g>
    <g id="ytick_5">
     <g id="line2d_10">
      <g>
       <use xlink:href="#m8f4f0a6b5d" x="72" y="219.455247" style="stroke: #000000; stroke-width: 0.8"/>
      </g>
     </g>
     <g id="text_11">
      <!-- 4 -->
      <g transform="translate(58.6375 223.254466)scale(0.1 -0.1)">
       <defs>
        <path id="DejaVuSans-34" d="M 2419 4116 
L 825 1625 
L 2419 1625 
L 2419 4116 
z
M 2253 4666 
L 3047 4666 
L 3047 1625 
L 3713 1625 
L 3713 1100 
L 3047 1100 
L 3047 0 
L 2419 0 
L 2419 1100 
L 313 1100 
L 313 1709 
L 2253 4666 
z
" transform="scale(0.015625)"/>
       </defs>
       <use xlink:href="#DejaVuSans-34"/>
      </g>
     </g>
    </g>
    <g id="ytick_6">
     <g id="line2d_11">
      <g>
       <use xlink:href="#m8f4f0a6b5d" x="72" y="179.819059" style="stroke: #000000; stroke-width: 0.8"/>
      </g>
     </g>
     <g id="text_12">
      <!-- 5 -->
      <g transform="translate(58.6375 183.618277)scale(0.1 -0.1)">
       <use xlink:href="#DejaVuSans-35"/>
      </g>
     </g>
    </g>
    <g id="ytick_7">
     <g id="line2d_12">
      <g>
       <use xlink:href="#m8f4f0a6b5d" x="72" y="140.18287" style="stroke: #000000; stroke-width: 0.8"/>
      </g>
     </g>
     <g id="text_13">
      <!-- 6 -->
      <g transform="translate(58.6375 143.982089)scale(0.1 -0.1)">
       <defs>
        <path id="DejaVuSans-36" d="M 2113 2584 
Q 1688 2584 1439 2293 
Q 1191 2003 1191 1497 
Q 1191 994 1439 701 
Q 1688 409 2113 409 
Q 2538 409 2786 701 
Q 3034 994 3034 1497 
Q 3034 2003 2786 2293 
Q 2538 2584 2113 2584 
z
M 3366 4563 
L 3366 3988 
Q 3128 4100 2886 4159 
Q 2644 4219 2406 4219 
Q 1781 4219 1451 3797 
Q 1122 3375 1075 2522 
Q 1259 2794 1537 2939 
Q 1816 3084 2150 3084 
Q 2853 3084 3261 2657 
Q 3669 2231 3669 1497 
Q 3669 778 3244 343 
Q 2819 -91 2113 -91 
Q 1303 -91 875 529 
Q 447 1150 447 2328 
Q 447 3434 972 4092 
Q 1497 4750 2381 4750 
Q 2619 4750 2861 4703 
Q 3103 4656 3366 4563 
z
" transform="scale(0.015625)"/>
       </defs>
       <use xlink:href="#DejaVuSans-36"/>
      </g>
     </g>
    </g>
    <g id="ytick_8">
     <g id="line2d_13">
      <g>
       <use xlink:href="#m8f4f0a6b5d" x="72" y="100.546682" style="stroke: #000000; stroke-width: 0.8"/>
      </g>
     </g>
     <g id="text_14">
      <!-- 7 -->
      <g transform="translate(58.6375 104.345901)scale(0.1 -0.1)">
       <use xlink:href="#DejaVuSans-37"/>
      </g>
     </g>
    </g>
    <g id="ytick_9">
     <g id="line2d_14">
      <g>
       <use xlink:href="#m8f4f0a6b5d" x="72" y="60.910494" style="stroke: #000000; stroke-width: 0.8"/>
      </g>
     </g>
     <g id="text_15">
      <!-- 8 -->
      <g transform="translate(58.6375 64.709713)scale(0.1 -0.1)">
       <defs>
        <path id="DejaVuSans-38" d="M 2034 2216 
Q 1584 2216 1326 1975 
Q 1069 1734 1069 1313 
Q 1069 891 1326 650 
Q 1584 409 2034 409 
Q 2484 409 2743 651 
Q 3003 894 3003 1313 
Q 3003 1734 2745 1975 
Q 2488 2216 2034 2216 
z
M 1403 2484 
Q 997 2584 770 2862 
Q 544 3141 544 3541 
Q 544 4100 942 4425 
Q 1341 4750 2034 4750 
Q 2731 4750 3128 4425 
Q 3525 4100 3525 3541 
Q 3525 3141 3298 2862 
Q 3072 2584 2669 2484 
Q 3125 2378 3379 2068 
Q 3634 1759 3634 1313 
Q 3634 634 3220 271 
Q 2806 -91 2034 -91 
Q 1263 -91 848 271 
Q 434 634 434 1313 
Q 434 1759 690 2068 
Q 947 2378 1403 2484 
z
M 1172 3481 
Q 1172 3119 1398 2916 
Q 1625 2713 2034 2713 
Q 2441 2713 2670 2916 
Q 2900 3119 2900 3481 
Q 2900 3844 2670 4047 
Q 2441 4250 2034 4250 
Q 1625 4250 1398 4047 
Q 1172 3844 1172 3481 
z
" transform="scale(0.015625)"/>
       </defs>
       <use xlink:href="#DejaVuSans-38"/>
      </g>
     </g>
    </g>
    <g id="text_16">
     <!-- Density -->
     <g transform="translate(52.557812 233.928594)rotate(-90)scale(0.1 -0.1)">
      <defs>
       <path id="DejaVuSans-44" d="M 1259 4147 
L 1259 519 
L 2022 519 
Q 2988 519 3436 956 
Q 3884 1394 3884 2338 
Q 3884 3275 3436 3711 
Q 2988 4147 2022 4147 
L 1259 4147 
z
M 628 4666 
L 1925 4666 
Q 3281 4666 3915 4102 
Q 4550 3538 4550 2338 
Q 4550 1131 3912 565 
Q 3275 0 1925 0 
L 628 0 
L 628 4666 
z
" transform="scale(0.015625)"/>
       <path id="DejaVuSans-6e" d="M 3513 2113 
L 3513 0 
L 2938 0 
L 2938 2094 
Q 2938 2591 2744 2837 
Q 2550 3084 2163 3084 
Q 1697 3084 1428 2787 
Q 1159 2491 1159 1978 
L 1159 0 
L 581 0 
L 581 3500 
L 1159 3500 
L 1159 2956 
Q 1366 3272 1645 3428 
Q 1925 3584 2291 3584 
Q 2894 3584 3203 3211 
Q 3513 2838 3513 2113 
z
" transform="scale(0.015625)"/>
       <path id="DejaVuSans-79" d="M 2059 -325 
Q 1816 -950 1584 -1140 
Q 1353 -1331 966 -1331 
L 506 -1331 
L 506 -850 
L 844 -850 
Q 1081 -850 1212 -737 
Q 1344 -625 1503 -206 
L 1606 56 
L 191 3500 
L 800 3500 
L 1894 763 
L 2988 3500 
L 3597 3500 
L 2059 -325 
z
" transform="scale(0.015625)"/>
      </defs>
      <use xlink:href="#DejaVuSans-44"/>
      <use xlink:href="#DejaVuSans-65" x="77.001953"/>
      <use xlink:href="#DejaVuSans-6e" x="138.525391"/>
      <use xlink:href="#DejaVuSans-73" x="201.904297"/>
      <use xlink:href="#DejaVuSans-69" x="254.003906"/>
      <use xlink:href="#DejaVuSans-74" x="281.787109"/>
      <use xlink:href="#DejaVuSans-79" x="320.996094"/>
     </g>
    </g>
   </g>
   <g id="line2d_15">
    <path d="M 170.359322 375.905776 
L 172.236952 376.047526 
L 175.053397 376.630688 
L 177.869842 377.163913 
L 179.747471 377.24854 
L 181.625101 377.0337 
L 183.502731 376.518295 
L 185.380361 375.755589 
L 191.013251 373.146866 
L 192.890881 372.656616 
L 194.768511 372.518424 
L 198.52377 372.617552 
L 199.462585 372.420161 
L 200.4014 372.002104 
L 201.340215 371.303853 
L 202.27903 370.279318 
L 203.217845 368.899638 
L 204.15666 367.154542 
L 205.095475 365.051271 
L 206.973105 359.866178 
L 208.850735 353.598961 
L 210.728365 346.477569 
L 212.605995 338.545595 
L 214.483625 329.586823 
L 216.361254 319.191156 
L 218.238884 306.985454 
L 220.116514 292.945659 
L 222.932959 269.634794 
L 235.137553 167.049572 
L 237.015183 153.283412 
L 238.892813 141.35977 
L 240.770443 131.015266 
L 242.648073 122.197685 
L 243.586888 118.555574 
L 244.525703 115.628776 
L 245.464518 113.601245 
L 246.403333 112.646806 
L 247.342148 112.901005 
L 248.280963 114.441304 
L 249.219778 117.27973 
L 250.158592 121.368716 
L 251.097407 126.617427 
L 252.036222 132.913433 
L 253.913852 148.20883 
L 255.791482 166.5392 
L 257.669112 187.358491 
L 264.240817 264.622837 
L 266.118447 282.236773 
L 267.996076 296.825102 
L 269.873706 309.154792 
L 272.690151 325.361798 
L 274.567781 335.140685 
L 276.445411 343.795518 
L 278.323041 350.927222 
L 279.261856 353.868469 
L 280.200671 356.409735 
L 281.139486 358.585868 
L 282.078301 360.442432 
L 283.955931 363.399144 
L 285.83356 365.67148 
L 287.71119 367.578122 
L 290.527635 370.129507 
L 293.34408 372.333797 
L 295.22171 373.529845 
L 298.038155 374.966514 
L 300.8546 376.147188 
L 303.671044 377.075821 
L 305.548674 377.49848 
L 308.365119 377.843755 
L 312.120379 377.97981 
L 325.263788 378 
L 357.183496 378 
L 357.183496 378 
" clip-path="url(#p393f111093)" style="fill: none; stroke: #a5e10f; stroke-width: 1.5; stroke-linecap: square"/>
   </g>
   <g id="line2d_16">
    <path d="M 170.359322 378 
L 224.810589 377.896597 
L 227.627034 377.684446 
L 230.443479 377.203407 
L 232.321108 376.66995 
L 234.198738 375.955912 
L 240.770443 373.058374 
L 242.648073 372.553351 
L 244.525703 372.265656 
L 248.280963 371.83044 
L 250.158592 371.268002 
L 251.097407 370.803057 
L 252.036222 370.182771 
L 252.975037 369.386225 
L 253.913852 368.395942 
L 254.852667 367.198179 
L 255.791482 365.783214 
L 256.730297 364.14564 
L 258.607927 360.204048 
L 260.485557 355.422098 
L 262.363187 349.911582 
L 265.179632 340.594155 
L 267.996076 330.369472 
L 270.812521 319.382871 
L 273.628966 307.484218 
L 276.445411 294.368684 
L 279.261856 279.963515 
L 283.955931 255.576344 
L 285.83356 247.26051 
L 287.71119 240.497294 
L 288.650005 237.747667 
L 289.58882 235.403261 
L 290.527635 233.430982 
L 291.46645 231.788961 
L 292.405265 230.435023 
L 293.34408 229.335265 
L 294.282895 228.471393 
L 295.22171 227.84564 
L 296.160525 227.482408 
L 297.09934 227.426311 
L 298.038155 227.736809 
L 298.97697 228.480172 
L 299.915785 229.719912 
L 300.8546 231.507084 
L 301.793415 233.871843 
L 302.732229 236.817489 
L 303.671044 240.317834 
L 305.548674 248.740049 
L 308.365119 263.550723 
L 312.120379 283.548561 
L 314.936824 297.082842 
L 317.753269 309.220457 
L 319.630898 316.520501 
L 321.508528 323.07296 
L 323.386158 328.781197 
L 325.263788 333.653169 
L 327.141418 337.838871 
L 329.957863 343.381201 
L 337.468382 357.48523 
L 339.346012 360.576916 
L 341.223642 363.191645 
L 343.101272 365.252484 
L 344.978902 366.776441 
L 346.856532 367.865789 
L 349.672977 369.03538 
L 353.428237 370.555233 
L 356.244681 372.030328 
L 357.183496 372.579457 
L 357.183496 372.579457 
" clip-path="url(#p393f111093)" style="fill: none; stroke: #24b4b1; stroke-width: 1.5; stroke-linecap: square"/>
   </g>
   <g id="line2d_17">
    <path d="M 80.422642 377.827659 
L 90.978455 377.541563 
L 95.20078 377.276223 
L 99.423105 376.826664 
L 103.64543 376.095463 
L 105.756593 375.586592 
L 107.867755 374.958591 
L 109.978918 374.191984 
L 112.090081 373.267004 
L 114.201243 372.16539 
L 116.312406 370.872942 
L 118.423568 369.382628 
L 120.534731 367.697822 
L 124.757056 363.825827 
L 133.201707 355.42453 
L 135.312869 353.576299 
L 137.424032 351.962106 
L 139.535194 350.629118 
L 141.646357 349.60511 
L 143.75752 348.895817 
L 145.868682 348.484621 
L 147.979845 348.334599 
L 150.091007 348.392646 
L 154.313333 348.873982 
L 158.535658 349.405095 
L 160.646821 349.552107 
L 162.757983 349.571886 
L 164.869146 349.44694 
L 166.980308 349.174391 
L 169.091471 348.76431 
L 173.313796 347.621275 
L 183.869609 344.336711 
L 188.091934 343.406142 
L 192.31426 342.817432 
L 196.536585 342.5112 
L 209.20356 341.984225 
L 213.425886 341.443452 
L 215.537048 341.024549 
L 217.648211 340.489649 
L 219.759373 339.831746 
L 221.870536 339.049476 
L 226.092861 337.135088 
L 230.315186 334.840245 
L 236.648674 330.999668 
L 242.982162 327.130697 
L 247.204487 324.746032 
L 251.426813 322.607812 
L 255.649138 320.729653 
L 259.871463 319.084765 
L 264.093788 317.678369 
L 266.204951 317.099961 
L 268.316113 316.645835 
L 270.427276 316.35942 
L 272.538439 316.289262 
L 274.649601 316.482323 
L 276.760764 316.976288 
L 278.871926 317.792384 
L 280.983089 318.930269 
L 283.094252 320.366213 
L 285.205414 322.055102 
L 289.427739 325.940261 
L 295.761227 332.068901 
L 299.983552 335.861952 
L 304.205878 339.340171 
L 310.539366 344.180718 
L 325.317504 355.271146 
L 337.984479 365.069973 
L 342.206805 367.806744 
L 344.317967 368.956158 
L 346.42913 369.934657 
L 348.540292 370.731854 
L 350.651455 371.343841 
L 352.762618 371.772061 
L 354.87378 372.021727 
L 356.984943 372.100205 
L 359.096105 372.01575 
L 361.207268 371.7768 
L 363.318431 371.391916 
L 365.429593 370.870207 
L 369.651918 369.459492 
L 373.874244 367.650277 
L 378.096569 365.572588 
L 386.541219 361.057094 
L 401.319358 352.894469 
L 403.43052 351.89388 
L 405.541683 351.034661 
L 407.652845 350.361991 
L 409.764008 349.917642 
L 411.875171 349.73508 
L 413.986333 349.835119 
L 416.097496 350.22275 
L 418.208658 350.885601 
L 420.319821 351.794211 
L 422.430984 352.904104 
L 426.653309 355.497466 
L 430.875634 358.170137 
L 432.986797 359.393776 
L 435.097959 360.487169 
L 437.209122 361.427585 
L 439.320284 362.208422 
L 441.431447 362.838055 
L 445.653772 363.733344 
L 451.98726 364.605586 
L 466.765398 366.330494 
L 473.098886 367.076059 
L 477.321211 367.921817 
L 479.432374 368.517609 
L 483.654699 370.062135 
L 494.210512 374.639717 
L 498.432837 376.020642 
L 500.544 376.540424 
L 500.544 376.540424 
" clip-path="url(#p393f111093)" style="fill: none; stroke-dasharray: 5.55,2.4; stroke-dashoffset: 0; stroke: #a5e10f; stroke-width: 1.5"/>
   </g>
   <g id="line2d_18">
    <path d="M 80.422642 377.868994 
L 90.978455 377.623606 
L 97.311942 377.243067 
L 101.534268 376.785235 
L 105.756593 376.076512 
L 109.978918 375.029231 
L 114.201243 373.559454 
L 118.423568 371.61742 
L 122.645894 369.231518 
L 135.312869 361.391107 
L 137.424032 360.378031 
L 139.535194 359.537466 
L 141.646357 358.883669 
L 143.75752 358.418558 
L 145.868682 358.131792 
L 147.979845 358.002061 
L 152.20217 358.088059 
L 160.646821 358.621814 
L 164.869146 358.597606 
L 169.091471 358.244792 
L 173.313796 357.608188 
L 185.980772 355.323607 
L 190.203097 354.832667 
L 194.425422 354.530746 
L 211.314723 353.696538 
L 215.537048 353.145885 
L 219.759373 352.312703 
L 223.981699 351.169139 
L 228.204024 349.741531 
L 234.537512 347.253322 
L 242.982162 343.879018 
L 247.204487 342.365657 
L 251.426813 341.013297 
L 255.649138 339.818218 
L 259.871463 338.787286 
L 264.093788 337.979552 
L 268.316113 337.523648 
L 270.427276 337.480801 
L 272.538439 337.589263 
L 274.649601 337.865096 
L 276.760764 338.317484 
L 278.871926 338.946978 
L 280.983089 339.744726 
L 283.094252 340.692883 
L 287.316577 342.934311 
L 302.094715 351.50223 
L 310.539366 355.845061 
L 323.206341 362.35593 
L 331.650992 366.733738 
L 335.873317 368.764488 
L 340.095642 370.564684 
L 344.317967 372.03591 
L 348.540292 373.099108 
L 350.651455 373.462608 
L 352.762618 373.711245 
L 356.984943 373.870297 
L 361.207268 373.607674 
L 365.429593 372.975376 
L 369.651918 372.036184 
L 373.874244 370.858818 
L 380.207731 368.798411 
L 401.319358 361.559517 
L 405.541683 360.586479 
L 407.652845 360.266625 
L 409.764008 360.081477 
L 411.875171 360.043332 
L 413.986333 360.158147 
L 416.097496 360.424393 
L 418.208658 360.832564 
L 422.430984 361.998886 
L 435.097959 366.213454 
L 439.320284 367.193123 
L 443.54261 367.87565 
L 449.876097 368.580005 
L 477.321211 371.395413 
L 481.543537 372.173816 
L 485.765862 373.184549 
L 496.321675 375.919229 
L 500.544 376.731423 
L 500.544 376.731423 
" clip-path="url(#p393f111093)" style="fill: none; stroke-dasharray: 5.55,2.4; stroke-dashoffset: 0; stroke: #24b4b1; stroke-width: 1.5"/>
   </g>
   <g id="patch_203">
    <path d="M 72 378 
L 72 51.84 
" style="fill: none; stroke: #000000; stroke-width: 0.8; stroke-linejoin: miter; stroke-linecap: square"/>
   </g>
   <g id="patch_204">
    <path d="M 518.4 378 
L 518.4 51.84 
" style="fill: none; stroke: #000000; stroke-width: 0.8; stroke-linejoin: miter; stroke-linecap: square"/>
   </g>
   <g id="patch_205">
    <path d="M 72 378 
L 518.4 378 
" style="fill: none; stroke: #000000; stroke-width: 0.8; stroke-linejoin: miter; stroke-linecap: square"/>
   </g>
   <g id="patch_206">
    <path d="M 72 51.84 
L 518.4 51.84 
" style="fill: none; stroke: #000000; stroke-width: 0.8; stroke-linejoin: miter; stroke-linecap: square"/>
   </g>
   <g id="legend_1">
    <g id="patch_207">
     <path d="M 466.675 103.874375 
L 511.4 103.874375 
Q 513.4 103.874375 513.4 101.874375 
L 513.4 58.84 
Q 513.4 56.84 511.4 56.84 
L 466.675 56.84 
Q 464.675 56.84 464.675 58.84 
L 464.675 101.874375 
Q 464.675 103.874375 466.675 103.874375 
z
" style="fill: #ffffff; opacity: 0.8; stroke: #cccccc; stroke-linejoin: miter"/>
    </g>
    <g id="text_17">
     <!-- label2 -->
     <g transform="translate(473.763281 68.438437)scale(0.1 -0.1)">
      <defs>
       <path id="DejaVuSans-6c" d="M 603 4863 
L 1178 4863 
L 1178 0 
L 603 0 
L 603 4863 
z
" transform="scale(0.015625)"/>
       <path id="DejaVuSans-62" d="M 3116 1747 
Q 3116 2381 2855 2742 
Q 2594 3103 2138 3103 
Q 1681 3103 1420 2742 
Q 1159 2381 1159 1747 
Q 1159 1113 1420 752 
Q 1681 391 2138 391 
Q 2594 391 2855 752 
Q 3116 1113 3116 1747 
z
M 1159 2969 
Q 1341 3281 1617 3432 
Q 1894 3584 2278 3584 
Q 2916 3584 3314 3078 
Q 3713 2572 3713 1747 
Q 3713 922 3314 415 
Q 2916 -91 2278 -91 
Q 1894 -91 1617 61 
Q 1341 213 1159 525 
L 1159 0 
L 581 0 
L 581 4863 
L 1159 4863 
L 1159 2969 
z
" transform="scale(0.015625)"/>
      </defs>
      <use xlink:href="#DejaVuSans-6c"/>
      <use xlink:href="#DejaVuSans-61" x="27.783203"/>
      <use xlink:href="#DejaVuSans-62" x="89.0625"/>
      <use xlink:href="#DejaVuSans-65" x="152.539062"/>
      <use xlink:href="#DejaVuSans-6c" x="214.0625"/>
      <use xlink:href="#DejaVuSans-32" x="241.845703"/>
     </g>
    </g>
    <g id="patch_208">
     <path d="M 468.675 83.116562 
L 488.675 83.116562 
L 488.675 76.116562 
L 468.675 76.116562 
L 468.675 83.116562 
z
" style="fill: none"/>
    </g>
    <g id="text_18">
     <!-- 0 -->
     <g transform="translate(496.675 83.116562)scale(0.1 -0.1)">
      <use xlink:href="#DejaVuSans-30"/>
     </g>
    </g>
    <g id="patch_209">
     <path d="M 468.675 97.794688 
L 488.675 97.794688 
L 488.675 90.794688 
L 468.675 90.794688 
L 468.675 97.794688 
z
" style="fill: none"/>
    </g>
    <g id="text_19">
     <!-- 21 -->
     <g transform="translate(496.675 97.794688)scale(0.1 -0.1)">
      <use xlink:href="#DejaVuSans-32"/>
      <use xlink:href="#DejaVuSans-31" x="63.623047"/>
     </g>
    </g>
   </g>
  </g>
 </g>
 <defs>
  <clipPath id="p393f111093">
   <rect x="72" y="51.84" width="446.4" height="326.16"/>
  </clipPath>
 </defs>
</svg>
