<?xml version="1.0" encoding="utf-8" standalone="no"?>
<!DOCTYPE svg PUBLIC "-//W3C//DTD SVG 1.1//EN"
  "http://www.w3.org/Graphics/SVG/1.1/DTD/svg11.dtd">
<svg xmlns:xlink="http://www.w3.org/1999/xlink" width="576pt" height="432pt" viewBox="0 0 576 432" xmlns="http://www.w3.org/2000/svg" version="1.1">
 <metadata>
  <rdf:RDF xmlns:dc="http://purl.org/dc/elements/1.1/" xmlns:cc="http://creativecommons.org/ns#" xmlns:rdf="http://www.w3.org/1999/02/22-rdf-syntax-ns#">
   <cc:Work>
    <dc:type rdf:resource="http://purl.org/dc/dcmitype/StillImage"/>
    <dc:date>2022-04-12T13:56:26.062571</dc:date>
    <dc:format>image/svg+xml</dc:format>
    <dc:creator>
     <cc:Agent>
      <dc:title>Matplotlib v3.5.1, https://matplotlib.org/</dc:title>
     </cc:Agent>
    </dc:creator>
   </cc:Work>
  </rdf:RDF>
 </metadata>
 <defs>
  <style type="text/css">*{stroke-linejoin: round; stroke-linecap: butt}</style>
 </defs>
 <g id="figure_1">
  <g id="patch_1">
   <path d="M 0 432 
L 576 432 
L 576 0 
L 0 0 
L 0 432 
z
" style="fill: none"/>
  </g>
  <g id="axes_1">
   <g id="patch_2">
    <path d="M 72 378 
L 518.4 378 
L 518.4 51.84 
L 72 51.84 
z
" style="fill: #ffffff"/>
   </g>
   <g id="patch_3">
    <path d="M 264.340706 378 
L 268.611399 378 
L 268.611399 378 
L 264.340706 378 
z
" clip-path="url(#p251d105a0c)" style="fill: #a5e10f; fill-opacity: 0.5"/>
   </g>
   <g id="patch_4">
    <path d="M 268.611399 378 
L 272.882093 378 
L 272.882093 378 
L 268.611399 378 
z
" clip-path="url(#p251d105a0c)" style="fill: #a5e10f; fill-opacity: 0.5"/>
   </g>
   <g id="patch_5">
    <path d="M 272.882093 378 
L 277.152787 378 
L 277.152787 378 
L 272.882093 378 
z
" clip-path="url(#p251d105a0c)" style="fill: #a5e10f; fill-opacity: 0.5"/>
   </g>
   <g id="patch_6">
    <path d="M 277.152787 378 
L 281.423481 378 
L 281.423481 378 
L 277.152787 378 
z
" clip-path="url(#p251d105a0c)" style="fill: #a5e10f; fill-opacity: 0.5"/>
   </g>
   <g id="patch_7">
    <path d="M 281.423481 378 
L 285.694175 378 
L 285.694175 378 
L 281.423481 378 
z
" clip-path="url(#p251d105a0c)" style="fill: #a5e10f; fill-opacity: 0.5"/>
   </g>
   <g id="patch_8">
    <path d="M 285.694175 378 
L 289.964868 378 
L 289.964868 378 
L 285.694175 378 
z
" clip-path="url(#p251d105a0c)" style="fill: #a5e10f; fill-opacity: 0.5"/>
   </g>
   <g id="patch_9">
    <path d="M 289.964868 378 
L 294.235562 378 
L 294.235562 378 
L 289.964868 378 
z
" clip-path="url(#p251d105a0c)" style="fill: #a5e10f; fill-opacity: 0.5"/>
   </g>
   <g id="patch_10">
    <path d="M 294.235562 378 
L 298.506256 378 
L 298.506256 378 
L 294.235562 378 
z
" clip-path="url(#p251d105a0c)" style="fill: #a5e10f; fill-opacity: 0.5"/>
   </g>
   <g id="patch_11">
    <path d="M 298.506256 378 
L 302.77695 378 
L 302.77695 378 
L 298.506256 378 
z
" clip-path="url(#p251d105a0c)" style="fill: #a5e10f; fill-opacity: 0.5"/>
   </g>
   <g id="patch_12">
    <path d="M 302.77695 378 
L 307.047644 378 
L 307.047644 378 
L 302.77695 378 
z
" clip-path="url(#p251d105a0c)" style="fill: #a5e10f; fill-opacity: 0.5"/>
   </g>
   <g id="patch_13">
    <path d="M 307.047644 378 
L 311.318337 378 
L 311.318337 378 
L 307.047644 378 
z
" clip-path="url(#p251d105a0c)" style="fill: #a5e10f; fill-opacity: 0.5"/>
   </g>
   <g id="patch_14">
    <path d="M 311.318337 378 
L 315.589031 378 
L 315.589031 378 
L 311.318337 378 
z
" clip-path="url(#p251d105a0c)" style="fill: #a5e10f; fill-opacity: 0.5"/>
   </g>
   <g id="patch_15">
    <path d="M 315.589031 378 
L 319.859725 378 
L 319.859725 378 
L 315.589031 378 
z
" clip-path="url(#p251d105a0c)" style="fill: #a5e10f; fill-opacity: 0.5"/>
   </g>
   <g id="patch_16">
    <path d="M 319.859725 378 
L 324.130419 378 
L 324.130419 378 
L 319.859725 378 
z
" clip-path="url(#p251d105a0c)" style="fill: #a5e10f; fill-opacity: 0.5"/>
   </g>
   <g id="patch_17">
    <path d="M 324.130419 378 
L 328.401112 378 
L 328.401112 378 
L 324.130419 378 
z
" clip-path="url(#p251d105a0c)" style="fill: #a5e10f; fill-opacity: 0.5"/>
   </g>
   <g id="patch_18">
    <path d="M 328.401112 378 
L 332.671806 378 
L 332.671806 378 
L 328.401112 378 
z
" clip-path="url(#p251d105a0c)" style="fill: #a5e10f; fill-opacity: 0.5"/>
   </g>
   <g id="patch_19">
    <path d="M 332.671806 378 
L 336.9425 378 
L 336.9425 378 
L 332.671806 378 
z
" clip-path="url(#p251d105a0c)" style="fill: #a5e10f; fill-opacity: 0.5"/>
   </g>
   <g id="patch_20">
    <path d="M 336.9425 378 
L 341.213194 378 
L 341.213194 378 
L 336.9425 378 
z
" clip-path="url(#p251d105a0c)" style="fill: #a5e10f; fill-opacity: 0.5"/>
   </g>
   <g id="patch_21">
    <path d="M 341.213194 378 
L 345.483888 378 
L 345.483888 378 
L 341.213194 378 
z
" clip-path="url(#p251d105a0c)" style="fill: #a5e10f; fill-opacity: 0.5"/>
   </g>
   <g id="patch_22">
    <path d="M 345.483888 378 
L 349.754581 378 
L 349.754581 378 
L 345.483888 378 
z
" clip-path="url(#p251d105a0c)" style="fill: #a5e10f; fill-opacity: 0.5"/>
   </g>
   <g id="patch_23">
    <path d="M 349.754581 378 
L 354.025275 378 
L 354.025275 378 
L 349.754581 378 
z
" clip-path="url(#p251d105a0c)" style="fill: #a5e10f; fill-opacity: 0.5"/>
   </g>
   <g id="patch_24">
    <path d="M 354.025275 378 
L 358.295969 378 
L 358.295969 378 
L 354.025275 378 
z
" clip-path="url(#p251d105a0c)" style="fill: #a5e10f; fill-opacity: 0.5"/>
   </g>
   <g id="patch_25">
    <path d="M 358.295969 378 
L 362.566663 378 
L 362.566663 378 
L 358.295969 378 
z
" clip-path="url(#p251d105a0c)" style="fill: #a5e10f; fill-opacity: 0.5"/>
   </g>
   <g id="patch_26">
    <path d="M 362.566663 378 
L 366.837357 378 
L 366.837357 378 
L 362.566663 378 
z
" clip-path="url(#p251d105a0c)" style="fill: #a5e10f; fill-opacity: 0.5"/>
   </g>
   <g id="patch_27">
    <path d="M 366.837357 378 
L 371.10805 378 
L 371.10805 378 
L 366.837357 378 
z
" clip-path="url(#p251d105a0c)" style="fill: #a5e10f; fill-opacity: 0.5"/>
   </g>
   <g id="patch_28">
    <path d="M 371.10805 378 
L 375.378744 378 
L 375.378744 378 
L 371.10805 378 
z
" clip-path="url(#p251d105a0c)" style="fill: #a5e10f; fill-opacity: 0.5"/>
   </g>
   <g id="patch_29">
    <path d="M 375.378744 378 
L 379.649438 378 
L 379.649438 369.825564 
L 375.378744 369.825564 
z
" clip-path="url(#p251d105a0c)" style="fill: #a5e10f; fill-opacity: 0.5"/>
   </g>
   <g id="patch_30">
    <path d="M 379.649438 378 
L 383.920132 378 
L 383.920132 369.825564 
L 379.649438 369.825564 
z
" clip-path="url(#p251d105a0c)" style="fill: #a5e10f; fill-opacity: 0.5"/>
   </g>
   <g id="patch_31">
    <path d="M 383.920132 378 
L 388.190825 378 
L 388.190825 378 
L 383.920132 378 
z
" clip-path="url(#p251d105a0c)" style="fill: #a5e10f; fill-opacity: 0.5"/>
   </g>
   <g id="patch_32">
    <path d="M 388.190825 378 
L 392.461519 378 
L 392.461519 361.651128 
L 388.190825 361.651128 
z
" clip-path="url(#p251d105a0c)" style="fill: #a5e10f; fill-opacity: 0.5"/>
   </g>
   <g id="patch_33">
    <path d="M 392.461519 378 
L 396.732213 378 
L 396.732213 361.651128 
L 392.461519 361.651128 
z
" clip-path="url(#p251d105a0c)" style="fill: #a5e10f; fill-opacity: 0.5"/>
   </g>
   <g id="patch_34">
    <path d="M 396.732213 378 
L 401.002907 378 
L 401.002907 361.651128 
L 396.732213 361.651128 
z
" clip-path="url(#p251d105a0c)" style="fill: #a5e10f; fill-opacity: 0.5"/>
   </g>
   <g id="patch_35">
    <path d="M 401.002907 378 
L 405.273601 378 
L 405.273601 304.430075 
L 401.002907 304.430075 
z
" clip-path="url(#p251d105a0c)" style="fill: #a5e10f; fill-opacity: 0.5"/>
   </g>
   <g id="patch_36">
    <path d="M 405.273601 378 
L 409.544294 378 
L 409.544294 361.651128 
L 405.273601 361.651128 
z
" clip-path="url(#p251d105a0c)" style="fill: #a5e10f; fill-opacity: 0.5"/>
   </g>
   <g id="patch_37">
    <path d="M 409.544294 378 
L 413.814988 378 
L 413.814988 255.383459 
L 409.544294 255.383459 
z
" clip-path="url(#p251d105a0c)" style="fill: #a5e10f; fill-opacity: 0.5"/>
   </g>
   <g id="patch_38">
    <path d="M 413.814988 378 
L 418.085682 378 
L 418.085682 288.081203 
L 413.814988 288.081203 
z
" clip-path="url(#p251d105a0c)" style="fill: #a5e10f; fill-opacity: 0.5"/>
   </g>
   <g id="patch_39">
    <path d="M 418.085682 378 
L 422.356376 378 
L 422.356376 206.336842 
L 418.085682 206.336842 
z
" clip-path="url(#p251d105a0c)" style="fill: #a5e10f; fill-opacity: 0.5"/>
   </g>
   <g id="patch_40">
    <path d="M 422.356376 378 
L 426.62707 378 
L 426.62707 304.430075 
L 422.356376 304.430075 
z
" clip-path="url(#p251d105a0c)" style="fill: #a5e10f; fill-opacity: 0.5"/>
   </g>
   <g id="patch_41">
    <path d="M 426.62707 378 
L 430.897763 378 
L 430.897763 214.511278 
L 426.62707 214.511278 
z
" clip-path="url(#p251d105a0c)" style="fill: #a5e10f; fill-opacity: 0.5"/>
   </g>
   <g id="patch_42">
    <path d="M 430.897763 378 
L 435.168457 378 
L 435.168457 337.12782 
L 430.897763 337.12782 
z
" clip-path="url(#p251d105a0c)" style="fill: #a5e10f; fill-opacity: 0.5"/>
   </g>
   <g id="patch_43">
    <path d="M 435.168457 378 
L 439.439151 378 
L 439.439151 312.604511 
L 435.168457 312.604511 
z
" clip-path="url(#p251d105a0c)" style="fill: #a5e10f; fill-opacity: 0.5"/>
   </g>
   <g id="patch_44">
    <path d="M 439.439151 378 
L 443.709845 378 
L 443.709845 369.825564 
L 439.439151 369.825564 
z
" clip-path="url(#p251d105a0c)" style="fill: #a5e10f; fill-opacity: 0.5"/>
   </g>
   <g id="patch_45">
    <path d="M 443.709845 378 
L 447.980538 378 
L 447.980538 320.778947 
L 443.709845 320.778947 
z
" clip-path="url(#p251d105a0c)" style="fill: #a5e10f; fill-opacity: 0.5"/>
   </g>
   <g id="patch_46">
    <path d="M 447.980538 378 
L 452.251232 378 
L 452.251232 337.12782 
L 447.980538 337.12782 
z
" clip-path="url(#p251d105a0c)" style="fill: #a5e10f; fill-opacity: 0.5"/>
   </g>
   <g id="patch_47">
    <path d="M 452.251232 378 
L 456.521926 378 
L 456.521926 353.476692 
L 452.251232 353.476692 
z
" clip-path="url(#p251d105a0c)" style="fill: #a5e10f; fill-opacity: 0.5"/>
   </g>
   <g id="patch_48">
    <path d="M 456.521926 378 
L 460.79262 378 
L 460.79262 361.651128 
L 456.521926 361.651128 
z
" clip-path="url(#p251d105a0c)" style="fill: #a5e10f; fill-opacity: 0.5"/>
   </g>
   <g id="patch_49">
    <path d="M 460.79262 378 
L 465.063314 378 
L 465.063314 369.825564 
L 460.79262 369.825564 
z
" clip-path="url(#p251d105a0c)" style="fill: #a5e10f; fill-opacity: 0.5"/>
   </g>
   <g id="patch_50">
    <path d="M 465.063314 378 
L 469.334007 378 
L 469.334007 378 
L 465.063314 378 
z
" clip-path="url(#p251d105a0c)" style="fill: #a5e10f; fill-opacity: 0.5"/>
   </g>
   <g id="patch_51">
    <path d="M 469.334007 378 
L 473.604701 378 
L 473.604701 378 
L 469.334007 378 
z
" clip-path="url(#p251d105a0c)" style="fill: #a5e10f; fill-opacity: 0.5"/>
   </g>
   <g id="patch_52">
    <path d="M 473.604701 378 
L 477.875395 378 
L 477.875395 369.825564 
L 473.604701 369.825564 
z
" clip-path="url(#p251d105a0c)" style="fill: #a5e10f; fill-opacity: 0.5"/>
   </g>
   <g id="patch_53">
    <path d="M 264.340706 378 
L 268.611399 378 
L 268.611399 369.825564 
L 264.340706 369.825564 
z
" clip-path="url(#p251d105a0c)" style="fill: #24b4b1; fill-opacity: 0.5"/>
   </g>
   <g id="patch_54">
    <path d="M 268.611399 378 
L 272.882093 378 
L 272.882093 361.651128 
L 268.611399 361.651128 
z
" clip-path="url(#p251d105a0c)" style="fill: #24b4b1; fill-opacity: 0.5"/>
   </g>
   <g id="patch_55">
    <path d="M 272.882093 378 
L 277.152787 378 
L 277.152787 337.12782 
L 272.882093 337.12782 
z
" clip-path="url(#p251d105a0c)" style="fill: #24b4b1; fill-opacity: 0.5"/>
   </g>
   <g id="patch_56">
    <path d="M 277.152787 378 
L 281.423481 378 
L 281.423481 345.302256 
L 277.152787 345.302256 
z
" clip-path="url(#p251d105a0c)" style="fill: #24b4b1; fill-opacity: 0.5"/>
   </g>
   <g id="patch_57">
    <path d="M 281.423481 378 
L 285.694175 378 
L 285.694175 353.476692 
L 281.423481 353.476692 
z
" clip-path="url(#p251d105a0c)" style="fill: #24b4b1; fill-opacity: 0.5"/>
   </g>
   <g id="patch_58">
    <path d="M 285.694175 378 
L 289.964868 378 
L 289.964868 353.476692 
L 285.694175 353.476692 
z
" clip-path="url(#p251d105a0c)" style="fill: #24b4b1; fill-opacity: 0.5"/>
   </g>
   <g id="patch_59">
    <path d="M 289.964868 378 
L 294.235562 378 
L 294.235562 353.476692 
L 289.964868 353.476692 
z
" clip-path="url(#p251d105a0c)" style="fill: #24b4b1; fill-opacity: 0.5"/>
   </g>
   <g id="patch_60">
    <path d="M 294.235562 378 
L 298.506256 378 
L 298.506256 361.651128 
L 294.235562 361.651128 
z
" clip-path="url(#p251d105a0c)" style="fill: #24b4b1; fill-opacity: 0.5"/>
   </g>
   <g id="patch_61">
    <path d="M 298.506256 378 
L 302.77695 378 
L 302.77695 369.825564 
L 298.506256 369.825564 
z
" clip-path="url(#p251d105a0c)" style="fill: #24b4b1; fill-opacity: 0.5"/>
   </g>
   <g id="patch_62">
    <path d="M 302.77695 378 
L 307.047644 378 
L 307.047644 378 
L 302.77695 378 
z
" clip-path="url(#p251d105a0c)" style="fill: #24b4b1; fill-opacity: 0.5"/>
   </g>
   <g id="patch_63">
    <path d="M 307.047644 378 
L 311.318337 378 
L 311.318337 378 
L 307.047644 378 
z
" clip-path="url(#p251d105a0c)" style="fill: #24b4b1; fill-opacity: 0.5"/>
   </g>
   <g id="patch_64">
    <path d="M 311.318337 378 
L 315.589031 378 
L 315.589031 378 
L 311.318337 378 
z
" clip-path="url(#p251d105a0c)" style="fill: #24b4b1; fill-opacity: 0.5"/>
   </g>
   <g id="patch_65">
    <path d="M 315.589031 378 
L 319.859725 378 
L 319.859725 378 
L 315.589031 378 
z
" clip-path="url(#p251d105a0c)" style="fill: #24b4b1; fill-opacity: 0.5"/>
   </g>
   <g id="patch_66">
    <path d="M 319.859725 378 
L 324.130419 378 
L 324.130419 378 
L 319.859725 378 
z
" clip-path="url(#p251d105a0c)" style="fill: #24b4b1; fill-opacity: 0.5"/>
   </g>
   <g id="patch_67">
    <path d="M 324.130419 378 
L 328.401112 378 
L 328.401112 378 
L 324.130419 378 
z
" clip-path="url(#p251d105a0c)" style="fill: #24b4b1; fill-opacity: 0.5"/>
   </g>
   <g id="patch_68">
    <path d="M 328.401112 378 
L 332.671806 378 
L 332.671806 378 
L 328.401112 378 
z
" clip-path="url(#p251d105a0c)" style="fill: #24b4b1; fill-opacity: 0.5"/>
   </g>
   <g id="patch_69">
    <path d="M 332.671806 378 
L 336.9425 378 
L 336.9425 378 
L 332.671806 378 
z
" clip-path="url(#p251d105a0c)" style="fill: #24b4b1; fill-opacity: 0.5"/>
   </g>
   <g id="patch_70">
    <path d="M 336.9425 378 
L 341.213194 378 
L 341.213194 378 
L 336.9425 378 
z
" clip-path="url(#p251d105a0c)" style="fill: #24b4b1; fill-opacity: 0.5"/>
   </g>
   <g id="patch_71">
    <path d="M 341.213194 378 
L 345.483888 378 
L 345.483888 378 
L 341.213194 378 
z
" clip-path="url(#p251d105a0c)" style="fill: #24b4b1; fill-opacity: 0.5"/>
   </g>
   <g id="patch_72">
    <path d="M 345.483888 378 
L 349.754581 378 
L 349.754581 378 
L 345.483888 378 
z
" clip-path="url(#p251d105a0c)" style="fill: #24b4b1; fill-opacity: 0.5"/>
   </g>
   <g id="patch_73">
    <path d="M 349.754581 378 
L 354.025275 378 
L 354.025275 378 
L 349.754581 378 
z
" clip-path="url(#p251d105a0c)" style="fill: #24b4b1; fill-opacity: 0.5"/>
   </g>
   <g id="patch_74">
    <path d="M 354.025275 378 
L 358.295969 378 
L 358.295969 378 
L 354.025275 378 
z
" clip-path="url(#p251d105a0c)" style="fill: #24b4b1; fill-opacity: 0.5"/>
   </g>
   <g id="patch_75">
    <path d="M 358.295969 378 
L 362.566663 378 
L 362.566663 378 
L 358.295969 378 
z
" clip-path="url(#p251d105a0c)" style="fill: #24b4b1; fill-opacity: 0.5"/>
   </g>
   <g id="patch_76">
    <path d="M 362.566663 378 
L 366.837357 378 
L 366.837357 378 
L 362.566663 378 
z
" clip-path="url(#p251d105a0c)" style="fill: #24b4b1; fill-opacity: 0.5"/>
   </g>
   <g id="patch_77">
    <path d="M 366.837357 378 
L 371.10805 378 
L 371.10805 369.825564 
L 366.837357 369.825564 
z
" clip-path="url(#p251d105a0c)" style="fill: #24b4b1; fill-opacity: 0.5"/>
   </g>
   <g id="patch_78">
    <path d="M 371.10805 378 
L 375.378744 378 
L 375.378744 369.825564 
L 371.10805 369.825564 
z
" clip-path="url(#p251d105a0c)" style="fill: #24b4b1; fill-opacity: 0.5"/>
   </g>
   <g id="patch_79">
    <path d="M 375.378744 378 
L 379.649438 378 
L 379.649438 369.825564 
L 375.378744 369.825564 
z
" clip-path="url(#p251d105a0c)" style="fill: #24b4b1; fill-opacity: 0.5"/>
   </g>
   <g id="patch_80">
    <path d="M 379.649438 378 
L 383.920132 378 
L 383.920132 361.651128 
L 379.649438 361.651128 
z
" clip-path="url(#p251d105a0c)" style="fill: #24b4b1; fill-opacity: 0.5"/>
   </g>
   <g id="patch_81">
    <path d="M 383.920132 378 
L 388.190825 378 
L 388.190825 328.953383 
L 383.920132 328.953383 
z
" clip-path="url(#p251d105a0c)" style="fill: #24b4b1; fill-opacity: 0.5"/>
   </g>
   <g id="patch_82">
    <path d="M 388.190825 378 
L 392.461519 378 
L 392.461519 369.825564 
L 388.190825 369.825564 
z
" clip-path="url(#p251d105a0c)" style="fill: #24b4b1; fill-opacity: 0.5"/>
   </g>
   <g id="patch_83">
    <path d="M 392.461519 378 
L 396.732213 378 
L 396.732213 345.302256 
L 392.461519 345.302256 
z
" clip-path="url(#p251d105a0c)" style="fill: #24b4b1; fill-opacity: 0.5"/>
   </g>
   <g id="patch_84">
    <path d="M 396.732213 378 
L 401.002907 378 
L 401.002907 288.081203 
L 396.732213 288.081203 
z
" clip-path="url(#p251d105a0c)" style="fill: #24b4b1; fill-opacity: 0.5"/>
   </g>
   <g id="patch_85">
    <path d="M 401.002907 378 
L 405.273601 378 
L 405.273601 230.86015 
L 401.002907 230.86015 
z
" clip-path="url(#p251d105a0c)" style="fill: #24b4b1; fill-opacity: 0.5"/>
   </g>
   <g id="patch_86">
    <path d="M 405.273601 378 
L 409.544294 378 
L 409.544294 214.511278 
L 405.273601 214.511278 
z
" clip-path="url(#p251d105a0c)" style="fill: #24b4b1; fill-opacity: 0.5"/>
   </g>
   <g id="patch_87">
    <path d="M 409.544294 378 
L 413.814988 378 
L 413.814988 108.243609 
L 409.544294 108.243609 
z
" clip-path="url(#p251d105a0c)" style="fill: #24b4b1; fill-opacity: 0.5"/>
   </g>
   <g id="patch_88">
    <path d="M 413.814988 378 
L 418.085682 378 
L 418.085682 67.371429 
L 413.814988 67.371429 
z
" clip-path="url(#p251d105a0c)" style="fill: #24b4b1; fill-opacity: 0.5"/>
   </g>
   <g id="patch_89">
    <path d="M 418.085682 378 
L 422.356376 378 
L 422.356376 149.115789 
L 418.085682 149.115789 
z
" clip-path="url(#p251d105a0c)" style="fill: #24b4b1; fill-opacity: 0.5"/>
   </g>
   <g id="patch_90">
    <path d="M 422.356376 378 
L 426.62707 378 
L 426.62707 206.336842 
L 422.356376 206.336842 
z
" clip-path="url(#p251d105a0c)" style="fill: #24b4b1; fill-opacity: 0.5"/>
   </g>
   <g id="patch_91">
    <path d="M 426.62707 378 
L 430.897763 378 
L 430.897763 271.732331 
L 426.62707 271.732331 
z
" clip-path="url(#p251d105a0c)" style="fill: #24b4b1; fill-opacity: 0.5"/>
   </g>
   <g id="patch_92">
    <path d="M 430.897763 378 
L 435.168457 378 
L 435.168457 353.476692 
L 430.897763 353.476692 
z
" clip-path="url(#p251d105a0c)" style="fill: #24b4b1; fill-opacity: 0.5"/>
   </g>
   <g id="patch_93">
    <path d="M 435.168457 378 
L 439.439151 378 
L 439.439151 353.476692 
L 435.168457 353.476692 
z
" clip-path="url(#p251d105a0c)" style="fill: #24b4b1; fill-opacity: 0.5"/>
   </g>
   <g id="patch_94">
    <path d="M 439.439151 378 
L 443.709845 378 
L 443.709845 378 
L 439.439151 378 
z
" clip-path="url(#p251d105a0c)" style="fill: #24b4b1; fill-opacity: 0.5"/>
   </g>
   <g id="patch_95">
    <path d="M 443.709845 378 
L 447.980538 378 
L 447.980538 378 
L 443.709845 378 
z
" clip-path="url(#p251d105a0c)" style="fill: #24b4b1; fill-opacity: 0.5"/>
   </g>
   <g id="patch_96">
    <path d="M 447.980538 378 
L 452.251232 378 
L 452.251232 378 
L 447.980538 378 
z
" clip-path="url(#p251d105a0c)" style="fill: #24b4b1; fill-opacity: 0.5"/>
   </g>
   <g id="patch_97">
    <path d="M 452.251232 378 
L 456.521926 378 
L 456.521926 378 
L 452.251232 378 
z
" clip-path="url(#p251d105a0c)" style="fill: #24b4b1; fill-opacity: 0.5"/>
   </g>
   <g id="patch_98">
    <path d="M 456.521926 378 
L 460.79262 378 
L 460.79262 369.825564 
L 456.521926 369.825564 
z
" clip-path="url(#p251d105a0c)" style="fill: #24b4b1; fill-opacity: 0.5"/>
   </g>
   <g id="patch_99">
    <path d="M 460.79262 378 
L 465.063314 378 
L 465.063314 378 
L 460.79262 378 
z
" clip-path="url(#p251d105a0c)" style="fill: #24b4b1; fill-opacity: 0.5"/>
   </g>
   <g id="patch_100">
    <path d="M 465.063314 378 
L 469.334007 378 
L 469.334007 378 
L 465.063314 378 
z
" clip-path="url(#p251d105a0c)" style="fill: #24b4b1; fill-opacity: 0.5"/>
   </g>
   <g id="patch_101">
    <path d="M 469.334007 378 
L 473.604701 378 
L 473.604701 378 
L 469.334007 378 
z
" clip-path="url(#p251d105a0c)" style="fill: #24b4b1; fill-opacity: 0.5"/>
   </g>
   <g id="patch_102">
    <path d="M 473.604701 378 
L 477.875395 378 
L 477.875395 378 
L 473.604701 378 
z
" clip-path="url(#p251d105a0c)" style="fill: #24b4b1; fill-opacity: 0.5"/>
   </g>
   <g id="patch_103">
    <path d="M 80.422642 378 
L 88.825069 378 
L 88.825069 377.874007 
L 80.422642 377.874007 
L 80.422642 378 
z
" clip-path="url(#p251d105a0c)" style="fill: none"/>
   </g>
   <g id="patch_104">
    <path d="M 88.825069 378 
L 97.227496 378 
L 97.227496 377.958002 
L 88.825069 377.958002 
L 88.825069 378 
z
" clip-path="url(#p251d105a0c)" style="fill: none"/>
   </g>
   <g id="patch_105">
    <path d="M 97.227496 378 
L 105.629923 378 
L 105.629923 377.83201 
L 97.227496 377.83201 
L 97.227496 378 
z
" clip-path="url(#p251d105a0c)" style="fill: none"/>
   </g>
   <g id="patch_106">
    <path d="M 105.629923 378 
L 114.03235 378 
L 114.03235 376.950062 
L 105.629923 376.950062 
L 105.629923 378 
z
" clip-path="url(#p251d105a0c)" style="fill: none"/>
   </g>
   <g id="patch_107">
    <path d="M 114.03235 378 
L 122.434777 378 
L 122.434777 376.068114 
L 114.03235 376.068114 
L 114.03235 378 
z
" clip-path="url(#p251d105a0c)" style="fill: none"/>
   </g>
   <g id="patch_108">
    <path d="M 122.434777 378 
L 130.837205 378 
L 130.837205 372.07835 
L 122.434777 372.07835 
L 122.434777 378 
z
" clip-path="url(#p251d105a0c)" style="fill: none"/>
   </g>
   <g id="patch_109">
    <path d="M 130.837205 378 
L 139.239632 378 
L 139.239632 366.534678 
L 130.837205 366.534678 
L 130.837205 378 
z
" clip-path="url(#p251d105a0c)" style="fill: none"/>
   </g>
   <g id="patch_110">
    <path d="M 139.239632 378 
L 147.642059 378 
L 147.642059 361.746962 
L 139.239632 361.746962 
L 139.239632 378 
z
" clip-path="url(#p251d105a0c)" style="fill: none"/>
   </g>
   <g id="patch_111">
    <path d="M 147.642059 378 
L 156.044486 378 
L 156.044486 364.938773 
L 147.642059 364.938773 
L 147.642059 378 
z
" clip-path="url(#p251d105a0c)" style="fill: none"/>
   </g>
   <g id="patch_112">
    <path d="M 156.044486 378 
L 164.446913 378 
L 164.446913 367.206639 
L 156.044486 367.206639 
L 156.044486 378 
z
" clip-path="url(#p251d105a0c)" style="fill: none"/>
   </g>
   <g id="patch_113">
    <path d="M 164.446913 378 
L 172.84934 378 
L 172.84934 366.366688 
L 164.446913 366.366688 
L 164.446913 378 
z
" clip-path="url(#p251d105a0c)" style="fill: none"/>
   </g>
   <g id="patch_114">
    <path d="M 172.84934 378 
L 181.251768 378 
L 181.251768 365.064765 
L 172.84934 365.064765 
L 172.84934 378 
z
" clip-path="url(#p251d105a0c)" style="fill: none"/>
   </g>
   <g id="patch_115">
    <path d="M 181.251768 378 
L 189.654195 378 
L 189.654195 362.544915 
L 181.251768 362.544915 
L 181.251768 378 
z
" clip-path="url(#p251d105a0c)" style="fill: none"/>
   </g>
   <g id="patch_116">
    <path d="M 189.654195 378 
L 198.056622 378 
L 198.056622 362.166937 
L 189.654195 362.166937 
L 189.654195 378 
z
" clip-path="url(#p251d105a0c)" style="fill: none"/>
   </g>
   <g id="patch_117">
    <path d="M 198.056622 378 
L 206.459049 378 
L 206.459049 363.720845 
L 198.056622 363.720845 
L 198.056622 378 
z
" clip-path="url(#p251d105a0c)" style="fill: none"/>
   </g>
   <g id="patch_118">
    <path d="M 206.459049 378 
L 214.861476 378 
L 214.861476 362.544915 
L 206.459049 362.544915 
L 206.459049 378 
z
" clip-path="url(#p251d105a0c)" style="fill: none"/>
   </g>
   <g id="patch_119">
    <path d="M 214.861476 378 
L 223.263903 378 
L 223.263903 362.040944 
L 214.861476 362.040944 
L 214.861476 378 
z
" clip-path="url(#p251d105a0c)" style="fill: none"/>
   </g>
   <g id="patch_120">
    <path d="M 223.263903 378 
L 231.666331 378 
L 231.666331 361.998947 
L 223.263903 361.998947 
L 223.263903 378 
z
" clip-path="url(#p251d105a0c)" style="fill: none"/>
   </g>
   <g id="patch_121">
    <path d="M 231.666331 378 
L 240.068758 378 
L 240.068758 360.025064 
L 231.666331 360.025064 
L 231.666331 378 
z
" clip-path="url(#p251d105a0c)" style="fill: none"/>
   </g>
   <g id="patch_122">
    <path d="M 240.068758 378 
L 248.471185 378 
L 248.471185 355.489332 
L 240.068758 355.489332 
L 240.068758 378 
z
" clip-path="url(#p251d105a0c)" style="fill: none"/>
   </g>
   <g id="patch_123">
    <path d="M 248.471185 378 
L 256.873612 378 
L 256.873612 353.809431 
L 248.471185 353.809431 
L 248.471185 378 
z
" clip-path="url(#p251d105a0c)" style="fill: none"/>
   </g>
   <g id="patch_124">
    <path d="M 256.873612 378 
L 265.276039 378 
L 265.276039 352.591503 
L 256.873612 352.591503 
L 256.873612 378 
z
" clip-path="url(#p251d105a0c)" style="fill: none"/>
   </g>
   <g id="patch_125">
    <path d="M 265.276039 378 
L 273.678466 378 
L 273.678466 348.181764 
L 265.276039 348.181764 
L 265.276039 378 
z
" clip-path="url(#p251d105a0c)" style="fill: none"/>
   </g>
   <g id="patch_126">
    <path d="M 273.678466 378 
L 282.080894 378 
L 282.080894 349.44169 
L 273.678466 349.44169 
L 273.678466 378 
z
" clip-path="url(#p251d105a0c)" style="fill: none"/>
   </g>
   <g id="patch_127">
    <path d="M 282.080894 378 
L 290.483321 378 
L 290.483321 354.859369 
L 282.080894 354.859369 
L 282.080894 378 
z
" clip-path="url(#p251d105a0c)" style="fill: none"/>
   </g>
   <g id="patch_128">
    <path d="M 290.483321 378 
L 298.885748 378 
L 298.885748 359.479096 
L 290.483321 359.479096 
L 290.483321 378 
z
" clip-path="url(#p251d105a0c)" style="fill: none"/>
   </g>
   <g id="patch_129">
    <path d="M 298.885748 378 
L 307.288175 378 
L 307.288175 362.376924 
L 298.885748 362.376924 
L 298.885748 378 
z
" clip-path="url(#p251d105a0c)" style="fill: none"/>
   </g>
   <g id="patch_130">
    <path d="M 307.288175 378 
L 315.690602 378 
L 315.690602 364.224815 
L 307.288175 364.224815 
L 307.288175 378 
z
" clip-path="url(#p251d105a0c)" style="fill: none"/>
   </g>
   <g id="patch_131">
    <path d="M 315.690602 378 
L 324.093029 378 
L 324.093029 368.214579 
L 315.690602 368.214579 
L 315.690602 378 
z
" clip-path="url(#p251d105a0c)" style="fill: none"/>
   </g>
   <g id="patch_132">
    <path d="M 324.093029 378 
L 332.495457 378 
L 332.495457 368.802544 
L 324.093029 368.802544 
L 324.093029 378 
z
" clip-path="url(#p251d105a0c)" style="fill: none"/>
   </g>
   <g id="patch_133">
    <path d="M 332.495457 378 
L 340.897884 378 
L 340.897884 372.330335 
L 332.495457 372.330335 
L 332.495457 378 
z
" clip-path="url(#p251d105a0c)" style="fill: none"/>
   </g>
   <g id="patch_134">
    <path d="M 340.897884 378 
L 349.300311 378 
L 349.300311 375.858127 
L 340.897884 375.858127 
L 340.897884 378 
z
" clip-path="url(#p251d105a0c)" style="fill: none"/>
   </g>
   <g id="patch_135">
    <path d="M 349.300311 378 
L 357.702738 378 
L 357.702738 375.942122 
L 349.300311 375.942122 
L 349.300311 378 
z
" clip-path="url(#p251d105a0c)" style="fill: none"/>
   </g>
   <g id="patch_136">
    <path d="M 357.702738 378 
L 366.105165 378 
L 366.105165 375.984119 
L 357.702738 375.984119 
L 357.702738 378 
z
" clip-path="url(#p251d105a0c)" style="fill: none"/>
   </g>
   <g id="patch_137">
    <path d="M 366.105165 378 
L 374.507592 378 
L 374.507592 375.396154 
L 366.105165 375.396154 
L 366.105165 378 
z
" clip-path="url(#p251d105a0c)" style="fill: none"/>
   </g>
   <g id="patch_138">
    <path d="M 374.507592 378 
L 382.91002 378 
L 382.91002 373.002296 
L 374.507592 373.002296 
L 374.507592 378 
z
" clip-path="url(#p251d105a0c)" style="fill: none"/>
   </g>
   <g id="patch_139">
    <path d="M 382.91002 378 
L 391.312447 378 
L 391.312447 370.524442 
L 382.91002 370.524442 
L 382.91002 378 
z
" clip-path="url(#p251d105a0c)" style="fill: none"/>
   </g>
   <g id="patch_140">
    <path d="M 391.312447 378 
L 399.714874 378 
L 399.714874 369.810485 
L 391.312447 369.810485 
L 391.312447 378 
z
" clip-path="url(#p251d105a0c)" style="fill: none"/>
   </g>
   <g id="patch_141">
    <path d="M 399.714874 378 
L 408.117301 378 
L 408.117301 365.988711 
L 399.714874 365.988711 
L 399.714874 378 
z
" clip-path="url(#p251d105a0c)" style="fill: none"/>
   </g>
   <g id="patch_142">
    <path d="M 408.117301 378 
L 416.519728 378 
L 416.519728 365.652731 
L 408.117301 365.652731 
L 408.117301 378 
z
" clip-path="url(#p251d105a0c)" style="fill: none"/>
   </g>
   <g id="patch_143">
    <path d="M 416.519728 378 
L 424.922155 378 
L 424.922155 365.568736 
L 416.519728 365.568736 
L 416.519728 378 
z
" clip-path="url(#p251d105a0c)" style="fill: none"/>
   </g>
   <g id="patch_144">
    <path d="M 424.922155 378 
L 433.324583 378 
L 433.324583 370.06247 
L 424.922155 370.06247 
L 424.922155 378 
z
" clip-path="url(#p251d105a0c)" style="fill: none"/>
   </g>
   <g id="patch_145">
    <path d="M 433.324583 378 
L 441.72701 378 
L 441.72701 373.632258 
L 433.324583 373.632258 
L 433.324583 378 
z
" clip-path="url(#p251d105a0c)" style="fill: none"/>
   </g>
   <g id="patch_146">
    <path d="M 441.72701 378 
L 450.129437 378 
L 450.129437 371.532383 
L 441.72701 371.532383 
L 441.72701 378 
z
" clip-path="url(#p251d105a0c)" style="fill: none"/>
   </g>
   <g id="patch_147">
    <path d="M 450.129437 378 
L 458.531864 378 
L 458.531864 372.07835 
L 450.129437 372.07835 
L 450.129437 378 
z
" clip-path="url(#p251d105a0c)" style="fill: none"/>
   </g>
   <g id="patch_148">
    <path d="M 458.531864 378 
L 466.934291 378 
L 466.934291 373.968239 
L 458.531864 373.968239 
L 458.531864 378 
z
" clip-path="url(#p251d105a0c)" style="fill: none"/>
   </g>
   <g id="patch_149">
    <path d="M 466.934291 378 
L 475.336718 378 
L 475.336718 373.800249 
L 466.934291 373.800249 
L 466.934291 378 
z
" clip-path="url(#p251d105a0c)" style="fill: none"/>
   </g>
   <g id="patch_150">
    <path d="M 475.336718 378 
L 483.739146 378 
L 483.739146 370.860422 
L 475.336718 370.860422 
L 475.336718 378 
z
" clip-path="url(#p251d105a0c)" style="fill: none"/>
   </g>
   <g id="patch_151">
    <path d="M 483.739146 378 
L 492.141573 378 
L 492.141573 376.152109 
L 483.739146 376.152109 
L 483.739146 378 
z
" clip-path="url(#p251d105a0c)" style="fill: none"/>
   </g>
   <g id="patch_152">
    <path d="M 492.141573 378 
L 500.544 378 
L 500.544 377.874007 
L 492.141573 377.874007 
L 492.141573 378 
z
" clip-path="url(#p251d105a0c)" style="fill: none"/>
   </g>
   <g id="patch_153">
    <path d="M 80.422642 378 
L 88.825069 378 
L 88.825069 377.748015 
L 80.422642 377.748015 
L 80.422642 378 
z
" clip-path="url(#p251d105a0c)" style="fill: none"/>
   </g>
   <g id="patch_154">
    <path d="M 88.825069 378 
L 97.227496 378 
L 97.227496 377.790012 
L 88.825069 377.790012 
L 88.825069 378 
z
" clip-path="url(#p251d105a0c)" style="fill: none"/>
   </g>
   <g id="patch_155">
    <path d="M 97.227496 378 
L 105.629923 378 
L 105.629923 377.706017 
L 97.227496 377.706017 
L 97.227496 378 
z
" clip-path="url(#p251d105a0c)" style="fill: none"/>
   </g>
   <g id="patch_156">
    <path d="M 105.629923 378 
L 114.03235 378 
L 114.03235 375.774132 
L 105.629923 375.774132 
L 105.629923 378 
z
" clip-path="url(#p251d105a0c)" style="fill: none"/>
   </g>
   <g id="patch_157">
    <path d="M 114.03235 378 
L 122.434777 378 
L 122.434777 374.178226 
L 114.03235 374.178226 
L 114.03235 378 
z
" clip-path="url(#p251d105a0c)" style="fill: none"/>
   </g>
   <g id="patch_158">
    <path d="M 122.434777 378 
L 130.837205 378 
L 130.837205 367.164641 
L 122.434777 367.164641 
L 122.434777 378 
z
" clip-path="url(#p251d105a0c)" style="fill: none"/>
   </g>
   <g id="patch_159">
    <path d="M 130.837205 378 
L 139.239632 378 
L 139.239632 356.329282 
L 130.837205 356.329282 
L 130.837205 378 
z
" clip-path="url(#p251d105a0c)" style="fill: none"/>
   </g>
   <g id="patch_160">
    <path d="M 139.239632 378 
L 147.642059 378 
L 147.642059 349.60968 
L 139.239632 349.60968 
L 139.239632 378 
z
" clip-path="url(#p251d105a0c)" style="fill: none"/>
   </g>
   <g id="patch_161">
    <path d="M 147.642059 378 
L 156.044486 378 
L 156.044486 355.321342 
L 147.642059 355.321342 
L 147.642059 378 
z
" clip-path="url(#p251d105a0c)" style="fill: none"/>
   </g>
   <g id="patch_162">
    <path d="M 156.044486 378 
L 164.446913 378 
L 164.446913 360.991006 
L 156.044486 360.991006 
L 156.044486 378 
z
" clip-path="url(#p251d105a0c)" style="fill: none"/>
   </g>
   <g id="patch_163">
    <path d="M 164.446913 378 
L 172.84934 378 
L 172.84934 359.605088 
L 164.446913 359.605088 
L 164.446913 378 
z
" clip-path="url(#p251d105a0c)" style="fill: none"/>
   </g>
   <g id="patch_164">
    <path d="M 172.84934 378 
L 181.251768 378 
L 181.251768 353.053476 
L 172.84934 353.053476 
L 172.84934 378 
z
" clip-path="url(#p251d105a0c)" style="fill: none"/>
   </g>
   <g id="patch_165">
    <path d="M 181.251768 378 
L 189.654195 378 
L 189.654195 348.013774 
L 181.251768 348.013774 
L 181.251768 378 
z
" clip-path="url(#p251d105a0c)" style="fill: none"/>
   </g>
   <g id="patch_166">
    <path d="M 189.654195 378 
L 198.056622 378 
L 198.056622 352.717496 
L 189.654195 352.717496 
L 189.654195 378 
z
" clip-path="url(#p251d105a0c)" style="fill: none"/>
   </g>
   <g id="patch_167">
    <path d="M 198.056622 378 
L 206.459049 378 
L 206.459049 349.735672 
L 198.056622 349.735672 
L 198.056622 378 
z
" clip-path="url(#p251d105a0c)" style="fill: none"/>
   </g>
   <g id="patch_168">
    <path d="M 206.459049 378 
L 214.861476 378 
L 214.861476 349.189705 
L 206.459049 349.189705 
L 206.459049 378 
z
" clip-path="url(#p251d105a0c)" style="fill: none"/>
   </g>
   <g id="patch_169">
    <path d="M 214.861476 378 
L 223.263903 378 
L 223.263903 352.129531 
L 214.861476 352.129531 
L 214.861476 378 
z
" clip-path="url(#p251d105a0c)" style="fill: none"/>
   </g>
   <g id="patch_170">
    <path d="M 223.263903 378 
L 231.666331 378 
L 231.666331 345.577918 
L 223.263903 345.577918 
L 223.263903 378 
z
" clip-path="url(#p251d105a0c)" style="fill: none"/>
   </g>
   <g id="patch_171">
    <path d="M 231.666331 378 
L 240.068758 378 
L 240.068758 344.02401 
L 231.666331 344.02401 
L 231.666331 378 
z
" clip-path="url(#p251d105a0c)" style="fill: none"/>
   </g>
   <g id="patch_172">
    <path d="M 240.068758 378 
L 248.471185 378 
L 248.471185 336.296468 
L 240.068758 336.296468 
L 240.068758 378 
z
" clip-path="url(#p251d105a0c)" style="fill: none"/>
   </g>
   <g id="patch_173">
    <path d="M 248.471185 378 
L 256.873612 378 
L 256.873612 337.556393 
L 248.471185 337.556393 
L 248.471185 378 
z
" clip-path="url(#p251d105a0c)" style="fill: none"/>
   </g>
   <g id="patch_174">
    <path d="M 256.873612 378 
L 265.276039 378 
L 265.276039 336.548453 
L 256.873612 336.548453 
L 256.873612 378 
z
" clip-path="url(#p251d105a0c)" style="fill: none"/>
   </g>
   <g id="patch_175">
    <path d="M 265.276039 378 
L 273.678466 378 
L 273.678466 330.416816 
L 265.276039 330.416816 
L 265.276039 378 
z
" clip-path="url(#p251d105a0c)" style="fill: none"/>
   </g>
   <g id="patch_176">
    <path d="M 273.678466 378 
L 282.080894 378 
L 282.080894 328.610922 
L 273.678466 328.610922 
L 273.678466 378 
z
" clip-path="url(#p251d105a0c)" style="fill: none"/>
   </g>
   <g id="patch_177">
    <path d="M 282.080894 378 
L 290.483321 378 
L 290.483321 333.356642 
L 282.080894 333.356642 
L 282.080894 378 
z
" clip-path="url(#p251d105a0c)" style="fill: none"/>
   </g>
   <g id="patch_178">
    <path d="M 290.483321 378 
L 298.885748 378 
L 298.885748 343.226058 
L 290.483321 343.226058 
L 290.483321 378 
z
" clip-path="url(#p251d105a0c)" style="fill: none"/>
   </g>
   <g id="patch_179">
    <path d="M 298.885748 378 
L 307.288175 378 
L 307.288175 349.987658 
L 298.885748 349.987658 
L 298.885748 378 
z
" clip-path="url(#p251d105a0c)" style="fill: none"/>
   </g>
   <g id="patch_180">
    <path d="M 307.288175 378 
L 315.690602 378 
L 315.690602 354.019419 
L 307.288175 354.019419 
L 307.288175 378 
z
" clip-path="url(#p251d105a0c)" style="fill: none"/>
   </g>
   <g id="patch_181">
    <path d="M 315.690602 378 
L 324.093029 378 
L 324.093029 357.337223 
L 315.690602 357.337223 
L 315.690602 378 
z
" clip-path="url(#p251d105a0c)" style="fill: none"/>
   </g>
   <g id="patch_182">
    <path d="M 324.093029 378 
L 332.495457 378 
L 332.495457 361.830957 
L 324.093029 361.830957 
L 324.093029 378 
z
" clip-path="url(#p251d105a0c)" style="fill: none"/>
   </g>
   <g id="patch_183">
    <path d="M 332.495457 378 
L 340.897884 378 
L 340.897884 370.06247 
L 332.495457 370.06247 
L 332.495457 378 
z
" clip-path="url(#p251d105a0c)" style="fill: none"/>
   </g>
   <g id="patch_184">
    <path d="M 340.897884 378 
L 349.300311 378 
L 349.300311 373.884244 
L 340.897884 373.884244 
L 340.897884 378 
z
" clip-path="url(#p251d105a0c)" style="fill: none"/>
   </g>
   <g id="patch_185">
    <path d="M 349.300311 378 
L 357.702738 378 
L 357.702738 374.934181 
L 349.300311 374.934181 
L 349.300311 378 
z
" clip-path="url(#p251d105a0c)" style="fill: none"/>
   </g>
   <g id="patch_186">
    <path d="M 357.702738 378 
L 366.105165 378 
L 366.105165 374.934181 
L 357.702738 374.934181 
L 357.702738 378 
z
" clip-path="url(#p251d105a0c)" style="fill: none"/>
   </g>
   <g id="patch_187">
    <path d="M 366.105165 378 
L 374.507592 378 
L 374.507592 373.254281 
L 366.105165 373.254281 
L 366.105165 378 
z
" clip-path="url(#p251d105a0c)" style="fill: none"/>
   </g>
   <g id="patch_188">
    <path d="M 374.507592 378 
L 382.91002 378 
L 382.91002 369.012532 
L 374.507592 369.012532 
L 374.507592 378 
z
" clip-path="url(#p251d105a0c)" style="fill: none"/>
   </g>
   <g id="patch_189">
    <path d="M 382.91002 378 
L 391.312447 378 
L 391.312447 364.98077 
L 382.91002 364.98077 
L 382.91002 378 
z
" clip-path="url(#p251d105a0c)" style="fill: none"/>
   </g>
   <g id="patch_190">
    <path d="M 391.312447 378 
L 399.714874 378 
L 399.714874 362.250932 
L 391.312447 362.250932 
L 391.312447 378 
z
" clip-path="url(#p251d105a0c)" style="fill: none"/>
   </g>
   <g id="patch_191">
    <path d="M 399.714874 378 
L 408.117301 378 
L 408.117301 356.497272 
L 399.714874 356.497272 
L 399.714874 378 
z
" clip-path="url(#p251d105a0c)" style="fill: none"/>
   </g>
   <g id="patch_192">
    <path d="M 408.117301 378 
L 416.519728 378 
L 416.519728 352.003538 
L 408.117301 352.003538 
L 408.117301 378 
z
" clip-path="url(#p251d105a0c)" style="fill: none"/>
   </g>
   <g id="patch_193">
    <path d="M 416.519728 378 
L 424.922155 378 
L 424.922155 353.935424 
L 416.519728 353.935424 
L 416.519728 378 
z
" clip-path="url(#p251d105a0c)" style="fill: none"/>
   </g>
   <g id="patch_194">
    <path d="M 424.922155 378 
L 433.324583 378 
L 433.324583 362.62891 
L 424.922155 362.62891 
L 424.922155 378 
z
" clip-path="url(#p251d105a0c)" style="fill: none"/>
   </g>
   <g id="patch_195">
    <path d="M 433.324583 378 
L 441.72701 378 
L 441.72701 368.760547 
L 433.324583 368.760547 
L 433.324583 378 
z
" clip-path="url(#p251d105a0c)" style="fill: none"/>
   </g>
   <g id="patch_196">
    <path d="M 441.72701 378 
L 450.129437 378 
L 450.129437 365.526738 
L 441.72701 365.526738 
L 441.72701 378 
z
" clip-path="url(#p251d105a0c)" style="fill: none"/>
   </g>
   <g id="patch_197">
    <path d="M 450.129437 378 
L 458.531864 378 
L 458.531864 368.424567 
L 450.129437 368.424567 
L 450.129437 378 
z
" clip-path="url(#p251d105a0c)" style="fill: none"/>
   </g>
   <g id="patch_198">
    <path d="M 458.531864 378 
L 466.934291 378 
L 466.934291 369.5585 
L 458.531864 369.5585 
L 458.531864 378 
z
" clip-path="url(#p251d105a0c)" style="fill: none"/>
   </g>
   <g id="patch_199">
    <path d="M 466.934291 378 
L 475.336718 378 
L 475.336718 371.280398 
L 466.934291 371.280398 
L 466.934291 378 
z
" clip-path="url(#p251d105a0c)" style="fill: none"/>
   </g>
   <g id="patch_200">
    <path d="M 475.336718 378 
L 483.739146 378 
L 483.739146 367.206639 
L 475.336718 367.206639 
L 475.336718 378 
z
" clip-path="url(#p251d105a0c)" style="fill: none"/>
   </g>
   <g id="patch_201">
    <path d="M 483.739146 378 
L 492.141573 378 
L 492.141573 375.102171 
L 483.739146 375.102171 
L 483.739146 378 
z
" clip-path="url(#p251d105a0c)" style="fill: none"/>
   </g>
   <g id="patch_202">
    <path d="M 492.141573 378 
L 500.544 378 
L 500.544 377.49603 
L 492.141573 377.49603 
L 492.141573 378 
z
" clip-path="url(#p251d105a0c)" style="fill: none"/>
   </g>
   <g id="matplotlib.axis_1">
    <g id="xtick_1">
     <g id="line2d_1">
      <defs>
       <path id="m1d710422aa" d="M 0 0 
L 0 3.5 
" style="stroke: #000000; stroke-width: 0.8"/>
      </defs>
      <g>
       <use xlink:href="#m1d710422aa" x="72" y="378" style="stroke: #000000; stroke-width: 0.8"/>
      </g>
     </g>
     <g id="text_1">
      <!-- 0.00 -->
      <g transform="translate(60.867188 392.598437)scale(0.1 -0.1)">
       <defs>
        <path id="DejaVuSans-30" d="M 2034 4250 
Q 1547 4250 1301 3770 
Q 1056 3291 1056 2328 
Q 1056 1369 1301 889 
Q 1547 409 2034 409 
Q 2525 409 2770 889 
Q 3016 1369 3016 2328 
Q 3016 3291 2770 3770 
Q 2525 4250 2034 4250 
z
M 2034 4750 
Q 2819 4750 3233 4129 
Q 3647 3509 3647 2328 
Q 3647 1150 3233 529 
Q 2819 -91 2034 -91 
Q 1250 -91 836 529 
Q 422 1150 422 2328 
Q 422 3509 836 4129 
Q 1250 4750 2034 4750 
z
" transform="scale(0.015625)"/>
        <path id="DejaVuSans-2e" d="M 684 794 
L 1344 794 
L 1344 0 
L 684 0 
L 684 794 
z
" transform="scale(0.015625)"/>
       </defs>
       <use xlink:href="#DejaVuSans-30"/>
       <use xlink:href="#DejaVuSans-2e" x="63.623047"/>
       <use xlink:href="#DejaVuSans-30" x="95.410156"/>
       <use xlink:href="#DejaVuSans-30" x="159.033203"/>
      </g>
     </g>
    </g>
    <g id="xtick_2">
     <g id="line2d_2">
      <g>
       <use xlink:href="#m1d710422aa" x="183.6" y="378" style="stroke: #000000; stroke-width: 0.8"/>
      </g>
     </g>
     <g id="text_2">
      <!-- 0.25 -->
      <g transform="translate(172.467187 392.598437)scale(0.1 -0.1)">
       <defs>
        <path id="DejaVuSans-32" d="M 1228 531 
L 3431 531 
L 3431 0 
L 469 0 
L 469 531 
Q 828 903 1448 1529 
Q 2069 2156 2228 2338 
Q 2531 2678 2651 2914 
Q 2772 3150 2772 3378 
Q 2772 3750 2511 3984 
Q 2250 4219 1831 4219 
Q 1534 4219 1204 4116 
Q 875 4013 500 3803 
L 500 4441 
Q 881 4594 1212 4672 
Q 1544 4750 1819 4750 
Q 2544 4750 2975 4387 
Q 3406 4025 3406 3419 
Q 3406 3131 3298 2873 
Q 3191 2616 2906 2266 
Q 2828 2175 2409 1742 
Q 1991 1309 1228 531 
z
" transform="scale(0.015625)"/>
        <path id="DejaVuSans-35" d="M 691 4666 
L 3169 4666 
L 3169 4134 
L 1269 4134 
L 1269 2991 
Q 1406 3038 1543 3061 
Q 1681 3084 1819 3084 
Q 2600 3084 3056 2656 
Q 3513 2228 3513 1497 
Q 3513 744 3044 326 
Q 2575 -91 1722 -91 
Q 1428 -91 1123 -41 
Q 819 9 494 109 
L 494 744 
Q 775 591 1075 516 
Q 1375 441 1709 441 
Q 2250 441 2565 725 
Q 2881 1009 2881 1497 
Q 2881 1984 2565 2268 
Q 2250 2553 1709 2553 
Q 1456 2553 1204 2497 
Q 953 2441 691 2322 
L 691 4666 
z
" transform="scale(0.015625)"/>
       </defs>
       <use xlink:href="#DejaVuSans-30"/>
       <use xlink:href="#DejaVuSans-2e" x="63.623047"/>
       <use xlink:href="#DejaVuSans-32" x="95.410156"/>
       <use xlink:href="#DejaVuSans-35" x="159.033203"/>
      </g>
     </g>
    </g>
    <g id="xtick_3">
     <g id="line2d_3">
      <g>
       <use xlink:href="#m1d710422aa" x="295.2" y="378" style="stroke: #000000; stroke-width: 0.8"/>
      </g>
     </g>
     <g id="text_3">
      <!-- 0.50 -->
      <g transform="translate(284.067187 392.598437)scale(0.1 -0.1)">
       <use xlink:href="#DejaVuSans-30"/>
       <use xlink:href="#DejaVuSans-2e" x="63.623047"/>
       <use xlink:href="#DejaVuSans-35" x="95.410156"/>
       <use xlink:href="#DejaVuSans-30" x="159.033203"/>
      </g>
     </g>
    </g>
    <g id="xtick_4">
     <g id="line2d_4">
      <g>
       <use xlink:href="#m1d710422aa" x="406.8" y="378" style="stroke: #000000; stroke-width: 0.8"/>
      </g>
     </g>
     <g id="text_4">
      <!-- 0.75 -->
      <g transform="translate(395.667187 392.598437)scale(0.1 -0.1)">
       <defs>
        <path id="DejaVuSans-37" d="M 525 4666 
L 3525 4666 
L 3525 4397 
L 1831 0 
L 1172 0 
L 2766 4134 
L 525 4134 
L 525 4666 
z
" transform="scale(0.015625)"/>
       </defs>
       <use xlink:href="#DejaVuSans-30"/>
       <use xlink:href="#DejaVuSans-2e" x="63.623047"/>
       <use xlink:href="#DejaVuSans-37" x="95.410156"/>
       <use xlink:href="#DejaVuSans-35" x="159.033203"/>
      </g>
     </g>
    </g>
    <g id="xtick_5">
     <g id="line2d_5">
      <g>
       <use xlink:href="#m1d710422aa" x="518.4" y="378" style="stroke: #000000; stroke-width: 0.8"/>
      </g>
     </g>
     <g id="text_5">
      <!-- 1.00 -->
      <g transform="translate(507.267187 392.598437)scale(0.1 -0.1)">
       <defs>
        <path id="DejaVuSans-31" d="M 794 531 
L 1825 531 
L 1825 4091 
L 703 3866 
L 703 4441 
L 1819 4666 
L 2450 4666 
L 2450 531 
L 3481 531 
L 3481 0 
L 794 0 
L 794 531 
z
" transform="scale(0.015625)"/>
       </defs>
       <use xlink:href="#DejaVuSans-31"/>
       <use xlink:href="#DejaVuSans-2e" x="63.623047"/>
       <use xlink:href="#DejaVuSans-30" x="95.410156"/>
       <use xlink:href="#DejaVuSans-30" x="159.033203"/>
      </g>
     </g>
    </g>
    <g id="text_6">
     <!-- ratio_roeske -->
     <g transform="translate(264.697656 406.276563)scale(0.1 -0.1)">
      <defs>
       <path id="DejaVuSans-72" d="M 2631 2963 
Q 2534 3019 2420 3045 
Q 2306 3072 2169 3072 
Q 1681 3072 1420 2755 
Q 1159 2438 1159 1844 
L 1159 0 
L 581 0 
L 581 3500 
L 1159 3500 
L 1159 2956 
Q 1341 3275 1631 3429 
Q 1922 3584 2338 3584 
Q 2397 3584 2469 3576 
Q 2541 3569 2628 3553 
L 2631 2963 
z
" transform="scale(0.015625)"/>
       <path id="DejaVuSans-61" d="M 2194 1759 
Q 1497 1759 1228 1600 
Q 959 1441 959 1056 
Q 959 750 1161 570 
Q 1363 391 1709 391 
Q 2188 391 2477 730 
Q 2766 1069 2766 1631 
L 2766 1759 
L 2194 1759 
z
M 3341 1997 
L 3341 0 
L 2766 0 
L 2766 531 
Q 2569 213 2275 61 
Q 1981 -91 1556 -91 
Q 1019 -91 701 211 
Q 384 513 384 1019 
Q 384 1609 779 1909 
Q 1175 2209 1959 2209 
L 2766 2209 
L 2766 2266 
Q 2766 2663 2505 2880 
Q 2244 3097 1772 3097 
Q 1472 3097 1187 3025 
Q 903 2953 641 2809 
L 641 3341 
Q 956 3463 1253 3523 
Q 1550 3584 1831 3584 
Q 2591 3584 2966 3190 
Q 3341 2797 3341 1997 
z
" transform="scale(0.015625)"/>
       <path id="DejaVuSans-74" d="M 1172 4494 
L 1172 3500 
L 2356 3500 
L 2356 3053 
L 1172 3053 
L 1172 1153 
Q 1172 725 1289 603 
Q 1406 481 1766 481 
L 2356 481 
L 2356 0 
L 1766 0 
Q 1100 0 847 248 
Q 594 497 594 1153 
L 594 3053 
L 172 3053 
L 172 3500 
L 594 3500 
L 594 4494 
L 1172 4494 
z
" transform="scale(0.015625)"/>
       <path id="DejaVuSans-69" d="M 603 3500 
L 1178 3500 
L 1178 0 
L 603 0 
L 603 3500 
z
M 603 4863 
L 1178 4863 
L 1178 4134 
L 603 4134 
L 603 4863 
z
" transform="scale(0.015625)"/>
       <path id="DejaVuSans-6f" d="M 1959 3097 
Q 1497 3097 1228 2736 
Q 959 2375 959 1747 
Q 959 1119 1226 758 
Q 1494 397 1959 397 
Q 2419 397 2687 759 
Q 2956 1122 2956 1747 
Q 2956 2369 2687 2733 
Q 2419 3097 1959 3097 
z
M 1959 3584 
Q 2709 3584 3137 3096 
Q 3566 2609 3566 1747 
Q 3566 888 3137 398 
Q 2709 -91 1959 -91 
Q 1206 -91 779 398 
Q 353 888 353 1747 
Q 353 2609 779 3096 
Q 1206 3584 1959 3584 
z
" transform="scale(0.015625)"/>
       <path id="DejaVuSans-5f" d="M 3263 -1063 
L 3263 -1509 
L -63 -1509 
L -63 -1063 
L 3263 -1063 
z
" transform="scale(0.015625)"/>
       <path id="DejaVuSans-65" d="M 3597 1894 
L 3597 1613 
L 953 1613 
Q 991 1019 1311 708 
Q 1631 397 2203 397 
Q 2534 397 2845 478 
Q 3156 559 3463 722 
L 3463 178 
Q 3153 47 2828 -22 
Q 2503 -91 2169 -91 
Q 1331 -91 842 396 
Q 353 884 353 1716 
Q 353 2575 817 3079 
Q 1281 3584 2069 3584 
Q 2775 3584 3186 3129 
Q 3597 2675 3597 1894 
z
M 3022 2063 
Q 3016 2534 2758 2815 
Q 2500 3097 2075 3097 
Q 1594 3097 1305 2825 
Q 1016 2553 972 2059 
L 3022 2063 
z
" transform="scale(0.015625)"/>
       <path id="DejaVuSans-73" d="M 2834 3397 
L 2834 2853 
Q 2591 2978 2328 3040 
Q 2066 3103 1784 3103 
Q 1356 3103 1142 2972 
Q 928 2841 928 2578 
Q 928 2378 1081 2264 
Q 1234 2150 1697 2047 
L 1894 2003 
Q 2506 1872 2764 1633 
Q 3022 1394 3022 966 
Q 3022 478 2636 193 
Q 2250 -91 1575 -91 
Q 1294 -91 989 -36 
Q 684 19 347 128 
L 347 722 
Q 666 556 975 473 
Q 1284 391 1588 391 
Q 1994 391 2212 530 
Q 2431 669 2431 922 
Q 2431 1156 2273 1281 
Q 2116 1406 1581 1522 
L 1381 1569 
Q 847 1681 609 1914 
Q 372 2147 372 2553 
Q 372 3047 722 3315 
Q 1072 3584 1716 3584 
Q 2034 3584 2315 3537 
Q 2597 3491 2834 3397 
z
" transform="scale(0.015625)"/>
       <path id="DejaVuSans-6b" d="M 581 4863 
L 1159 4863 
L 1159 1991 
L 2875 3500 
L 3609 3500 
L 1753 1863 
L 3688 0 
L 2938 0 
L 1159 1709 
L 1159 0 
L 581 0 
L 581 4863 
z
" transform="scale(0.015625)"/>
      </defs>
      <use xlink:href="#DejaVuSans-72"/>
      <use xlink:href="#DejaVuSans-61" x="41.113281"/>
      <use xlink:href="#DejaVuSans-74" x="102.392578"/>
      <use xlink:href="#DejaVuSans-69" x="141.601562"/>
      <use xlink:href="#DejaVuSans-6f" x="169.384766"/>
      <use xlink:href="#DejaVuSans-5f" x="230.566406"/>
      <use xlink:href="#DejaVuSans-72" x="280.566406"/>
      <use xlink:href="#DejaVuSans-6f" x="319.429688"/>
      <use xlink:href="#DejaVuSans-65" x="380.611328"/>
      <use xlink:href="#DejaVuSans-73" x="442.134766"/>
      <use xlink:href="#DejaVuSans-6b" x="494.234375"/>
      <use xlink:href="#DejaVuSans-65" x="548.519531"/>
     </g>
    </g>
   </g>
   <g id="matplotlib.axis_2">
    <g id="ytick_1">
     <g id="line2d_6">
      <defs>
       <path id="m81d41a420f" d="M 0 0 
L -3.5 0 
" style="stroke: #000000; stroke-width: 0.8"/>
      </defs>
      <g>
       <use xlink:href="#m81d41a420f" x="72" y="378" style="stroke: #000000; stroke-width: 0.8"/>
      </g>
     </g>
     <g id="text_7">
      <!-- 0 -->
      <g transform="translate(58.6375 381.799219)scale(0.1 -0.1)">
       <use xlink:href="#DejaVuSans-30"/>
      </g>
     </g>
    </g>
    <g id="ytick_2">
     <g id="line2d_7">
      <g>
       <use xlink:href="#m81d41a420f" x="72" y="322.161948" style="stroke: #000000; stroke-width: 0.8"/>
      </g>
     </g>
     <g id="text_8">
      <!-- 2 -->
      <g transform="translate(58.6375 325.961166)scale(0.1 -0.1)">
       <use xlink:href="#DejaVuSans-32"/>
      </g>
     </g>
    </g>
    <g id="ytick_3">
     <g id="line2d_8">
      <g>
       <use xlink:href="#m81d41a420f" x="72" y="266.323895" style="stroke: #000000; stroke-width: 0.8"/>
      </g>
     </g>
     <g id="text_9">
      <!-- 4 -->
      <g transform="translate(58.6375 270.123114)scale(0.1 -0.1)">
       <defs>
        <path id="DejaVuSans-34" d="M 2419 4116 
L 825 1625 
L 2419 1625 
L 2419 4116 
z
M 2253 4666 
L 3047 4666 
L 3047 1625 
L 3713 1625 
L 3713 1100 
L 3047 1100 
L 3047 0 
L 2419 0 
L 2419 1100 
L 313 1100 
L 313 1709 
L 2253 4666 
z
" transform="scale(0.015625)"/>
       </defs>
       <use xlink:href="#DejaVuSans-34"/>
      </g>
     </g>
    </g>
    <g id="ytick_4">
     <g id="line2d_9">
      <g>
       <use xlink:href="#m81d41a420f" x="72" y="210.485843" style="stroke: #000000; stroke-width: 0.8"/>
      </g>
     </g>
     <g id="text_10">
      <!-- 6 -->
      <g transform="translate(58.6375 214.285062)scale(0.1 -0.1)">
       <defs>
        <path id="DejaVuSans-36" d="M 2113 2584 
Q 1688 2584 1439 2293 
Q 1191 2003 1191 1497 
Q 1191 994 1439 701 
Q 1688 409 2113 409 
Q 2538 409 2786 701 
Q 3034 994 3034 1497 
Q 3034 2003 2786 2293 
Q 2538 2584 2113 2584 
z
M 3366 4563 
L 3366 3988 
Q 3128 4100 2886 4159 
Q 2644 4219 2406 4219 
Q 1781 4219 1451 3797 
Q 1122 3375 1075 2522 
Q 1259 2794 1537 2939 
Q 1816 3084 2150 3084 
Q 2853 3084 3261 2657 
Q 3669 2231 3669 1497 
Q 3669 778 3244 343 
Q 2819 -91 2113 -91 
Q 1303 -91 875 529 
Q 447 1150 447 2328 
Q 447 3434 972 4092 
Q 1497 4750 2381 4750 
Q 2619 4750 2861 4703 
Q 3103 4656 3366 4563 
z
" transform="scale(0.015625)"/>
       </defs>
       <use xlink:href="#DejaVuSans-36"/>
      </g>
     </g>
    </g>
    <g id="ytick_5">
     <g id="line2d_10">
      <g>
       <use xlink:href="#m81d41a420f" x="72" y="154.64779" style="stroke: #000000; stroke-width: 0.8"/>
      </g>
     </g>
     <g id="text_11">
      <!-- 8 -->
      <g transform="translate(58.6375 158.447009)scale(0.1 -0.1)">
       <defs>
        <path id="DejaVuSans-38" d="M 2034 2216 
Q 1584 2216 1326 1975 
Q 1069 1734 1069 1313 
Q 1069 891 1326 650 
Q 1584 409 2034 409 
Q 2484 409 2743 651 
Q 3003 894 3003 1313 
Q 3003 1734 2745 1975 
Q 2488 2216 2034 2216 
z
M 1403 2484 
Q 997 2584 770 2862 
Q 544 3141 544 3541 
Q 544 4100 942 4425 
Q 1341 4750 2034 4750 
Q 2731 4750 3128 4425 
Q 3525 4100 3525 3541 
Q 3525 3141 3298 2862 
Q 3072 2584 2669 2484 
Q 3125 2378 3379 2068 
Q 3634 1759 3634 1313 
Q 3634 634 3220 271 
Q 2806 -91 2034 -91 
Q 1263 -91 848 271 
Q 434 634 434 1313 
Q 434 1759 690 2068 
Q 947 2378 1403 2484 
z
M 1172 3481 
Q 1172 3119 1398 2916 
Q 1625 2713 2034 2713 
Q 2441 2713 2670 2916 
Q 2900 3119 2900 3481 
Q 2900 3844 2670 4047 
Q 2441 4250 2034 4250 
Q 1625 4250 1398 4047 
Q 1172 3844 1172 3481 
z
" transform="scale(0.015625)"/>
       </defs>
       <use xlink:href="#DejaVuSans-38"/>
      </g>
     </g>
    </g>
    <g id="ytick_6">
     <g id="line2d_11">
      <g>
       <use xlink:href="#m81d41a420f" x="72" y="98.809738" style="stroke: #000000; stroke-width: 0.8"/>
      </g>
     </g>
     <g id="text_12">
      <!-- 10 -->
      <g transform="translate(52.275 102.608957)scale(0.1 -0.1)">
       <use xlink:href="#DejaVuSans-31"/>
       <use xlink:href="#DejaVuSans-30" x="63.623047"/>
      </g>
     </g>
    </g>
    <g id="text_13">
     <!-- Density -->
     <g transform="translate(46.195312 233.928594)rotate(-90)scale(0.1 -0.1)">
      <defs>
       <path id="DejaVuSans-44" d="M 1259 4147 
L 1259 519 
L 2022 519 
Q 2988 519 3436 956 
Q 3884 1394 3884 2338 
Q 3884 3275 3436 3711 
Q 2988 4147 2022 4147 
L 1259 4147 
z
M 628 4666 
L 1925 4666 
Q 3281 4666 3915 4102 
Q 4550 3538 4550 2338 
Q 4550 1131 3912 565 
Q 3275 0 1925 0 
L 628 0 
L 628 4666 
z
" transform="scale(0.015625)"/>
       <path id="DejaVuSans-6e" d="M 3513 2113 
L 3513 0 
L 2938 0 
L 2938 2094 
Q 2938 2591 2744 2837 
Q 2550 3084 2163 3084 
Q 1697 3084 1428 2787 
Q 1159 2491 1159 1978 
L 1159 0 
L 581 0 
L 581 3500 
L 1159 3500 
L 1159 2956 
Q 1366 3272 1645 3428 
Q 1925 3584 2291 3584 
Q 2894 3584 3203 3211 
Q 3513 2838 3513 2113 
z
" transform="scale(0.015625)"/>
       <path id="DejaVuSans-79" d="M 2059 -325 
Q 1816 -950 1584 -1140 
Q 1353 -1331 966 -1331 
L 506 -1331 
L 506 -850 
L 844 -850 
Q 1081 -850 1212 -737 
Q 1344 -625 1503 -206 
L 1606 56 
L 191 3500 
L 800 3500 
L 1894 763 
L 2988 3500 
L 3597 3500 
L 2059 -325 
z
" transform="scale(0.015625)"/>
      </defs>
      <use xlink:href="#DejaVuSans-44"/>
      <use xlink:href="#DejaVuSans-65" x="77.001953"/>
      <use xlink:href="#DejaVuSans-6e" x="138.525391"/>
      <use xlink:href="#DejaVuSans-73" x="201.904297"/>
      <use xlink:href="#DejaVuSans-69" x="254.003906"/>
      <use xlink:href="#DejaVuSans-74" x="281.787109"/>
      <use xlink:href="#DejaVuSans-79" x="320.996094"/>
     </g>
    </g>
   </g>
   <g id="line2d_12">
    <path d="M 264.340706 378 
L 361.987222 377.89285 
L 365.206338 377.631083 
L 367.352415 377.264004 
L 369.498492 376.67702 
L 371.64457 375.849218 
L 374.863686 374.255852 
L 380.228879 371.464799 
L 384.521033 369.316495 
L 386.667111 367.984674 
L 388.813188 366.262367 
L 389.886227 365.199027 
L 390.959265 363.968282 
L 392.032304 362.543477 
L 393.105342 360.896767 
L 394.178381 359.000279 
L 395.25142 356.827685 
L 396.324458 354.355865 
L 397.397497 351.566287 
L 399.543574 344.987554 
L 401.689652 337.057681 
L 403.835729 327.842324 
L 405.981806 317.538884 
L 412.420038 285.074078 
L 414.566115 276.127677 
L 415.639154 272.381181 
L 416.712193 269.189683 
L 417.785231 266.590561 
L 418.85827 264.613461 
L 419.931308 263.284627 
L 421.004347 262.630082 
L 422.077386 262.676657 
L 423.150424 263.450311 
L 424.223463 264.971811 
L 425.296502 267.250435 
L 426.36954 270.276846 
L 427.442579 274.016533 
L 428.515618 278.405225 
L 430.661695 288.718444 
L 436.026888 316.542879 
L 437.099927 321.240505 
L 438.172965 325.386841 
L 439.246004 328.934132 
L 440.319043 331.873087 
L 441.392081 334.232357 
L 442.46512 336.075511 
L 443.538159 337.495464 
L 444.611197 338.606445 
L 448.903352 342.402159 
L 449.97639 343.688299 
L 451.049429 345.218546 
L 452.122468 346.992599 
L 454.268545 351.13831 
L 459.633738 362.255705 
L 461.779815 365.962511 
L 463.925893 368.99059 
L 466.07197 371.338898 
L 467.145009 372.269362 
L 468.218047 373.045896 
L 469.291086 373.677088 
L 471.437163 374.552524 
L 473.58324 375.029518 
L 477.875395 375.504599 
L 477.875395 375.504599 
" clip-path="url(#p251d105a0c)" style="fill: none; stroke: #a5e10f; stroke-width: 1.5; stroke-linecap: square"/>
   </g>
   <g id="line2d_13">
    <path d="M 264.340706 366.84296 
L 269.705899 363.15845 
L 272.925015 361.233592 
L 275.071092 360.174224 
L 277.217169 359.344361 
L 279.363247 358.777447 
L 281.509324 358.495944 
L 283.655401 358.510068 
L 285.801478 358.817367 
L 287.947556 359.403128 
L 290.093633 360.24152 
L 292.23971 361.297382 
L 295.458826 363.195185 
L 299.750981 366.061723 
L 305.116174 369.662748 
L 308.33529 371.604252 
L 311.554406 373.27901 
L 314.773522 374.650106 
L 317.992638 375.716519 
L 321.211754 376.50417 
L 324.43087 377.054863 
L 328.723024 377.501047 
L 333.015179 377.706147 
L 338.380372 377.713951 
L 343.745565 377.460895 
L 348.03772 377.01579 
L 351.256835 376.484658 
L 354.475951 375.727471 
L 357.695067 374.677988 
L 359.841145 373.775292 
L 361.987222 372.675102 
L 364.133299 371.340805 
L 366.279376 369.728611 
L 368.425454 367.786396 
L 370.571531 365.452864 
L 372.717608 362.657363 
L 374.863686 359.320721 
L 377.009763 355.35751 
L 379.15584 350.680075 
L 381.301917 345.204584 
L 383.447995 338.859111 
L 385.594072 331.59352 
L 387.740149 323.390555 
L 389.886227 314.277227 
L 392.032304 304.335238 
L 395.25142 288.20276 
L 402.76269 249.528877 
L 404.908767 239.825475 
L 407.054845 231.458977 
L 408.127883 227.898102 
L 409.200922 224.810891 
L 410.273961 222.236264 
L 411.346999 220.208071 
L 412.420038 218.754373 
L 413.493077 217.896839 
L 414.566115 217.650245 
L 415.639154 218.022119 
L 416.712193 219.012518 
L 417.785231 220.613965 
L 418.85827 222.81154 
L 419.931308 225.583118 
L 421.004347 228.899767 
L 422.077386 232.726275 
L 424.223463 241.740642 
L 426.36954 252.246282 
L 429.588656 269.855813 
L 436.026888 306.360667 
L 438.172965 317.540956 
L 440.319043 327.781747 
L 442.46512 336.932704 
L 444.611197 344.91954 
L 446.757274 351.735161 
L 448.903352 357.427268 
L 451.049429 362.084189 
L 453.195506 365.820573 
L 455.341584 368.764258 
L 457.487661 371.045221 
L 459.633738 372.787118 
L 461.779815 374.10152 
L 463.925893 375.084654 
L 466.07197 375.816266 
L 469.291086 376.577496 
L 472.510202 377.069258 
L 476.802356 377.473206 
L 477.875395 377.54436 
L 477.875395 377.54436 
" clip-path="url(#p251d105a0c)" style="fill: none; stroke: #24b4b1; stroke-width: 1.5; stroke-linecap: square"/>
   </g>
   <g id="line2d_14">
    <path d="M 80.422642 377.908906 
L 90.978455 377.706185 
L 97.311942 377.413906 
L 103.64543 376.86575 
L 107.867755 376.28779 
L 112.090081 375.491894 
L 116.312406 374.45417 
L 120.534731 373.183329 
L 126.868219 370.971665 
L 133.201707 368.737149 
L 137.424032 367.464776 
L 141.646357 366.495214 
L 145.868682 365.870736 
L 150.091007 365.558343 
L 156.424495 365.457124 
L 164.869146 365.381561 
L 171.202634 365.051125 
L 179.647284 364.302195 
L 188.091934 363.572445 
L 196.536585 363.091267 
L 211.314723 362.392336 
L 217.648211 361.857223 
L 223.981699 361.048601 
L 230.315186 359.915713 
L 236.648674 358.478788 
L 257.7603 353.271746 
L 261.982626 352.574135 
L 266.204951 352.152665 
L 270.427276 352.083178 
L 274.649601 352.418333 
L 278.871926 353.166084 
L 283.094252 354.279869 
L 287.316577 355.66744 
L 295.761227 358.819542 
L 304.205878 361.933873 
L 312.650528 364.803667 
L 323.206341 368.136418 
L 331.650992 370.638508 
L 337.984479 372.330886 
L 342.206805 373.294346 
L 346.42913 374.070119 
L 350.651455 374.621148 
L 354.87378 374.928415 
L 359.096105 374.991394 
L 363.318431 374.823707 
L 367.540756 374.448007 
L 371.763081 373.892819 
L 378.096569 372.797188 
L 386.541219 371.046894 
L 397.097032 368.875899 
L 401.319358 368.17813 
L 405.541683 367.671642 
L 409.764008 367.416704 
L 413.986333 367.452712 
L 418.208658 367.781347 
L 422.430984 368.357546 
L 430.875634 369.885969 
L 437.209122 370.964707 
L 443.54261 371.764342 
L 449.876097 372.297184 
L 460.43191 372.867189 
L 473.098886 373.542489 
L 479.432374 374.140198 
L 485.765862 374.982726 
L 498.432837 376.794065 
L 500.544 377.027714 
L 500.544 377.027714 
" clip-path="url(#p251d105a0c)" style="fill: none; stroke-dasharray: 5.55,2.4; stroke-dashoffset: 0; stroke: #a5e10f; stroke-width: 1.5"/>
   </g>
   <g id="line2d_15">
    <path d="M 80.422642 377.824321 
L 88.867292 377.601752 
L 95.20078 377.221935 
L 99.423105 376.778766 
L 103.64543 376.106022 
L 107.867755 375.12013 
L 112.090081 373.729527 
L 114.201243 372.857179 
L 116.312406 371.858794 
L 120.534731 369.491516 
L 124.757056 366.717704 
L 133.201707 360.934267 
L 135.312869 359.683979 
L 137.424032 358.592848 
L 139.535194 357.689016 
L 141.646357 356.988818 
L 143.75752 356.495172 
L 145.868682 356.197241 
L 147.979845 356.07142 
L 152.20217 356.191931 
L 158.535658 356.646643 
L 162.757983 356.674276 
L 166.980308 356.282319 
L 171.202634 355.488278 
L 185.980772 352.045516 
L 190.203097 351.473338 
L 196.536585 350.96178 
L 207.092398 350.234729 
L 211.314723 349.757375 
L 215.537048 349.080212 
L 219.759373 348.15331 
L 223.981699 346.957939 
L 228.204024 345.526824 
L 245.093325 339.320337 
L 251.426813 337.392662 
L 259.871463 335.110206 
L 264.093788 334.126274 
L 268.316113 333.399631 
L 270.427276 333.192319 
L 272.538439 333.123284 
L 274.649601 333.215657 
L 276.760764 333.487516 
L 278.871926 333.949765 
L 280.983089 334.604658 
L 283.094252 335.44523 
L 285.205414 336.455699 
L 289.427739 338.8881 
L 293.650065 341.667843 
L 302.094715 347.386868 
L 308.428203 351.360341 
L 318.984016 357.524702 
L 335.873317 367.392233 
L 340.095642 369.494878 
L 344.317967 371.214034 
L 346.42913 371.903183 
L 348.540292 372.470674 
L 350.651455 372.914182 
L 352.762618 373.233821 
L 354.87378 373.431558 
L 356.984943 373.510617 
L 361.207268 373.329159 
L 365.429593 372.726474 
L 369.651918 371.74695 
L 373.874244 370.446472 
L 378.096569 368.89295 
L 384.430057 366.245175 
L 399.208195 359.745245 
L 403.43052 358.233333 
L 405.541683 357.633611 
L 407.652845 357.16989 
L 409.764008 356.863311 
L 411.875171 356.730164 
L 413.986333 356.779863 
L 416.097496 357.013427 
L 418.208658 357.422681 
L 420.319821 357.990349 
L 424.542146 359.493148 
L 435.097959 363.811275 
L 439.320284 365.187516 
L 443.54261 366.25138 
L 447.764935 367.065692 
L 454.098423 368.018815 
L 464.654236 369.309879 
L 473.098886 370.372238 
L 477.321211 371.09708 
L 481.543537 372.020851 
L 487.877024 373.692018 
L 494.210512 375.363819 
L 498.432837 376.279974 
L 500.544 376.652604 
L 500.544 376.652604 
" clip-path="url(#p251d105a0c)" style="fill: none; stroke-dasharray: 5.55,2.4; stroke-dashoffset: 0; stroke: #24b4b1; stroke-width: 1.5"/>
   </g>
   <g id="patch_203">
    <path d="M 72 378 
L 72 51.84 
" style="fill: none; stroke: #000000; stroke-width: 0.8; stroke-linejoin: miter; stroke-linecap: square"/>
   </g>
   <g id="patch_204">
    <path d="M 518.4 378 
L 518.4 51.84 
" style="fill: none; stroke: #000000; stroke-width: 0.8; stroke-linejoin: miter; stroke-linecap: square"/>
   </g>
   <g id="patch_205">
    <path d="M 72 378 
L 518.4 378 
" style="fill: none; stroke: #000000; stroke-width: 0.8; stroke-linejoin: miter; stroke-linecap: square"/>
   </g>
   <g id="patch_206">
    <path d="M 72 51.84 
L 518.4 51.84 
" style="fill: none; stroke: #000000; stroke-width: 0.8; stroke-linejoin: miter; stroke-linecap: square"/>
   </g>
   <g id="legend_1">
    <g id="patch_207">
     <path d="M 466.675 103.874375 
L 511.4 103.874375 
Q 513.4 103.874375 513.4 101.874375 
L 513.4 58.84 
Q 513.4 56.84 511.4 56.84 
L 466.675 56.84 
Q 464.675 56.84 464.675 58.84 
L 464.675 101.874375 
Q 464.675 103.874375 466.675 103.874375 
z
" style="fill: #ffffff; opacity: 0.8; stroke: #cccccc; stroke-linejoin: miter"/>
    </g>
    <g id="text_14">
     <!-- label2 -->
     <g transform="translate(473.763281 68.438437)scale(0.1 -0.1)">
      <defs>
       <path id="DejaVuSans-6c" d="M 603 4863 
L 1178 4863 
L 1178 0 
L 603 0 
L 603 4863 
z
" transform="scale(0.015625)"/>
       <path id="DejaVuSans-62" d="M 3116 1747 
Q 3116 2381 2855 2742 
Q 2594 3103 2138 3103 
Q 1681 3103 1420 2742 
Q 1159 2381 1159 1747 
Q 1159 1113 1420 752 
Q 1681 391 2138 391 
Q 2594 391 2855 752 
Q 3116 1113 3116 1747 
z
M 1159 2969 
Q 1341 3281 1617 3432 
Q 1894 3584 2278 3584 
Q 2916 3584 3314 3078 
Q 3713 2572 3713 1747 
Q 3713 922 3314 415 
Q 2916 -91 2278 -91 
Q 1894 -91 1617 61 
Q 1341 213 1159 525 
L 1159 0 
L 581 0 
L 581 4863 
L 1159 4863 
L 1159 2969 
z
" transform="scale(0.015625)"/>
      </defs>
      <use xlink:href="#DejaVuSans-6c"/>
      <use xlink:href="#DejaVuSans-61" x="27.783203"/>
      <use xlink:href="#DejaVuSans-62" x="89.0625"/>
      <use xlink:href="#DejaVuSans-65" x="152.539062"/>
      <use xlink:href="#DejaVuSans-6c" x="214.0625"/>
      <use xlink:href="#DejaVuSans-32" x="241.845703"/>
     </g>
    </g>
    <g id="patch_208">
     <path d="M 468.675 83.116562 
L 488.675 83.116562 
L 488.675 76.116562 
L 468.675 76.116562 
L 468.675 83.116562 
z
" style="fill: none"/>
    </g>
    <g id="text_15">
     <!-- 8 -->
     <g transform="translate(496.675 83.116562)scale(0.1 -0.1)">
      <use xlink:href="#DejaVuSans-38"/>
     </g>
    </g>
    <g id="patch_209">
     <path d="M 468.675 97.794688 
L 488.675 97.794688 
L 488.675 90.794688 
L 468.675 90.794688 
L 468.675 97.794688 
z
" style="fill: none"/>
    </g>
    <g id="text_16">
     <!-- 10 -->
     <g transform="translate(496.675 97.794688)scale(0.1 -0.1)">
      <use xlink:href="#DejaVuSans-31"/>
      <use xlink:href="#DejaVuSans-30" x="63.623047"/>
     </g>
    </g>
   </g>
  </g>
 </g>
 <defs>
  <clipPath id="p251d105a0c">
   <rect x="72" y="51.84" width="446.4" height="326.16"/>
  </clipPath>
 </defs>
</svg>
