<?xml version="1.0" encoding="utf-8" standalone="no"?>
<!DOCTYPE svg PUBLIC "-//W3C//DTD SVG 1.1//EN"
  "http://www.w3.org/Graphics/SVG/1.1/DTD/svg11.dtd">
<svg xmlns:xlink="http://www.w3.org/1999/xlink" width="576pt" height="432pt" viewBox="0 0 576 432" xmlns="http://www.w3.org/2000/svg" version="1.1">
 <metadata>
  <rdf:RDF xmlns:dc="http://purl.org/dc/elements/1.1/" xmlns:cc="http://creativecommons.org/ns#" xmlns:rdf="http://www.w3.org/1999/02/22-rdf-syntax-ns#">
   <cc:Work>
    <dc:type rdf:resource="http://purl.org/dc/dcmitype/StillImage"/>
    <dc:date>2022-04-12T13:55:54.100882</dc:date>
    <dc:format>image/svg+xml</dc:format>
    <dc:creator>
     <cc:Agent>
      <dc:title>Matplotlib v3.5.1, https://matplotlib.org/</dc:title>
     </cc:Agent>
    </dc:creator>
   </cc:Work>
  </rdf:RDF>
 </metadata>
 <defs>
  <style type="text/css">*{stroke-linejoin: round; stroke-linecap: butt}</style>
 </defs>
 <g id="figure_1">
  <g id="patch_1">
   <path d="M 0 432 
L 576 432 
L 576 0 
L 0 0 
L 0 432 
z
" style="fill: none"/>
  </g>
  <g id="axes_1">
   <g id="patch_2">
    <path d="M 72 378 
L 518.4 378 
L 518.4 51.84 
L 72 51.84 
z
" style="fill: #ffffff"/>
   </g>
   <g id="patch_3">
    <path d="M 215.046219 378 
L 217.122027 378 
L 217.122027 378 
L 215.046219 378 
z
" clip-path="url(#p2c3ea721e6)" style="fill: #a5e10f; fill-opacity: 0.5"/>
   </g>
   <g id="patch_4">
    <path d="M 217.122027 378 
L 219.197835 378 
L 219.197835 378 
L 217.122027 378 
z
" clip-path="url(#p2c3ea721e6)" style="fill: #a5e10f; fill-opacity: 0.5"/>
   </g>
   <g id="patch_5">
    <path d="M 219.197835 378 
L 221.273643 378 
L 221.273643 378 
L 219.197835 378 
z
" clip-path="url(#p2c3ea721e6)" style="fill: #a5e10f; fill-opacity: 0.5"/>
   </g>
   <g id="patch_6">
    <path d="M 221.273643 378 
L 223.349451 378 
L 223.349451 378 
L 221.273643 378 
z
" clip-path="url(#p2c3ea721e6)" style="fill: #a5e10f; fill-opacity: 0.5"/>
   </g>
   <g id="patch_7">
    <path d="M 223.349451 378 
L 225.425259 378 
L 225.425259 354.105495 
L 223.349451 354.105495 
z
" clip-path="url(#p2c3ea721e6)" style="fill: #a5e10f; fill-opacity: 0.5"/>
   </g>
   <g id="patch_8">
    <path d="M 225.425259 378 
L 227.501067 378 
L 227.501067 378 
L 225.425259 378 
z
" clip-path="url(#p2c3ea721e6)" style="fill: #a5e10f; fill-opacity: 0.5"/>
   </g>
   <g id="patch_9">
    <path d="M 227.501067 378 
L 229.576875 378 
L 229.576875 378 
L 227.501067 378 
z
" clip-path="url(#p2c3ea721e6)" style="fill: #a5e10f; fill-opacity: 0.5"/>
   </g>
   <g id="patch_10">
    <path d="M 229.576875 378 
L 231.652683 378 
L 231.652683 378 
L 229.576875 378 
z
" clip-path="url(#p2c3ea721e6)" style="fill: #a5e10f; fill-opacity: 0.5"/>
   </g>
   <g id="patch_11">
    <path d="M 231.652683 378 
L 233.728492 378 
L 233.728492 378 
L 231.652683 378 
z
" clip-path="url(#p2c3ea721e6)" style="fill: #a5e10f; fill-opacity: 0.5"/>
   </g>
   <g id="patch_12">
    <path d="M 233.728492 378 
L 235.8043 378 
L 235.8043 378 
L 233.728492 378 
z
" clip-path="url(#p2c3ea721e6)" style="fill: #a5e10f; fill-opacity: 0.5"/>
   </g>
   <g id="patch_13">
    <path d="M 235.8043 378 
L 237.880108 378 
L 237.880108 330.210989 
L 235.8043 330.210989 
z
" clip-path="url(#p2c3ea721e6)" style="fill: #a5e10f; fill-opacity: 0.5"/>
   </g>
   <g id="patch_14">
    <path d="M 237.880108 378 
L 239.955916 378 
L 239.955916 378 
L 237.880108 378 
z
" clip-path="url(#p2c3ea721e6)" style="fill: #a5e10f; fill-opacity: 0.5"/>
   </g>
   <g id="patch_15">
    <path d="M 239.955916 378 
L 242.031724 378 
L 242.031724 306.316484 
L 239.955916 306.316484 
z
" clip-path="url(#p2c3ea721e6)" style="fill: #a5e10f; fill-opacity: 0.5"/>
   </g>
   <g id="patch_16">
    <path d="M 242.031724 378 
L 244.107532 378 
L 244.107532 378 
L 242.031724 378 
z
" clip-path="url(#p2c3ea721e6)" style="fill: #a5e10f; fill-opacity: 0.5"/>
   </g>
   <g id="patch_17">
    <path d="M 244.107532 378 
L 246.18334 378 
L 246.18334 330.210989 
L 244.107532 330.210989 
z
" clip-path="url(#p2c3ea721e6)" style="fill: #a5e10f; fill-opacity: 0.5"/>
   </g>
   <g id="patch_18">
    <path d="M 246.18334 378 
L 248.259148 378 
L 248.259148 354.105495 
L 246.18334 354.105495 
z
" clip-path="url(#p2c3ea721e6)" style="fill: #a5e10f; fill-opacity: 0.5"/>
   </g>
   <g id="patch_19">
    <path d="M 248.259148 378 
L 250.334956 378 
L 250.334956 306.316484 
L 248.259148 306.316484 
z
" clip-path="url(#p2c3ea721e6)" style="fill: #a5e10f; fill-opacity: 0.5"/>
   </g>
   <g id="patch_20">
    <path d="M 250.334956 378 
L 252.410764 378 
L 252.410764 330.210989 
L 250.334956 330.210989 
z
" clip-path="url(#p2c3ea721e6)" style="fill: #a5e10f; fill-opacity: 0.5"/>
   </g>
   <g id="patch_21">
    <path d="M 252.410764 378 
L 254.486572 378 
L 254.486572 282.421978 
L 252.410764 282.421978 
z
" clip-path="url(#p2c3ea721e6)" style="fill: #a5e10f; fill-opacity: 0.5"/>
   </g>
   <g id="patch_22">
    <path d="M 254.486572 378 
L 256.562381 378 
L 256.562381 330.210989 
L 254.486572 330.210989 
z
" clip-path="url(#p2c3ea721e6)" style="fill: #a5e10f; fill-opacity: 0.5"/>
   </g>
   <g id="patch_23">
    <path d="M 256.562381 378 
L 258.638189 378 
L 258.638189 186.843956 
L 256.562381 186.843956 
z
" clip-path="url(#p2c3ea721e6)" style="fill: #a5e10f; fill-opacity: 0.5"/>
   </g>
   <g id="patch_24">
    <path d="M 258.638189 378 
L 260.713997 378 
L 260.713997 306.316484 
L 258.638189 306.316484 
z
" clip-path="url(#p2c3ea721e6)" style="fill: #a5e10f; fill-opacity: 0.5"/>
   </g>
   <g id="patch_25">
    <path d="M 260.713997 378 
L 262.789805 378 
L 262.789805 210.738462 
L 260.713997 210.738462 
z
" clip-path="url(#p2c3ea721e6)" style="fill: #a5e10f; fill-opacity: 0.5"/>
   </g>
   <g id="patch_26">
    <path d="M 262.789805 378 
L 264.865613 378 
L 264.865613 186.843956 
L 262.789805 186.843956 
z
" clip-path="url(#p2c3ea721e6)" style="fill: #a5e10f; fill-opacity: 0.5"/>
   </g>
   <g id="patch_27">
    <path d="M 264.865613 378 
L 266.941421 378 
L 266.941421 282.421978 
L 264.865613 282.421978 
z
" clip-path="url(#p2c3ea721e6)" style="fill: #a5e10f; fill-opacity: 0.5"/>
   </g>
   <g id="patch_28">
    <path d="M 266.941421 378 
L 269.017229 378 
L 269.017229 186.843956 
L 266.941421 186.843956 
z
" clip-path="url(#p2c3ea721e6)" style="fill: #a5e10f; fill-opacity: 0.5"/>
   </g>
   <g id="patch_29">
    <path d="M 269.017229 378 
L 271.093037 378 
L 271.093037 282.421978 
L 269.017229 282.421978 
z
" clip-path="url(#p2c3ea721e6)" style="fill: #a5e10f; fill-opacity: 0.5"/>
   </g>
   <g id="patch_30">
    <path d="M 271.093037 378 
L 273.168845 378 
L 273.168845 234.632967 
L 271.093037 234.632967 
z
" clip-path="url(#p2c3ea721e6)" style="fill: #a5e10f; fill-opacity: 0.5"/>
   </g>
   <g id="patch_31">
    <path d="M 273.168845 378 
L 275.244653 378 
L 275.244653 210.738462 
L 273.168845 210.738462 
z
" clip-path="url(#p2c3ea721e6)" style="fill: #a5e10f; fill-opacity: 0.5"/>
   </g>
   <g id="patch_32">
    <path d="M 275.244653 378 
L 277.320461 378 
L 277.320461 282.421978 
L 275.244653 282.421978 
z
" clip-path="url(#p2c3ea721e6)" style="fill: #a5e10f; fill-opacity: 0.5"/>
   </g>
   <g id="patch_33">
    <path d="M 277.320461 378 
L 279.39627 378 
L 279.39627 258.527473 
L 277.320461 258.527473 
z
" clip-path="url(#p2c3ea721e6)" style="fill: #a5e10f; fill-opacity: 0.5"/>
   </g>
   <g id="patch_34">
    <path d="M 279.39627 378 
L 281.472078 378 
L 281.472078 282.421978 
L 279.39627 282.421978 
z
" clip-path="url(#p2c3ea721e6)" style="fill: #a5e10f; fill-opacity: 0.5"/>
   </g>
   <g id="patch_35">
    <path d="M 281.472078 378 
L 283.547886 378 
L 283.547886 91.265934 
L 281.472078 91.265934 
z
" clip-path="url(#p2c3ea721e6)" style="fill: #a5e10f; fill-opacity: 0.5"/>
   </g>
   <g id="patch_36">
    <path d="M 283.547886 378 
L 285.623694 378 
L 285.623694 162.949451 
L 283.547886 162.949451 
z
" clip-path="url(#p2c3ea721e6)" style="fill: #a5e10f; fill-opacity: 0.5"/>
   </g>
   <g id="patch_37">
    <path d="M 285.623694 378 
L 287.699502 378 
L 287.699502 162.949451 
L 285.623694 162.949451 
z
" clip-path="url(#p2c3ea721e6)" style="fill: #a5e10f; fill-opacity: 0.5"/>
   </g>
   <g id="patch_38">
    <path d="M 287.699502 378 
L 289.77531 378 
L 289.77531 186.843956 
L 287.699502 186.843956 
z
" clip-path="url(#p2c3ea721e6)" style="fill: #a5e10f; fill-opacity: 0.5"/>
   </g>
   <g id="patch_39">
    <path d="M 289.77531 378 
L 291.851118 378 
L 291.851118 234.632967 
L 289.77531 234.632967 
z
" clip-path="url(#p2c3ea721e6)" style="fill: #a5e10f; fill-opacity: 0.5"/>
   </g>
   <g id="patch_40">
    <path d="M 291.851118 378 
L 293.926926 378 
L 293.926926 258.527473 
L 291.851118 258.527473 
z
" clip-path="url(#p2c3ea721e6)" style="fill: #a5e10f; fill-opacity: 0.5"/>
   </g>
   <g id="patch_41">
    <path d="M 293.926926 378 
L 296.002734 378 
L 296.002734 210.738462 
L 293.926926 210.738462 
z
" clip-path="url(#p2c3ea721e6)" style="fill: #a5e10f; fill-opacity: 0.5"/>
   </g>
   <g id="patch_42">
    <path d="M 296.002734 378 
L 298.078542 378 
L 298.078542 306.316484 
L 296.002734 306.316484 
z
" clip-path="url(#p2c3ea721e6)" style="fill: #a5e10f; fill-opacity: 0.5"/>
   </g>
   <g id="patch_43">
    <path d="M 298.078542 378 
L 300.15435 378 
L 300.15435 330.210989 
L 298.078542 330.210989 
z
" clip-path="url(#p2c3ea721e6)" style="fill: #a5e10f; fill-opacity: 0.5"/>
   </g>
   <g id="patch_44">
    <path d="M 300.15435 378 
L 302.230159 378 
L 302.230159 306.316484 
L 300.15435 306.316484 
z
" clip-path="url(#p2c3ea721e6)" style="fill: #a5e10f; fill-opacity: 0.5"/>
   </g>
   <g id="patch_45">
    <path d="M 302.230159 378 
L 304.305967 378 
L 304.305967 330.210989 
L 302.230159 330.210989 
z
" clip-path="url(#p2c3ea721e6)" style="fill: #a5e10f; fill-opacity: 0.5"/>
   </g>
   <g id="patch_46">
    <path d="M 304.305967 378 
L 306.381775 378 
L 306.381775 330.210989 
L 304.305967 330.210989 
z
" clip-path="url(#p2c3ea721e6)" style="fill: #a5e10f; fill-opacity: 0.5"/>
   </g>
   <g id="patch_47">
    <path d="M 306.381775 378 
L 308.457583 378 
L 308.457583 330.210989 
L 306.381775 330.210989 
z
" clip-path="url(#p2c3ea721e6)" style="fill: #a5e10f; fill-opacity: 0.5"/>
   </g>
   <g id="patch_48">
    <path d="M 308.457583 378 
L 310.533391 378 
L 310.533391 378 
L 308.457583 378 
z
" clip-path="url(#p2c3ea721e6)" style="fill: #a5e10f; fill-opacity: 0.5"/>
   </g>
   <g id="patch_49">
    <path d="M 310.533391 378 
L 312.609199 378 
L 312.609199 378 
L 310.533391 378 
z
" clip-path="url(#p2c3ea721e6)" style="fill: #a5e10f; fill-opacity: 0.5"/>
   </g>
   <g id="patch_50">
    <path d="M 312.609199 378 
L 314.685007 378 
L 314.685007 354.105495 
L 312.609199 354.105495 
z
" clip-path="url(#p2c3ea721e6)" style="fill: #a5e10f; fill-opacity: 0.5"/>
   </g>
   <g id="patch_51">
    <path d="M 314.685007 378 
L 316.760815 378 
L 316.760815 378 
L 314.685007 378 
z
" clip-path="url(#p2c3ea721e6)" style="fill: #a5e10f; fill-opacity: 0.5"/>
   </g>
   <g id="patch_52">
    <path d="M 316.760815 378 
L 318.836623 378 
L 318.836623 354.105495 
L 316.760815 354.105495 
z
" clip-path="url(#p2c3ea721e6)" style="fill: #a5e10f; fill-opacity: 0.5"/>
   </g>
   <g id="patch_53">
    <path d="M 215.046219 378 
L 217.122027 378 
L 217.122027 354.105495 
L 215.046219 354.105495 
z
" clip-path="url(#p2c3ea721e6)" style="fill: #24b4b1; fill-opacity: 0.5"/>
   </g>
   <g id="patch_54">
    <path d="M 217.122027 378 
L 219.197835 378 
L 219.197835 354.105495 
L 217.122027 354.105495 
z
" clip-path="url(#p2c3ea721e6)" style="fill: #24b4b1; fill-opacity: 0.5"/>
   </g>
   <g id="patch_55">
    <path d="M 219.197835 378 
L 221.273643 378 
L 221.273643 378 
L 219.197835 378 
z
" clip-path="url(#p2c3ea721e6)" style="fill: #24b4b1; fill-opacity: 0.5"/>
   </g>
   <g id="patch_56">
    <path d="M 221.273643 378 
L 223.349451 378 
L 223.349451 378 
L 221.273643 378 
z
" clip-path="url(#p2c3ea721e6)" style="fill: #24b4b1; fill-opacity: 0.5"/>
   </g>
   <g id="patch_57">
    <path d="M 223.349451 378 
L 225.425259 378 
L 225.425259 378 
L 223.349451 378 
z
" clip-path="url(#p2c3ea721e6)" style="fill: #24b4b1; fill-opacity: 0.5"/>
   </g>
   <g id="patch_58">
    <path d="M 225.425259 378 
L 227.501067 378 
L 227.501067 378 
L 225.425259 378 
z
" clip-path="url(#p2c3ea721e6)" style="fill: #24b4b1; fill-opacity: 0.5"/>
   </g>
   <g id="patch_59">
    <path d="M 227.501067 378 
L 229.576875 378 
L 229.576875 378 
L 227.501067 378 
z
" clip-path="url(#p2c3ea721e6)" style="fill: #24b4b1; fill-opacity: 0.5"/>
   </g>
   <g id="patch_60">
    <path d="M 229.576875 378 
L 231.652683 378 
L 231.652683 378 
L 229.576875 378 
z
" clip-path="url(#p2c3ea721e6)" style="fill: #24b4b1; fill-opacity: 0.5"/>
   </g>
   <g id="patch_61">
    <path d="M 231.652683 378 
L 233.728492 378 
L 233.728492 330.210989 
L 231.652683 330.210989 
z
" clip-path="url(#p2c3ea721e6)" style="fill: #24b4b1; fill-opacity: 0.5"/>
   </g>
   <g id="patch_62">
    <path d="M 233.728492 378 
L 235.8043 378 
L 235.8043 354.105495 
L 233.728492 354.105495 
z
" clip-path="url(#p2c3ea721e6)" style="fill: #24b4b1; fill-opacity: 0.5"/>
   </g>
   <g id="patch_63">
    <path d="M 235.8043 378 
L 237.880108 378 
L 237.880108 354.105495 
L 235.8043 354.105495 
z
" clip-path="url(#p2c3ea721e6)" style="fill: #24b4b1; fill-opacity: 0.5"/>
   </g>
   <g id="patch_64">
    <path d="M 237.880108 378 
L 239.955916 378 
L 239.955916 330.210989 
L 237.880108 330.210989 
z
" clip-path="url(#p2c3ea721e6)" style="fill: #24b4b1; fill-opacity: 0.5"/>
   </g>
   <g id="patch_65">
    <path d="M 239.955916 378 
L 242.031724 378 
L 242.031724 306.316484 
L 239.955916 306.316484 
z
" clip-path="url(#p2c3ea721e6)" style="fill: #24b4b1; fill-opacity: 0.5"/>
   </g>
   <g id="patch_66">
    <path d="M 242.031724 378 
L 244.107532 378 
L 244.107532 330.210989 
L 242.031724 330.210989 
z
" clip-path="url(#p2c3ea721e6)" style="fill: #24b4b1; fill-opacity: 0.5"/>
   </g>
   <g id="patch_67">
    <path d="M 244.107532 378 
L 246.18334 378 
L 246.18334 306.316484 
L 244.107532 306.316484 
z
" clip-path="url(#p2c3ea721e6)" style="fill: #24b4b1; fill-opacity: 0.5"/>
   </g>
   <g id="patch_68">
    <path d="M 246.18334 378 
L 248.259148 378 
L 248.259148 378 
L 246.18334 378 
z
" clip-path="url(#p2c3ea721e6)" style="fill: #24b4b1; fill-opacity: 0.5"/>
   </g>
   <g id="patch_69">
    <path d="M 248.259148 378 
L 250.334956 378 
L 250.334956 234.632967 
L 248.259148 234.632967 
z
" clip-path="url(#p2c3ea721e6)" style="fill: #24b4b1; fill-opacity: 0.5"/>
   </g>
   <g id="patch_70">
    <path d="M 250.334956 378 
L 252.410764 378 
L 252.410764 282.421978 
L 250.334956 282.421978 
z
" clip-path="url(#p2c3ea721e6)" style="fill: #24b4b1; fill-opacity: 0.5"/>
   </g>
   <g id="patch_71">
    <path d="M 252.410764 378 
L 254.486572 378 
L 254.486572 282.421978 
L 252.410764 282.421978 
z
" clip-path="url(#p2c3ea721e6)" style="fill: #24b4b1; fill-opacity: 0.5"/>
   </g>
   <g id="patch_72">
    <path d="M 254.486572 378 
L 256.562381 378 
L 256.562381 186.843956 
L 254.486572 186.843956 
z
" clip-path="url(#p2c3ea721e6)" style="fill: #24b4b1; fill-opacity: 0.5"/>
   </g>
   <g id="patch_73">
    <path d="M 256.562381 378 
L 258.638189 378 
L 258.638189 67.371429 
L 256.562381 67.371429 
z
" clip-path="url(#p2c3ea721e6)" style="fill: #24b4b1; fill-opacity: 0.5"/>
   </g>
   <g id="patch_74">
    <path d="M 258.638189 378 
L 260.713997 378 
L 260.713997 139.054945 
L 258.638189 139.054945 
z
" clip-path="url(#p2c3ea721e6)" style="fill: #24b4b1; fill-opacity: 0.5"/>
   </g>
   <g id="patch_75">
    <path d="M 260.713997 378 
L 262.789805 378 
L 262.789805 234.632967 
L 260.713997 234.632967 
z
" clip-path="url(#p2c3ea721e6)" style="fill: #24b4b1; fill-opacity: 0.5"/>
   </g>
   <g id="patch_76">
    <path d="M 262.789805 378 
L 264.865613 378 
L 264.865613 186.843956 
L 262.789805 186.843956 
z
" clip-path="url(#p2c3ea721e6)" style="fill: #24b4b1; fill-opacity: 0.5"/>
   </g>
   <g id="patch_77">
    <path d="M 264.865613 378 
L 266.941421 378 
L 266.941421 115.16044 
L 264.865613 115.16044 
z
" clip-path="url(#p2c3ea721e6)" style="fill: #24b4b1; fill-opacity: 0.5"/>
   </g>
   <g id="patch_78">
    <path d="M 266.941421 378 
L 269.017229 378 
L 269.017229 162.949451 
L 266.941421 162.949451 
z
" clip-path="url(#p2c3ea721e6)" style="fill: #24b4b1; fill-opacity: 0.5"/>
   </g>
   <g id="patch_79">
    <path d="M 269.017229 378 
L 271.093037 378 
L 271.093037 162.949451 
L 269.017229 162.949451 
z
" clip-path="url(#p2c3ea721e6)" style="fill: #24b4b1; fill-opacity: 0.5"/>
   </g>
   <g id="patch_80">
    <path d="M 271.093037 378 
L 273.168845 378 
L 273.168845 67.371429 
L 271.093037 67.371429 
z
" clip-path="url(#p2c3ea721e6)" style="fill: #24b4b1; fill-opacity: 0.5"/>
   </g>
   <g id="patch_81">
    <path d="M 273.168845 378 
L 275.244653 378 
L 275.244653 186.843956 
L 273.168845 186.843956 
z
" clip-path="url(#p2c3ea721e6)" style="fill: #24b4b1; fill-opacity: 0.5"/>
   </g>
   <g id="patch_82">
    <path d="M 275.244653 378 
L 277.320461 378 
L 277.320461 354.105495 
L 275.244653 354.105495 
z
" clip-path="url(#p2c3ea721e6)" style="fill: #24b4b1; fill-opacity: 0.5"/>
   </g>
   <g id="patch_83">
    <path d="M 277.320461 378 
L 279.39627 378 
L 279.39627 210.738462 
L 277.320461 210.738462 
z
" clip-path="url(#p2c3ea721e6)" style="fill: #24b4b1; fill-opacity: 0.5"/>
   </g>
   <g id="patch_84">
    <path d="M 279.39627 378 
L 281.472078 378 
L 281.472078 186.843956 
L 279.39627 186.843956 
z
" clip-path="url(#p2c3ea721e6)" style="fill: #24b4b1; fill-opacity: 0.5"/>
   </g>
   <g id="patch_85">
    <path d="M 281.472078 378 
L 283.547886 378 
L 283.547886 186.843956 
L 281.472078 186.843956 
z
" clip-path="url(#p2c3ea721e6)" style="fill: #24b4b1; fill-opacity: 0.5"/>
   </g>
   <g id="patch_86">
    <path d="M 283.547886 378 
L 285.623694 378 
L 285.623694 210.738462 
L 283.547886 210.738462 
z
" clip-path="url(#p2c3ea721e6)" style="fill: #24b4b1; fill-opacity: 0.5"/>
   </g>
   <g id="patch_87">
    <path d="M 285.623694 378 
L 287.699502 378 
L 287.699502 306.316484 
L 285.623694 306.316484 
z
" clip-path="url(#p2c3ea721e6)" style="fill: #24b4b1; fill-opacity: 0.5"/>
   </g>
   <g id="patch_88">
    <path d="M 287.699502 378 
L 289.77531 378 
L 289.77531 306.316484 
L 287.699502 306.316484 
z
" clip-path="url(#p2c3ea721e6)" style="fill: #24b4b1; fill-opacity: 0.5"/>
   </g>
   <g id="patch_89">
    <path d="M 289.77531 378 
L 291.851118 378 
L 291.851118 330.210989 
L 289.77531 330.210989 
z
" clip-path="url(#p2c3ea721e6)" style="fill: #24b4b1; fill-opacity: 0.5"/>
   </g>
   <g id="patch_90">
    <path d="M 291.851118 378 
L 293.926926 378 
L 293.926926 282.421978 
L 291.851118 282.421978 
z
" clip-path="url(#p2c3ea721e6)" style="fill: #24b4b1; fill-opacity: 0.5"/>
   </g>
   <g id="patch_91">
    <path d="M 293.926926 378 
L 296.002734 378 
L 296.002734 282.421978 
L 293.926926 282.421978 
z
" clip-path="url(#p2c3ea721e6)" style="fill: #24b4b1; fill-opacity: 0.5"/>
   </g>
   <g id="patch_92">
    <path d="M 296.002734 378 
L 298.078542 378 
L 298.078542 378 
L 296.002734 378 
z
" clip-path="url(#p2c3ea721e6)" style="fill: #24b4b1; fill-opacity: 0.5"/>
   </g>
   <g id="patch_93">
    <path d="M 298.078542 378 
L 300.15435 378 
L 300.15435 378 
L 298.078542 378 
z
" clip-path="url(#p2c3ea721e6)" style="fill: #24b4b1; fill-opacity: 0.5"/>
   </g>
   <g id="patch_94">
    <path d="M 300.15435 378 
L 302.230159 378 
L 302.230159 330.210989 
L 300.15435 330.210989 
z
" clip-path="url(#p2c3ea721e6)" style="fill: #24b4b1; fill-opacity: 0.5"/>
   </g>
   <g id="patch_95">
    <path d="M 302.230159 378 
L 304.305967 378 
L 304.305967 378 
L 302.230159 378 
z
" clip-path="url(#p2c3ea721e6)" style="fill: #24b4b1; fill-opacity: 0.5"/>
   </g>
   <g id="patch_96">
    <path d="M 304.305967 378 
L 306.381775 378 
L 306.381775 306.316484 
L 304.305967 306.316484 
z
" clip-path="url(#p2c3ea721e6)" style="fill: #24b4b1; fill-opacity: 0.5"/>
   </g>
   <g id="patch_97">
    <path d="M 306.381775 378 
L 308.457583 378 
L 308.457583 354.105495 
L 306.381775 354.105495 
z
" clip-path="url(#p2c3ea721e6)" style="fill: #24b4b1; fill-opacity: 0.5"/>
   </g>
   <g id="patch_98">
    <path d="M 308.457583 378 
L 310.533391 378 
L 310.533391 378 
L 308.457583 378 
z
" clip-path="url(#p2c3ea721e6)" style="fill: #24b4b1; fill-opacity: 0.5"/>
   </g>
   <g id="patch_99">
    <path d="M 310.533391 378 
L 312.609199 378 
L 312.609199 378 
L 310.533391 378 
z
" clip-path="url(#p2c3ea721e6)" style="fill: #24b4b1; fill-opacity: 0.5"/>
   </g>
   <g id="patch_100">
    <path d="M 312.609199 378 
L 314.685007 378 
L 314.685007 378 
L 312.609199 378 
z
" clip-path="url(#p2c3ea721e6)" style="fill: #24b4b1; fill-opacity: 0.5"/>
   </g>
   <g id="patch_101">
    <path d="M 314.685007 378 
L 316.760815 378 
L 316.760815 378 
L 314.685007 378 
z
" clip-path="url(#p2c3ea721e6)" style="fill: #24b4b1; fill-opacity: 0.5"/>
   </g>
   <g id="patch_102">
    <path d="M 316.760815 378 
L 318.836623 378 
L 318.836623 378 
L 316.760815 378 
z
" clip-path="url(#p2c3ea721e6)" style="fill: #24b4b1; fill-opacity: 0.5"/>
   </g>
   <g id="patch_103">
    <path d="M 80.422642 378 
L 88.825069 378 
L 88.825069 377.761854 
L 80.422642 377.761854 
L 80.422642 378 
z
" clip-path="url(#p2c3ea721e6)" style="fill: none"/>
   </g>
   <g id="patch_104">
    <path d="M 88.825069 378 
L 97.227496 378 
L 97.227496 377.940463 
L 88.825069 377.940463 
L 88.825069 378 
z
" clip-path="url(#p2c3ea721e6)" style="fill: none"/>
   </g>
   <g id="patch_105">
    <path d="M 97.227496 378 
L 105.629923 378 
L 105.629923 377.880927 
L 97.227496 377.880927 
L 97.227496 378 
z
" clip-path="url(#p2c3ea721e6)" style="fill: none"/>
   </g>
   <g id="patch_106">
    <path d="M 105.629923 378 
L 114.03235 378 
L 114.03235 376.035293 
L 105.629923 376.035293 
L 105.629923 378 
z
" clip-path="url(#p2c3ea721e6)" style="fill: none"/>
   </g>
   <g id="patch_107">
    <path d="M 114.03235 378 
L 122.434777 378 
L 122.434777 374.487342 
L 114.03235 374.487342 
L 114.03235 378 
z
" clip-path="url(#p2c3ea721e6)" style="fill: none"/>
   </g>
   <g id="patch_108">
    <path d="M 122.434777 378 
L 130.837205 378 
L 130.837205 367.938318 
L 122.434777 367.938318 
L 122.434777 378 
z
" clip-path="url(#p2c3ea721e6)" style="fill: none"/>
   </g>
   <g id="patch_109">
    <path d="M 130.837205 378 
L 139.239632 378 
L 139.239632 356.507295 
L 130.837205 356.507295 
L 130.837205 378 
z
" clip-path="url(#p2c3ea721e6)" style="fill: none"/>
   </g>
   <g id="patch_110">
    <path d="M 139.239632 378 
L 147.642059 378 
L 147.642059 350.67271 
L 139.239632 350.67271 
L 139.239632 378 
z
" clip-path="url(#p2c3ea721e6)" style="fill: none"/>
   </g>
   <g id="patch_111">
    <path d="M 147.642059 378 
L 156.044486 378 
L 156.044486 356.507295 
L 147.642059 356.507295 
L 147.642059 378 
z
" clip-path="url(#p2c3ea721e6)" style="fill: none"/>
   </g>
   <g id="patch_112">
    <path d="M 156.044486 378 
L 164.446913 378 
L 164.446913 359.960416 
L 156.044486 359.960416 
L 156.044486 378 
z
" clip-path="url(#p2c3ea721e6)" style="fill: none"/>
   </g>
   <g id="patch_113">
    <path d="M 164.446913 378 
L 172.84934 378 
L 172.84934 357.519416 
L 164.446913 357.519416 
L 164.446913 378 
z
" clip-path="url(#p2c3ea721e6)" style="fill: none"/>
   </g>
   <g id="patch_114">
    <path d="M 172.84934 378 
L 181.251768 378 
L 181.251768 354.542587 
L 172.84934 354.542587 
L 172.84934 378 
z
" clip-path="url(#p2c3ea721e6)" style="fill: none"/>
   </g>
   <g id="patch_115">
    <path d="M 181.251768 378 
L 189.654195 378 
L 189.654195 350.434563 
L 181.251768 350.434563 
L 181.251768 378 
z
" clip-path="url(#p2c3ea721e6)" style="fill: none"/>
   </g>
   <g id="patch_116">
    <path d="M 189.654195 378 
L 198.056622 378 
L 198.056622 351.922978 
L 189.654195 351.922978 
L 189.654195 378 
z
" clip-path="url(#p2c3ea721e6)" style="fill: none"/>
   </g>
   <g id="patch_117">
    <path d="M 198.056622 378 
L 206.459049 378 
L 206.459049 353.411392 
L 198.056622 353.411392 
L 198.056622 378 
z
" clip-path="url(#p2c3ea721e6)" style="fill: none"/>
   </g>
   <g id="patch_118">
    <path d="M 206.459049 378 
L 214.861476 378 
L 214.861476 349.541515 
L 206.459049 349.541515 
L 206.459049 378 
z
" clip-path="url(#p2c3ea721e6)" style="fill: none"/>
   </g>
   <g id="patch_119">
    <path d="M 214.861476 378 
L 223.263903 378 
L 223.263903 351.089466 
L 214.861476 351.089466 
L 214.861476 378 
z
" clip-path="url(#p2c3ea721e6)" style="fill: none"/>
   </g>
   <g id="patch_120">
    <path d="M 223.263903 378 
L 231.666331 378 
L 231.666331 344.064149 
L 223.263903 344.064149 
L 223.263903 378 
z
" clip-path="url(#p2c3ea721e6)" style="fill: none"/>
   </g>
   <g id="patch_121">
    <path d="M 231.666331 378 
L 240.068758 378 
L 240.068758 346.207466 
L 231.666331 346.207466 
L 231.666331 378 
z
" clip-path="url(#p2c3ea721e6)" style="fill: none"/>
   </g>
   <g id="patch_122">
    <path d="M 240.068758 378 
L 248.471185 378 
L 248.471185 340.015662 
L 240.068758 340.015662 
L 240.068758 378 
z
" clip-path="url(#p2c3ea721e6)" style="fill: none"/>
   </g>
   <g id="patch_123">
    <path d="M 248.471185 378 
L 256.873612 378 
L 256.873612 336.086248 
L 248.471185 336.086248 
L 248.471185 378 
z
" clip-path="url(#p2c3ea721e6)" style="fill: none"/>
   </g>
   <g id="patch_124">
    <path d="M 256.873612 378 
L 265.276039 378 
L 265.276039 332.21637 
L 256.873612 332.21637 
L 256.873612 378 
z
" clip-path="url(#p2c3ea721e6)" style="fill: none"/>
   </g>
   <g id="patch_125">
    <path d="M 265.276039 378 
L 273.678466 378 
L 273.678466 331.561468 
L 265.276039 331.561468 
L 265.276039 378 
z
" clip-path="url(#p2c3ea721e6)" style="fill: none"/>
   </g>
   <g id="patch_126">
    <path d="M 273.678466 378 
L 282.080894 378 
L 282.080894 327.155761 
L 273.678466 327.155761 
L 273.678466 378 
z
" clip-path="url(#p2c3ea721e6)" style="fill: none"/>
   </g>
   <g id="patch_127">
    <path d="M 282.080894 378 
L 290.483321 378 
L 290.483321 337.336516 
L 282.080894 337.336516 
L 282.080894 378 
z
" clip-path="url(#p2c3ea721e6)" style="fill: none"/>
   </g>
   <g id="patch_128">
    <path d="M 290.483321 378 
L 298.885748 378 
L 298.885748 345.909783 
L 290.483321 345.909783 
L 290.483321 378 
z
" clip-path="url(#p2c3ea721e6)" style="fill: none"/>
   </g>
   <g id="patch_129">
    <path d="M 298.885748 378 
L 307.288175 378 
L 307.288175 348.946149 
L 298.885748 348.946149 
L 298.885748 378 
z
" clip-path="url(#p2c3ea721e6)" style="fill: none"/>
   </g>
   <g id="patch_130">
    <path d="M 307.288175 378 
L 315.690602 378 
L 315.690602 350.67271 
L 307.288175 350.67271 
L 307.288175 378 
z
" clip-path="url(#p2c3ea721e6)" style="fill: none"/>
   </g>
   <g id="patch_131">
    <path d="M 315.690602 378 
L 324.093029 378 
L 324.093029 357.340807 
L 315.690602 357.340807 
L 315.690602 378 
z
" clip-path="url(#p2c3ea721e6)" style="fill: none"/>
   </g>
   <g id="patch_132">
    <path d="M 324.093029 378 
L 332.495457 378 
L 332.495457 361.032075 
L 324.093029 361.032075 
L 324.093029 378 
z
" clip-path="url(#p2c3ea721e6)" style="fill: none"/>
   </g>
   <g id="patch_133">
    <path d="M 332.495457 378 
L 340.897884 378 
L 340.897884 369.248123 
L 332.495457 369.248123 
L 332.495457 378 
z
" clip-path="url(#p2c3ea721e6)" style="fill: none"/>
   </g>
   <g id="patch_134">
    <path d="M 340.897884 378 
L 349.300311 378 
L 349.300311 374.308732 
L 340.897884 374.308732 
L 340.897884 378 
z
" clip-path="url(#p2c3ea721e6)" style="fill: none"/>
   </g>
   <g id="patch_135">
    <path d="M 349.300311 378 
L 357.702738 378 
L 357.702738 374.844561 
L 349.300311 374.844561 
L 349.300311 378 
z
" clip-path="url(#p2c3ea721e6)" style="fill: none"/>
   </g>
   <g id="patch_136">
    <path d="M 357.702738 378 
L 366.105165 378 
L 366.105165 374.308732 
L 357.702738 374.308732 
L 357.702738 378 
z
" clip-path="url(#p2c3ea721e6)" style="fill: none"/>
   </g>
   <g id="patch_137">
    <path d="M 366.105165 378 
L 374.507592 378 
L 374.507592 373.832439 
L 366.105165 373.832439 
L 366.105165 378 
z
" clip-path="url(#p2c3ea721e6)" style="fill: none"/>
   </g>
   <g id="patch_138">
    <path d="M 374.507592 378 
L 382.91002 378 
L 382.91002 370.141171 
L 374.507592 370.141171 
L 374.507592 378 
z
" clip-path="url(#p2c3ea721e6)" style="fill: none"/>
   </g>
   <g id="patch_139">
    <path d="M 382.91002 378 
L 391.312447 378 
L 391.312447 366.211757 
L 382.91002 366.211757 
L 382.91002 378 
z
" clip-path="url(#p2c3ea721e6)" style="fill: none"/>
   </g>
   <g id="patch_140">
    <path d="M 391.312447 378 
L 399.714874 378 
L 399.714874 363.413538 
L 391.312447 363.413538 
L 391.312447 378 
z
" clip-path="url(#p2c3ea721e6)" style="fill: none"/>
   </g>
   <g id="patch_141">
    <path d="M 399.714874 378 
L 408.117301 378 
L 408.117301 357.10266 
L 399.714874 357.10266 
L 399.714874 378 
z
" clip-path="url(#p2c3ea721e6)" style="fill: none"/>
   </g>
   <g id="patch_142">
    <path d="M 408.117301 378 
L 416.519728 378 
L 416.519728 352.9351 
L 408.117301 352.9351 
L 408.117301 378 
z
" clip-path="url(#p2c3ea721e6)" style="fill: none"/>
   </g>
   <g id="patch_143">
    <path d="M 416.519728 378 
L 424.922155 378 
L 424.922155 355.257026 
L 416.519728 355.257026 
L 416.519728 378 
z
" clip-path="url(#p2c3ea721e6)" style="fill: none"/>
   </g>
   <g id="patch_144">
    <path d="M 424.922155 378 
L 433.324583 378 
L 433.324583 363.115855 
L 424.922155 363.115855 
L 424.922155 378 
z
" clip-path="url(#p2c3ea721e6)" style="fill: none"/>
   </g>
   <g id="patch_145">
    <path d="M 433.324583 378 
L 441.72701 378 
L 441.72701 369.248123 
L 433.324583 369.248123 
L 433.324583 378 
z
" clip-path="url(#p2c3ea721e6)" style="fill: none"/>
   </g>
   <g id="patch_146">
    <path d="M 441.72701 378 
L 450.129437 378 
L 450.129437 367.640635 
L 441.72701 367.640635 
L 441.72701 378 
z
" clip-path="url(#p2c3ea721e6)" style="fill: none"/>
   </g>
   <g id="patch_147">
    <path d="M 450.129437 378 
L 458.531864 378 
L 458.531864 366.747586 
L 450.129437 366.747586 
L 450.129437 378 
z
" clip-path="url(#p2c3ea721e6)" style="fill: none"/>
   </g>
   <g id="patch_148">
    <path d="M 458.531864 378 
L 466.934291 378 
L 466.934291 369.486269 
L 458.531864 369.486269 
L 458.531864 378 
z
" clip-path="url(#p2c3ea721e6)" style="fill: none"/>
   </g>
   <g id="patch_149">
    <path d="M 466.934291 378 
L 475.336718 378 
L 475.336718 371.689123 
L 466.934291 371.689123 
L 466.934291 378 
z
" clip-path="url(#p2c3ea721e6)" style="fill: none"/>
   </g>
   <g id="patch_150">
    <path d="M 475.336718 378 
L 483.739146 378 
L 483.739146 364.24705 
L 475.336718 364.24705 
L 475.336718 378 
z
" clip-path="url(#p2c3ea721e6)" style="fill: none"/>
   </g>
   <g id="patch_151">
    <path d="M 483.739146 378 
L 492.141573 378 
L 492.141573 374.963634 
L 483.739146 374.963634 
L 483.739146 378 
z
" clip-path="url(#p2c3ea721e6)" style="fill: none"/>
   </g>
   <g id="patch_152">
    <path d="M 492.141573 378 
L 500.544 378 
L 500.544 377.583244 
L 492.141573 377.583244 
L 492.141573 378 
z
" clip-path="url(#p2c3ea721e6)" style="fill: none"/>
   </g>
   <g id="patch_153">
    <path d="M 80.422642 378 
L 88.825069 378 
L 88.825069 377.761854 
L 80.422642 377.761854 
L 80.422642 378 
z
" clip-path="url(#p2c3ea721e6)" style="fill: none"/>
   </g>
   <g id="patch_154">
    <path d="M 88.825069 378 
L 97.227496 378 
L 97.227496 377.880927 
L 88.825069 377.880927 
L 88.825069 378 
z
" clip-path="url(#p2c3ea721e6)" style="fill: none"/>
   </g>
   <g id="patch_155">
    <path d="M 97.227496 378 
L 105.629923 378 
L 105.629923 377.642781 
L 97.227496 377.642781 
L 97.227496 378 
z
" clip-path="url(#p2c3ea721e6)" style="fill: none"/>
   </g>
   <g id="patch_156">
    <path d="M 105.629923 378 
L 114.03235 378 
L 114.03235 375.201781 
L 105.629923 375.201781 
L 105.629923 378 
z
" clip-path="url(#p2c3ea721e6)" style="fill: none"/>
   </g>
   <g id="patch_157">
    <path d="M 114.03235 378 
L 122.434777 378 
L 122.434777 374.427805 
L 114.03235 374.427805 
L 114.03235 378 
z
" clip-path="url(#p2c3ea721e6)" style="fill: none"/>
   </g>
   <g id="patch_158">
    <path d="M 122.434777 378 
L 130.837205 378 
L 130.837205 367.283416 
L 122.434777 367.283416 
L 122.434777 378 
z
" clip-path="url(#p2c3ea721e6)" style="fill: none"/>
   </g>
   <g id="patch_159">
    <path d="M 130.837205 378 
L 139.239632 378 
L 139.239632 352.816027 
L 130.837205 352.816027 
L 130.837205 378 
z
" clip-path="url(#p2c3ea721e6)" style="fill: none"/>
   </g>
   <g id="patch_160">
    <path d="M 139.239632 378 
L 147.642059 378 
L 147.642059 346.326539 
L 139.239632 346.326539 
L 139.239632 378 
z
" clip-path="url(#p2c3ea721e6)" style="fill: none"/>
   </g>
   <g id="patch_161">
    <path d="M 147.642059 378 
L 156.044486 378 
L 156.044486 352.75649 
L 147.642059 352.75649 
L 147.642059 378 
z
" clip-path="url(#p2c3ea721e6)" style="fill: none"/>
   </g>
   <g id="patch_162">
    <path d="M 156.044486 378 
L 164.446913 378 
L 164.446913 357.578953 
L 156.044486 357.578953 
L 156.044486 378 
z
" clip-path="url(#p2c3ea721e6)" style="fill: none"/>
   </g>
   <g id="patch_163">
    <path d="M 164.446913 378 
L 172.84934 378 
L 172.84934 356.031002 
L 164.446913 356.031002 
L 164.446913 378 
z
" clip-path="url(#p2c3ea721e6)" style="fill: none"/>
   </g>
   <g id="patch_164">
    <path d="M 172.84934 378 
L 181.251768 378 
L 181.251768 352.518344 
L 172.84934 352.518344 
L 172.84934 378 
z
" clip-path="url(#p2c3ea721e6)" style="fill: none"/>
   </g>
   <g id="patch_165">
    <path d="M 181.251768 378 
L 189.654195 378 
L 189.654195 348.112637 
L 181.251768 348.112637 
L 181.251768 378 
z
" clip-path="url(#p2c3ea721e6)" style="fill: none"/>
   </g>
   <g id="patch_166">
    <path d="M 189.654195 378 
L 198.056622 378 
L 198.056622 348.827076 
L 189.654195 348.827076 
L 189.654195 378 
z
" clip-path="url(#p2c3ea721e6)" style="fill: none"/>
   </g>
   <g id="patch_167">
    <path d="M 198.056622 378 
L 206.459049 378 
L 206.459049 350.910856 
L 198.056622 350.910856 
L 198.056622 378 
z
" clip-path="url(#p2c3ea721e6)" style="fill: none"/>
   </g>
   <g id="patch_168">
    <path d="M 206.459049 378 
L 214.861476 378 
L 214.861476 346.862369 
L 206.459049 346.862369 
L 206.459049 378 
z
" clip-path="url(#p2c3ea721e6)" style="fill: none"/>
   </g>
   <g id="patch_169">
    <path d="M 214.861476 378 
L 223.263903 378 
L 223.263903 348.0531 
L 214.861476 348.0531 
L 214.861476 378 
z
" clip-path="url(#p2c3ea721e6)" style="fill: none"/>
   </g>
   <g id="patch_170">
    <path d="M 223.263903 378 
L 231.666331 378 
L 231.666331 343.70693 
L 223.263903 343.70693 
L 223.263903 378 
z
" clip-path="url(#p2c3ea721e6)" style="fill: none"/>
   </g>
   <g id="patch_171">
    <path d="M 231.666331 378 
L 240.068758 378 
L 240.068758 340.432418 
L 231.666331 340.432418 
L 231.666331 378 
z
" clip-path="url(#p2c3ea721e6)" style="fill: none"/>
   </g>
   <g id="patch_172">
    <path d="M 240.068758 378 
L 248.471185 378 
L 248.471185 331.561468 
L 240.068758 331.561468 
L 240.068758 378 
z
" clip-path="url(#p2c3ea721e6)" style="fill: none"/>
   </g>
   <g id="patch_173">
    <path d="M 248.471185 378 
L 256.873612 378 
L 256.873612 333.168955 
L 248.471185 333.168955 
L 248.471185 378 
z
" clip-path="url(#p2c3ea721e6)" style="fill: none"/>
   </g>
   <g id="patch_174">
    <path d="M 256.873612 378 
L 265.276039 378 
L 265.276039 329.656297 
L 256.873612 329.656297 
L 256.873612 378 
z
" clip-path="url(#p2c3ea721e6)" style="fill: none"/>
   </g>
   <g id="patch_175">
    <path d="M 265.276039 378 
L 273.678466 378 
L 273.678466 322.869127 
L 265.276039 322.869127 
L 265.276039 378 
z
" clip-path="url(#p2c3ea721e6)" style="fill: none"/>
   </g>
   <g id="patch_176">
    <path d="M 273.678466 378 
L 282.080894 378 
L 282.080894 321.142566 
L 273.678466 321.142566 
L 273.678466 378 
z
" clip-path="url(#p2c3ea721e6)" style="fill: none"/>
   </g>
   <g id="patch_177">
    <path d="M 282.080894 378 
L 290.483321 378 
L 290.483321 332.454516 
L 282.080894 332.454516 
L 282.080894 378 
z
" clip-path="url(#p2c3ea721e6)" style="fill: none"/>
   </g>
   <g id="patch_178">
    <path d="M 290.483321 378 
L 298.885748 378 
L 298.885748 340.491955 
L 290.483321 340.491955 
L 290.483321 378 
z
" clip-path="url(#p2c3ea721e6)" style="fill: none"/>
   </g>
   <g id="patch_179">
    <path d="M 298.885748 378 
L 307.288175 378 
L 307.288175 343.647393 
L 298.885748 343.647393 
L 298.885748 378 
z
" clip-path="url(#p2c3ea721e6)" style="fill: none"/>
   </g>
   <g id="patch_180">
    <path d="M 307.288175 378 
L 315.690602 378 
L 315.690602 350.434563 
L 307.288175 350.434563 
L 307.288175 378 
z
" clip-path="url(#p2c3ea721e6)" style="fill: none"/>
   </g>
   <g id="patch_181">
    <path d="M 315.690602 378 
L 324.093029 378 
L 324.093029 355.495173 
L 315.690602 355.495173 
L 315.690602 378 
z
" clip-path="url(#p2c3ea721e6)" style="fill: none"/>
   </g>
   <g id="patch_182">
    <path d="M 324.093029 378 
L 332.495457 378 
L 332.495457 360.793928 
L 324.093029 360.793928 
L 324.093029 378 
z
" clip-path="url(#p2c3ea721e6)" style="fill: none"/>
   </g>
   <g id="patch_183">
    <path d="M 332.495457 378 
L 340.897884 378 
L 340.897884 366.33083 
L 332.495457 366.33083 
L 332.495457 378 
z
" clip-path="url(#p2c3ea721e6)" style="fill: none"/>
   </g>
   <g id="patch_184">
    <path d="M 340.897884 378 
L 349.300311 378 
L 349.300311 373.772903 
L 340.897884 373.772903 
L 340.897884 378 
z
" clip-path="url(#p2c3ea721e6)" style="fill: none"/>
   </g>
   <g id="patch_185">
    <path d="M 349.300311 378 
L 357.702738 378 
L 357.702738 374.546878 
L 349.300311 374.546878 
L 349.300311 378 
z
" clip-path="url(#p2c3ea721e6)" style="fill: none"/>
   </g>
   <g id="patch_186">
    <path d="M 357.702738 378 
L 366.105165 378 
L 366.105165 374.844561 
L 357.702738 374.844561 
L 357.702738 378 
z
" clip-path="url(#p2c3ea721e6)" style="fill: none"/>
   </g>
   <g id="patch_187">
    <path d="M 366.105165 378 
L 374.507592 378 
L 374.507592 371.629586 
L 366.105165 371.629586 
L 366.105165 378 
z
" clip-path="url(#p2c3ea721e6)" style="fill: none"/>
   </g>
   <g id="patch_188">
    <path d="M 374.507592 378 
L 382.91002 378 
L 382.91002 367.462025 
L 374.507592 367.462025 
L 374.507592 378 
z
" clip-path="url(#p2c3ea721e6)" style="fill: none"/>
   </g>
   <g id="patch_189">
    <path d="M 382.91002 378 
L 391.312447 378 
L 391.312447 364.901952 
L 382.91002 364.901952 
L 382.91002 378 
z
" clip-path="url(#p2c3ea721e6)" style="fill: none"/>
   </g>
   <g id="patch_190">
    <path d="M 391.312447 378 
L 399.714874 378 
L 399.714874 362.699099 
L 391.312447 362.699099 
L 391.312447 378 
z
" clip-path="url(#p2c3ea721e6)" style="fill: none"/>
   </g>
   <g id="patch_191">
    <path d="M 399.714874 378 
L 408.117301 378 
L 408.117301 353.232783 
L 399.714874 353.232783 
L 399.714874 378 
z
" clip-path="url(#p2c3ea721e6)" style="fill: none"/>
   </g>
   <g id="patch_192">
    <path d="M 408.117301 378 
L 416.519728 378 
L 416.519728 350.67271 
L 408.117301 350.67271 
L 408.117301 378 
z
" clip-path="url(#p2c3ea721e6)" style="fill: none"/>
   </g>
   <g id="patch_193">
    <path d="M 416.519728 378 
L 424.922155 378 
L 424.922155 353.768612 
L 416.519728 353.768612 
L 416.519728 378 
z
" clip-path="url(#p2c3ea721e6)" style="fill: none"/>
   </g>
   <g id="patch_194">
    <path d="M 424.922155 378 
L 433.324583 378 
L 433.324583 361.151148 
L 424.922155 361.151148 
L 424.922155 378 
z
" clip-path="url(#p2c3ea721e6)" style="fill: none"/>
   </g>
   <g id="patch_195">
    <path d="M 433.324583 378 
L 441.72701 378 
L 441.72701 369.664879 
L 433.324583 369.664879 
L 433.324583 378 
z
" clip-path="url(#p2c3ea721e6)" style="fill: none"/>
   </g>
   <g id="patch_196">
    <path d="M 441.72701 378 
L 450.129437 378 
L 450.129437 364.42566 
L 441.72701 364.42566 
L 441.72701 378 
z
" clip-path="url(#p2c3ea721e6)" style="fill: none"/>
   </g>
   <g id="patch_197">
    <path d="M 450.129437 378 
L 458.531864 378 
L 458.531864 364.901952 
L 450.129437 364.901952 
L 450.129437 378 
z
" clip-path="url(#p2c3ea721e6)" style="fill: none"/>
   </g>
   <g id="patch_198">
    <path d="M 458.531864 378 
L 466.934291 378 
L 466.934291 367.581098 
L 458.531864 367.581098 
L 458.531864 378 
z
" clip-path="url(#p2c3ea721e6)" style="fill: none"/>
   </g>
   <g id="patch_199">
    <path d="M 466.934291 378 
L 475.336718 378 
L 475.336718 369.962562 
L 466.934291 369.962562 
L 466.934291 378 
z
" clip-path="url(#p2c3ea721e6)" style="fill: none"/>
   </g>
   <g id="patch_200">
    <path d="M 475.336718 378 
L 483.739146 378 
L 483.739146 365.378245 
L 475.336718 365.378245 
L 475.336718 378 
z
" clip-path="url(#p2c3ea721e6)" style="fill: none"/>
   </g>
   <g id="patch_201">
    <path d="M 483.739146 378 
L 492.141573 378 
L 492.141573 374.427805 
L 483.739146 374.427805 
L 483.739146 378 
z
" clip-path="url(#p2c3ea721e6)" style="fill: none"/>
   </g>
   <g id="patch_202">
    <path d="M 492.141573 378 
L 500.544 378 
L 500.544 377.523707 
L 492.141573 377.523707 
L 492.141573 378 
z
" clip-path="url(#p2c3ea721e6)" style="fill: none"/>
   </g>
   <g id="matplotlib.axis_1">
    <g id="xtick_1">
     <g id="line2d_1">
      <defs>
       <path id="m0cdd13f088" d="M 0 0 
L 0 3.5 
" style="stroke: #000000; stroke-width: 0.8"/>
      </defs>
      <g>
       <use xlink:href="#m0cdd13f088" x="72" y="378" style="stroke: #000000; stroke-width: 0.8"/>
      </g>
     </g>
     <g id="text_1">
      <!-- 0.00 -->
      <g transform="translate(60.867188 392.598437)scale(0.1 -0.1)">
       <defs>
        <path id="DejaVuSans-30" d="M 2034 4250 
Q 1547 4250 1301 3770 
Q 1056 3291 1056 2328 
Q 1056 1369 1301 889 
Q 1547 409 2034 409 
Q 2525 409 2770 889 
Q 3016 1369 3016 2328 
Q 3016 3291 2770 3770 
Q 2525 4250 2034 4250 
z
M 2034 4750 
Q 2819 4750 3233 4129 
Q 3647 3509 3647 2328 
Q 3647 1150 3233 529 
Q 2819 -91 2034 -91 
Q 1250 -91 836 529 
Q 422 1150 422 2328 
Q 422 3509 836 4129 
Q 1250 4750 2034 4750 
z
" transform="scale(0.015625)"/>
        <path id="DejaVuSans-2e" d="M 684 794 
L 1344 794 
L 1344 0 
L 684 0 
L 684 794 
z
" transform="scale(0.015625)"/>
       </defs>
       <use xlink:href="#DejaVuSans-30"/>
       <use xlink:href="#DejaVuSans-2e" x="63.623047"/>
       <use xlink:href="#DejaVuSans-30" x="95.410156"/>
       <use xlink:href="#DejaVuSans-30" x="159.033203"/>
      </g>
     </g>
    </g>
    <g id="xtick_2">
     <g id="line2d_2">
      <g>
       <use xlink:href="#m0cdd13f088" x="183.6" y="378" style="stroke: #000000; stroke-width: 0.8"/>
      </g>
     </g>
     <g id="text_2">
      <!-- 0.25 -->
      <g transform="translate(172.467187 392.598437)scale(0.1 -0.1)">
       <defs>
        <path id="DejaVuSans-32" d="M 1228 531 
L 3431 531 
L 3431 0 
L 469 0 
L 469 531 
Q 828 903 1448 1529 
Q 2069 2156 2228 2338 
Q 2531 2678 2651 2914 
Q 2772 3150 2772 3378 
Q 2772 3750 2511 3984 
Q 2250 4219 1831 4219 
Q 1534 4219 1204 4116 
Q 875 4013 500 3803 
L 500 4441 
Q 881 4594 1212 4672 
Q 1544 4750 1819 4750 
Q 2544 4750 2975 4387 
Q 3406 4025 3406 3419 
Q 3406 3131 3298 2873 
Q 3191 2616 2906 2266 
Q 2828 2175 2409 1742 
Q 1991 1309 1228 531 
z
" transform="scale(0.015625)"/>
        <path id="DejaVuSans-35" d="M 691 4666 
L 3169 4666 
L 3169 4134 
L 1269 4134 
L 1269 2991 
Q 1406 3038 1543 3061 
Q 1681 3084 1819 3084 
Q 2600 3084 3056 2656 
Q 3513 2228 3513 1497 
Q 3513 744 3044 326 
Q 2575 -91 1722 -91 
Q 1428 -91 1123 -41 
Q 819 9 494 109 
L 494 744 
Q 775 591 1075 516 
Q 1375 441 1709 441 
Q 2250 441 2565 725 
Q 2881 1009 2881 1497 
Q 2881 1984 2565 2268 
Q 2250 2553 1709 2553 
Q 1456 2553 1204 2497 
Q 953 2441 691 2322 
L 691 4666 
z
" transform="scale(0.015625)"/>
       </defs>
       <use xlink:href="#DejaVuSans-30"/>
       <use xlink:href="#DejaVuSans-2e" x="63.623047"/>
       <use xlink:href="#DejaVuSans-32" x="95.410156"/>
       <use xlink:href="#DejaVuSans-35" x="159.033203"/>
      </g>
     </g>
    </g>
    <g id="xtick_3">
     <g id="line2d_3">
      <g>
       <use xlink:href="#m0cdd13f088" x="295.2" y="378" style="stroke: #000000; stroke-width: 0.8"/>
      </g>
     </g>
     <g id="text_3">
      <!-- 0.50 -->
      <g transform="translate(284.067187 392.598437)scale(0.1 -0.1)">
       <use xlink:href="#DejaVuSans-30"/>
       <use xlink:href="#DejaVuSans-2e" x="63.623047"/>
       <use xlink:href="#DejaVuSans-35" x="95.410156"/>
       <use xlink:href="#DejaVuSans-30" x="159.033203"/>
      </g>
     </g>
    </g>
    <g id="xtick_4">
     <g id="line2d_4">
      <g>
       <use xlink:href="#m0cdd13f088" x="406.8" y="378" style="stroke: #000000; stroke-width: 0.8"/>
      </g>
     </g>
     <g id="text_4">
      <!-- 0.75 -->
      <g transform="translate(395.667187 392.598437)scale(0.1 -0.1)">
       <defs>
        <path id="DejaVuSans-37" d="M 525 4666 
L 3525 4666 
L 3525 4397 
L 1831 0 
L 1172 0 
L 2766 4134 
L 525 4134 
L 525 4666 
z
" transform="scale(0.015625)"/>
       </defs>
       <use xlink:href="#DejaVuSans-30"/>
       <use xlink:href="#DejaVuSans-2e" x="63.623047"/>
       <use xlink:href="#DejaVuSans-37" x="95.410156"/>
       <use xlink:href="#DejaVuSans-35" x="159.033203"/>
      </g>
     </g>
    </g>
    <g id="xtick_5">
     <g id="line2d_5">
      <g>
       <use xlink:href="#m0cdd13f088" x="518.4" y="378" style="stroke: #000000; stroke-width: 0.8"/>
      </g>
     </g>
     <g id="text_5">
      <!-- 1.00 -->
      <g transform="translate(507.267187 392.598437)scale(0.1 -0.1)">
       <defs>
        <path id="DejaVuSans-31" d="M 794 531 
L 1825 531 
L 1825 4091 
L 703 3866 
L 703 4441 
L 1819 4666 
L 2450 4666 
L 2450 531 
L 3481 531 
L 3481 0 
L 794 0 
L 794 531 
z
" transform="scale(0.015625)"/>
       </defs>
       <use xlink:href="#DejaVuSans-31"/>
       <use xlink:href="#DejaVuSans-2e" x="63.623047"/>
       <use xlink:href="#DejaVuSans-30" x="95.410156"/>
       <use xlink:href="#DejaVuSans-30" x="159.033203"/>
      </g>
     </g>
    </g>
    <g id="text_6">
     <!-- ratio_roeske -->
     <g transform="translate(264.697656 406.276563)scale(0.1 -0.1)">
      <defs>
       <path id="DejaVuSans-72" d="M 2631 2963 
Q 2534 3019 2420 3045 
Q 2306 3072 2169 3072 
Q 1681 3072 1420 2755 
Q 1159 2438 1159 1844 
L 1159 0 
L 581 0 
L 581 3500 
L 1159 3500 
L 1159 2956 
Q 1341 3275 1631 3429 
Q 1922 3584 2338 3584 
Q 2397 3584 2469 3576 
Q 2541 3569 2628 3553 
L 2631 2963 
z
" transform="scale(0.015625)"/>
       <path id="DejaVuSans-61" d="M 2194 1759 
Q 1497 1759 1228 1600 
Q 959 1441 959 1056 
Q 959 750 1161 570 
Q 1363 391 1709 391 
Q 2188 391 2477 730 
Q 2766 1069 2766 1631 
L 2766 1759 
L 2194 1759 
z
M 3341 1997 
L 3341 0 
L 2766 0 
L 2766 531 
Q 2569 213 2275 61 
Q 1981 -91 1556 -91 
Q 1019 -91 701 211 
Q 384 513 384 1019 
Q 384 1609 779 1909 
Q 1175 2209 1959 2209 
L 2766 2209 
L 2766 2266 
Q 2766 2663 2505 2880 
Q 2244 3097 1772 3097 
Q 1472 3097 1187 3025 
Q 903 2953 641 2809 
L 641 3341 
Q 956 3463 1253 3523 
Q 1550 3584 1831 3584 
Q 2591 3584 2966 3190 
Q 3341 2797 3341 1997 
z
" transform="scale(0.015625)"/>
       <path id="DejaVuSans-74" d="M 1172 4494 
L 1172 3500 
L 2356 3500 
L 2356 3053 
L 1172 3053 
L 1172 1153 
Q 1172 725 1289 603 
Q 1406 481 1766 481 
L 2356 481 
L 2356 0 
L 1766 0 
Q 1100 0 847 248 
Q 594 497 594 1153 
L 594 3053 
L 172 3053 
L 172 3500 
L 594 3500 
L 594 4494 
L 1172 4494 
z
" transform="scale(0.015625)"/>
       <path id="DejaVuSans-69" d="M 603 3500 
L 1178 3500 
L 1178 0 
L 603 0 
L 603 3500 
z
M 603 4863 
L 1178 4863 
L 1178 4134 
L 603 4134 
L 603 4863 
z
" transform="scale(0.015625)"/>
       <path id="DejaVuSans-6f" d="M 1959 3097 
Q 1497 3097 1228 2736 
Q 959 2375 959 1747 
Q 959 1119 1226 758 
Q 1494 397 1959 397 
Q 2419 397 2687 759 
Q 2956 1122 2956 1747 
Q 2956 2369 2687 2733 
Q 2419 3097 1959 3097 
z
M 1959 3584 
Q 2709 3584 3137 3096 
Q 3566 2609 3566 1747 
Q 3566 888 3137 398 
Q 2709 -91 1959 -91 
Q 1206 -91 779 398 
Q 353 888 353 1747 
Q 353 2609 779 3096 
Q 1206 3584 1959 3584 
z
" transform="scale(0.015625)"/>
       <path id="DejaVuSans-5f" d="M 3263 -1063 
L 3263 -1509 
L -63 -1509 
L -63 -1063 
L 3263 -1063 
z
" transform="scale(0.015625)"/>
       <path id="DejaVuSans-65" d="M 3597 1894 
L 3597 1613 
L 953 1613 
Q 991 1019 1311 708 
Q 1631 397 2203 397 
Q 2534 397 2845 478 
Q 3156 559 3463 722 
L 3463 178 
Q 3153 47 2828 -22 
Q 2503 -91 2169 -91 
Q 1331 -91 842 396 
Q 353 884 353 1716 
Q 353 2575 817 3079 
Q 1281 3584 2069 3584 
Q 2775 3584 3186 3129 
Q 3597 2675 3597 1894 
z
M 3022 2063 
Q 3016 2534 2758 2815 
Q 2500 3097 2075 3097 
Q 1594 3097 1305 2825 
Q 1016 2553 972 2059 
L 3022 2063 
z
" transform="scale(0.015625)"/>
       <path id="DejaVuSans-73" d="M 2834 3397 
L 2834 2853 
Q 2591 2978 2328 3040 
Q 2066 3103 1784 3103 
Q 1356 3103 1142 2972 
Q 928 2841 928 2578 
Q 928 2378 1081 2264 
Q 1234 2150 1697 2047 
L 1894 2003 
Q 2506 1872 2764 1633 
Q 3022 1394 3022 966 
Q 3022 478 2636 193 
Q 2250 -91 1575 -91 
Q 1294 -91 989 -36 
Q 684 19 347 128 
L 347 722 
Q 666 556 975 473 
Q 1284 391 1588 391 
Q 1994 391 2212 530 
Q 2431 669 2431 922 
Q 2431 1156 2273 1281 
Q 2116 1406 1581 1522 
L 1381 1569 
Q 847 1681 609 1914 
Q 372 2147 372 2553 
Q 372 3047 722 3315 
Q 1072 3584 1716 3584 
Q 2034 3584 2315 3537 
Q 2597 3491 2834 3397 
z
" transform="scale(0.015625)"/>
       <path id="DejaVuSans-6b" d="M 581 4863 
L 1159 4863 
L 1159 1991 
L 2875 3500 
L 3609 3500 
L 1753 1863 
L 3688 0 
L 2938 0 
L 1159 1709 
L 1159 0 
L 581 0 
L 581 4863 
z
" transform="scale(0.015625)"/>
      </defs>
      <use xlink:href="#DejaVuSans-72"/>
      <use xlink:href="#DejaVuSans-61" x="41.113281"/>
      <use xlink:href="#DejaVuSans-74" x="102.392578"/>
      <use xlink:href="#DejaVuSans-69" x="141.601562"/>
      <use xlink:href="#DejaVuSans-6f" x="169.384766"/>
      <use xlink:href="#DejaVuSans-5f" x="230.566406"/>
      <use xlink:href="#DejaVuSans-72" x="280.566406"/>
      <use xlink:href="#DejaVuSans-6f" x="319.429688"/>
      <use xlink:href="#DejaVuSans-65" x="380.611328"/>
      <use xlink:href="#DejaVuSans-73" x="442.134766"/>
      <use xlink:href="#DejaVuSans-6b" x="494.234375"/>
      <use xlink:href="#DejaVuSans-65" x="548.519531"/>
     </g>
    </g>
   </g>
   <g id="matplotlib.axis_2">
    <g id="ytick_1">
     <g id="line2d_6">
      <defs>
       <path id="m0ace65731e" d="M 0 0 
L -3.5 0 
" style="stroke: #000000; stroke-width: 0.8"/>
      </defs>
      <g>
       <use xlink:href="#m0ace65731e" x="72" y="378" style="stroke: #000000; stroke-width: 0.8"/>
      </g>
     </g>
     <g id="text_7">
      <!-- 0 -->
      <g transform="translate(58.6375 381.799219)scale(0.1 -0.1)">
       <use xlink:href="#DejaVuSans-30"/>
      </g>
     </g>
    </g>
    <g id="ytick_2">
     <g id="line2d_7">
      <g>
       <use xlink:href="#m0ace65731e" x="72" y="340.444136" style="stroke: #000000; stroke-width: 0.8"/>
      </g>
     </g>
     <g id="text_8">
      <!-- 1 -->
      <g transform="translate(58.6375 344.243354)scale(0.1 -0.1)">
       <use xlink:href="#DejaVuSans-31"/>
      </g>
     </g>
    </g>
    <g id="ytick_3">
     <g id="line2d_8">
      <g>
       <use xlink:href="#m0ace65731e" x="72" y="302.888271" style="stroke: #000000; stroke-width: 0.8"/>
      </g>
     </g>
     <g id="text_9">
      <!-- 2 -->
      <g transform="translate(58.6375 306.68749)scale(0.1 -0.1)">
       <use xlink:href="#DejaVuSans-32"/>
      </g>
     </g>
    </g>
    <g id="ytick_4">
     <g id="line2d_9">
      <g>
       <use xlink:href="#m0ace65731e" x="72" y="265.332407" style="stroke: #000000; stroke-width: 0.8"/>
      </g>
     </g>
     <g id="text_10">
      <!-- 3 -->
      <g transform="translate(58.6375 269.131626)scale(0.1 -0.1)">
       <defs>
        <path id="DejaVuSans-33" d="M 2597 2516 
Q 3050 2419 3304 2112 
Q 3559 1806 3559 1356 
Q 3559 666 3084 287 
Q 2609 -91 1734 -91 
Q 1441 -91 1130 -33 
Q 819 25 488 141 
L 488 750 
Q 750 597 1062 519 
Q 1375 441 1716 441 
Q 2309 441 2620 675 
Q 2931 909 2931 1356 
Q 2931 1769 2642 2001 
Q 2353 2234 1838 2234 
L 1294 2234 
L 1294 2753 
L 1863 2753 
Q 2328 2753 2575 2939 
Q 2822 3125 2822 3475 
Q 2822 3834 2567 4026 
Q 2313 4219 1838 4219 
Q 1578 4219 1281 4162 
Q 984 4106 628 3988 
L 628 4550 
Q 988 4650 1302 4700 
Q 1616 4750 1894 4750 
Q 2613 4750 3031 4423 
Q 3450 4097 3450 3541 
Q 3450 3153 3228 2886 
Q 3006 2619 2597 2516 
z
" transform="scale(0.015625)"/>
       </defs>
       <use xlink:href="#DejaVuSans-33"/>
      </g>
     </g>
    </g>
    <g id="ytick_5">
     <g id="line2d_10">
      <g>
       <use xlink:href="#m0ace65731e" x="72" y="227.776543" style="stroke: #000000; stroke-width: 0.8"/>
      </g>
     </g>
     <g id="text_11">
      <!-- 4 -->
      <g transform="translate(58.6375 231.575761)scale(0.1 -0.1)">
       <defs>
        <path id="DejaVuSans-34" d="M 2419 4116 
L 825 1625 
L 2419 1625 
L 2419 4116 
z
M 2253 4666 
L 3047 4666 
L 3047 1625 
L 3713 1625 
L 3713 1100 
L 3047 1100 
L 3047 0 
L 2419 0 
L 2419 1100 
L 313 1100 
L 313 1709 
L 2253 4666 
z
" transform="scale(0.015625)"/>
       </defs>
       <use xlink:href="#DejaVuSans-34"/>
      </g>
     </g>
    </g>
    <g id="ytick_6">
     <g id="line2d_11">
      <g>
       <use xlink:href="#m0ace65731e" x="72" y="190.220678" style="stroke: #000000; stroke-width: 0.8"/>
      </g>
     </g>
     <g id="text_12">
      <!-- 5 -->
      <g transform="translate(58.6375 194.019897)scale(0.1 -0.1)">
       <use xlink:href="#DejaVuSans-35"/>
      </g>
     </g>
    </g>
    <g id="ytick_7">
     <g id="line2d_12">
      <g>
       <use xlink:href="#m0ace65731e" x="72" y="152.664814" style="stroke: #000000; stroke-width: 0.8"/>
      </g>
     </g>
     <g id="text_13">
      <!-- 6 -->
      <g transform="translate(58.6375 156.464033)scale(0.1 -0.1)">
       <defs>
        <path id="DejaVuSans-36" d="M 2113 2584 
Q 1688 2584 1439 2293 
Q 1191 2003 1191 1497 
Q 1191 994 1439 701 
Q 1688 409 2113 409 
Q 2538 409 2786 701 
Q 3034 994 3034 1497 
Q 3034 2003 2786 2293 
Q 2538 2584 2113 2584 
z
M 3366 4563 
L 3366 3988 
Q 3128 4100 2886 4159 
Q 2644 4219 2406 4219 
Q 1781 4219 1451 3797 
Q 1122 3375 1075 2522 
Q 1259 2794 1537 2939 
Q 1816 3084 2150 3084 
Q 2853 3084 3261 2657 
Q 3669 2231 3669 1497 
Q 3669 778 3244 343 
Q 2819 -91 2113 -91 
Q 1303 -91 875 529 
Q 447 1150 447 2328 
Q 447 3434 972 4092 
Q 1497 4750 2381 4750 
Q 2619 4750 2861 4703 
Q 3103 4656 3366 4563 
z
" transform="scale(0.015625)"/>
       </defs>
       <use xlink:href="#DejaVuSans-36"/>
      </g>
     </g>
    </g>
    <g id="ytick_8">
     <g id="line2d_13">
      <g>
       <use xlink:href="#m0ace65731e" x="72" y="115.108949" style="stroke: #000000; stroke-width: 0.8"/>
      </g>
     </g>
     <g id="text_14">
      <!-- 7 -->
      <g transform="translate(58.6375 118.908168)scale(0.1 -0.1)">
       <use xlink:href="#DejaVuSans-37"/>
      </g>
     </g>
    </g>
    <g id="ytick_9">
     <g id="line2d_14">
      <g>
       <use xlink:href="#m0ace65731e" x="72" y="77.553085" style="stroke: #000000; stroke-width: 0.8"/>
      </g>
     </g>
     <g id="text_15">
      <!-- 8 -->
      <g transform="translate(58.6375 81.352304)scale(0.1 -0.1)">
       <defs>
        <path id="DejaVuSans-38" d="M 2034 2216 
Q 1584 2216 1326 1975 
Q 1069 1734 1069 1313 
Q 1069 891 1326 650 
Q 1584 409 2034 409 
Q 2484 409 2743 651 
Q 3003 894 3003 1313 
Q 3003 1734 2745 1975 
Q 2488 2216 2034 2216 
z
M 1403 2484 
Q 997 2584 770 2862 
Q 544 3141 544 3541 
Q 544 4100 942 4425 
Q 1341 4750 2034 4750 
Q 2731 4750 3128 4425 
Q 3525 4100 3525 3541 
Q 3525 3141 3298 2862 
Q 3072 2584 2669 2484 
Q 3125 2378 3379 2068 
Q 3634 1759 3634 1313 
Q 3634 634 3220 271 
Q 2806 -91 2034 -91 
Q 1263 -91 848 271 
Q 434 634 434 1313 
Q 434 1759 690 2068 
Q 947 2378 1403 2484 
z
M 1172 3481 
Q 1172 3119 1398 2916 
Q 1625 2713 2034 2713 
Q 2441 2713 2670 2916 
Q 2900 3119 2900 3481 
Q 2900 3844 2670 4047 
Q 2441 4250 2034 4250 
Q 1625 4250 1398 4047 
Q 1172 3844 1172 3481 
z
" transform="scale(0.015625)"/>
       </defs>
       <use xlink:href="#DejaVuSans-38"/>
      </g>
     </g>
    </g>
    <g id="text_16">
     <!-- Density -->
     <g transform="translate(52.557812 233.928594)rotate(-90)scale(0.1 -0.1)">
      <defs>
       <path id="DejaVuSans-44" d="M 1259 4147 
L 1259 519 
L 2022 519 
Q 2988 519 3436 956 
Q 3884 1394 3884 2338 
Q 3884 3275 3436 3711 
Q 2988 4147 2022 4147 
L 1259 4147 
z
M 628 4666 
L 1925 4666 
Q 3281 4666 3915 4102 
Q 4550 3538 4550 2338 
Q 4550 1131 3912 565 
Q 3275 0 1925 0 
L 628 0 
L 628 4666 
z
" transform="scale(0.015625)"/>
       <path id="DejaVuSans-6e" d="M 3513 2113 
L 3513 0 
L 2938 0 
L 2938 2094 
Q 2938 2591 2744 2837 
Q 2550 3084 2163 3084 
Q 1697 3084 1428 2787 
Q 1159 2491 1159 1978 
L 1159 0 
L 581 0 
L 581 3500 
L 1159 3500 
L 1159 2956 
Q 1366 3272 1645 3428 
Q 1925 3584 2291 3584 
Q 2894 3584 3203 3211 
Q 3513 2838 3513 2113 
z
" transform="scale(0.015625)"/>
       <path id="DejaVuSans-79" d="M 2059 -325 
Q 1816 -950 1584 -1140 
Q 1353 -1331 966 -1331 
L 506 -1331 
L 506 -850 
L 844 -850 
Q 1081 -850 1212 -737 
Q 1344 -625 1503 -206 
L 1606 56 
L 191 3500 
L 800 3500 
L 1894 763 
L 2988 3500 
L 3597 3500 
L 2059 -325 
z
" transform="scale(0.015625)"/>
      </defs>
      <use xlink:href="#DejaVuSans-44"/>
      <use xlink:href="#DejaVuSans-65" x="77.001953"/>
      <use xlink:href="#DejaVuSans-6e" x="138.525391"/>
      <use xlink:href="#DejaVuSans-73" x="201.904297"/>
      <use xlink:href="#DejaVuSans-69" x="254.003906"/>
      <use xlink:href="#DejaVuSans-74" x="281.787109"/>
      <use xlink:href="#DejaVuSans-79" x="320.996094"/>
     </g>
    </g>
   </g>
   <g id="line2d_15">
    <path d="M 215.046219 377.004019 
L 217.654018 376.233233 
L 222.869616 374.337963 
L 225.998975 373.080373 
L 227.563654 372.241866 
L 229.128334 371.107534 
L 230.171454 370.128654 
L 231.214573 368.940216 
L 232.779253 366.734284 
L 234.343932 364.02228 
L 235.908612 360.849709 
L 237.994851 356.015299 
L 240.08109 350.575896 
L 242.167329 344.475766 
L 243.732009 339.34196 
L 245.296688 333.59936 
L 246.861368 327.14621 
L 248.426047 319.929762 
L 250.512287 309.164242 
L 253.120086 294.290441 
L 257.814124 267.036143 
L 259.378804 259.043857 
L 260.943483 252.146859 
L 261.986603 248.284569 
L 263.029722 245.069471 
L 264.072842 242.520802 
L 265.115962 240.625269 
L 266.159081 239.33424 
L 267.202201 238.56308 
L 268.245321 238.193005 
L 269.81 238.059259 
L 271.374679 237.907109 
L 272.417799 237.494244 
L 273.460919 236.639857 
L 274.504038 235.215597 
L 275.547158 233.143935 
L 276.590278 230.41257 
L 277.633397 227.084232 
L 279.198077 221.300257 
L 281.284316 213.376436 
L 282.327436 209.994411 
L 283.370555 207.408781 
L 283.892115 206.500648 
L 284.413675 205.887903 
L 284.935235 205.594219 
L 285.456795 205.638252 
L 285.978354 206.033329 
L 286.499914 206.787292 
L 287.021474 207.902509 
L 287.543034 209.376032 
L 288.586154 213.361545 
L 289.629273 218.628089 
L 290.672393 225.004279 
L 292.237072 236.191769 
L 294.323312 252.979017 
L 299.01735 291.466135 
L 301.103589 306.839306 
L 303.189829 320.62956 
L 305.276068 332.742749 
L 306.840747 340.682705 
L 308.405427 347.596979 
L 309.970106 353.454954 
L 311.534786 358.264876 
L 313.099465 362.097214 
L 314.664145 365.088313 
L 316.228824 367.420285 
L 317.793504 369.284749 
L 318.836623 370.350779 
L 318.836623 370.350779 
" clip-path="url(#p2c3ea721e6)" style="fill: none; stroke: #a5e10f; stroke-width: 1.5; stroke-linecap: square"/>
   </g>
   <g id="line2d_16">
    <path d="M 215.046219 371.755611 
L 216.610898 371.377236 
L 218.175578 371.319725 
L 220.261817 371.570614 
L 221.826496 371.743903 
L 222.869616 371.706946 
L 223.912736 371.453284 
L 224.955855 370.90956 
L 225.998975 370.016704 
L 227.042095 368.734934 
L 228.085214 367.046692 
L 229.128334 364.957288 
L 230.693013 361.134091 
L 232.257693 356.630863 
L 234.343932 349.92295 
L 237.994851 337.331459 
L 240.60265 327.623753 
L 242.167329 320.961538 
L 243.732009 313.145901 
L 245.296688 303.744049 
L 246.861368 292.460489 
L 248.426047 279.249511 
L 250.512287 259.149948 
L 255.206325 211.800042 
L 256.771004 198.353757 
L 258.335684 187.083249 
L 259.378804 180.875392 
L 260.421923 175.706752 
L 261.465043 171.541131 
L 262.508162 168.338428 
L 263.551282 166.072858 
L 264.072842 165.289936 
L 264.594402 164.742516 
L 265.115962 164.433807 
L 265.637521 164.367683 
L 266.159081 164.548067 
L 266.680641 164.978247 
L 267.202201 165.660142 
L 267.723761 166.5936 
L 268.76688 169.200541 
L 269.81 172.735564 
L 270.85312 177.077111 
L 272.417799 184.7111 
L 281.805876 234.584799 
L 283.370555 244.347599 
L 285.456795 258.792651 
L 290.150833 292.258461 
L 292.237072 305.377106 
L 294.323312 317.041323 
L 296.409551 327.307219 
L 297.97423 334.034637 
L 299.53891 339.849839 
L 301.103589 344.748589 
L 302.668269 348.854628 
L 304.754508 353.523521 
L 312.056346 368.598668 
L 313.621025 371.318664 
L 315.185705 373.536118 
L 316.228824 374.708526 
L 317.271944 375.643376 
L 318.315063 376.362445 
L 318.836623 376.65035 
L 318.836623 376.65035 
" clip-path="url(#p2c3ea721e6)" style="fill: none; stroke: #24b4b1; stroke-width: 1.5; stroke-linecap: square"/>
   </g>
   <g id="line2d_17">
    <path d="M 80.422642 377.860354 
L 88.867292 377.655744 
L 95.20078 377.276112 
L 99.423105 376.820012 
L 103.64543 376.120678 
L 107.867755 375.099477 
L 112.090081 373.683569 
L 116.312406 371.830215 
L 120.534731 369.558207 
L 124.757056 366.97414 
L 131.090544 362.965166 
L 135.312869 360.586273 
L 137.424032 359.577142 
L 139.535194 358.716994 
L 141.646357 358.017013 
L 143.75752 357.478834 
L 145.868682 357.094461 
L 147.979845 356.847029 
L 152.20217 356.661024 
L 162.757983 356.587157 
L 166.980308 356.236163 
L 171.202634 355.634149 
L 188.091934 352.752416 
L 194.425422 352.10889 
L 202.870073 351.312997 
L 207.092398 350.761859 
L 211.314723 350.047455 
L 215.537048 349.16538 
L 221.870536 347.571377 
L 228.204024 345.731817 
L 234.537512 343.700741 
L 242.982162 340.714222 
L 255.649138 336.064703 
L 259.871463 334.769883 
L 264.093788 333.80419 
L 266.204951 333.490085 
L 268.316113 333.312269 
L 270.427276 333.286441 
L 272.538439 333.424889 
L 274.649601 333.735045 
L 276.760764 334.218242 
L 278.871926 334.868935 
L 280.983089 335.674575 
L 285.205414 337.670103 
L 289.427739 340.006169 
L 302.094715 347.27765 
L 316.872853 355.421967 
L 323.206341 359.218508 
L 333.762154 365.625991 
L 337.984479 367.916907 
L 342.206805 369.877558 
L 346.42913 371.420596 
L 348.540292 372.019203 
L 350.651455 372.499118 
L 352.762618 372.860669 
L 354.87378 373.105979 
L 359.096105 373.262402 
L 363.318431 373.003689 
L 367.540756 372.369623 
L 371.763081 371.402169 
L 375.985406 370.147649 
L 380.207731 368.658861 
L 386.541219 366.11869 
L 397.097032 361.698292 
L 401.319358 360.171386 
L 405.541683 358.99299 
L 407.652845 358.58105 
L 409.764008 358.308466 
L 411.875171 358.186464 
L 413.986333 358.221015 
L 416.097496 358.411886 
L 418.208658 358.752124 
L 420.319821 359.228076 
L 424.542146 360.503181 
L 437.209122 364.966253 
L 441.431447 366.083405 
L 445.653772 366.919312 
L 449.876097 367.527671 
L 456.209585 368.182427 
L 470.987724 369.546726 
L 475.210049 370.154893 
L 479.432374 370.967419 
L 483.654699 371.986005 
L 498.432837 375.895812 
L 500.544 376.315935 
L 500.544 376.315935 
" clip-path="url(#p2c3ea721e6)" style="fill: none; stroke-dasharray: 5.55,2.4; stroke-dashoffset: 0; stroke: #a5e10f; stroke-width: 1.5"/>
   </g>
   <g id="line2d_18">
    <path d="M 80.422642 377.81999 
L 88.867292 377.550625 
L 95.20078 377.105509 
L 99.423105 376.599975 
L 103.64543 375.842119 
L 107.867755 374.738592 
L 109.978918 374.025537 
L 112.090081 373.189375 
L 114.201243 372.221416 
L 116.312406 371.117265 
L 120.534731 368.513937 
L 124.757056 365.485637 
L 133.201707 359.203976 
L 135.312869 357.837599 
L 137.424032 356.633631 
L 139.535194 355.61961 
L 141.646357 354.811456 
L 143.75752 354.212234 
L 145.868682 353.81215 
L 147.979845 353.589759 
L 152.20217 353.548338 
L 162.757983 354.030481 
L 166.980308 353.858336 
L 171.202634 353.372696 
L 175.424959 352.651927 
L 185.980772 350.673885 
L 192.31426 349.817782 
L 207.092398 348.208899 
L 211.314723 347.490392 
L 215.537048 346.549828 
L 219.759373 345.360635 
L 223.981699 343.920312 
L 228.204024 342.260078 
L 236.648674 338.577282 
L 245.093325 334.979531 
L 251.426813 332.529649 
L 257.7603 330.296731 
L 261.982626 329.011224 
L 266.204951 328.051321 
L 268.316113 327.75501 
L 270.427276 327.614846 
L 272.538439 327.652477 
L 274.649601 327.883809 
L 276.760764 328.317154 
L 278.871926 328.952134 
L 280.983089 329.779507 
L 283.094252 330.781948 
L 287.316577 333.212798 
L 291.538902 336.019788 
L 310.539366 349.189043 
L 327.428666 360.349559 
L 333.762154 364.344988 
L 337.984479 366.77531 
L 342.206805 368.886016 
L 346.42913 370.56703 
L 348.540292 371.219801 
L 350.651455 371.738591 
L 352.762618 372.120554 
L 354.87378 372.365785 
L 356.984943 372.477061 
L 359.096105 372.459457 
L 361.207268 372.319914 
L 365.429593 371.709401 
L 369.651918 370.721544 
L 373.874244 369.434942 
L 378.096569 367.919652 
L 384.430057 365.335945 
L 401.319358 358.045793 
L 403.43052 357.345726 
L 405.541683 356.763274 
L 407.652845 356.32013 
L 409.764008 356.034609 
L 411.875171 355.919986 
L 413.986333 355.983045 
L 416.097496 356.223001 
L 418.208658 356.630939 
L 420.319821 357.189863 
L 424.542146 358.65734 
L 435.097959 362.816688 
L 439.320284 364.084266 
L 443.54261 364.998617 
L 447.764935 365.631311 
L 456.209585 366.534593 
L 464.654236 367.500396 
L 470.987724 368.455524 
L 475.210049 369.287668 
L 479.432374 370.323202 
L 485.765862 372.211702 
L 494.210512 374.821721 
L 498.432837 375.888644 
L 500.544 376.32778 
L 500.544 376.32778 
" clip-path="url(#p2c3ea721e6)" style="fill: none; stroke-dasharray: 5.55,2.4; stroke-dashoffset: 0; stroke: #24b4b1; stroke-width: 1.5"/>
   </g>
   <g id="patch_203">
    <path d="M 72 378 
L 72 51.84 
" style="fill: none; stroke: #000000; stroke-width: 0.8; stroke-linejoin: miter; stroke-linecap: square"/>
   </g>
   <g id="patch_204">
    <path d="M 518.4 378 
L 518.4 51.84 
" style="fill: none; stroke: #000000; stroke-width: 0.8; stroke-linejoin: miter; stroke-linecap: square"/>
   </g>
   <g id="patch_205">
    <path d="M 72 378 
L 518.4 378 
" style="fill: none; stroke: #000000; stroke-width: 0.8; stroke-linejoin: miter; stroke-linecap: square"/>
   </g>
   <g id="patch_206">
    <path d="M 72 51.84 
L 518.4 51.84 
" style="fill: none; stroke: #000000; stroke-width: 0.8; stroke-linejoin: miter; stroke-linecap: square"/>
   </g>
   <g id="legend_1">
    <g id="patch_207">
     <path d="M 466.675 103.874375 
L 511.4 103.874375 
Q 513.4 103.874375 513.4 101.874375 
L 513.4 58.84 
Q 513.4 56.84 511.4 56.84 
L 466.675 56.84 
Q 464.675 56.84 464.675 58.84 
L 464.675 101.874375 
Q 464.675 103.874375 466.675 103.874375 
z
" style="fill: #ffffff; opacity: 0.8; stroke: #cccccc; stroke-linejoin: miter"/>
    </g>
    <g id="text_17">
     <!-- label2 -->
     <g transform="translate(473.763281 68.438437)scale(0.1 -0.1)">
      <defs>
       <path id="DejaVuSans-6c" d="M 603 4863 
L 1178 4863 
L 1178 0 
L 603 0 
L 603 4863 
z
" transform="scale(0.015625)"/>
       <path id="DejaVuSans-62" d="M 3116 1747 
Q 3116 2381 2855 2742 
Q 2594 3103 2138 3103 
Q 1681 3103 1420 2742 
Q 1159 2381 1159 1747 
Q 1159 1113 1420 752 
Q 1681 391 2138 391 
Q 2594 391 2855 752 
Q 3116 1113 3116 1747 
z
M 1159 2969 
Q 1341 3281 1617 3432 
Q 1894 3584 2278 3584 
Q 2916 3584 3314 3078 
Q 3713 2572 3713 1747 
Q 3713 922 3314 415 
Q 2916 -91 2278 -91 
Q 1894 -91 1617 61 
Q 1341 213 1159 525 
L 1159 0 
L 581 0 
L 581 4863 
L 1159 4863 
L 1159 2969 
z
" transform="scale(0.015625)"/>
      </defs>
      <use xlink:href="#DejaVuSans-6c"/>
      <use xlink:href="#DejaVuSans-61" x="27.783203"/>
      <use xlink:href="#DejaVuSans-62" x="89.0625"/>
      <use xlink:href="#DejaVuSans-65" x="152.539062"/>
      <use xlink:href="#DejaVuSans-6c" x="214.0625"/>
      <use xlink:href="#DejaVuSans-32" x="241.845703"/>
     </g>
    </g>
    <g id="patch_208">
     <path d="M 468.675 83.116562 
L 488.675 83.116562 
L 488.675 76.116562 
L 468.675 76.116562 
L 468.675 83.116562 
z
" style="fill: none"/>
    </g>
    <g id="text_18">
     <!-- 23 -->
     <g transform="translate(496.675 83.116562)scale(0.1 -0.1)">
      <use xlink:href="#DejaVuSans-32"/>
      <use xlink:href="#DejaVuSans-33" x="63.623047"/>
     </g>
    </g>
    <g id="patch_209">
     <path d="M 468.675 97.794688 
L 488.675 97.794688 
L 488.675 90.794688 
L 468.675 90.794688 
L 468.675 97.794688 
z
" style="fill: none"/>
    </g>
    <g id="text_19">
     <!-- 33 -->
     <g transform="translate(496.675 97.794688)scale(0.1 -0.1)">
      <use xlink:href="#DejaVuSans-33"/>
      <use xlink:href="#DejaVuSans-33" x="63.623047"/>
     </g>
    </g>
   </g>
  </g>
 </g>
 <defs>
  <clipPath id="p2c3ea721e6">
   <rect x="72" y="51.84" width="446.4" height="326.16"/>
  </clipPath>
 </defs>
</svg>
