<?xml version="1.0" encoding="utf-8" standalone="no"?>
<!DOCTYPE svg PUBLIC "-//W3C//DTD SVG 1.1//EN"
  "http://www.w3.org/Graphics/SVG/1.1/DTD/svg11.dtd">
<svg xmlns:xlink="http://www.w3.org/1999/xlink" width="576pt" height="432pt" viewBox="0 0 576 432" xmlns="http://www.w3.org/2000/svg" version="1.1">
 <metadata>
  <rdf:RDF xmlns:dc="http://purl.org/dc/elements/1.1/" xmlns:cc="http://creativecommons.org/ns#" xmlns:rdf="http://www.w3.org/1999/02/22-rdf-syntax-ns#">
   <cc:Work>
    <dc:type rdf:resource="http://purl.org/dc/dcmitype/StillImage"/>
    <dc:date>2022-04-12T16:46:52.231769</dc:date>
    <dc:format>image/svg+xml</dc:format>
    <dc:creator>
     <cc:Agent>
      <dc:title>Matplotlib v3.5.1, https://matplotlib.org/</dc:title>
     </cc:Agent>
    </dc:creator>
   </cc:Work>
  </rdf:RDF>
 </metadata>
 <defs>
  <style type="text/css">*{stroke-linejoin: round; stroke-linecap: butt}</style>
 </defs>
 <g id="figure_1">
  <g id="patch_1">
   <path d="M 0 432 
L 576 432 
L 576 0 
L 0 0 
L 0 432 
z
" style="fill: none"/>
  </g>
  <g id="axes_1">
   <g id="patch_2">
    <path d="M 72 378 
L 518.4 378 
L 518.4 51.84 
L 72 51.84 
z
" style="fill: #ffffff"/>
   </g>
   <g id="patch_3">
    <path d="M 131.303842 378 
L 134.361313 378 
L 134.361313 376.625537 
L 131.303842 376.625537 
z
" clip-path="url(#p865c0a5eea)" style="fill: #24b4b1; fill-opacity: 0.5"/>
   </g>
   <g id="patch_4">
    <path d="M 134.361313 378 
L 137.418785 378 
L 137.418785 378 
L 134.361313 378 
z
" clip-path="url(#p865c0a5eea)" style="fill: #24b4b1; fill-opacity: 0.5"/>
   </g>
   <g id="patch_5">
    <path d="M 137.418785 378 
L 140.476256 378 
L 140.476256 378 
L 137.418785 378 
z
" clip-path="url(#p865c0a5eea)" style="fill: #24b4b1; fill-opacity: 0.5"/>
   </g>
   <g id="patch_6">
    <path d="M 140.476256 378 
L 143.533727 378 
L 143.533727 378 
L 140.476256 378 
z
" clip-path="url(#p865c0a5eea)" style="fill: #24b4b1; fill-opacity: 0.5"/>
   </g>
   <g id="patch_7">
    <path d="M 143.533727 378 
L 146.591199 378 
L 146.591199 378 
L 143.533727 378 
z
" clip-path="url(#p865c0a5eea)" style="fill: #24b4b1; fill-opacity: 0.5"/>
   </g>
   <g id="patch_8">
    <path d="M 146.591199 378 
L 149.64867 378 
L 149.64867 378 
L 146.591199 378 
z
" clip-path="url(#p865c0a5eea)" style="fill: #24b4b1; fill-opacity: 0.5"/>
   </g>
   <g id="patch_9">
    <path d="M 149.64867 378 
L 152.706142 378 
L 152.706142 376.625537 
L 149.64867 376.625537 
z
" clip-path="url(#p865c0a5eea)" style="fill: #24b4b1; fill-opacity: 0.5"/>
   </g>
   <g id="patch_10">
    <path d="M 152.706142 378 
L 155.763613 378 
L 155.763613 375.251075 
L 152.706142 375.251075 
z
" clip-path="url(#p865c0a5eea)" style="fill: #24b4b1; fill-opacity: 0.5"/>
   </g>
   <g id="patch_11">
    <path d="M 155.763613 378 
L 158.821084 378 
L 158.821084 375.251075 
L 155.763613 375.251075 
z
" clip-path="url(#p865c0a5eea)" style="fill: #24b4b1; fill-opacity: 0.5"/>
   </g>
   <g id="patch_12">
    <path d="M 158.821084 378 
L 161.878556 378 
L 161.878556 376.625537 
L 158.821084 376.625537 
z
" clip-path="url(#p865c0a5eea)" style="fill: #24b4b1; fill-opacity: 0.5"/>
   </g>
   <g id="patch_13">
    <path d="M 161.878556 378 
L 164.936027 378 
L 164.936027 376.625537 
L 161.878556 376.625537 
z
" clip-path="url(#p865c0a5eea)" style="fill: #24b4b1; fill-opacity: 0.5"/>
   </g>
   <g id="patch_14">
    <path d="M 164.936027 378 
L 167.993499 378 
L 167.993499 378 
L 164.936027 378 
z
" clip-path="url(#p865c0a5eea)" style="fill: #24b4b1; fill-opacity: 0.5"/>
   </g>
   <g id="patch_15">
    <path d="M 167.993499 378 
L 171.05097 378 
L 171.05097 378 
L 167.993499 378 
z
" clip-path="url(#p865c0a5eea)" style="fill: #24b4b1; fill-opacity: 0.5"/>
   </g>
   <g id="patch_16">
    <path d="M 171.05097 378 
L 174.108441 378 
L 174.108441 376.625537 
L 171.05097 376.625537 
z
" clip-path="url(#p865c0a5eea)" style="fill: #24b4b1; fill-opacity: 0.5"/>
   </g>
   <g id="patch_17">
    <path d="M 174.108441 378 
L 177.165913 378 
L 177.165913 373.876612 
L 174.108441 373.876612 
z
" clip-path="url(#p865c0a5eea)" style="fill: #24b4b1; fill-opacity: 0.5"/>
   </g>
   <g id="patch_18">
    <path d="M 177.165913 378 
L 180.223384 378 
L 180.223384 368.378761 
L 177.165913 368.378761 
z
" clip-path="url(#p865c0a5eea)" style="fill: #24b4b1; fill-opacity: 0.5"/>
   </g>
   <g id="patch_19">
    <path d="M 180.223384 378 
L 183.280856 378 
L 183.280856 365.629836 
L 180.223384 365.629836 
z
" clip-path="url(#p865c0a5eea)" style="fill: #24b4b1; fill-opacity: 0.5"/>
   </g>
   <g id="patch_20">
    <path d="M 183.280856 378 
L 186.338327 378 
L 186.338327 369.753224 
L 183.280856 369.753224 
z
" clip-path="url(#p865c0a5eea)" style="fill: #24b4b1; fill-opacity: 0.5"/>
   </g>
   <g id="patch_21">
    <path d="M 186.338327 378 
L 189.395798 378 
L 189.395798 367.004298 
L 186.338327 367.004298 
z
" clip-path="url(#p865c0a5eea)" style="fill: #24b4b1; fill-opacity: 0.5"/>
   </g>
   <g id="patch_22">
    <path d="M 189.395798 378 
L 192.45327 378 
L 192.45327 364.255373 
L 189.395798 364.255373 
z
" clip-path="url(#p865c0a5eea)" style="fill: #24b4b1; fill-opacity: 0.5"/>
   </g>
   <g id="patch_23">
    <path d="M 192.45327 378 
L 195.510741 378 
L 195.510741 345.012895 
L 192.45327 345.012895 
z
" clip-path="url(#p865c0a5eea)" style="fill: #24b4b1; fill-opacity: 0.5"/>
   </g>
   <g id="patch_24">
    <path d="M 195.510741 378 
L 198.568213 378 
L 198.568213 324.395954 
L 195.510741 324.395954 
z
" clip-path="url(#p865c0a5eea)" style="fill: #24b4b1; fill-opacity: 0.5"/>
   </g>
   <g id="patch_25">
    <path d="M 198.568213 378 
L 201.625684 378 
L 201.625684 320.272566 
L 198.568213 320.272566 
z
" clip-path="url(#p865c0a5eea)" style="fill: #24b4b1; fill-opacity: 0.5"/>
   </g>
   <g id="patch_26">
    <path d="M 201.625684 378 
L 204.683155 378 
L 204.683155 268.042984 
L 201.625684 268.042984 
z
" clip-path="url(#p865c0a5eea)" style="fill: #24b4b1; fill-opacity: 0.5"/>
   </g>
   <g id="patch_27">
    <path d="M 204.683155 378 
L 207.740627 378 
L 207.740627 277.664223 
L 204.683155 277.664223 
z
" clip-path="url(#p865c0a5eea)" style="fill: #24b4b1; fill-opacity: 0.5"/>
   </g>
   <g id="patch_28">
    <path d="M 207.740627 378 
L 210.798098 378 
L 210.798098 237.804804 
L 207.740627 237.804804 
z
" clip-path="url(#p865c0a5eea)" style="fill: #24b4b1; fill-opacity: 0.5"/>
   </g>
   <g id="patch_29">
    <path d="M 210.798098 378 
L 213.85557 378 
L 213.85557 196.570923 
L 210.798098 196.570923 
z
" clip-path="url(#p865c0a5eea)" style="fill: #24b4b1; fill-opacity: 0.5"/>
   </g>
   <g id="patch_30">
    <path d="M 213.85557 378 
L 216.913041 378 
L 216.913041 197.945386 
L 213.85557 197.945386 
z
" clip-path="url(#p865c0a5eea)" style="fill: #24b4b1; fill-opacity: 0.5"/>
   </g>
   <g id="patch_31">
    <path d="M 216.913041 378 
L 219.970512 378 
L 219.970512 243.302655 
L 216.913041 243.302655 
z
" clip-path="url(#p865c0a5eea)" style="fill: #24b4b1; fill-opacity: 0.5"/>
   </g>
   <g id="patch_32">
    <path d="M 219.970512 378 
L 223.027984 378 
L 223.027984 265.294058 
L 219.970512 265.294058 
z
" clip-path="url(#p865c0a5eea)" style="fill: #24b4b1; fill-opacity: 0.5"/>
   </g>
   <g id="patch_33">
    <path d="M 223.027984 378 
L 226.085455 378 
L 226.085455 296.9067 
L 223.027984 296.9067 
z
" clip-path="url(#p865c0a5eea)" style="fill: #24b4b1; fill-opacity: 0.5"/>
   </g>
   <g id="patch_34">
    <path d="M 226.085455 378 
L 229.142927 378 
L 229.142927 302.404551 
L 226.085455 302.404551 
z
" clip-path="url(#p865c0a5eea)" style="fill: #24b4b1; fill-opacity: 0.5"/>
   </g>
   <g id="patch_35">
    <path d="M 229.142927 378 
L 232.200398 378 
L 232.200398 307.902402 
L 229.142927 307.902402 
z
" clip-path="url(#p865c0a5eea)" style="fill: #24b4b1; fill-opacity: 0.5"/>
   </g>
   <g id="patch_36">
    <path d="M 232.200398 378 
L 235.257869 378 
L 235.257869 280.413148 
L 232.200398 280.413148 
z
" clip-path="url(#p865c0a5eea)" style="fill: #24b4b1; fill-opacity: 0.5"/>
   </g>
   <g id="patch_37">
    <path d="M 235.257869 378 
L 238.315341 378 
L 238.315341 266.668521 
L 235.257869 266.668521 
z
" clip-path="url(#p865c0a5eea)" style="fill: #24b4b1; fill-opacity: 0.5"/>
   </g>
   <g id="patch_38">
    <path d="M 238.315341 378 
L 241.372812 378 
L 241.372812 224.060177 
L 238.315341 224.060177 
z
" clip-path="url(#p865c0a5eea)" style="fill: #24b4b1; fill-opacity: 0.5"/>
   </g>
   <g id="patch_39">
    <path d="M 241.372812 378 
L 244.430284 378 
L 244.430284 145.715803 
L 241.372812 145.715803 
z
" clip-path="url(#p865c0a5eea)" style="fill: #24b4b1; fill-opacity: 0.5"/>
   </g>
   <g id="patch_40">
    <path d="M 244.430284 378 
L 247.487755 378 
L 247.487755 174.57952 
L 244.430284 174.57952 
z
" clip-path="url(#p865c0a5eea)" style="fill: #24b4b1; fill-opacity: 0.5"/>
   </g>
   <g id="patch_41">
    <path d="M 247.487755 378 
L 250.545226 378 
L 250.545226 101.732996 
L 247.487755 101.732996 
z
" clip-path="url(#p865c0a5eea)" style="fill: #24b4b1; fill-opacity: 0.5"/>
   </g>
   <g id="patch_42">
    <path d="M 250.545226 378 
L 253.602698 378 
L 253.602698 67.371429 
L 250.545226 67.371429 
z
" clip-path="url(#p865c0a5eea)" style="fill: #24b4b1; fill-opacity: 0.5"/>
   </g>
   <g id="patch_43">
    <path d="M 253.602698 378 
L 256.660169 378 
L 256.660169 134.720101 
L 253.602698 134.720101 
z
" clip-path="url(#p865c0a5eea)" style="fill: #24b4b1; fill-opacity: 0.5"/>
   </g>
   <g id="patch_44">
    <path d="M 256.660169 378 
L 259.717641 378 
L 259.717641 131.971176 
L 256.660169 131.971176 
z
" clip-path="url(#p865c0a5eea)" style="fill: #24b4b1; fill-opacity: 0.5"/>
   </g>
   <g id="patch_45">
    <path d="M 259.717641 378 
L 262.775112 378 
L 262.775112 182.826296 
L 259.717641 182.826296 
z
" clip-path="url(#p865c0a5eea)" style="fill: #24b4b1; fill-opacity: 0.5"/>
   </g>
   <g id="patch_46">
    <path d="M 262.775112 378 
L 265.832583 378 
L 265.832583 193.821997 
L 262.775112 193.821997 
z
" clip-path="url(#p865c0a5eea)" style="fill: #24b4b1; fill-opacity: 0.5"/>
   </g>
   <g id="patch_47">
    <path d="M 265.832583 378 
L 268.890055 378 
L 268.890055 192.447535 
L 265.832583 192.447535 
z
" clip-path="url(#p865c0a5eea)" style="fill: #24b4b1; fill-opacity: 0.5"/>
   </g>
   <g id="patch_48">
    <path d="M 268.890055 378 
L 271.947526 378 
L 271.947526 203.443236 
L 268.890055 203.443236 
z
" clip-path="url(#p865c0a5eea)" style="fill: #24b4b1; fill-opacity: 0.5"/>
   </g>
   <g id="patch_49">
    <path d="M 271.947526 378 
L 275.004998 378 
L 275.004998 171.830594 
L 271.947526 171.830594 
z
" clip-path="url(#p865c0a5eea)" style="fill: #24b4b1; fill-opacity: 0.5"/>
   </g>
   <g id="patch_50">
    <path d="M 275.004998 378 
L 278.062469 378 
L 278.062469 131.971176 
L 275.004998 131.971176 
z
" clip-path="url(#p865c0a5eea)" style="fill: #24b4b1; fill-opacity: 0.5"/>
   </g>
   <g id="patch_51">
    <path d="M 278.062469 378 
L 281.11994 378 
L 281.11994 75.618205 
L 278.062469 75.618205 
z
" clip-path="url(#p865c0a5eea)" style="fill: #24b4b1; fill-opacity: 0.5"/>
   </g>
   <g id="patch_52">
    <path d="M 281.11994 378 
L 284.177412 378 
L 284.177412 107.230847 
L 281.11994 107.230847 
z
" clip-path="url(#p865c0a5eea)" style="fill: #24b4b1; fill-opacity: 0.5"/>
   </g>
   <g id="patch_53">
    <path d="M 284.177412 378 
L 287.234883 378 
L 287.234883 76.992668 
L 284.177412 76.992668 
z
" clip-path="url(#p865c0a5eea)" style="fill: #24b4b1; fill-opacity: 0.5"/>
   </g>
   <g id="patch_54">
    <path d="M 287.234883 378 
L 290.292355 378 
L 290.292355 116.852086 
L 287.234883 116.852086 
z
" clip-path="url(#p865c0a5eea)" style="fill: #24b4b1; fill-opacity: 0.5"/>
   </g>
   <g id="patch_55">
    <path d="M 290.292355 378 
L 293.349826 378 
L 293.349826 177.328445 
L 290.292355 177.328445 
z
" clip-path="url(#p865c0a5eea)" style="fill: #24b4b1; fill-opacity: 0.5"/>
   </g>
   <g id="patch_56">
    <path d="M 293.349826 378 
L 296.407297 378 
L 296.407297 163.583818 
L 293.349826 163.583818 
z
" clip-path="url(#p865c0a5eea)" style="fill: #24b4b1; fill-opacity: 0.5"/>
   </g>
   <g id="patch_57">
    <path d="M 296.407297 378 
L 299.464769 378 
L 299.464769 211.690013 
L 296.407297 211.690013 
z
" clip-path="url(#p865c0a5eea)" style="fill: #24b4b1; fill-opacity: 0.5"/>
   </g>
   <g id="patch_58">
    <path d="M 299.464769 378 
L 302.52224 378 
L 302.52224 236.430341 
L 299.464769 236.430341 
z
" clip-path="url(#p865c0a5eea)" style="fill: #24b4b1; fill-opacity: 0.5"/>
   </g>
   <g id="patch_59">
    <path d="M 302.52224 378 
L 305.579712 378 
L 305.579712 243.302655 
L 302.52224 243.302655 
z
" clip-path="url(#p865c0a5eea)" style="fill: #24b4b1; fill-opacity: 0.5"/>
   </g>
   <g id="patch_60">
    <path d="M 305.579712 378 
L 308.637183 378 
L 308.637183 235.055879 
L 305.579712 235.055879 
z
" clip-path="url(#p865c0a5eea)" style="fill: #24b4b1; fill-opacity: 0.5"/>
   </g>
   <g id="patch_61">
    <path d="M 308.637183 378 
L 311.694654 378 
L 311.694654 208.941087 
L 308.637183 208.941087 
z
" clip-path="url(#p865c0a5eea)" style="fill: #24b4b1; fill-opacity: 0.5"/>
   </g>
   <g id="patch_62">
    <path d="M 311.694654 378 
L 314.752126 378 
L 314.752126 177.328445 
L 311.694654 177.328445 
z
" clip-path="url(#p865c0a5eea)" style="fill: #24b4b1; fill-opacity: 0.5"/>
   </g>
   <g id="patch_63">
    <path d="M 314.752126 378 
L 317.809597 378 
L 317.809597 155.337042 
L 314.752126 155.337042 
z
" clip-path="url(#p865c0a5eea)" style="fill: #24b4b1; fill-opacity: 0.5"/>
   </g>
   <g id="patch_64">
    <path d="M 317.809597 378 
L 320.867069 378 
L 320.867069 111.354235 
L 317.809597 111.354235 
z
" clip-path="url(#p865c0a5eea)" style="fill: #24b4b1; fill-opacity: 0.5"/>
   </g>
   <g id="patch_65">
    <path d="M 320.867069 378 
L 323.92454 378 
L 323.92454 89.362832 
L 320.867069 89.362832 
z
" clip-path="url(#p865c0a5eea)" style="fill: #24b4b1; fill-opacity: 0.5"/>
   </g>
   <g id="patch_66">
    <path d="M 323.92454 378 
L 326.982011 378 
L 326.982011 71.494817 
L 323.92454 71.494817 
z
" clip-path="url(#p865c0a5eea)" style="fill: #24b4b1; fill-opacity: 0.5"/>
   </g>
   <g id="patch_67">
    <path d="M 326.982011 378 
L 330.039483 378 
L 330.039483 71.494817 
L 326.982011 71.494817 
z
" clip-path="url(#p865c0a5eea)" style="fill: #24b4b1; fill-opacity: 0.5"/>
   </g>
   <g id="patch_68">
    <path d="M 330.039483 378 
L 333.096954 378 
L 333.096954 70.120354 
L 330.039483 70.120354 
z
" clip-path="url(#p865c0a5eea)" style="fill: #24b4b1; fill-opacity: 0.5"/>
   </g>
   <g id="patch_69">
    <path d="M 333.096954 378 
L 336.154426 378 
L 336.154426 98.984071 
L 333.096954 98.984071 
z
" clip-path="url(#p865c0a5eea)" style="fill: #24b4b1; fill-opacity: 0.5"/>
   </g>
   <g id="patch_70">
    <path d="M 336.154426 378 
L 339.211897 378 
L 339.211897 114.103161 
L 336.154426 114.103161 
z
" clip-path="url(#p865c0a5eea)" style="fill: #24b4b1; fill-opacity: 0.5"/>
   </g>
   <g id="patch_71">
    <path d="M 339.211897 378 
L 342.269368 378 
L 342.269368 163.583818 
L 339.211897 163.583818 
z
" clip-path="url(#p865c0a5eea)" style="fill: #24b4b1; fill-opacity: 0.5"/>
   </g>
   <g id="patch_72">
    <path d="M 342.269368 378 
L 345.32684 378 
L 345.32684 186.949684 
L 342.269368 186.949684 
z
" clip-path="url(#p865c0a5eea)" style="fill: #24b4b1; fill-opacity: 0.5"/>
   </g>
   <g id="patch_73">
    <path d="M 345.32684 378 
L 348.384311 378 
L 348.384311 244.677118 
L 345.32684 244.677118 
z
" clip-path="url(#p865c0a5eea)" style="fill: #24b4b1; fill-opacity: 0.5"/>
   </g>
   <g id="patch_74">
    <path d="M 348.384311 378 
L 351.441783 378 
L 351.441783 266.668521 
L 348.384311 266.668521 
z
" clip-path="url(#p865c0a5eea)" style="fill: #24b4b1; fill-opacity: 0.5"/>
   </g>
   <g id="patch_75">
    <path d="M 351.441783 378 
L 354.499254 378 
L 354.499254 290.034387 
L 351.441783 290.034387 
z
" clip-path="url(#p865c0a5eea)" style="fill: #24b4b1; fill-opacity: 0.5"/>
   </g>
   <g id="patch_76">
    <path d="M 354.499254 378 
L 357.556725 378 
L 357.556725 320.272566 
L 354.499254 320.272566 
z
" clip-path="url(#p865c0a5eea)" style="fill: #24b4b1; fill-opacity: 0.5"/>
   </g>
   <g id="patch_77">
    <path d="M 357.556725 378 
L 360.614197 378 
L 360.614197 303.779014 
L 357.556725 303.779014 
z
" clip-path="url(#p865c0a5eea)" style="fill: #24b4b1; fill-opacity: 0.5"/>
   </g>
   <g id="patch_78">
    <path d="M 360.614197 378 
L 363.671668 378 
L 363.671668 323.021492 
L 360.614197 323.021492 
z
" clip-path="url(#p865c0a5eea)" style="fill: #24b4b1; fill-opacity: 0.5"/>
   </g>
   <g id="patch_79">
    <path d="M 363.671668 378 
L 366.72914 378 
L 366.72914 321.647029 
L 363.671668 321.647029 
z
" clip-path="url(#p865c0a5eea)" style="fill: #24b4b1; fill-opacity: 0.5"/>
   </g>
   <g id="patch_80">
    <path d="M 366.72914 378 
L 369.786611 378 
L 369.786611 325.770417 
L 366.72914 325.770417 
z
" clip-path="url(#p865c0a5eea)" style="fill: #24b4b1; fill-opacity: 0.5"/>
   </g>
   <g id="patch_81">
    <path d="M 369.786611 378 
L 372.844082 378 
L 372.844082 306.527939 
L 369.786611 306.527939 
z
" clip-path="url(#p865c0a5eea)" style="fill: #24b4b1; fill-opacity: 0.5"/>
   </g>
   <g id="patch_82">
    <path d="M 372.844082 378 
L 375.901554 378 
L 375.901554 291.40885 
L 372.844082 291.40885 
z
" clip-path="url(#p865c0a5eea)" style="fill: #24b4b1; fill-opacity: 0.5"/>
   </g>
   <g id="patch_83">
    <path d="M 375.901554 378 
L 378.959025 378 
L 378.959025 296.9067 
L 375.901554 296.9067 
z
" clip-path="url(#p865c0a5eea)" style="fill: #24b4b1; fill-opacity: 0.5"/>
   </g>
   <g id="patch_84">
    <path d="M 378.959025 378 
L 382.016496 378 
L 382.016496 310.651327 
L 378.959025 310.651327 
z
" clip-path="url(#p865c0a5eea)" style="fill: #24b4b1; fill-opacity: 0.5"/>
   </g>
   <g id="patch_85">
    <path d="M 382.016496 378 
L 385.073968 378 
L 385.073968 314.774716 
L 382.016496 314.774716 
z
" clip-path="url(#p865c0a5eea)" style="fill: #24b4b1; fill-opacity: 0.5"/>
   </g>
   <g id="patch_86">
    <path d="M 385.073968 378 
L 388.131439 378 
L 388.131439 313.400253 
L 385.073968 313.400253 
z
" clip-path="url(#p865c0a5eea)" style="fill: #24b4b1; fill-opacity: 0.5"/>
   </g>
   <g id="patch_87">
    <path d="M 388.131439 378 
L 391.188911 378 
L 391.188911 310.651327 
L 388.131439 310.651327 
z
" clip-path="url(#p865c0a5eea)" style="fill: #24b4b1; fill-opacity: 0.5"/>
   </g>
   <g id="patch_88">
    <path d="M 391.188911 378 
L 394.246382 378 
L 394.246382 316.149178 
L 391.188911 316.149178 
z
" clip-path="url(#p865c0a5eea)" style="fill: #24b4b1; fill-opacity: 0.5"/>
   </g>
   <g id="patch_89">
    <path d="M 394.246382 378 
L 397.303853 378 
L 397.303853 331.268268 
L 394.246382 331.268268 
z
" clip-path="url(#p865c0a5eea)" style="fill: #24b4b1; fill-opacity: 0.5"/>
   </g>
   <g id="patch_90">
    <path d="M 397.303853 378 
L 400.361325 378 
L 400.361325 318.898104 
L 397.303853 318.898104 
z
" clip-path="url(#p865c0a5eea)" style="fill: #24b4b1; fill-opacity: 0.5"/>
   </g>
   <g id="patch_91">
    <path d="M 400.361325 378 
L 403.418796 378 
L 403.418796 349.136283 
L 400.361325 349.136283 
z
" clip-path="url(#p865c0a5eea)" style="fill: #24b4b1; fill-opacity: 0.5"/>
   </g>
   <g id="patch_92">
    <path d="M 403.418796 378 
L 406.476268 378 
L 406.476268 349.136283 
L 403.418796 349.136283 
z
" clip-path="url(#p865c0a5eea)" style="fill: #24b4b1; fill-opacity: 0.5"/>
   </g>
   <g id="patch_93">
    <path d="M 406.476268 378 
L 409.533739 378 
L 409.533739 361.506448 
L 406.476268 361.506448 
z
" clip-path="url(#p865c0a5eea)" style="fill: #24b4b1; fill-opacity: 0.5"/>
   </g>
   <g id="patch_94">
    <path d="M 409.533739 378 
L 412.59121 378 
L 412.59121 373.876612 
L 409.533739 373.876612 
z
" clip-path="url(#p865c0a5eea)" style="fill: #24b4b1; fill-opacity: 0.5"/>
   </g>
   <g id="patch_95">
    <path d="M 412.59121 378 
L 415.648682 378 
L 415.648682 375.251075 
L 412.59121 375.251075 
z
" clip-path="url(#p865c0a5eea)" style="fill: #24b4b1; fill-opacity: 0.5"/>
   </g>
   <g id="patch_96">
    <path d="M 415.648682 378 
L 418.706153 378 
L 418.706153 376.625537 
L 415.648682 376.625537 
z
" clip-path="url(#p865c0a5eea)" style="fill: #24b4b1; fill-opacity: 0.5"/>
   </g>
   <g id="patch_97">
    <path d="M 418.706153 378 
L 421.763625 378 
L 421.763625 378 
L 418.706153 378 
z
" clip-path="url(#p865c0a5eea)" style="fill: #24b4b1; fill-opacity: 0.5"/>
   </g>
   <g id="patch_98">
    <path d="M 421.763625 378 
L 424.821096 378 
L 424.821096 375.251075 
L 421.763625 375.251075 
z
" clip-path="url(#p865c0a5eea)" style="fill: #24b4b1; fill-opacity: 0.5"/>
   </g>
   <g id="patch_99">
    <path d="M 424.821096 378 
L 427.878567 378 
L 427.878567 375.251075 
L 424.821096 375.251075 
z
" clip-path="url(#p865c0a5eea)" style="fill: #24b4b1; fill-opacity: 0.5"/>
   </g>
   <g id="patch_100">
    <path d="M 427.878567 378 
L 430.936039 378 
L 430.936039 373.876612 
L 427.878567 373.876612 
z
" clip-path="url(#p865c0a5eea)" style="fill: #24b4b1; fill-opacity: 0.5"/>
   </g>
   <g id="patch_101">
    <path d="M 430.936039 378 
L 433.99351 378 
L 433.99351 378 
L 430.936039 378 
z
" clip-path="url(#p865c0a5eea)" style="fill: #24b4b1; fill-opacity: 0.5"/>
   </g>
   <g id="patch_102">
    <path d="M 433.99351 378 
L 437.050982 378 
L 437.050982 373.876612 
L 433.99351 373.876612 
z
" clip-path="url(#p865c0a5eea)" style="fill: #24b4b1; fill-opacity: 0.5"/>
   </g>
   <g id="patch_103">
    <path d="M 130.042553 378 
L 133.34518 378 
L 133.34518 373.565562 
L 130.042553 373.565562 
L 130.042553 378 
z
" clip-path="url(#p865c0a5eea)" style="fill: none"/>
   </g>
   <g id="patch_104">
    <path d="M 133.34518 378 
L 136.647807 378 
L 136.647807 365.908044 
L 133.34518 365.908044 
L 133.34518 378 
z
" clip-path="url(#p865c0a5eea)" style="fill: none"/>
   </g>
   <g id="patch_105">
    <path d="M 136.647807 378 
L 139.950434 378 
L 139.950434 358.740413 
L 136.647807 358.740413 
L 136.647807 378 
z
" clip-path="url(#p865c0a5eea)" style="fill: none"/>
   </g>
   <g id="patch_106">
    <path d="M 139.950434 378 
L 143.253061 378 
L 143.253061 352.661988 
L 139.950434 352.661988 
L 139.950434 378 
z
" clip-path="url(#p865c0a5eea)" style="fill: none"/>
   </g>
   <g id="patch_107">
    <path d="M 143.253061 378 
L 146.555688 378 
L 146.555688 347.073451 
L 143.253061 347.073451 
L 143.253061 378 
z
" clip-path="url(#p865c0a5eea)" style="fill: none"/>
   </g>
   <g id="patch_108">
    <path d="M 146.555688 378 
L 149.858315 378 
L 149.858315 342.353987 
L 146.555688 342.353987 
L 146.555688 378 
z
" clip-path="url(#p865c0a5eea)" style="fill: none"/>
   </g>
   <g id="patch_109">
    <path d="M 149.858315 378 
L 153.160942 378 
L 153.160942 337.008484 
L 149.858315 337.008484 
L 149.858315 378 
z
" clip-path="url(#p865c0a5eea)" style="fill: none"/>
   </g>
   <g id="patch_110">
    <path d="M 153.160942 378 
L 156.463569 378 
L 156.463569 333.492745 
L 153.160942 333.492745 
L 153.160942 378 
z
" clip-path="url(#p865c0a5eea)" style="fill: none"/>
   </g>
   <g id="patch_111">
    <path d="M 156.463569 378 
L 159.766196 378 
L 159.766196 329.224995 
L 156.463569 329.224995 
L 156.463569 378 
z
" clip-path="url(#p865c0a5eea)" style="fill: none"/>
   </g>
   <g id="patch_112">
    <path d="M 159.766196 378 
L 163.068823 378 
L 163.068823 325.780512 
L 159.766196 325.780512 
L 159.766196 378 
z
" clip-path="url(#p865c0a5eea)" style="fill: none"/>
   </g>
   <g id="patch_113">
    <path d="M 163.068823 378 
L 166.37145 378 
L 166.37145 322.385653 
L 163.068823 322.385653 
L 163.068823 378 
z
" clip-path="url(#p865c0a5eea)" style="fill: none"/>
   </g>
   <g id="patch_114">
    <path d="M 166.37145 378 
L 169.674077 378 
L 169.674077 318.504725 
L 166.37145 318.504725 
L 166.37145 378 
z
" clip-path="url(#p865c0a5eea)" style="fill: none"/>
   </g>
   <g id="patch_115">
    <path d="M 169.674077 378 
L 172.976704 378 
L 172.976704 315.603571 
L 169.674077 315.603571 
L 169.674077 378 
z
" clip-path="url(#p865c0a5eea)" style="fill: none"/>
   </g>
   <g id="patch_116">
    <path d="M 172.976704 378 
L 176.279331 378 
L 176.279331 311.866428 
L 172.976704 311.866428 
L 172.976704 378 
z
" clip-path="url(#p865c0a5eea)" style="fill: none"/>
   </g>
   <g id="patch_117">
    <path d="M 176.279331 378 
L 179.581958 378 
L 179.581958 308.700608 
L 176.279331 308.700608 
L 176.279331 378 
z
" clip-path="url(#p865c0a5eea)" style="fill: none"/>
   </g>
   <g id="patch_118">
    <path d="M 179.581958 378 
L 182.884585 378 
L 182.884585 306.017041 
L 179.581958 306.017041 
L 179.581958 378 
z
" clip-path="url(#p865c0a5eea)" style="fill: none"/>
   </g>
   <g id="patch_119">
    <path d="M 182.884585 378 
L 186.187212 378 
L 186.187212 302.932657 
L 182.884585 302.932657 
L 182.884585 378 
z
" clip-path="url(#p865c0a5eea)" style="fill: none"/>
   </g>
   <g id="patch_120">
    <path d="M 186.187212 378 
L 189.489839 378 
L 189.489839 300.522663 
L 186.187212 300.522663 
L 186.187212 378 
z
" clip-path="url(#p865c0a5eea)" style="fill: none"/>
   </g>
   <g id="patch_121">
    <path d="M 189.489839 378 
L 192.792466 378 
L 192.792466 296.788065 
L 189.489839 296.788065 
L 189.489839 378 
z
" clip-path="url(#p865c0a5eea)" style="fill: none"/>
   </g>
   <g id="patch_122">
    <path d="M 192.792466 378 
L 196.095093 378 
L 196.095093 294.955757 
L 192.792466 294.955757 
L 192.792466 378 
z
" clip-path="url(#p865c0a5eea)" style="fill: none"/>
   </g>
   <g id="patch_123">
    <path d="M 196.095093 378 
L 199.397719 378 
L 199.397719 291.157537 
L 196.095093 291.157537 
L 196.095093 378 
z
" clip-path="url(#p865c0a5eea)" style="fill: none"/>
   </g>
   <g id="patch_124">
    <path d="M 199.397719 378 
L 202.700346 378 
L 202.700346 288.939681 
L 199.397719 288.939681 
L 199.397719 378 
z
" clip-path="url(#p865c0a5eea)" style="fill: none"/>
   </g>
   <g id="patch_125">
    <path d="M 202.700346 378 
L 206.002973 378 
L 206.002973 285.544823 
L 202.700346 285.544823 
L 202.700346 378 
z
" clip-path="url(#p865c0a5eea)" style="fill: none"/>
   </g>
   <g id="patch_126">
    <path d="M 206.002973 378 
L 209.3056 378 
L 209.3056 283.148827 
L 206.002973 283.148827 
L 206.002973 378 
z
" clip-path="url(#p865c0a5eea)" style="fill: none"/>
   </g>
   <g id="patch_127">
    <path d="M 209.3056 378 
L 212.608227 378 
L 212.608227 279.753968 
L 209.3056 279.753968 
L 209.3056 378 
z
" clip-path="url(#p865c0a5eea)" style="fill: none"/>
   </g>
   <g id="patch_128">
    <path d="M 212.608227 378 
L 215.910854 378 
L 215.910854 277.420321 
L 212.608227 277.420321 
L 212.608227 378 
z
" clip-path="url(#p865c0a5eea)" style="fill: none"/>
   </g>
   <g id="patch_129">
    <path d="M 215.910854 378 
L 219.213481 378 
L 219.213481 273.87786 
L 215.910854 273.87786 
L 215.910854 378 
z
" clip-path="url(#p865c0a5eea)" style="fill: none"/>
   </g>
   <g id="patch_130">
    <path d="M 219.213481 378 
L 222.516108 378 
L 222.516108 271.618014 
L 219.213481 271.618014 
L 219.213481 378 
z
" clip-path="url(#p865c0a5eea)" style="fill: none"/>
   </g>
   <g id="patch_131">
    <path d="M 222.516108 378 
L 225.818735 378 
L 225.818735 268.356762 
L 222.516108 268.356762 
L 222.516108 378 
z
" clip-path="url(#p865c0a5eea)" style="fill: none"/>
   </g>
   <g id="patch_132">
    <path d="M 225.818735 378 
L 229.121362 378 
L 229.121362 264.67815 
L 225.818735 264.67815 
L 225.818735 378 
z
" clip-path="url(#p865c0a5eea)" style="fill: none"/>
   </g>
   <g id="patch_133">
    <path d="M 229.121362 378 
L 232.423989 378 
L 232.423989 261.420715 
L 229.121362 261.420715 
L 229.121362 378 
z
" clip-path="url(#p865c0a5eea)" style="fill: none"/>
   </g>
   <g id="patch_134">
    <path d="M 232.423989 378 
L 235.726616 378 
L 235.726616 257.734469 
L 232.423989 257.734469 
L 232.423989 378 
z
" clip-path="url(#p865c0a5eea)" style="fill: none"/>
   </g>
   <g id="patch_135">
    <path d="M 235.726616 378 
L 239.029243 378 
L 239.029243 254.832043 
L 235.726616 254.832043 
L 235.726616 378 
z
" clip-path="url(#p865c0a5eea)" style="fill: none"/>
   </g>
   <g id="patch_136">
    <path d="M 239.029243 378 
L 242.33187 378 
L 242.33187 250.916758 
L 239.029243 250.916758 
L 239.029243 378 
z
" clip-path="url(#p865c0a5eea)" style="fill: none"/>
   </g>
   <g id="patch_137">
    <path d="M 242.33187 378 
L 245.634497 378 
L 245.634497 247.790384 
L 242.33187 247.790384 
L 242.33187 378 
z
" clip-path="url(#p865c0a5eea)" style="fill: none"/>
   </g>
   <g id="patch_138">
    <path d="M 245.634497 378 
L 248.937124 378 
L 248.937124 244.045605 
L 245.634497 244.045605 
L 245.634497 378 
z
" clip-path="url(#p865c0a5eea)" style="fill: none"/>
   </g>
   <g id="patch_139">
    <path d="M 248.937124 378 
L 252.239751 378 
L 252.239751 240.704189 
L 248.937124 240.704189 
L 248.937124 378 
z
" clip-path="url(#p865c0a5eea)" style="fill: none"/>
   </g>
   <g id="patch_140">
    <path d="M 252.239751 378 
L 255.542378 378 
L 255.542378 236.730373 
L 252.239751 236.730373 
L 252.239751 378 
z
" clip-path="url(#p865c0a5eea)" style="fill: none"/>
   </g>
   <g id="patch_141">
    <path d="M 255.542378 378 
L 258.845005 378 
L 258.845005 231.543925 
L 255.542378 231.543925 
L 255.542378 378 
z
" clip-path="url(#p865c0a5eea)" style="fill: none"/>
   </g>
   <g id="patch_142">
    <path d="M 258.845005 378 
L 262.147632 378 
L 262.147632 228.92907 
L 258.845005 228.92907 
L 258.845005 378 
z
" clip-path="url(#p865c0a5eea)" style="fill: none"/>
   </g>
   <g id="patch_143">
    <path d="M 262.147632 378 
L 265.450259 378 
L 265.450259 224.120535 
L 262.147632 224.120535 
L 262.147632 378 
z
" clip-path="url(#p865c0a5eea)" style="fill: none"/>
   </g>
   <g id="patch_144">
    <path d="M 265.450259 378 
L 268.752886 378 
L 268.752886 219.532132 
L 265.450259 219.532132 
L 265.450259 378 
z
" clip-path="url(#p865c0a5eea)" style="fill: none"/>
   </g>
   <g id="patch_145">
    <path d="M 268.752886 378 
L 272.055513 378 
L 272.055513 214.42203 
L 268.752886 214.42203 
L 268.752886 378 
z
" clip-path="url(#p865c0a5eea)" style="fill: none"/>
   </g>
   <g id="patch_146">
    <path d="M 272.055513 378 
L 275.35814 378 
L 275.35814 210.105928 
L 272.055513 210.105928 
L 272.055513 378 
z
" clip-path="url(#p865c0a5eea)" style="fill: none"/>
   </g>
   <g id="patch_147">
    <path d="M 275.35814 378 
L 278.660767 378 
L 278.660767 205.658766 
L 275.35814 205.658766 
L 275.35814 378 
z
" clip-path="url(#p865c0a5eea)" style="fill: none"/>
   </g>
   <g id="patch_148">
    <path d="M 278.660767 378 
L 281.963394 378 
L 281.963394 199.656687 
L 278.660767 199.656687 
L 278.660767 378 
z
" clip-path="url(#p865c0a5eea)" style="fill: none"/>
   </g>
   <g id="patch_149">
    <path d="M 281.963394 378 
L 285.266021 378 
L 285.266021 194.551675 
L 281.963394 194.551675 
L 281.963394 378 
z
" clip-path="url(#p865c0a5eea)" style="fill: none"/>
   </g>
   <g id="patch_150">
    <path d="M 285.266021 378 
L 288.568648 378 
L 288.568648 188.90715 
L 285.266021 188.90715 
L 285.266021 378 
z
" clip-path="url(#p865c0a5eea)" style="fill: none"/>
   </g>
   <g id="patch_151">
    <path d="M 288.568648 378 
L 291.871274 378 
L 291.871274 183.975189 
L 288.568648 183.975189 
L 288.568648 378 
z
" clip-path="url(#p865c0a5eea)" style="fill: none"/>
   </g>
   <g id="patch_152">
    <path d="M 291.871274 378 
L 295.173901 378 
L 295.173901 177.111671 
L 291.871274 177.111671 
L 291.871274 378 
z
" clip-path="url(#p865c0a5eea)" style="fill: none"/>
   </g>
   <g id="patch_153">
    <path d="M 295.173901 378 
L 298.476528 378 
L 298.476528 176.817738 
L 295.173901 176.817738 
L 295.173901 378 
z
" clip-path="url(#p865c0a5eea)" style="fill: none"/>
   </g>
   <g id="patch_154">
    <path d="M 298.476528 378 
L 301.779155 378 
L 301.779155 183.191369 
L 298.476528 183.191369 
L 298.476528 378 
z
" clip-path="url(#p865c0a5eea)" style="fill: none"/>
   </g>
   <g id="patch_155">
    <path d="M 301.779155 378 
L 305.081782 378 
L 305.081782 188.858797 
L 301.779155 188.858797 
L 301.779155 378 
z
" clip-path="url(#p865c0a5eea)" style="fill: none"/>
   </g>
   <g id="patch_156">
    <path d="M 305.081782 378 
L 308.384409 378 
L 308.384409 194.757809 
L 305.081782 194.757809 
L 305.081782 378 
z
" clip-path="url(#p865c0a5eea)" style="fill: none"/>
   </g>
   <g id="patch_157">
    <path d="M 308.384409 378 
L 311.687036 378 
L 311.687036 200.441779 
L 308.384409 200.441779 
L 308.384409 378 
z
" clip-path="url(#p865c0a5eea)" style="fill: none"/>
   </g>
   <g id="patch_158">
    <path d="M 311.687036 378 
L 314.989663 378 
L 314.989663 205.093804 
L 311.687036 205.093804 
L 311.687036 378 
z
" clip-path="url(#p865c0a5eea)" style="fill: none"/>
   </g>
   <g id="patch_159">
    <path d="M 314.989663 378 
L 318.29229 378 
L 318.29229 210.08048 
L 314.989663 210.08048 
L 314.989663 378 
z
" clip-path="url(#p865c0a5eea)" style="fill: none"/>
   </g>
   <g id="patch_160">
    <path d="M 318.29229 378 
L 321.594917 378 
L 321.594917 214.883924 
L 318.29229 214.883924 
L 318.29229 378 
z
" clip-path="url(#p865c0a5eea)" style="fill: none"/>
   </g>
   <g id="patch_161">
    <path d="M 321.594917 378 
L 324.897544 378 
L 324.897544 219.130042 
L 321.594917 219.130042 
L 321.594917 378 
z
" clip-path="url(#p865c0a5eea)" style="fill: none"/>
   </g>
   <g id="patch_162">
    <path d="M 324.897544 378 
L 328.200171 378 
L 328.200171 224.665138 
L 324.897544 224.665138 
L 324.897544 378 
z
" clip-path="url(#p865c0a5eea)" style="fill: none"/>
   </g>
   <g id="patch_163">
    <path d="M 328.200171 378 
L 331.502798 378 
L 331.502798 228.981239 
L 328.200171 228.981239 
L 328.200171 378 
z
" clip-path="url(#p865c0a5eea)" style="fill: none"/>
   </g>
   <g id="patch_164">
    <path d="M 331.502798 378 
L 334.805425 378 
L 334.805425 232.78455 
L 331.502798 232.78455 
L 331.502798 378 
z
" clip-path="url(#p865c0a5eea)" style="fill: none"/>
   </g>
   <g id="patch_165">
    <path d="M 334.805425 378 
L 338.108052 378 
L 338.108052 236.536962 
L 334.805425 236.536962 
L 334.805425 378 
z
" clip-path="url(#p865c0a5eea)" style="fill: none"/>
   </g>
   <g id="patch_166">
    <path d="M 338.108052 378 
L 341.410679 378 
L 341.410679 240.377173 
L 338.108052 240.377173 
L 338.108052 378 
z
" clip-path="url(#p865c0a5eea)" style="fill: none"/>
   </g>
   <g id="patch_167">
    <path d="M 341.410679 378 
L 344.713306 378 
L 344.713306 244.703455 
L 341.410679 244.703455 
L 341.410679 378 
z
" clip-path="url(#p865c0a5eea)" style="fill: none"/>
   </g>
   <g id="patch_168">
    <path d="M 344.713306 378 
L 348.015933 378 
L 348.015933 248.20647 
L 344.713306 248.20647 
L 344.713306 378 
z
" clip-path="url(#p865c0a5eea)" style="fill: none"/>
   </g>
   <g id="patch_169">
    <path d="M 348.015933 378 
L 351.31856 378 
L 351.31856 251.804918 
L 348.015933 251.804918 
L 348.015933 378 
z
" clip-path="url(#p865c0a5eea)" style="fill: none"/>
   </g>
   <g id="patch_170">
    <path d="M 351.31856 378 
L 354.621187 378 
L 354.621187 255.323203 
L 351.31856 255.323203 
L 351.31856 378 
z
" clip-path="url(#p865c0a5eea)" style="fill: none"/>
   </g>
   <g id="patch_171">
    <path d="M 354.621187 378 
L 357.923814 378 
L 357.923814 258.333786 
L 354.621187 258.333786 
L 354.621187 378 
z
" clip-path="url(#p865c0a5eea)" style="fill: none"/>
   </g>
   <g id="patch_172">
    <path d="M 357.923814 378 
L 361.226441 378 
L 361.226441 261.66375 
L 357.923814 261.66375 
L 357.923814 378 
z
" clip-path="url(#p865c0a5eea)" style="fill: none"/>
   </g>
   <g id="patch_173">
    <path d="M 361.226441 378 
L 364.529068 378 
L 364.529068 264.955541 
L 361.226441 264.955541 
L 361.226441 378 
z
" clip-path="url(#p865c0a5eea)" style="fill: none"/>
   </g>
   <g id="patch_174">
    <path d="M 364.529068 378 
L 367.831695 378 
L 367.831695 267.74472 
L 364.529068 267.74472 
L 364.529068 378 
z
" clip-path="url(#p865c0a5eea)" style="fill: none"/>
   </g>
   <g id="patch_175">
    <path d="M 367.831695 378 
L 371.134322 378 
L 371.134322 270.574617 
L 367.831695 270.574617 
L 367.831695 378 
z
" clip-path="url(#p865c0a5eea)" style="fill: none"/>
   </g>
   <g id="patch_176">
    <path d="M 371.134322 378 
L 374.436949 378 
L 374.436949 274.047094 
L 371.134322 274.047094 
L 371.134322 378 
z
" clip-path="url(#p865c0a5eea)" style="fill: none"/>
   </g>
   <g id="patch_177">
    <path d="M 374.436949 378 
L 377.739576 378 
L 377.739576 277.623911 
L 374.436949 277.623911 
L 374.436949 378 
z
" clip-path="url(#p865c0a5eea)" style="fill: none"/>
   </g>
   <g id="patch_178">
    <path d="M 377.739576 378 
L 381.042202 378 
L 381.042202 279.748878 
L 377.739576 279.748878 
L 377.739576 378 
z
" clip-path="url(#p865c0a5eea)" style="fill: none"/>
   </g>
   <g id="patch_179">
    <path d="M 381.042202 378 
L 384.344829 378 
L 384.344829 283.127195 
L 381.042202 283.127195 
L 381.042202 378 
z
" clip-path="url(#p865c0a5eea)" style="fill: none"/>
   </g>
   <g id="patch_180">
    <path d="M 384.344829 378 
L 387.647456 378 
L 387.647456 285.434121 
L 384.344829 285.434121 
L 384.344829 378 
z
" clip-path="url(#p865c0a5eea)" style="fill: none"/>
   </g>
   <g id="patch_181">
    <path d="M 387.647456 378 
L 390.950083 378 
L 390.950083 288.53123 
L 387.647456 288.53123 
L 387.647456 378 
z
" clip-path="url(#p865c0a5eea)" style="fill: none"/>
   </g>
   <g id="patch_182">
    <path d="M 390.950083 378 
L 394.25271 378 
L 394.25271 291.264421 
L 390.950083 291.264421 
L 390.950083 378 
z
" clip-path="url(#p865c0a5eea)" style="fill: none"/>
   </g>
   <g id="patch_183">
    <path d="M 394.25271 378 
L 397.555337 378 
L 397.555337 294.372982 
L 394.25271 294.372982 
L 394.25271 378 
z
" clip-path="url(#p865c0a5eea)" style="fill: none"/>
   </g>
   <g id="patch_184">
    <path d="M 397.555337 378 
L 400.857964 378 
L 400.857964 297.421738 
L 397.555337 297.421738 
L 397.555337 378 
z
" clip-path="url(#p865c0a5eea)" style="fill: none"/>
   </g>
   <g id="patch_185">
    <path d="M 400.857964 378 
L 404.160591 378 
L 404.160591 300.217279 
L 400.857964 300.217279 
L 400.857964 378 
z
" clip-path="url(#p865c0a5eea)" style="fill: none"/>
   </g>
   <g id="patch_186">
    <path d="M 404.160591 378 
L 407.463218 378 
L 407.463218 303.808092 
L 404.160591 303.808092 
L 404.160591 378 
z
" clip-path="url(#p865c0a5eea)" style="fill: none"/>
   </g>
   <g id="patch_187">
    <path d="M 407.463218 378 
L 410.765845 378 
L 410.765845 305.547512 
L 407.463218 305.547512 
L 407.463218 378 
z
" clip-path="url(#p865c0a5eea)" style="fill: none"/>
   </g>
   <g id="patch_188">
    <path d="M 410.765845 378 
L 414.068472 378 
L 414.068472 309.402992 
L 410.765845 309.402992 
L 410.765845 378 
z
" clip-path="url(#p865c0a5eea)" style="fill: none"/>
   </g>
   <g id="patch_189">
    <path d="M 414.068472 378 
L 417.371099 378 
L 417.371099 312.133639 
L 414.068472 312.133639 
L 414.068472 378 
z
" clip-path="url(#p865c0a5eea)" style="fill: none"/>
   </g>
   <g id="patch_190">
    <path d="M 417.371099 378 
L 420.673726 378 
L 420.673726 314.864286 
L 417.371099 314.864286 
L 417.371099 378 
z
" clip-path="url(#p865c0a5eea)" style="fill: none"/>
   </g>
   <g id="patch_191">
    <path d="M 420.673726 378 
L 423.976353 378 
L 423.976353 318.05301 
L 420.673726 318.05301 
L 420.673726 378 
z
" clip-path="url(#p865c0a5eea)" style="fill: none"/>
   </g>
   <g id="patch_192">
    <path d="M 423.976353 378 
L 427.27898 378 
L 427.27898 321.801605 
L 423.976353 321.801605 
L 423.976353 378 
z
" clip-path="url(#p865c0a5eea)" style="fill: none"/>
   </g>
   <g id="patch_193">
    <path d="M 427.27898 378 
L 430.581607 378 
L 430.581607 325.210461 
L 427.27898 325.210461 
L 427.27898 378 
z
" clip-path="url(#p865c0a5eea)" style="fill: none"/>
   </g>
   <g id="patch_194">
    <path d="M 430.581607 378 
L 433.884234 378 
L 433.884234 328.989595 
L 430.581607 328.989595 
L 430.581607 378 
z
" clip-path="url(#p865c0a5eea)" style="fill: none"/>
   </g>
   <g id="patch_195">
    <path d="M 433.884234 378 
L 437.186861 378 
L 437.186861 332.971046 
L 433.884234 332.971046 
L 433.884234 378 
z
" clip-path="url(#p865c0a5eea)" style="fill: none"/>
   </g>
   <g id="patch_196">
    <path d="M 437.186861 378 
L 440.489488 378 
L 440.489488 337.25152 
L 437.186861 337.25152 
L 437.186861 378 
z
" clip-path="url(#p865c0a5eea)" style="fill: none"/>
   </g>
   <g id="patch_197">
    <path d="M 440.489488 378 
L 443.792115 378 
L 443.792115 342.165666 
L 440.489488 342.165666 
L 440.489488 378 
z
" clip-path="url(#p865c0a5eea)" style="fill: none"/>
   </g>
   <g id="patch_198">
    <path d="M 443.792115 378 
L 447.094742 378 
L 447.094742 347.288492 
L 443.792115 347.288492 
L 443.792115 378 
z
" clip-path="url(#p865c0a5eea)" style="fill: none"/>
   </g>
   <g id="patch_199">
    <path d="M 447.094742 378 
L 450.397369 378 
L 450.397369 352.352786 
L 447.094742 352.352786 
L 447.094742 378 
z
" clip-path="url(#p865c0a5eea)" style="fill: none"/>
   </g>
   <g id="patch_200">
    <path d="M 450.397369 378 
L 453.699996 378 
L 453.699996 358.852388 
L 450.397369 358.852388 
L 450.397369 378 
z
" clip-path="url(#p865c0a5eea)" style="fill: none"/>
   </g>
   <g id="patch_201">
    <path d="M 453.699996 378 
L 457.002623 378 
L 457.002623 365.670098 
L 453.699996 365.670098 
L 453.699996 378 
z
" clip-path="url(#p865c0a5eea)" style="fill: none"/>
   </g>
   <g id="patch_202">
    <path d="M 457.002623 378 
L 460.30525 378 
L 460.30525 373.364517 
L 457.002623 373.364517 
L 457.002623 378 
z
" clip-path="url(#p865c0a5eea)" style="fill: none"/>
   </g>
   <g id="matplotlib.axis_1">
    <g id="xtick_1">
     <g id="line2d_1">
      <defs>
       <path id="mda5d78ca55" d="M 0 0 
L 0 3.5 
" style="stroke: #000000; stroke-width: 0.8"/>
      </defs>
      <g>
       <use xlink:href="#mda5d78ca55" x="72" y="378" style="stroke: #000000; stroke-width: 0.8"/>
      </g>
     </g>
     <g id="text_1">
      <!-- 0.00 -->
      <g transform="translate(60.867188 392.598437)scale(0.1 -0.1)">
       <defs>
        <path id="DejaVuSans-30" d="M 2034 4250 
Q 1547 4250 1301 3770 
Q 1056 3291 1056 2328 
Q 1056 1369 1301 889 
Q 1547 409 2034 409 
Q 2525 409 2770 889 
Q 3016 1369 3016 2328 
Q 3016 3291 2770 3770 
Q 2525 4250 2034 4250 
z
M 2034 4750 
Q 2819 4750 3233 4129 
Q 3647 3509 3647 2328 
Q 3647 1150 3233 529 
Q 2819 -91 2034 -91 
Q 1250 -91 836 529 
Q 422 1150 422 2328 
Q 422 3509 836 4129 
Q 1250 4750 2034 4750 
z
" transform="scale(0.015625)"/>
        <path id="DejaVuSans-2e" d="M 684 794 
L 1344 794 
L 1344 0 
L 684 0 
L 684 794 
z
" transform="scale(0.015625)"/>
       </defs>
       <use xlink:href="#DejaVuSans-30"/>
       <use xlink:href="#DejaVuSans-2e" x="63.623047"/>
       <use xlink:href="#DejaVuSans-30" x="95.410156"/>
       <use xlink:href="#DejaVuSans-30" x="159.033203"/>
      </g>
     </g>
    </g>
    <g id="xtick_2">
     <g id="line2d_2">
      <g>
       <use xlink:href="#mda5d78ca55" x="183.6" y="378" style="stroke: #000000; stroke-width: 0.8"/>
      </g>
     </g>
     <g id="text_2">
      <!-- 0.25 -->
      <g transform="translate(172.467187 392.598437)scale(0.1 -0.1)">
       <defs>
        <path id="DejaVuSans-32" d="M 1228 531 
L 3431 531 
L 3431 0 
L 469 0 
L 469 531 
Q 828 903 1448 1529 
Q 2069 2156 2228 2338 
Q 2531 2678 2651 2914 
Q 2772 3150 2772 3378 
Q 2772 3750 2511 3984 
Q 2250 4219 1831 4219 
Q 1534 4219 1204 4116 
Q 875 4013 500 3803 
L 500 4441 
Q 881 4594 1212 4672 
Q 1544 4750 1819 4750 
Q 2544 4750 2975 4387 
Q 3406 4025 3406 3419 
Q 3406 3131 3298 2873 
Q 3191 2616 2906 2266 
Q 2828 2175 2409 1742 
Q 1991 1309 1228 531 
z
" transform="scale(0.015625)"/>
        <path id="DejaVuSans-35" d="M 691 4666 
L 3169 4666 
L 3169 4134 
L 1269 4134 
L 1269 2991 
Q 1406 3038 1543 3061 
Q 1681 3084 1819 3084 
Q 2600 3084 3056 2656 
Q 3513 2228 3513 1497 
Q 3513 744 3044 326 
Q 2575 -91 1722 -91 
Q 1428 -91 1123 -41 
Q 819 9 494 109 
L 494 744 
Q 775 591 1075 516 
Q 1375 441 1709 441 
Q 2250 441 2565 725 
Q 2881 1009 2881 1497 
Q 2881 1984 2565 2268 
Q 2250 2553 1709 2553 
Q 1456 2553 1204 2497 
Q 953 2441 691 2322 
L 691 4666 
z
" transform="scale(0.015625)"/>
       </defs>
       <use xlink:href="#DejaVuSans-30"/>
       <use xlink:href="#DejaVuSans-2e" x="63.623047"/>
       <use xlink:href="#DejaVuSans-32" x="95.410156"/>
       <use xlink:href="#DejaVuSans-35" x="159.033203"/>
      </g>
     </g>
    </g>
    <g id="xtick_3">
     <g id="line2d_3">
      <g>
       <use xlink:href="#mda5d78ca55" x="295.2" y="378" style="stroke: #000000; stroke-width: 0.8"/>
      </g>
     </g>
     <g id="text_3">
      <!-- 0.50 -->
      <g transform="translate(284.067187 392.598437)scale(0.1 -0.1)">
       <use xlink:href="#DejaVuSans-30"/>
       <use xlink:href="#DejaVuSans-2e" x="63.623047"/>
       <use xlink:href="#DejaVuSans-35" x="95.410156"/>
       <use xlink:href="#DejaVuSans-30" x="159.033203"/>
      </g>
     </g>
    </g>
    <g id="xtick_4">
     <g id="line2d_4">
      <g>
       <use xlink:href="#mda5d78ca55" x="406.8" y="378" style="stroke: #000000; stroke-width: 0.8"/>
      </g>
     </g>
     <g id="text_4">
      <!-- 0.75 -->
      <g transform="translate(395.667187 392.598437)scale(0.1 -0.1)">
       <defs>
        <path id="DejaVuSans-37" d="M 525 4666 
L 3525 4666 
L 3525 4397 
L 1831 0 
L 1172 0 
L 2766 4134 
L 525 4134 
L 525 4666 
z
" transform="scale(0.015625)"/>
       </defs>
       <use xlink:href="#DejaVuSans-30"/>
       <use xlink:href="#DejaVuSans-2e" x="63.623047"/>
       <use xlink:href="#DejaVuSans-37" x="95.410156"/>
       <use xlink:href="#DejaVuSans-35" x="159.033203"/>
      </g>
     </g>
    </g>
    <g id="xtick_5">
     <g id="line2d_5">
      <g>
       <use xlink:href="#mda5d78ca55" x="518.4" y="378" style="stroke: #000000; stroke-width: 0.8"/>
      </g>
     </g>
     <g id="text_5">
      <!-- 1.00 -->
      <g transform="translate(507.267187 392.598437)scale(0.1 -0.1)">
       <defs>
        <path id="DejaVuSans-31" d="M 794 531 
L 1825 531 
L 1825 4091 
L 703 3866 
L 703 4441 
L 1819 4666 
L 2450 4666 
L 2450 531 
L 3481 531 
L 3481 0 
L 794 0 
L 794 531 
z
" transform="scale(0.015625)"/>
       </defs>
       <use xlink:href="#DejaVuSans-31"/>
       <use xlink:href="#DejaVuSans-2e" x="63.623047"/>
       <use xlink:href="#DejaVuSans-30" x="95.410156"/>
       <use xlink:href="#DejaVuSans-30" x="159.033203"/>
      </g>
     </g>
    </g>
    <g id="text_6">
     <!-- ratio_roeske -->
     <g transform="translate(264.697656 406.276563)scale(0.1 -0.1)">
      <defs>
       <path id="DejaVuSans-72" d="M 2631 2963 
Q 2534 3019 2420 3045 
Q 2306 3072 2169 3072 
Q 1681 3072 1420 2755 
Q 1159 2438 1159 1844 
L 1159 0 
L 581 0 
L 581 3500 
L 1159 3500 
L 1159 2956 
Q 1341 3275 1631 3429 
Q 1922 3584 2338 3584 
Q 2397 3584 2469 3576 
Q 2541 3569 2628 3553 
L 2631 2963 
z
" transform="scale(0.015625)"/>
       <path id="DejaVuSans-61" d="M 2194 1759 
Q 1497 1759 1228 1600 
Q 959 1441 959 1056 
Q 959 750 1161 570 
Q 1363 391 1709 391 
Q 2188 391 2477 730 
Q 2766 1069 2766 1631 
L 2766 1759 
L 2194 1759 
z
M 3341 1997 
L 3341 0 
L 2766 0 
L 2766 531 
Q 2569 213 2275 61 
Q 1981 -91 1556 -91 
Q 1019 -91 701 211 
Q 384 513 384 1019 
Q 384 1609 779 1909 
Q 1175 2209 1959 2209 
L 2766 2209 
L 2766 2266 
Q 2766 2663 2505 2880 
Q 2244 3097 1772 3097 
Q 1472 3097 1187 3025 
Q 903 2953 641 2809 
L 641 3341 
Q 956 3463 1253 3523 
Q 1550 3584 1831 3584 
Q 2591 3584 2966 3190 
Q 3341 2797 3341 1997 
z
" transform="scale(0.015625)"/>
       <path id="DejaVuSans-74" d="M 1172 4494 
L 1172 3500 
L 2356 3500 
L 2356 3053 
L 1172 3053 
L 1172 1153 
Q 1172 725 1289 603 
Q 1406 481 1766 481 
L 2356 481 
L 2356 0 
L 1766 0 
Q 1100 0 847 248 
Q 594 497 594 1153 
L 594 3053 
L 172 3053 
L 172 3500 
L 594 3500 
L 594 4494 
L 1172 4494 
z
" transform="scale(0.015625)"/>
       <path id="DejaVuSans-69" d="M 603 3500 
L 1178 3500 
L 1178 0 
L 603 0 
L 603 3500 
z
M 603 4863 
L 1178 4863 
L 1178 4134 
L 603 4134 
L 603 4863 
z
" transform="scale(0.015625)"/>
       <path id="DejaVuSans-6f" d="M 1959 3097 
Q 1497 3097 1228 2736 
Q 959 2375 959 1747 
Q 959 1119 1226 758 
Q 1494 397 1959 397 
Q 2419 397 2687 759 
Q 2956 1122 2956 1747 
Q 2956 2369 2687 2733 
Q 2419 3097 1959 3097 
z
M 1959 3584 
Q 2709 3584 3137 3096 
Q 3566 2609 3566 1747 
Q 3566 888 3137 398 
Q 2709 -91 1959 -91 
Q 1206 -91 779 398 
Q 353 888 353 1747 
Q 353 2609 779 3096 
Q 1206 3584 1959 3584 
z
" transform="scale(0.015625)"/>
       <path id="DejaVuSans-5f" d="M 3263 -1063 
L 3263 -1509 
L -63 -1509 
L -63 -1063 
L 3263 -1063 
z
" transform="scale(0.015625)"/>
       <path id="DejaVuSans-65" d="M 3597 1894 
L 3597 1613 
L 953 1613 
Q 991 1019 1311 708 
Q 1631 397 2203 397 
Q 2534 397 2845 478 
Q 3156 559 3463 722 
L 3463 178 
Q 3153 47 2828 -22 
Q 2503 -91 2169 -91 
Q 1331 -91 842 396 
Q 353 884 353 1716 
Q 353 2575 817 3079 
Q 1281 3584 2069 3584 
Q 2775 3584 3186 3129 
Q 3597 2675 3597 1894 
z
M 3022 2063 
Q 3016 2534 2758 2815 
Q 2500 3097 2075 3097 
Q 1594 3097 1305 2825 
Q 1016 2553 972 2059 
L 3022 2063 
z
" transform="scale(0.015625)"/>
       <path id="DejaVuSans-73" d="M 2834 3397 
L 2834 2853 
Q 2591 2978 2328 3040 
Q 2066 3103 1784 3103 
Q 1356 3103 1142 2972 
Q 928 2841 928 2578 
Q 928 2378 1081 2264 
Q 1234 2150 1697 2047 
L 1894 2003 
Q 2506 1872 2764 1633 
Q 3022 1394 3022 966 
Q 3022 478 2636 193 
Q 2250 -91 1575 -91 
Q 1294 -91 989 -36 
Q 684 19 347 128 
L 347 722 
Q 666 556 975 473 
Q 1284 391 1588 391 
Q 1994 391 2212 530 
Q 2431 669 2431 922 
Q 2431 1156 2273 1281 
Q 2116 1406 1581 1522 
L 1381 1569 
Q 847 1681 609 1914 
Q 372 2147 372 2553 
Q 372 3047 722 3315 
Q 1072 3584 1716 3584 
Q 2034 3584 2315 3537 
Q 2597 3491 2834 3397 
z
" transform="scale(0.015625)"/>
       <path id="DejaVuSans-6b" d="M 581 4863 
L 1159 4863 
L 1159 1991 
L 2875 3500 
L 3609 3500 
L 1753 1863 
L 3688 0 
L 2938 0 
L 1159 1709 
L 1159 0 
L 581 0 
L 581 4863 
z
" transform="scale(0.015625)"/>
      </defs>
      <use xlink:href="#DejaVuSans-72"/>
      <use xlink:href="#DejaVuSans-61" x="41.113281"/>
      <use xlink:href="#DejaVuSans-74" x="102.392578"/>
      <use xlink:href="#DejaVuSans-69" x="141.601562"/>
      <use xlink:href="#DejaVuSans-6f" x="169.384766"/>
      <use xlink:href="#DejaVuSans-5f" x="230.566406"/>
      <use xlink:href="#DejaVuSans-72" x="280.566406"/>
      <use xlink:href="#DejaVuSans-6f" x="319.429688"/>
      <use xlink:href="#DejaVuSans-65" x="380.611328"/>
      <use xlink:href="#DejaVuSans-73" x="442.134766"/>
      <use xlink:href="#DejaVuSans-6b" x="494.234375"/>
      <use xlink:href="#DejaVuSans-65" x="548.519531"/>
     </g>
    </g>
   </g>
   <g id="matplotlib.axis_2">
    <g id="ytick_1">
     <g id="line2d_6">
      <defs>
       <path id="m2fa6afc64e" d="M 0 0 
L -3.5 0 
" style="stroke: #000000; stroke-width: 0.8"/>
      </defs>
      <g>
       <use xlink:href="#m2fa6afc64e" x="72" y="378" style="stroke: #000000; stroke-width: 0.8"/>
      </g>
     </g>
     <g id="text_7">
      <!-- 0.0 -->
      <g transform="translate(49.096875 381.799219)scale(0.1 -0.1)">
       <use xlink:href="#DejaVuSans-30"/>
       <use xlink:href="#DejaVuSans-2e" x="63.623047"/>
       <use xlink:href="#DejaVuSans-30" x="95.410156"/>
      </g>
     </g>
    </g>
    <g id="ytick_2">
     <g id="line2d_7">
      <g>
       <use xlink:href="#m2fa6afc64e" x="72" y="340.278364" style="stroke: #000000; stroke-width: 0.8"/>
      </g>
     </g>
     <g id="text_8">
      <!-- 0.5 -->
      <g transform="translate(49.096875 344.077583)scale(0.1 -0.1)">
       <use xlink:href="#DejaVuSans-30"/>
       <use xlink:href="#DejaVuSans-2e" x="63.623047"/>
       <use xlink:href="#DejaVuSans-35" x="95.410156"/>
      </g>
     </g>
    </g>
    <g id="ytick_3">
     <g id="line2d_8">
      <g>
       <use xlink:href="#m2fa6afc64e" x="72" y="302.556728" style="stroke: #000000; stroke-width: 0.8"/>
      </g>
     </g>
     <g id="text_9">
      <!-- 1.0 -->
      <g transform="translate(49.096875 306.355947)scale(0.1 -0.1)">
       <use xlink:href="#DejaVuSans-31"/>
       <use xlink:href="#DejaVuSans-2e" x="63.623047"/>
       <use xlink:href="#DejaVuSans-30" x="95.410156"/>
      </g>
     </g>
    </g>
    <g id="ytick_4">
     <g id="line2d_9">
      <g>
       <use xlink:href="#m2fa6afc64e" x="72" y="264.835092" style="stroke: #000000; stroke-width: 0.8"/>
      </g>
     </g>
     <g id="text_10">
      <!-- 1.5 -->
      <g transform="translate(49.096875 268.634311)scale(0.1 -0.1)">
       <use xlink:href="#DejaVuSans-31"/>
       <use xlink:href="#DejaVuSans-2e" x="63.623047"/>
       <use xlink:href="#DejaVuSans-35" x="95.410156"/>
      </g>
     </g>
    </g>
    <g id="ytick_5">
     <g id="line2d_10">
      <g>
       <use xlink:href="#m2fa6afc64e" x="72" y="227.113456" style="stroke: #000000; stroke-width: 0.8"/>
      </g>
     </g>
     <g id="text_11">
      <!-- 2.0 -->
      <g transform="translate(49.096875 230.912675)scale(0.1 -0.1)">
       <use xlink:href="#DejaVuSans-32"/>
       <use xlink:href="#DejaVuSans-2e" x="63.623047"/>
       <use xlink:href="#DejaVuSans-30" x="95.410156"/>
      </g>
     </g>
    </g>
    <g id="ytick_6">
     <g id="line2d_11">
      <g>
       <use xlink:href="#m2fa6afc64e" x="72" y="189.39182" style="stroke: #000000; stroke-width: 0.8"/>
      </g>
     </g>
     <g id="text_12">
      <!-- 2.5 -->
      <g transform="translate(49.096875 193.191039)scale(0.1 -0.1)">
       <use xlink:href="#DejaVuSans-32"/>
       <use xlink:href="#DejaVuSans-2e" x="63.623047"/>
       <use xlink:href="#DejaVuSans-35" x="95.410156"/>
      </g>
     </g>
    </g>
    <g id="ytick_7">
     <g id="line2d_12">
      <g>
       <use xlink:href="#m2fa6afc64e" x="72" y="151.670184" style="stroke: #000000; stroke-width: 0.8"/>
      </g>
     </g>
     <g id="text_13">
      <!-- 3.0 -->
      <g transform="translate(49.096875 155.469403)scale(0.1 -0.1)">
       <defs>
        <path id="DejaVuSans-33" d="M 2597 2516 
Q 3050 2419 3304 2112 
Q 3559 1806 3559 1356 
Q 3559 666 3084 287 
Q 2609 -91 1734 -91 
Q 1441 -91 1130 -33 
Q 819 25 488 141 
L 488 750 
Q 750 597 1062 519 
Q 1375 441 1716 441 
Q 2309 441 2620 675 
Q 2931 909 2931 1356 
Q 2931 1769 2642 2001 
Q 2353 2234 1838 2234 
L 1294 2234 
L 1294 2753 
L 1863 2753 
Q 2328 2753 2575 2939 
Q 2822 3125 2822 3475 
Q 2822 3834 2567 4026 
Q 2313 4219 1838 4219 
Q 1578 4219 1281 4162 
Q 984 4106 628 3988 
L 628 4550 
Q 988 4650 1302 4700 
Q 1616 4750 1894 4750 
Q 2613 4750 3031 4423 
Q 3450 4097 3450 3541 
Q 3450 3153 3228 2886 
Q 3006 2619 2597 2516 
z
" transform="scale(0.015625)"/>
       </defs>
       <use xlink:href="#DejaVuSans-33"/>
       <use xlink:href="#DejaVuSans-2e" x="63.623047"/>
       <use xlink:href="#DejaVuSans-30" x="95.410156"/>
      </g>
     </g>
    </g>
    <g id="ytick_8">
     <g id="line2d_13">
      <g>
       <use xlink:href="#m2fa6afc64e" x="72" y="113.948548" style="stroke: #000000; stroke-width: 0.8"/>
      </g>
     </g>
     <g id="text_14">
      <!-- 3.5 -->
      <g transform="translate(49.096875 117.747767)scale(0.1 -0.1)">
       <use xlink:href="#DejaVuSans-33"/>
       <use xlink:href="#DejaVuSans-2e" x="63.623047"/>
       <use xlink:href="#DejaVuSans-35" x="95.410156"/>
      </g>
     </g>
    </g>
    <g id="ytick_9">
     <g id="line2d_14">
      <g>
       <use xlink:href="#m2fa6afc64e" x="72" y="76.226912" style="stroke: #000000; stroke-width: 0.8"/>
      </g>
     </g>
     <g id="text_15">
      <!-- 4.0 -->
      <g transform="translate(49.096875 80.026131)scale(0.1 -0.1)">
       <defs>
        <path id="DejaVuSans-34" d="M 2419 4116 
L 825 1625 
L 2419 1625 
L 2419 4116 
z
M 2253 4666 
L 3047 4666 
L 3047 1625 
L 3713 1625 
L 3713 1100 
L 3047 1100 
L 3047 0 
L 2419 0 
L 2419 1100 
L 313 1100 
L 313 1709 
L 2253 4666 
z
" transform="scale(0.015625)"/>
       </defs>
       <use xlink:href="#DejaVuSans-34"/>
       <use xlink:href="#DejaVuSans-2e" x="63.623047"/>
       <use xlink:href="#DejaVuSans-30" x="95.410156"/>
      </g>
     </g>
    </g>
    <g id="text_16">
     <!-- Density -->
     <g transform="translate(43.017187 233.928594)rotate(-90)scale(0.1 -0.1)">
      <defs>
       <path id="DejaVuSans-44" d="M 1259 4147 
L 1259 519 
L 2022 519 
Q 2988 519 3436 956 
Q 3884 1394 3884 2338 
Q 3884 3275 3436 3711 
Q 2988 4147 2022 4147 
L 1259 4147 
z
M 628 4666 
L 1925 4666 
Q 3281 4666 3915 4102 
Q 4550 3538 4550 2338 
Q 4550 1131 3912 565 
Q 3275 0 1925 0 
L 628 0 
L 628 4666 
z
" transform="scale(0.015625)"/>
       <path id="DejaVuSans-6e" d="M 3513 2113 
L 3513 0 
L 2938 0 
L 2938 2094 
Q 2938 2591 2744 2837 
Q 2550 3084 2163 3084 
Q 1697 3084 1428 2787 
Q 1159 2491 1159 1978 
L 1159 0 
L 581 0 
L 581 3500 
L 1159 3500 
L 1159 2956 
Q 1366 3272 1645 3428 
Q 1925 3584 2291 3584 
Q 2894 3584 3203 3211 
Q 3513 2838 3513 2113 
z
" transform="scale(0.015625)"/>
       <path id="DejaVuSans-79" d="M 2059 -325 
Q 1816 -950 1584 -1140 
Q 1353 -1331 966 -1331 
L 506 -1331 
L 506 -850 
L 844 -850 
Q 1081 -850 1212 -737 
Q 1344 -625 1503 -206 
L 1606 56 
L 191 3500 
L 800 3500 
L 1894 763 
L 2988 3500 
L 3597 3500 
L 2059 -325 
z
" transform="scale(0.015625)"/>
      </defs>
      <use xlink:href="#DejaVuSans-44"/>
      <use xlink:href="#DejaVuSans-65" x="77.001953"/>
      <use xlink:href="#DejaVuSans-6e" x="138.525391"/>
      <use xlink:href="#DejaVuSans-73" x="201.904297"/>
      <use xlink:href="#DejaVuSans-69" x="254.003906"/>
      <use xlink:href="#DejaVuSans-74" x="281.787109"/>
      <use xlink:href="#DejaVuSans-79" x="320.996094"/>
     </g>
    </g>
   </g>
   <g id="line2d_15">
    <path d="M 131.303842 377.776442 
L 140.522349 377.648235 
L 146.66802 377.287116 
L 155.886526 376.625098 
L 163.568615 376.204782 
L 166.641451 375.741365 
L 169.714287 374.904889 
L 171.250704 374.317824 
L 172.787122 373.607804 
L 174.32354 372.76683 
L 175.859958 371.782893 
L 177.396375 370.636309 
L 178.932793 369.29644 
L 180.469211 367.719581 
L 182.005629 365.848632 
L 183.542047 363.614931 
L 185.078464 360.942233 
L 186.614882 357.752474 
L 188.1513 353.972657 
L 189.687718 349.542085 
L 191.224136 344.419208 
L 192.760553 338.587564 
L 194.296971 332.060558 
L 195.833389 324.885076 
L 198.906225 308.958189 
L 205.051896 275.470325 
L 206.588313 268.10174 
L 208.124731 261.659618 
L 209.661149 256.38415 
L 211.197567 252.467071 
L 212.733985 250.028179 
L 214.270402 249.095552 
L 215.80682 249.592756 
L 217.343238 251.335588 
L 218.879656 254.039516 
L 223.488909 263.995162 
L 225.025327 266.46566 
L 226.561745 267.816534 
L 228.098162 267.715035 
L 229.63458 265.917714 
L 231.170998 262.284835 
L 232.707416 256.787424 
L 234.243834 249.507329 
L 235.780251 240.631056 
L 237.316669 230.438327 
L 240.389505 207.590516 
L 243.46234 184.385792 
L 244.998758 173.789608 
L 246.535176 164.421773 
L 248.071594 156.62177 
L 249.608012 150.635895 
L 251.144429 146.596877 
L 252.680847 144.510598 
L 254.217265 144.252228 
L 255.753683 145.573244 
L 257.2901 148.119505 
L 258.826518 151.45911 
L 261.899354 158.616711 
L 263.435772 161.514527 
L 264.972189 163.441247 
L 266.508607 164.130021 
L 268.045025 163.439078 
L 269.581443 161.363809 
L 271.117861 158.037517 
L 272.654278 153.720331 
L 277.263532 138.786989 
L 278.799949 134.667375 
L 280.336367 131.689791 
L 281.872785 130.172701 
L 283.409203 130.321502 
L 284.945621 132.215142 
L 286.482038 135.805508 
L 288.018456 140.928202 
L 289.554874 147.321854 
L 291.091292 154.652321 
L 295.700545 178.356785 
L 297.236963 185.493327 
L 298.773381 191.626849 
L 300.309799 196.44526 
L 301.846216 199.694865 
L 303.382634 201.191537 
L 304.919052 200.829676 
L 306.45547 198.587876 
L 307.991887 194.530293 
L 309.528305 188.80326 
L 311.064723 181.627342 
L 312.601141 173.285676 
L 315.673976 154.464276 
L 318.746812 135.294693 
L 320.28323 126.528118 
L 321.819648 118.780242 
L 323.356065 112.364558 
L 324.892483 107.549427 
L 326.428901 104.550016 
L 327.965319 103.522058 
L 329.501737 104.557572 
L 331.038154 107.682651 
L 332.574572 112.857432 
L 334.11099 119.978295 
L 335.647408 128.882368 
L 337.183825 139.354335 
L 338.720243 151.135405 
L 341.793079 177.438979 
L 347.93875 232.295349 
L 351.011586 256.457169 
L 352.548003 267.030034 
L 354.084421 276.448833 
L 355.620839 284.655433 
L 357.157257 291.630599 
L 358.693674 297.389994 
L 360.230092 301.980237 
L 361.76651 305.475436 
L 363.302928 307.974205 
L 364.839346 309.596823 
L 366.375763 310.48188 
L 367.912181 310.781741 
L 369.448599 310.656368 
L 370.985017 310.265518 
L 374.057852 309.272833 
L 375.59427 308.91259 
L 377.130688 308.7588 
L 378.667106 308.861646 
L 380.203524 309.245164 
L 381.739941 309.913495 
L 383.276359 310.858784 
L 384.812777 312.069107 
L 386.349195 313.534869 
L 387.885612 315.252629 
L 389.42203 317.225894 
L 390.958448 319.463119 
L 392.494866 321.973629 
L 394.031284 324.762512 
L 395.567701 327.825572 
L 398.640537 334.688455 
L 403.24979 346.099644 
L 406.322626 353.621998 
L 409.395461 360.365385 
L 410.931879 363.294604 
L 412.468297 365.87874 
L 414.004715 368.102037 
L 415.541133 369.965904 
L 417.07755 371.487147 
L 418.613968 372.695206 
L 420.150386 373.62874 
L 421.686804 374.331911 
L 423.223222 374.850721 
L 426.296057 375.509341 
L 430.905311 376.060674 
L 437.050982 376.707264 
L 437.050982 376.707264 
" clip-path="url(#p865c0a5eea)" style="fill: none; stroke: #24b4b1; stroke-width: 1.5; stroke-linecap: square"/>
   </g>
   <g id="line2d_16">
    <path d="M 130.042553 374.93151 
L 131.702165 372.459228 
L 133.361776 369.338877 
L 138.340611 359.007696 
L 141.659834 352.801871 
L 144.979057 347.284087 
L 149.957892 339.68129 
L 153.277115 335.210006 
L 156.596338 331.162371 
L 159.915561 327.440591 
L 173.192453 313.460664 
L 176.511676 310.13584 
L 179.830899 307.178647 
L 186.469346 301.433213 
L 198.086626 291.161626 
L 211.363519 279.678131 
L 222.980799 269.296405 
L 229.619246 262.65387 
L 247.874973 243.475426 
L 251.194196 239.731138 
L 262.811476 225.391226 
L 266.130699 220.828311 
L 276.088369 206.555846 
L 281.067203 198.607357 
L 287.70565 187.691482 
L 291.024873 182.279633 
L 292.684484 180.052971 
L 294.344096 178.705259 
L 296.003707 178.625477 
L 297.663319 179.852963 
L 299.32293 182.050894 
L 302.642153 187.582661 
L 309.2806 198.823082 
L 312.599823 204.015412 
L 317.578657 211.380929 
L 329.195938 227.935552 
L 332.515161 231.990405 
L 345.792053 247.576856 
L 350.770888 252.951117 
L 354.090111 256.301649 
L 365.707392 267.317033 
L 370.686226 271.98476 
L 375.665061 276.84118 
L 385.62273 285.415993 
L 392.261176 291.079338 
L 407.19768 304.471222 
L 410.516903 307.330941 
L 415.495738 311.966938 
L 420.474573 316.368068 
L 423.793796 319.770038 
L 432.091853 328.882155 
L 435.411077 332.961392 
L 438.7303 337.318518 
L 442.049523 342.039153 
L 445.368746 347.182414 
L 448.687969 352.728328 
L 452.007192 358.933454 
L 458.645638 372.33096 
L 460.30525 374.837303 
L 460.30525 374.837303 
" clip-path="url(#p865c0a5eea)" style="fill: none; stroke-dasharray: 5.55,2.4; stroke-dashoffset: 0; stroke: #fc6983; stroke-width: 1.5"/>
   </g>
   <g id="patch_203">
    <path d="M 72 378 
L 72 51.84 
" style="fill: none; stroke: #000000; stroke-width: 0.8; stroke-linejoin: miter; stroke-linecap: square"/>
   </g>
   <g id="patch_204">
    <path d="M 518.4 378 
L 518.4 51.84 
" style="fill: none; stroke: #000000; stroke-width: 0.8; stroke-linejoin: miter; stroke-linecap: square"/>
   </g>
   <g id="patch_205">
    <path d="M 72 378 
L 518.4 378 
" style="fill: none; stroke: #000000; stroke-width: 0.8; stroke-linejoin: miter; stroke-linecap: square"/>
   </g>
   <g id="patch_206">
    <path d="M 72 51.84 
L 518.4 51.84 
" style="fill: none; stroke: #000000; stroke-width: 0.8; stroke-linejoin: miter; stroke-linecap: square"/>
   </g>
  </g>
 </g>
 <defs>
  <clipPath id="p865c0a5eea">
   <rect x="72" y="51.84" width="446.4" height="326.16"/>
  </clipPath>
 </defs>
</svg>
