<?xml version="1.0" encoding="utf-8" standalone="no"?>
<!DOCTYPE svg PUBLIC "-//W3C//DTD SVG 1.1//EN"
  "http://www.w3.org/Graphics/SVG/1.1/DTD/svg11.dtd">
<svg xmlns:xlink="http://www.w3.org/1999/xlink" width="576pt" height="432pt" viewBox="0 0 576 432" xmlns="http://www.w3.org/2000/svg" version="1.1">
 <metadata>
  <rdf:RDF xmlns:dc="http://purl.org/dc/elements/1.1/" xmlns:cc="http://creativecommons.org/ns#" xmlns:rdf="http://www.w3.org/1999/02/22-rdf-syntax-ns#">
   <cc:Work>
    <dc:type rdf:resource="http://purl.org/dc/dcmitype/StillImage"/>
    <dc:date>2022-04-04T18:39:03.026304</dc:date>
    <dc:format>image/svg+xml</dc:format>
    <dc:creator>
     <cc:Agent>
      <dc:title>Matplotlib v3.5.1, https://matplotlib.org/</dc:title>
     </cc:Agent>
    </dc:creator>
   </cc:Work>
  </rdf:RDF>
 </metadata>
 <defs>
  <style type="text/css">*{stroke-linejoin: round; stroke-linecap: butt}</style>
 </defs>
 <g id="figure_1">
  <g id="patch_1">
   <path d="M 0 432 
L 576 432 
L 576 0 
L 0 0 
L 0 432 
z
" style="fill: none"/>
  </g>
  <g id="axes_1">
   <g id="patch_2">
    <path d="M 72 378 
L 518.4 378 
L 518.4 51.84 
L 72 51.84 
z
" style="fill: #ffffff"/>
   </g>
   <g id="patch_3">
    <path d="M 131.303842 378 
L 134.361313 378 
L 134.361313 376.625537 
L 131.303842 376.625537 
z
" clip-path="url(#p234c073a0c)" style="fill: #a3e301"/>
   </g>
   <g id="patch_4">
    <path d="M 134.361313 378 
L 137.418785 378 
L 137.418785 378 
L 134.361313 378 
z
" clip-path="url(#p234c073a0c)" style="fill: #a3e301"/>
   </g>
   <g id="patch_5">
    <path d="M 137.418785 378 
L 140.476256 378 
L 140.476256 378 
L 137.418785 378 
z
" clip-path="url(#p234c073a0c)" style="fill: #a3e301"/>
   </g>
   <g id="patch_6">
    <path d="M 140.476256 378 
L 143.533727 378 
L 143.533727 378 
L 140.476256 378 
z
" clip-path="url(#p234c073a0c)" style="fill: #a3e301"/>
   </g>
   <g id="patch_7">
    <path d="M 143.533727 378 
L 146.591199 378 
L 146.591199 378 
L 143.533727 378 
z
" clip-path="url(#p234c073a0c)" style="fill: #a3e301"/>
   </g>
   <g id="patch_8">
    <path d="M 146.591199 378 
L 149.64867 378 
L 149.64867 378 
L 146.591199 378 
z
" clip-path="url(#p234c073a0c)" style="fill: #a3e301"/>
   </g>
   <g id="patch_9">
    <path d="M 149.64867 378 
L 152.706142 378 
L 152.706142 376.625537 
L 149.64867 376.625537 
z
" clip-path="url(#p234c073a0c)" style="fill: #a3e301"/>
   </g>
   <g id="patch_10">
    <path d="M 152.706142 378 
L 155.763613 378 
L 155.763613 375.251075 
L 152.706142 375.251075 
z
" clip-path="url(#p234c073a0c)" style="fill: #a3e301"/>
   </g>
   <g id="patch_11">
    <path d="M 155.763613 378 
L 158.821084 378 
L 158.821084 375.251075 
L 155.763613 375.251075 
z
" clip-path="url(#p234c073a0c)" style="fill: #a3e301"/>
   </g>
   <g id="patch_12">
    <path d="M 158.821084 378 
L 161.878556 378 
L 161.878556 376.625537 
L 158.821084 376.625537 
z
" clip-path="url(#p234c073a0c)" style="fill: #a3e301"/>
   </g>
   <g id="patch_13">
    <path d="M 161.878556 378 
L 164.936027 378 
L 164.936027 376.625537 
L 161.878556 376.625537 
z
" clip-path="url(#p234c073a0c)" style="fill: #a3e301"/>
   </g>
   <g id="patch_14">
    <path d="M 164.936027 378 
L 167.993499 378 
L 167.993499 378 
L 164.936027 378 
z
" clip-path="url(#p234c073a0c)" style="fill: #a3e301"/>
   </g>
   <g id="patch_15">
    <path d="M 167.993499 378 
L 171.05097 378 
L 171.05097 378 
L 167.993499 378 
z
" clip-path="url(#p234c073a0c)" style="fill: #a3e301"/>
   </g>
   <g id="patch_16">
    <path d="M 171.05097 378 
L 174.108441 378 
L 174.108441 376.625537 
L 171.05097 376.625537 
z
" clip-path="url(#p234c073a0c)" style="fill: #a3e301"/>
   </g>
   <g id="patch_17">
    <path d="M 174.108441 378 
L 177.165913 378 
L 177.165913 373.876612 
L 174.108441 373.876612 
z
" clip-path="url(#p234c073a0c)" style="fill: #a3e301"/>
   </g>
   <g id="patch_18">
    <path d="M 177.165913 378 
L 180.223384 378 
L 180.223384 368.378761 
L 177.165913 368.378761 
z
" clip-path="url(#p234c073a0c)" style="fill: #a3e301"/>
   </g>
   <g id="patch_19">
    <path d="M 180.223384 378 
L 183.280856 378 
L 183.280856 365.629836 
L 180.223384 365.629836 
z
" clip-path="url(#p234c073a0c)" style="fill: #a3e301"/>
   </g>
   <g id="patch_20">
    <path d="M 183.280856 378 
L 186.338327 378 
L 186.338327 369.753224 
L 183.280856 369.753224 
z
" clip-path="url(#p234c073a0c)" style="fill: #a3e301"/>
   </g>
   <g id="patch_21">
    <path d="M 186.338327 378 
L 189.395798 378 
L 189.395798 367.004298 
L 186.338327 367.004298 
z
" clip-path="url(#p234c073a0c)" style="fill: #a3e301"/>
   </g>
   <g id="patch_22">
    <path d="M 189.395798 378 
L 192.45327 378 
L 192.45327 364.255373 
L 189.395798 364.255373 
z
" clip-path="url(#p234c073a0c)" style="fill: #a3e301"/>
   </g>
   <g id="patch_23">
    <path d="M 192.45327 378 
L 195.510741 378 
L 195.510741 345.012895 
L 192.45327 345.012895 
z
" clip-path="url(#p234c073a0c)" style="fill: #a3e301"/>
   </g>
   <g id="patch_24">
    <path d="M 195.510741 378 
L 198.568213 378 
L 198.568213 324.395954 
L 195.510741 324.395954 
z
" clip-path="url(#p234c073a0c)" style="fill: #a3e301"/>
   </g>
   <g id="patch_25">
    <path d="M 198.568213 378 
L 201.625684 378 
L 201.625684 320.272566 
L 198.568213 320.272566 
z
" clip-path="url(#p234c073a0c)" style="fill: #a3e301"/>
   </g>
   <g id="patch_26">
    <path d="M 201.625684 378 
L 204.683155 378 
L 204.683155 268.042984 
L 201.625684 268.042984 
z
" clip-path="url(#p234c073a0c)" style="fill: #a3e301"/>
   </g>
   <g id="patch_27">
    <path d="M 204.683155 378 
L 207.740627 378 
L 207.740627 277.664223 
L 204.683155 277.664223 
z
" clip-path="url(#p234c073a0c)" style="fill: #a3e301"/>
   </g>
   <g id="patch_28">
    <path d="M 207.740627 378 
L 210.798098 378 
L 210.798098 237.804804 
L 207.740627 237.804804 
z
" clip-path="url(#p234c073a0c)" style="fill: #a3e301"/>
   </g>
   <g id="patch_29">
    <path d="M 210.798098 378 
L 213.85557 378 
L 213.85557 196.570923 
L 210.798098 196.570923 
z
" clip-path="url(#p234c073a0c)" style="fill: #a3e301"/>
   </g>
   <g id="patch_30">
    <path d="M 213.85557 378 
L 216.913041 378 
L 216.913041 197.945386 
L 213.85557 197.945386 
z
" clip-path="url(#p234c073a0c)" style="fill: #a3e301"/>
   </g>
   <g id="patch_31">
    <path d="M 216.913041 378 
L 219.970512 378 
L 219.970512 243.302655 
L 216.913041 243.302655 
z
" clip-path="url(#p234c073a0c)" style="fill: #a3e301"/>
   </g>
   <g id="patch_32">
    <path d="M 219.970512 378 
L 223.027984 378 
L 223.027984 265.294058 
L 219.970512 265.294058 
z
" clip-path="url(#p234c073a0c)" style="fill: #a3e301"/>
   </g>
   <g id="patch_33">
    <path d="M 223.027984 378 
L 226.085455 378 
L 226.085455 296.9067 
L 223.027984 296.9067 
z
" clip-path="url(#p234c073a0c)" style="fill: #a3e301"/>
   </g>
   <g id="patch_34">
    <path d="M 226.085455 378 
L 229.142927 378 
L 229.142927 302.404551 
L 226.085455 302.404551 
z
" clip-path="url(#p234c073a0c)" style="fill: #a3e301"/>
   </g>
   <g id="patch_35">
    <path d="M 229.142927 378 
L 232.200398 378 
L 232.200398 307.902402 
L 229.142927 307.902402 
z
" clip-path="url(#p234c073a0c)" style="fill: #a3e301"/>
   </g>
   <g id="patch_36">
    <path d="M 232.200398 378 
L 235.257869 378 
L 235.257869 280.413148 
L 232.200398 280.413148 
z
" clip-path="url(#p234c073a0c)" style="fill: #a3e301"/>
   </g>
   <g id="patch_37">
    <path d="M 235.257869 378 
L 238.315341 378 
L 238.315341 266.668521 
L 235.257869 266.668521 
z
" clip-path="url(#p234c073a0c)" style="fill: #a3e301"/>
   </g>
   <g id="patch_38">
    <path d="M 238.315341 378 
L 241.372812 378 
L 241.372812 224.060177 
L 238.315341 224.060177 
z
" clip-path="url(#p234c073a0c)" style="fill: #a3e301"/>
   </g>
   <g id="patch_39">
    <path d="M 241.372812 378 
L 244.430284 378 
L 244.430284 145.715803 
L 241.372812 145.715803 
z
" clip-path="url(#p234c073a0c)" style="fill: #a3e301"/>
   </g>
   <g id="patch_40">
    <path d="M 244.430284 378 
L 247.487755 378 
L 247.487755 174.57952 
L 244.430284 174.57952 
z
" clip-path="url(#p234c073a0c)" style="fill: #a3e301"/>
   </g>
   <g id="patch_41">
    <path d="M 247.487755 378 
L 250.545226 378 
L 250.545226 101.732996 
L 247.487755 101.732996 
z
" clip-path="url(#p234c073a0c)" style="fill: #a3e301"/>
   </g>
   <g id="patch_42">
    <path d="M 250.545226 378 
L 253.602698 378 
L 253.602698 67.371429 
L 250.545226 67.371429 
z
" clip-path="url(#p234c073a0c)" style="fill: #a3e301"/>
   </g>
   <g id="patch_43">
    <path d="M 253.602698 378 
L 256.660169 378 
L 256.660169 134.720101 
L 253.602698 134.720101 
z
" clip-path="url(#p234c073a0c)" style="fill: #a3e301"/>
   </g>
   <g id="patch_44">
    <path d="M 256.660169 378 
L 259.717641 378 
L 259.717641 131.971176 
L 256.660169 131.971176 
z
" clip-path="url(#p234c073a0c)" style="fill: #a3e301"/>
   </g>
   <g id="patch_45">
    <path d="M 259.717641 378 
L 262.775112 378 
L 262.775112 182.826296 
L 259.717641 182.826296 
z
" clip-path="url(#p234c073a0c)" style="fill: #a3e301"/>
   </g>
   <g id="patch_46">
    <path d="M 262.775112 378 
L 265.832583 378 
L 265.832583 193.821997 
L 262.775112 193.821997 
z
" clip-path="url(#p234c073a0c)" style="fill: #a3e301"/>
   </g>
   <g id="patch_47">
    <path d="M 265.832583 378 
L 268.890055 378 
L 268.890055 192.447535 
L 265.832583 192.447535 
z
" clip-path="url(#p234c073a0c)" style="fill: #a3e301"/>
   </g>
   <g id="patch_48">
    <path d="M 268.890055 378 
L 271.947526 378 
L 271.947526 203.443236 
L 268.890055 203.443236 
z
" clip-path="url(#p234c073a0c)" style="fill: #a3e301"/>
   </g>
   <g id="patch_49">
    <path d="M 271.947526 378 
L 275.004998 378 
L 275.004998 171.830594 
L 271.947526 171.830594 
z
" clip-path="url(#p234c073a0c)" style="fill: #a3e301"/>
   </g>
   <g id="patch_50">
    <path d="M 275.004998 378 
L 278.062469 378 
L 278.062469 131.971176 
L 275.004998 131.971176 
z
" clip-path="url(#p234c073a0c)" style="fill: #a3e301"/>
   </g>
   <g id="patch_51">
    <path d="M 278.062469 378 
L 281.11994 378 
L 281.11994 75.618205 
L 278.062469 75.618205 
z
" clip-path="url(#p234c073a0c)" style="fill: #a3e301"/>
   </g>
   <g id="patch_52">
    <path d="M 281.11994 378 
L 284.177412 378 
L 284.177412 107.230847 
L 281.11994 107.230847 
z
" clip-path="url(#p234c073a0c)" style="fill: #a3e301"/>
   </g>
   <g id="patch_53">
    <path d="M 284.177412 378 
L 287.234883 378 
L 287.234883 76.992668 
L 284.177412 76.992668 
z
" clip-path="url(#p234c073a0c)" style="fill: #a3e301"/>
   </g>
   <g id="patch_54">
    <path d="M 287.234883 378 
L 290.292355 378 
L 290.292355 116.852086 
L 287.234883 116.852086 
z
" clip-path="url(#p234c073a0c)" style="fill: #a3e301"/>
   </g>
   <g id="patch_55">
    <path d="M 290.292355 378 
L 293.349826 378 
L 293.349826 177.328445 
L 290.292355 177.328445 
z
" clip-path="url(#p234c073a0c)" style="fill: #a3e301"/>
   </g>
   <g id="patch_56">
    <path d="M 293.349826 378 
L 296.407297 378 
L 296.407297 163.583818 
L 293.349826 163.583818 
z
" clip-path="url(#p234c073a0c)" style="fill: #a3e301"/>
   </g>
   <g id="patch_57">
    <path d="M 296.407297 378 
L 299.464769 378 
L 299.464769 211.690013 
L 296.407297 211.690013 
z
" clip-path="url(#p234c073a0c)" style="fill: #a3e301"/>
   </g>
   <g id="patch_58">
    <path d="M 299.464769 378 
L 302.52224 378 
L 302.52224 236.430341 
L 299.464769 236.430341 
z
" clip-path="url(#p234c073a0c)" style="fill: #a3e301"/>
   </g>
   <g id="patch_59">
    <path d="M 302.52224 378 
L 305.579712 378 
L 305.579712 243.302655 
L 302.52224 243.302655 
z
" clip-path="url(#p234c073a0c)" style="fill: #a3e301"/>
   </g>
   <g id="patch_60">
    <path d="M 305.579712 378 
L 308.637183 378 
L 308.637183 235.055879 
L 305.579712 235.055879 
z
" clip-path="url(#p234c073a0c)" style="fill: #a3e301"/>
   </g>
   <g id="patch_61">
    <path d="M 308.637183 378 
L 311.694654 378 
L 311.694654 208.941087 
L 308.637183 208.941087 
z
" clip-path="url(#p234c073a0c)" style="fill: #a3e301"/>
   </g>
   <g id="patch_62">
    <path d="M 311.694654 378 
L 314.752126 378 
L 314.752126 177.328445 
L 311.694654 177.328445 
z
" clip-path="url(#p234c073a0c)" style="fill: #a3e301"/>
   </g>
   <g id="patch_63">
    <path d="M 314.752126 378 
L 317.809597 378 
L 317.809597 155.337042 
L 314.752126 155.337042 
z
" clip-path="url(#p234c073a0c)" style="fill: #a3e301"/>
   </g>
   <g id="patch_64">
    <path d="M 317.809597 378 
L 320.867069 378 
L 320.867069 111.354235 
L 317.809597 111.354235 
z
" clip-path="url(#p234c073a0c)" style="fill: #a3e301"/>
   </g>
   <g id="patch_65">
    <path d="M 320.867069 378 
L 323.92454 378 
L 323.92454 89.362832 
L 320.867069 89.362832 
z
" clip-path="url(#p234c073a0c)" style="fill: #a3e301"/>
   </g>
   <g id="patch_66">
    <path d="M 323.92454 378 
L 326.982011 378 
L 326.982011 71.494817 
L 323.92454 71.494817 
z
" clip-path="url(#p234c073a0c)" style="fill: #a3e301"/>
   </g>
   <g id="patch_67">
    <path d="M 326.982011 378 
L 330.039483 378 
L 330.039483 71.494817 
L 326.982011 71.494817 
z
" clip-path="url(#p234c073a0c)" style="fill: #a3e301"/>
   </g>
   <g id="patch_68">
    <path d="M 330.039483 378 
L 333.096954 378 
L 333.096954 70.120354 
L 330.039483 70.120354 
z
" clip-path="url(#p234c073a0c)" style="fill: #a3e301"/>
   </g>
   <g id="patch_69">
    <path d="M 333.096954 378 
L 336.154426 378 
L 336.154426 98.984071 
L 333.096954 98.984071 
z
" clip-path="url(#p234c073a0c)" style="fill: #a3e301"/>
   </g>
   <g id="patch_70">
    <path d="M 336.154426 378 
L 339.211897 378 
L 339.211897 114.103161 
L 336.154426 114.103161 
z
" clip-path="url(#p234c073a0c)" style="fill: #a3e301"/>
   </g>
   <g id="patch_71">
    <path d="M 339.211897 378 
L 342.269368 378 
L 342.269368 163.583818 
L 339.211897 163.583818 
z
" clip-path="url(#p234c073a0c)" style="fill: #a3e301"/>
   </g>
   <g id="patch_72">
    <path d="M 342.269368 378 
L 345.32684 378 
L 345.32684 186.949684 
L 342.269368 186.949684 
z
" clip-path="url(#p234c073a0c)" style="fill: #a3e301"/>
   </g>
   <g id="patch_73">
    <path d="M 345.32684 378 
L 348.384311 378 
L 348.384311 244.677118 
L 345.32684 244.677118 
z
" clip-path="url(#p234c073a0c)" style="fill: #a3e301"/>
   </g>
   <g id="patch_74">
    <path d="M 348.384311 378 
L 351.441783 378 
L 351.441783 266.668521 
L 348.384311 266.668521 
z
" clip-path="url(#p234c073a0c)" style="fill: #a3e301"/>
   </g>
   <g id="patch_75">
    <path d="M 351.441783 378 
L 354.499254 378 
L 354.499254 290.034387 
L 351.441783 290.034387 
z
" clip-path="url(#p234c073a0c)" style="fill: #a3e301"/>
   </g>
   <g id="patch_76">
    <path d="M 354.499254 378 
L 357.556725 378 
L 357.556725 320.272566 
L 354.499254 320.272566 
z
" clip-path="url(#p234c073a0c)" style="fill: #a3e301"/>
   </g>
   <g id="patch_77">
    <path d="M 357.556725 378 
L 360.614197 378 
L 360.614197 303.779014 
L 357.556725 303.779014 
z
" clip-path="url(#p234c073a0c)" style="fill: #a3e301"/>
   </g>
   <g id="patch_78">
    <path d="M 360.614197 378 
L 363.671668 378 
L 363.671668 323.021492 
L 360.614197 323.021492 
z
" clip-path="url(#p234c073a0c)" style="fill: #a3e301"/>
   </g>
   <g id="patch_79">
    <path d="M 363.671668 378 
L 366.72914 378 
L 366.72914 321.647029 
L 363.671668 321.647029 
z
" clip-path="url(#p234c073a0c)" style="fill: #a3e301"/>
   </g>
   <g id="patch_80">
    <path d="M 366.72914 378 
L 369.786611 378 
L 369.786611 325.770417 
L 366.72914 325.770417 
z
" clip-path="url(#p234c073a0c)" style="fill: #a3e301"/>
   </g>
   <g id="patch_81">
    <path d="M 369.786611 378 
L 372.844082 378 
L 372.844082 306.527939 
L 369.786611 306.527939 
z
" clip-path="url(#p234c073a0c)" style="fill: #a3e301"/>
   </g>
   <g id="patch_82">
    <path d="M 372.844082 378 
L 375.901554 378 
L 375.901554 291.40885 
L 372.844082 291.40885 
z
" clip-path="url(#p234c073a0c)" style="fill: #a3e301"/>
   </g>
   <g id="patch_83">
    <path d="M 375.901554 378 
L 378.959025 378 
L 378.959025 296.9067 
L 375.901554 296.9067 
z
" clip-path="url(#p234c073a0c)" style="fill: #a3e301"/>
   </g>
   <g id="patch_84">
    <path d="M 378.959025 378 
L 382.016496 378 
L 382.016496 310.651327 
L 378.959025 310.651327 
z
" clip-path="url(#p234c073a0c)" style="fill: #a3e301"/>
   </g>
   <g id="patch_85">
    <path d="M 382.016496 378 
L 385.073968 378 
L 385.073968 314.774716 
L 382.016496 314.774716 
z
" clip-path="url(#p234c073a0c)" style="fill: #a3e301"/>
   </g>
   <g id="patch_86">
    <path d="M 385.073968 378 
L 388.131439 378 
L 388.131439 313.400253 
L 385.073968 313.400253 
z
" clip-path="url(#p234c073a0c)" style="fill: #a3e301"/>
   </g>
   <g id="patch_87">
    <path d="M 388.131439 378 
L 391.188911 378 
L 391.188911 310.651327 
L 388.131439 310.651327 
z
" clip-path="url(#p234c073a0c)" style="fill: #a3e301"/>
   </g>
   <g id="patch_88">
    <path d="M 391.188911 378 
L 394.246382 378 
L 394.246382 316.149178 
L 391.188911 316.149178 
z
" clip-path="url(#p234c073a0c)" style="fill: #a3e301"/>
   </g>
   <g id="patch_89">
    <path d="M 394.246382 378 
L 397.303853 378 
L 397.303853 331.268268 
L 394.246382 331.268268 
z
" clip-path="url(#p234c073a0c)" style="fill: #a3e301"/>
   </g>
   <g id="patch_90">
    <path d="M 397.303853 378 
L 400.361325 378 
L 400.361325 318.898104 
L 397.303853 318.898104 
z
" clip-path="url(#p234c073a0c)" style="fill: #a3e301"/>
   </g>
   <g id="patch_91">
    <path d="M 400.361325 378 
L 403.418796 378 
L 403.418796 349.136283 
L 400.361325 349.136283 
z
" clip-path="url(#p234c073a0c)" style="fill: #a3e301"/>
   </g>
   <g id="patch_92">
    <path d="M 403.418796 378 
L 406.476268 378 
L 406.476268 349.136283 
L 403.418796 349.136283 
z
" clip-path="url(#p234c073a0c)" style="fill: #a3e301"/>
   </g>
   <g id="patch_93">
    <path d="M 406.476268 378 
L 409.533739 378 
L 409.533739 361.506448 
L 406.476268 361.506448 
z
" clip-path="url(#p234c073a0c)" style="fill: #a3e301"/>
   </g>
   <g id="patch_94">
    <path d="M 409.533739 378 
L 412.59121 378 
L 412.59121 373.876612 
L 409.533739 373.876612 
z
" clip-path="url(#p234c073a0c)" style="fill: #a3e301"/>
   </g>
   <g id="patch_95">
    <path d="M 412.59121 378 
L 415.648682 378 
L 415.648682 375.251075 
L 412.59121 375.251075 
z
" clip-path="url(#p234c073a0c)" style="fill: #a3e301"/>
   </g>
   <g id="patch_96">
    <path d="M 415.648682 378 
L 418.706153 378 
L 418.706153 376.625537 
L 415.648682 376.625537 
z
" clip-path="url(#p234c073a0c)" style="fill: #a3e301"/>
   </g>
   <g id="patch_97">
    <path d="M 418.706153 378 
L 421.763625 378 
L 421.763625 378 
L 418.706153 378 
z
" clip-path="url(#p234c073a0c)" style="fill: #a3e301"/>
   </g>
   <g id="patch_98">
    <path d="M 421.763625 378 
L 424.821096 378 
L 424.821096 375.251075 
L 421.763625 375.251075 
z
" clip-path="url(#p234c073a0c)" style="fill: #a3e301"/>
   </g>
   <g id="patch_99">
    <path d="M 424.821096 378 
L 427.878567 378 
L 427.878567 375.251075 
L 424.821096 375.251075 
z
" clip-path="url(#p234c073a0c)" style="fill: #a3e301"/>
   </g>
   <g id="patch_100">
    <path d="M 427.878567 378 
L 430.936039 378 
L 430.936039 373.876612 
L 427.878567 373.876612 
z
" clip-path="url(#p234c073a0c)" style="fill: #a3e301"/>
   </g>
   <g id="patch_101">
    <path d="M 430.936039 378 
L 433.99351 378 
L 433.99351 378 
L 430.936039 378 
z
" clip-path="url(#p234c073a0c)" style="fill: #a3e301"/>
   </g>
   <g id="patch_102">
    <path d="M 433.99351 378 
L 437.050982 378 
L 437.050982 373.876612 
L 433.99351 373.876612 
z
" clip-path="url(#p234c073a0c)" style="fill: #a3e301"/>
   </g>
   <g id="matplotlib.axis_1">
    <g id="xtick_1">
     <g id="line2d_1">
      <defs>
       <path id="m18112b04b2" d="M 0 0 
L 0 3.5 
" style="stroke: #000000; stroke-width: 0.8"/>
      </defs>
      <g>
       <use xlink:href="#m18112b04b2" x="72" y="378" style="stroke: #000000; stroke-width: 0.8"/>
      </g>
     </g>
     <g id="text_1">
      <!-- 0.00 -->
      <g transform="translate(60.867188 392.598437)scale(0.1 -0.1)">
       <defs>
        <path id="DejaVuSans-30" d="M 2034 4250 
Q 1547 4250 1301 3770 
Q 1056 3291 1056 2328 
Q 1056 1369 1301 889 
Q 1547 409 2034 409 
Q 2525 409 2770 889 
Q 3016 1369 3016 2328 
Q 3016 3291 2770 3770 
Q 2525 4250 2034 4250 
z
M 2034 4750 
Q 2819 4750 3233 4129 
Q 3647 3509 3647 2328 
Q 3647 1150 3233 529 
Q 2819 -91 2034 -91 
Q 1250 -91 836 529 
Q 422 1150 422 2328 
Q 422 3509 836 4129 
Q 1250 4750 2034 4750 
z
" transform="scale(0.015625)"/>
        <path id="DejaVuSans-2e" d="M 684 794 
L 1344 794 
L 1344 0 
L 684 0 
L 684 794 
z
" transform="scale(0.015625)"/>
       </defs>
       <use xlink:href="#DejaVuSans-30"/>
       <use xlink:href="#DejaVuSans-2e" x="63.623047"/>
       <use xlink:href="#DejaVuSans-30" x="95.410156"/>
       <use xlink:href="#DejaVuSans-30" x="159.033203"/>
      </g>
     </g>
    </g>
    <g id="xtick_2">
     <g id="line2d_2">
      <g>
       <use xlink:href="#m18112b04b2" x="183.6" y="378" style="stroke: #000000; stroke-width: 0.8"/>
      </g>
     </g>
     <g id="text_2">
      <!-- 0.25 -->
      <g transform="translate(172.467187 392.598437)scale(0.1 -0.1)">
       <defs>
        <path id="DejaVuSans-32" d="M 1228 531 
L 3431 531 
L 3431 0 
L 469 0 
L 469 531 
Q 828 903 1448 1529 
Q 2069 2156 2228 2338 
Q 2531 2678 2651 2914 
Q 2772 3150 2772 3378 
Q 2772 3750 2511 3984 
Q 2250 4219 1831 4219 
Q 1534 4219 1204 4116 
Q 875 4013 500 3803 
L 500 4441 
Q 881 4594 1212 4672 
Q 1544 4750 1819 4750 
Q 2544 4750 2975 4387 
Q 3406 4025 3406 3419 
Q 3406 3131 3298 2873 
Q 3191 2616 2906 2266 
Q 2828 2175 2409 1742 
Q 1991 1309 1228 531 
z
" transform="scale(0.015625)"/>
        <path id="DejaVuSans-35" d="M 691 4666 
L 3169 4666 
L 3169 4134 
L 1269 4134 
L 1269 2991 
Q 1406 3038 1543 3061 
Q 1681 3084 1819 3084 
Q 2600 3084 3056 2656 
Q 3513 2228 3513 1497 
Q 3513 744 3044 326 
Q 2575 -91 1722 -91 
Q 1428 -91 1123 -41 
Q 819 9 494 109 
L 494 744 
Q 775 591 1075 516 
Q 1375 441 1709 441 
Q 2250 441 2565 725 
Q 2881 1009 2881 1497 
Q 2881 1984 2565 2268 
Q 2250 2553 1709 2553 
Q 1456 2553 1204 2497 
Q 953 2441 691 2322 
L 691 4666 
z
" transform="scale(0.015625)"/>
       </defs>
       <use xlink:href="#DejaVuSans-30"/>
       <use xlink:href="#DejaVuSans-2e" x="63.623047"/>
       <use xlink:href="#DejaVuSans-32" x="95.410156"/>
       <use xlink:href="#DejaVuSans-35" x="159.033203"/>
      </g>
     </g>
    </g>
    <g id="xtick_3">
     <g id="line2d_3">
      <g>
       <use xlink:href="#m18112b04b2" x="295.2" y="378" style="stroke: #000000; stroke-width: 0.8"/>
      </g>
     </g>
     <g id="text_3">
      <!-- 0.50 -->
      <g transform="translate(284.067187 392.598437)scale(0.1 -0.1)">
       <use xlink:href="#DejaVuSans-30"/>
       <use xlink:href="#DejaVuSans-2e" x="63.623047"/>
       <use xlink:href="#DejaVuSans-35" x="95.410156"/>
       <use xlink:href="#DejaVuSans-30" x="159.033203"/>
      </g>
     </g>
    </g>
    <g id="xtick_4">
     <g id="line2d_4">
      <g>
       <use xlink:href="#m18112b04b2" x="406.8" y="378" style="stroke: #000000; stroke-width: 0.8"/>
      </g>
     </g>
     <g id="text_4">
      <!-- 0.75 -->
      <g transform="translate(395.667187 392.598437)scale(0.1 -0.1)">
       <defs>
        <path id="DejaVuSans-37" d="M 525 4666 
L 3525 4666 
L 3525 4397 
L 1831 0 
L 1172 0 
L 2766 4134 
L 525 4134 
L 525 4666 
z
" transform="scale(0.015625)"/>
       </defs>
       <use xlink:href="#DejaVuSans-30"/>
       <use xlink:href="#DejaVuSans-2e" x="63.623047"/>
       <use xlink:href="#DejaVuSans-37" x="95.410156"/>
       <use xlink:href="#DejaVuSans-35" x="159.033203"/>
      </g>
     </g>
    </g>
    <g id="xtick_5">
     <g id="line2d_5">
      <g>
       <use xlink:href="#m18112b04b2" x="518.4" y="378" style="stroke: #000000; stroke-width: 0.8"/>
      </g>
     </g>
     <g id="text_5">
      <!-- 1.00 -->
      <g transform="translate(507.267187 392.598437)scale(0.1 -0.1)">
       <defs>
        <path id="DejaVuSans-31" d="M 794 531 
L 1825 531 
L 1825 4091 
L 703 3866 
L 703 4441 
L 1819 4666 
L 2450 4666 
L 2450 531 
L 3481 531 
L 3481 0 
L 794 0 
L 794 531 
z
" transform="scale(0.015625)"/>
       </defs>
       <use xlink:href="#DejaVuSans-31"/>
       <use xlink:href="#DejaVuSans-2e" x="63.623047"/>
       <use xlink:href="#DejaVuSans-30" x="95.410156"/>
       <use xlink:href="#DejaVuSans-30" x="159.033203"/>
      </g>
     </g>
    </g>
   </g>
   <g id="matplotlib.axis_2">
    <g id="ytick_1">
     <g id="line2d_6">
      <defs>
       <path id="m02dd7af60c" d="M 0 0 
L -3.5 0 
" style="stroke: #000000; stroke-width: 0.8"/>
      </defs>
      <g>
       <use xlink:href="#m02dd7af60c" x="72" y="378" style="stroke: #000000; stroke-width: 0.8"/>
      </g>
     </g>
     <g id="text_6">
      <!-- 0.0 -->
      <g transform="translate(49.096875 381.799219)scale(0.1 -0.1)">
       <use xlink:href="#DejaVuSans-30"/>
       <use xlink:href="#DejaVuSans-2e" x="63.623047"/>
       <use xlink:href="#DejaVuSans-30" x="95.410156"/>
      </g>
     </g>
    </g>
    <g id="ytick_2">
     <g id="line2d_7">
      <g>
       <use xlink:href="#m02dd7af60c" x="72" y="340.278364" style="stroke: #000000; stroke-width: 0.8"/>
      </g>
     </g>
     <g id="text_7">
      <!-- 0.5 -->
      <g transform="translate(49.096875 344.077583)scale(0.1 -0.1)">
       <use xlink:href="#DejaVuSans-30"/>
       <use xlink:href="#DejaVuSans-2e" x="63.623047"/>
       <use xlink:href="#DejaVuSans-35" x="95.410156"/>
      </g>
     </g>
    </g>
    <g id="ytick_3">
     <g id="line2d_8">
      <g>
       <use xlink:href="#m02dd7af60c" x="72" y="302.556728" style="stroke: #000000; stroke-width: 0.8"/>
      </g>
     </g>
     <g id="text_8">
      <!-- 1.0 -->
      <g transform="translate(49.096875 306.355947)scale(0.1 -0.1)">
       <use xlink:href="#DejaVuSans-31"/>
       <use xlink:href="#DejaVuSans-2e" x="63.623047"/>
       <use xlink:href="#DejaVuSans-30" x="95.410156"/>
      </g>
     </g>
    </g>
    <g id="ytick_4">
     <g id="line2d_9">
      <g>
       <use xlink:href="#m02dd7af60c" x="72" y="264.835092" style="stroke: #000000; stroke-width: 0.8"/>
      </g>
     </g>
     <g id="text_9">
      <!-- 1.5 -->
      <g transform="translate(49.096875 268.634311)scale(0.1 -0.1)">
       <use xlink:href="#DejaVuSans-31"/>
       <use xlink:href="#DejaVuSans-2e" x="63.623047"/>
       <use xlink:href="#DejaVuSans-35" x="95.410156"/>
      </g>
     </g>
    </g>
    <g id="ytick_5">
     <g id="line2d_10">
      <g>
       <use xlink:href="#m02dd7af60c" x="72" y="227.113456" style="stroke: #000000; stroke-width: 0.8"/>
      </g>
     </g>
     <g id="text_10">
      <!-- 2.0 -->
      <g transform="translate(49.096875 230.912675)scale(0.1 -0.1)">
       <use xlink:href="#DejaVuSans-32"/>
       <use xlink:href="#DejaVuSans-2e" x="63.623047"/>
       <use xlink:href="#DejaVuSans-30" x="95.410156"/>
      </g>
     </g>
    </g>
    <g id="ytick_6">
     <g id="line2d_11">
      <g>
       <use xlink:href="#m02dd7af60c" x="72" y="189.39182" style="stroke: #000000; stroke-width: 0.8"/>
      </g>
     </g>
     <g id="text_11">
      <!-- 2.5 -->
      <g transform="translate(49.096875 193.191039)scale(0.1 -0.1)">
       <use xlink:href="#DejaVuSans-32"/>
       <use xlink:href="#DejaVuSans-2e" x="63.623047"/>
       <use xlink:href="#DejaVuSans-35" x="95.410156"/>
      </g>
     </g>
    </g>
    <g id="ytick_7">
     <g id="line2d_12">
      <g>
       <use xlink:href="#m02dd7af60c" x="72" y="151.670184" style="stroke: #000000; stroke-width: 0.8"/>
      </g>
     </g>
     <g id="text_12">
      <!-- 3.0 -->
      <g transform="translate(49.096875 155.469403)scale(0.1 -0.1)">
       <defs>
        <path id="DejaVuSans-33" d="M 2597 2516 
Q 3050 2419 3304 2112 
Q 3559 1806 3559 1356 
Q 3559 666 3084 287 
Q 2609 -91 1734 -91 
Q 1441 -91 1130 -33 
Q 819 25 488 141 
L 488 750 
Q 750 597 1062 519 
Q 1375 441 1716 441 
Q 2309 441 2620 675 
Q 2931 909 2931 1356 
Q 2931 1769 2642 2001 
Q 2353 2234 1838 2234 
L 1294 2234 
L 1294 2753 
L 1863 2753 
Q 2328 2753 2575 2939 
Q 2822 3125 2822 3475 
Q 2822 3834 2567 4026 
Q 2313 4219 1838 4219 
Q 1578 4219 1281 4162 
Q 984 4106 628 3988 
L 628 4550 
Q 988 4650 1302 4700 
Q 1616 4750 1894 4750 
Q 2613 4750 3031 4423 
Q 3450 4097 3450 3541 
Q 3450 3153 3228 2886 
Q 3006 2619 2597 2516 
z
" transform="scale(0.015625)"/>
       </defs>
       <use xlink:href="#DejaVuSans-33"/>
       <use xlink:href="#DejaVuSans-2e" x="63.623047"/>
       <use xlink:href="#DejaVuSans-30" x="95.410156"/>
      </g>
     </g>
    </g>
    <g id="ytick_8">
     <g id="line2d_13">
      <g>
       <use xlink:href="#m02dd7af60c" x="72" y="113.948548" style="stroke: #000000; stroke-width: 0.8"/>
      </g>
     </g>
     <g id="text_13">
      <!-- 3.5 -->
      <g transform="translate(49.096875 117.747767)scale(0.1 -0.1)">
       <use xlink:href="#DejaVuSans-33"/>
       <use xlink:href="#DejaVuSans-2e" x="63.623047"/>
       <use xlink:href="#DejaVuSans-35" x="95.410156"/>
      </g>
     </g>
    </g>
    <g id="ytick_9">
     <g id="line2d_14">
      <g>
       <use xlink:href="#m02dd7af60c" x="72" y="76.226912" style="stroke: #000000; stroke-width: 0.8"/>
      </g>
     </g>
     <g id="text_14">
      <!-- 4.0 -->
      <g transform="translate(49.096875 80.026131)scale(0.1 -0.1)">
       <defs>
        <path id="DejaVuSans-34" d="M 2419 4116 
L 825 1625 
L 2419 1625 
L 2419 4116 
z
M 2253 4666 
L 3047 4666 
L 3047 1625 
L 3713 1625 
L 3713 1100 
L 3047 1100 
L 3047 0 
L 2419 0 
L 2419 1100 
L 313 1100 
L 313 1709 
L 2253 4666 
z
" transform="scale(0.015625)"/>
       </defs>
       <use xlink:href="#DejaVuSans-34"/>
       <use xlink:href="#DejaVuSans-2e" x="63.623047"/>
       <use xlink:href="#DejaVuSans-30" x="95.410156"/>
      </g>
     </g>
    </g>
   </g>
   <g id="patch_103">
    <path d="M 130.004569 378 
L 130.004569 373.640356 
L 133.307948 373.640356 
L 133.307948 365.934967 
L 136.611327 365.934967 
L 136.611327 358.920354 
L 139.914706 358.920354 
L 139.914706 352.873843 
L 143.218085 352.873843 
L 143.218085 347.490121 
L 146.521464 347.490121 
L 146.521464 342.184 
L 149.824843 342.184 
L 149.824843 337.569927 
L 153.128222 337.569927 
L 153.128222 333.301877 
L 156.431601 333.301877 
L 156.431601 329.133054 
L 159.73498 329.133054 
L 159.73498 325.68045 
L 163.038358 325.68045 
L 163.038358 321.819486 
L 166.341737 321.819486 
L 166.341737 317.935625 
L 169.645116 317.935625 
L 169.645116 315.079657 
L 172.948495 315.079657 
L 172.948495 311.909469 
L 176.251874 311.909469 
L 176.251874 308.856318 
L 179.555253 308.856318 
L 179.555253 306.142831 
L 182.858632 306.142831 
L 182.858632 303.1253 
L 186.162011 303.1253 
L 186.162011 299.910587 
L 189.46539 299.910587 
L 189.46539 297.119499 
L 192.768769 297.119499 
L 192.768769 294.225367 
L 196.072148 294.225367 
L 196.072148 291.332506 
L 199.375526 291.332506 
L 199.375526 288.546507 
L 202.678905 288.546507 
L 202.678905 286.271909 
L 205.982284 286.271909 
L 205.982284 282.825666 
L 209.285663 282.825666 
L 209.285663 279.437941 
L 212.589042 279.437941 
L 212.589042 276.743536 
L 215.892421 276.743536 
L 215.892421 274.589792 
L 219.1958 274.589792 
L 219.1958 271.001068 
L 222.499179 271.001068 
L 222.499179 267.666774 
L 225.802558 267.666774 
L 225.802558 264.841337 
L 229.105937 264.841337 
L 229.105937 262.069331 
L 232.409315 262.069331 
L 232.409315 257.970476 
L 235.712694 257.970476 
L 235.712694 254.983478 
L 239.016073 254.983478 
L 239.016073 251.740777 
L 242.319452 251.740777 
L 242.319452 248.045193 
L 245.622831 248.045193 
L 245.622831 244.553152 
L 248.92621 244.553152 
L 248.92621 240.173153 
L 252.229589 240.173153 
L 252.229589 236.190064 
L 255.532968 236.190064 
L 255.532968 231.757907 
L 258.836347 231.757907 
L 258.836347 228.823066 
L 262.139726 228.823066 
L 262.139726 223.443161 
L 265.443105 223.443161 
L 265.443105 219.467704 
L 268.746483 219.467704 
L 268.746483 215.169123 
L 272.049862 215.169123 
L 272.049862 209.922793 
L 275.353241 209.922793 
L 275.353241 204.845658 
L 278.65662 204.845658 
L 278.65662 200.493646 
L 281.959999 200.493646 
L 281.959999 194.317377 
L 285.263378 194.317377 
L 285.263378 188.844605 
L 288.566757 188.844605 
L 288.566757 183.532123 
L 291.870136 183.532123 
L 291.870136 176.60656 
L 295.173515 176.60656 
L 295.173515 177.182842 
L 298.476894 177.182842 
L 298.476894 182.310863 
L 301.780273 182.310863 
L 301.780273 188.555828 
L 305.083651 188.555828 
L 305.083651 195.205335 
L 308.38703 195.205335 
L 308.38703 200.988511 
L 311.690409 200.988511 
L 311.690409 205.336706 
L 314.993788 205.336706 
L 314.993788 210.635194 
L 318.297167 210.635194 
L 318.297167 215.092794 
L 321.600546 215.092794 
L 321.600546 218.269343 
L 324.903925 218.269343 
L 324.903925 224.312036 
L 328.207304 224.312036 
L 328.207304 227.388086 
L 331.510683 227.388086 
L 331.510683 232.518651 
L 334.814062 232.518651 
L 334.814062 236.963529 
L 338.117441 236.963529 
L 338.117441 241.104364 
L 341.420819 241.104364 
L 341.420819 244.341976 
L 344.724198 244.341976 
L 344.724198 248.668545 
L 348.027577 248.668545 
L 348.027577 252.230554 
L 351.330956 252.230554 
L 351.330956 255.319324 
L 354.634335 255.319324 
L 354.634335 258.667612 
L 357.937714 258.667612 
L 357.937714 262.196546 
L 361.241093 262.196546 
L 361.241093 264.689952 
L 364.544472 264.689952 
L 364.544472 268.152733 
L 367.847851 268.152733 
L 367.847851 271.428509 
L 371.15123 271.428509 
L 371.15123 274.354445 
L 374.454609 274.354445 
L 374.454609 277.015775 
L 377.757987 277.015775 
L 377.757987 280.565062 
L 381.061366 280.565062 
L 381.061366 282.563604 
L 384.364745 282.563604 
L 384.364745 285.743969 
L 387.668124 285.743969 
L 387.668124 288.688987 
L 390.971503 288.688987 
L 390.971503 291.603474 
L 394.274882 291.603474 
L 394.274882 294.18593 
L 397.578261 294.18593 
L 397.578261 296.770931 
L 400.88164 296.770931 
L 400.88164 300.668786 
L 404.185019 300.668786 
L 404.185019 303.662146 
L 407.488398 303.662146 
L 407.488398 305.738288 
L 410.791777 305.738288 
L 410.791777 308.941552 
L 414.095155 308.941552 
L 414.095155 312.799971 
L 417.398534 312.799971 
L 417.398534 315.533813 
L 420.701913 315.533813 
L 420.701913 318.363066 
L 424.005292 318.363066 
L 424.005292 322.001403 
L 427.308671 322.001403 
L 427.308671 325.342059 
L 430.61205 325.342059 
L 430.61205 329.176307 
L 433.915429 329.176307 
L 433.915429 333.660622 
L 437.218808 333.660622 
L 437.218808 337.61318 
L 440.522187 337.61318 
L 440.522187 341.93466 
L 443.825566 341.93466 
L 443.825566 347.179718 
L 447.128945 347.179718 
L 447.128945 352.358624 
L 450.432323 352.358624 
L 450.432323 358.804588 
L 453.735702 358.804588 
L 453.735702 365.716158 
L 457.039081 365.716158 
L 457.039081 373.415186 
L 460.34246 373.415186 
L 460.34246 378 
L 460.34246 378 
" clip-path="url(#p234c073a0c)" style="fill: none; stroke: #fc6983; stroke-linejoin: miter"/>
   </g>
   <g id="patch_104">
    <path d="M 72 378 
L 72 51.84 
" style="fill: none; stroke: #000000; stroke-width: 0.8; stroke-linejoin: miter; stroke-linecap: square"/>
   </g>
   <g id="patch_105">
    <path d="M 518.4 378 
L 518.4 51.84 
" style="fill: none; stroke: #000000; stroke-width: 0.8; stroke-linejoin: miter; stroke-linecap: square"/>
   </g>
   <g id="patch_106">
    <path d="M 72 378 
L 518.4 378 
" style="fill: none; stroke: #000000; stroke-width: 0.8; stroke-linejoin: miter; stroke-linecap: square"/>
   </g>
   <g id="patch_107">
    <path d="M 72 51.84 
L 518.4 51.84 
" style="fill: none; stroke: #000000; stroke-width: 0.8; stroke-linejoin: miter; stroke-linecap: square"/>
   </g>
  </g>
 </g>
 <defs>
  <clipPath id="p234c073a0c">
   <rect x="72" y="51.84" width="446.4" height="326.16"/>
  </clipPath>
 </defs>
</svg>
