<?xml version="1.0" encoding="utf-8" standalone="no"?>
<!DOCTYPE svg PUBLIC "-//W3C//DTD SVG 1.1//EN"
  "http://www.w3.org/Graphics/SVG/1.1/DTD/svg11.dtd">
<svg xmlns:xlink="http://www.w3.org/1999/xlink" width="576pt" height="432pt" viewBox="0 0 576 432" xmlns="http://www.w3.org/2000/svg" version="1.1">
 <metadata>
  <rdf:RDF xmlns:dc="http://purl.org/dc/elements/1.1/" xmlns:cc="http://creativecommons.org/ns#" xmlns:rdf="http://www.w3.org/1999/02/22-rdf-syntax-ns#">
   <cc:Work>
    <dc:type rdf:resource="http://purl.org/dc/dcmitype/StillImage"/>
    <dc:date>2022-05-18T16:44:19.692703</dc:date>
    <dc:format>image/svg+xml</dc:format>
    <dc:creator>
     <cc:Agent>
      <dc:title>Matplotlib v3.5.1, https://matplotlib.org/</dc:title>
     </cc:Agent>
    </dc:creator>
   </cc:Work>
  </rdf:RDF>
 </metadata>
 <defs>
  <style type="text/css">*{stroke-linejoin: round; stroke-linecap: butt}</style>
 </defs>
 <g id="figure_1">
  <g id="patch_1">
   <path d="M 0 432 
L 576 432 
L 576 0 
L 0 0 
L 0 432 
z
" style="fill: none"/>
  </g>
  <g id="axes_1">
   <g id="patch_2">
    <path d="M 72 378 
L 518.4 378 
L 518.4 51.84 
L 72 51.84 
z
" style="fill: #ffffff"/>
   </g>
   <g id="patch_3">
    <path d="M 99.101627 378 
L 102.925335 378 
L 102.925335 363.880519 
L 99.101627 363.880519 
z
" clip-path="url(#p541fc8e26d)" style="fill: #a3e301; fill-opacity: 0.5"/>
   </g>
   <g id="patch_4">
    <path d="M 102.925335 378 
L 106.749044 378 
L 106.749044 378 
L 102.925335 378 
z
" clip-path="url(#p541fc8e26d)" style="fill: #a3e301; fill-opacity: 0.5"/>
   </g>
   <g id="patch_5">
    <path d="M 106.749044 378 
L 110.572752 378 
L 110.572752 378 
L 106.749044 378 
z
" clip-path="url(#p541fc8e26d)" style="fill: #a3e301; fill-opacity: 0.5"/>
   </g>
   <g id="patch_6">
    <path d="M 110.572752 378 
L 114.396461 378 
L 114.396461 378 
L 110.572752 378 
z
" clip-path="url(#p541fc8e26d)" style="fill: #a3e301; fill-opacity: 0.5"/>
   </g>
   <g id="patch_7">
    <path d="M 114.396461 378 
L 118.220169 378 
L 118.220169 378 
L 114.396461 378 
z
" clip-path="url(#p541fc8e26d)" style="fill: #a3e301; fill-opacity: 0.5"/>
   </g>
   <g id="patch_8">
    <path d="M 118.220169 378 
L 122.043877 378 
L 122.043877 378 
L 118.220169 378 
z
" clip-path="url(#p541fc8e26d)" style="fill: #a3e301; fill-opacity: 0.5"/>
   </g>
   <g id="patch_9">
    <path d="M 122.043877 378 
L 125.867586 378 
L 125.867586 378 
L 122.043877 378 
z
" clip-path="url(#p541fc8e26d)" style="fill: #a3e301; fill-opacity: 0.5"/>
   </g>
   <g id="patch_10">
    <path d="M 125.867586 378 
L 129.691294 378 
L 129.691294 378 
L 125.867586 378 
z
" clip-path="url(#p541fc8e26d)" style="fill: #a3e301; fill-opacity: 0.5"/>
   </g>
   <g id="patch_11">
    <path d="M 129.691294 378 
L 133.515003 378 
L 133.515003 378 
L 129.691294 378 
z
" clip-path="url(#p541fc8e26d)" style="fill: #a3e301; fill-opacity: 0.5"/>
   </g>
   <g id="patch_12">
    <path d="M 133.515003 378 
L 137.338711 378 
L 137.338711 378 
L 133.515003 378 
z
" clip-path="url(#p541fc8e26d)" style="fill: #a3e301; fill-opacity: 0.5"/>
   </g>
   <g id="patch_13">
    <path d="M 137.338711 378 
L 141.16242 378 
L 141.16242 363.880519 
L 137.338711 363.880519 
z
" clip-path="url(#p541fc8e26d)" style="fill: #a3e301; fill-opacity: 0.5"/>
   </g>
   <g id="patch_14">
    <path d="M 141.16242 378 
L 144.986128 378 
L 144.986128 378 
L 141.16242 378 
z
" clip-path="url(#p541fc8e26d)" style="fill: #a3e301; fill-opacity: 0.5"/>
   </g>
   <g id="patch_15">
    <path d="M 144.986128 378 
L 148.809837 378 
L 148.809837 378 
L 144.986128 378 
z
" clip-path="url(#p541fc8e26d)" style="fill: #a3e301; fill-opacity: 0.5"/>
   </g>
   <g id="patch_16">
    <path d="M 148.809837 378 
L 152.633545 378 
L 152.633545 378 
L 148.809837 378 
z
" clip-path="url(#p541fc8e26d)" style="fill: #a3e301; fill-opacity: 0.5"/>
   </g>
   <g id="patch_17">
    <path d="M 152.633545 378 
L 156.457254 378 
L 156.457254 378 
L 152.633545 378 
z
" clip-path="url(#p541fc8e26d)" style="fill: #a3e301; fill-opacity: 0.5"/>
   </g>
   <g id="patch_18">
    <path d="M 156.457254 378 
L 160.280962 378 
L 160.280962 378 
L 156.457254 378 
z
" clip-path="url(#p541fc8e26d)" style="fill: #a3e301; fill-opacity: 0.5"/>
   </g>
   <g id="patch_19">
    <path d="M 160.280962 378 
L 164.10467 378 
L 164.10467 378 
L 160.280962 378 
z
" clip-path="url(#p541fc8e26d)" style="fill: #a3e301; fill-opacity: 0.5"/>
   </g>
   <g id="patch_20">
    <path d="M 164.10467 378 
L 167.928379 378 
L 167.928379 363.880519 
L 164.10467 363.880519 
z
" clip-path="url(#p541fc8e26d)" style="fill: #a3e301; fill-opacity: 0.5"/>
   </g>
   <g id="patch_21">
    <path d="M 167.928379 378 
L 171.752087 378 
L 171.752087 349.761039 
L 167.928379 349.761039 
z
" clip-path="url(#p541fc8e26d)" style="fill: #a3e301; fill-opacity: 0.5"/>
   </g>
   <g id="patch_22">
    <path d="M 171.752087 378 
L 175.575796 378 
L 175.575796 378 
L 171.752087 378 
z
" clip-path="url(#p541fc8e26d)" style="fill: #a3e301; fill-opacity: 0.5"/>
   </g>
   <g id="patch_23">
    <path d="M 175.575796 378 
L 179.399504 378 
L 179.399504 349.761039 
L 175.575796 349.761039 
z
" clip-path="url(#p541fc8e26d)" style="fill: #a3e301; fill-opacity: 0.5"/>
   </g>
   <g id="patch_24">
    <path d="M 179.399504 378 
L 183.223213 378 
L 183.223213 363.880519 
L 179.399504 363.880519 
z
" clip-path="url(#p541fc8e26d)" style="fill: #a3e301; fill-opacity: 0.5"/>
   </g>
   <g id="patch_25">
    <path d="M 183.223213 378 
L 187.046921 378 
L 187.046921 349.761039 
L 183.223213 349.761039 
z
" clip-path="url(#p541fc8e26d)" style="fill: #a3e301; fill-opacity: 0.5"/>
   </g>
   <g id="patch_26">
    <path d="M 187.046921 378 
L 190.87063 378 
L 190.87063 349.761039 
L 187.046921 349.761039 
z
" clip-path="url(#p541fc8e26d)" style="fill: #a3e301; fill-opacity: 0.5"/>
   </g>
   <g id="patch_27">
    <path d="M 190.87063 378 
L 194.694338 378 
L 194.694338 363.880519 
L 190.87063 363.880519 
z
" clip-path="url(#p541fc8e26d)" style="fill: #a3e301; fill-opacity: 0.5"/>
   </g>
   <g id="patch_28">
    <path d="M 194.694338 378 
L 198.518046 378 
L 198.518046 335.641558 
L 194.694338 335.641558 
z
" clip-path="url(#p541fc8e26d)" style="fill: #a3e301; fill-opacity: 0.5"/>
   </g>
   <g id="patch_29">
    <path d="M 198.518046 378 
L 202.341755 378 
L 202.341755 363.880519 
L 198.518046 363.880519 
z
" clip-path="url(#p541fc8e26d)" style="fill: #a3e301; fill-opacity: 0.5"/>
   </g>
   <g id="patch_30">
    <path d="M 202.341755 378 
L 206.165463 378 
L 206.165463 349.761039 
L 202.341755 349.761039 
z
" clip-path="url(#p541fc8e26d)" style="fill: #a3e301; fill-opacity: 0.5"/>
   </g>
   <g id="patch_31">
    <path d="M 206.165463 378 
L 209.989172 378 
L 209.989172 335.641558 
L 206.165463 335.641558 
z
" clip-path="url(#p541fc8e26d)" style="fill: #a3e301; fill-opacity: 0.5"/>
   </g>
   <g id="patch_32">
    <path d="M 209.989172 378 
L 213.81288 378 
L 213.81288 349.761039 
L 209.989172 349.761039 
z
" clip-path="url(#p541fc8e26d)" style="fill: #a3e301; fill-opacity: 0.5"/>
   </g>
   <g id="patch_33">
    <path d="M 213.81288 378 
L 217.636589 378 
L 217.636589 335.641558 
L 213.81288 335.641558 
z
" clip-path="url(#p541fc8e26d)" style="fill: #a3e301; fill-opacity: 0.5"/>
   </g>
   <g id="patch_34">
    <path d="M 217.636589 378 
L 221.460297 378 
L 221.460297 307.402597 
L 217.636589 307.402597 
z
" clip-path="url(#p541fc8e26d)" style="fill: #a3e301; fill-opacity: 0.5"/>
   </g>
   <g id="patch_35">
    <path d="M 221.460297 378 
L 225.284006 378 
L 225.284006 335.641558 
L 221.460297 335.641558 
z
" clip-path="url(#p541fc8e26d)" style="fill: #a3e301; fill-opacity: 0.5"/>
   </g>
   <g id="patch_36">
    <path d="M 225.284006 378 
L 229.107714 378 
L 229.107714 222.685714 
L 225.284006 222.685714 
z
" clip-path="url(#p541fc8e26d)" style="fill: #a3e301; fill-opacity: 0.5"/>
   </g>
   <g id="patch_37">
    <path d="M 229.107714 378 
L 232.931423 378 
L 232.931423 208.566234 
L 229.107714 208.566234 
z
" clip-path="url(#p541fc8e26d)" style="fill: #a3e301; fill-opacity: 0.5"/>
   </g>
   <g id="patch_38">
    <path d="M 232.931423 378 
L 236.755131 378 
L 236.755131 307.402597 
L 232.931423 307.402597 
z
" clip-path="url(#p541fc8e26d)" style="fill: #a3e301; fill-opacity: 0.5"/>
   </g>
   <g id="patch_39">
    <path d="M 236.755131 378 
L 240.578839 378 
L 240.578839 293.283117 
L 236.755131 293.283117 
z
" clip-path="url(#p541fc8e26d)" style="fill: #a3e301; fill-opacity: 0.5"/>
   </g>
   <g id="patch_40">
    <path d="M 240.578839 378 
L 244.402548 378 
L 244.402548 250.924675 
L 240.578839 250.924675 
z
" clip-path="url(#p541fc8e26d)" style="fill: #a3e301; fill-opacity: 0.5"/>
   </g>
   <g id="patch_41">
    <path d="M 244.402548 378 
L 248.226256 378 
L 248.226256 307.402597 
L 244.402548 307.402597 
z
" clip-path="url(#p541fc8e26d)" style="fill: #a3e301; fill-opacity: 0.5"/>
   </g>
   <g id="patch_42">
    <path d="M 248.226256 378 
L 252.049965 378 
L 252.049965 321.522078 
L 248.226256 321.522078 
z
" clip-path="url(#p541fc8e26d)" style="fill: #a3e301; fill-opacity: 0.5"/>
   </g>
   <g id="patch_43">
    <path d="M 252.049965 378 
L 255.873673 378 
L 255.873673 363.880519 
L 252.049965 363.880519 
z
" clip-path="url(#p541fc8e26d)" style="fill: #a3e301; fill-opacity: 0.5"/>
   </g>
   <g id="patch_44">
    <path d="M 255.873673 378 
L 259.697382 378 
L 259.697382 335.641558 
L 255.873673 335.641558 
z
" clip-path="url(#p541fc8e26d)" style="fill: #a3e301; fill-opacity: 0.5"/>
   </g>
   <g id="patch_45">
    <path d="M 259.697382 378 
L 263.52109 378 
L 263.52109 363.880519 
L 259.697382 363.880519 
z
" clip-path="url(#p541fc8e26d)" style="fill: #a3e301; fill-opacity: 0.5"/>
   </g>
   <g id="patch_46">
    <path d="M 263.52109 378 
L 267.344799 378 
L 267.344799 335.641558 
L 263.52109 335.641558 
z
" clip-path="url(#p541fc8e26d)" style="fill: #a3e301; fill-opacity: 0.5"/>
   </g>
   <g id="patch_47">
    <path d="M 267.344799 378 
L 271.168507 378 
L 271.168507 279.163636 
L 267.344799 279.163636 
z
" clip-path="url(#p541fc8e26d)" style="fill: #a3e301; fill-opacity: 0.5"/>
   </g>
   <g id="patch_48">
    <path d="M 271.168507 378 
L 274.992216 378 
L 274.992216 250.924675 
L 271.168507 250.924675 
z
" clip-path="url(#p541fc8e26d)" style="fill: #a3e301; fill-opacity: 0.5"/>
   </g>
   <g id="patch_49">
    <path d="M 274.992216 378 
L 278.815924 378 
L 278.815924 166.207792 
L 274.992216 166.207792 
z
" clip-path="url(#p541fc8e26d)" style="fill: #a3e301; fill-opacity: 0.5"/>
   </g>
   <g id="patch_50">
    <path d="M 278.815924 378 
L 282.639632 378 
L 282.639632 109.72987 
L 278.815924 109.72987 
z
" clip-path="url(#p541fc8e26d)" style="fill: #a3e301; fill-opacity: 0.5"/>
   </g>
   <g id="patch_51">
    <path d="M 282.639632 378 
L 286.463341 378 
L 286.463341 222.685714 
L 282.639632 222.685714 
z
" clip-path="url(#p541fc8e26d)" style="fill: #a3e301; fill-opacity: 0.5"/>
   </g>
   <g id="patch_52">
    <path d="M 286.463341 378 
L 290.287049 378 
L 290.287049 208.566234 
L 286.463341 208.566234 
z
" clip-path="url(#p541fc8e26d)" style="fill: #a3e301; fill-opacity: 0.5"/>
   </g>
   <g id="patch_53">
    <path d="M 290.287049 378 
L 294.110758 378 
L 294.110758 279.163636 
L 290.287049 279.163636 
z
" clip-path="url(#p541fc8e26d)" style="fill: #a3e301; fill-opacity: 0.5"/>
   </g>
   <g id="patch_54">
    <path d="M 294.110758 378 
L 297.934466 378 
L 297.934466 67.371429 
L 294.110758 67.371429 
z
" clip-path="url(#p541fc8e26d)" style="fill: #a3e301; fill-opacity: 0.5"/>
   </g>
   <g id="patch_55">
    <path d="M 297.934466 378 
L 301.758175 378 
L 301.758175 208.566234 
L 297.934466 208.566234 
z
" clip-path="url(#p541fc8e26d)" style="fill: #a3e301; fill-opacity: 0.5"/>
   </g>
   <g id="patch_56">
    <path d="M 301.758175 378 
L 305.581883 378 
L 305.581883 293.283117 
L 301.758175 293.283117 
z
" clip-path="url(#p541fc8e26d)" style="fill: #a3e301; fill-opacity: 0.5"/>
   </g>
   <g id="patch_57">
    <path d="M 305.581883 378 
L 309.405592 378 
L 309.405592 265.044156 
L 305.581883 265.044156 
z
" clip-path="url(#p541fc8e26d)" style="fill: #a3e301; fill-opacity: 0.5"/>
   </g>
   <g id="patch_58">
    <path d="M 309.405592 378 
L 313.2293 378 
L 313.2293 293.283117 
L 309.405592 293.283117 
z
" clip-path="url(#p541fc8e26d)" style="fill: #a3e301; fill-opacity: 0.5"/>
   </g>
   <g id="patch_59">
    <path d="M 313.2293 378 
L 317.053008 378 
L 317.053008 293.283117 
L 313.2293 293.283117 
z
" clip-path="url(#p541fc8e26d)" style="fill: #a3e301; fill-opacity: 0.5"/>
   </g>
   <g id="patch_60">
    <path d="M 317.053008 378 
L 320.876717 378 
L 320.876717 321.522078 
L 317.053008 321.522078 
z
" clip-path="url(#p541fc8e26d)" style="fill: #a3e301; fill-opacity: 0.5"/>
   </g>
   <g id="patch_61">
    <path d="M 320.876717 378 
L 324.700425 378 
L 324.700425 349.761039 
L 320.876717 349.761039 
z
" clip-path="url(#p541fc8e26d)" style="fill: #a3e301; fill-opacity: 0.5"/>
   </g>
   <g id="patch_62">
    <path d="M 324.700425 378 
L 328.524134 378 
L 328.524134 378 
L 324.700425 378 
z
" clip-path="url(#p541fc8e26d)" style="fill: #a3e301; fill-opacity: 0.5"/>
   </g>
   <g id="patch_63">
    <path d="M 328.524134 378 
L 332.347842 378 
L 332.347842 321.522078 
L 328.524134 321.522078 
z
" clip-path="url(#p541fc8e26d)" style="fill: #a3e301; fill-opacity: 0.5"/>
   </g>
   <g id="patch_64">
    <path d="M 332.347842 378 
L 336.171551 378 
L 336.171551 349.761039 
L 332.347842 349.761039 
z
" clip-path="url(#p541fc8e26d)" style="fill: #a3e301; fill-opacity: 0.5"/>
   </g>
   <g id="patch_65">
    <path d="M 336.171551 378 
L 339.995259 378 
L 339.995259 378 
L 336.171551 378 
z
" clip-path="url(#p541fc8e26d)" style="fill: #a3e301; fill-opacity: 0.5"/>
   </g>
   <g id="patch_66">
    <path d="M 339.995259 378 
L 343.818968 378 
L 343.818968 378 
L 339.995259 378 
z
" clip-path="url(#p541fc8e26d)" style="fill: #a3e301; fill-opacity: 0.5"/>
   </g>
   <g id="patch_67">
    <path d="M 343.818968 378 
L 347.642676 378 
L 347.642676 363.880519 
L 343.818968 363.880519 
z
" clip-path="url(#p541fc8e26d)" style="fill: #a3e301; fill-opacity: 0.5"/>
   </g>
   <g id="patch_68">
    <path d="M 347.642676 378 
L 351.466385 378 
L 351.466385 378 
L 347.642676 378 
z
" clip-path="url(#p541fc8e26d)" style="fill: #a3e301; fill-opacity: 0.5"/>
   </g>
   <g id="patch_69">
    <path d="M 351.466385 378 
L 355.290093 378 
L 355.290093 378 
L 351.466385 378 
z
" clip-path="url(#p541fc8e26d)" style="fill: #a3e301; fill-opacity: 0.5"/>
   </g>
   <g id="patch_70">
    <path d="M 355.290093 378 
L 359.113801 378 
L 359.113801 378 
L 355.290093 378 
z
" clip-path="url(#p541fc8e26d)" style="fill: #a3e301; fill-opacity: 0.5"/>
   </g>
   <g id="patch_71">
    <path d="M 359.113801 378 
L 362.93751 378 
L 362.93751 378 
L 359.113801 378 
z
" clip-path="url(#p541fc8e26d)" style="fill: #a3e301; fill-opacity: 0.5"/>
   </g>
   <g id="patch_72">
    <path d="M 362.93751 378 
L 366.761218 378 
L 366.761218 378 
L 362.93751 378 
z
" clip-path="url(#p541fc8e26d)" style="fill: #a3e301; fill-opacity: 0.5"/>
   </g>
   <g id="patch_73">
    <path d="M 366.761218 378 
L 370.584927 378 
L 370.584927 378 
L 366.761218 378 
z
" clip-path="url(#p541fc8e26d)" style="fill: #a3e301; fill-opacity: 0.5"/>
   </g>
   <g id="patch_74">
    <path d="M 370.584927 378 
L 374.408635 378 
L 374.408635 363.880519 
L 370.584927 363.880519 
z
" clip-path="url(#p541fc8e26d)" style="fill: #a3e301; fill-opacity: 0.5"/>
   </g>
   <g id="patch_75">
    <path d="M 374.408635 378 
L 378.232344 378 
L 378.232344 363.880519 
L 374.408635 363.880519 
z
" clip-path="url(#p541fc8e26d)" style="fill: #a3e301; fill-opacity: 0.5"/>
   </g>
   <g id="patch_76">
    <path d="M 378.232344 378 
L 382.056052 378 
L 382.056052 250.924675 
L 378.232344 250.924675 
z
" clip-path="url(#p541fc8e26d)" style="fill: #a3e301; fill-opacity: 0.5"/>
   </g>
   <g id="patch_77">
    <path d="M 382.056052 378 
L 385.879761 378 
L 385.879761 321.522078 
L 382.056052 321.522078 
z
" clip-path="url(#p541fc8e26d)" style="fill: #a3e301; fill-opacity: 0.5"/>
   </g>
   <g id="patch_78">
    <path d="M 385.879761 378 
L 389.703469 378 
L 389.703469 222.685714 
L 385.879761 222.685714 
z
" clip-path="url(#p541fc8e26d)" style="fill: #a3e301; fill-opacity: 0.5"/>
   </g>
   <g id="patch_79">
    <path d="M 389.703469 378 
L 393.527178 378 
L 393.527178 236.805195 
L 389.703469 236.805195 
z
" clip-path="url(#p541fc8e26d)" style="fill: #a3e301; fill-opacity: 0.5"/>
   </g>
   <g id="patch_80">
    <path d="M 393.527178 378 
L 397.350886 378 
L 397.350886 293.283117 
L 393.527178 293.283117 
z
" clip-path="url(#p541fc8e26d)" style="fill: #a3e301; fill-opacity: 0.5"/>
   </g>
   <g id="patch_81">
    <path d="M 397.350886 378 
L 401.174594 378 
L 401.174594 321.522078 
L 397.350886 321.522078 
z
" clip-path="url(#p541fc8e26d)" style="fill: #a3e301; fill-opacity: 0.5"/>
   </g>
   <g id="patch_82">
    <path d="M 401.174594 378 
L 404.998303 378 
L 404.998303 321.522078 
L 401.174594 321.522078 
z
" clip-path="url(#p541fc8e26d)" style="fill: #a3e301; fill-opacity: 0.5"/>
   </g>
   <g id="patch_83">
    <path d="M 404.998303 378 
L 408.822011 378 
L 408.822011 378 
L 404.998303 378 
z
" clip-path="url(#p541fc8e26d)" style="fill: #a3e301; fill-opacity: 0.5"/>
   </g>
   <g id="patch_84">
    <path d="M 408.822011 378 
L 412.64572 378 
L 412.64572 378 
L 408.822011 378 
z
" clip-path="url(#p541fc8e26d)" style="fill: #a3e301; fill-opacity: 0.5"/>
   </g>
   <g id="patch_85">
    <path d="M 412.64572 378 
L 416.469428 378 
L 416.469428 363.880519 
L 412.64572 363.880519 
z
" clip-path="url(#p541fc8e26d)" style="fill: #a3e301; fill-opacity: 0.5"/>
   </g>
   <g id="patch_86">
    <path d="M 416.469428 378 
L 420.293137 378 
L 420.293137 378 
L 416.469428 378 
z
" clip-path="url(#p541fc8e26d)" style="fill: #a3e301; fill-opacity: 0.5"/>
   </g>
   <g id="patch_87">
    <path d="M 420.293137 378 
L 424.116845 378 
L 424.116845 378 
L 420.293137 378 
z
" clip-path="url(#p541fc8e26d)" style="fill: #a3e301; fill-opacity: 0.5"/>
   </g>
   <g id="patch_88">
    <path d="M 424.116845 378 
L 427.940554 378 
L 427.940554 378 
L 424.116845 378 
z
" clip-path="url(#p541fc8e26d)" style="fill: #a3e301; fill-opacity: 0.5"/>
   </g>
   <g id="patch_89">
    <path d="M 427.940554 378 
L 431.764262 378 
L 431.764262 378 
L 427.940554 378 
z
" clip-path="url(#p541fc8e26d)" style="fill: #a3e301; fill-opacity: 0.5"/>
   </g>
   <g id="patch_90">
    <path d="M 431.764262 378 
L 435.58797 378 
L 435.58797 378 
L 431.764262 378 
z
" clip-path="url(#p541fc8e26d)" style="fill: #a3e301; fill-opacity: 0.5"/>
   </g>
   <g id="patch_91">
    <path d="M 435.58797 378 
L 439.411679 378 
L 439.411679 378 
L 435.58797 378 
z
" clip-path="url(#p541fc8e26d)" style="fill: #a3e301; fill-opacity: 0.5"/>
   </g>
   <g id="patch_92">
    <path d="M 439.411679 378 
L 443.235387 378 
L 443.235387 378 
L 439.411679 378 
z
" clip-path="url(#p541fc8e26d)" style="fill: #a3e301; fill-opacity: 0.5"/>
   </g>
   <g id="patch_93">
    <path d="M 443.235387 378 
L 447.059096 378 
L 447.059096 378 
L 443.235387 378 
z
" clip-path="url(#p541fc8e26d)" style="fill: #a3e301; fill-opacity: 0.5"/>
   </g>
   <g id="patch_94">
    <path d="M 447.059096 378 
L 450.882804 378 
L 450.882804 378 
L 447.059096 378 
z
" clip-path="url(#p541fc8e26d)" style="fill: #a3e301; fill-opacity: 0.5"/>
   </g>
   <g id="patch_95">
    <path d="M 450.882804 378 
L 454.706513 378 
L 454.706513 378 
L 450.882804 378 
z
" clip-path="url(#p541fc8e26d)" style="fill: #a3e301; fill-opacity: 0.5"/>
   </g>
   <g id="patch_96">
    <path d="M 454.706513 378 
L 458.530221 378 
L 458.530221 378 
L 454.706513 378 
z
" clip-path="url(#p541fc8e26d)" style="fill: #a3e301; fill-opacity: 0.5"/>
   </g>
   <g id="patch_97">
    <path d="M 458.530221 378 
L 462.35393 378 
L 462.35393 378 
L 458.530221 378 
z
" clip-path="url(#p541fc8e26d)" style="fill: #a3e301; fill-opacity: 0.5"/>
   </g>
   <g id="patch_98">
    <path d="M 462.35393 378 
L 466.177638 378 
L 466.177638 378 
L 462.35393 378 
z
" clip-path="url(#p541fc8e26d)" style="fill: #a3e301; fill-opacity: 0.5"/>
   </g>
   <g id="patch_99">
    <path d="M 466.177638 378 
L 470.001347 378 
L 470.001347 378 
L 466.177638 378 
z
" clip-path="url(#p541fc8e26d)" style="fill: #a3e301; fill-opacity: 0.5"/>
   </g>
   <g id="patch_100">
    <path d="M 470.001347 378 
L 473.825055 378 
L 473.825055 378 
L 470.001347 378 
z
" clip-path="url(#p541fc8e26d)" style="fill: #a3e301; fill-opacity: 0.5"/>
   </g>
   <g id="patch_101">
    <path d="M 473.825055 378 
L 477.648763 378 
L 477.648763 378 
L 473.825055 378 
z
" clip-path="url(#p541fc8e26d)" style="fill: #a3e301; fill-opacity: 0.5"/>
   </g>
   <g id="patch_102">
    <path d="M 477.648763 378 
L 481.472472 378 
L 481.472472 363.880519 
L 477.648763 363.880519 
z
" clip-path="url(#p541fc8e26d)" style="fill: #a3e301; fill-opacity: 0.5"/>
   </g>
   <g id="matplotlib.axis_1">
    <g id="xtick_1">
     <g id="line2d_1">
      <defs>
       <path id="m656f78bb46" d="M 0 0 
L 0 3.5 
" style="stroke: #000000; stroke-width: 0.8"/>
      </defs>
      <g>
       <use xlink:href="#m656f78bb46" x="72" y="378" style="stroke: #000000; stroke-width: 0.8"/>
      </g>
     </g>
     <g id="text_1">
      <!-- 0.00 -->
      <g transform="translate(60.867188 392.598437)scale(0.1 -0.1)">
       <defs>
        <path id="DejaVuSans-30" d="M 2034 4250 
Q 1547 4250 1301 3770 
Q 1056 3291 1056 2328 
Q 1056 1369 1301 889 
Q 1547 409 2034 409 
Q 2525 409 2770 889 
Q 3016 1369 3016 2328 
Q 3016 3291 2770 3770 
Q 2525 4250 2034 4250 
z
M 2034 4750 
Q 2819 4750 3233 4129 
Q 3647 3509 3647 2328 
Q 3647 1150 3233 529 
Q 2819 -91 2034 -91 
Q 1250 -91 836 529 
Q 422 1150 422 2328 
Q 422 3509 836 4129 
Q 1250 4750 2034 4750 
z
" transform="scale(0.015625)"/>
        <path id="DejaVuSans-2e" d="M 684 794 
L 1344 794 
L 1344 0 
L 684 0 
L 684 794 
z
" transform="scale(0.015625)"/>
       </defs>
       <use xlink:href="#DejaVuSans-30"/>
       <use xlink:href="#DejaVuSans-2e" x="63.623047"/>
       <use xlink:href="#DejaVuSans-30" x="95.410156"/>
       <use xlink:href="#DejaVuSans-30" x="159.033203"/>
      </g>
     </g>
    </g>
    <g id="xtick_2">
     <g id="line2d_2">
      <g>
       <use xlink:href="#m656f78bb46" x="183.6" y="378" style="stroke: #000000; stroke-width: 0.8"/>
      </g>
     </g>
     <g id="text_2">
      <!-- 0.25 -->
      <g transform="translate(172.467187 392.598437)scale(0.1 -0.1)">
       <defs>
        <path id="DejaVuSans-32" d="M 1228 531 
L 3431 531 
L 3431 0 
L 469 0 
L 469 531 
Q 828 903 1448 1529 
Q 2069 2156 2228 2338 
Q 2531 2678 2651 2914 
Q 2772 3150 2772 3378 
Q 2772 3750 2511 3984 
Q 2250 4219 1831 4219 
Q 1534 4219 1204 4116 
Q 875 4013 500 3803 
L 500 4441 
Q 881 4594 1212 4672 
Q 1544 4750 1819 4750 
Q 2544 4750 2975 4387 
Q 3406 4025 3406 3419 
Q 3406 3131 3298 2873 
Q 3191 2616 2906 2266 
Q 2828 2175 2409 1742 
Q 1991 1309 1228 531 
z
" transform="scale(0.015625)"/>
        <path id="DejaVuSans-35" d="M 691 4666 
L 3169 4666 
L 3169 4134 
L 1269 4134 
L 1269 2991 
Q 1406 3038 1543 3061 
Q 1681 3084 1819 3084 
Q 2600 3084 3056 2656 
Q 3513 2228 3513 1497 
Q 3513 744 3044 326 
Q 2575 -91 1722 -91 
Q 1428 -91 1123 -41 
Q 819 9 494 109 
L 494 744 
Q 775 591 1075 516 
Q 1375 441 1709 441 
Q 2250 441 2565 725 
Q 2881 1009 2881 1497 
Q 2881 1984 2565 2268 
Q 2250 2553 1709 2553 
Q 1456 2553 1204 2497 
Q 953 2441 691 2322 
L 691 4666 
z
" transform="scale(0.015625)"/>
       </defs>
       <use xlink:href="#DejaVuSans-30"/>
       <use xlink:href="#DejaVuSans-2e" x="63.623047"/>
       <use xlink:href="#DejaVuSans-32" x="95.410156"/>
       <use xlink:href="#DejaVuSans-35" x="159.033203"/>
      </g>
     </g>
    </g>
    <g id="xtick_3">
     <g id="line2d_3">
      <g>
       <use xlink:href="#m656f78bb46" x="295.2" y="378" style="stroke: #000000; stroke-width: 0.8"/>
      </g>
     </g>
     <g id="text_3">
      <!-- 0.50 -->
      <g transform="translate(284.067187 392.598437)scale(0.1 -0.1)">
       <use xlink:href="#DejaVuSans-30"/>
       <use xlink:href="#DejaVuSans-2e" x="63.623047"/>
       <use xlink:href="#DejaVuSans-35" x="95.410156"/>
       <use xlink:href="#DejaVuSans-30" x="159.033203"/>
      </g>
     </g>
    </g>
    <g id="xtick_4">
     <g id="line2d_4">
      <g>
       <use xlink:href="#m656f78bb46" x="406.8" y="378" style="stroke: #000000; stroke-width: 0.8"/>
      </g>
     </g>
     <g id="text_4">
      <!-- 0.75 -->
      <g transform="translate(395.667187 392.598437)scale(0.1 -0.1)">
       <defs>
        <path id="DejaVuSans-37" d="M 525 4666 
L 3525 4666 
L 3525 4397 
L 1831 0 
L 1172 0 
L 2766 4134 
L 525 4134 
L 525 4666 
z
" transform="scale(0.015625)"/>
       </defs>
       <use xlink:href="#DejaVuSans-30"/>
       <use xlink:href="#DejaVuSans-2e" x="63.623047"/>
       <use xlink:href="#DejaVuSans-37" x="95.410156"/>
       <use xlink:href="#DejaVuSans-35" x="159.033203"/>
      </g>
     </g>
    </g>
    <g id="xtick_5">
     <g id="line2d_5">
      <g>
       <use xlink:href="#m656f78bb46" x="518.4" y="378" style="stroke: #000000; stroke-width: 0.8"/>
      </g>
     </g>
     <g id="text_5">
      <!-- 1.00 -->
      <g transform="translate(507.267187 392.598437)scale(0.1 -0.1)">
       <defs>
        <path id="DejaVuSans-31" d="M 794 531 
L 1825 531 
L 1825 4091 
L 703 3866 
L 703 4441 
L 1819 4666 
L 2450 4666 
L 2450 531 
L 3481 531 
L 3481 0 
L 794 0 
L 794 531 
z
" transform="scale(0.015625)"/>
       </defs>
       <use xlink:href="#DejaVuSans-31"/>
       <use xlink:href="#DejaVuSans-2e" x="63.623047"/>
       <use xlink:href="#DejaVuSans-30" x="95.410156"/>
       <use xlink:href="#DejaVuSans-30" x="159.033203"/>
      </g>
     </g>
    </g>
    <g id="text_6">
     <!-- ratio_roeske -->
     <g transform="translate(264.697656 406.276563)scale(0.1 -0.1)">
      <defs>
       <path id="DejaVuSans-72" d="M 2631 2963 
Q 2534 3019 2420 3045 
Q 2306 3072 2169 3072 
Q 1681 3072 1420 2755 
Q 1159 2438 1159 1844 
L 1159 0 
L 581 0 
L 581 3500 
L 1159 3500 
L 1159 2956 
Q 1341 3275 1631 3429 
Q 1922 3584 2338 3584 
Q 2397 3584 2469 3576 
Q 2541 3569 2628 3553 
L 2631 2963 
z
" transform="scale(0.015625)"/>
       <path id="DejaVuSans-61" d="M 2194 1759 
Q 1497 1759 1228 1600 
Q 959 1441 959 1056 
Q 959 750 1161 570 
Q 1363 391 1709 391 
Q 2188 391 2477 730 
Q 2766 1069 2766 1631 
L 2766 1759 
L 2194 1759 
z
M 3341 1997 
L 3341 0 
L 2766 0 
L 2766 531 
Q 2569 213 2275 61 
Q 1981 -91 1556 -91 
Q 1019 -91 701 211 
Q 384 513 384 1019 
Q 384 1609 779 1909 
Q 1175 2209 1959 2209 
L 2766 2209 
L 2766 2266 
Q 2766 2663 2505 2880 
Q 2244 3097 1772 3097 
Q 1472 3097 1187 3025 
Q 903 2953 641 2809 
L 641 3341 
Q 956 3463 1253 3523 
Q 1550 3584 1831 3584 
Q 2591 3584 2966 3190 
Q 3341 2797 3341 1997 
z
" transform="scale(0.015625)"/>
       <path id="DejaVuSans-74" d="M 1172 4494 
L 1172 3500 
L 2356 3500 
L 2356 3053 
L 1172 3053 
L 1172 1153 
Q 1172 725 1289 603 
Q 1406 481 1766 481 
L 2356 481 
L 2356 0 
L 1766 0 
Q 1100 0 847 248 
Q 594 497 594 1153 
L 594 3053 
L 172 3053 
L 172 3500 
L 594 3500 
L 594 4494 
L 1172 4494 
z
" transform="scale(0.015625)"/>
       <path id="DejaVuSans-69" d="M 603 3500 
L 1178 3500 
L 1178 0 
L 603 0 
L 603 3500 
z
M 603 4863 
L 1178 4863 
L 1178 4134 
L 603 4134 
L 603 4863 
z
" transform="scale(0.015625)"/>
       <path id="DejaVuSans-6f" d="M 1959 3097 
Q 1497 3097 1228 2736 
Q 959 2375 959 1747 
Q 959 1119 1226 758 
Q 1494 397 1959 397 
Q 2419 397 2687 759 
Q 2956 1122 2956 1747 
Q 2956 2369 2687 2733 
Q 2419 3097 1959 3097 
z
M 1959 3584 
Q 2709 3584 3137 3096 
Q 3566 2609 3566 1747 
Q 3566 888 3137 398 
Q 2709 -91 1959 -91 
Q 1206 -91 779 398 
Q 353 888 353 1747 
Q 353 2609 779 3096 
Q 1206 3584 1959 3584 
z
" transform="scale(0.015625)"/>
       <path id="DejaVuSans-5f" d="M 3263 -1063 
L 3263 -1509 
L -63 -1509 
L -63 -1063 
L 3263 -1063 
z
" transform="scale(0.015625)"/>
       <path id="DejaVuSans-65" d="M 3597 1894 
L 3597 1613 
L 953 1613 
Q 991 1019 1311 708 
Q 1631 397 2203 397 
Q 2534 397 2845 478 
Q 3156 559 3463 722 
L 3463 178 
Q 3153 47 2828 -22 
Q 2503 -91 2169 -91 
Q 1331 -91 842 396 
Q 353 884 353 1716 
Q 353 2575 817 3079 
Q 1281 3584 2069 3584 
Q 2775 3584 3186 3129 
Q 3597 2675 3597 1894 
z
M 3022 2063 
Q 3016 2534 2758 2815 
Q 2500 3097 2075 3097 
Q 1594 3097 1305 2825 
Q 1016 2553 972 2059 
L 3022 2063 
z
" transform="scale(0.015625)"/>
       <path id="DejaVuSans-73" d="M 2834 3397 
L 2834 2853 
Q 2591 2978 2328 3040 
Q 2066 3103 1784 3103 
Q 1356 3103 1142 2972 
Q 928 2841 928 2578 
Q 928 2378 1081 2264 
Q 1234 2150 1697 2047 
L 1894 2003 
Q 2506 1872 2764 1633 
Q 3022 1394 3022 966 
Q 3022 478 2636 193 
Q 2250 -91 1575 -91 
Q 1294 -91 989 -36 
Q 684 19 347 128 
L 347 722 
Q 666 556 975 473 
Q 1284 391 1588 391 
Q 1994 391 2212 530 
Q 2431 669 2431 922 
Q 2431 1156 2273 1281 
Q 2116 1406 1581 1522 
L 1381 1569 
Q 847 1681 609 1914 
Q 372 2147 372 2553 
Q 372 3047 722 3315 
Q 1072 3584 1716 3584 
Q 2034 3584 2315 3537 
Q 2597 3491 2834 3397 
z
" transform="scale(0.015625)"/>
       <path id="DejaVuSans-6b" d="M 581 4863 
L 1159 4863 
L 1159 1991 
L 2875 3500 
L 3609 3500 
L 1753 1863 
L 3688 0 
L 2938 0 
L 1159 1709 
L 1159 0 
L 581 0 
L 581 4863 
z
" transform="scale(0.015625)"/>
      </defs>
      <use xlink:href="#DejaVuSans-72"/>
      <use xlink:href="#DejaVuSans-61" x="41.113281"/>
      <use xlink:href="#DejaVuSans-74" x="102.392578"/>
      <use xlink:href="#DejaVuSans-69" x="141.601562"/>
      <use xlink:href="#DejaVuSans-6f" x="169.384766"/>
      <use xlink:href="#DejaVuSans-5f" x="230.566406"/>
      <use xlink:href="#DejaVuSans-72" x="280.566406"/>
      <use xlink:href="#DejaVuSans-6f" x="319.429688"/>
      <use xlink:href="#DejaVuSans-65" x="380.611328"/>
      <use xlink:href="#DejaVuSans-73" x="442.134766"/>
      <use xlink:href="#DejaVuSans-6b" x="494.234375"/>
      <use xlink:href="#DejaVuSans-65" x="548.519531"/>
     </g>
    </g>
   </g>
   <g id="matplotlib.axis_2">
    <g id="ytick_1">
     <g id="line2d_6">
      <defs>
       <path id="m86526f970f" d="M 0 0 
L -3.5 0 
" style="stroke: #000000; stroke-width: 0.8"/>
      </defs>
      <g>
       <use xlink:href="#m86526f970f" x="72" y="378" style="stroke: #000000; stroke-width: 0.8"/>
      </g>
     </g>
     <g id="text_7">
      <!-- 0 -->
      <g transform="translate(58.6375 381.799219)scale(0.1 -0.1)">
       <use xlink:href="#DejaVuSans-30"/>
      </g>
     </g>
    </g>
    <g id="ytick_2">
     <g id="line2d_7">
      <g>
       <use xlink:href="#m86526f970f" x="72" y="341.71722" style="stroke: #000000; stroke-width: 0.8"/>
      </g>
     </g>
     <g id="text_8">
      <!-- 1 -->
      <g transform="translate(58.6375 345.516439)scale(0.1 -0.1)">
       <use xlink:href="#DejaVuSans-31"/>
      </g>
     </g>
    </g>
    <g id="ytick_3">
     <g id="line2d_8">
      <g>
       <use xlink:href="#m86526f970f" x="72" y="305.43444" style="stroke: #000000; stroke-width: 0.8"/>
      </g>
     </g>
     <g id="text_9">
      <!-- 2 -->
      <g transform="translate(58.6375 309.233658)scale(0.1 -0.1)">
       <use xlink:href="#DejaVuSans-32"/>
      </g>
     </g>
    </g>
    <g id="ytick_4">
     <g id="line2d_9">
      <g>
       <use xlink:href="#m86526f970f" x="72" y="269.151659" style="stroke: #000000; stroke-width: 0.8"/>
      </g>
     </g>
     <g id="text_10">
      <!-- 3 -->
      <g transform="translate(58.6375 272.950878)scale(0.1 -0.1)">
       <defs>
        <path id="DejaVuSans-33" d="M 2597 2516 
Q 3050 2419 3304 2112 
Q 3559 1806 3559 1356 
Q 3559 666 3084 287 
Q 2609 -91 1734 -91 
Q 1441 -91 1130 -33 
Q 819 25 488 141 
L 488 750 
Q 750 597 1062 519 
Q 1375 441 1716 441 
Q 2309 441 2620 675 
Q 2931 909 2931 1356 
Q 2931 1769 2642 2001 
Q 2353 2234 1838 2234 
L 1294 2234 
L 1294 2753 
L 1863 2753 
Q 2328 2753 2575 2939 
Q 2822 3125 2822 3475 
Q 2822 3834 2567 4026 
Q 2313 4219 1838 4219 
Q 1578 4219 1281 4162 
Q 984 4106 628 3988 
L 628 4550 
Q 988 4650 1302 4700 
Q 1616 4750 1894 4750 
Q 2613 4750 3031 4423 
Q 3450 4097 3450 3541 
Q 3450 3153 3228 2886 
Q 3006 2619 2597 2516 
z
" transform="scale(0.015625)"/>
       </defs>
       <use xlink:href="#DejaVuSans-33"/>
      </g>
     </g>
    </g>
    <g id="ytick_5">
     <g id="line2d_10">
      <g>
       <use xlink:href="#m86526f970f" x="72" y="232.868879" style="stroke: #000000; stroke-width: 0.8"/>
      </g>
     </g>
     <g id="text_11">
      <!-- 4 -->
      <g transform="translate(58.6375 236.668098)scale(0.1 -0.1)">
       <defs>
        <path id="DejaVuSans-34" d="M 2419 4116 
L 825 1625 
L 2419 1625 
L 2419 4116 
z
M 2253 4666 
L 3047 4666 
L 3047 1625 
L 3713 1625 
L 3713 1100 
L 3047 1100 
L 3047 0 
L 2419 0 
L 2419 1100 
L 313 1100 
L 313 1709 
L 2253 4666 
z
" transform="scale(0.015625)"/>
       </defs>
       <use xlink:href="#DejaVuSans-34"/>
      </g>
     </g>
    </g>
    <g id="ytick_6">
     <g id="line2d_11">
      <g>
       <use xlink:href="#m86526f970f" x="72" y="196.586099" style="stroke: #000000; stroke-width: 0.8"/>
      </g>
     </g>
     <g id="text_12">
      <!-- 5 -->
      <g transform="translate(58.6375 200.385318)scale(0.1 -0.1)">
       <use xlink:href="#DejaVuSans-35"/>
      </g>
     </g>
    </g>
    <g id="ytick_7">
     <g id="line2d_12">
      <g>
       <use xlink:href="#m86526f970f" x="72" y="160.303319" style="stroke: #000000; stroke-width: 0.8"/>
      </g>
     </g>
     <g id="text_13">
      <!-- 6 -->
      <g transform="translate(58.6375 164.102537)scale(0.1 -0.1)">
       <defs>
        <path id="DejaVuSans-36" d="M 2113 2584 
Q 1688 2584 1439 2293 
Q 1191 2003 1191 1497 
Q 1191 994 1439 701 
Q 1688 409 2113 409 
Q 2538 409 2786 701 
Q 3034 994 3034 1497 
Q 3034 2003 2786 2293 
Q 2538 2584 2113 2584 
z
M 3366 4563 
L 3366 3988 
Q 3128 4100 2886 4159 
Q 2644 4219 2406 4219 
Q 1781 4219 1451 3797 
Q 1122 3375 1075 2522 
Q 1259 2794 1537 2939 
Q 1816 3084 2150 3084 
Q 2853 3084 3261 2657 
Q 3669 2231 3669 1497 
Q 3669 778 3244 343 
Q 2819 -91 2113 -91 
Q 1303 -91 875 529 
Q 447 1150 447 2328 
Q 447 3434 972 4092 
Q 1497 4750 2381 4750 
Q 2619 4750 2861 4703 
Q 3103 4656 3366 4563 
z
" transform="scale(0.015625)"/>
       </defs>
       <use xlink:href="#DejaVuSans-36"/>
      </g>
     </g>
    </g>
    <g id="ytick_8">
     <g id="line2d_13">
      <g>
       <use xlink:href="#m86526f970f" x="72" y="124.020538" style="stroke: #000000; stroke-width: 0.8"/>
      </g>
     </g>
     <g id="text_14">
      <!-- 7 -->
      <g transform="translate(58.6375 127.819757)scale(0.1 -0.1)">
       <use xlink:href="#DejaVuSans-37"/>
      </g>
     </g>
    </g>
    <g id="ytick_9">
     <g id="line2d_14">
      <g>
       <use xlink:href="#m86526f970f" x="72" y="87.737758" style="stroke: #000000; stroke-width: 0.8"/>
      </g>
     </g>
     <g id="text_15">
      <!-- 8 -->
      <g transform="translate(58.6375 91.536977)scale(0.1 -0.1)">
       <defs>
        <path id="DejaVuSans-38" d="M 2034 2216 
Q 1584 2216 1326 1975 
Q 1069 1734 1069 1313 
Q 1069 891 1326 650 
Q 1584 409 2034 409 
Q 2484 409 2743 651 
Q 3003 894 3003 1313 
Q 3003 1734 2745 1975 
Q 2488 2216 2034 2216 
z
M 1403 2484 
Q 997 2584 770 2862 
Q 544 3141 544 3541 
Q 544 4100 942 4425 
Q 1341 4750 2034 4750 
Q 2731 4750 3128 4425 
Q 3525 4100 3525 3541 
Q 3525 3141 3298 2862 
Q 3072 2584 2669 2484 
Q 3125 2378 3379 2068 
Q 3634 1759 3634 1313 
Q 3634 634 3220 271 
Q 2806 -91 2034 -91 
Q 1263 -91 848 271 
Q 434 634 434 1313 
Q 434 1759 690 2068 
Q 947 2378 1403 2484 
z
M 1172 3481 
Q 1172 3119 1398 2916 
Q 1625 2713 2034 2713 
Q 2441 2713 2670 2916 
Q 2900 3119 2900 3481 
Q 2900 3844 2670 4047 
Q 2441 4250 2034 4250 
Q 1625 4250 1398 4047 
Q 1172 3844 1172 3481 
z
" transform="scale(0.015625)"/>
       </defs>
       <use xlink:href="#DejaVuSans-38"/>
      </g>
     </g>
    </g>
    <g id="text_16">
     <!-- Density -->
     <g transform="translate(52.557812 233.928594)rotate(-90)scale(0.1 -0.1)">
      <defs>
       <path id="DejaVuSans-44" d="M 1259 4147 
L 1259 519 
L 2022 519 
Q 2988 519 3436 956 
Q 3884 1394 3884 2338 
Q 3884 3275 3436 3711 
Q 2988 4147 2022 4147 
L 1259 4147 
z
M 628 4666 
L 1925 4666 
Q 3281 4666 3915 4102 
Q 4550 3538 4550 2338 
Q 4550 1131 3912 565 
Q 3275 0 1925 0 
L 628 0 
L 628 4666 
z
" transform="scale(0.015625)"/>
       <path id="DejaVuSans-6e" d="M 3513 2113 
L 3513 0 
L 2938 0 
L 2938 2094 
Q 2938 2591 2744 2837 
Q 2550 3084 2163 3084 
Q 1697 3084 1428 2787 
Q 1159 2491 1159 1978 
L 1159 0 
L 581 0 
L 581 3500 
L 1159 3500 
L 1159 2956 
Q 1366 3272 1645 3428 
Q 1925 3584 2291 3584 
Q 2894 3584 3203 3211 
Q 3513 2838 3513 2113 
z
" transform="scale(0.015625)"/>
       <path id="DejaVuSans-79" d="M 2059 -325 
Q 1816 -950 1584 -1140 
Q 1353 -1331 966 -1331 
L 506 -1331 
L 506 -850 
L 844 -850 
Q 1081 -850 1212 -737 
Q 1344 -625 1503 -206 
L 1606 56 
L 191 3500 
L 800 3500 
L 1894 763 
L 2988 3500 
L 3597 3500 
L 2059 -325 
z
" transform="scale(0.015625)"/>
      </defs>
      <use xlink:href="#DejaVuSans-44"/>
      <use xlink:href="#DejaVuSans-65" x="77.001953"/>
      <use xlink:href="#DejaVuSans-6e" x="138.525391"/>
      <use xlink:href="#DejaVuSans-73" x="201.904297"/>
      <use xlink:href="#DejaVuSans-69" x="254.003906"/>
      <use xlink:href="#DejaVuSans-74" x="281.787109"/>
      <use xlink:href="#DejaVuSans-79" x="320.996094"/>
     </g>
    </g>
   </g>
   <g id="line2d_15">
    <path d="M 99.101627 376.743136 
L 126.002088 376.314318 
L 131.766473 375.937125 
L 137.530857 375.323137 
L 141.37378 374.742641 
L 145.216704 373.995274 
L 149.059627 373.057475 
L 152.90255 371.91179 
L 156.745473 370.550289 
L 160.588396 368.976106 
L 164.431319 367.20207 
L 168.274242 365.246038 
L 174.038627 362.001915 
L 177.88155 359.632619 
L 181.724473 357.07166 
L 185.567396 354.270283 
L 189.410319 351.160768 
L 193.253242 347.667977 
L 197.096165 343.727398 
L 200.939088 339.307236 
L 204.782011 334.430283 
L 208.624934 329.190001 
L 218.232242 315.755722 
L 222.075165 310.912137 
L 223.996626 308.728781 
L 225.918088 306.735043 
L 227.839549 304.945272 
L 229.761011 303.365277 
L 231.682473 301.991351 
L 233.603934 300.809706 
L 235.525396 299.796399 
L 239.368319 298.131495 
L 245.132703 295.807266 
L 247.054165 294.854673 
L 248.975626 293.719521 
L 250.897088 292.352171 
L 252.818549 290.711186 
L 254.740011 288.76577 
L 256.661472 286.497788 
L 258.582934 283.903267 
L 260.504396 280.993289 
L 262.425857 277.794222 
L 266.26878 270.707423 
L 273.954626 255.690679 
L 275.876088 252.247479 
L 277.797549 249.105467 
L 279.719011 246.348064 
L 281.640472 244.051439 
L 283.561934 242.282208 
L 285.483395 241.095541 
L 287.404857 240.53374 
L 289.326319 240.625313 
L 291.24778 241.384539 
L 293.169242 242.811506 
L 295.090703 244.892604 
L 297.012165 247.601398 
L 298.933626 250.899851 
L 300.855088 254.739802 
L 302.776549 259.06466 
L 304.698011 263.811218 
L 308.540934 274.294786 
L 312.383857 285.623206 
L 320.069703 308.630911 
L 323.912626 319.377826 
L 327.755549 329.145854 
L 329.677011 333.583943 
L 331.598472 337.69293 
L 333.519934 341.454368 
L 335.441395 344.853397 
L 337.362857 347.878138 
L 339.284318 350.519177 
L 341.20578 352.769156 
L 343.127241 354.622532 
L 345.048703 356.075499 
L 346.970165 357.12611 
L 348.891626 357.774579 
L 350.813088 358.023746 
L 352.734549 357.879687 
L 354.656011 357.352401 
L 356.577472 356.456546 
L 358.498934 355.212143 
L 360.420395 353.645178 
L 362.341857 351.78805 
L 364.263318 349.679791 
L 368.106241 344.898449 
L 375.792088 334.692219 
L 377.713549 332.37918 
L 379.635011 330.289549 
L 381.556472 328.481269 
L 383.477934 327.005616 
L 385.399395 325.905411 
L 387.320857 325.213511 
L 389.242318 324.951674 
L 391.16378 325.129859 
L 393.085241 325.746014 
L 395.006703 326.786342 
L 396.928164 328.226057 
L 398.849626 330.030565 
L 400.771088 332.157001 
L 402.692549 334.55606 
L 406.535472 339.954615 
L 418.064241 357.084366 
L 421.907164 361.959761 
L 423.828626 364.122781 
L 425.750087 366.089636 
L 427.671549 367.857754 
L 429.593011 369.429449 
L 431.514472 370.81108 
L 433.435934 372.012196 
L 435.357395 373.044698 
L 437.278857 373.922059 
L 439.200318 374.658628 
L 443.043241 375.76772 
L 446.886164 376.48452 
L 450.729087 376.908992 
L 454.57201 377.124266 
L 460.336395 377.19606 
L 471.865164 376.980975 
L 481.472472 376.871358 
L 481.472472 376.871358 
" clip-path="url(#p541fc8e26d)" style="fill: none; stroke: #a3e301; stroke-width: 1.5; stroke-linecap: square"/>
   </g>
   <g id="patch_103">
    <path d="M 72 378 
L 72 51.84 
" style="fill: none; stroke: #000000; stroke-width: 0.8; stroke-linejoin: miter; stroke-linecap: square"/>
   </g>
   <g id="patch_104">
    <path d="M 518.4 378 
L 518.4 51.84 
" style="fill: none; stroke: #000000; stroke-width: 0.8; stroke-linejoin: miter; stroke-linecap: square"/>
   </g>
   <g id="patch_105">
    <path d="M 72 378 
L 518.4 378 
" style="fill: none; stroke: #000000; stroke-width: 0.8; stroke-linejoin: miter; stroke-linecap: square"/>
   </g>
   <g id="patch_106">
    <path d="M 72 51.84 
L 518.4 51.84 
" style="fill: none; stroke: #000000; stroke-width: 0.8; stroke-linejoin: miter; stroke-linecap: square"/>
   </g>
   <g id="text_17">
    <!-- rhythms containing lengths &gt;0.48847576055866226 -->
    <g transform="translate(135.189375 45.84)scale(0.12 -0.12)">
     <defs>
      <path id="DejaVuSans-68" d="M 3513 2113 
L 3513 0 
L 2938 0 
L 2938 2094 
Q 2938 2591 2744 2837 
Q 2550 3084 2163 3084 
Q 1697 3084 1428 2787 
Q 1159 2491 1159 1978 
L 1159 0 
L 581 0 
L 581 4863 
L 1159 4863 
L 1159 2956 
Q 1366 3272 1645 3428 
Q 1925 3584 2291 3584 
Q 2894 3584 3203 3211 
Q 3513 2838 3513 2113 
z
" transform="scale(0.015625)"/>
      <path id="DejaVuSans-6d" d="M 3328 2828 
Q 3544 3216 3844 3400 
Q 4144 3584 4550 3584 
Q 5097 3584 5394 3201 
Q 5691 2819 5691 2113 
L 5691 0 
L 5113 0 
L 5113 2094 
Q 5113 2597 4934 2840 
Q 4756 3084 4391 3084 
Q 3944 3084 3684 2787 
Q 3425 2491 3425 1978 
L 3425 0 
L 2847 0 
L 2847 2094 
Q 2847 2600 2669 2842 
Q 2491 3084 2119 3084 
Q 1678 3084 1418 2786 
Q 1159 2488 1159 1978 
L 1159 0 
L 581 0 
L 581 3500 
L 1159 3500 
L 1159 2956 
Q 1356 3278 1631 3431 
Q 1906 3584 2284 3584 
Q 2666 3584 2933 3390 
Q 3200 3197 3328 2828 
z
" transform="scale(0.015625)"/>
      <path id="DejaVuSans-20" transform="scale(0.015625)"/>
      <path id="DejaVuSans-63" d="M 3122 3366 
L 3122 2828 
Q 2878 2963 2633 3030 
Q 2388 3097 2138 3097 
Q 1578 3097 1268 2742 
Q 959 2388 959 1747 
Q 959 1106 1268 751 
Q 1578 397 2138 397 
Q 2388 397 2633 464 
Q 2878 531 3122 666 
L 3122 134 
Q 2881 22 2623 -34 
Q 2366 -91 2075 -91 
Q 1284 -91 818 406 
Q 353 903 353 1747 
Q 353 2603 823 3093 
Q 1294 3584 2113 3584 
Q 2378 3584 2631 3529 
Q 2884 3475 3122 3366 
z
" transform="scale(0.015625)"/>
      <path id="DejaVuSans-67" d="M 2906 1791 
Q 2906 2416 2648 2759 
Q 2391 3103 1925 3103 
Q 1463 3103 1205 2759 
Q 947 2416 947 1791 
Q 947 1169 1205 825 
Q 1463 481 1925 481 
Q 2391 481 2648 825 
Q 2906 1169 2906 1791 
z
M 3481 434 
Q 3481 -459 3084 -895 
Q 2688 -1331 1869 -1331 
Q 1566 -1331 1297 -1286 
Q 1028 -1241 775 -1147 
L 775 -588 
Q 1028 -725 1275 -790 
Q 1522 -856 1778 -856 
Q 2344 -856 2625 -561 
Q 2906 -266 2906 331 
L 2906 616 
Q 2728 306 2450 153 
Q 2172 0 1784 0 
Q 1141 0 747 490 
Q 353 981 353 1791 
Q 353 2603 747 3093 
Q 1141 3584 1784 3584 
Q 2172 3584 2450 3431 
Q 2728 3278 2906 2969 
L 2906 3500 
L 3481 3500 
L 3481 434 
z
" transform="scale(0.015625)"/>
      <path id="DejaVuSans-6c" d="M 603 4863 
L 1178 4863 
L 1178 0 
L 603 0 
L 603 4863 
z
" transform="scale(0.015625)"/>
      <path id="DejaVuSans-3e" d="M 678 3150 
L 678 3719 
L 4684 2266 
L 4684 1747 
L 678 294 
L 678 863 
L 3897 2003 
L 678 3150 
z
" transform="scale(0.015625)"/>
     </defs>
     <use xlink:href="#DejaVuSans-72"/>
     <use xlink:href="#DejaVuSans-68" x="39.363281"/>
     <use xlink:href="#DejaVuSans-79" x="102.742188"/>
     <use xlink:href="#DejaVuSans-74" x="161.921875"/>
     <use xlink:href="#DejaVuSans-68" x="201.130859"/>
     <use xlink:href="#DejaVuSans-6d" x="264.509766"/>
     <use xlink:href="#DejaVuSans-73" x="361.921875"/>
     <use xlink:href="#DejaVuSans-20" x="414.021484"/>
     <use xlink:href="#DejaVuSans-63" x="445.808594"/>
     <use xlink:href="#DejaVuSans-6f" x="500.789062"/>
     <use xlink:href="#DejaVuSans-6e" x="561.970703"/>
     <use xlink:href="#DejaVuSans-74" x="625.349609"/>
     <use xlink:href="#DejaVuSans-61" x="664.558594"/>
     <use xlink:href="#DejaVuSans-69" x="725.837891"/>
     <use xlink:href="#DejaVuSans-6e" x="753.621094"/>
     <use xlink:href="#DejaVuSans-69" x="817"/>
     <use xlink:href="#DejaVuSans-6e" x="844.783203"/>
     <use xlink:href="#DejaVuSans-67" x="908.162109"/>
     <use xlink:href="#DejaVuSans-20" x="971.638672"/>
     <use xlink:href="#DejaVuSans-6c" x="1003.425781"/>
     <use xlink:href="#DejaVuSans-65" x="1031.208984"/>
     <use xlink:href="#DejaVuSans-6e" x="1092.732422"/>
     <use xlink:href="#DejaVuSans-67" x="1156.111328"/>
     <use xlink:href="#DejaVuSans-74" x="1219.587891"/>
     <use xlink:href="#DejaVuSans-68" x="1258.796875"/>
     <use xlink:href="#DejaVuSans-73" x="1322.175781"/>
     <use xlink:href="#DejaVuSans-20" x="1374.275391"/>
     <use xlink:href="#DejaVuSans-3e" x="1406.0625"/>
     <use xlink:href="#DejaVuSans-30" x="1489.851562"/>
     <use xlink:href="#DejaVuSans-2e" x="1553.474609"/>
     <use xlink:href="#DejaVuSans-34" x="1585.261719"/>
     <use xlink:href="#DejaVuSans-38" x="1648.884766"/>
     <use xlink:href="#DejaVuSans-38" x="1712.507812"/>
     <use xlink:href="#DejaVuSans-34" x="1776.130859"/>
     <use xlink:href="#DejaVuSans-37" x="1839.753906"/>
     <use xlink:href="#DejaVuSans-35" x="1903.376953"/>
     <use xlink:href="#DejaVuSans-37" x="1967"/>
     <use xlink:href="#DejaVuSans-36" x="2030.623047"/>
     <use xlink:href="#DejaVuSans-30" x="2094.246094"/>
     <use xlink:href="#DejaVuSans-35" x="2157.869141"/>
     <use xlink:href="#DejaVuSans-35" x="2221.492188"/>
     <use xlink:href="#DejaVuSans-38" x="2285.115234"/>
     <use xlink:href="#DejaVuSans-36" x="2348.738281"/>
     <use xlink:href="#DejaVuSans-36" x="2412.361328"/>
     <use xlink:href="#DejaVuSans-32" x="2475.984375"/>
     <use xlink:href="#DejaVuSans-32" x="2539.607422"/>
     <use xlink:href="#DejaVuSans-36" x="2603.230469"/>
    </g>
   </g>
  </g>
 </g>
 <defs>
  <clipPath id="p541fc8e26d">
   <rect x="72" y="51.84" width="446.4" height="326.16"/>
  </clipPath>
 </defs>
</svg>
