<?xml version="1.0" encoding="utf-8" standalone="no"?>
<!DOCTYPE svg PUBLIC "-//W3C//DTD SVG 1.1//EN"
  "http://www.w3.org/Graphics/SVG/1.1/DTD/svg11.dtd">
<svg xmlns:xlink="http://www.w3.org/1999/xlink" width="576pt" height="432pt" viewBox="0 0 576 432" xmlns="http://www.w3.org/2000/svg" version="1.1">
 <metadata>
  <rdf:RDF xmlns:dc="http://purl.org/dc/elements/1.1/" xmlns:cc="http://creativecommons.org/ns#" xmlns:rdf="http://www.w3.org/1999/02/22-rdf-syntax-ns#">
   <cc:Work>
    <dc:type rdf:resource="http://purl.org/dc/dcmitype/StillImage"/>
    <dc:date>2022-03-21T07:00:13.394028</dc:date>
    <dc:format>image/svg+xml</dc:format>
    <dc:creator>
     <cc:Agent>
      <dc:title>Matplotlib v3.5.1, https://matplotlib.org/</dc:title>
     </cc:Agent>
    </dc:creator>
   </cc:Work>
  </rdf:RDF>
 </metadata>
 <defs>
  <style type="text/css">*{stroke-linejoin: round; stroke-linecap: butt}</style>
 </defs>
 <g id="figure_1">
  <g id="patch_1">
   <path d="M 0 432 
L 576 432 
L 576 0 
L 0 0 
L 0 432 
z
" style="fill: none"/>
  </g>
  <g id="axes_1">
   <g id="patch_2">
    <path d="M 72 378 
L 518.4 378 
L 518.4 51.84 
L 72 51.84 
z
" style="fill: #ffffff"/>
   </g>
   <g id="patch_3">
    <path d="M 120.404819 378 
L 123.945235 378 
L 123.945235 369.249899 
L 120.404819 369.249899 
z
" clip-path="url(#pcfa324faeb)" style="fill: #a3e301"/>
   </g>
   <g id="patch_4">
    <path d="M 123.945235 378 
L 127.48565 378 
L 127.48565 364.874849 
L 123.945235 364.874849 
z
" clip-path="url(#pcfa324faeb)" style="fill: #a3e301"/>
   </g>
   <g id="patch_5">
    <path d="M 127.48565 378 
L 131.026065 378 
L 131.026065 378 
L 127.48565 378 
z
" clip-path="url(#pcfa324faeb)" style="fill: #a3e301"/>
   </g>
   <g id="patch_6">
    <path d="M 131.026065 378 
L 134.566481 378 
L 134.566481 360.499799 
L 131.026065 360.499799 
z
" clip-path="url(#pcfa324faeb)" style="fill: #a3e301"/>
   </g>
   <g id="patch_7">
    <path d="M 134.566481 378 
L 138.106896 378 
L 138.106896 351.749698 
L 134.566481 351.749698 
z
" clip-path="url(#pcfa324faeb)" style="fill: #a3e301"/>
   </g>
   <g id="patch_8">
    <path d="M 138.106896 378 
L 141.647312 378 
L 141.647312 369.249899 
L 138.106896 369.249899 
z
" clip-path="url(#pcfa324faeb)" style="fill: #a3e301"/>
   </g>
   <g id="patch_9">
    <path d="M 141.647312 378 
L 145.187727 378 
L 145.187727 351.749698 
L 141.647312 351.749698 
z
" clip-path="url(#pcfa324faeb)" style="fill: #a3e301"/>
   </g>
   <g id="patch_10">
    <path d="M 145.187727 378 
L 148.728142 378 
L 148.728142 338.624547 
L 145.187727 338.624547 
z
" clip-path="url(#pcfa324faeb)" style="fill: #a3e301"/>
   </g>
   <g id="patch_11">
    <path d="M 148.728142 378 
L 152.268558 378 
L 152.268558 351.749698 
L 148.728142 351.749698 
z
" clip-path="url(#pcfa324faeb)" style="fill: #a3e301"/>
   </g>
   <g id="patch_12">
    <path d="M 152.268558 378 
L 155.808973 378 
L 155.808973 338.624547 
L 152.268558 338.624547 
z
" clip-path="url(#pcfa324faeb)" style="fill: #a3e301"/>
   </g>
   <g id="patch_13">
    <path d="M 155.808973 378 
L 159.349389 378 
L 159.349389 360.499799 
L 155.808973 360.499799 
z
" clip-path="url(#pcfa324faeb)" style="fill: #a3e301"/>
   </g>
   <g id="patch_14">
    <path d="M 159.349389 378 
L 162.889804 378 
L 162.889804 373.62495 
L 159.349389 373.62495 
z
" clip-path="url(#pcfa324faeb)" style="fill: #a3e301"/>
   </g>
   <g id="patch_15">
    <path d="M 162.889804 378 
L 166.430219 378 
L 166.430219 373.62495 
L 162.889804 373.62495 
z
" clip-path="url(#pcfa324faeb)" style="fill: #a3e301"/>
   </g>
   <g id="patch_16">
    <path d="M 166.430219 378 
L 169.970635 378 
L 169.970635 373.62495 
L 166.430219 373.62495 
z
" clip-path="url(#pcfa324faeb)" style="fill: #a3e301"/>
   </g>
   <g id="patch_17">
    <path d="M 169.970635 378 
L 173.51105 378 
L 173.51105 378 
L 169.970635 378 
z
" clip-path="url(#pcfa324faeb)" style="fill: #a3e301"/>
   </g>
   <g id="patch_18">
    <path d="M 173.51105 378 
L 177.051466 378 
L 177.051466 369.249899 
L 173.51105 369.249899 
z
" clip-path="url(#pcfa324faeb)" style="fill: #a3e301"/>
   </g>
   <g id="patch_19">
    <path d="M 177.051466 378 
L 180.591881 378 
L 180.591881 378 
L 177.051466 378 
z
" clip-path="url(#pcfa324faeb)" style="fill: #a3e301"/>
   </g>
   <g id="patch_20">
    <path d="M 180.591881 378 
L 184.132296 378 
L 184.132296 351.749698 
L 180.591881 351.749698 
z
" clip-path="url(#pcfa324faeb)" style="fill: #a3e301"/>
   </g>
   <g id="patch_21">
    <path d="M 184.132296 378 
L 187.672712 378 
L 187.672712 351.749698 
L 184.132296 351.749698 
z
" clip-path="url(#pcfa324faeb)" style="fill: #a3e301"/>
   </g>
   <g id="patch_22">
    <path d="M 187.672712 378 
L 191.213127 378 
L 191.213127 290.498994 
L 187.672712 290.498994 
z
" clip-path="url(#pcfa324faeb)" style="fill: #a3e301"/>
   </g>
   <g id="patch_23">
    <path d="M 191.213127 378 
L 194.753543 378 
L 194.753543 303.624145 
L 191.213127 303.624145 
z
" clip-path="url(#pcfa324faeb)" style="fill: #a3e301"/>
   </g>
   <g id="patch_24">
    <path d="M 194.753543 378 
L 198.293958 378 
L 198.293958 202.997988 
L 194.753543 202.997988 
z
" clip-path="url(#pcfa324faeb)" style="fill: #a3e301"/>
   </g>
   <g id="patch_25">
    <path d="M 198.293958 378 
L 201.834373 378 
L 201.834373 237.99839 
L 198.293958 237.99839 
z
" clip-path="url(#pcfa324faeb)" style="fill: #a3e301"/>
   </g>
   <g id="patch_26">
    <path d="M 201.834373 378 
L 205.374789 378 
L 205.374789 154.872435 
L 201.834373 154.872435 
z
" clip-path="url(#pcfa324faeb)" style="fill: #a3e301"/>
   </g>
   <g id="patch_27">
    <path d="M 205.374789 378 
L 208.915204 378 
L 208.915204 124.247082 
L 205.374789 124.247082 
z
" clip-path="url(#pcfa324faeb)" style="fill: #a3e301"/>
   </g>
   <g id="patch_28">
    <path d="M 208.915204 378 
L 212.45562 378 
L 212.45562 163.622535 
L 208.915204 163.622535 
z
" clip-path="url(#pcfa324faeb)" style="fill: #a3e301"/>
   </g>
   <g id="patch_29">
    <path d="M 212.45562 378 
L 215.996035 378 
L 215.996035 84.87163 
L 212.45562 84.87163 
z
" clip-path="url(#pcfa324faeb)" style="fill: #a3e301"/>
   </g>
   <g id="patch_30">
    <path d="M 215.996035 378 
L 219.53645 378 
L 219.53645 67.371429 
L 215.996035 67.371429 
z
" clip-path="url(#pcfa324faeb)" style="fill: #a3e301"/>
   </g>
   <g id="patch_31">
    <path d="M 219.53645 378 
L 223.076866 378 
L 223.076866 84.87163 
L 219.53645 84.87163 
z
" clip-path="url(#pcfa324faeb)" style="fill: #a3e301"/>
   </g>
   <g id="patch_32">
    <path d="M 223.076866 378 
L 226.617281 378 
L 226.617281 124.247082 
L 223.076866 124.247082 
z
" clip-path="url(#pcfa324faeb)" style="fill: #a3e301"/>
   </g>
   <g id="patch_33">
    <path d="M 226.617281 378 
L 230.157697 378 
L 230.157697 106.746881 
L 226.617281 106.746881 
z
" clip-path="url(#pcfa324faeb)" style="fill: #a3e301"/>
   </g>
   <g id="patch_34">
    <path d="M 230.157697 378 
L 233.698112 378 
L 233.698112 132.997183 
L 230.157697 132.997183 
z
" clip-path="url(#pcfa324faeb)" style="fill: #a3e301"/>
   </g>
   <g id="patch_35">
    <path d="M 233.698112 378 
L 237.238527 378 
L 237.238527 137.372233 
L 233.698112 137.372233 
z
" clip-path="url(#pcfa324faeb)" style="fill: #a3e301"/>
   </g>
   <g id="patch_36">
    <path d="M 237.238527 378 
L 240.778943 378 
L 240.778943 185.497787 
L 237.238527 185.497787 
z
" clip-path="url(#pcfa324faeb)" style="fill: #a3e301"/>
   </g>
   <g id="patch_37">
    <path d="M 240.778943 378 
L 244.319358 378 
L 244.319358 233.62334 
L 240.778943 233.62334 
z
" clip-path="url(#pcfa324faeb)" style="fill: #a3e301"/>
   </g>
   <g id="patch_38">
    <path d="M 244.319358 378 
L 247.859774 378 
L 247.859774 181.122736 
L 244.319358 181.122736 
z
" clip-path="url(#pcfa324faeb)" style="fill: #a3e301"/>
   </g>
   <g id="patch_39">
    <path d="M 247.859774 378 
L 251.400189 378 
L 251.400189 202.997988 
L 247.859774 202.997988 
z
" clip-path="url(#pcfa324faeb)" style="fill: #a3e301"/>
   </g>
   <g id="patch_40">
    <path d="M 251.400189 378 
L 254.940604 378 
L 254.940604 233.62334 
L 251.400189 233.62334 
z
" clip-path="url(#pcfa324faeb)" style="fill: #a3e301"/>
   </g>
   <g id="patch_41">
    <path d="M 254.940604 378 
L 258.48102 378 
L 258.48102 233.62334 
L 254.940604 233.62334 
z
" clip-path="url(#pcfa324faeb)" style="fill: #a3e301"/>
   </g>
   <g id="patch_42">
    <path d="M 258.48102 378 
L 262.021435 378 
L 262.021435 207.373038 
L 258.48102 207.373038 
z
" clip-path="url(#pcfa324faeb)" style="fill: #a3e301"/>
   </g>
   <g id="patch_43">
    <path d="M 262.021435 378 
L 265.561851 378 
L 265.561851 211.748089 
L 262.021435 211.748089 
z
" clip-path="url(#pcfa324faeb)" style="fill: #a3e301"/>
   </g>
   <g id="patch_44">
    <path d="M 265.561851 378 
L 269.102266 378 
L 269.102266 255.498592 
L 265.561851 255.498592 
z
" clip-path="url(#pcfa324faeb)" style="fill: #a3e301"/>
   </g>
   <g id="patch_45">
    <path d="M 269.102266 378 
L 272.642681 378 
L 272.642681 281.748893 
L 269.102266 281.748893 
z
" clip-path="url(#pcfa324faeb)" style="fill: #a3e301"/>
   </g>
   <g id="patch_46">
    <path d="M 272.642681 378 
L 276.183097 378 
L 276.183097 255.498592 
L 272.642681 255.498592 
z
" clip-path="url(#pcfa324faeb)" style="fill: #a3e301"/>
   </g>
   <g id="patch_47">
    <path d="M 276.183097 378 
L 279.723512 378 
L 279.723512 246.748491 
L 276.183097 246.748491 
z
" clip-path="url(#pcfa324faeb)" style="fill: #a3e301"/>
   </g>
   <g id="patch_48">
    <path d="M 279.723512 378 
L 283.263928 378 
L 283.263928 237.99839 
L 279.723512 237.99839 
z
" clip-path="url(#pcfa324faeb)" style="fill: #a3e301"/>
   </g>
   <g id="patch_49">
    <path d="M 283.263928 378 
L 286.804343 378 
L 286.804343 277.373843 
L 283.263928 277.373843 
z
" clip-path="url(#pcfa324faeb)" style="fill: #a3e301"/>
   </g>
   <g id="patch_50">
    <path d="M 286.804343 378 
L 290.344758 378 
L 290.344758 286.123944 
L 286.804343 286.123944 
z
" clip-path="url(#pcfa324faeb)" style="fill: #a3e301"/>
   </g>
   <g id="patch_51">
    <path d="M 290.344758 378 
L 293.885174 378 
L 293.885174 281.748893 
L 290.344758 281.748893 
z
" clip-path="url(#pcfa324faeb)" style="fill: #a3e301"/>
   </g>
   <g id="patch_52">
    <path d="M 293.885174 378 
L 297.425589 378 
L 297.425589 299.249095 
L 293.885174 299.249095 
z
" clip-path="url(#pcfa324faeb)" style="fill: #a3e301"/>
   </g>
   <g id="patch_53">
    <path d="M 297.425589 378 
L 300.966005 378 
L 300.966005 307.999195 
L 297.425589 307.999195 
z
" clip-path="url(#pcfa324faeb)" style="fill: #a3e301"/>
   </g>
   <g id="patch_54">
    <path d="M 300.966005 378 
L 304.50642 378 
L 304.50642 299.249095 
L 300.966005 299.249095 
z
" clip-path="url(#pcfa324faeb)" style="fill: #a3e301"/>
   </g>
   <g id="patch_55">
    <path d="M 304.50642 378 
L 308.046835 378 
L 308.046835 321.124346 
L 304.50642 321.124346 
z
" clip-path="url(#pcfa324faeb)" style="fill: #a3e301"/>
   </g>
   <g id="patch_56">
    <path d="M 308.046835 378 
L 311.587251 378 
L 311.587251 325.499396 
L 308.046835 325.499396 
z
" clip-path="url(#pcfa324faeb)" style="fill: #a3e301"/>
   </g>
   <g id="patch_57">
    <path d="M 311.587251 378 
L 315.127666 378 
L 315.127666 299.249095 
L 311.587251 299.249095 
z
" clip-path="url(#pcfa324faeb)" style="fill: #a3e301"/>
   </g>
   <g id="patch_58">
    <path d="M 315.127666 378 
L 318.668082 378 
L 318.668082 264.248692 
L 315.127666 264.248692 
z
" clip-path="url(#pcfa324faeb)" style="fill: #a3e301"/>
   </g>
   <g id="patch_59">
    <path d="M 318.668082 378 
L 322.208497 378 
L 322.208497 299.249095 
L 318.668082 299.249095 
z
" clip-path="url(#pcfa324faeb)" style="fill: #a3e301"/>
   </g>
   <g id="patch_60">
    <path d="M 322.208497 378 
L 325.748912 378 
L 325.748912 312.374245 
L 322.208497 312.374245 
z
" clip-path="url(#pcfa324faeb)" style="fill: #a3e301"/>
   </g>
   <g id="patch_61">
    <path d="M 325.748912 378 
L 329.289328 378 
L 329.289328 316.749296 
L 325.748912 316.749296 
z
" clip-path="url(#pcfa324faeb)" style="fill: #a3e301"/>
   </g>
   <g id="patch_62">
    <path d="M 329.289328 378 
L 332.829743 378 
L 332.829743 325.499396 
L 329.289328 325.499396 
z
" clip-path="url(#pcfa324faeb)" style="fill: #a3e301"/>
   </g>
   <g id="patch_63">
    <path d="M 332.829743 378 
L 336.370159 378 
L 336.370159 286.123944 
L 332.829743 286.123944 
z
" clip-path="url(#pcfa324faeb)" style="fill: #a3e301"/>
   </g>
   <g id="patch_64">
    <path d="M 336.370159 378 
L 339.910574 378 
L 339.910574 316.749296 
L 336.370159 316.749296 
z
" clip-path="url(#pcfa324faeb)" style="fill: #a3e301"/>
   </g>
   <g id="patch_65">
    <path d="M 339.910574 378 
L 343.450989 378 
L 343.450989 325.499396 
L 339.910574 325.499396 
z
" clip-path="url(#pcfa324faeb)" style="fill: #a3e301"/>
   </g>
   <g id="patch_66">
    <path d="M 343.450989 378 
L 346.991405 378 
L 346.991405 299.249095 
L 343.450989 299.249095 
z
" clip-path="url(#pcfa324faeb)" style="fill: #a3e301"/>
   </g>
   <g id="patch_67">
    <path d="M 346.991405 378 
L 350.53182 378 
L 350.53182 277.373843 
L 346.991405 277.373843 
z
" clip-path="url(#pcfa324faeb)" style="fill: #a3e301"/>
   </g>
   <g id="patch_68">
    <path d="M 350.53182 378 
L 354.072236 378 
L 354.072236 303.624145 
L 350.53182 303.624145 
z
" clip-path="url(#pcfa324faeb)" style="fill: #a3e301"/>
   </g>
   <g id="patch_69">
    <path d="M 354.072236 378 
L 357.612651 378 
L 357.612651 303.624145 
L 354.072236 303.624145 
z
" clip-path="url(#pcfa324faeb)" style="fill: #a3e301"/>
   </g>
   <g id="patch_70">
    <path d="M 357.612651 378 
L 361.153066 378 
L 361.153066 312.374245 
L 357.612651 312.374245 
z
" clip-path="url(#pcfa324faeb)" style="fill: #a3e301"/>
   </g>
   <g id="patch_71">
    <path d="M 361.153066 378 
L 364.693482 378 
L 364.693482 321.124346 
L 361.153066 321.124346 
z
" clip-path="url(#pcfa324faeb)" style="fill: #a3e301"/>
   </g>
   <g id="patch_72">
    <path d="M 364.693482 378 
L 368.233897 378 
L 368.233897 307.999195 
L 364.693482 307.999195 
z
" clip-path="url(#pcfa324faeb)" style="fill: #a3e301"/>
   </g>
   <g id="patch_73">
    <path d="M 368.233897 378 
L 371.774313 378 
L 371.774313 299.249095 
L 368.233897 299.249095 
z
" clip-path="url(#pcfa324faeb)" style="fill: #a3e301"/>
   </g>
   <g id="patch_74">
    <path d="M 371.774313 378 
L 375.314728 378 
L 375.314728 277.373843 
L 371.774313 277.373843 
z
" clip-path="url(#pcfa324faeb)" style="fill: #a3e301"/>
   </g>
   <g id="patch_75">
    <path d="M 375.314728 378 
L 378.855143 378 
L 378.855143 277.373843 
L 375.314728 277.373843 
z
" clip-path="url(#pcfa324faeb)" style="fill: #a3e301"/>
   </g>
   <g id="patch_76">
    <path d="M 378.855143 378 
L 382.395559 378 
L 382.395559 290.498994 
L 378.855143 290.498994 
z
" clip-path="url(#pcfa324faeb)" style="fill: #a3e301"/>
   </g>
   <g id="patch_77">
    <path d="M 382.395559 378 
L 385.935974 378 
L 385.935974 264.248692 
L 382.395559 264.248692 
z
" clip-path="url(#pcfa324faeb)" style="fill: #a3e301"/>
   </g>
   <g id="patch_78">
    <path d="M 385.935974 378 
L 389.47639 378 
L 389.47639 312.374245 
L 385.935974 312.374245 
z
" clip-path="url(#pcfa324faeb)" style="fill: #a3e301"/>
   </g>
   <g id="patch_79">
    <path d="M 389.47639 378 
L 393.016805 378 
L 393.016805 325.499396 
L 389.47639 325.499396 
z
" clip-path="url(#pcfa324faeb)" style="fill: #a3e301"/>
   </g>
   <g id="patch_80">
    <path d="M 393.016805 378 
L 396.55722 378 
L 396.55722 286.123944 
L 393.016805 286.123944 
z
" clip-path="url(#pcfa324faeb)" style="fill: #a3e301"/>
   </g>
   <g id="patch_81">
    <path d="M 396.55722 378 
L 400.097636 378 
L 400.097636 303.624145 
L 396.55722 303.624145 
z
" clip-path="url(#pcfa324faeb)" style="fill: #a3e301"/>
   </g>
   <g id="patch_82">
    <path d="M 400.097636 378 
L 403.638051 378 
L 403.638051 321.124346 
L 400.097636 321.124346 
z
" clip-path="url(#pcfa324faeb)" style="fill: #a3e301"/>
   </g>
   <g id="patch_83">
    <path d="M 403.638051 378 
L 407.178467 378 
L 407.178467 334.249497 
L 403.638051 334.249497 
z
" clip-path="url(#pcfa324faeb)" style="fill: #a3e301"/>
   </g>
   <g id="patch_84">
    <path d="M 407.178467 378 
L 410.718882 378 
L 410.718882 338.624547 
L 407.178467 338.624547 
z
" clip-path="url(#pcfa324faeb)" style="fill: #a3e301"/>
   </g>
   <g id="patch_85">
    <path d="M 410.718882 378 
L 414.259297 378 
L 414.259297 321.124346 
L 410.718882 321.124346 
z
" clip-path="url(#pcfa324faeb)" style="fill: #a3e301"/>
   </g>
   <g id="patch_86">
    <path d="M 414.259297 378 
L 417.799713 378 
L 417.799713 321.124346 
L 414.259297 321.124346 
z
" clip-path="url(#pcfa324faeb)" style="fill: #a3e301"/>
   </g>
   <g id="patch_87">
    <path d="M 417.799713 378 
L 421.340128 378 
L 421.340128 272.998793 
L 417.799713 272.998793 
z
" clip-path="url(#pcfa324faeb)" style="fill: #a3e301"/>
   </g>
   <g id="patch_88">
    <path d="M 421.340128 378 
L 424.880544 378 
L 424.880544 281.748893 
L 421.340128 281.748893 
z
" clip-path="url(#pcfa324faeb)" style="fill: #a3e301"/>
   </g>
   <g id="patch_89">
    <path d="M 424.880544 378 
L 428.420959 378 
L 428.420959 290.498994 
L 424.880544 290.498994 
z
" clip-path="url(#pcfa324faeb)" style="fill: #a3e301"/>
   </g>
   <g id="patch_90">
    <path d="M 428.420959 378 
L 431.961374 378 
L 431.961374 242.373441 
L 428.420959 242.373441 
z
" clip-path="url(#pcfa324faeb)" style="fill: #a3e301"/>
   </g>
   <g id="patch_91">
    <path d="M 431.961374 378 
L 435.50179 378 
L 435.50179 272.998793 
L 431.961374 272.998793 
z
" clip-path="url(#pcfa324faeb)" style="fill: #a3e301"/>
   </g>
   <g id="patch_92">
    <path d="M 435.50179 378 
L 439.042205 378 
L 439.042205 220.498189 
L 435.50179 220.498189 
z
" clip-path="url(#pcfa324faeb)" style="fill: #a3e301"/>
   </g>
   <g id="patch_93">
    <path d="M 439.042205 378 
L 442.582621 378 
L 442.582621 220.498189 
L 439.042205 220.498189 
z
" clip-path="url(#pcfa324faeb)" style="fill: #a3e301"/>
   </g>
   <g id="patch_94">
    <path d="M 442.582621 378 
L 446.123036 378 
L 446.123036 137.372233 
L 442.582621 137.372233 
z
" clip-path="url(#pcfa324faeb)" style="fill: #a3e301"/>
   </g>
   <g id="patch_95">
    <path d="M 446.123036 378 
L 449.663451 378 
L 449.663451 163.622535 
L 446.123036 163.622535 
z
" clip-path="url(#pcfa324faeb)" style="fill: #a3e301"/>
   </g>
   <g id="patch_96">
    <path d="M 449.663451 378 
L 453.203867 378 
L 453.203867 163.622535 
L 449.663451 163.622535 
z
" clip-path="url(#pcfa324faeb)" style="fill: #a3e301"/>
   </g>
   <g id="patch_97">
    <path d="M 453.203867 378 
L 456.744282 378 
L 456.744282 229.24829 
L 453.203867 229.24829 
z
" clip-path="url(#pcfa324faeb)" style="fill: #a3e301"/>
   </g>
   <g id="patch_98">
    <path d="M 456.744282 378 
L 460.284698 378 
L 460.284698 242.373441 
L 456.744282 242.373441 
z
" clip-path="url(#pcfa324faeb)" style="fill: #a3e301"/>
   </g>
   <g id="patch_99">
    <path d="M 460.284698 378 
L 463.825113 378 
L 463.825113 299.249095 
L 460.284698 299.249095 
z
" clip-path="url(#pcfa324faeb)" style="fill: #a3e301"/>
   </g>
   <g id="patch_100">
    <path d="M 463.825113 378 
L 467.365528 378 
L 467.365528 351.749698 
L 463.825113 351.749698 
z
" clip-path="url(#pcfa324faeb)" style="fill: #a3e301"/>
   </g>
   <g id="patch_101">
    <path d="M 467.365528 378 
L 470.905944 378 
L 470.905944 378 
L 467.365528 378 
z
" clip-path="url(#pcfa324faeb)" style="fill: #a3e301"/>
   </g>
   <g id="patch_102">
    <path d="M 470.905944 378 
L 474.446359 378 
L 474.446359 364.874849 
L 470.905944 364.874849 
z
" clip-path="url(#pcfa324faeb)" style="fill: #a3e301"/>
   </g>
   <g id="matplotlib.axis_1">
    <g id="xtick_1">
     <g id="line2d_1">
      <defs>
       <path id="mfdedf0423f" d="M 0 0 
L 0 3.5 
" style="stroke: #000000; stroke-width: 0.8"/>
      </defs>
      <g>
       <use xlink:href="#mfdedf0423f" x="72" y="378" style="stroke: #000000; stroke-width: 0.8"/>
      </g>
     </g>
     <g id="text_1">
      <!-- 0.00 -->
      <g transform="translate(60.867188 392.598437)scale(0.1 -0.1)">
       <defs>
        <path id="DejaVuSans-30" d="M 2034 4250 
Q 1547 4250 1301 3770 
Q 1056 3291 1056 2328 
Q 1056 1369 1301 889 
Q 1547 409 2034 409 
Q 2525 409 2770 889 
Q 3016 1369 3016 2328 
Q 3016 3291 2770 3770 
Q 2525 4250 2034 4250 
z
M 2034 4750 
Q 2819 4750 3233 4129 
Q 3647 3509 3647 2328 
Q 3647 1150 3233 529 
Q 2819 -91 2034 -91 
Q 1250 -91 836 529 
Q 422 1150 422 2328 
Q 422 3509 836 4129 
Q 1250 4750 2034 4750 
z
" transform="scale(0.015625)"/>
        <path id="DejaVuSans-2e" d="M 684 794 
L 1344 794 
L 1344 0 
L 684 0 
L 684 794 
z
" transform="scale(0.015625)"/>
       </defs>
       <use xlink:href="#DejaVuSans-30"/>
       <use xlink:href="#DejaVuSans-2e" x="63.623047"/>
       <use xlink:href="#DejaVuSans-30" x="95.410156"/>
       <use xlink:href="#DejaVuSans-30" x="159.033203"/>
      </g>
     </g>
    </g>
    <g id="xtick_2">
     <g id="line2d_2">
      <g>
       <use xlink:href="#mfdedf0423f" x="183.6" y="378" style="stroke: #000000; stroke-width: 0.8"/>
      </g>
     </g>
     <g id="text_2">
      <!-- 0.25 -->
      <g transform="translate(172.467187 392.598437)scale(0.1 -0.1)">
       <defs>
        <path id="DejaVuSans-32" d="M 1228 531 
L 3431 531 
L 3431 0 
L 469 0 
L 469 531 
Q 828 903 1448 1529 
Q 2069 2156 2228 2338 
Q 2531 2678 2651 2914 
Q 2772 3150 2772 3378 
Q 2772 3750 2511 3984 
Q 2250 4219 1831 4219 
Q 1534 4219 1204 4116 
Q 875 4013 500 3803 
L 500 4441 
Q 881 4594 1212 4672 
Q 1544 4750 1819 4750 
Q 2544 4750 2975 4387 
Q 3406 4025 3406 3419 
Q 3406 3131 3298 2873 
Q 3191 2616 2906 2266 
Q 2828 2175 2409 1742 
Q 1991 1309 1228 531 
z
" transform="scale(0.015625)"/>
        <path id="DejaVuSans-35" d="M 691 4666 
L 3169 4666 
L 3169 4134 
L 1269 4134 
L 1269 2991 
Q 1406 3038 1543 3061 
Q 1681 3084 1819 3084 
Q 2600 3084 3056 2656 
Q 3513 2228 3513 1497 
Q 3513 744 3044 326 
Q 2575 -91 1722 -91 
Q 1428 -91 1123 -41 
Q 819 9 494 109 
L 494 744 
Q 775 591 1075 516 
Q 1375 441 1709 441 
Q 2250 441 2565 725 
Q 2881 1009 2881 1497 
Q 2881 1984 2565 2268 
Q 2250 2553 1709 2553 
Q 1456 2553 1204 2497 
Q 953 2441 691 2322 
L 691 4666 
z
" transform="scale(0.015625)"/>
       </defs>
       <use xlink:href="#DejaVuSans-30"/>
       <use xlink:href="#DejaVuSans-2e" x="63.623047"/>
       <use xlink:href="#DejaVuSans-32" x="95.410156"/>
       <use xlink:href="#DejaVuSans-35" x="159.033203"/>
      </g>
     </g>
    </g>
    <g id="xtick_3">
     <g id="line2d_3">
      <g>
       <use xlink:href="#mfdedf0423f" x="295.2" y="378" style="stroke: #000000; stroke-width: 0.8"/>
      </g>
     </g>
     <g id="text_3">
      <!-- 0.50 -->
      <g transform="translate(284.067187 392.598437)scale(0.1 -0.1)">
       <use xlink:href="#DejaVuSans-30"/>
       <use xlink:href="#DejaVuSans-2e" x="63.623047"/>
       <use xlink:href="#DejaVuSans-35" x="95.410156"/>
       <use xlink:href="#DejaVuSans-30" x="159.033203"/>
      </g>
     </g>
    </g>
    <g id="xtick_4">
     <g id="line2d_4">
      <g>
       <use xlink:href="#mfdedf0423f" x="406.8" y="378" style="stroke: #000000; stroke-width: 0.8"/>
      </g>
     </g>
     <g id="text_4">
      <!-- 0.75 -->
      <g transform="translate(395.667187 392.598437)scale(0.1 -0.1)">
       <defs>
        <path id="DejaVuSans-37" d="M 525 4666 
L 3525 4666 
L 3525 4397 
L 1831 0 
L 1172 0 
L 2766 4134 
L 525 4134 
L 525 4666 
z
" transform="scale(0.015625)"/>
       </defs>
       <use xlink:href="#DejaVuSans-30"/>
       <use xlink:href="#DejaVuSans-2e" x="63.623047"/>
       <use xlink:href="#DejaVuSans-37" x="95.410156"/>
       <use xlink:href="#DejaVuSans-35" x="159.033203"/>
      </g>
     </g>
    </g>
    <g id="xtick_5">
     <g id="line2d_5">
      <g>
       <use xlink:href="#mfdedf0423f" x="518.4" y="378" style="stroke: #000000; stroke-width: 0.8"/>
      </g>
     </g>
     <g id="text_5">
      <!-- 1.00 -->
      <g transform="translate(507.267187 392.598437)scale(0.1 -0.1)">
       <defs>
        <path id="DejaVuSans-31" d="M 794 531 
L 1825 531 
L 1825 4091 
L 703 3866 
L 703 4441 
L 1819 4666 
L 2450 4666 
L 2450 531 
L 3481 531 
L 3481 0 
L 794 0 
L 794 531 
z
" transform="scale(0.015625)"/>
       </defs>
       <use xlink:href="#DejaVuSans-31"/>
       <use xlink:href="#DejaVuSans-2e" x="63.623047"/>
       <use xlink:href="#DejaVuSans-30" x="95.410156"/>
       <use xlink:href="#DejaVuSans-30" x="159.033203"/>
      </g>
     </g>
    </g>
   </g>
   <g id="matplotlib.axis_2">
    <g id="ytick_1">
     <g id="line2d_6">
      <defs>
       <path id="m28abec0867" d="M 0 0 
L -3.5 0 
" style="stroke: #000000; stroke-width: 0.8"/>
      </defs>
      <g>
       <use xlink:href="#m28abec0867" x="72" y="378" style="stroke: #000000; stroke-width: 0.8"/>
      </g>
     </g>
     <g id="text_6">
      <!-- 0.0 -->
      <g transform="translate(49.096875 381.799219)scale(0.1 -0.1)">
       <use xlink:href="#DejaVuSans-30"/>
       <use xlink:href="#DejaVuSans-2e" x="63.623047"/>
       <use xlink:href="#DejaVuSans-30" x="95.410156"/>
      </g>
     </g>
    </g>
    <g id="ytick_2">
     <g id="line2d_7">
      <g>
       <use xlink:href="#m28abec0867" x="72" y="338.113855" style="stroke: #000000; stroke-width: 0.8"/>
      </g>
     </g>
     <g id="text_7">
      <!-- 0.5 -->
      <g transform="translate(49.096875 341.913074)scale(0.1 -0.1)">
       <use xlink:href="#DejaVuSans-30"/>
       <use xlink:href="#DejaVuSans-2e" x="63.623047"/>
       <use xlink:href="#DejaVuSans-35" x="95.410156"/>
      </g>
     </g>
    </g>
    <g id="ytick_3">
     <g id="line2d_8">
      <g>
       <use xlink:href="#m28abec0867" x="72" y="298.22771" style="stroke: #000000; stroke-width: 0.8"/>
      </g>
     </g>
     <g id="text_8">
      <!-- 1.0 -->
      <g transform="translate(49.096875 302.026929)scale(0.1 -0.1)">
       <use xlink:href="#DejaVuSans-31"/>
       <use xlink:href="#DejaVuSans-2e" x="63.623047"/>
       <use xlink:href="#DejaVuSans-30" x="95.410156"/>
      </g>
     </g>
    </g>
    <g id="ytick_4">
     <g id="line2d_9">
      <g>
       <use xlink:href="#m28abec0867" x="72" y="258.341566" style="stroke: #000000; stroke-width: 0.8"/>
      </g>
     </g>
     <g id="text_9">
      <!-- 1.5 -->
      <g transform="translate(49.096875 262.140784)scale(0.1 -0.1)">
       <use xlink:href="#DejaVuSans-31"/>
       <use xlink:href="#DejaVuSans-2e" x="63.623047"/>
       <use xlink:href="#DejaVuSans-35" x="95.410156"/>
      </g>
     </g>
    </g>
    <g id="ytick_5">
     <g id="line2d_10">
      <g>
       <use xlink:href="#m28abec0867" x="72" y="218.455421" style="stroke: #000000; stroke-width: 0.8"/>
      </g>
     </g>
     <g id="text_10">
      <!-- 2.0 -->
      <g transform="translate(49.096875 222.25464)scale(0.1 -0.1)">
       <use xlink:href="#DejaVuSans-32"/>
       <use xlink:href="#DejaVuSans-2e" x="63.623047"/>
       <use xlink:href="#DejaVuSans-30" x="95.410156"/>
      </g>
     </g>
    </g>
    <g id="ytick_6">
     <g id="line2d_11">
      <g>
       <use xlink:href="#m28abec0867" x="72" y="178.569276" style="stroke: #000000; stroke-width: 0.8"/>
      </g>
     </g>
     <g id="text_11">
      <!-- 2.5 -->
      <g transform="translate(49.096875 182.368495)scale(0.1 -0.1)">
       <use xlink:href="#DejaVuSans-32"/>
       <use xlink:href="#DejaVuSans-2e" x="63.623047"/>
       <use xlink:href="#DejaVuSans-35" x="95.410156"/>
      </g>
     </g>
    </g>
    <g id="ytick_7">
     <g id="line2d_12">
      <g>
       <use xlink:href="#m28abec0867" x="72" y="138.683131" style="stroke: #000000; stroke-width: 0.8"/>
      </g>
     </g>
     <g id="text_12">
      <!-- 3.0 -->
      <g transform="translate(49.096875 142.48235)scale(0.1 -0.1)">
       <defs>
        <path id="DejaVuSans-33" d="M 2597 2516 
Q 3050 2419 3304 2112 
Q 3559 1806 3559 1356 
Q 3559 666 3084 287 
Q 2609 -91 1734 -91 
Q 1441 -91 1130 -33 
Q 819 25 488 141 
L 488 750 
Q 750 597 1062 519 
Q 1375 441 1716 441 
Q 2309 441 2620 675 
Q 2931 909 2931 1356 
Q 2931 1769 2642 2001 
Q 2353 2234 1838 2234 
L 1294 2234 
L 1294 2753 
L 1863 2753 
Q 2328 2753 2575 2939 
Q 2822 3125 2822 3475 
Q 2822 3834 2567 4026 
Q 2313 4219 1838 4219 
Q 1578 4219 1281 4162 
Q 984 4106 628 3988 
L 628 4550 
Q 988 4650 1302 4700 
Q 1616 4750 1894 4750 
Q 2613 4750 3031 4423 
Q 3450 4097 3450 3541 
Q 3450 3153 3228 2886 
Q 3006 2619 2597 2516 
z
" transform="scale(0.015625)"/>
       </defs>
       <use xlink:href="#DejaVuSans-33"/>
       <use xlink:href="#DejaVuSans-2e" x="63.623047"/>
       <use xlink:href="#DejaVuSans-30" x="95.410156"/>
      </g>
     </g>
    </g>
    <g id="ytick_8">
     <g id="line2d_13">
      <g>
       <use xlink:href="#m28abec0867" x="72" y="98.796987" style="stroke: #000000; stroke-width: 0.8"/>
      </g>
     </g>
     <g id="text_13">
      <!-- 3.5 -->
      <g transform="translate(49.096875 102.596205)scale(0.1 -0.1)">
       <use xlink:href="#DejaVuSans-33"/>
       <use xlink:href="#DejaVuSans-2e" x="63.623047"/>
       <use xlink:href="#DejaVuSans-35" x="95.410156"/>
      </g>
     </g>
    </g>
    <g id="ytick_9">
     <g id="line2d_14">
      <g>
       <use xlink:href="#m28abec0867" x="72" y="58.910842" style="stroke: #000000; stroke-width: 0.8"/>
      </g>
     </g>
     <g id="text_14">
      <!-- 4.0 -->
      <g transform="translate(49.096875 62.710061)scale(0.1 -0.1)">
       <defs>
        <path id="DejaVuSans-34" d="M 2419 4116 
L 825 1625 
L 2419 1625 
L 2419 4116 
z
M 2253 4666 
L 3047 4666 
L 3047 1625 
L 3713 1625 
L 3713 1100 
L 3047 1100 
L 3047 0 
L 2419 0 
L 2419 1100 
L 313 1100 
L 313 1709 
L 2253 4666 
z
" transform="scale(0.015625)"/>
       </defs>
       <use xlink:href="#DejaVuSans-34"/>
       <use xlink:href="#DejaVuSans-2e" x="63.623047"/>
       <use xlink:href="#DejaVuSans-30" x="95.410156"/>
      </g>
     </g>
    </g>
   </g>
   <g id="patch_103">
    <path d="M 75.254094 378 
L 75.254094 353.289151 
L 79.653185 353.289151 
L 79.653185 340.630914 
L 84.052276 340.630914 
L 84.052276 336.479576 
L 88.451367 336.479576 
L 88.451367 335.381003 
L 92.850458 335.381003 
L 92.850458 332.824709 
L 97.24955 332.824709 
L 97.24955 332.659218 
L 101.648641 332.659218 
L 101.648641 331.47614 
L 106.047732 331.47614 
L 106.047732 330.437425 
L 110.446823 330.437425 
L 110.446823 329.113504 
L 119.245006 329.159278 
L 119.245006 326.951568 
L 123.644097 326.951568 
L 123.644097 325.877643 
L 128.043188 325.877643 
L 128.043188 324.58189 
L 132.442279 324.58189 
L 132.442279 324.022041 
L 136.84137 324.022041 
L 136.84137 321.564336 
L 141.240461 321.564336 
L 141.240461 321.430535 
L 145.639553 321.430535 
L 145.639553 319.761549 
L 150.038644 319.761549 
L 150.038644 318.44467 
L 154.437735 318.44467 
L 154.437735 315.828517 
L 158.836826 315.828517 
L 158.836826 315.198246 
L 163.235917 315.198246 
L 163.235917 313.501092 
L 167.635009 313.501092 
L 167.635009 311.434226 
L 172.0341 311.434226 
L 172.0341 309.758198 
L 176.433191 309.758198 
L 176.433191 307.976538 
L 180.832282 307.976538 
L 180.832282 305.638549 
L 185.231373 305.638549 
L 185.231373 303.948437 
L 189.630465 303.948437 
L 189.630465 302.068187 
L 194.029556 302.068187 
L 194.029556 299.983715 
L 198.428647 299.983715 
L 198.428647 298.050649 
L 202.827738 298.050649 
L 202.827738 296.2373 
L 207.226829 296.2373 
L 207.226829 293.916917 
L 211.62592 293.916917 
L 211.62592 291.533154 
L 216.025012 291.533154 
L 216.025012 288.399404 
L 220.424103 288.399404 
L 220.424103 284.885379 
L 224.823194 284.885379 
L 224.823194 283.255125 
L 229.222285 283.255125 
L 229.222285 279.388993 
L 233.621376 279.388993 
L 233.621376 276.163696 
L 238.020468 276.163696 
L 238.020468 273.494727 
L 242.419559 273.494727 
L 242.419559 270.022955 
L 246.81865 270.022955 
L 246.81865 267.086385 
L 251.217741 267.086385 
L 251.217741 262.727304 
L 255.616832 262.727304 
L 255.616832 260.065377 
L 260.015924 260.065377 
L 260.015924 255.09363 
L 264.415015 255.09363 
L 264.415015 251.238062 
L 268.814106 251.238062 
L 268.814106 246.456452 
L 273.213197 246.456452 
L 273.213197 241.072741 
L 277.612288 241.072741 
L 277.612288 235.586918 
L 282.011379 235.586918 
L 282.011379 232.167962 
L 286.410471 232.167962 
L 286.410471 225.639903 
L 290.809562 225.639903 
L 290.809562 220.161123 
L 299.607744 220.235065 
L 299.607744 225.513145 
L 304.006835 225.513145 
L 304.006835 230.731367 
L 308.405927 230.731367 
L 308.405927 236.100994 
L 312.805018 236.100994 
L 312.805018 241.139641 
L 317.204109 241.139641 
L 317.204109 244.734651 
L 321.6032 244.734651 
L 321.6032 250.002167 
L 326.002291 250.002167 
L 326.002291 256.491494 
L 330.401383 256.491494 
L 330.401383 258.847088 
L 334.800474 258.847088 
L 334.800474 263.544191 
L 339.199565 263.544191 
L 339.199565 265.797674 
L 343.598656 265.797674 
L 343.598656 270.452525 
L 347.997747 270.452525 
L 347.997747 273.723596 
L 352.396838 273.723596 
L 352.396838 276.850304 
L 356.79593 276.850304 
L 356.79593 279.836169 
L 361.195021 279.836169 
L 361.195021 283.498079 
L 365.594112 283.498079 
L 365.594112 285.881841 
L 369.993203 285.881841 
L 369.993203 288.94517 
L 374.392294 288.94517 
L 374.392294 291.600054 
L 378.791386 291.600054 
L 378.791386 293.526078 
L 383.190477 293.526078 
L 383.190477 296.596449 
L 387.589568 296.596449 
L 387.589568 298.476698 
L 391.988659 298.476698 
L 391.988659 301.099894 
L 396.38775 301.099894 
L 396.38775 302.730148 
L 400.786842 302.730148 
L 400.786842 304.356881 
L 405.185933 304.356881 
L 405.185933 306.557548 
L 409.585024 306.557548 
L 409.585024 308.057522 
L 413.984115 308.057522 
L 413.984115 310.184247 
L 418.383206 310.184247 
L 418.383206 311.81098 
L 422.782297 311.81098 
L 422.782297 313.258138 
L 427.181389 313.258138 
L 427.181389 314.874308 
L 431.58048 314.874308 
L 431.58048 316.015134 
L 435.979571 316.015134 
L 435.979571 317.501024 
L 440.378662 317.501024 
L 440.378662 319.518596 
L 444.777753 319.518596 
L 444.777753 321.342509 
L 449.176845 321.342509 
L 449.176845 321.694615 
L 453.575936 321.694615 
L 453.575936 323.307264 
L 457.975027 323.307264 
L 457.975027 325.743842 
L 462.374118 325.743842 
L 462.374118 326.268481 
L 466.773209 326.268481 
L 466.773209 326.673404 
L 471.172301 326.673404 
L 471.172301 327.969157 
L 475.571392 327.969157 
L 475.571392 328.532528 
L 479.970483 328.532528 
L 479.970483 330.074755 
L 484.369574 330.074755 
L 484.369574 331.532477 
L 488.768665 331.532477 
L 488.768665 332.035989 
L 493.167756 332.035989 
L 493.167756 333.09231 
L 497.566848 333.09231 
L 497.566848 335.071149 
L 501.965939 335.071149 
L 501.965939 336.754219 
L 506.36503 336.754219 
L 506.36503 340.113317 
L 510.764121 340.113317 
L 510.764121 354.306739 
L 515.163212 354.306739 
L 515.163212 378 
L 515.163212 378 
" clip-path="url(#pcfa324faeb)" style="fill: none; stroke: #fc6983; stroke-linejoin: miter"/>
   </g>
   <g id="patch_104">
    <path d="M 80.679928 378 
L 80.679928 377.504416 
L 85.024382 377.504416 
L 85.024382 377.008833 
L 89.368836 377.008833 
L 89.368836 373.308001 
L 93.71329 373.308001 
L 93.71329 370.79443 
L 98.057744 370.79443 
L 98.057744 368.248771 
L 102.402199 368.248771 
L 102.402199 360.201778 
L 106.746653 360.201778 
L 106.746653 350.347153 
L 111.091107 350.347153 
L 111.091107 340.332088 
L 115.435561 340.332088 
L 115.435561 337.722253 
L 119.780016 337.722253 
L 119.780016 340.513921 
L 124.12447 340.513921 
L 124.12447 337.615292 
L 128.468924 337.615292 
L 128.468924 329.817874 
L 132.813378 329.817874 
L 132.813378 322.359164 
L 137.157833 322.359164 
L 137.157833 309.994534 
L 141.502287 309.994534 
L 141.502287 301.309343 
L 145.846741 301.309343 
L 145.846741 299.458927 
L 150.191195 299.458927 
L 150.191195 302.799659 
L 154.535649 302.799659 
L 154.535649 307.056686 
L 158.880104 307.056686 
L 158.880104 312.222877 
L 163.224558 312.222877 
L 163.224558 316.173283 
L 167.569012 316.173283 
L 167.569012 318.815207 
L 176.257921 318.911471 
L 176.257921 316.0378 
L 180.602375 316.0378 
L 180.602375 311.071269 
L 184.946829 311.071269 
L 184.946829 300.097125 
L 189.291283 300.097125 
L 189.291283 291.629421 
L 193.635738 291.629421 
L 193.635738 278.44476 
L 197.980192 278.44476 
L 197.980192 269.674002 
L 202.324646 269.674002 
L 202.324646 260.247219 
L 206.6691 260.247219 
L 206.6691 257.291545 
L 211.013554 257.291545 
L 211.013554 258.535852 
L 215.358009 258.535852 
L 215.358009 260.250785 
L 219.702463 260.250785 
L 219.702463 262.789313 
L 224.046917 262.789313 
L 224.046917 268.42613 
L 228.391371 268.42613 
L 228.391371 275.186031 
L 232.735826 275.186031 
L 232.735826 281.717751 
L 237.08028 281.717751 
L 237.08028 287.351002 
L 241.424734 287.351002 
L 241.424734 291.772035 
L 245.769188 291.772035 
L 245.769188 292.053698 
L 250.113643 292.053698 
L 250.113643 286.327747 
L 254.458097 286.327747 
L 254.458097 284.124361 
L 258.802551 284.124361 
L 258.802551 278.975997 
L 263.147005 278.975997 
L 263.147005 271.688424 
L 267.491459 271.688424 
L 267.491459 266.853811 
L 271.835914 266.853811 
L 271.835914 263.06028 
L 276.180368 263.06028 
L 276.180368 250.966616 
L 280.524822 250.966616 
L 280.524822 240.288396 
L 284.869276 240.288396 
L 284.869276 231.874172 
L 289.213731 231.874172 
L 289.213731 221.192387 
L 293.558185 221.192387 
L 293.558185 215.658965 
L 297.902639 215.658965 
L 297.902639 222.472347 
L 302.247093 222.472347 
L 302.247093 230.861613 
L 306.591548 230.861613 
L 306.591548 238.748165 
L 310.936002 238.748165 
L 310.936002 255.6087 
L 315.280456 255.6087 
L 315.280456 265.481152 
L 319.62491 265.481152 
L 319.62491 274.893673 
L 323.969364 274.893673 
L 323.969364 282.142027 
L 328.313819 282.142027 
L 328.313819 284.384632 
L 332.658273 284.384632 
L 332.658273 287.796671 
L 337.002727 287.796671 
L 337.002727 285.767987 
L 341.347181 285.767987 
L 341.347181 284.020966 
L 345.691636 284.020966 
L 345.691636 279.51793 
L 350.03609 279.51793 
L 350.03609 276.387554 
L 354.380544 276.387554 
L 354.380544 271.164318 
L 358.724998 271.164318 
L 358.724998 268.062464 
L 363.069453 268.062464 
L 363.069453 263.177936 
L 367.413907 263.177936 
L 367.413907 261.648401 
L 371.758361 261.648401 
L 371.758361 260.621581 
L 376.102815 260.621581 
L 376.102815 262.832097 
L 380.447269 262.832097 
L 380.447269 260.899678 
L 384.791724 260.899678 
L 384.791724 265.527501 
L 389.136178 265.527501 
L 389.136178 269.288944 
L 393.480632 269.288944 
L 393.480632 277.129147 
L 397.825086 277.129147 
L 397.825086 285.596851 
L 402.169541 285.596851 
L 402.169541 290.224673 
L 406.513995 290.224673 
L 406.513995 299.865377 
L 410.858449 299.865377 
L 410.858449 301.566049 
L 415.202903 301.566049 
L 415.202903 302.296945 
L 419.547358 302.296945 
L 419.547358 299.925988 
L 423.891812 299.925988 
L 423.891812 298.881341 
L 428.236266 298.881341 
L 428.236266 296.296463 
L 432.58072 296.296463 
L 432.58072 293.04843 
L 436.925174 293.04843 
L 436.925174 286.673586 
L 441.269629 286.673586 
L 441.269629 278.020484 
L 445.614083 278.020484 
L 445.614083 279.300444 
L 449.958537 279.300444 
L 449.958537 286.612975 
L 454.302991 286.612975 
L 454.302991 297.665557 
L 458.647446 297.665557 
L 458.647446 303.120541 
L 462.9919 303.120541 
L 462.9919 308.308123 
L 467.336354 308.308123 
L 467.336354 305.958559 
L 471.680808 305.958559 
L 471.680808 305.391668 
L 476.025263 305.391668 
L 476.025263 313.057168 
L 480.369717 313.057168 
L 480.369717 329.479166 
L 484.714171 329.479166 
L 484.714171 346.860242 
L 489.058625 346.860242 
L 489.058625 355.880575 
L 493.403079 355.880575 
L 493.403079 363.742169 
L 497.747534 363.742169 
L 497.747534 371.314971 
L 502.091988 371.314971 
L 502.091988 375.999839 
L 506.436442 375.999839 
L 506.436442 376.534642 
L 510.780896 376.534642 
L 510.780896 377.101532 
L 515.125351 377.101532 
L 515.125351 378 
L 515.125351 378 
" clip-path="url(#pcfa324faeb)" style="fill: none; stroke: #15215b; stroke-linejoin: miter"/>
   </g>
   <g id="patch_105">
    <path d="M 72 378 
L 72 51.84 
" style="fill: none; stroke: #000000; stroke-width: 0.8; stroke-linejoin: miter; stroke-linecap: square"/>
   </g>
   <g id="patch_106">
    <path d="M 518.4 378 
L 518.4 51.84 
" style="fill: none; stroke: #000000; stroke-width: 0.8; stroke-linejoin: miter; stroke-linecap: square"/>
   </g>
   <g id="patch_107">
    <path d="M 72 378 
L 518.4 378 
" style="fill: none; stroke: #000000; stroke-width: 0.8; stroke-linejoin: miter; stroke-linecap: square"/>
   </g>
   <g id="patch_108">
    <path d="M 72 51.84 
L 518.4 51.84 
" style="fill: none; stroke: #000000; stroke-width: 0.8; stroke-linejoin: miter; stroke-linecap: square"/>
   </g>
  </g>
 </g>
 <defs>
  <clipPath id="pcfa324faeb">
   <rect x="72" y="51.84" width="446.4" height="326.16"/>
  </clipPath>
 </defs>
</svg>
