<?xml version="1.0" encoding="utf-8" standalone="no"?>
<!DOCTYPE svg PUBLIC "-//W3C//DTD SVG 1.1//EN"
  "http://www.w3.org/Graphics/SVG/1.1/DTD/svg11.dtd">
<svg xmlns:xlink="http://www.w3.org/1999/xlink" width="576pt" height="432pt" viewBox="0 0 576 432" xmlns="http://www.w3.org/2000/svg" version="1.1">
 <metadata>
  <rdf:RDF xmlns:dc="http://purl.org/dc/elements/1.1/" xmlns:cc="http://creativecommons.org/ns#" xmlns:rdf="http://www.w3.org/1999/02/22-rdf-syntax-ns#">
   <cc:Work>
    <dc:type rdf:resource="http://purl.org/dc/dcmitype/StillImage"/>
    <dc:date>2022-03-08T14:12:40.110137</dc:date>
    <dc:format>image/svg+xml</dc:format>
    <dc:creator>
     <cc:Agent>
      <dc:title>Matplotlib v3.5.1, https://matplotlib.org/</dc:title>
     </cc:Agent>
    </dc:creator>
   </cc:Work>
  </rdf:RDF>
 </metadata>
 <defs>
  <style type="text/css">*{stroke-linejoin: round; stroke-linecap: butt}</style>
 </defs>
 <g id="figure_1">
  <g id="patch_1">
   <path d="M 0 432 
L 576 432 
L 576 0 
L 0 0 
L 0 432 
z
" style="fill: none"/>
  </g>
  <g id="axes_1">
   <g id="patch_2">
    <path d="M 72 378 
L 518.4 378 
L 518.4 51.84 
L 72 51.84 
z
" style="fill: #ffffff"/>
   </g>
   <g id="patch_3">
    <path d="M 77.695189 378 
L 81.958405 378 
L 81.958405 374.695441 
L 77.695189 374.695441 
z
" clip-path="url(#p9e4cab44e8)" style="fill: #a3e301"/>
   </g>
   <g id="patch_4">
    <path d="M 81.958405 378 
L 86.221621 378 
L 86.221621 375.79696 
L 81.958405 375.79696 
z
" clip-path="url(#p9e4cab44e8)" style="fill: #a3e301"/>
   </g>
   <g id="patch_5">
    <path d="M 86.221621 378 
L 90.484836 378 
L 90.484836 376.89848 
L 86.221621 376.89848 
z
" clip-path="url(#p9e4cab44e8)" style="fill: #a3e301"/>
   </g>
   <g id="patch_6">
    <path d="M 90.484836 378 
L 94.748052 378 
L 94.748052 375.79696 
L 90.484836 375.79696 
z
" clip-path="url(#p9e4cab44e8)" style="fill: #a3e301"/>
   </g>
   <g id="patch_7">
    <path d="M 94.748052 378 
L 99.011268 378 
L 99.011268 368.086322 
L 94.748052 368.086322 
z
" clip-path="url(#p9e4cab44e8)" style="fill: #a3e301"/>
   </g>
   <g id="patch_8">
    <path d="M 99.011268 378 
L 103.274484 378 
L 103.274484 358.172644 
L 99.011268 358.172644 
z
" clip-path="url(#p9e4cab44e8)" style="fill: #a3e301"/>
   </g>
   <g id="patch_9">
    <path d="M 103.274484 378 
L 107.5377 378 
L 107.5377 357.071125 
L 103.274484 357.071125 
z
" clip-path="url(#p9e4cab44e8)" style="fill: #a3e301"/>
   </g>
   <g id="patch_10">
    <path d="M 107.5377 378 
L 111.800916 378 
L 111.800916 355.969605 
L 107.5377 355.969605 
z
" clip-path="url(#p9e4cab44e8)" style="fill: #a3e301"/>
   </g>
   <g id="patch_11">
    <path d="M 111.800916 378 
L 116.064131 378 
L 116.064131 348.258967 
L 111.800916 348.258967 
z
" clip-path="url(#p9e4cab44e8)" style="fill: #a3e301"/>
   </g>
   <g id="patch_12">
    <path d="M 116.064131 378 
L 120.327347 378 
L 120.327347 349.360486 
L 116.064131 349.360486 
z
" clip-path="url(#p9e4cab44e8)" style="fill: #a3e301"/>
   </g>
   <g id="patch_13">
    <path d="M 120.327347 378 
L 124.590563 378 
L 124.590563 352.665046 
L 120.327347 352.665046 
z
" clip-path="url(#p9e4cab44e8)" style="fill: #a3e301"/>
   </g>
   <g id="patch_14">
    <path d="M 124.590563 378 
L 128.853779 378 
L 128.853779 344.954407 
L 124.590563 344.954407 
z
" clip-path="url(#p9e4cab44e8)" style="fill: #a3e301"/>
   </g>
   <g id="patch_15">
    <path d="M 128.853779 378 
L 133.116995 378 
L 133.116995 337.243769 
L 128.853779 337.243769 
z
" clip-path="url(#p9e4cab44e8)" style="fill: #a3e301"/>
   </g>
   <g id="patch_16">
    <path d="M 133.116995 378 
L 137.380211 378 
L 137.380211 311.908815 
L 133.116995 311.908815 
z
" clip-path="url(#p9e4cab44e8)" style="fill: #a3e301"/>
   </g>
   <g id="patch_17">
    <path d="M 137.380211 378 
L 141.643426 378 
L 141.643426 294.284498 
L 137.380211 294.284498 
z
" clip-path="url(#p9e4cab44e8)" style="fill: #a3e301"/>
   </g>
   <g id="patch_18">
    <path d="M 141.643426 378 
L 145.906642 378 
L 145.906642 270.051064 
L 141.643426 270.051064 
z
" clip-path="url(#p9e4cab44e8)" style="fill: #a3e301"/>
   </g>
   <g id="patch_19">
    <path d="M 145.906642 378 
L 150.169858 378 
L 150.169858 244.716109 
L 145.906642 244.716109 
z
" clip-path="url(#p9e4cab44e8)" style="fill: #a3e301"/>
   </g>
   <g id="patch_20">
    <path d="M 150.169858 378 
L 154.433074 378 
L 154.433074 205.061398 
L 150.169858 205.061398 
z
" clip-path="url(#p9e4cab44e8)" style="fill: #a3e301"/>
   </g>
   <g id="patch_21">
    <path d="M 154.433074 378 
L 158.69629 378 
L 158.69629 200.655319 
L 154.433074 200.655319 
z
" clip-path="url(#p9e4cab44e8)" style="fill: #a3e301"/>
   </g>
   <g id="patch_22">
    <path d="M 158.69629 378 
L 162.959506 378 
L 162.959506 148.883891 
L 158.69629 148.883891 
z
" clip-path="url(#p9e4cab44e8)" style="fill: #a3e301"/>
   </g>
   <g id="patch_23">
    <path d="M 162.959506 378 
L 167.222721 378 
L 167.222721 147.782371 
L 162.959506 147.782371 
z
" clip-path="url(#p9e4cab44e8)" style="fill: #a3e301"/>
   </g>
   <g id="patch_24">
    <path d="M 167.222721 378 
L 171.485937 378 
L 171.485937 116.939818 
L 167.222721 116.939818 
z
" clip-path="url(#p9e4cab44e8)" style="fill: #a3e301"/>
   </g>
   <g id="patch_25">
    <path d="M 171.485937 378 
L 175.749153 378 
L 175.749153 134.564134 
L 171.485937 134.564134 
z
" clip-path="url(#p9e4cab44e8)" style="fill: #a3e301"/>
   </g>
   <g id="patch_26">
    <path d="M 175.749153 378 
L 180.012369 378 
L 180.012369 159.899088 
L 175.749153 159.899088 
z
" clip-path="url(#p9e4cab44e8)" style="fill: #a3e301"/>
   </g>
   <g id="patch_27">
    <path d="M 180.012369 378 
L 184.275585 378 
L 184.275585 154.391489 
L 180.012369 154.391489 
z
" clip-path="url(#p9e4cab44e8)" style="fill: #a3e301"/>
   </g>
   <g id="patch_28">
    <path d="M 184.275585 378 
L 188.538801 378 
L 188.538801 148.883891 
L 184.275585 148.883891 
z
" clip-path="url(#p9e4cab44e8)" style="fill: #a3e301"/>
   </g>
   <g id="patch_29">
    <path d="M 188.538801 378 
L 192.802016 378 
L 192.802016 183.031003 
L 188.538801 183.031003 
z
" clip-path="url(#p9e4cab44e8)" style="fill: #a3e301"/>
   </g>
   <g id="patch_30">
    <path d="M 192.802016 378 
L 197.065232 378 
L 197.065232 183.031003 
L 192.802016 183.031003 
z
" clip-path="url(#p9e4cab44e8)" style="fill: #a3e301"/>
   </g>
   <g id="patch_31">
    <path d="M 197.065232 378 
L 201.328448 378 
L 201.328448 151.08693 
L 197.065232 151.08693 
z
" clip-path="url(#p9e4cab44e8)" style="fill: #a3e301"/>
   </g>
   <g id="patch_32">
    <path d="M 201.328448 378 
L 205.591664 378 
L 205.591664 142.274772 
L 201.328448 142.274772 
z
" clip-path="url(#p9e4cab44e8)" style="fill: #a3e301"/>
   </g>
   <g id="patch_33">
    <path d="M 205.591664 378 
L 209.85488 378 
L 209.85488 115.838298 
L 205.591664 115.838298 
z
" clip-path="url(#p9e4cab44e8)" style="fill: #a3e301"/>
   </g>
   <g id="patch_34">
    <path d="M 209.85488 378 
L 214.118096 378 
L 214.118096 93.807903 
L 209.85488 93.807903 
z
" clip-path="url(#p9e4cab44e8)" style="fill: #a3e301"/>
   </g>
   <g id="patch_35">
    <path d="M 214.118096 378 
L 218.381311 378 
L 218.381311 80.589666 
L 214.118096 80.589666 
z
" clip-path="url(#p9e4cab44e8)" style="fill: #a3e301"/>
   </g>
   <g id="patch_36">
    <path d="M 218.381311 378 
L 222.644527 378 
L 222.644527 108.12766 
L 218.381311 108.12766 
z
" clip-path="url(#p9e4cab44e8)" style="fill: #a3e301"/>
   </g>
   <g id="patch_37">
    <path d="M 222.644527 378 
L 226.907743 378 
L 226.907743 125.751976 
L 222.644527 125.751976 
z
" clip-path="url(#p9e4cab44e8)" style="fill: #a3e301"/>
   </g>
   <g id="patch_38">
    <path d="M 226.907743 378 
L 231.170959 378 
L 231.170959 147.782371 
L 226.907743 147.782371 
z
" clip-path="url(#p9e4cab44e8)" style="fill: #a3e301"/>
   </g>
   <g id="patch_39">
    <path d="M 231.170959 378 
L 235.434175 378 
L 235.434175 153.28997 
L 231.170959 153.28997 
z
" clip-path="url(#p9e4cab44e8)" style="fill: #a3e301"/>
   </g>
   <g id="patch_40">
    <path d="M 235.434175 378 
L 239.697391 378 
L 239.697391 188.538602 
L 235.434175 188.538602 
z
" clip-path="url(#p9e4cab44e8)" style="fill: #a3e301"/>
   </g>
   <g id="patch_41">
    <path d="M 239.697391 378 
L 243.960606 378 
L 243.960606 184.132523 
L 239.697391 184.132523 
z
" clip-path="url(#p9e4cab44e8)" style="fill: #a3e301"/>
   </g>
   <g id="patch_42">
    <path d="M 243.960606 378 
L 248.223822 378 
L 248.223822 177.523404 
L 243.960606 177.523404 
z
" clip-path="url(#p9e4cab44e8)" style="fill: #a3e301"/>
   </g>
   <g id="patch_43">
    <path d="M 248.223822 378 
L 252.487038 378 
L 252.487038 199.553799 
L 248.223822 199.553799 
z
" clip-path="url(#p9e4cab44e8)" style="fill: #a3e301"/>
   </g>
   <g id="patch_44">
    <path d="M 252.487038 378 
L 256.750254 378 
L 256.750254 159.899088 
L 252.487038 159.899088 
z
" clip-path="url(#p9e4cab44e8)" style="fill: #a3e301"/>
   </g>
   <g id="patch_45">
    <path d="M 256.750254 378 
L 261.01347 378 
L 261.01347 134.564134 
L 256.750254 134.564134 
z
" clip-path="url(#p9e4cab44e8)" style="fill: #a3e301"/>
   </g>
   <g id="patch_46">
    <path d="M 261.01347 378 
L 265.276686 378 
L 265.276686 92.706383 
L 261.01347 92.706383 
z
" clip-path="url(#p9e4cab44e8)" style="fill: #a3e301"/>
   </g>
   <g id="patch_47">
    <path d="M 265.276686 378 
L 269.539901 378 
L 269.539901 67.371429 
L 265.276686 67.371429 
z
" clip-path="url(#p9e4cab44e8)" style="fill: #a3e301"/>
   </g>
   <g id="patch_48">
    <path d="M 269.539901 378 
L 273.803117 378 
L 273.803117 111.432219 
L 269.539901 111.432219 
z
" clip-path="url(#p9e4cab44e8)" style="fill: #a3e301"/>
   </g>
   <g id="patch_49">
    <path d="M 273.803117 378 
L 278.066333 378 
L 278.066333 114.736778 
L 273.803117 114.736778 
z
" clip-path="url(#p9e4cab44e8)" style="fill: #a3e301"/>
   </g>
   <g id="patch_50">
    <path d="M 278.066333 378 
L 282.329549 378 
L 282.329549 114.736778 
L 278.066333 114.736778 
z
" clip-path="url(#p9e4cab44e8)" style="fill: #a3e301"/>
   </g>
   <g id="patch_51">
    <path d="M 282.329549 378 
L 286.592765 378 
L 286.592765 159.899088 
L 282.329549 159.899088 
z
" clip-path="url(#p9e4cab44e8)" style="fill: #a3e301"/>
   </g>
   <g id="patch_52">
    <path d="M 286.592765 378 
L 290.855981 378 
L 290.855981 175.320365 
L 286.592765 175.320365 
z
" clip-path="url(#p9e4cab44e8)" style="fill: #a3e301"/>
   </g>
   <g id="patch_53">
    <path d="M 290.855981 378 
L 295.119196 378 
L 295.119196 249.122188 
L 290.855981 249.122188 
z
" clip-path="url(#p9e4cab44e8)" style="fill: #a3e301"/>
   </g>
   <g id="patch_54">
    <path d="M 295.119196 378 
L 299.382412 378 
L 299.382412 260.137386 
L 295.119196 260.137386 
z
" clip-path="url(#p9e4cab44e8)" style="fill: #a3e301"/>
   </g>
   <g id="patch_55">
    <path d="M 299.382412 378 
L 303.645628 378 
L 303.645628 277.761702 
L 299.382412 277.761702 
z
" clip-path="url(#p9e4cab44e8)" style="fill: #a3e301"/>
   </g>
   <g id="patch_56">
    <path d="M 303.645628 378 
L 307.908844 378 
L 307.908844 289.878419 
L 303.645628 289.878419 
z
" clip-path="url(#p9e4cab44e8)" style="fill: #a3e301"/>
   </g>
   <g id="patch_57">
    <path d="M 307.908844 378 
L 312.17206 378 
L 312.17206 306.401216 
L 307.908844 306.401216 
z
" clip-path="url(#p9e4cab44e8)" style="fill: #a3e301"/>
   </g>
   <g id="patch_58">
    <path d="M 312.17206 378 
L 316.435276 378 
L 316.435276 321.822492 
L 312.17206 321.822492 
z
" clip-path="url(#p9e4cab44e8)" style="fill: #a3e301"/>
   </g>
   <g id="patch_59">
    <path d="M 316.435276 378 
L 320.698491 378 
L 320.698491 297.589058 
L 316.435276 297.589058 
z
" clip-path="url(#p9e4cab44e8)" style="fill: #a3e301"/>
   </g>
   <g id="patch_60">
    <path d="M 320.698491 378 
L 324.961707 378 
L 324.961707 286.57386 
L 320.698491 286.57386 
z
" clip-path="url(#p9e4cab44e8)" style="fill: #a3e301"/>
   </g>
   <g id="patch_61">
    <path d="M 324.961707 378 
L 329.224923 378 
L 329.224923 297.589058 
L 324.961707 297.589058 
z
" clip-path="url(#p9e4cab44e8)" style="fill: #a3e301"/>
   </g>
   <g id="patch_62">
    <path d="M 329.224923 378 
L 333.488139 378 
L 333.488139 285.47234 
L 329.224923 285.47234 
z
" clip-path="url(#p9e4cab44e8)" style="fill: #a3e301"/>
   </g>
   <g id="patch_63">
    <path d="M 333.488139 378 
L 337.751355 378 
L 337.751355 315.213374 
L 333.488139 315.213374 
z
" clip-path="url(#p9e4cab44e8)" style="fill: #a3e301"/>
   </g>
   <g id="patch_64">
    <path d="M 337.751355 378 
L 342.014571 378 
L 342.014571 313.010334 
L 337.751355 313.010334 
z
" clip-path="url(#p9e4cab44e8)" style="fill: #a3e301"/>
   </g>
   <g id="patch_65">
    <path d="M 342.014571 378 
L 346.277786 378 
L 346.277786 298.690578 
L 342.014571 298.690578 
z
" clip-path="url(#p9e4cab44e8)" style="fill: #a3e301"/>
   </g>
   <g id="patch_66">
    <path d="M 346.277786 378 
L 350.541002 378 
L 350.541002 303.096657 
L 346.277786 303.096657 
z
" clip-path="url(#p9e4cab44e8)" style="fill: #a3e301"/>
   </g>
   <g id="patch_67">
    <path d="M 350.541002 378 
L 354.804218 378 
L 354.804218 306.401216 
L 350.541002 306.401216 
z
" clip-path="url(#p9e4cab44e8)" style="fill: #a3e301"/>
   </g>
   <g id="patch_68">
    <path d="M 354.804218 378 
L 359.067434 378 
L 359.067434 286.57386 
L 354.804218 286.57386 
z
" clip-path="url(#p9e4cab44e8)" style="fill: #a3e301"/>
   </g>
   <g id="patch_69">
    <path d="M 359.067434 378 
L 363.33065 378 
L 363.33065 262.340426 
L 359.067434 262.340426 
z
" clip-path="url(#p9e4cab44e8)" style="fill: #a3e301"/>
   </g>
   <g id="patch_70">
    <path d="M 363.33065 378 
L 367.593866 378 
L 367.593866 260.137386 
L 363.33065 260.137386 
z
" clip-path="url(#p9e4cab44e8)" style="fill: #a3e301"/>
   </g>
   <g id="patch_71">
    <path d="M 367.593866 378 
L 371.857081 378 
L 371.857081 184.132523 
L 367.593866 184.132523 
z
" clip-path="url(#p9e4cab44e8)" style="fill: #a3e301"/>
   </g>
   <g id="patch_72">
    <path d="M 371.857081 378 
L 376.120297 378 
L 376.120297 176.421884 
L 371.857081 176.421884 
z
" clip-path="url(#p9e4cab44e8)" style="fill: #a3e301"/>
   </g>
   <g id="patch_73">
    <path d="M 376.120297 378 
L 380.383513 378 
L 380.383513 141.173252 
L 376.120297 141.173252 
z
" clip-path="url(#p9e4cab44e8)" style="fill: #a3e301"/>
   </g>
   <g id="patch_74">
    <path d="M 380.383513 378 
L 384.646729 378 
L 384.646729 143.376292 
L 380.383513 143.376292 
z
" clip-path="url(#p9e4cab44e8)" style="fill: #a3e301"/>
   </g>
   <g id="patch_75">
    <path d="M 384.646729 378 
L 388.909945 378 
L 388.909945 132.361094 
L 384.646729 132.361094 
z
" clip-path="url(#p9e4cab44e8)" style="fill: #a3e301"/>
   </g>
   <g id="patch_76">
    <path d="M 388.909945 378 
L 393.173161 378 
L 393.173161 127.955015 
L 388.909945 127.955015 
z
" clip-path="url(#p9e4cab44e8)" style="fill: #a3e301"/>
   </g>
   <g id="patch_77">
    <path d="M 393.173161 378 
L 397.436376 378 
L 397.436376 91.604863 
L 393.173161 91.604863 
z
" clip-path="url(#p9e4cab44e8)" style="fill: #a3e301"/>
   </g>
   <g id="patch_78">
    <path d="M 397.436376 378 
L 401.699592 378 
L 401.699592 109.229179 
L 397.436376 109.229179 
z
" clip-path="url(#p9e4cab44e8)" style="fill: #a3e301"/>
   </g>
   <g id="patch_79">
    <path d="M 401.699592 378 
L 405.962808 378 
L 405.962808 135.665653 
L 401.699592 135.665653 
z
" clip-path="url(#p9e4cab44e8)" style="fill: #a3e301"/>
   </g>
   <g id="patch_80">
    <path d="M 405.962808 378 
L 410.226024 378 
L 410.226024 134.564134 
L 405.962808 134.564134 
z
" clip-path="url(#p9e4cab44e8)" style="fill: #a3e301"/>
   </g>
   <g id="patch_81">
    <path d="M 410.226024 378 
L 414.48924 378 
L 414.48924 179.726444 
L 410.226024 179.726444 
z
" clip-path="url(#p9e4cab44e8)" style="fill: #a3e301"/>
   </g>
   <g id="patch_82">
    <path d="M 414.48924 378 
L 418.752456 378 
L 418.752456 183.031003 
L 414.48924 183.031003 
z
" clip-path="url(#p9e4cab44e8)" style="fill: #a3e301"/>
   </g>
   <g id="patch_83">
    <path d="M 418.752456 378 
L 423.015671 378 
L 423.015671 200.655319 
L 418.752456 200.655319 
z
" clip-path="url(#p9e4cab44e8)" style="fill: #a3e301"/>
   </g>
   <g id="patch_84">
    <path d="M 423.015671 378 
L 427.278887 378 
L 427.278887 181.929483 
L 423.015671 181.929483 
z
" clip-path="url(#p9e4cab44e8)" style="fill: #a3e301"/>
   </g>
   <g id="patch_85">
    <path d="M 427.278887 378 
L 431.542103 378 
L 431.542103 199.553799 
L 427.278887 199.553799 
z
" clip-path="url(#p9e4cab44e8)" style="fill: #a3e301"/>
   </g>
   <g id="patch_86">
    <path d="M 431.542103 378 
L 435.805319 378 
L 435.805319 200.655319 
L 431.542103 200.655319 
z
" clip-path="url(#p9e4cab44e8)" style="fill: #a3e301"/>
   </g>
   <g id="patch_87">
    <path d="M 435.805319 378 
L 440.068535 378 
L 440.068535 209.467477 
L 435.805319 209.467477 
z
" clip-path="url(#p9e4cab44e8)" style="fill: #a3e301"/>
   </g>
   <g id="patch_88">
    <path d="M 440.068535 378 
L 444.331751 378 
L 444.331751 162.102128 
L 440.068535 162.102128 
z
" clip-path="url(#p9e4cab44e8)" style="fill: #a3e301"/>
   </g>
   <g id="patch_89">
    <path d="M 444.331751 378 
L 448.594966 378 
L 448.594966 161.000608 
L 444.331751 161.000608 
z
" clip-path="url(#p9e4cab44e8)" style="fill: #a3e301"/>
   </g>
   <g id="patch_90">
    <path d="M 448.594966 378 
L 452.858182 378 
L 452.858182 192.944681 
L 448.594966 192.944681 
z
" clip-path="url(#p9e4cab44e8)" style="fill: #a3e301"/>
   </g>
   <g id="patch_91">
    <path d="M 452.858182 378 
L 457.121398 378 
L 457.121398 169.812766 
L 452.858182 169.812766 
z
" clip-path="url(#p9e4cab44e8)" style="fill: #a3e301"/>
   </g>
   <g id="patch_92">
    <path d="M 457.121398 378 
L 461.384614 378 
L 461.384614 173.117325 
L 457.121398 173.117325 
z
" clip-path="url(#p9e4cab44e8)" style="fill: #a3e301"/>
   </g>
   <g id="patch_93">
    <path d="M 461.384614 378 
L 465.64783 378 
L 465.64783 175.320365 
L 461.384614 175.320365 
z
" clip-path="url(#p9e4cab44e8)" style="fill: #a3e301"/>
   </g>
   <g id="patch_94">
    <path d="M 465.64783 378 
L 469.911046 378 
L 469.911046 262.340426 
L 465.64783 262.340426 
z
" clip-path="url(#p9e4cab44e8)" style="fill: #a3e301"/>
   </g>
   <g id="patch_95">
    <path d="M 469.911046 378 
L 474.174261 378 
L 474.174261 275.558663 
L 469.911046 275.558663 
z
" clip-path="url(#p9e4cab44e8)" style="fill: #a3e301"/>
   </g>
   <g id="patch_96">
    <path d="M 474.174261 378 
L 478.437477 378 
L 478.437477 309.705775 
L 474.174261 309.705775 
z
" clip-path="url(#p9e4cab44e8)" style="fill: #a3e301"/>
   </g>
   <g id="patch_97">
    <path d="M 478.437477 378 
L 482.700693 378 
L 482.700693 338.345289 
L 478.437477 338.345289 
z
" clip-path="url(#p9e4cab44e8)" style="fill: #a3e301"/>
   </g>
   <g id="patch_98">
    <path d="M 482.700693 378 
L 486.963909 378 
L 486.963909 362.578723 
L 482.700693 362.578723 
z
" clip-path="url(#p9e4cab44e8)" style="fill: #a3e301"/>
   </g>
   <g id="patch_99">
    <path d="M 486.963909 378 
L 491.227125 378 
L 491.227125 371.390881 
L 486.963909 371.390881 
z
" clip-path="url(#p9e4cab44e8)" style="fill: #a3e301"/>
   </g>
   <g id="patch_100">
    <path d="M 491.227125 378 
L 495.490341 378 
L 495.490341 372.492401 
L 491.227125 372.492401 
z
" clip-path="url(#p9e4cab44e8)" style="fill: #a3e301"/>
   </g>
   <g id="patch_101">
    <path d="M 495.490341 378 
L 499.753556 378 
L 499.753556 376.89848 
L 495.490341 376.89848 
z
" clip-path="url(#p9e4cab44e8)" style="fill: #a3e301"/>
   </g>
   <g id="patch_102">
    <path d="M 499.753556 378 
L 504.016772 378 
L 504.016772 375.79696 
L 499.753556 375.79696 
z
" clip-path="url(#p9e4cab44e8)" style="fill: #a3e301"/>
   </g>
   <g id="matplotlib.axis_1">
    <g id="xtick_1">
     <g id="line2d_1">
      <defs>
       <path id="me5bde96214" d="M 0 0 
L 0 3.5 
" style="stroke: #000000; stroke-width: 0.8"/>
      </defs>
      <g>
       <use xlink:href="#me5bde96214" x="72" y="378" style="stroke: #000000; stroke-width: 0.8"/>
      </g>
     </g>
     <g id="text_1">
      <!-- 0.00 -->
      <g transform="translate(60.867188 392.598437)scale(0.1 -0.1)">
       <defs>
        <path id="DejaVuSans-30" d="M 2034 4250 
Q 1547 4250 1301 3770 
Q 1056 3291 1056 2328 
Q 1056 1369 1301 889 
Q 1547 409 2034 409 
Q 2525 409 2770 889 
Q 3016 1369 3016 2328 
Q 3016 3291 2770 3770 
Q 2525 4250 2034 4250 
z
M 2034 4750 
Q 2819 4750 3233 4129 
Q 3647 3509 3647 2328 
Q 3647 1150 3233 529 
Q 2819 -91 2034 -91 
Q 1250 -91 836 529 
Q 422 1150 422 2328 
Q 422 3509 836 4129 
Q 1250 4750 2034 4750 
z
" transform="scale(0.015625)"/>
        <path id="DejaVuSans-2e" d="M 684 794 
L 1344 794 
L 1344 0 
L 684 0 
L 684 794 
z
" transform="scale(0.015625)"/>
       </defs>
       <use xlink:href="#DejaVuSans-30"/>
       <use xlink:href="#DejaVuSans-2e" x="63.623047"/>
       <use xlink:href="#DejaVuSans-30" x="95.410156"/>
       <use xlink:href="#DejaVuSans-30" x="159.033203"/>
      </g>
     </g>
    </g>
    <g id="xtick_2">
     <g id="line2d_2">
      <g>
       <use xlink:href="#me5bde96214" x="183.6" y="378" style="stroke: #000000; stroke-width: 0.8"/>
      </g>
     </g>
     <g id="text_2">
      <!-- 0.25 -->
      <g transform="translate(172.467187 392.598437)scale(0.1 -0.1)">
       <defs>
        <path id="DejaVuSans-32" d="M 1228 531 
L 3431 531 
L 3431 0 
L 469 0 
L 469 531 
Q 828 903 1448 1529 
Q 2069 2156 2228 2338 
Q 2531 2678 2651 2914 
Q 2772 3150 2772 3378 
Q 2772 3750 2511 3984 
Q 2250 4219 1831 4219 
Q 1534 4219 1204 4116 
Q 875 4013 500 3803 
L 500 4441 
Q 881 4594 1212 4672 
Q 1544 4750 1819 4750 
Q 2544 4750 2975 4387 
Q 3406 4025 3406 3419 
Q 3406 3131 3298 2873 
Q 3191 2616 2906 2266 
Q 2828 2175 2409 1742 
Q 1991 1309 1228 531 
z
" transform="scale(0.015625)"/>
        <path id="DejaVuSans-35" d="M 691 4666 
L 3169 4666 
L 3169 4134 
L 1269 4134 
L 1269 2991 
Q 1406 3038 1543 3061 
Q 1681 3084 1819 3084 
Q 2600 3084 3056 2656 
Q 3513 2228 3513 1497 
Q 3513 744 3044 326 
Q 2575 -91 1722 -91 
Q 1428 -91 1123 -41 
Q 819 9 494 109 
L 494 744 
Q 775 591 1075 516 
Q 1375 441 1709 441 
Q 2250 441 2565 725 
Q 2881 1009 2881 1497 
Q 2881 1984 2565 2268 
Q 2250 2553 1709 2553 
Q 1456 2553 1204 2497 
Q 953 2441 691 2322 
L 691 4666 
z
" transform="scale(0.015625)"/>
       </defs>
       <use xlink:href="#DejaVuSans-30"/>
       <use xlink:href="#DejaVuSans-2e" x="63.623047"/>
       <use xlink:href="#DejaVuSans-32" x="95.410156"/>
       <use xlink:href="#DejaVuSans-35" x="159.033203"/>
      </g>
     </g>
    </g>
    <g id="xtick_3">
     <g id="line2d_3">
      <g>
       <use xlink:href="#me5bde96214" x="295.2" y="378" style="stroke: #000000; stroke-width: 0.8"/>
      </g>
     </g>
     <g id="text_3">
      <!-- 0.50 -->
      <g transform="translate(284.067187 392.598437)scale(0.1 -0.1)">
       <use xlink:href="#DejaVuSans-30"/>
       <use xlink:href="#DejaVuSans-2e" x="63.623047"/>
       <use xlink:href="#DejaVuSans-35" x="95.410156"/>
       <use xlink:href="#DejaVuSans-30" x="159.033203"/>
      </g>
     </g>
    </g>
    <g id="xtick_4">
     <g id="line2d_4">
      <g>
       <use xlink:href="#me5bde96214" x="406.8" y="378" style="stroke: #000000; stroke-width: 0.8"/>
      </g>
     </g>
     <g id="text_4">
      <!-- 0.75 -->
      <g transform="translate(395.667187 392.598437)scale(0.1 -0.1)">
       <defs>
        <path id="DejaVuSans-37" d="M 525 4666 
L 3525 4666 
L 3525 4397 
L 1831 0 
L 1172 0 
L 2766 4134 
L 525 4134 
L 525 4666 
z
" transform="scale(0.015625)"/>
       </defs>
       <use xlink:href="#DejaVuSans-30"/>
       <use xlink:href="#DejaVuSans-2e" x="63.623047"/>
       <use xlink:href="#DejaVuSans-37" x="95.410156"/>
       <use xlink:href="#DejaVuSans-35" x="159.033203"/>
      </g>
     </g>
    </g>
    <g id="xtick_5">
     <g id="line2d_5">
      <g>
       <use xlink:href="#me5bde96214" x="518.4" y="378" style="stroke: #000000; stroke-width: 0.8"/>
      </g>
     </g>
     <g id="text_5">
      <!-- 1.00 -->
      <g transform="translate(507.267187 392.598437)scale(0.1 -0.1)">
       <defs>
        <path id="DejaVuSans-31" d="M 794 531 
L 1825 531 
L 1825 4091 
L 703 3866 
L 703 4441 
L 1819 4666 
L 2450 4666 
L 2450 531 
L 3481 531 
L 3481 0 
L 794 0 
L 794 531 
z
" transform="scale(0.015625)"/>
       </defs>
       <use xlink:href="#DejaVuSans-31"/>
       <use xlink:href="#DejaVuSans-2e" x="63.623047"/>
       <use xlink:href="#DejaVuSans-30" x="95.410156"/>
       <use xlink:href="#DejaVuSans-30" x="159.033203"/>
      </g>
     </g>
    </g>
   </g>
   <g id="matplotlib.axis_2">
    <g id="ytick_1">
     <g id="line2d_6">
      <defs>
       <path id="m515912ebdc" d="M 0 0 
L -3.5 0 
" style="stroke: #000000; stroke-width: 0.8"/>
      </defs>
      <g>
       <use xlink:href="#m515912ebdc" x="72" y="378" style="stroke: #000000; stroke-width: 0.8"/>
      </g>
     </g>
     <g id="text_6">
      <!-- 0.00 -->
      <g transform="translate(42.734375 381.799219)scale(0.1 -0.1)">
       <use xlink:href="#DejaVuSans-30"/>
       <use xlink:href="#DejaVuSans-2e" x="63.623047"/>
       <use xlink:href="#DejaVuSans-30" x="95.410156"/>
       <use xlink:href="#DejaVuSans-30" x="159.033203"/>
      </g>
     </g>
    </g>
    <g id="ytick_2">
     <g id="line2d_7">
      <g>
       <use xlink:href="#m515912ebdc" x="72" y="341.725272" style="stroke: #000000; stroke-width: 0.8"/>
      </g>
     </g>
     <g id="text_7">
      <!-- 0.25 -->
      <g transform="translate(42.734375 345.52449)scale(0.1 -0.1)">
       <use xlink:href="#DejaVuSans-30"/>
       <use xlink:href="#DejaVuSans-2e" x="63.623047"/>
       <use xlink:href="#DejaVuSans-32" x="95.410156"/>
       <use xlink:href="#DejaVuSans-35" x="159.033203"/>
      </g>
     </g>
    </g>
    <g id="ytick_3">
     <g id="line2d_8">
      <g>
       <use xlink:href="#m515912ebdc" x="72" y="305.450543" style="stroke: #000000; stroke-width: 0.8"/>
      </g>
     </g>
     <g id="text_8">
      <!-- 0.50 -->
      <g transform="translate(42.734375 309.249762)scale(0.1 -0.1)">
       <use xlink:href="#DejaVuSans-30"/>
       <use xlink:href="#DejaVuSans-2e" x="63.623047"/>
       <use xlink:href="#DejaVuSans-35" x="95.410156"/>
       <use xlink:href="#DejaVuSans-30" x="159.033203"/>
      </g>
     </g>
    </g>
    <g id="ytick_4">
     <g id="line2d_9">
      <g>
       <use xlink:href="#m515912ebdc" x="72" y="269.175815" style="stroke: #000000; stroke-width: 0.8"/>
      </g>
     </g>
     <g id="text_9">
      <!-- 0.75 -->
      <g transform="translate(42.734375 272.975033)scale(0.1 -0.1)">
       <use xlink:href="#DejaVuSans-30"/>
       <use xlink:href="#DejaVuSans-2e" x="63.623047"/>
       <use xlink:href="#DejaVuSans-37" x="95.410156"/>
       <use xlink:href="#DejaVuSans-35" x="159.033203"/>
      </g>
     </g>
    </g>
    <g id="ytick_5">
     <g id="line2d_10">
      <g>
       <use xlink:href="#m515912ebdc" x="72" y="232.901086" style="stroke: #000000; stroke-width: 0.8"/>
      </g>
     </g>
     <g id="text_10">
      <!-- 1.00 -->
      <g transform="translate(42.734375 236.700305)scale(0.1 -0.1)">
       <use xlink:href="#DejaVuSans-31"/>
       <use xlink:href="#DejaVuSans-2e" x="63.623047"/>
       <use xlink:href="#DejaVuSans-30" x="95.410156"/>
       <use xlink:href="#DejaVuSans-30" x="159.033203"/>
      </g>
     </g>
    </g>
    <g id="ytick_6">
     <g id="line2d_11">
      <g>
       <use xlink:href="#m515912ebdc" x="72" y="196.626358" style="stroke: #000000; stroke-width: 0.8"/>
      </g>
     </g>
     <g id="text_11">
      <!-- 1.25 -->
      <g transform="translate(42.734375 200.425576)scale(0.1 -0.1)">
       <use xlink:href="#DejaVuSans-31"/>
       <use xlink:href="#DejaVuSans-2e" x="63.623047"/>
       <use xlink:href="#DejaVuSans-32" x="95.410156"/>
       <use xlink:href="#DejaVuSans-35" x="159.033203"/>
      </g>
     </g>
    </g>
    <g id="ytick_7">
     <g id="line2d_12">
      <g>
       <use xlink:href="#m515912ebdc" x="72" y="160.351629" style="stroke: #000000; stroke-width: 0.8"/>
      </g>
     </g>
     <g id="text_12">
      <!-- 1.50 -->
      <g transform="translate(42.734375 164.150848)scale(0.1 -0.1)">
       <use xlink:href="#DejaVuSans-31"/>
       <use xlink:href="#DejaVuSans-2e" x="63.623047"/>
       <use xlink:href="#DejaVuSans-35" x="95.410156"/>
       <use xlink:href="#DejaVuSans-30" x="159.033203"/>
      </g>
     </g>
    </g>
    <g id="ytick_8">
     <g id="line2d_13">
      <g>
       <use xlink:href="#m515912ebdc" x="72" y="124.076901" style="stroke: #000000; stroke-width: 0.8"/>
      </g>
     </g>
     <g id="text_13">
      <!-- 1.75 -->
      <g transform="translate(42.734375 127.876119)scale(0.1 -0.1)">
       <use xlink:href="#DejaVuSans-31"/>
       <use xlink:href="#DejaVuSans-2e" x="63.623047"/>
       <use xlink:href="#DejaVuSans-37" x="95.410156"/>
       <use xlink:href="#DejaVuSans-35" x="159.033203"/>
      </g>
     </g>
    </g>
    <g id="ytick_9">
     <g id="line2d_14">
      <g>
       <use xlink:href="#m515912ebdc" x="72" y="87.802172" style="stroke: #000000; stroke-width: 0.8"/>
      </g>
     </g>
     <g id="text_14">
      <!-- 2.00 -->
      <g transform="translate(42.734375 91.601391)scale(0.1 -0.1)">
       <use xlink:href="#DejaVuSans-32"/>
       <use xlink:href="#DejaVuSans-2e" x="63.623047"/>
       <use xlink:href="#DejaVuSans-30" x="95.410156"/>
       <use xlink:href="#DejaVuSans-30" x="159.033203"/>
      </g>
     </g>
    </g>
   </g>
   <g id="patch_103">
    <path d="M 72.671098 378 
L 72.671098 314.017492 
L 77.121643 314.017492 
L 77.121643 303.776155 
L 81.572188 303.776155 
L 81.572188 301.317643 
L 86.022734 301.317643 
L 86.022734 299.505941 
L 90.473279 299.505941 
L 90.473279 297.915822 
L 94.923824 297.915822 
L 94.923824 296.551506 
L 99.374369 296.551506 
L 99.374369 294.53827 
L 103.824915 294.53827 
L 103.824915 293.11381 
L 108.27546 293.11381 
L 108.27546 290.719663 
L 112.726005 290.719663 
L 112.726005 289.175971 
L 117.17655 289.175971 
L 117.17655 287.035061 
L 121.627096 287.035061 
L 121.627096 284.997556 
L 126.077641 284.997556 
L 126.077641 283.316693 
L 130.528186 283.316693 
L 130.528186 280.493098 
L 134.978732 280.493098 
L 134.978732 278.898758 
L 139.429277 278.898758 
L 139.429277 275.173005 
L 143.879822 275.173005 
L 143.879822 273.20514 
L 148.330367 273.20514 
L 148.330367 270.821544 
L 152.780913 270.821544 
L 152.780913 267.972625 
L 157.231458 267.972625 
L 157.231458 264.753346 
L 161.682003 264.753346 
L 161.682003 262.177712 
L 166.132548 262.177712 
L 166.132548 260.29848 
L 170.583094 260.29848 
L 170.583094 256.79853 
L 175.033639 256.79853 
L 175.033639 253.534935 
L 179.484184 253.534935 
L 179.484184 250.461267 
L 183.934729 250.461267 
L 183.934729 246.216377 
L 188.385275 246.216377 
L 188.385275 243.374844 
L 192.83582 243.374844 
L 192.83582 239.081417 
L 197.286365 239.081417 
L 197.286365 235.133026 
L 201.73691 235.133026 
L 201.73691 231.078064 
L 206.187456 231.078064 
L 206.187456 227.302719 
L 210.638001 227.302719 
L 210.638001 222.323441 
L 215.088546 222.323441 
L 215.088546 217.42752 
L 219.539091 217.42752 
L 219.539091 213.502342 
L 223.989637 213.502342 
L 223.989637 208.658124 
L 228.440182 208.658124 
L 228.440182 202.190022 
L 232.890727 202.190022 
L 232.890727 197.032423 
L 237.341273 197.032423 
L 237.341273 191.430603 
L 241.791818 191.430603 
L 241.791818 185.080679 
L 246.242363 185.080679 
L 246.242363 178.654783 
L 250.692908 178.654783 
L 250.692908 171.947161 
L 255.143454 171.947161 
L 255.143454 164.841745 
L 259.593999 164.841745 
L 259.593999 157.595993 
L 264.044544 157.595993 
L 264.044544 149.077724 
L 268.495089 149.077724 
L 268.495089 141.78027 
L 272.945635 141.78027 
L 272.945635 133.28627 
L 277.39618 133.28627 
L 277.39618 123.457498 
L 281.846725 123.457498 
L 281.846725 113.607623 
L 286.29727 113.607623 
L 286.29727 103.174248 
L 290.747816 103.174248 
L 290.747816 93.078522 
L 295.198361 93.078522 
L 295.198361 92.510848 
L 299.648906 92.510848 
L 299.648906 104.032089 
L 304.099451 104.032089 
L 304.099451 114.349398 
L 308.549997 114.349398 
L 308.549997 122.272559 
L 313.000542 122.272559 
L 313.000542 132.004256 
L 317.451087 132.004256 
L 317.451087 141.683196 
L 321.901633 141.683196 
L 321.901633 150.462088 
L 326.352178 150.462088 
L 326.352178 157.139111 
L 330.802723 157.139111 
L 330.802723 164.811145 
L 335.253268 164.811145 
L 335.253268 172.35234 
L 339.703814 172.35234 
L 339.703814 179.186581 
L 344.154359 179.186581 
L 344.154359 185.323364 
L 348.604904 185.323364 
L 348.604904 191.521347 
L 353.055449 191.521347 
L 353.055449 197.69084 
L 357.505995 197.69084 
L 357.505995 202.727096 
L 361.95654 202.727096 
L 361.95654 208.375343 
L 366.407085 208.375343 
L 366.407085 213.539273 
L 370.85763 213.539273 
L 370.85763 217.770445 
L 375.308176 217.770445 
L 375.308176 223.836533 
L 379.758721 223.836533 
L 379.758721 227.220416 
L 384.209266 227.220416 
L 384.209266 231.108664 
L 388.659811 231.108664 
L 388.659811 235.09293 
L 393.110357 235.09293 
L 393.110357 239.503479 
L 397.560902 239.503479 
L 397.560902 242.636235 
L 402.011447 242.636235 
L 402.011447 246.803044 
L 406.461992 246.803044 
L 406.461992 250.575224 
L 410.912538 250.575224 
L 410.912538 252.644384 
L 415.363083 252.644384 
L 415.363083 256.671911 
L 419.813628 256.671911 
L 419.813628 259.495507 
L 424.264174 259.495507 
L 424.264174 262.885721 
L 428.714719 262.885721 
L 428.714719 264.956991 
L 433.165264 264.956991 
L 433.165264 268.478044 
L 437.615809 268.478044 
L 437.615809 270.922839 
L 442.066355 270.922839 
L 442.066355 273.578665 
L 446.5169 273.578665 
L 446.5169 276.101541 
L 450.967445 276.101541 
L 450.967445 278.815401 
L 455.41799 278.815401 
L 455.41799 280.604944 
L 459.868536 280.604944 
L 459.868536 282.946334 
L 464.319081 282.946334 
L 464.319081 285.243407 
L 468.769626 285.243407 
L 468.769626 287.377986 
L 473.220171 287.377986 
L 473.220171 288.916403 
L 477.670717 288.916403 
L 477.670717 290.284939 
L 482.121262 290.284939 
L 482.121262 292.622108 
L 486.571807 292.622108 
L 486.571807 294.446472 
L 491.022352 294.446472 
L 491.022352 296.703449 
L 495.472898 296.703449 
L 495.472898 298.355822 
L 499.923443 298.355822 
L 499.923443 299.77184 
L 504.373988 299.77184 
L 504.373988 301.991887 
L 508.824534 301.991887 
L 508.824534 303.552462 
L 513.275079 303.552462 
L 513.275079 313.442433 
L 517.725624 313.442433 
L 517.725624 378 
L 517.725624 378 
" clip-path="url(#p9e4cab44e8)" style="fill: none; stroke: #fc6983; stroke-linejoin: miter"/>
   </g>
   <g id="patch_104">
    <path d="M 72.77423 378 
L 72.77423 377.123461 
L 77.220916 377.123461 
L 77.220916 376.98934 
L 81.667603 376.98934 
L 81.667603 374.740965 
L 86.11429 374.740965 
L 86.11429 365.479224 
L 90.560977 365.479224 
L 90.560977 348.598987 
L 95.007664 348.598987 
L 95.007664 327.796504 
L 99.454351 327.796504 
L 99.454351 307.508326 
L 103.901038 307.508326 
L 103.901038 292.532186 
L 108.347725 292.532186 
L 108.347725 282.909268 
L 112.794412 282.909268 
L 112.794412 273.542976 
L 117.241099 273.542976 
L 117.241099 265.219025 
L 121.687786 265.219025 
L 121.687786 258.466508 
L 126.134473 258.466508 
L 126.134473 254.607625 
L 130.58116 254.607625 
L 130.58116 250.766695 
L 135.027847 250.766695 
L 135.027847 246.675477 
L 139.474533 246.675477 
L 139.474533 239.725475 
L 143.92122 239.725475 
L 143.92122 230.701349 
L 148.367907 230.701349 
L 148.367907 225.249911 
L 152.814594 225.249911 
L 152.814594 222.643529 
L 157.261281 222.643529 
L 157.261281 221.028796 
L 161.707968 221.028796 
L 161.707968 219.824876 
L 166.154655 219.824876 
L 166.154655 218.699104 
L 170.601342 218.699104 
L 170.601342 215.807582 
L 175.048029 215.807582 
L 175.048029 216.81613 
L 179.494716 216.81613 
L 179.494716 216.467626 
L 183.941403 216.467626 
L 183.941403 217.640921 
L 188.38809 217.640921 
L 188.38809 216.39687 
L 192.834777 216.39687 
L 192.834777 217.409641 
L 197.281464 217.409641 
L 197.281464 217.192091 
L 201.72815 217.192091 
L 201.72815 215.886787 
L 206.174837 215.886787 
L 206.174837 214.755735 
L 210.621524 214.755735 
L 210.621524 214.228756 
L 215.068211 214.228756 
L 215.068211 212.035297 
L 219.514898 212.035297 
L 219.514898 210.125921 
L 223.961585 210.125921 
L 223.961585 207.998994 
L 228.408272 207.998994 
L 228.408272 206.928138 
L 232.854959 206.928138 
L 232.854959 205.876292 
L 237.301646 205.876292 
L 237.301646 205.101136 
L 241.748333 205.101136 
L 241.748333 205.474985 
L 246.19502 205.474985 
L 246.19502 203.410366 
L 250.641707 203.410366 
L 250.641707 207.063315 
L 255.088394 207.063315 
L 255.088394 203.563496 
L 259.535081 203.563496 
L 259.535081 201.151431 
L 263.981767 201.151431 
L 263.981767 196.691643 
L 268.428454 196.691643 
L 268.428454 194.97764 
L 272.875141 194.97764 
L 272.875141 191.337364 
L 277.321828 191.337364 
L 277.321828 185.063247 
L 281.768515 185.063247 
L 281.768515 181.546531 
L 286.215202 181.546531 
L 286.215202 176.391849 
L 290.661889 176.391849 
L 290.661889 180.838964 
L 295.108576 180.838964 
L 295.108576 166.934735 
L 299.555263 166.934735 
L 299.555263 175.307265 
L 304.00195 175.307265 
L 304.00195 177.476434 
L 308.448637 177.476434 
L 308.448637 183.229908 
L 312.895324 183.229908 
L 312.895324 186.465709 
L 317.342011 186.465709 
L 317.342011 190.581217 
L 321.788698 190.581217 
L 321.788698 193.175984 
L 326.235384 193.175984 
L 326.235384 195.749628 
L 330.682071 195.749628 
L 330.682071 196.481485 
L 335.128758 196.481485 
L 335.128758 197.479472 
L 339.575445 197.479472 
L 339.575445 194.8488 
L 344.022132 194.8488 
L 344.022132 194.64709 
L 348.468819 194.64709 
L 348.468819 193.913121 
L 352.915506 193.913121 
L 352.915506 192.154763 
L 357.362193 192.154763 
L 357.362193 191.360598 
L 361.80888 191.360598 
L 361.80888 191.088131 
L 366.255567 191.088131 
L 366.255567 192.389211 
L 370.702254 192.389211 
L 370.702254 193.750486 
L 375.148941 193.750486 
L 375.148941 196.538513 
L 379.595628 196.538513 
L 379.595628 196.756064 
L 384.042315 196.756064 
L 384.042315 201.269711 
L 388.489002 201.269711 
L 388.489002 202.227567 
L 392.935688 202.227567 
L 392.935688 202.90662 
L 397.382375 202.90662 
L 397.382375 201.220075 
L 401.829062 201.220075 
L 401.829062 201.488317 
L 406.275749 201.488317 
L 406.275749 199.610623 
L 410.722436 199.610623 
L 410.722436 199.868305 
L 415.169123 199.868305 
L 415.169123 199.396241 
L 419.61581 199.396241 
L 419.61581 196.003085 
L 424.062497 196.003085 
L 424.062497 196.459308 
L 428.509184 196.459308 
L 428.509184 198.836523 
L 432.955871 198.836523 
L 432.955871 201.588644 
L 437.402558 201.588644 
L 437.402558 207.135128 
L 441.849245 207.135128 
L 441.849245 212.904443 
L 446.295932 212.904443 
L 446.295932 222.291857 
L 450.742619 222.291857 
L 450.742619 229.541783 
L 455.189305 229.541783 
L 455.189305 233.459806 
L 459.635992 233.459806 
L 459.635992 232.250605 
L 464.082679 232.250605 
L 464.082679 231.551486 
L 468.529366 231.551486 
L 468.529366 236.340768 
L 472.976053 236.340768 
L 472.976053 247.244699 
L 477.42274 247.244699 
L 477.42274 263.247341 
L 481.869427 263.247341 
L 481.869427 286.166191 
L 486.316114 286.166191 
L 486.316114 310.621623 
L 490.762801 310.621623 
L 490.762801 338.717332 
L 495.209488 338.717332 
L 495.209488 359.858815 
L 499.656175 359.858815 
L 499.656175 371.386884 
L 504.102862 371.386884 
L 504.102862 376.615491 
L 508.549549 376.615491 
L 508.549549 377.024191 
L 517.442922 377.044256 
L 517.442922 378 
L 517.442922 378 
" clip-path="url(#p9e4cab44e8)" style="fill: none; stroke: #15215b; stroke-linejoin: miter"/>
   </g>
   <g id="patch_105">
    <path d="M 72 378 
L 72 51.84 
" style="fill: none; stroke: #000000; stroke-width: 0.8; stroke-linejoin: miter; stroke-linecap: square"/>
   </g>
   <g id="patch_106">
    <path d="M 518.4 378 
L 518.4 51.84 
" style="fill: none; stroke: #000000; stroke-width: 0.8; stroke-linejoin: miter; stroke-linecap: square"/>
   </g>
   <g id="patch_107">
    <path d="M 72 378 
L 518.4 378 
" style="fill: none; stroke: #000000; stroke-width: 0.8; stroke-linejoin: miter; stroke-linecap: square"/>
   </g>
   <g id="patch_108">
    <path d="M 72 51.84 
L 518.4 51.84 
" style="fill: none; stroke: #000000; stroke-width: 0.8; stroke-linejoin: miter; stroke-linecap: square"/>
   </g>
  </g>
 </g>
 <defs>
  <clipPath id="p9e4cab44e8">
   <rect x="72" y="51.84" width="446.4" height="326.16"/>
  </clipPath>
 </defs>
</svg>
