<?xml version="1.0" encoding="utf-8" standalone="no"?>
<!DOCTYPE svg PUBLIC "-//W3C//DTD SVG 1.1//EN"
  "http://www.w3.org/Graphics/SVG/1.1/DTD/svg11.dtd">
<svg xmlns:xlink="http://www.w3.org/1999/xlink" width="576pt" height="432pt" viewBox="0 0 576 432" xmlns="http://www.w3.org/2000/svg" version="1.1">
 <metadata>
  <rdf:RDF xmlns:dc="http://purl.org/dc/elements/1.1/" xmlns:cc="http://creativecommons.org/ns#" xmlns:rdf="http://www.w3.org/1999/02/22-rdf-syntax-ns#">
   <cc:Work>
    <dc:type rdf:resource="http://purl.org/dc/dcmitype/StillImage"/>
    <dc:date>2022-03-08T14:12:12.971474</dc:date>
    <dc:format>image/svg+xml</dc:format>
    <dc:creator>
     <cc:Agent>
      <dc:title>Matplotlib v3.5.1, https://matplotlib.org/</dc:title>
     </cc:Agent>
    </dc:creator>
   </cc:Work>
  </rdf:RDF>
 </metadata>
 <defs>
  <style type="text/css">*{stroke-linejoin: round; stroke-linecap: butt}</style>
 </defs>
 <g id="figure_1">
  <g id="patch_1">
   <path d="M 0 432 
L 576 432 
L 576 0 
L 0 0 
L 0 432 
z
" style="fill: none"/>
  </g>
  <g id="axes_1">
   <g id="patch_2">
    <path d="M 72 378 
L 518.4 378 
L 518.4 51.84 
L 72 51.84 
z
" style="fill: #ffffff"/>
   </g>
   <g id="patch_3">
    <path d="M 80.422642 378 
L 84.623855 378 
L 84.623855 375.263184 
L 80.422642 375.263184 
z
" clip-path="url(#p3db67f6cda)" style="fill: #a3e301"/>
   </g>
   <g id="patch_4">
    <path d="M 84.623855 378 
L 88.825069 378 
L 88.825069 376.631592 
L 84.623855 376.631592 
z
" clip-path="url(#p3db67f6cda)" style="fill: #a3e301"/>
   </g>
   <g id="patch_5">
    <path d="M 88.825069 378 
L 93.026282 378 
L 93.026282 376.631592 
L 88.825069 376.631592 
z
" clip-path="url(#p3db67f6cda)" style="fill: #a3e301"/>
   </g>
   <g id="patch_6">
    <path d="M 93.026282 378 
L 97.227496 378 
L 97.227496 378 
L 93.026282 378 
z
" clip-path="url(#p3db67f6cda)" style="fill: #a3e301"/>
   </g>
   <g id="patch_7">
    <path d="M 97.227496 378 
L 101.428709 378 
L 101.428709 376.631592 
L 97.227496 376.631592 
z
" clip-path="url(#p3db67f6cda)" style="fill: #a3e301"/>
   </g>
   <g id="patch_8">
    <path d="M 101.428709 378 
L 105.629923 378 
L 105.629923 376.631592 
L 101.428709 376.631592 
z
" clip-path="url(#p3db67f6cda)" style="fill: #a3e301"/>
   </g>
   <g id="patch_9">
    <path d="M 105.629923 378 
L 109.831137 378 
L 109.831137 369.789553 
L 105.629923 369.789553 
z
" clip-path="url(#p3db67f6cda)" style="fill: #a3e301"/>
   </g>
   <g id="patch_10">
    <path d="M 109.831137 378 
L 114.03235 378 
L 114.03235 365.68433 
L 109.831137 365.68433 
z
" clip-path="url(#p3db67f6cda)" style="fill: #a3e301"/>
   </g>
   <g id="patch_11">
    <path d="M 114.03235 378 
L 118.233564 378 
L 118.233564 360.210699 
L 114.03235 360.210699 
z
" clip-path="url(#p3db67f6cda)" style="fill: #a3e301"/>
   </g>
   <g id="patch_12">
    <path d="M 118.233564 378 
L 122.434777 378 
L 122.434777 354.737067 
L 118.233564 354.737067 
z
" clip-path="url(#p3db67f6cda)" style="fill: #a3e301"/>
   </g>
   <g id="patch_13">
    <path d="M 122.434777 378 
L 126.635991 378 
L 126.635991 338.316174 
L 122.434777 338.316174 
z
" clip-path="url(#p3db67f6cda)" style="fill: #a3e301"/>
   </g>
   <g id="patch_14">
    <path d="M 126.635991 378 
L 130.837205 378 
L 130.837205 294.527124 
L 126.635991 294.527124 
z
" clip-path="url(#p3db67f6cda)" style="fill: #a3e301"/>
   </g>
   <g id="patch_15">
    <path d="M 130.837205 378 
L 135.038418 378 
L 135.038418 263.053744 
L 130.837205 263.053744 
z
" clip-path="url(#p3db67f6cda)" style="fill: #a3e301"/>
   </g>
   <g id="patch_16">
    <path d="M 135.038418 378 
L 139.239632 378 
L 139.239632 246.632851 
L 135.038418 246.632851 
z
" clip-path="url(#p3db67f6cda)" style="fill: #a3e301"/>
   </g>
   <g id="patch_17">
    <path d="M 139.239632 378 
L 143.440845 378 
L 143.440845 208.317432 
L 139.239632 208.317432 
z
" clip-path="url(#p3db67f6cda)" style="fill: #a3e301"/>
   </g>
   <g id="patch_18">
    <path d="M 143.440845 378 
L 147.642059 378 
L 147.642059 226.106734 
L 143.440845 226.106734 
z
" clip-path="url(#p3db67f6cda)" style="fill: #a3e301"/>
   </g>
   <g id="patch_19">
    <path d="M 147.642059 378 
L 151.843272 378 
L 151.843272 237.053996 
L 147.642059 237.053996 
z
" clip-path="url(#p3db67f6cda)" style="fill: #a3e301"/>
   </g>
   <g id="patch_20">
    <path d="M 151.843272 378 
L 156.044486 378 
L 156.044486 260.316929 
L 151.843272 260.316929 
z
" clip-path="url(#p3db67f6cda)" style="fill: #a3e301"/>
   </g>
   <g id="patch_21">
    <path d="M 156.044486 378 
L 160.2457 378 
L 160.2457 271.264191 
L 156.044486 271.264191 
z
" clip-path="url(#p3db67f6cda)" style="fill: #a3e301"/>
   </g>
   <g id="patch_22">
    <path d="M 160.2457 378 
L 164.446913 378 
L 164.446913 264.422152 
L 160.2457 264.422152 
z
" clip-path="url(#p3db67f6cda)" style="fill: #a3e301"/>
   </g>
   <g id="patch_23">
    <path d="M 164.446913 378 
L 168.648127 378 
L 168.648127 264.422152 
L 164.446913 264.422152 
z
" clip-path="url(#p3db67f6cda)" style="fill: #a3e301"/>
   </g>
   <g id="patch_24">
    <path d="M 168.648127 378 
L 172.84934 378 
L 172.84934 261.685337 
L 168.648127 261.685337 
z
" clip-path="url(#p3db67f6cda)" style="fill: #a3e301"/>
   </g>
   <g id="patch_25">
    <path d="M 172.84934 378 
L 177.050554 378 
L 177.050554 245.264443 
L 172.84934 245.264443 
z
" clip-path="url(#p3db67f6cda)" style="fill: #a3e301"/>
   </g>
   <g id="patch_26">
    <path d="M 177.050554 378 
L 181.251768 378 
L 181.251768 241.15922 
L 177.050554 241.15922 
z
" clip-path="url(#p3db67f6cda)" style="fill: #a3e301"/>
   </g>
   <g id="patch_27">
    <path d="M 181.251768 378 
L 185.452981 378 
L 185.452981 217.896287 
L 181.251768 217.896287 
z
" clip-path="url(#p3db67f6cda)" style="fill: #a3e301"/>
   </g>
   <g id="patch_28">
    <path d="M 185.452981 378 
L 189.654195 378 
L 189.654195 216.527879 
L 185.452981 216.527879 
z
" clip-path="url(#p3db67f6cda)" style="fill: #a3e301"/>
   </g>
   <g id="patch_29">
    <path d="M 189.654195 378 
L 193.855408 378 
L 193.855408 217.896287 
L 189.654195 217.896287 
z
" clip-path="url(#p3db67f6cda)" style="fill: #a3e301"/>
   </g>
   <g id="patch_30">
    <path d="M 193.855408 378 
L 198.056622 378 
L 198.056622 231.580365 
L 193.855408 231.580365 
z
" clip-path="url(#p3db67f6cda)" style="fill: #a3e301"/>
   </g>
   <g id="patch_31">
    <path d="M 198.056622 378 
L 202.257835 378 
L 202.257835 223.369918 
L 198.056622 223.369918 
z
" clip-path="url(#p3db67f6cda)" style="fill: #a3e301"/>
   </g>
   <g id="patch_32">
    <path d="M 202.257835 378 
L 206.459049 378 
L 206.459049 227.475142 
L 202.257835 227.475142 
z
" clip-path="url(#p3db67f6cda)" style="fill: #a3e301"/>
   </g>
   <g id="patch_33">
    <path d="M 206.459049 378 
L 210.660263 378 
L 210.660263 231.580365 
L 206.459049 231.580365 
z
" clip-path="url(#p3db67f6cda)" style="fill: #a3e301"/>
   </g>
   <g id="patch_34">
    <path d="M 210.660263 378 
L 214.861476 378 
L 214.861476 196.001762 
L 210.660263 196.001762 
z
" clip-path="url(#p3db67f6cda)" style="fill: #a3e301"/>
   </g>
   <g id="patch_35">
    <path d="M 214.861476 378 
L 219.06269 378 
L 219.06269 231.580365 
L 214.861476 231.580365 
z
" clip-path="url(#p3db67f6cda)" style="fill: #a3e301"/>
   </g>
   <g id="patch_36">
    <path d="M 219.06269 378 
L 223.263903 378 
L 223.263903 224.738326 
L 219.06269 224.738326 
z
" clip-path="url(#p3db67f6cda)" style="fill: #a3e301"/>
   </g>
   <g id="patch_37">
    <path d="M 223.263903 378 
L 227.465117 378 
L 227.465117 204.212209 
L 223.263903 204.212209 
z
" clip-path="url(#p3db67f6cda)" style="fill: #a3e301"/>
   </g>
   <g id="patch_38">
    <path d="M 227.465117 378 
L 231.666331 378 
L 231.666331 179.580868 
L 227.465117 179.580868 
z
" clip-path="url(#p3db67f6cda)" style="fill: #a3e301"/>
   </g>
   <g id="patch_39">
    <path d="M 231.666331 378 
L 235.867544 378 
L 235.867544 180.949276 
L 231.666331 180.949276 
z
" clip-path="url(#p3db67f6cda)" style="fill: #a3e301"/>
   </g>
   <g id="patch_40">
    <path d="M 235.867544 378 
L 240.068758 378 
L 240.068758 190.528131 
L 235.867544 190.528131 
z
" clip-path="url(#p3db67f6cda)" style="fill: #a3e301"/>
   </g>
   <g id="patch_41">
    <path d="M 240.068758 378 
L 244.269971 378 
L 244.269971 150.844305 
L 240.068758 150.844305 
z
" clip-path="url(#p3db67f6cda)" style="fill: #a3e301"/>
   </g>
   <g id="patch_42">
    <path d="M 244.269971 378 
L 248.471185 378 
L 248.471185 138.528634 
L 244.269971 138.528634 
z
" clip-path="url(#p3db67f6cda)" style="fill: #a3e301"/>
   </g>
   <g id="patch_43">
    <path d="M 248.471185 378 
L 252.672398 378 
L 252.672398 137.160227 
L 248.471185 137.160227 
z
" clip-path="url(#p3db67f6cda)" style="fill: #a3e301"/>
   </g>
   <g id="patch_44">
    <path d="M 252.672398 378 
L 256.873612 378 
L 256.873612 138.528634 
L 252.672398 138.528634 
z
" clip-path="url(#p3db67f6cda)" style="fill: #a3e301"/>
   </g>
   <g id="patch_45">
    <path d="M 256.873612 378 
L 261.074826 378 
L 261.074826 115.265702 
L 256.873612 115.265702 
z
" clip-path="url(#p3db67f6cda)" style="fill: #a3e301"/>
   </g>
   <g id="patch_46">
    <path d="M 261.074826 378 
L 265.276039 378 
L 265.276039 130.318188 
L 261.074826 130.318188 
z
" clip-path="url(#p3db67f6cda)" style="fill: #a3e301"/>
   </g>
   <g id="patch_47">
    <path d="M 265.276039 378 
L 269.477253 378 
L 269.477253 102.950031 
L 265.276039 102.950031 
z
" clip-path="url(#p3db67f6cda)" style="fill: #a3e301"/>
   </g>
   <g id="patch_48">
    <path d="M 269.477253 378 
L 273.678466 378 
L 273.678466 85.16073 
L 269.477253 85.16073 
z
" clip-path="url(#p3db67f6cda)" style="fill: #a3e301"/>
   </g>
   <g id="patch_49">
    <path d="M 273.678466 378 
L 277.87968 378 
L 277.87968 100.213216 
L 273.678466 100.213216 
z
" clip-path="url(#p3db67f6cda)" style="fill: #a3e301"/>
   </g>
   <g id="patch_50">
    <path d="M 277.87968 378 
L 282.080894 378 
L 282.080894 67.371429 
L 277.87968 67.371429 
z
" clip-path="url(#p3db67f6cda)" style="fill: #a3e301"/>
   </g>
   <g id="patch_51">
    <path d="M 282.080894 378 
L 286.282107 378 
L 286.282107 108.423663 
L 282.080894 108.423663 
z
" clip-path="url(#p3db67f6cda)" style="fill: #a3e301"/>
   </g>
   <g id="patch_52">
    <path d="M 286.282107 378 
L 290.483321 378 
L 290.483321 168.633606 
L 286.282107 168.633606 
z
" clip-path="url(#p3db67f6cda)" style="fill: #a3e301"/>
   </g>
   <g id="patch_53">
    <path d="M 290.483321 378 
L 294.684534 378 
L 294.684534 223.369918 
L 290.483321 223.369918 
z
" clip-path="url(#p3db67f6cda)" style="fill: #a3e301"/>
   </g>
   <g id="patch_54">
    <path d="M 294.684534 378 
L 298.885748 378 
L 298.885748 153.58112 
L 294.684534 153.58112 
z
" clip-path="url(#p3db67f6cda)" style="fill: #a3e301"/>
   </g>
   <g id="patch_55">
    <path d="M 298.885748 378 
L 303.086962 378 
L 303.086962 198.738578 
L 298.885748 198.738578 
z
" clip-path="url(#p3db67f6cda)" style="fill: #a3e301"/>
   </g>
   <g id="patch_56">
    <path d="M 303.086962 378 
L 307.288175 378 
L 307.288175 227.475142 
L 303.086962 227.475142 
z
" clip-path="url(#p3db67f6cda)" style="fill: #a3e301"/>
   </g>
   <g id="patch_57">
    <path d="M 307.288175 378 
L 311.489389 378 
L 311.489389 227.475142 
L 307.288175 227.475142 
z
" clip-path="url(#p3db67f6cda)" style="fill: #a3e301"/>
   </g>
   <g id="patch_58">
    <path d="M 311.489389 378 
L 315.690602 378 
L 315.690602 239.790812 
L 311.489389 239.790812 
z
" clip-path="url(#p3db67f6cda)" style="fill: #a3e301"/>
   </g>
   <g id="patch_59">
    <path d="M 315.690602 378 
L 319.891816 378 
L 319.891816 252.106482 
L 315.690602 252.106482 
z
" clip-path="url(#p3db67f6cda)" style="fill: #a3e301"/>
   </g>
   <g id="patch_60">
    <path d="M 319.891816 378 
L 324.093029 378 
L 324.093029 274.001007 
L 319.891816 274.001007 
z
" clip-path="url(#p3db67f6cda)" style="fill: #a3e301"/>
   </g>
   <g id="patch_61">
    <path d="M 324.093029 378 
L 328.294243 378 
L 328.294243 276.737823 
L 324.093029 276.737823 
z
" clip-path="url(#p3db67f6cda)" style="fill: #a3e301"/>
   </g>
   <g id="patch_62">
    <path d="M 328.294243 378 
L 332.495457 378 
L 332.495457 293.158716 
L 328.294243 293.158716 
z
" clip-path="url(#p3db67f6cda)" style="fill: #a3e301"/>
   </g>
   <g id="patch_63">
    <path d="M 332.495457 378 
L 336.69667 378 
L 336.69667 313.684833 
L 332.495457 313.684833 
z
" clip-path="url(#p3db67f6cda)" style="fill: #a3e301"/>
   </g>
   <g id="patch_64">
    <path d="M 336.69667 378 
L 340.897884 378 
L 340.897884 341.052989 
L 336.69667 341.052989 
z
" clip-path="url(#p3db67f6cda)" style="fill: #a3e301"/>
   </g>
   <g id="patch_65">
    <path d="M 340.897884 378 
L 345.099097 378 
L 345.099097 354.737067 
L 340.897884 354.737067 
z
" clip-path="url(#p3db67f6cda)" style="fill: #a3e301"/>
   </g>
   <g id="patch_66">
    <path d="M 345.099097 378 
L 349.300311 378 
L 349.300311 354.737067 
L 345.099097 354.737067 
z
" clip-path="url(#p3db67f6cda)" style="fill: #a3e301"/>
   </g>
   <g id="patch_67">
    <path d="M 349.300311 378 
L 353.501525 378 
L 353.501525 367.052738 
L 349.300311 367.052738 
z
" clip-path="url(#p3db67f6cda)" style="fill: #a3e301"/>
   </g>
   <g id="patch_68">
    <path d="M 353.501525 378 
L 357.702738 378 
L 357.702738 353.36866 
L 353.501525 353.36866 
z
" clip-path="url(#p3db67f6cda)" style="fill: #a3e301"/>
   </g>
   <g id="patch_69">
    <path d="M 357.702738 378 
L 361.903952 378 
L 361.903952 361.579106 
L 357.702738 361.579106 
z
" clip-path="url(#p3db67f6cda)" style="fill: #a3e301"/>
   </g>
   <g id="patch_70">
    <path d="M 361.903952 378 
L 366.105165 378 
L 366.105165 353.36866 
L 361.903952 353.36866 
z
" clip-path="url(#p3db67f6cda)" style="fill: #a3e301"/>
   </g>
   <g id="patch_71">
    <path d="M 366.105165 378 
L 370.306379 378 
L 370.306379 352.000252 
L 366.105165 352.000252 
z
" clip-path="url(#p3db67f6cda)" style="fill: #a3e301"/>
   </g>
   <g id="patch_72">
    <path d="M 370.306379 378 
L 374.507592 378 
L 374.507592 342.421397 
L 370.306379 342.421397 
z
" clip-path="url(#p3db67f6cda)" style="fill: #a3e301"/>
   </g>
   <g id="patch_73">
    <path d="M 374.507592 378 
L 378.708806 378 
L 378.708806 332.842542 
L 374.507592 332.842542 
z
" clip-path="url(#p3db67f6cda)" style="fill: #a3e301"/>
   </g>
   <g id="patch_74">
    <path d="M 378.708806 378 
L 382.91002 378 
L 382.91002 313.684833 
L 378.708806 313.684833 
z
" clip-path="url(#p3db67f6cda)" style="fill: #a3e301"/>
   </g>
   <g id="patch_75">
    <path d="M 382.91002 378 
L 387.111233 378 
L 387.111233 310.948018 
L 382.91002 310.948018 
z
" clip-path="url(#p3db67f6cda)" style="fill: #a3e301"/>
   </g>
   <g id="patch_76">
    <path d="M 387.111233 378 
L 391.312447 378 
L 391.312447 304.105979 
L 387.111233 304.105979 
z
" clip-path="url(#p3db67f6cda)" style="fill: #a3e301"/>
   </g>
   <g id="patch_77">
    <path d="M 391.312447 378 
L 395.51366 378 
L 395.51366 304.105979 
L 391.312447 304.105979 
z
" clip-path="url(#p3db67f6cda)" style="fill: #a3e301"/>
   </g>
   <g id="patch_78">
    <path d="M 395.51366 378 
L 399.714874 378 
L 399.714874 286.316677 
L 395.51366 286.316677 
z
" clip-path="url(#p3db67f6cda)" style="fill: #a3e301"/>
   </g>
   <g id="patch_79">
    <path d="M 399.714874 378 
L 403.916088 378 
L 403.916088 256.211705 
L 399.714874 256.211705 
z
" clip-path="url(#p3db67f6cda)" style="fill: #a3e301"/>
   </g>
   <g id="patch_80">
    <path d="M 403.916088 378 
L 408.117301 378 
L 408.117301 239.790812 
L 403.916088 239.790812 
z
" clip-path="url(#p3db67f6cda)" style="fill: #a3e301"/>
   </g>
   <g id="patch_81">
    <path d="M 408.117301 378 
L 412.318515 378 
L 412.318515 241.15922 
L 408.117301 241.15922 
z
" clip-path="url(#p3db67f6cda)" style="fill: #a3e301"/>
   </g>
   <g id="patch_82">
    <path d="M 412.318515 378 
L 416.519728 378 
L 416.519728 223.369918 
L 412.318515 223.369918 
z
" clip-path="url(#p3db67f6cda)" style="fill: #a3e301"/>
   </g>
   <g id="patch_83">
    <path d="M 416.519728 378 
L 420.720942 378 
L 420.720942 235.685588 
L 416.519728 235.685588 
z
" clip-path="url(#p3db67f6cda)" style="fill: #a3e301"/>
   </g>
   <g id="patch_84">
    <path d="M 420.720942 378 
L 424.922155 378 
L 424.922155 268.527376 
L 420.720942 268.527376 
z
" clip-path="url(#p3db67f6cda)" style="fill: #a3e301"/>
   </g>
   <g id="patch_85">
    <path d="M 424.922155 378 
L 429.123369 378 
L 429.123369 271.264191 
L 424.922155 271.264191 
z
" clip-path="url(#p3db67f6cda)" style="fill: #a3e301"/>
   </g>
   <g id="patch_86">
    <path d="M 429.123369 378 
L 433.324583 378 
L 433.324583 309.57961 
L 429.123369 309.57961 
z
" clip-path="url(#p3db67f6cda)" style="fill: #a3e301"/>
   </g>
   <g id="patch_87">
    <path d="M 433.324583 378 
L 437.525796 378 
L 437.525796 326.000503 
L 433.324583 326.000503 
z
" clip-path="url(#p3db67f6cda)" style="fill: #a3e301"/>
   </g>
   <g id="patch_88">
    <path d="M 437.525796 378 
L 441.72701 378 
L 441.72701 331.474135 
L 437.525796 331.474135 
z
" clip-path="url(#p3db67f6cda)" style="fill: #a3e301"/>
   </g>
   <g id="patch_89">
    <path d="M 441.72701 378 
L 445.928223 378 
L 445.928223 319.158464 
L 441.72701 319.158464 
z
" clip-path="url(#p3db67f6cda)" style="fill: #a3e301"/>
   </g>
   <g id="patch_90">
    <path d="M 445.928223 378 
L 450.129437 378 
L 450.129437 305.474386 
L 445.928223 305.474386 
z
" clip-path="url(#p3db67f6cda)" style="fill: #a3e301"/>
   </g>
   <g id="patch_91">
    <path d="M 450.129437 378 
L 454.330651 378 
L 454.330651 316.421649 
L 450.129437 316.421649 
z
" clip-path="url(#p3db67f6cda)" style="fill: #a3e301"/>
   </g>
   <g id="patch_92">
    <path d="M 454.330651 378 
L 458.531864 378 
L 458.531864 312.316425 
L 454.330651 312.316425 
z
" clip-path="url(#p3db67f6cda)" style="fill: #a3e301"/>
   </g>
   <g id="patch_93">
    <path d="M 458.531864 378 
L 462.733078 378 
L 462.733078 316.421649 
L 458.531864 316.421649 
z
" clip-path="url(#p3db67f6cda)" style="fill: #a3e301"/>
   </g>
   <g id="patch_94">
    <path d="M 462.733078 378 
L 466.934291 378 
L 466.934291 336.947766 
L 462.733078 336.947766 
z
" clip-path="url(#p3db67f6cda)" style="fill: #a3e301"/>
   </g>
   <g id="patch_95">
    <path d="M 466.934291 378 
L 471.135505 378 
L 471.135505 349.263436 
L 466.934291 349.263436 
z
" clip-path="url(#p3db67f6cda)" style="fill: #a3e301"/>
   </g>
   <g id="patch_96">
    <path d="M 471.135505 378 
L 475.336718 378 
L 475.336718 326.000503 
L 471.135505 326.000503 
z
" clip-path="url(#p3db67f6cda)" style="fill: #a3e301"/>
   </g>
   <g id="patch_97">
    <path d="M 475.336718 378 
L 479.537932 378 
L 479.537932 302.737571 
L 475.336718 302.737571 
z
" clip-path="url(#p3db67f6cda)" style="fill: #a3e301"/>
   </g>
   <g id="patch_98">
    <path d="M 479.537932 378 
L 483.739146 378 
L 483.739146 310.948018 
L 479.537932 310.948018 
z
" clip-path="url(#p3db67f6cda)" style="fill: #a3e301"/>
   </g>
   <g id="patch_99">
    <path d="M 483.739146 378 
L 487.940359 378 
L 487.940359 347.895028 
L 483.739146 347.895028 
z
" clip-path="url(#p3db67f6cda)" style="fill: #a3e301"/>
   </g>
   <g id="patch_100">
    <path d="M 487.940359 378 
L 492.141573 378 
L 492.141573 373.894777 
L 487.940359 373.894777 
z
" clip-path="url(#p3db67f6cda)" style="fill: #a3e301"/>
   </g>
   <g id="patch_101">
    <path d="M 492.141573 378 
L 496.342786 378 
L 496.342786 375.263184 
L 492.141573 375.263184 
z
" clip-path="url(#p3db67f6cda)" style="fill: #a3e301"/>
   </g>
   <g id="patch_102">
    <path d="M 496.342786 378 
L 500.544 378 
L 500.544 376.631592 
L 496.342786 376.631592 
z
" clip-path="url(#p3db67f6cda)" style="fill: #a3e301"/>
   </g>
   <g id="matplotlib.axis_1">
    <g id="xtick_1">
     <g id="line2d_1">
      <defs>
       <path id="m50c20f1e17" d="M 0 0 
L 0 3.5 
" style="stroke: #000000; stroke-width: 0.8"/>
      </defs>
      <g>
       <use xlink:href="#m50c20f1e17" x="72" y="378" style="stroke: #000000; stroke-width: 0.8"/>
      </g>
     </g>
     <g id="text_1">
      <!-- 0.00 -->
      <g transform="translate(60.867188 392.598437)scale(0.1 -0.1)">
       <defs>
        <path id="DejaVuSans-30" d="M 2034 4250 
Q 1547 4250 1301 3770 
Q 1056 3291 1056 2328 
Q 1056 1369 1301 889 
Q 1547 409 2034 409 
Q 2525 409 2770 889 
Q 3016 1369 3016 2328 
Q 3016 3291 2770 3770 
Q 2525 4250 2034 4250 
z
M 2034 4750 
Q 2819 4750 3233 4129 
Q 3647 3509 3647 2328 
Q 3647 1150 3233 529 
Q 2819 -91 2034 -91 
Q 1250 -91 836 529 
Q 422 1150 422 2328 
Q 422 3509 836 4129 
Q 1250 4750 2034 4750 
z
" transform="scale(0.015625)"/>
        <path id="DejaVuSans-2e" d="M 684 794 
L 1344 794 
L 1344 0 
L 684 0 
L 684 794 
z
" transform="scale(0.015625)"/>
       </defs>
       <use xlink:href="#DejaVuSans-30"/>
       <use xlink:href="#DejaVuSans-2e" x="63.623047"/>
       <use xlink:href="#DejaVuSans-30" x="95.410156"/>
       <use xlink:href="#DejaVuSans-30" x="159.033203"/>
      </g>
     </g>
    </g>
    <g id="xtick_2">
     <g id="line2d_2">
      <g>
       <use xlink:href="#m50c20f1e17" x="183.6" y="378" style="stroke: #000000; stroke-width: 0.8"/>
      </g>
     </g>
     <g id="text_2">
      <!-- 0.25 -->
      <g transform="translate(172.467187 392.598437)scale(0.1 -0.1)">
       <defs>
        <path id="DejaVuSans-32" d="M 1228 531 
L 3431 531 
L 3431 0 
L 469 0 
L 469 531 
Q 828 903 1448 1529 
Q 2069 2156 2228 2338 
Q 2531 2678 2651 2914 
Q 2772 3150 2772 3378 
Q 2772 3750 2511 3984 
Q 2250 4219 1831 4219 
Q 1534 4219 1204 4116 
Q 875 4013 500 3803 
L 500 4441 
Q 881 4594 1212 4672 
Q 1544 4750 1819 4750 
Q 2544 4750 2975 4387 
Q 3406 4025 3406 3419 
Q 3406 3131 3298 2873 
Q 3191 2616 2906 2266 
Q 2828 2175 2409 1742 
Q 1991 1309 1228 531 
z
" transform="scale(0.015625)"/>
        <path id="DejaVuSans-35" d="M 691 4666 
L 3169 4666 
L 3169 4134 
L 1269 4134 
L 1269 2991 
Q 1406 3038 1543 3061 
Q 1681 3084 1819 3084 
Q 2600 3084 3056 2656 
Q 3513 2228 3513 1497 
Q 3513 744 3044 326 
Q 2575 -91 1722 -91 
Q 1428 -91 1123 -41 
Q 819 9 494 109 
L 494 744 
Q 775 591 1075 516 
Q 1375 441 1709 441 
Q 2250 441 2565 725 
Q 2881 1009 2881 1497 
Q 2881 1984 2565 2268 
Q 2250 2553 1709 2553 
Q 1456 2553 1204 2497 
Q 953 2441 691 2322 
L 691 4666 
z
" transform="scale(0.015625)"/>
       </defs>
       <use xlink:href="#DejaVuSans-30"/>
       <use xlink:href="#DejaVuSans-2e" x="63.623047"/>
       <use xlink:href="#DejaVuSans-32" x="95.410156"/>
       <use xlink:href="#DejaVuSans-35" x="159.033203"/>
      </g>
     </g>
    </g>
    <g id="xtick_3">
     <g id="line2d_3">
      <g>
       <use xlink:href="#m50c20f1e17" x="295.2" y="378" style="stroke: #000000; stroke-width: 0.8"/>
      </g>
     </g>
     <g id="text_3">
      <!-- 0.50 -->
      <g transform="translate(284.067187 392.598437)scale(0.1 -0.1)">
       <use xlink:href="#DejaVuSans-30"/>
       <use xlink:href="#DejaVuSans-2e" x="63.623047"/>
       <use xlink:href="#DejaVuSans-35" x="95.410156"/>
       <use xlink:href="#DejaVuSans-30" x="159.033203"/>
      </g>
     </g>
    </g>
    <g id="xtick_4">
     <g id="line2d_4">
      <g>
       <use xlink:href="#m50c20f1e17" x="406.8" y="378" style="stroke: #000000; stroke-width: 0.8"/>
      </g>
     </g>
     <g id="text_4">
      <!-- 0.75 -->
      <g transform="translate(395.667187 392.598437)scale(0.1 -0.1)">
       <defs>
        <path id="DejaVuSans-37" d="M 525 4666 
L 3525 4666 
L 3525 4397 
L 1831 0 
L 1172 0 
L 2766 4134 
L 525 4134 
L 525 4666 
z
" transform="scale(0.015625)"/>
       </defs>
       <use xlink:href="#DejaVuSans-30"/>
       <use xlink:href="#DejaVuSans-2e" x="63.623047"/>
       <use xlink:href="#DejaVuSans-37" x="95.410156"/>
       <use xlink:href="#DejaVuSans-35" x="159.033203"/>
      </g>
     </g>
    </g>
    <g id="xtick_5">
     <g id="line2d_5">
      <g>
       <use xlink:href="#m50c20f1e17" x="518.4" y="378" style="stroke: #000000; stroke-width: 0.8"/>
      </g>
     </g>
     <g id="text_5">
      <!-- 1.00 -->
      <g transform="translate(507.267187 392.598437)scale(0.1 -0.1)">
       <defs>
        <path id="DejaVuSans-31" d="M 794 531 
L 1825 531 
L 1825 4091 
L 703 3866 
L 703 4441 
L 1819 4666 
L 2450 4666 
L 2450 531 
L 3481 531 
L 3481 0 
L 794 0 
L 794 531 
z
" transform="scale(0.015625)"/>
       </defs>
       <use xlink:href="#DejaVuSans-31"/>
       <use xlink:href="#DejaVuSans-2e" x="63.623047"/>
       <use xlink:href="#DejaVuSans-30" x="95.410156"/>
       <use xlink:href="#DejaVuSans-30" x="159.033203"/>
      </g>
     </g>
    </g>
   </g>
   <g id="matplotlib.axis_2">
    <g id="ytick_1">
     <g id="line2d_6">
      <defs>
       <path id="m2ea912e24d" d="M 0 0 
L -3.5 0 
" style="stroke: #000000; stroke-width: 0.8"/>
      </defs>
      <g>
       <use xlink:href="#m2ea912e24d" x="72" y="378" style="stroke: #000000; stroke-width: 0.8"/>
      </g>
     </g>
     <g id="text_6">
      <!-- 0.0 -->
      <g transform="translate(49.096875 381.799219)scale(0.1 -0.1)">
       <use xlink:href="#DejaVuSans-30"/>
       <use xlink:href="#DejaVuSans-2e" x="63.623047"/>
       <use xlink:href="#DejaVuSans-30" x="95.410156"/>
      </g>
     </g>
    </g>
    <g id="ytick_2">
     <g id="line2d_7">
      <g>
       <use xlink:href="#m2ea912e24d" x="72" y="326.402191" style="stroke: #000000; stroke-width: 0.8"/>
      </g>
     </g>
     <g id="text_7">
      <!-- 0.5 -->
      <g transform="translate(49.096875 330.201409)scale(0.1 -0.1)">
       <use xlink:href="#DejaVuSans-30"/>
       <use xlink:href="#DejaVuSans-2e" x="63.623047"/>
       <use xlink:href="#DejaVuSans-35" x="95.410156"/>
      </g>
     </g>
    </g>
    <g id="ytick_3">
     <g id="line2d_8">
      <g>
       <use xlink:href="#m2ea912e24d" x="72" y="274.804381" style="stroke: #000000; stroke-width: 0.8"/>
      </g>
     </g>
     <g id="text_8">
      <!-- 1.0 -->
      <g transform="translate(49.096875 278.6036)scale(0.1 -0.1)">
       <use xlink:href="#DejaVuSans-31"/>
       <use xlink:href="#DejaVuSans-2e" x="63.623047"/>
       <use xlink:href="#DejaVuSans-30" x="95.410156"/>
      </g>
     </g>
    </g>
    <g id="ytick_4">
     <g id="line2d_9">
      <g>
       <use xlink:href="#m2ea912e24d" x="72" y="223.206572" style="stroke: #000000; stroke-width: 0.8"/>
      </g>
     </g>
     <g id="text_9">
      <!-- 1.5 -->
      <g transform="translate(49.096875 227.00579)scale(0.1 -0.1)">
       <use xlink:href="#DejaVuSans-31"/>
       <use xlink:href="#DejaVuSans-2e" x="63.623047"/>
       <use xlink:href="#DejaVuSans-35" x="95.410156"/>
      </g>
     </g>
    </g>
    <g id="ytick_5">
     <g id="line2d_10">
      <g>
       <use xlink:href="#m2ea912e24d" x="72" y="171.608762" style="stroke: #000000; stroke-width: 0.8"/>
      </g>
     </g>
     <g id="text_10">
      <!-- 2.0 -->
      <g transform="translate(49.096875 175.407981)scale(0.1 -0.1)">
       <use xlink:href="#DejaVuSans-32"/>
       <use xlink:href="#DejaVuSans-2e" x="63.623047"/>
       <use xlink:href="#DejaVuSans-30" x="95.410156"/>
      </g>
     </g>
    </g>
    <g id="ytick_6">
     <g id="line2d_11">
      <g>
       <use xlink:href="#m2ea912e24d" x="72" y="120.010953" style="stroke: #000000; stroke-width: 0.8"/>
      </g>
     </g>
     <g id="text_11">
      <!-- 2.5 -->
      <g transform="translate(49.096875 123.810171)scale(0.1 -0.1)">
       <use xlink:href="#DejaVuSans-32"/>
       <use xlink:href="#DejaVuSans-2e" x="63.623047"/>
       <use xlink:href="#DejaVuSans-35" x="95.410156"/>
      </g>
     </g>
    </g>
    <g id="ytick_7">
     <g id="line2d_12">
      <g>
       <use xlink:href="#m2ea912e24d" x="72" y="68.413143" style="stroke: #000000; stroke-width: 0.8"/>
      </g>
     </g>
     <g id="text_12">
      <!-- 3.0 -->
      <g transform="translate(49.096875 72.212362)scale(0.1 -0.1)">
       <defs>
        <path id="DejaVuSans-33" d="M 2597 2516 
Q 3050 2419 3304 2112 
Q 3559 1806 3559 1356 
Q 3559 666 3084 287 
Q 2609 -91 1734 -91 
Q 1441 -91 1130 -33 
Q 819 25 488 141 
L 488 750 
Q 750 597 1062 519 
Q 1375 441 1716 441 
Q 2309 441 2620 675 
Q 2931 909 2931 1356 
Q 2931 1769 2642 2001 
Q 2353 2234 1838 2234 
L 1294 2234 
L 1294 2753 
L 1863 2753 
Q 2328 2753 2575 2939 
Q 2822 3125 2822 3475 
Q 2822 3834 2567 4026 
Q 2313 4219 1838 4219 
Q 1578 4219 1281 4162 
Q 984 4106 628 3988 
L 628 4550 
Q 988 4650 1302 4700 
Q 1616 4750 1894 4750 
Q 2613 4750 3031 4423 
Q 3450 4097 3450 3541 
Q 3450 3153 3228 2886 
Q 3006 2619 2597 2516 
z
" transform="scale(0.015625)"/>
       </defs>
       <use xlink:href="#DejaVuSans-33"/>
       <use xlink:href="#DejaVuSans-2e" x="63.623047"/>
       <use xlink:href="#DejaVuSans-30" x="95.410156"/>
      </g>
     </g>
    </g>
   </g>
   <g id="patch_103">
    <path d="M 74.800547 378 
L 74.800547 344.989927 
L 79.20849 344.989927 
L 79.20849 328.465328 
L 83.616433 328.465328 
L 83.616433 324.87739 
L 88.024376 324.87739 
L 88.024376 322.776274 
L 92.432319 322.776274 
L 92.432319 320.703852 
L 96.840262 320.703852 
L 96.840262 318.898797 
L 101.248205 318.898797 
L 101.248205 317.655866 
L 105.656148 317.655866 
L 105.656148 315.979929 
L 110.064091 315.979929 
L 110.064091 315.154352 
L 114.472034 315.154352 
L 114.472034 314.637876 
L 118.879977 314.637876 
L 118.879977 312.3946 
L 123.28792 312.3946 
L 123.28792 310.704317 
L 127.695863 310.704317 
L 127.695863 309.04664 
L 132.103806 309.04664 
L 132.103806 307.558513 
L 136.511749 307.558513 
L 136.511749 305.791281 
L 140.919692 305.791281 
L 140.919692 303.954925 
L 145.327635 303.954925 
L 145.327635 302.812419 
L 149.735578 302.812419 
L 149.735578 300.176569 
L 154.143521 300.176569 
L 154.143521 298.258046 
L 158.551464 298.258046 
L 158.551464 296.969466 
L 162.959407 296.969466 
L 162.959407 294.083204 
L 167.36735 294.083204 
L 167.36735 292.242935 
L 171.775293 292.242935 
L 171.775293 290.321804 
L 176.183236 290.321804 
L 176.183236 288.382413 
L 180.591179 288.382413 
L 180.591179 285.114012 
L 184.999122 285.114012 
L 184.999122 282.943772 
L 189.407065 282.943772 
L 189.407065 280.198367 
L 193.815008 280.198367 
L 193.815008 277.505131 
L 198.222951 277.505131 
L 198.222951 275.50705 
L 202.630894 275.50705 
L 202.630894 271.979107 
L 207.038837 271.979107 
L 207.038837 268.856779 
L 211.446779 268.856779 
L 211.446779 265.966604 
L 215.854722 265.966604 
L 215.854722 263.145554 
L 220.262665 263.145554 
L 220.262665 258.432065 
L 224.670608 258.432065 
L 224.670608 255.616232 
L 229.078551 255.616232 
L 229.078551 251.788315 
L 233.486494 251.788315 
L 233.486494 248.145599 
L 237.894437 248.145599 
L 237.894437 243.220825 
L 242.30238 243.220825 
L 242.30238 239.498552 
L 246.710323 239.498552 
L 246.710323 233.676467 
L 251.118266 233.676467 
L 251.118266 229.680305 
L 255.526209 229.680305 
L 255.526209 225.574587 
L 259.934152 225.574587 
L 259.934152 219.152557 
L 264.342095 219.152557 
L 264.342095 214.347772 
L 268.750038 214.347772 
L 268.750038 207.852704 
L 273.157981 207.852704 
L 273.157981 201.562401 
L 277.565924 201.562401 
L 277.565924 194.994296 
L 281.973867 194.994296 
L 281.973867 188.97136 
L 286.38181 188.97136 
L 286.38181 180.069987 
L 290.789753 180.069987 
L 290.789753 173.200605 
L 295.197696 173.200605 
L 295.197696 172.504146 
L 299.605639 172.504146 
L 299.605639 179.724366 
L 304.013582 179.724366 
L 304.013582 187.712777 
L 308.421525 187.712777 
L 308.421525 195.493816 
L 312.829468 195.493816 
L 312.829468 202.540573 
L 317.237411 202.540573 
L 317.237411 208.150069 
L 321.645354 208.150069 
L 321.645354 214.546015 
L 326.053297 214.546015 
L 326.053297 219.657294 
L 330.46124 219.657294 
L 330.46124 224.648584 
L 334.869183 224.648584 
L 334.869183 229.615093 
L 339.277126 229.615093 
L 339.277126 234.350754 
L 343.685069 234.350754 
L 343.685069 238.972947 
L 348.093012 238.972947 
L 348.093012 243.649917 
L 352.500955 243.649917 
L 352.500955 248.094735 
L 356.908898 248.094735 
L 356.908898 252.388261 
L 361.316841 252.388261 
L 361.316841 255.171489 
L 365.724784 255.171489 
L 365.724784 259.421976 
L 370.132727 259.421976 
L 370.132727 262.252156 
L 374.54067 262.252156 
L 374.54067 266.207887 
L 378.948613 266.207887 
L 378.948613 268.991115 
L 383.356556 268.991115 
L 383.356556 272.067794 
L 387.764499 272.067794 
L 387.764499 274.865369 
L 392.172442 274.865369 
L 392.172442 278.26941 
L 396.580385 278.26941 
L 396.580385 280.740927 
L 400.988328 280.740927 
L 400.988328 282.774222 
L 405.396271 282.774222 
L 405.396271 285.905679 
L 409.804214 285.905679 
L 409.804214 288.20895 
L 414.212157 288.20895 
L 414.212157 290.726115 
L 418.6201 290.726115 
L 418.6201 292.348578 
L 423.028042 292.348578 
L 423.028042 294.31014 
L 427.435985 294.31014 
L 427.435985 295.939124 
L 431.843928 295.939124 
L 431.843928 299.021021 
L 436.251871 299.021021 
L 436.251871 300.629137 
L 440.659814 300.629137 
L 440.659814 302.75112 
L 445.067757 302.75112 
L 445.067757 303.981009 
L 449.4757 303.981009 
L 449.4757 306.199505 
L 453.883643 306.199505 
L 453.883643 307.535037 
L 458.291586 307.535037 
L 458.291586 308.828834 
L 462.699529 308.828834 
L 462.699529 310.52955 
L 467.107472 310.52955 
L 467.107472 312.547195 
L 471.515415 312.547195 
L 471.515415 313.467982 
L 475.923358 313.467982 
L 475.923358 314.9535 
L 480.331301 314.9535 
L 480.331301 316.30077 
L 484.739244 316.30077 
L 484.739244 318.087566 
L 489.147187 318.087566 
L 489.147187 319.352669 
L 493.55513 319.352669 
L 493.55513 320.906008 
L 497.963073 320.906008 
L 497.963073 321.829403 
L 502.371016 321.829403 
L 502.371016 324.561766 
L 506.778959 324.561766 
L 506.778959 328.263172 
L 511.186902 328.263172 
L 511.186902 345.368154 
L 515.594845 345.368154 
L 515.594845 378 
L 515.594845 378 
" clip-path="url(#p3db67f6cda)" style="fill: none; stroke: #fc6983; stroke-linejoin: miter"/>
   </g>
   <g id="patch_104">
    <path d="M 74.9619 378 
L 74.9619 377.493593 
L 79.366662 377.493593 
L 79.366662 376.86189 
L 88.176186 376.938895 
L 88.176186 376.728762 
L 92.580948 376.728762 
L 92.580948 375.757714 
L 96.98571 375.757714 
L 96.98571 373.910895 
L 101.390472 373.910895 
L 101.390472 367.783111 
L 105.795234 367.783111 
L 105.795234 353.781222 
L 110.199996 353.781222 
L 110.199996 332.658314 
L 114.604758 332.658314 
L 114.604758 308.015355 
L 119.00952 308.015355 
L 119.00952 279.190624 
L 123.414282 279.190624 
L 123.414282 254.490238 
L 127.819044 254.490238 
L 127.819044 236.350953 
L 132.223806 236.350953 
L 132.223806 228.700033 
L 136.628568 228.700033 
L 136.628568 232.008645 
L 141.03333 232.008645 
L 141.03333 241.562506 
L 145.438092 241.562506 
L 145.438092 248.754006 
L 149.842854 248.754006 
L 149.842854 255.764086 
L 154.247616 255.764086 
L 154.247616 260.888193 
L 158.652378 260.888193 
L 158.652378 265.631189 
L 163.05714 265.631189 
L 163.05714 265.957482 
L 167.461902 265.957482 
L 167.461902 262.821153 
L 171.866664 262.821153 
L 171.866664 262.647565 
L 176.271426 262.647565 
L 176.271426 260.428772 
L 180.676188 260.428772 
L 180.676188 262.621462 
L 185.08095 262.621462 
L 185.08095 262.869444 
L 189.485712 262.869444 
L 189.485712 266.201549 
L 193.890474 266.201549 
L 193.890474 267.125611 
L 198.295236 267.125611 
L 198.295236 264.555727 
L 202.699998 264.555727 
L 202.699998 262.082425 
L 207.10476 262.082425 
L 207.10476 259.786627 
L 211.509522 259.786627 
L 211.509522 253.175929 
L 215.914284 253.175929 
L 215.914284 247.487988 
L 220.319046 247.487988 
L 220.319046 236.769913 
L 224.723808 236.769913 
L 224.723808 231.132874 
L 229.12857 231.132874 
L 229.12857 225.3105 
L 233.533332 225.3105 
L 233.533332 222.732785 
L 237.938094 222.732785 
L 237.938094 219.194463 
L 242.342856 219.194463 
L 242.342856 219.007823 
L 246.747618 219.007823 
L 246.747618 216.983501 
L 251.15238 216.983501 
L 251.15238 212.4663 
L 255.557142 212.4663 
L 255.557142 207.65935 
L 259.961904 207.65935 
L 259.961904 203.627673 
L 264.366666 203.627673 
L 264.366666 200.367352 
L 268.771428 200.367352 
L 268.771428 194.655918 
L 273.17619 194.655918 
L 273.17619 186.402008 
L 277.580952 186.402008 
L 277.580952 178.550092 
L 281.985714 178.550092 
L 281.985714 168.479382 
L 286.390476 168.479382 
L 286.390476 164.210163 
L 290.795238 164.210163 
L 290.795238 157.690828 
L 295.2 157.690828 
L 295.2 151.406423 
L 299.604762 151.406423 
L 299.604762 165.611918 
L 304.009524 165.611918 
L 304.009524 173.658306 
L 308.414286 173.658306 
L 308.414286 184.876262 
L 312.819048 184.876262 
L 312.819048 193.884561 
L 317.22381 193.884561 
L 317.22381 202.459543 
L 321.628572 202.459543 
L 321.628572 209.940791 
L 326.033334 209.940791 
L 326.033334 215.931532 
L 330.438096 215.931532 
L 330.438096 220.64973 
L 334.842858 220.64973 
L 334.842858 224.930695 
L 339.24762 224.930695 
L 339.24762 229.194693 
L 343.652382 229.194693 
L 343.652382 232.821767 
L 348.057144 232.821767 
L 348.057144 233.650552 
L 352.461906 233.650552 
L 352.461906 237.496894 
L 356.866668 237.496894 
L 356.866668 240.404818 
L 361.27143 240.404818 
L 361.27143 246.374676 
L 365.676192 246.374676 
L 365.676192 252.200966 
L 370.080954 252.200966 
L 370.080954 263.86007 
L 374.485716 263.86007 
L 374.485716 271.864692 
L 378.890478 271.864692 
L 378.890478 278.998764 
L 383.29524 278.998764 
L 383.29524 284.021067 
L 387.700002 284.021067 
L 387.700002 289.887817 
L 392.104764 289.887817 
L 392.104764 293.755042 
L 396.509526 293.755042 
L 396.509526 296.621201 
L 400.914288 296.621201 
L 400.914288 299.150624 
L 405.31905 299.150624 
L 405.31905 302.79336 
L 409.723812 302.79336 
L 409.723812 305.608617 
L 414.128574 305.608617 
L 414.128574 309.205672 
L 418.533336 309.205672 
L 418.533336 312.117512 
L 422.938098 312.117512 
L 422.938098 313.799879 
L 427.34286 313.799879 
L 427.34286 315.017604 
L 431.747622 315.017604 
L 431.747622 315.47572 
L 436.152384 315.47572 
L 436.152384 317.574437 
L 440.557146 317.574437 
L 440.557146 320.714682 
L 444.961908 320.714682 
L 444.961908 324.480104 
L 449.36667 324.480104 
L 449.36667 325.857061 
L 453.771432 325.857061 
L 453.771432 325.111807 
L 458.176194 325.111807 
L 458.176194 324.691542 
L 462.580956 324.691542 
L 462.580956 329.181334 
L 466.985718 329.181334 
L 466.985718 337.944261 
L 471.39048 337.944261 
L 471.39048 348.402607 
L 475.795242 348.402607 
L 475.795242 357.319545 
L 480.200004 357.319545 
L 480.200004 364.775994 
L 484.604766 364.775994 
L 484.604766 371.639895 
L 489.009528 371.639895 
L 489.009528 375.139062 
L 493.41429 375.139062 
L 493.41429 376.301971 
L 497.819052 376.301971 
L 497.819052 376.881467 
L 502.223814 376.881467 
L 502.223814 377.062886 
L 511.033338 377.064191 
L 511.033338 377.566683 
L 515.4381 377.566683 
L 515.4381 378 
L 515.4381 378 
" clip-path="url(#p3db67f6cda)" style="fill: none; stroke: #15215b; stroke-linejoin: miter"/>
   </g>
   <g id="patch_105">
    <path d="M 72 378 
L 72 51.84 
" style="fill: none; stroke: #000000; stroke-width: 0.8; stroke-linejoin: miter; stroke-linecap: square"/>
   </g>
   <g id="patch_106">
    <path d="M 518.4 378 
L 518.4 51.84 
" style="fill: none; stroke: #000000; stroke-width: 0.8; stroke-linejoin: miter; stroke-linecap: square"/>
   </g>
   <g id="patch_107">
    <path d="M 72 378 
L 518.4 378 
" style="fill: none; stroke: #000000; stroke-width: 0.8; stroke-linejoin: miter; stroke-linecap: square"/>
   </g>
   <g id="patch_108">
    <path d="M 72 51.84 
L 518.4 51.84 
" style="fill: none; stroke: #000000; stroke-width: 0.8; stroke-linejoin: miter; stroke-linecap: square"/>
   </g>
  </g>
 </g>
 <defs>
  <clipPath id="p3db67f6cda">
   <rect x="72" y="51.84" width="446.4" height="326.16"/>
  </clipPath>
 </defs>
</svg>
