<?xml version="1.0" encoding="utf-8" standalone="no"?>
<!DOCTYPE svg PUBLIC "-//W3C//DTD SVG 1.1//EN"
  "http://www.w3.org/Graphics/SVG/1.1/DTD/svg11.dtd">
<svg xmlns:xlink="http://www.w3.org/1999/xlink" width="576pt" height="432pt" viewBox="0 0 576 432" xmlns="http://www.w3.org/2000/svg" version="1.1">
 <metadata>
  <rdf:RDF xmlns:dc="http://purl.org/dc/elements/1.1/" xmlns:cc="http://creativecommons.org/ns#" xmlns:rdf="http://www.w3.org/1999/02/22-rdf-syntax-ns#">
   <cc:Work>
    <dc:type rdf:resource="http://purl.org/dc/dcmitype/StillImage"/>
    <dc:date>2022-07-29T11:52:54.852229</dc:date>
    <dc:format>image/svg+xml</dc:format>
    <dc:creator>
     <cc:Agent>
      <dc:title>Matplotlib v3.5.1, https://matplotlib.org/</dc:title>
     </cc:Agent>
    </dc:creator>
   </cc:Work>
  </rdf:RDF>
 </metadata>
 <defs>
  <style type="text/css">*{stroke-linejoin: round; stroke-linecap: butt}</style>
 </defs>
 <g id="figure_1">
  <g id="patch_1">
   <path d="M 0 432 
L 576 432 
L 576 0 
L 0 0 
L 0 432 
z
" style="fill: none"/>
  </g>
  <g id="axes_1">
   <g id="patch_2">
    <path d="M 72 378 
L 518.4 378 
L 518.4 51.84 
L 72 51.84 
z
" style="fill: #ffffff"/>
   </g>
   <g id="patch_3">
    <path d="M 190.361483 378 
L 192.472225 378 
L 192.472225 371.460451 
L 190.361483 371.460451 
z
" clip-path="url(#p8cc37b8bf8)" style="fill: #24b4b1; fill-opacity: 0.5"/>
   </g>
   <g id="patch_4">
    <path d="M 192.472225 378 
L 194.582967 378 
L 194.582967 378 
L 192.472225 378 
z
" clip-path="url(#p8cc37b8bf8)" style="fill: #24b4b1; fill-opacity: 0.5"/>
   </g>
   <g id="patch_5">
    <path d="M 194.582967 378 
L 196.693709 378 
L 196.693709 374.730226 
L 194.582967 374.730226 
z
" clip-path="url(#p8cc37b8bf8)" style="fill: #24b4b1; fill-opacity: 0.5"/>
   </g>
   <g id="patch_6">
    <path d="M 196.693709 378 
L 198.804451 378 
L 198.804451 374.730226 
L 196.693709 374.730226 
z
" clip-path="url(#p8cc37b8bf8)" style="fill: #24b4b1; fill-opacity: 0.5"/>
   </g>
   <g id="patch_7">
    <path d="M 198.804451 378 
L 200.915193 378 
L 200.915193 374.730226 
L 198.804451 374.730226 
z
" clip-path="url(#p8cc37b8bf8)" style="fill: #24b4b1; fill-opacity: 0.5"/>
   </g>
   <g id="patch_8">
    <path d="M 200.915193 378 
L 203.025935 378 
L 203.025935 378 
L 200.915193 378 
z
" clip-path="url(#p8cc37b8bf8)" style="fill: #24b4b1; fill-opacity: 0.5"/>
   </g>
   <g id="patch_9">
    <path d="M 203.025935 378 
L 205.136677 378 
L 205.136677 374.730226 
L 203.025935 374.730226 
z
" clip-path="url(#p8cc37b8bf8)" style="fill: #24b4b1; fill-opacity: 0.5"/>
   </g>
   <g id="patch_10">
    <path d="M 205.136677 378 
L 207.247419 378 
L 207.247419 378 
L 205.136677 378 
z
" clip-path="url(#p8cc37b8bf8)" style="fill: #24b4b1; fill-opacity: 0.5"/>
   </g>
   <g id="patch_11">
    <path d="M 207.247419 378 
L 209.358161 378 
L 209.358161 378 
L 207.247419 378 
z
" clip-path="url(#p8cc37b8bf8)" style="fill: #24b4b1; fill-opacity: 0.5"/>
   </g>
   <g id="patch_12">
    <path d="M 209.358161 378 
L 211.468903 378 
L 211.468903 374.730226 
L 209.358161 374.730226 
z
" clip-path="url(#p8cc37b8bf8)" style="fill: #24b4b1; fill-opacity: 0.5"/>
   </g>
   <g id="patch_13">
    <path d="M 211.468903 378 
L 213.579645 378 
L 213.579645 374.730226 
L 211.468903 374.730226 
z
" clip-path="url(#p8cc37b8bf8)" style="fill: #24b4b1; fill-opacity: 0.5"/>
   </g>
   <g id="patch_14">
    <path d="M 213.579645 378 
L 215.690387 378 
L 215.690387 371.460451 
L 213.579645 371.460451 
z
" clip-path="url(#p8cc37b8bf8)" style="fill: #24b4b1; fill-opacity: 0.5"/>
   </g>
   <g id="patch_15">
    <path d="M 215.690387 378 
L 217.801129 378 
L 217.801129 358.381353 
L 215.690387 358.381353 
z
" clip-path="url(#p8cc37b8bf8)" style="fill: #24b4b1; fill-opacity: 0.5"/>
   </g>
   <g id="patch_16">
    <path d="M 217.801129 378 
L 219.911871 378 
L 219.911871 361.651128 
L 217.801129 361.651128 
z
" clip-path="url(#p8cc37b8bf8)" style="fill: #24b4b1; fill-opacity: 0.5"/>
   </g>
   <g id="patch_17">
    <path d="M 219.911871 378 
L 222.022613 378 
L 222.022613 351.841805 
L 219.911871 351.841805 
z
" clip-path="url(#p8cc37b8bf8)" style="fill: #24b4b1; fill-opacity: 0.5"/>
   </g>
   <g id="patch_18">
    <path d="M 222.022613 378 
L 224.133355 378 
L 224.133355 358.381353 
L 222.022613 358.381353 
z
" clip-path="url(#p8cc37b8bf8)" style="fill: #24b4b1; fill-opacity: 0.5"/>
   </g>
   <g id="patch_19">
    <path d="M 224.133355 378 
L 226.244097 378 
L 226.244097 355.111579 
L 224.133355 355.111579 
z
" clip-path="url(#p8cc37b8bf8)" style="fill: #24b4b1; fill-opacity: 0.5"/>
   </g>
   <g id="patch_20">
    <path d="M 226.244097 378 
L 228.354839 378 
L 228.354839 322.413835 
L 226.244097 322.413835 
z
" clip-path="url(#p8cc37b8bf8)" style="fill: #24b4b1; fill-opacity: 0.5"/>
   </g>
   <g id="patch_21">
    <path d="M 228.354839 378 
L 230.465581 378 
L 230.465581 348.57203 
L 228.354839 348.57203 
z
" clip-path="url(#p8cc37b8bf8)" style="fill: #24b4b1; fill-opacity: 0.5"/>
   </g>
   <g id="patch_22">
    <path d="M 230.465581 378 
L 232.576323 378 
L 232.576323 345.302256 
L 230.465581 345.302256 
z
" clip-path="url(#p8cc37b8bf8)" style="fill: #24b4b1; fill-opacity: 0.5"/>
   </g>
   <g id="patch_23">
    <path d="M 232.576323 378 
L 234.687065 378 
L 234.687065 342.032481 
L 232.576323 342.032481 
z
" clip-path="url(#p8cc37b8bf8)" style="fill: #24b4b1; fill-opacity: 0.5"/>
   </g>
   <g id="patch_24">
    <path d="M 234.687065 378 
L 236.797807 378 
L 236.797807 342.032481 
L 234.687065 342.032481 
z
" clip-path="url(#p8cc37b8bf8)" style="fill: #24b4b1; fill-opacity: 0.5"/>
   </g>
   <g id="patch_25">
    <path d="M 236.797807 378 
L 238.908549 378 
L 238.908549 325.683609 
L 236.797807 325.683609 
z
" clip-path="url(#p8cc37b8bf8)" style="fill: #24b4b1; fill-opacity: 0.5"/>
   </g>
   <g id="patch_26">
    <path d="M 238.908549 378 
L 241.019291 378 
L 241.019291 335.492932 
L 238.908549 335.492932 
z
" clip-path="url(#p8cc37b8bf8)" style="fill: #24b4b1; fill-opacity: 0.5"/>
   </g>
   <g id="patch_27">
    <path d="M 241.019291 378 
L 243.130033 378 
L 243.130033 332.223158 
L 241.019291 332.223158 
z
" clip-path="url(#p8cc37b8bf8)" style="fill: #24b4b1; fill-opacity: 0.5"/>
   </g>
   <g id="patch_28">
    <path d="M 243.130033 378 
L 245.240775 378 
L 245.240775 325.683609 
L 243.130033 325.683609 
z
" clip-path="url(#p8cc37b8bf8)" style="fill: #24b4b1; fill-opacity: 0.5"/>
   </g>
   <g id="patch_29">
    <path d="M 245.240775 378 
L 247.351517 378 
L 247.351517 315.874286 
L 245.240775 315.874286 
z
" clip-path="url(#p8cc37b8bf8)" style="fill: #24b4b1; fill-opacity: 0.5"/>
   </g>
   <g id="patch_30">
    <path d="M 247.351517 378 
L 249.462259 378 
L 249.462259 283.176541 
L 247.351517 283.176541 
z
" clip-path="url(#p8cc37b8bf8)" style="fill: #24b4b1; fill-opacity: 0.5"/>
   </g>
   <g id="patch_31">
    <path d="M 249.462259 378 
L 251.573001 378 
L 251.573001 306.064962 
L 249.462259 306.064962 
z
" clip-path="url(#p8cc37b8bf8)" style="fill: #24b4b1; fill-opacity: 0.5"/>
   </g>
   <g id="patch_32">
    <path d="M 251.573001 378 
L 253.683743 378 
L 253.683743 335.492932 
L 251.573001 335.492932 
z
" clip-path="url(#p8cc37b8bf8)" style="fill: #24b4b1; fill-opacity: 0.5"/>
   </g>
   <g id="patch_33">
    <path d="M 253.683743 378 
L 255.794485 378 
L 255.794485 332.223158 
L 253.683743 332.223158 
z
" clip-path="url(#p8cc37b8bf8)" style="fill: #24b4b1; fill-opacity: 0.5"/>
   </g>
   <g id="patch_34">
    <path d="M 255.794485 378 
L 257.905227 378 
L 257.905227 319.14406 
L 255.794485 319.14406 
z
" clip-path="url(#p8cc37b8bf8)" style="fill: #24b4b1; fill-opacity: 0.5"/>
   </g>
   <g id="patch_35">
    <path d="M 257.905227 378 
L 260.015969 378 
L 260.015969 302.795188 
L 257.905227 302.795188 
z
" clip-path="url(#p8cc37b8bf8)" style="fill: #24b4b1; fill-opacity: 0.5"/>
   </g>
   <g id="patch_36">
    <path d="M 260.015969 378 
L 262.126711 378 
L 262.126711 325.683609 
L 260.015969 325.683609 
z
" clip-path="url(#p8cc37b8bf8)" style="fill: #24b4b1; fill-opacity: 0.5"/>
   </g>
   <g id="patch_37">
    <path d="M 262.126711 378 
L 264.237453 378 
L 264.237453 332.223158 
L 262.126711 332.223158 
z
" clip-path="url(#p8cc37b8bf8)" style="fill: #24b4b1; fill-opacity: 0.5"/>
   </g>
   <g id="patch_38">
    <path d="M 264.237453 378 
L 266.348195 378 
L 266.348195 270.097444 
L 264.237453 270.097444 
z
" clip-path="url(#p8cc37b8bf8)" style="fill: #24b4b1; fill-opacity: 0.5"/>
   </g>
   <g id="patch_39">
    <path d="M 266.348195 378 
L 268.458937 378 
L 268.458937 332.223158 
L 266.348195 332.223158 
z
" clip-path="url(#p8cc37b8bf8)" style="fill: #24b4b1; fill-opacity: 0.5"/>
   </g>
   <g id="patch_40">
    <path d="M 268.458937 378 
L 270.569679 378 
L 270.569679 299.525414 
L 268.458937 299.525414 
z
" clip-path="url(#p8cc37b8bf8)" style="fill: #24b4b1; fill-opacity: 0.5"/>
   </g>
   <g id="patch_41">
    <path d="M 270.569679 378 
L 272.680421 378 
L 272.680421 296.255639 
L 270.569679 296.255639 
z
" clip-path="url(#p8cc37b8bf8)" style="fill: #24b4b1; fill-opacity: 0.5"/>
   </g>
   <g id="patch_42">
    <path d="M 272.680421 378 
L 274.791163 378 
L 274.791163 299.525414 
L 272.680421 299.525414 
z
" clip-path="url(#p8cc37b8bf8)" style="fill: #24b4b1; fill-opacity: 0.5"/>
   </g>
   <g id="patch_43">
    <path d="M 274.791163 378 
L 276.901905 378 
L 276.901905 286.446316 
L 274.791163 286.446316 
z
" clip-path="url(#p8cc37b8bf8)" style="fill: #24b4b1; fill-opacity: 0.5"/>
   </g>
   <g id="patch_44">
    <path d="M 276.901905 378 
L 279.012647 378 
L 279.012647 263.557895 
L 276.901905 263.557895 
z
" clip-path="url(#p8cc37b8bf8)" style="fill: #24b4b1; fill-opacity: 0.5"/>
   </g>
   <g id="patch_45">
    <path d="M 279.012647 378 
L 281.123389 378 
L 281.123389 253.748571 
L 279.012647 253.748571 
z
" clip-path="url(#p8cc37b8bf8)" style="fill: #24b4b1; fill-opacity: 0.5"/>
   </g>
   <g id="patch_46">
    <path d="M 281.123389 378 
L 283.234131 378 
L 283.234131 240.669474 
L 281.123389 240.669474 
z
" clip-path="url(#p8cc37b8bf8)" style="fill: #24b4b1; fill-opacity: 0.5"/>
   </g>
   <g id="patch_47">
    <path d="M 283.234131 378 
L 285.344873 378 
L 285.344873 276.636992 
L 283.234131 276.636992 
z
" clip-path="url(#p8cc37b8bf8)" style="fill: #24b4b1; fill-opacity: 0.5"/>
   </g>
   <g id="patch_48">
    <path d="M 285.344873 378 
L 287.455615 378 
L 287.455615 263.557895 
L 285.344873 263.557895 
z
" clip-path="url(#p8cc37b8bf8)" style="fill: #24b4b1; fill-opacity: 0.5"/>
   </g>
   <g id="patch_49">
    <path d="M 287.455615 378 
L 289.566357 378 
L 289.566357 224.320602 
L 287.455615 224.320602 
z
" clip-path="url(#p8cc37b8bf8)" style="fill: #24b4b1; fill-opacity: 0.5"/>
   </g>
   <g id="patch_50">
    <path d="M 289.566357 378 
L 291.677099 378 
L 291.677099 198.162406 
L 289.566357 198.162406 
z
" clip-path="url(#p8cc37b8bf8)" style="fill: #24b4b1; fill-opacity: 0.5"/>
   </g>
   <g id="patch_51">
    <path d="M 291.677099 378 
L 293.787841 378 
L 293.787841 191.622857 
L 291.677099 191.622857 
z
" clip-path="url(#p8cc37b8bf8)" style="fill: #24b4b1; fill-opacity: 0.5"/>
   </g>
   <g id="patch_52">
    <path d="M 293.787841 378 
L 295.898583 378 
L 295.898583 116.418045 
L 293.787841 116.418045 
z
" clip-path="url(#p8cc37b8bf8)" style="fill: #24b4b1; fill-opacity: 0.5"/>
   </g>
   <g id="patch_53">
    <path d="M 295.898583 378 
L 298.009325 378 
L 298.009325 73.910977 
L 295.898583 73.910977 
z
" clip-path="url(#p8cc37b8bf8)" style="fill: #24b4b1; fill-opacity: 0.5"/>
   </g>
   <g id="patch_54">
    <path d="M 298.009325 378 
L 300.120067 378 
L 300.120067 67.371429 
L 298.009325 67.371429 
z
" clip-path="url(#p8cc37b8bf8)" style="fill: #24b4b1; fill-opacity: 0.5"/>
   </g>
   <g id="patch_55">
    <path d="M 300.120067 378 
L 302.230809 378 
L 302.230809 145.846015 
L 300.120067 145.846015 
z
" clip-path="url(#p8cc37b8bf8)" style="fill: #24b4b1; fill-opacity: 0.5"/>
   </g>
   <g id="patch_56">
    <path d="M 302.230809 378 
L 304.341551 378 
L 304.341551 90.25985 
L 302.230809 90.25985 
z
" clip-path="url(#p8cc37b8bf8)" style="fill: #24b4b1; fill-opacity: 0.5"/>
   </g>
   <g id="patch_57">
    <path d="M 304.341551 378 
L 306.452293 378 
L 306.452293 172.004211 
L 304.341551 172.004211 
z
" clip-path="url(#p8cc37b8bf8)" style="fill: #24b4b1; fill-opacity: 0.5"/>
   </g>
   <g id="patch_58">
    <path d="M 306.452293 378 
L 308.563035 378 
L 308.563035 221.050827 
L 306.452293 221.050827 
z
" clip-path="url(#p8cc37b8bf8)" style="fill: #24b4b1; fill-opacity: 0.5"/>
   </g>
   <g id="patch_59">
    <path d="M 308.563035 378 
L 310.673777 378 
L 310.673777 257.018346 
L 308.563035 257.018346 
z
" clip-path="url(#p8cc37b8bf8)" style="fill: #24b4b1; fill-opacity: 0.5"/>
   </g>
   <g id="patch_60">
    <path d="M 310.673777 378 
L 312.78452 378 
L 312.78452 227.590376 
L 310.673777 227.590376 
z
" clip-path="url(#p8cc37b8bf8)" style="fill: #24b4b1; fill-opacity: 0.5"/>
   </g>
   <g id="patch_61">
    <path d="M 312.78452 378 
L 314.895262 378 
L 314.895262 250.478797 
L 312.78452 250.478797 
z
" clip-path="url(#p8cc37b8bf8)" style="fill: #24b4b1; fill-opacity: 0.5"/>
   </g>
   <g id="patch_62">
    <path d="M 314.895262 378 
L 317.006004 378 
L 317.006004 243.939248 
L 314.895262 243.939248 
z
" clip-path="url(#p8cc37b8bf8)" style="fill: #24b4b1; fill-opacity: 0.5"/>
   </g>
   <g id="patch_63">
    <path d="M 317.006004 378 
L 319.116746 378 
L 319.116746 227.590376 
L 317.006004 227.590376 
z
" clip-path="url(#p8cc37b8bf8)" style="fill: #24b4b1; fill-opacity: 0.5"/>
   </g>
   <g id="patch_64">
    <path d="M 319.116746 378 
L 321.227488 378 
L 321.227488 214.511278 
L 319.116746 214.511278 
z
" clip-path="url(#p8cc37b8bf8)" style="fill: #24b4b1; fill-opacity: 0.5"/>
   </g>
   <g id="patch_65">
    <path d="M 321.227488 378 
L 323.33823 378 
L 323.33823 201.43218 
L 321.227488 201.43218 
z
" clip-path="url(#p8cc37b8bf8)" style="fill: #24b4b1; fill-opacity: 0.5"/>
   </g>
   <g id="patch_66">
    <path d="M 323.33823 378 
L 325.448972 378 
L 325.448972 240.669474 
L 323.33823 240.669474 
z
" clip-path="url(#p8cc37b8bf8)" style="fill: #24b4b1; fill-opacity: 0.5"/>
   </g>
   <g id="patch_67">
    <path d="M 325.448972 378 
L 327.559714 378 
L 327.559714 214.511278 
L 325.448972 214.511278 
z
" clip-path="url(#p8cc37b8bf8)" style="fill: #24b4b1; fill-opacity: 0.5"/>
   </g>
   <g id="patch_68">
    <path d="M 327.559714 378 
L 329.670456 378 
L 329.670456 191.622857 
L 327.559714 191.622857 
z
" clip-path="url(#p8cc37b8bf8)" style="fill: #24b4b1; fill-opacity: 0.5"/>
   </g>
   <g id="patch_69">
    <path d="M 329.670456 378 
L 331.781198 378 
L 331.781198 247.209023 
L 329.670456 247.209023 
z
" clip-path="url(#p8cc37b8bf8)" style="fill: #24b4b1; fill-opacity: 0.5"/>
   </g>
   <g id="patch_70">
    <path d="M 331.781198 378 
L 333.89194 378 
L 333.89194 191.622857 
L 331.781198 191.622857 
z
" clip-path="url(#p8cc37b8bf8)" style="fill: #24b4b1; fill-opacity: 0.5"/>
   </g>
   <g id="patch_71">
    <path d="M 333.89194 378 
L 336.002682 378 
L 336.002682 204.701955 
L 333.89194 204.701955 
z
" clip-path="url(#p8cc37b8bf8)" style="fill: #24b4b1; fill-opacity: 0.5"/>
   </g>
   <g id="patch_72">
    <path d="M 336.002682 378 
L 338.113424 378 
L 338.113424 198.162406 
L 336.002682 198.162406 
z
" clip-path="url(#p8cc37b8bf8)" style="fill: #24b4b1; fill-opacity: 0.5"/>
   </g>
   <g id="patch_73">
    <path d="M 338.113424 378 
L 340.224166 378 
L 340.224166 234.129925 
L 338.113424 234.129925 
z
" clip-path="url(#p8cc37b8bf8)" style="fill: #24b4b1; fill-opacity: 0.5"/>
   </g>
   <g id="patch_74">
    <path d="M 340.224166 378 
L 342.334908 378 
L 342.334908 263.557895 
L 340.224166 263.557895 
z
" clip-path="url(#p8cc37b8bf8)" style="fill: #24b4b1; fill-opacity: 0.5"/>
   </g>
   <g id="patch_75">
    <path d="M 342.334908 378 
L 344.44565 378 
L 344.44565 266.827669 
L 342.334908 266.827669 
z
" clip-path="url(#p8cc37b8bf8)" style="fill: #24b4b1; fill-opacity: 0.5"/>
   </g>
   <g id="patch_76">
    <path d="M 344.44565 378 
L 346.556392 378 
L 346.556392 263.557895 
L 344.44565 263.557895 
z
" clip-path="url(#p8cc37b8bf8)" style="fill: #24b4b1; fill-opacity: 0.5"/>
   </g>
   <g id="patch_77">
    <path d="M 346.556392 378 
L 348.667134 378 
L 348.667134 315.874286 
L 346.556392 315.874286 
z
" clip-path="url(#p8cc37b8bf8)" style="fill: #24b4b1; fill-opacity: 0.5"/>
   </g>
   <g id="patch_78">
    <path d="M 348.667134 378 
L 350.777876 378 
L 350.777876 332.223158 
L 348.667134 332.223158 
z
" clip-path="url(#p8cc37b8bf8)" style="fill: #24b4b1; fill-opacity: 0.5"/>
   </g>
   <g id="patch_79">
    <path d="M 350.777876 378 
L 352.888618 378 
L 352.888618 335.492932 
L 350.777876 335.492932 
z
" clip-path="url(#p8cc37b8bf8)" style="fill: #24b4b1; fill-opacity: 0.5"/>
   </g>
   <g id="patch_80">
    <path d="M 352.888618 378 
L 354.99936 378 
L 354.99936 345.302256 
L 352.888618 345.302256 
z
" clip-path="url(#p8cc37b8bf8)" style="fill: #24b4b1; fill-opacity: 0.5"/>
   </g>
   <g id="patch_81">
    <path d="M 354.99936 378 
L 357.110102 378 
L 357.110102 338.762707 
L 354.99936 338.762707 
z
" clip-path="url(#p8cc37b8bf8)" style="fill: #24b4b1; fill-opacity: 0.5"/>
   </g>
   <g id="patch_82">
    <path d="M 357.110102 378 
L 359.220844 378 
L 359.220844 351.841805 
L 357.110102 351.841805 
z
" clip-path="url(#p8cc37b8bf8)" style="fill: #24b4b1; fill-opacity: 0.5"/>
   </g>
   <g id="patch_83">
    <path d="M 359.220844 378 
L 361.331586 378 
L 361.331586 361.651128 
L 359.220844 361.651128 
z
" clip-path="url(#p8cc37b8bf8)" style="fill: #24b4b1; fill-opacity: 0.5"/>
   </g>
   <g id="patch_84">
    <path d="M 361.331586 378 
L 363.442328 378 
L 363.442328 364.920902 
L 361.331586 364.920902 
z
" clip-path="url(#p8cc37b8bf8)" style="fill: #24b4b1; fill-opacity: 0.5"/>
   </g>
   <g id="patch_85">
    <path d="M 363.442328 378 
L 365.55307 378 
L 365.55307 351.841805 
L 363.442328 351.841805 
z
" clip-path="url(#p8cc37b8bf8)" style="fill: #24b4b1; fill-opacity: 0.5"/>
   </g>
   <g id="patch_86">
    <path d="M 365.55307 378 
L 367.663812 378 
L 367.663812 355.111579 
L 365.55307 355.111579 
z
" clip-path="url(#p8cc37b8bf8)" style="fill: #24b4b1; fill-opacity: 0.5"/>
   </g>
   <g id="patch_87">
    <path d="M 367.663812 378 
L 369.774554 378 
L 369.774554 351.841805 
L 367.663812 351.841805 
z
" clip-path="url(#p8cc37b8bf8)" style="fill: #24b4b1; fill-opacity: 0.5"/>
   </g>
   <g id="patch_88">
    <path d="M 369.774554 378 
L 371.885296 378 
L 371.885296 371.460451 
L 369.774554 371.460451 
z
" clip-path="url(#p8cc37b8bf8)" style="fill: #24b4b1; fill-opacity: 0.5"/>
   </g>
   <g id="patch_89">
    <path d="M 371.885296 378 
L 373.996038 378 
L 373.996038 355.111579 
L 371.885296 355.111579 
z
" clip-path="url(#p8cc37b8bf8)" style="fill: #24b4b1; fill-opacity: 0.5"/>
   </g>
   <g id="patch_90">
    <path d="M 373.996038 378 
L 376.10678 378 
L 376.10678 358.381353 
L 373.996038 358.381353 
z
" clip-path="url(#p8cc37b8bf8)" style="fill: #24b4b1; fill-opacity: 0.5"/>
   </g>
   <g id="patch_91">
    <path d="M 376.10678 378 
L 378.217522 378 
L 378.217522 371.460451 
L 376.10678 371.460451 
z
" clip-path="url(#p8cc37b8bf8)" style="fill: #24b4b1; fill-opacity: 0.5"/>
   </g>
   <g id="patch_92">
    <path d="M 378.217522 378 
L 380.328264 378 
L 380.328264 371.460451 
L 378.217522 371.460451 
z
" clip-path="url(#p8cc37b8bf8)" style="fill: #24b4b1; fill-opacity: 0.5"/>
   </g>
   <g id="patch_93">
    <path d="M 380.328264 378 
L 382.439006 378 
L 382.439006 374.730226 
L 380.328264 374.730226 
z
" clip-path="url(#p8cc37b8bf8)" style="fill: #24b4b1; fill-opacity: 0.5"/>
   </g>
   <g id="patch_94">
    <path d="M 382.439006 378 
L 384.549748 378 
L 384.549748 371.460451 
L 382.439006 371.460451 
z
" clip-path="url(#p8cc37b8bf8)" style="fill: #24b4b1; fill-opacity: 0.5"/>
   </g>
   <g id="patch_95">
    <path d="M 384.549748 378 
L 386.66049 378 
L 386.66049 371.460451 
L 384.549748 371.460451 
z
" clip-path="url(#p8cc37b8bf8)" style="fill: #24b4b1; fill-opacity: 0.5"/>
   </g>
   <g id="patch_96">
    <path d="M 386.66049 378 
L 388.771232 378 
L 388.771232 374.730226 
L 386.66049 374.730226 
z
" clip-path="url(#p8cc37b8bf8)" style="fill: #24b4b1; fill-opacity: 0.5"/>
   </g>
   <g id="patch_97">
    <path d="M 388.771232 378 
L 390.881974 378 
L 390.881974 374.730226 
L 388.771232 374.730226 
z
" clip-path="url(#p8cc37b8bf8)" style="fill: #24b4b1; fill-opacity: 0.5"/>
   </g>
   <g id="patch_98">
    <path d="M 390.881974 378 
L 392.992716 378 
L 392.992716 378 
L 390.881974 378 
z
" clip-path="url(#p8cc37b8bf8)" style="fill: #24b4b1; fill-opacity: 0.5"/>
   </g>
   <g id="patch_99">
    <path d="M 392.992716 378 
L 395.103458 378 
L 395.103458 378 
L 392.992716 378 
z
" clip-path="url(#p8cc37b8bf8)" style="fill: #24b4b1; fill-opacity: 0.5"/>
   </g>
   <g id="patch_100">
    <path d="M 395.103458 378 
L 397.2142 378 
L 397.2142 378 
L 395.103458 378 
z
" clip-path="url(#p8cc37b8bf8)" style="fill: #24b4b1; fill-opacity: 0.5"/>
   </g>
   <g id="patch_101">
    <path d="M 397.2142 378 
L 399.324942 378 
L 399.324942 374.730226 
L 397.2142 374.730226 
z
" clip-path="url(#p8cc37b8bf8)" style="fill: #24b4b1; fill-opacity: 0.5"/>
   </g>
   <g id="patch_102">
    <path d="M 399.324942 378 
L 401.435684 378 
L 401.435684 371.460451 
L 399.324942 371.460451 
z
" clip-path="url(#p8cc37b8bf8)" style="fill: #24b4b1; fill-opacity: 0.5"/>
   </g>
   <g id="patch_103">
    <path d="M 144.307261 378 
L 147.325658 378 
L 147.325658 376.056451 
L 144.307261 376.056451 
L 144.307261 378 
z
" clip-path="url(#p8cc37b8bf8)" style="fill: none"/>
   </g>
   <g id="patch_104">
    <path d="M 147.325658 378 
L 150.344054 378 
L 150.344054 372.354561 
L 147.325658 372.354561 
L 147.325658 378 
z
" clip-path="url(#p8cc37b8bf8)" style="fill: none"/>
   </g>
   <g id="patch_105">
    <path d="M 150.344054 378 
L 153.362451 378 
L 153.362451 369.251741 
L 150.344054 369.251741 
L 150.344054 378 
z
" clip-path="url(#p8cc37b8bf8)" style="fill: none"/>
   </g>
   <g id="patch_106">
    <path d="M 153.362451 378 
L 156.380847 378 
L 156.380847 366.423305 
L 153.362451 366.423305 
L 153.362451 378 
z
" clip-path="url(#p8cc37b8bf8)" style="fill: none"/>
   </g>
   <g id="patch_107">
    <path d="M 156.380847 378 
L 159.399243 378 
L 159.399243 363.494262 
L 156.380847 363.494262 
L 156.380847 378 
z
" clip-path="url(#p8cc37b8bf8)" style="fill: none"/>
   </g>
   <g id="patch_108">
    <path d="M 159.399243 378 
L 162.41764 378 
L 162.41764 361.36779 
L 159.399243 361.36779 
L 159.399243 378 
z
" clip-path="url(#p8cc37b8bf8)" style="fill: none"/>
   </g>
   <g id="patch_109">
    <path d="M 162.41764 378 
L 165.436036 378 
L 165.436036 358.491337 
L 162.41764 358.491337 
L 162.41764 378 
z
" clip-path="url(#p8cc37b8bf8)" style="fill: none"/>
   </g>
   <g id="patch_110">
    <path d="M 165.436036 378 
L 168.454433 378 
L 168.454433 356.408309 
L 165.436036 356.408309 
L 165.436036 378 
z
" clip-path="url(#p8cc37b8bf8)" style="fill: none"/>
   </g>
   <g id="patch_111">
    <path d="M 168.454433 378 
L 171.472829 378 
L 171.472829 354.647682 
L 168.454433 354.647682 
L 168.454433 378 
z
" clip-path="url(#p8cc37b8bf8)" style="fill: none"/>
   </g>
   <g id="patch_112">
    <path d="M 171.472829 378 
L 174.491226 378 
L 174.491226 352.46176 
L 171.472829 352.46176 
L 171.472829 378 
z
" clip-path="url(#p8cc37b8bf8)" style="fill: none"/>
   </g>
   <g id="patch_113">
    <path d="M 174.491226 378 
L 177.509622 378 
L 177.509622 350.09063 
L 174.491226 350.09063 
L 174.491226 378 
z
" clip-path="url(#p8cc37b8bf8)" style="fill: none"/>
   </g>
   <g id="patch_114">
    <path d="M 177.509622 378 
L 180.528019 378 
L 180.528019 348.997669 
L 177.509622 348.997669 
L 177.509622 378 
z
" clip-path="url(#p8cc37b8bf8)" style="fill: none"/>
   </g>
   <g id="patch_115">
    <path d="M 180.528019 378 
L 183.546415 378 
L 183.546415 346.487061 
L 180.528019 346.487061 
L 180.528019 378 
z
" clip-path="url(#p8cc37b8bf8)" style="fill: none"/>
   </g>
   <g id="patch_116">
    <path d="M 183.546415 378 
L 186.564812 378 
L 186.564812 344.785883 
L 183.546415 344.785883 
L 183.546415 378 
z
" clip-path="url(#p8cc37b8bf8)" style="fill: none"/>
   </g>
   <g id="patch_117">
    <path d="M 186.564812 378 
L 189.583208 378 
L 189.583208 342.782884 
L 186.564812 342.782884 
L 186.564812 378 
z
" clip-path="url(#p8cc37b8bf8)" style="fill: none"/>
   </g>
   <g id="patch_118">
    <path d="M 189.583208 378 
L 192.601605 378 
L 192.601605 341.385815 
L 189.583208 341.385815 
L 189.583208 378 
z
" clip-path="url(#p8cc37b8bf8)" style="fill: none"/>
   </g>
   <g id="patch_119">
    <path d="M 192.601605 378 
L 195.620001 378 
L 195.620001 340.132798 
L 192.601605 340.132798 
L 192.601605 378 
z
" clip-path="url(#p8cc37b8bf8)" style="fill: none"/>
   </g>
   <g id="patch_120">
    <path d="M 195.620001 378 
L 198.638397 378 
L 198.638397 338.27385 
L 195.620001 338.27385 
L 195.620001 378 
z
" clip-path="url(#p8cc37b8bf8)" style="fill: none"/>
   </g>
   <g id="patch_121">
    <path d="M 198.638397 378 
L 201.656794 378 
L 201.656794 335.834123 
L 198.638397 335.834123 
L 198.638397 378 
z
" clip-path="url(#p8cc37b8bf8)" style="fill: none"/>
   </g>
   <g id="patch_122">
    <path d="M 201.656794 378 
L 204.67519 378 
L 204.67519 334.279284 
L 201.656794 334.279284 
L 201.656794 378 
z
" clip-path="url(#p8cc37b8bf8)" style="fill: none"/>
   </g>
   <g id="patch_123">
    <path d="M 204.67519 378 
L 207.693587 378 
L 207.693587 333.888288 
L 204.67519 333.888288 
L 204.67519 378 
z
" clip-path="url(#p8cc37b8bf8)" style="fill: none"/>
   </g>
   <g id="patch_124">
    <path d="M 207.693587 378 
L 210.711983 378 
L 210.711983 332.02248 
L 207.693587 332.02248 
L 207.693587 378 
z
" clip-path="url(#p8cc37b8bf8)" style="fill: none"/>
   </g>
   <g id="patch_125">
    <path d="M 210.711983 378 
L 213.73038 378 
L 213.73038 330.161246 
L 210.711983 330.161246 
L 210.711983 378 
z
" clip-path="url(#p8cc37b8bf8)" style="fill: none"/>
   </g>
   <g id="patch_126">
    <path d="M 213.73038 378 
L 216.748776 378 
L 216.748776 328.428057 
L 213.73038 328.428057 
L 213.73038 378 
z
" clip-path="url(#p8cc37b8bf8)" style="fill: none"/>
   </g>
   <g id="patch_127">
    <path d="M 216.748776 378 
L 219.767173 378 
L 219.767173 327.712373 
L 216.748776 327.712373 
L 216.748776 378 
z
" clip-path="url(#p8cc37b8bf8)" style="fill: none"/>
   </g>
   <g id="patch_128">
    <path d="M 219.767173 378 
L 222.785569 378 
L 222.785569 325.979185 
L 219.767173 325.979185 
L 219.767173 378 
z
" clip-path="url(#p8cc37b8bf8)" style="fill: none"/>
   </g>
   <g id="patch_129">
    <path d="M 222.785569 378 
L 225.803966 378 
L 225.803966 323.301659 
L 222.785569 323.301659 
L 222.785569 378 
z
" clip-path="url(#p8cc37b8bf8)" style="fill: none"/>
   </g>
   <g id="patch_130">
    <path d="M 225.803966 378 
L 228.822362 378 
L 228.822362 322.124097 
L 225.803966 322.124097 
L 225.803966 378 
z
" clip-path="url(#p8cc37b8bf8)" style="fill: none"/>
   </g>
   <g id="patch_131">
    <path d="M 228.822362 378 
L 231.840759 378 
L 231.840759 320.095946 
L 228.822362 320.095946 
L 228.822362 378 
z
" clip-path="url(#p8cc37b8bf8)" style="fill: none"/>
   </g>
   <g id="patch_132">
    <path d="M 231.840759 378 
L 234.859155 378 
L 234.859155 318.895519 
L 231.840759 318.895519 
L 231.840759 378 
z
" clip-path="url(#p8cc37b8bf8)" style="fill: none"/>
   </g>
   <g id="patch_133">
    <path d="M 234.859155 378 
L 237.877551 378 
L 237.877551 316.510669 
L 234.859155 316.510669 
L 234.859155 378 
z
" clip-path="url(#p8cc37b8bf8)" style="fill: none"/>
   </g>
   <g id="patch_134">
    <path d="M 237.877551 378 
L 240.895948 378 
L 240.895948 315.081589 
L 237.877551 315.081589 
L 237.877551 378 
z
" clip-path="url(#p8cc37b8bf8)" style="fill: none"/>
   </g>
   <g id="patch_135">
    <path d="M 240.895948 378 
L 243.914344 378 
L 243.914344 312.893381 
L 240.895948 312.893381 
L 240.895948 378 
z
" clip-path="url(#p8cc37b8bf8)" style="fill: none"/>
   </g>
   <g id="patch_136">
    <path d="M 243.914344 378 
L 246.932741 378 
L 246.932741 311.944471 
L 243.914344 311.944471 
L 243.914344 378 
z
" clip-path="url(#p8cc37b8bf8)" style="fill: none"/>
   </g>
   <g id="patch_137">
    <path d="M 246.932741 378 
L 249.951137 378 
L 249.951137 309.607639 
L 246.932741 309.607639 
L 246.932741 378 
z
" clip-path="url(#p8cc37b8bf8)" style="fill: none"/>
   </g>
   <g id="patch_138">
    <path d="M 249.951137 378 
L 252.969534 378 
L 252.969534 308.640437 
L 249.951137 308.640437 
L 249.951137 378 
z
" clip-path="url(#p8cc37b8bf8)" style="fill: none"/>
   </g>
   <g id="patch_139">
    <path d="M 252.969534 378 
L 255.98793 378 
L 255.98793 305.583348 
L 252.969534 305.583348 
L 252.969534 378 
z
" clip-path="url(#p8cc37b8bf8)" style="fill: none"/>
   </g>
   <g id="patch_140">
    <path d="M 255.98793 378 
L 259.006327 378 
L 259.006327 303.150482 
L 255.98793 303.150482 
L 255.98793 378 
z
" clip-path="url(#p8cc37b8bf8)" style="fill: none"/>
   </g>
   <g id="patch_141">
    <path d="M 259.006327 378 
L 262.024723 378 
L 262.024723 301.45845 
L 259.006327 301.45845 
L 259.006327 378 
z
" clip-path="url(#p8cc37b8bf8)" style="fill: none"/>
   </g>
   <g id="patch_142">
    <path d="M 262.024723 378 
L 265.04312 378 
L 265.04312 300.061381 
L 262.024723 300.061381 
L 262.024723 378 
z
" clip-path="url(#p8cc37b8bf8)" style="fill: none"/>
   </g>
   <g id="patch_143">
    <path d="M 265.04312 378 
L 268.061516 378 
L 268.061516 297.047736 
L 265.04312 297.047736 
L 265.04312 378 
z
" clip-path="url(#p8cc37b8bf8)" style="fill: none"/>
   </g>
   <g id="patch_144">
    <path d="M 268.061516 378 
L 271.079913 378 
L 271.079913 295.803865 
L 268.061516 295.803865 
L 268.061516 378 
z
" clip-path="url(#p8cc37b8bf8)" style="fill: none"/>
   </g>
   <g id="patch_145">
    <path d="M 271.079913 378 
L 274.098309 378 
L 274.098309 293.354993 
L 271.079913 293.354993 
L 271.079913 378 
z
" clip-path="url(#p8cc37b8bf8)" style="fill: none"/>
   </g>
   <g id="patch_146">
    <path d="M 274.098309 378 
L 277.116705 378 
L 277.116705 291.050172 
L 274.098309 291.050172 
L 274.098309 378 
z
" clip-path="url(#p8cc37b8bf8)" style="fill: none"/>
   </g>
   <g id="patch_147">
    <path d="M 277.116705 378 
L 280.135102 378 
L 280.135102 287.277399 
L 277.116705 287.277399 
L 277.116705 378 
z
" clip-path="url(#p8cc37b8bf8)" style="fill: none"/>
   </g>
   <g id="patch_148">
    <path d="M 280.135102 378 
L 283.153498 378 
L 283.153498 284.94514 
L 280.135102 284.94514 
L 280.135102 378 
z
" clip-path="url(#p8cc37b8bf8)" style="fill: none"/>
   </g>
   <g id="patch_149">
    <path d="M 283.153498 378 
L 286.171895 378 
L 286.171895 282.800376 
L 283.153498 282.800376 
L 283.153498 378 
z
" clip-path="url(#p8cc37b8bf8)" style="fill: none"/>
   </g>
   <g id="patch_150">
    <path d="M 286.171895 378 
L 289.190291 378 
L 289.190291 279.711275 
L 286.171895 279.711275 
L 286.171895 378 
z
" clip-path="url(#p8cc37b8bf8)" style="fill: none"/>
   </g>
   <g id="patch_151">
    <path d="M 289.190291 378 
L 292.208688 378 
L 292.208688 276.722782 
L 289.190291 276.722782 
L 289.190291 378 
z
" clip-path="url(#p8cc37b8bf8)" style="fill: none"/>
   </g>
   <g id="patch_152">
    <path d="M 292.208688 378 
L 295.227084 378 
L 295.227084 274.095561 
L 292.208688 274.095561 
L 292.208688 378 
z
" clip-path="url(#p8cc37b8bf8)" style="fill: none"/>
   </g>
   <g id="patch_153">
    <path d="M 295.227084 378 
L 298.245481 378 
L 298.245481 274.296775 
L 295.227084 274.296775 
L 295.227084 378 
z
" clip-path="url(#p8cc37b8bf8)" style="fill: none"/>
   </g>
   <g id="patch_154">
    <path d="M 298.245481 378 
L 301.263877 378 
L 301.263877 276.116852 
L 298.245481 276.116852 
L 298.245481 378 
z
" clip-path="url(#p8cc37b8bf8)" style="fill: none"/>
   </g>
   <g id="patch_155">
    <path d="M 301.263877 378 
L 304.282274 378 
L 304.282274 279.329425 
L 301.263877 279.329425 
L 301.263877 378 
z
" clip-path="url(#p8cc37b8bf8)" style="fill: none"/>
   </g>
   <g id="patch_156">
    <path d="M 304.282274 378 
L 307.30067 378 
L 307.30067 283.054181 
L 304.282274 283.054181 
L 304.282274 378 
z
" clip-path="url(#p8cc37b8bf8)" style="fill: none"/>
   </g>
   <g id="patch_157">
    <path d="M 307.30067 378 
L 310.319067 378 
L 310.319067 285.411592 
L 307.30067 285.411592 
L 307.30067 378 
z
" clip-path="url(#p8cc37b8bf8)" style="fill: none"/>
   </g>
   <g id="patch_158">
    <path d="M 310.319067 378 
L 313.337463 378 
L 313.337463 287.522058 
L 310.319067 287.522058 
L 310.319067 378 
z
" clip-path="url(#p8cc37b8bf8)" style="fill: none"/>
   </g>
   <g id="patch_159">
    <path d="M 313.337463 378 
L 316.35586 378 
L 316.35586 290.387078 
L 313.337463 290.387078 
L 313.337463 378 
z
" clip-path="url(#p8cc37b8bf8)" style="fill: none"/>
   </g>
   <g id="patch_160">
    <path d="M 316.35586 378 
L 319.374256 378 
L 319.374256 292.630163 
L 316.35586 292.630163 
L 316.35586 378 
z
" clip-path="url(#p8cc37b8bf8)" style="fill: none"/>
   </g>
   <g id="patch_161">
    <path d="M 319.374256 378 
L 322.392652 378 
L 322.392652 295.463172 
L 319.374256 295.463172 
L 319.374256 378 
z
" clip-path="url(#p8cc37b8bf8)" style="fill: none"/>
   </g>
   <g id="patch_162">
    <path d="M 322.392652 378 
L 325.411049 378 
L 325.411049 298.19786 
L 322.392652 298.19786 
L 322.392652 378 
z
" clip-path="url(#p8cc37b8bf8)" style="fill: none"/>
   </g>
   <g id="patch_163">
    <path d="M 325.411049 378 
L 328.429445 378 
L 328.429445 299.853307 
L 325.411049 299.853307 
L 325.411049 378 
z
" clip-path="url(#p8cc37b8bf8)" style="fill: none"/>
   </g>
   <g id="patch_164">
    <path d="M 328.429445 378 
L 331.447842 378 
L 331.447842 301.924902 
L 328.429445 301.924902 
L 328.429445 378 
z
" clip-path="url(#p8cc37b8bf8)" style="fill: none"/>
   </g>
   <g id="patch_165">
    <path d="M 331.447842 378 
L 334.466238 378 
L 334.466238 303.813575 
L 331.447842 303.813575 
L 331.447842 378 
z
" clip-path="url(#p8cc37b8bf8)" style="fill: none"/>
   </g>
   <g id="patch_166">
    <path d="M 334.466238 378 
L 337.484635 378 
L 337.484635 305.763984 
L 334.466238 305.763984 
L 334.466238 378 
z
" clip-path="url(#p8cc37b8bf8)" style="fill: none"/>
   </g>
   <g id="patch_167">
    <path d="M 337.484635 378 
L 340.503031 378 
L 340.503031 308.366054 
L 337.484635 308.366054 
L 337.484635 378 
z
" clip-path="url(#p8cc37b8bf8)" style="fill: none"/>
   </g>
   <g id="patch_168">
    <path d="M 340.503031 378 
L 343.521428 378 
L 343.521428 310.046652 
L 340.503031 310.046652 
L 340.503031 378 
z
" clip-path="url(#p8cc37b8bf8)" style="fill: none"/>
   </g>
   <g id="patch_169">
    <path d="M 343.521428 378 
L 346.539824 378 
L 346.539824 311.519177 
L 343.521428 311.519177 
L 343.521428 378 
z
" clip-path="url(#p8cc37b8bf8)" style="fill: none"/>
   </g>
   <g id="patch_170">
    <path d="M 346.539824 378 
L 349.558221 378 
L 349.558221 313.686806 
L 346.539824 313.686806 
L 346.539824 378 
z
" clip-path="url(#p8cc37b8bf8)" style="fill: none"/>
   </g>
   <g id="patch_171">
    <path d="M 349.558221 378 
L 352.576617 378 
L 352.576617 314.734036 
L 349.558221 314.734036 
L 349.558221 378 
z
" clip-path="url(#p8cc37b8bf8)" style="fill: none"/>
   </g>
   <g id="patch_172">
    <path d="M 352.576617 378 
L 355.595014 378 
L 355.595014 316.986267 
L 352.576617 316.986267 
L 352.576617 378 
z
" clip-path="url(#p8cc37b8bf8)" style="fill: none"/>
   </g>
   <g id="patch_173">
    <path d="M 355.595014 378 
L 358.61341 378 
L 358.61341 318.746894 
L 355.595014 318.746894 
L 355.595014 378 
z
" clip-path="url(#p8cc37b8bf8)" style="fill: none"/>
   </g>
   <g id="patch_174">
    <path d="M 358.61341 378 
L 361.631806 378 
L 361.631806 321.120311 
L 358.61341 321.120311 
L 358.61341 378 
z
" clip-path="url(#p8cc37b8bf8)" style="fill: none"/>
   </g>
   <g id="patch_175">
    <path d="M 361.631806 378 
L 364.650203 378 
L 364.650203 322.144676 
L 361.631806 322.144676 
L 361.631806 378 
z
" clip-path="url(#p8cc37b8bf8)" style="fill: none"/>
   </g>
   <g id="patch_176">
    <path d="M 364.650203 378 
L 367.668599 378 
L 367.668599 323.637779 
L 364.650203 323.637779 
L 364.650203 378 
z
" clip-path="url(#p8cc37b8bf8)" style="fill: none"/>
   </g>
   <g id="patch_177">
    <path d="M 367.668599 378 
L 370.686996 378 
L 370.686996 325.135455 
L 367.668599 325.135455 
L 367.668599 378 
z
" clip-path="url(#p8cc37b8bf8)" style="fill: none"/>
   </g>
   <g id="patch_178">
    <path d="M 370.686996 378 
L 373.705392 378 
L 373.705392 326.717733 
L 370.686996 326.717733 
L 370.686996 378 
z
" clip-path="url(#p8cc37b8bf8)" style="fill: none"/>
   </g>
   <g id="patch_179">
    <path d="M 373.705392 378 
L 376.723789 378 
L 376.723789 328.366321 
L 373.705392 328.366321 
L 373.705392 378 
z
" clip-path="url(#p8cc37b8bf8)" style="fill: none"/>
   </g>
   <g id="patch_180">
    <path d="M 376.723789 378 
L 379.742185 378 
L 379.742185 330.613978 
L 376.723789 330.613978 
L 376.723789 378 
z
" clip-path="url(#p8cc37b8bf8)" style="fill: none"/>
   </g>
   <g id="patch_181">
    <path d="M 379.742185 378 
L 382.760582 378 
L 382.760582 331.992755 
L 379.742185 331.992755 
L 379.742185 378 
z
" clip-path="url(#p8cc37b8bf8)" style="fill: none"/>
   </g>
   <g id="patch_182">
    <path d="M 382.760582 378 
L 385.778978 378 
L 385.778978 333.001114 
L 382.760582 333.001114 
L 382.760582 378 
z
" clip-path="url(#p8cc37b8bf8)" style="fill: none"/>
   </g>
   <g id="patch_183">
    <path d="M 385.778978 378 
L 388.797375 378 
L 388.797375 334.61769 
L 385.778978 334.61769 
L 385.778978 378 
z
" clip-path="url(#p8cc37b8bf8)" style="fill: none"/>
   </g>
   <g id="patch_184">
    <path d="M 388.797375 378 
L 391.815771 378 
L 391.815771 336.56124 
L 388.797375 336.56124 
L 388.797375 378 
z
" clip-path="url(#p8cc37b8bf8)" style="fill: none"/>
   </g>
   <g id="patch_185">
    <path d="M 391.815771 378 
L 394.834168 378 
L 394.834168 337.910292 
L 391.815771 337.910292 
L 391.815771 378 
z
" clip-path="url(#p8cc37b8bf8)" style="fill: none"/>
   </g>
   <g id="patch_186">
    <path d="M 394.834168 378 
L 397.852564 378 
L 397.852564 340.258557 
L 394.834168 340.258557 
L 394.834168 378 
z
" clip-path="url(#p8cc37b8bf8)" style="fill: none"/>
   </g>
   <g id="patch_187">
    <path d="M 397.852564 378 
L 400.87096 378 
L 400.87096 341.763092 
L 397.852564 341.763092 
L 397.852564 378 
z
" clip-path="url(#p8cc37b8bf8)" style="fill: none"/>
   </g>
   <g id="patch_188">
    <path d="M 400.87096 378 
L 403.889357 378 
L 403.889357 342.949801 
L 400.87096 342.949801 
L 400.87096 378 
z
" clip-path="url(#p8cc37b8bf8)" style="fill: none"/>
   </g>
   <g id="patch_189">
    <path d="M 403.889357 378 
L 406.907753 378 
L 406.907753 344.772164 
L 403.889357 344.772164 
L 403.889357 378 
z
" clip-path="url(#p8cc37b8bf8)" style="fill: none"/>
   </g>
   <g id="patch_190">
    <path d="M 406.907753 378 
L 409.92615 378 
L 409.92615 346.480201 
L 406.907753 346.480201 
L 406.907753 378 
z
" clip-path="url(#p8cc37b8bf8)" style="fill: none"/>
   </g>
   <g id="patch_191">
    <path d="M 409.92615 378 
L 412.944546 378 
L 412.944546 348.412318 
L 409.92615 348.412318 
L 409.92615 378 
z
" clip-path="url(#p8cc37b8bf8)" style="fill: none"/>
   </g>
   <g id="patch_192">
    <path d="M 412.944546 378 
L 415.962943 378 
L 415.962943 350.252974 
L 412.944546 350.252974 
L 412.944546 378 
z
" clip-path="url(#p8cc37b8bf8)" style="fill: none"/>
   </g>
   <g id="patch_193">
    <path d="M 415.962943 378 
L 418.981339 378 
L 418.981339 352.486912 
L 415.962943 352.486912 
L 415.962943 378 
z
" clip-path="url(#p8cc37b8bf8)" style="fill: none"/>
   </g>
   <g id="patch_194">
    <path d="M 418.981339 378 
L 421.999736 378 
L 421.999736 354.302416 
L 418.981339 354.302416 
L 418.981339 378 
z
" clip-path="url(#p8cc37b8bf8)" style="fill: none"/>
   </g>
   <g id="patch_195">
    <path d="M 421.999736 378 
L 425.018132 378 
L 425.018132 356.680406 
L 421.999736 356.680406 
L 421.999736 378 
z
" clip-path="url(#p8cc37b8bf8)" style="fill: none"/>
   </g>
   <g id="patch_196">
    <path d="M 425.018132 378 
L 428.036529 378 
L 428.036529 358.642248 
L 425.018132 358.642248 
L 425.018132 378 
z
" clip-path="url(#p8cc37b8bf8)" style="fill: none"/>
   </g>
   <g id="patch_197">
    <path d="M 428.036529 378 
L 431.054925 378 
L 431.054925 361.086547 
L 428.036529 361.086547 
L 428.036529 378 
z
" clip-path="url(#p8cc37b8bf8)" style="fill: none"/>
   </g>
   <g id="patch_198">
    <path d="M 431.054925 378 
L 434.073322 378 
L 434.073322 363.226738 
L 431.054925 363.226738 
L 431.054925 378 
z
" clip-path="url(#p8cc37b8bf8)" style="fill: none"/>
   </g>
   <g id="patch_199">
    <path d="M 434.073322 378 
L 437.091718 378 
L 437.091718 366.231237 
L 434.073322 366.231237 
L 434.073322 378 
z
" clip-path="url(#p8cc37b8bf8)" style="fill: none"/>
   </g>
   <g id="patch_200">
    <path d="M 437.091718 378 
L 440.110114 378 
L 440.110114 369.254028 
L 437.091718 369.254028 
L 437.091718 378 
z
" clip-path="url(#p8cc37b8bf8)" style="fill: none"/>
   </g>
   <g id="patch_201">
    <path d="M 440.110114 378 
L 443.128511 378 
L 443.128511 372.622084 
L 440.110114 372.622084 
L 440.110114 378 
z
" clip-path="url(#p8cc37b8bf8)" style="fill: none"/>
   </g>
   <g id="patch_202">
    <path d="M 443.128511 378 
L 446.146907 378 
L 446.146907 376.102181 
L 443.128511 376.102181 
L 443.128511 378 
z
" clip-path="url(#p8cc37b8bf8)" style="fill: none"/>
   </g>
   <g id="matplotlib.axis_1">
    <g id="xtick_1">
     <g id="line2d_1">
      <defs>
       <path id="m0a36fb75f3" d="M 0 0 
L 0 3.5 
" style="stroke: #000000; stroke-width: 0.8"/>
      </defs>
      <g>
       <use xlink:href="#m0a36fb75f3" x="72" y="378" style="stroke: #000000; stroke-width: 0.8"/>
      </g>
     </g>
     <g id="text_1">
      <!-- 0.00 -->
      <g transform="translate(60.867188 392.598437)scale(0.1 -0.1)">
       <defs>
        <path id="DejaVuSans-30" d="M 2034 4250 
Q 1547 4250 1301 3770 
Q 1056 3291 1056 2328 
Q 1056 1369 1301 889 
Q 1547 409 2034 409 
Q 2525 409 2770 889 
Q 3016 1369 3016 2328 
Q 3016 3291 2770 3770 
Q 2525 4250 2034 4250 
z
M 2034 4750 
Q 2819 4750 3233 4129 
Q 3647 3509 3647 2328 
Q 3647 1150 3233 529 
Q 2819 -91 2034 -91 
Q 1250 -91 836 529 
Q 422 1150 422 2328 
Q 422 3509 836 4129 
Q 1250 4750 2034 4750 
z
" transform="scale(0.015625)"/>
        <path id="DejaVuSans-2e" d="M 684 794 
L 1344 794 
L 1344 0 
L 684 0 
L 684 794 
z
" transform="scale(0.015625)"/>
       </defs>
       <use xlink:href="#DejaVuSans-30"/>
       <use xlink:href="#DejaVuSans-2e" x="63.623047"/>
       <use xlink:href="#DejaVuSans-30" x="95.410156"/>
       <use xlink:href="#DejaVuSans-30" x="159.033203"/>
      </g>
     </g>
    </g>
    <g id="xtick_2">
     <g id="line2d_2">
      <g>
       <use xlink:href="#m0a36fb75f3" x="183.6" y="378" style="stroke: #000000; stroke-width: 0.8"/>
      </g>
     </g>
     <g id="text_2">
      <!-- 0.25 -->
      <g transform="translate(172.467187 392.598437)scale(0.1 -0.1)">
       <defs>
        <path id="DejaVuSans-32" d="M 1228 531 
L 3431 531 
L 3431 0 
L 469 0 
L 469 531 
Q 828 903 1448 1529 
Q 2069 2156 2228 2338 
Q 2531 2678 2651 2914 
Q 2772 3150 2772 3378 
Q 2772 3750 2511 3984 
Q 2250 4219 1831 4219 
Q 1534 4219 1204 4116 
Q 875 4013 500 3803 
L 500 4441 
Q 881 4594 1212 4672 
Q 1544 4750 1819 4750 
Q 2544 4750 2975 4387 
Q 3406 4025 3406 3419 
Q 3406 3131 3298 2873 
Q 3191 2616 2906 2266 
Q 2828 2175 2409 1742 
Q 1991 1309 1228 531 
z
" transform="scale(0.015625)"/>
        <path id="DejaVuSans-35" d="M 691 4666 
L 3169 4666 
L 3169 4134 
L 1269 4134 
L 1269 2991 
Q 1406 3038 1543 3061 
Q 1681 3084 1819 3084 
Q 2600 3084 3056 2656 
Q 3513 2228 3513 1497 
Q 3513 744 3044 326 
Q 2575 -91 1722 -91 
Q 1428 -91 1123 -41 
Q 819 9 494 109 
L 494 744 
Q 775 591 1075 516 
Q 1375 441 1709 441 
Q 2250 441 2565 725 
Q 2881 1009 2881 1497 
Q 2881 1984 2565 2268 
Q 2250 2553 1709 2553 
Q 1456 2553 1204 2497 
Q 953 2441 691 2322 
L 691 4666 
z
" transform="scale(0.015625)"/>
       </defs>
       <use xlink:href="#DejaVuSans-30"/>
       <use xlink:href="#DejaVuSans-2e" x="63.623047"/>
       <use xlink:href="#DejaVuSans-32" x="95.410156"/>
       <use xlink:href="#DejaVuSans-35" x="159.033203"/>
      </g>
     </g>
    </g>
    <g id="xtick_3">
     <g id="line2d_3">
      <g>
       <use xlink:href="#m0a36fb75f3" x="295.2" y="378" style="stroke: #000000; stroke-width: 0.8"/>
      </g>
     </g>
     <g id="text_3">
      <!-- 0.50 -->
      <g transform="translate(284.067187 392.598437)scale(0.1 -0.1)">
       <use xlink:href="#DejaVuSans-30"/>
       <use xlink:href="#DejaVuSans-2e" x="63.623047"/>
       <use xlink:href="#DejaVuSans-35" x="95.410156"/>
       <use xlink:href="#DejaVuSans-30" x="159.033203"/>
      </g>
     </g>
    </g>
    <g id="xtick_4">
     <g id="line2d_4">
      <g>
       <use xlink:href="#m0a36fb75f3" x="406.8" y="378" style="stroke: #000000; stroke-width: 0.8"/>
      </g>
     </g>
     <g id="text_4">
      <!-- 0.75 -->
      <g transform="translate(395.667187 392.598437)scale(0.1 -0.1)">
       <defs>
        <path id="DejaVuSans-37" d="M 525 4666 
L 3525 4666 
L 3525 4397 
L 1831 0 
L 1172 0 
L 2766 4134 
L 525 4134 
L 525 4666 
z
" transform="scale(0.015625)"/>
       </defs>
       <use xlink:href="#DejaVuSans-30"/>
       <use xlink:href="#DejaVuSans-2e" x="63.623047"/>
       <use xlink:href="#DejaVuSans-37" x="95.410156"/>
       <use xlink:href="#DejaVuSans-35" x="159.033203"/>
      </g>
     </g>
    </g>
    <g id="xtick_5">
     <g id="line2d_5">
      <g>
       <use xlink:href="#m0a36fb75f3" x="518.4" y="378" style="stroke: #000000; stroke-width: 0.8"/>
      </g>
     </g>
     <g id="text_5">
      <!-- 1.00 -->
      <g transform="translate(507.267187 392.598437)scale(0.1 -0.1)">
       <defs>
        <path id="DejaVuSans-31" d="M 794 531 
L 1825 531 
L 1825 4091 
L 703 3866 
L 703 4441 
L 1819 4666 
L 2450 4666 
L 2450 531 
L 3481 531 
L 3481 0 
L 794 0 
L 794 531 
z
" transform="scale(0.015625)"/>
       </defs>
       <use xlink:href="#DejaVuSans-31"/>
       <use xlink:href="#DejaVuSans-2e" x="63.623047"/>
       <use xlink:href="#DejaVuSans-30" x="95.410156"/>
       <use xlink:href="#DejaVuSans-30" x="159.033203"/>
      </g>
     </g>
    </g>
    <g id="text_6">
     <!-- ratio_roeske -->
     <g transform="translate(264.697656 406.276563)scale(0.1 -0.1)">
      <defs>
       <path id="DejaVuSans-72" d="M 2631 2963 
Q 2534 3019 2420 3045 
Q 2306 3072 2169 3072 
Q 1681 3072 1420 2755 
Q 1159 2438 1159 1844 
L 1159 0 
L 581 0 
L 581 3500 
L 1159 3500 
L 1159 2956 
Q 1341 3275 1631 3429 
Q 1922 3584 2338 3584 
Q 2397 3584 2469 3576 
Q 2541 3569 2628 3553 
L 2631 2963 
z
" transform="scale(0.015625)"/>
       <path id="DejaVuSans-61" d="M 2194 1759 
Q 1497 1759 1228 1600 
Q 959 1441 959 1056 
Q 959 750 1161 570 
Q 1363 391 1709 391 
Q 2188 391 2477 730 
Q 2766 1069 2766 1631 
L 2766 1759 
L 2194 1759 
z
M 3341 1997 
L 3341 0 
L 2766 0 
L 2766 531 
Q 2569 213 2275 61 
Q 1981 -91 1556 -91 
Q 1019 -91 701 211 
Q 384 513 384 1019 
Q 384 1609 779 1909 
Q 1175 2209 1959 2209 
L 2766 2209 
L 2766 2266 
Q 2766 2663 2505 2880 
Q 2244 3097 1772 3097 
Q 1472 3097 1187 3025 
Q 903 2953 641 2809 
L 641 3341 
Q 956 3463 1253 3523 
Q 1550 3584 1831 3584 
Q 2591 3584 2966 3190 
Q 3341 2797 3341 1997 
z
" transform="scale(0.015625)"/>
       <path id="DejaVuSans-74" d="M 1172 4494 
L 1172 3500 
L 2356 3500 
L 2356 3053 
L 1172 3053 
L 1172 1153 
Q 1172 725 1289 603 
Q 1406 481 1766 481 
L 2356 481 
L 2356 0 
L 1766 0 
Q 1100 0 847 248 
Q 594 497 594 1153 
L 594 3053 
L 172 3053 
L 172 3500 
L 594 3500 
L 594 4494 
L 1172 4494 
z
" transform="scale(0.015625)"/>
       <path id="DejaVuSans-69" d="M 603 3500 
L 1178 3500 
L 1178 0 
L 603 0 
L 603 3500 
z
M 603 4863 
L 1178 4863 
L 1178 4134 
L 603 4134 
L 603 4863 
z
" transform="scale(0.015625)"/>
       <path id="DejaVuSans-6f" d="M 1959 3097 
Q 1497 3097 1228 2736 
Q 959 2375 959 1747 
Q 959 1119 1226 758 
Q 1494 397 1959 397 
Q 2419 397 2687 759 
Q 2956 1122 2956 1747 
Q 2956 2369 2687 2733 
Q 2419 3097 1959 3097 
z
M 1959 3584 
Q 2709 3584 3137 3096 
Q 3566 2609 3566 1747 
Q 3566 888 3137 398 
Q 2709 -91 1959 -91 
Q 1206 -91 779 398 
Q 353 888 353 1747 
Q 353 2609 779 3096 
Q 1206 3584 1959 3584 
z
" transform="scale(0.015625)"/>
       <path id="DejaVuSans-5f" d="M 3263 -1063 
L 3263 -1509 
L -63 -1509 
L -63 -1063 
L 3263 -1063 
z
" transform="scale(0.015625)"/>
       <path id="DejaVuSans-65" d="M 3597 1894 
L 3597 1613 
L 953 1613 
Q 991 1019 1311 708 
Q 1631 397 2203 397 
Q 2534 397 2845 478 
Q 3156 559 3463 722 
L 3463 178 
Q 3153 47 2828 -22 
Q 2503 -91 2169 -91 
Q 1331 -91 842 396 
Q 353 884 353 1716 
Q 353 2575 817 3079 
Q 1281 3584 2069 3584 
Q 2775 3584 3186 3129 
Q 3597 2675 3597 1894 
z
M 3022 2063 
Q 3016 2534 2758 2815 
Q 2500 3097 2075 3097 
Q 1594 3097 1305 2825 
Q 1016 2553 972 2059 
L 3022 2063 
z
" transform="scale(0.015625)"/>
       <path id="DejaVuSans-73" d="M 2834 3397 
L 2834 2853 
Q 2591 2978 2328 3040 
Q 2066 3103 1784 3103 
Q 1356 3103 1142 2972 
Q 928 2841 928 2578 
Q 928 2378 1081 2264 
Q 1234 2150 1697 2047 
L 1894 2003 
Q 2506 1872 2764 1633 
Q 3022 1394 3022 966 
Q 3022 478 2636 193 
Q 2250 -91 1575 -91 
Q 1294 -91 989 -36 
Q 684 19 347 128 
L 347 722 
Q 666 556 975 473 
Q 1284 391 1588 391 
Q 1994 391 2212 530 
Q 2431 669 2431 922 
Q 2431 1156 2273 1281 
Q 2116 1406 1581 1522 
L 1381 1569 
Q 847 1681 609 1914 
Q 372 2147 372 2553 
Q 372 3047 722 3315 
Q 1072 3584 1716 3584 
Q 2034 3584 2315 3537 
Q 2597 3491 2834 3397 
z
" transform="scale(0.015625)"/>
       <path id="DejaVuSans-6b" d="M 581 4863 
L 1159 4863 
L 1159 1991 
L 2875 3500 
L 3609 3500 
L 1753 1863 
L 3688 0 
L 2938 0 
L 1159 1709 
L 1159 0 
L 581 0 
L 581 4863 
z
" transform="scale(0.015625)"/>
      </defs>
      <use xlink:href="#DejaVuSans-72"/>
      <use xlink:href="#DejaVuSans-61" x="41.113281"/>
      <use xlink:href="#DejaVuSans-74" x="102.392578"/>
      <use xlink:href="#DejaVuSans-69" x="141.601562"/>
      <use xlink:href="#DejaVuSans-6f" x="169.384766"/>
      <use xlink:href="#DejaVuSans-5f" x="230.566406"/>
      <use xlink:href="#DejaVuSans-72" x="280.566406"/>
      <use xlink:href="#DejaVuSans-6f" x="319.429688"/>
      <use xlink:href="#DejaVuSans-65" x="380.611328"/>
      <use xlink:href="#DejaVuSans-73" x="442.134766"/>
      <use xlink:href="#DejaVuSans-6b" x="494.234375"/>
      <use xlink:href="#DejaVuSans-65" x="548.519531"/>
     </g>
    </g>
   </g>
   <g id="matplotlib.axis_2">
    <g id="ytick_1">
     <g id="line2d_6">
      <defs>
       <path id="m3e4fe4b472" d="M 0 0 
L -3.5 0 
" style="stroke: #000000; stroke-width: 0.8"/>
      </defs>
      <g>
       <use xlink:href="#m3e4fe4b472" x="72" y="378" style="stroke: #000000; stroke-width: 0.8"/>
      </g>
     </g>
     <g id="text_7">
      <!-- 0 -->
      <g transform="translate(58.6375 381.799219)scale(0.1 -0.1)">
       <use xlink:href="#DejaVuSans-30"/>
      </g>
     </g>
    </g>
    <g id="ytick_2">
     <g id="line2d_7">
      <g>
       <use xlink:href="#m3e4fe4b472" x="72" y="306.726237" style="stroke: #000000; stroke-width: 0.8"/>
      </g>
     </g>
     <g id="text_8">
      <!-- 2 -->
      <g transform="translate(58.6375 310.525456)scale(0.1 -0.1)">
       <use xlink:href="#DejaVuSans-32"/>
      </g>
     </g>
    </g>
    <g id="ytick_3">
     <g id="line2d_8">
      <g>
       <use xlink:href="#m3e4fe4b472" x="72" y="235.452474" style="stroke: #000000; stroke-width: 0.8"/>
      </g>
     </g>
     <g id="text_9">
      <!-- 4 -->
      <g transform="translate(58.6375 239.251693)scale(0.1 -0.1)">
       <defs>
        <path id="DejaVuSans-34" d="M 2419 4116 
L 825 1625 
L 2419 1625 
L 2419 4116 
z
M 2253 4666 
L 3047 4666 
L 3047 1625 
L 3713 1625 
L 3713 1100 
L 3047 1100 
L 3047 0 
L 2419 0 
L 2419 1100 
L 313 1100 
L 313 1709 
L 2253 4666 
z
" transform="scale(0.015625)"/>
       </defs>
       <use xlink:href="#DejaVuSans-34"/>
      </g>
     </g>
    </g>
    <g id="ytick_4">
     <g id="line2d_9">
      <g>
       <use xlink:href="#m3e4fe4b472" x="72" y="164.178711" style="stroke: #000000; stroke-width: 0.8"/>
      </g>
     </g>
     <g id="text_10">
      <!-- 6 -->
      <g transform="translate(58.6375 167.97793)scale(0.1 -0.1)">
       <defs>
        <path id="DejaVuSans-36" d="M 2113 2584 
Q 1688 2584 1439 2293 
Q 1191 2003 1191 1497 
Q 1191 994 1439 701 
Q 1688 409 2113 409 
Q 2538 409 2786 701 
Q 3034 994 3034 1497 
Q 3034 2003 2786 2293 
Q 2538 2584 2113 2584 
z
M 3366 4563 
L 3366 3988 
Q 3128 4100 2886 4159 
Q 2644 4219 2406 4219 
Q 1781 4219 1451 3797 
Q 1122 3375 1075 2522 
Q 1259 2794 1537 2939 
Q 1816 3084 2150 3084 
Q 2853 3084 3261 2657 
Q 3669 2231 3669 1497 
Q 3669 778 3244 343 
Q 2819 -91 2113 -91 
Q 1303 -91 875 529 
Q 447 1150 447 2328 
Q 447 3434 972 4092 
Q 1497 4750 2381 4750 
Q 2619 4750 2861 4703 
Q 3103 4656 3366 4563 
z
" transform="scale(0.015625)"/>
       </defs>
       <use xlink:href="#DejaVuSans-36"/>
      </g>
     </g>
    </g>
    <g id="ytick_5">
     <g id="line2d_10">
      <g>
       <use xlink:href="#m3e4fe4b472" x="72" y="92.904949" style="stroke: #000000; stroke-width: 0.8"/>
      </g>
     </g>
     <g id="text_11">
      <!-- 8 -->
      <g transform="translate(58.6375 96.704167)scale(0.1 -0.1)">
       <defs>
        <path id="DejaVuSans-38" d="M 2034 2216 
Q 1584 2216 1326 1975 
Q 1069 1734 1069 1313 
Q 1069 891 1326 650 
Q 1584 409 2034 409 
Q 2484 409 2743 651 
Q 3003 894 3003 1313 
Q 3003 1734 2745 1975 
Q 2488 2216 2034 2216 
z
M 1403 2484 
Q 997 2584 770 2862 
Q 544 3141 544 3541 
Q 544 4100 942 4425 
Q 1341 4750 2034 4750 
Q 2731 4750 3128 4425 
Q 3525 4100 3525 3541 
Q 3525 3141 3298 2862 
Q 3072 2584 2669 2484 
Q 3125 2378 3379 2068 
Q 3634 1759 3634 1313 
Q 3634 634 3220 271 
Q 2806 -91 2034 -91 
Q 1263 -91 848 271 
Q 434 634 434 1313 
Q 434 1759 690 2068 
Q 947 2378 1403 2484 
z
M 1172 3481 
Q 1172 3119 1398 2916 
Q 1625 2713 2034 2713 
Q 2441 2713 2670 2916 
Q 2900 3119 2900 3481 
Q 2900 3844 2670 4047 
Q 2441 4250 2034 4250 
Q 1625 4250 1398 4047 
Q 1172 3844 1172 3481 
z
" transform="scale(0.015625)"/>
       </defs>
       <use xlink:href="#DejaVuSans-38"/>
      </g>
     </g>
    </g>
    <g id="text_12">
     <!-- Density -->
     <g transform="translate(52.557812 233.928594)rotate(-90)scale(0.1 -0.1)">
      <defs>
       <path id="DejaVuSans-44" d="M 1259 4147 
L 1259 519 
L 2022 519 
Q 2988 519 3436 956 
Q 3884 1394 3884 2338 
Q 3884 3275 3436 3711 
Q 2988 4147 2022 4147 
L 1259 4147 
z
M 628 4666 
L 1925 4666 
Q 3281 4666 3915 4102 
Q 4550 3538 4550 2338 
Q 4550 1131 3912 565 
Q 3275 0 1925 0 
L 628 0 
L 628 4666 
z
" transform="scale(0.015625)"/>
       <path id="DejaVuSans-6e" d="M 3513 2113 
L 3513 0 
L 2938 0 
L 2938 2094 
Q 2938 2591 2744 2837 
Q 2550 3084 2163 3084 
Q 1697 3084 1428 2787 
Q 1159 2491 1159 1978 
L 1159 0 
L 581 0 
L 581 3500 
L 1159 3500 
L 1159 2956 
Q 1366 3272 1645 3428 
Q 1925 3584 2291 3584 
Q 2894 3584 3203 3211 
Q 3513 2838 3513 2113 
z
" transform="scale(0.015625)"/>
       <path id="DejaVuSans-79" d="M 2059 -325 
Q 1816 -950 1584 -1140 
Q 1353 -1331 966 -1331 
L 506 -1331 
L 506 -850 
L 844 -850 
Q 1081 -850 1212 -737 
Q 1344 -625 1503 -206 
L 1606 56 
L 191 3500 
L 800 3500 
L 1894 763 
L 2988 3500 
L 3597 3500 
L 2059 -325 
z
" transform="scale(0.015625)"/>
      </defs>
      <use xlink:href="#DejaVuSans-44"/>
      <use xlink:href="#DejaVuSans-65" x="77.001953"/>
      <use xlink:href="#DejaVuSans-6e" x="138.525391"/>
      <use xlink:href="#DejaVuSans-73" x="201.904297"/>
      <use xlink:href="#DejaVuSans-69" x="254.003906"/>
      <use xlink:href="#DejaVuSans-74" x="281.787109"/>
      <use xlink:href="#DejaVuSans-79" x="320.996094"/>
     </g>
    </g>
   </g>
   <g id="line2d_11">
    <path d="M 190.361483 376.484138 
L 194.60418 376.099056 
L 200.968227 375.6589 
L 203.089575 375.301557 
L 205.210924 374.661332 
L 207.332273 373.621899 
L 209.453622 372.092195 
L 211.57497 370.030473 
L 213.696319 367.459047 
L 215.817668 364.463958 
L 218.999691 359.478784 
L 223.242389 352.72911 
L 226.424412 348.09959 
L 229.606435 343.906156 
L 233.849132 338.405919 
L 237.031155 333.816528 
L 243.395202 324.01464 
L 245.516551 321.371648 
L 246.577225 320.297655 
L 247.637899 319.403658 
L 248.698574 318.685865 
L 249.759248 318.128118 
L 251.880597 317.374716 
L 256.123294 316.180307 
L 257.183969 315.713815 
L 258.244643 315.119712 
L 259.305317 314.379542 
L 260.365992 313.480632 
L 261.426666 312.41445 
L 262.487341 311.174766 
L 264.608689 308.151902 
L 266.730038 304.358274 
L 268.851387 299.732476 
L 270.972736 294.23615 
L 273.094084 287.885167 
L 275.215433 280.737897 
L 277.336782 272.822343 
L 279.458131 264.033838 
L 281.579479 254.078316 
L 283.700828 242.537548 
L 285.822177 229.079223 
L 287.943526 213.750326 
L 293.246897 173.327972 
L 294.307572 166.546735 
L 295.368246 160.766309 
L 296.428921 156.199429 
L 297.489595 153.014565 
L 298.550269 151.322913 
L 299.610944 151.16936 
L 300.671618 152.528266 
L 301.732292 155.304398 
L 302.792967 159.338935 
L 303.853641 164.419949 
L 305.97499 176.694557 
L 309.157013 196.29463 
L 310.217688 202.166577 
L 311.278362 207.406109 
L 312.339036 211.90458 
L 313.399711 215.603844 
L 314.460385 218.492997 
L 315.521059 220.60225 
L 316.581734 221.994869 
L 317.642408 222.758157 
L 318.703083 222.994451 
L 319.763757 222.812991 
L 320.824431 222.323266 
L 322.94578 220.83157 
L 325.067129 219.266545 
L 326.127803 218.656377 
L 327.188478 218.255891 
L 328.249152 218.131446 
L 329.309826 218.346694 
L 330.370501 218.962463 
L 331.431175 220.035652 
L 332.491849 221.61727 
L 333.552524 223.749897 
L 334.613198 226.464925 
L 335.673873 229.779987 
L 336.734547 233.696923 
L 337.795221 238.200532 
L 339.91657 248.820845 
L 342.037919 261.189652 
L 346.280616 288.446191 
L 349.462639 308.116064 
L 351.583988 319.663006 
L 353.705337 329.519618 
L 355.826686 337.571969 
L 356.88736 340.942265 
L 357.948034 343.906342 
L 359.008709 346.496275 
L 360.069383 348.748745 
L 361.130058 350.703237 
L 362.190732 352.400479 
L 364.312081 355.184512 
L 366.433429 357.405046 
L 369.615453 360.218948 
L 381.282871 369.857213 
L 384.464894 372.00997 
L 386.586243 373.199831 
L 388.707591 374.178065 
L 390.82894 374.945072 
L 392.950289 375.515543 
L 396.132312 376.078001 
L 401.435684 376.654991 
L 401.435684 376.654991 
" clip-path="url(#p8cc37b8bf8)" style="fill: none; stroke: #24b4b1; stroke-width: 1.5; stroke-linecap: square"/>
   </g>
   <g id="line2d_12">
    <path d="M 144.307261 376.267241 
L 145.824043 375.201372 
L 147.340825 373.890519 
L 157.9583 363.716343 
L 162.508647 359.885251 
L 165.542211 357.553072 
L 170.092558 354.389775 
L 176.159686 350.390454 
L 183.743597 345.601707 
L 186.777161 343.730259 
L 189.810725 342.074551 
L 194.361072 339.688865 
L 201.944983 335.319316 
L 209.528893 331.746555 
L 214.07924 329.301846 
L 220.146368 326.275788 
L 251.998793 307.57409 
L 261.099486 301.14593 
L 268.683397 296.070591 
L 271.716961 293.905468 
L 274.750525 291.392086 
L 282.334436 284.430873 
L 291.435129 276.691616 
L 292.951911 275.838098 
L 294.468693 275.346831 
L 295.985475 275.276104 
L 297.502257 275.630568 
L 299.01904 276.372287 
L 300.535822 277.440924 
L 302.052604 278.760478 
L 308.119732 284.652957 
L 312.670079 288.499759 
L 324.804336 298.402471 
L 329.354682 301.588539 
L 341.48894 309.589398 
L 349.07285 313.968189 
L 355.139979 317.633825 
L 359.690325 320.40419 
L 362.72389 322.05368 
L 373.341365 327.389504 
L 379.408493 330.908577 
L 383.95884 333.123722 
L 388.509186 335.450024 
L 394.576315 338.902903 
L 399.126661 341.463068 
L 405.19379 344.72297 
L 411.260918 348.321101 
L 415.811265 351.263455 
L 421.878393 355.438436 
L 427.945522 359.869227 
L 430.979086 362.228376 
L 434.01265 364.845108 
L 437.046215 367.793426 
L 443.113343 373.978734 
L 444.630125 375.278284 
L 446.146907 376.323058 
L 446.146907 376.323058 
" clip-path="url(#p8cc37b8bf8)" style="fill: none; stroke-dasharray: 5.55,2.4; stroke-dashoffset: 0; stroke: #fc6983; stroke-width: 1.5"/>
   </g>
   <g id="patch_203">
    <path d="M 72 378 
L 72 51.84 
" style="fill: none; stroke: #000000; stroke-width: 0.8; stroke-linejoin: miter; stroke-linecap: square"/>
   </g>
   <g id="patch_204">
    <path d="M 518.4 378 
L 518.4 51.84 
" style="fill: none; stroke: #000000; stroke-width: 0.8; stroke-linejoin: miter; stroke-linecap: square"/>
   </g>
   <g id="patch_205">
    <path d="M 72 378 
L 518.4 378 
" style="fill: none; stroke: #000000; stroke-width: 0.8; stroke-linejoin: miter; stroke-linecap: square"/>
   </g>
   <g id="patch_206">
    <path d="M 72 51.84 
L 518.4 51.84 
" style="fill: none; stroke: #000000; stroke-width: 0.8; stroke-linejoin: miter; stroke-linecap: square"/>
   </g>
  </g>
 </g>
 <defs>
  <clipPath id="p8cc37b8bf8">
   <rect x="72" y="51.84" width="446.4" height="326.16"/>
  </clipPath>
 </defs>
</svg>
