<?xml version="1.0" encoding="utf-8" standalone="no"?>
<!DOCTYPE svg PUBLIC "-//W3C//DTD SVG 1.1//EN"
  "http://www.w3.org/Graphics/SVG/1.1/DTD/svg11.dtd">
<svg xmlns:xlink="http://www.w3.org/1999/xlink" width="576pt" height="432pt" viewBox="0 0 576 432" xmlns="http://www.w3.org/2000/svg" version="1.1">
 <metadata>
  <rdf:RDF xmlns:dc="http://purl.org/dc/elements/1.1/" xmlns:cc="http://creativecommons.org/ns#" xmlns:rdf="http://www.w3.org/1999/02/22-rdf-syntax-ns#">
   <cc:Work>
    <dc:type rdf:resource="http://purl.org/dc/dcmitype/StillImage"/>
    <dc:date>2022-05-18T13:12:51.444579</dc:date>
    <dc:format>image/svg+xml</dc:format>
    <dc:creator>
     <cc:Agent>
      <dc:title>Matplotlib v3.5.1, https://matplotlib.org/</dc:title>
     </cc:Agent>
    </dc:creator>
   </cc:Work>
  </rdf:RDF>
 </metadata>
 <defs>
  <style type="text/css">*{stroke-linejoin: round; stroke-linecap: butt}</style>
 </defs>
 <g id="figure_1">
  <g id="patch_1">
   <path d="M 0 432 
L 576 432 
L 576 0 
L 0 0 
L 0 432 
z
" style="fill: none"/>
  </g>
  <g id="axes_1">
   <g id="patch_2">
    <path d="M 72 378 
L 518.4 378 
L 518.4 51.84 
L 72 51.84 
z
" style="fill: #ffffff"/>
   </g>
   <g id="patch_3">
    <path d="M 80.422642 378 
L 84.623855 378 
L 84.623855 374.954622 
L 80.422642 374.954622 
z
" clip-path="url(#p2c38dcd14e)" style="fill: #a3e301; fill-opacity: 0.5"/>
   </g>
   <g id="patch_4">
    <path d="M 84.623855 378 
L 88.825069 378 
L 88.825069 376.477311 
L 84.623855 376.477311 
z
" clip-path="url(#p2c38dcd14e)" style="fill: #a3e301; fill-opacity: 0.5"/>
   </g>
   <g id="patch_5">
    <path d="M 88.825069 378 
L 93.026282 378 
L 93.026282 376.477311 
L 88.825069 376.477311 
z
" clip-path="url(#p2c38dcd14e)" style="fill: #a3e301; fill-opacity: 0.5"/>
   </g>
   <g id="patch_6">
    <path d="M 93.026282 378 
L 97.227496 378 
L 97.227496 378 
L 93.026282 378 
z
" clip-path="url(#p2c38dcd14e)" style="fill: #a3e301; fill-opacity: 0.5"/>
   </g>
   <g id="patch_7">
    <path d="M 97.227496 378 
L 101.428709 378 
L 101.428709 378 
L 97.227496 378 
z
" clip-path="url(#p2c38dcd14e)" style="fill: #a3e301; fill-opacity: 0.5"/>
   </g>
   <g id="patch_8">
    <path d="M 101.428709 378 
L 105.629923 378 
L 105.629923 376.477311 
L 101.428709 376.477311 
z
" clip-path="url(#p2c38dcd14e)" style="fill: #a3e301; fill-opacity: 0.5"/>
   </g>
   <g id="patch_9">
    <path d="M 105.629923 378 
L 109.831137 378 
L 109.831137 368.863866 
L 105.629923 368.863866 
z
" clip-path="url(#p2c38dcd14e)" style="fill: #a3e301; fill-opacity: 0.5"/>
   </g>
   <g id="patch_10">
    <path d="M 109.831137 378 
L 114.03235 378 
L 114.03235 364.295798 
L 109.831137 364.295798 
z
" clip-path="url(#p2c38dcd14e)" style="fill: #a3e301; fill-opacity: 0.5"/>
   </g>
   <g id="patch_11">
    <path d="M 114.03235 378 
L 118.233564 378 
L 118.233564 359.727731 
L 114.03235 359.727731 
z
" clip-path="url(#p2c38dcd14e)" style="fill: #a3e301; fill-opacity: 0.5"/>
   </g>
   <g id="patch_12">
    <path d="M 118.233564 378 
L 122.434777 378 
L 122.434777 353.636975 
L 118.233564 353.636975 
z
" clip-path="url(#p2c38dcd14e)" style="fill: #a3e301; fill-opacity: 0.5"/>
   </g>
   <g id="patch_13">
    <path d="M 122.434777 378 
L 126.635991 378 
L 126.635991 333.842017 
L 122.434777 333.842017 
z
" clip-path="url(#p2c38dcd14e)" style="fill: #a3e301; fill-opacity: 0.5"/>
   </g>
   <g id="patch_14">
    <path d="M 126.635991 378 
L 130.837205 378 
L 130.837205 285.115966 
L 126.635991 285.115966 
z
" clip-path="url(#p2c38dcd14e)" style="fill: #a3e301; fill-opacity: 0.5"/>
   </g>
   <g id="patch_15">
    <path d="M 130.837205 378 
L 135.038418 378 
L 135.038418 250.094118 
L 130.837205 250.094118 
z
" clip-path="url(#p2c38dcd14e)" style="fill: #a3e301; fill-opacity: 0.5"/>
   </g>
   <g id="patch_16">
    <path d="M 135.038418 378 
L 139.239632 378 
L 139.239632 233.344538 
L 135.038418 233.344538 
z
" clip-path="url(#p2c38dcd14e)" style="fill: #a3e301; fill-opacity: 0.5"/>
   </g>
   <g id="patch_17">
    <path d="M 139.239632 378 
L 143.440845 378 
L 143.440845 189.186555 
L 139.239632 189.186555 
z
" clip-path="url(#p2c38dcd14e)" style="fill: #a3e301; fill-opacity: 0.5"/>
   </g>
   <g id="patch_18">
    <path d="M 143.440845 378 
L 147.642059 378 
L 147.642059 208.981513 
L 143.440845 208.981513 
z
" clip-path="url(#p2c38dcd14e)" style="fill: #a3e301; fill-opacity: 0.5"/>
   </g>
   <g id="patch_19">
    <path d="M 147.642059 378 
L 151.843272 378 
L 151.843272 221.163025 
L 147.642059 221.163025 
z
" clip-path="url(#p2c38dcd14e)" style="fill: #a3e301; fill-opacity: 0.5"/>
   </g>
   <g id="patch_20">
    <path d="M 151.843272 378 
L 156.044486 378 
L 156.044486 247.048739 
L 151.843272 247.048739 
z
" clip-path="url(#p2c38dcd14e)" style="fill: #a3e301; fill-opacity: 0.5"/>
   </g>
   <g id="patch_21">
    <path d="M 156.044486 378 
L 160.2457 378 
L 160.2457 259.230252 
L 156.044486 259.230252 
z
" clip-path="url(#p2c38dcd14e)" style="fill: #a3e301; fill-opacity: 0.5"/>
   </g>
   <g id="patch_22">
    <path d="M 160.2457 378 
L 164.446913 378 
L 164.446913 251.616807 
L 160.2457 251.616807 
z
" clip-path="url(#p2c38dcd14e)" style="fill: #a3e301; fill-opacity: 0.5"/>
   </g>
   <g id="patch_23">
    <path d="M 164.446913 378 
L 168.648127 378 
L 168.648127 254.662185 
L 164.446913 254.662185 
z
" clip-path="url(#p2c38dcd14e)" style="fill: #a3e301; fill-opacity: 0.5"/>
   </g>
   <g id="patch_24">
    <path d="M 168.648127 378 
L 172.84934 378 
L 172.84934 251.616807 
L 168.648127 251.616807 
z
" clip-path="url(#p2c38dcd14e)" style="fill: #a3e301; fill-opacity: 0.5"/>
   </g>
   <g id="patch_25">
    <path d="M 172.84934 378 
L 177.050554 378 
L 177.050554 231.821849 
L 172.84934 231.821849 
z
" clip-path="url(#p2c38dcd14e)" style="fill: #a3e301; fill-opacity: 0.5"/>
   </g>
   <g id="patch_26">
    <path d="M 177.050554 378 
L 181.251768 378 
L 181.251768 231.821849 
L 177.050554 231.821849 
z
" clip-path="url(#p2c38dcd14e)" style="fill: #a3e301; fill-opacity: 0.5"/>
   </g>
   <g id="patch_27">
    <path d="M 181.251768 378 
L 185.452981 378 
L 185.452981 202.890756 
L 181.251768 202.890756 
z
" clip-path="url(#p2c38dcd14e)" style="fill: #a3e301; fill-opacity: 0.5"/>
   </g>
   <g id="patch_28">
    <path d="M 185.452981 378 
L 189.654195 378 
L 189.654195 202.890756 
L 185.452981 202.890756 
z
" clip-path="url(#p2c38dcd14e)" style="fill: #a3e301; fill-opacity: 0.5"/>
   </g>
   <g id="patch_29">
    <path d="M 189.654195 378 
L 193.855408 378 
L 193.855408 202.890756 
L 189.654195 202.890756 
z
" clip-path="url(#p2c38dcd14e)" style="fill: #a3e301; fill-opacity: 0.5"/>
   </g>
   <g id="patch_30">
    <path d="M 193.855408 378 
L 198.056622 378 
L 198.056622 225.731092 
L 193.855408 225.731092 
z
" clip-path="url(#p2c38dcd14e)" style="fill: #a3e301; fill-opacity: 0.5"/>
   </g>
   <g id="patch_31">
    <path d="M 198.056622 378 
L 202.257835 378 
L 202.257835 216.594958 
L 198.056622 216.594958 
z
" clip-path="url(#p2c38dcd14e)" style="fill: #a3e301; fill-opacity: 0.5"/>
   </g>
   <g id="patch_32">
    <path d="M 202.257835 378 
L 206.459049 378 
L 206.459049 218.117647 
L 202.257835 218.117647 
z
" clip-path="url(#p2c38dcd14e)" style="fill: #a3e301; fill-opacity: 0.5"/>
   </g>
   <g id="patch_33">
    <path d="M 206.459049 378 
L 210.660263 378 
L 210.660263 221.163025 
L 206.459049 221.163025 
z
" clip-path="url(#p2c38dcd14e)" style="fill: #a3e301; fill-opacity: 0.5"/>
   </g>
   <g id="patch_34">
    <path d="M 210.660263 378 
L 214.861476 378 
L 214.861476 181.573109 
L 210.660263 181.573109 
z
" clip-path="url(#p2c38dcd14e)" style="fill: #a3e301; fill-opacity: 0.5"/>
   </g>
   <g id="patch_35">
    <path d="M 214.861476 378 
L 219.06269 378 
L 219.06269 230.29916 
L 214.861476 230.29916 
z
" clip-path="url(#p2c38dcd14e)" style="fill: #a3e301; fill-opacity: 0.5"/>
   </g>
   <g id="patch_36">
    <path d="M 219.06269 378 
L 223.263903 378 
L 223.263903 230.29916 
L 219.06269 230.29916 
z
" clip-path="url(#p2c38dcd14e)" style="fill: #a3e301; fill-opacity: 0.5"/>
   </g>
   <g id="patch_37">
    <path d="M 223.263903 378 
L 227.465117 378 
L 227.465117 199.845378 
L 223.263903 199.845378 
z
" clip-path="url(#p2c38dcd14e)" style="fill: #a3e301; fill-opacity: 0.5"/>
   </g>
   <g id="patch_38">
    <path d="M 227.465117 378 
L 231.666331 378 
L 231.666331 186.141176 
L 227.465117 186.141176 
z
" clip-path="url(#p2c38dcd14e)" style="fill: #a3e301; fill-opacity: 0.5"/>
   </g>
   <g id="patch_39">
    <path d="M 231.666331 378 
L 235.867544 378 
L 235.867544 181.573109 
L 231.666331 181.573109 
z
" clip-path="url(#p2c38dcd14e)" style="fill: #a3e301; fill-opacity: 0.5"/>
   </g>
   <g id="patch_40">
    <path d="M 235.867544 378 
L 240.068758 378 
L 240.068758 183.095798 
L 235.867544 183.095798 
z
" clip-path="url(#p2c38dcd14e)" style="fill: #a3e301; fill-opacity: 0.5"/>
   </g>
   <g id="patch_41">
    <path d="M 240.068758 378 
L 244.269971 378 
L 244.269971 161.778151 
L 240.068758 161.778151 
z
" clip-path="url(#p2c38dcd14e)" style="fill: #a3e301; fill-opacity: 0.5"/>
   </g>
   <g id="patch_42">
    <path d="M 244.269971 378 
L 248.471185 378 
L 248.471185 134.369748 
L 244.269971 134.369748 
z
" clip-path="url(#p2c38dcd14e)" style="fill: #a3e301; fill-opacity: 0.5"/>
   </g>
   <g id="patch_43">
    <path d="M 248.471185 378 
L 252.672398 378 
L 252.672398 125.233613 
L 248.471185 125.233613 
z
" clip-path="url(#p2c38dcd14e)" style="fill: #a3e301; fill-opacity: 0.5"/>
   </g>
   <g id="patch_44">
    <path d="M 252.672398 378 
L 256.873612 378 
L 256.873612 123.710924 
L 252.672398 123.710924 
z
" clip-path="url(#p2c38dcd14e)" style="fill: #a3e301; fill-opacity: 0.5"/>
   </g>
   <g id="patch_45">
    <path d="M 256.873612 378 
L 261.074826 378 
L 261.074826 93.257143 
L 256.873612 93.257143 
z
" clip-path="url(#p2c38dcd14e)" style="fill: #a3e301; fill-opacity: 0.5"/>
   </g>
   <g id="patch_46">
    <path d="M 261.074826 378 
L 265.276039 378 
L 265.276039 116.097479 
L 261.074826 116.097479 
z
" clip-path="url(#p2c38dcd14e)" style="fill: #a3e301; fill-opacity: 0.5"/>
   </g>
   <g id="patch_47">
    <path d="M 265.276039 378 
L 269.477253 378 
L 269.477253 91.734454 
L 265.276039 91.734454 
z
" clip-path="url(#p2c38dcd14e)" style="fill: #a3e301; fill-opacity: 0.5"/>
   </g>
   <g id="patch_48">
    <path d="M 269.477253 378 
L 273.678466 378 
L 273.678466 73.462185 
L 269.477253 73.462185 
z
" clip-path="url(#p2c38dcd14e)" style="fill: #a3e301; fill-opacity: 0.5"/>
   </g>
   <g id="patch_49">
    <path d="M 273.678466 378 
L 277.87968 378 
L 277.87968 102.393277 
L 273.678466 102.393277 
z
" clip-path="url(#p2c38dcd14e)" style="fill: #a3e301; fill-opacity: 0.5"/>
   </g>
   <g id="patch_50">
    <path d="M 277.87968 378 
L 282.080894 378 
L 282.080894 67.371429 
L 277.87968 67.371429 
z
" clip-path="url(#p2c38dcd14e)" style="fill: #a3e301; fill-opacity: 0.5"/>
   </g>
   <g id="patch_51">
    <path d="M 282.080894 378 
L 286.282107 378 
L 286.282107 100.870588 
L 282.080894 100.870588 
z
" clip-path="url(#p2c38dcd14e)" style="fill: #a3e301; fill-opacity: 0.5"/>
   </g>
   <g id="patch_52">
    <path d="M 286.282107 378 
L 290.483321 378 
L 290.483321 172.436975 
L 286.282107 172.436975 
z
" clip-path="url(#p2c38dcd14e)" style="fill: #a3e301; fill-opacity: 0.5"/>
   </g>
   <g id="patch_53">
    <path d="M 290.483321 378 
L 294.684534 378 
L 294.684534 219.640336 
L 290.483321 219.640336 
z
" clip-path="url(#p2c38dcd14e)" style="fill: #a3e301; fill-opacity: 0.5"/>
   </g>
   <g id="patch_54">
    <path d="M 294.684534 378 
L 298.885748 378 
L 298.885748 175.482353 
L 294.684534 175.482353 
z
" clip-path="url(#p2c38dcd14e)" style="fill: #a3e301; fill-opacity: 0.5"/>
   </g>
   <g id="patch_55">
    <path d="M 298.885748 378 
L 303.086962 378 
L 303.086962 204.413445 
L 298.885748 204.413445 
z
" clip-path="url(#p2c38dcd14e)" style="fill: #a3e301; fill-opacity: 0.5"/>
   </g>
   <g id="patch_56">
    <path d="M 303.086962 378 
L 307.288175 378 
L 307.288175 225.731092 
L 303.086962 225.731092 
z
" clip-path="url(#p2c38dcd14e)" style="fill: #a3e301; fill-opacity: 0.5"/>
   </g>
   <g id="patch_57">
    <path d="M 307.288175 378 
L 311.489389 378 
L 311.489389 222.685714 
L 307.288175 222.685714 
z
" clip-path="url(#p2c38dcd14e)" style="fill: #a3e301; fill-opacity: 0.5"/>
   </g>
   <g id="patch_58">
    <path d="M 311.489389 378 
L 315.690602 378 
L 315.690602 237.912605 
L 311.489389 237.912605 
z
" clip-path="url(#p2c38dcd14e)" style="fill: #a3e301; fill-opacity: 0.5"/>
   </g>
   <g id="patch_59">
    <path d="M 315.690602 378 
L 319.891816 378 
L 319.891816 244.003361 
L 315.690602 244.003361 
z
" clip-path="url(#p2c38dcd14e)" style="fill: #a3e301; fill-opacity: 0.5"/>
   </g>
   <g id="patch_60">
    <path d="M 319.891816 378 
L 324.093029 378 
L 324.093029 265.321008 
L 319.891816 265.321008 
z
" clip-path="url(#p2c38dcd14e)" style="fill: #a3e301; fill-opacity: 0.5"/>
   </g>
   <g id="patch_61">
    <path d="M 324.093029 378 
L 328.294243 378 
L 328.294243 269.889076 
L 324.093029 269.889076 
z
" clip-path="url(#p2c38dcd14e)" style="fill: #a3e301; fill-opacity: 0.5"/>
   </g>
   <g id="patch_62">
    <path d="M 328.294243 378 
L 332.495457 378 
L 332.495457 289.684034 
L 328.294243 289.684034 
z
" clip-path="url(#p2c38dcd14e)" style="fill: #a3e301; fill-opacity: 0.5"/>
   </g>
   <g id="patch_63">
    <path d="M 332.495457 378 
L 336.69667 378 
L 336.69667 311.001681 
L 332.495457 311.001681 
z
" clip-path="url(#p2c38dcd14e)" style="fill: #a3e301; fill-opacity: 0.5"/>
   </g>
   <g id="patch_64">
    <path d="M 336.69667 378 
L 340.897884 378 
L 340.897884 336.887395 
L 336.69667 336.887395 
z
" clip-path="url(#p2c38dcd14e)" style="fill: #a3e301; fill-opacity: 0.5"/>
   </g>
   <g id="patch_65">
    <path d="M 340.897884 378 
L 345.099097 378 
L 345.099097 353.636975 
L 340.897884 353.636975 
z
" clip-path="url(#p2c38dcd14e)" style="fill: #a3e301; fill-opacity: 0.5"/>
   </g>
   <g id="patch_66">
    <path d="M 345.099097 378 
L 349.300311 378 
L 349.300311 353.636975 
L 345.099097 353.636975 
z
" clip-path="url(#p2c38dcd14e)" style="fill: #a3e301; fill-opacity: 0.5"/>
   </g>
   <g id="patch_67">
    <path d="M 349.300311 378 
L 353.501525 378 
L 353.501525 367.341176 
L 349.300311 367.341176 
z
" clip-path="url(#p2c38dcd14e)" style="fill: #a3e301; fill-opacity: 0.5"/>
   </g>
   <g id="patch_68">
    <path d="M 353.501525 378 
L 357.702738 378 
L 357.702738 353.636975 
L 353.501525 353.636975 
z
" clip-path="url(#p2c38dcd14e)" style="fill: #a3e301; fill-opacity: 0.5"/>
   </g>
   <g id="patch_69">
    <path d="M 357.702738 378 
L 361.903952 378 
L 361.903952 361.25042 
L 357.702738 361.25042 
z
" clip-path="url(#p2c38dcd14e)" style="fill: #a3e301; fill-opacity: 0.5"/>
   </g>
   <g id="patch_70">
    <path d="M 361.903952 378 
L 366.105165 378 
L 366.105165 358.205042 
L 361.903952 358.205042 
z
" clip-path="url(#p2c38dcd14e)" style="fill: #a3e301; fill-opacity: 0.5"/>
   </g>
   <g id="patch_71">
    <path d="M 366.105165 378 
L 370.306379 378 
L 370.306379 359.727731 
L 366.105165 359.727731 
z
" clip-path="url(#p2c38dcd14e)" style="fill: #a3e301; fill-opacity: 0.5"/>
   </g>
   <g id="patch_72">
    <path d="M 370.306379 378 
L 374.507592 378 
L 374.507592 352.114286 
L 370.306379 352.114286 
z
" clip-path="url(#p2c38dcd14e)" style="fill: #a3e301; fill-opacity: 0.5"/>
   </g>
   <g id="patch_73">
    <path d="M 374.507592 378 
L 378.708806 378 
L 378.708806 342.978151 
L 374.507592 342.978151 
z
" clip-path="url(#p2c38dcd14e)" style="fill: #a3e301; fill-opacity: 0.5"/>
   </g>
   <g id="patch_74">
    <path d="M 378.708806 378 
L 382.91002 378 
L 382.91002 332.319328 
L 378.708806 332.319328 
z
" clip-path="url(#p2c38dcd14e)" style="fill: #a3e301; fill-opacity: 0.5"/>
   </g>
   <g id="patch_75">
    <path d="M 382.91002 378 
L 387.111233 378 
L 387.111233 324.705882 
L 382.91002 324.705882 
z
" clip-path="url(#p2c38dcd14e)" style="fill: #a3e301; fill-opacity: 0.5"/>
   </g>
   <g id="patch_76">
    <path d="M 387.111233 378 
L 391.312447 378 
L 391.312447 327.751261 
L 387.111233 327.751261 
z
" clip-path="url(#p2c38dcd14e)" style="fill: #a3e301; fill-opacity: 0.5"/>
   </g>
   <g id="patch_77">
    <path d="M 391.312447 378 
L 395.51366 378 
L 395.51366 311.001681 
L 391.312447 311.001681 
z
" clip-path="url(#p2c38dcd14e)" style="fill: #a3e301; fill-opacity: 0.5"/>
   </g>
   <g id="patch_78">
    <path d="M 395.51366 378 
L 399.714874 378 
L 399.714874 282.070588 
L 395.51366 282.070588 
z
" clip-path="url(#p2c38dcd14e)" style="fill: #a3e301; fill-opacity: 0.5"/>
   </g>
   <g id="patch_79">
    <path d="M 399.714874 378 
L 403.916088 378 
L 403.916088 253.139496 
L 399.714874 253.139496 
z
" clip-path="url(#p2c38dcd14e)" style="fill: #a3e301; fill-opacity: 0.5"/>
   </g>
   <g id="patch_80">
    <path d="M 403.916088 378 
L 408.117301 378 
L 408.117301 224.208403 
L 403.916088 224.208403 
z
" clip-path="url(#p2c38dcd14e)" style="fill: #a3e301; fill-opacity: 0.5"/>
   </g>
   <g id="patch_81">
    <path d="M 408.117301 378 
L 412.318515 378 
L 412.318515 225.731092 
L 408.117301 225.731092 
z
" clip-path="url(#p2c38dcd14e)" style="fill: #a3e301; fill-opacity: 0.5"/>
   </g>
   <g id="patch_82">
    <path d="M 412.318515 378 
L 416.519728 378 
L 416.519728 207.458824 
L 412.318515 207.458824 
z
" clip-path="url(#p2c38dcd14e)" style="fill: #a3e301; fill-opacity: 0.5"/>
   </g>
   <g id="patch_83">
    <path d="M 416.519728 378 
L 420.720942 378 
L 420.720942 219.640336 
L 416.519728 219.640336 
z
" clip-path="url(#p2c38dcd14e)" style="fill: #a3e301; fill-opacity: 0.5"/>
   </g>
   <g id="patch_84">
    <path d="M 420.720942 378 
L 424.922155 378 
L 424.922155 256.184874 
L 420.720942 256.184874 
z
" clip-path="url(#p2c38dcd14e)" style="fill: #a3e301; fill-opacity: 0.5"/>
   </g>
   <g id="patch_85">
    <path d="M 424.922155 378 
L 429.123369 378 
L 429.123369 259.230252 
L 424.922155 259.230252 
z
" clip-path="url(#p2c38dcd14e)" style="fill: #a3e301; fill-opacity: 0.5"/>
   </g>
   <g id="patch_86">
    <path d="M 429.123369 378 
L 433.324583 378 
L 433.324583 303.388235 
L 429.123369 303.388235 
z
" clip-path="url(#p2c38dcd14e)" style="fill: #a3e301; fill-opacity: 0.5"/>
   </g>
   <g id="patch_87">
    <path d="M 433.324583 378 
L 437.525796 378 
L 437.525796 320.137815 
L 433.324583 320.137815 
z
" clip-path="url(#p2c38dcd14e)" style="fill: #a3e301; fill-opacity: 0.5"/>
   </g>
   <g id="patch_88">
    <path d="M 437.525796 378 
L 441.72701 378 
L 441.72701 326.228571 
L 437.525796 326.228571 
z
" clip-path="url(#p2c38dcd14e)" style="fill: #a3e301; fill-opacity: 0.5"/>
   </g>
   <g id="patch_89">
    <path d="M 441.72701 378 
L 445.928223 378 
L 445.928223 312.52437 
L 441.72701 312.52437 
z
" clip-path="url(#p2c38dcd14e)" style="fill: #a3e301; fill-opacity: 0.5"/>
   </g>
   <g id="patch_90">
    <path d="M 445.928223 378 
L 450.129437 378 
L 450.129437 298.820168 
L 445.928223 298.820168 
z
" clip-path="url(#p2c38dcd14e)" style="fill: #a3e301; fill-opacity: 0.5"/>
   </g>
   <g id="patch_91">
    <path d="M 450.129437 378 
L 454.330651 378 
L 454.330651 309.478992 
L 450.129437 309.478992 
z
" clip-path="url(#p2c38dcd14e)" style="fill: #a3e301; fill-opacity: 0.5"/>
   </g>
   <g id="patch_92">
    <path d="M 454.330651 378 
L 458.531864 378 
L 458.531864 304.910924 
L 454.330651 304.910924 
z
" clip-path="url(#p2c38dcd14e)" style="fill: #a3e301; fill-opacity: 0.5"/>
   </g>
   <g id="patch_93">
    <path d="M 458.531864 378 
L 462.733078 378 
L 462.733078 309.478992 
L 458.531864 309.478992 
z
" clip-path="url(#p2c38dcd14e)" style="fill: #a3e301; fill-opacity: 0.5"/>
   </g>
   <g id="patch_94">
    <path d="M 462.733078 378 
L 466.934291 378 
L 466.934291 332.319328 
L 462.733078 332.319328 
z
" clip-path="url(#p2c38dcd14e)" style="fill: #a3e301; fill-opacity: 0.5"/>
   </g>
   <g id="patch_95">
    <path d="M 466.934291 378 
L 471.135505 378 
L 471.135505 346.023529 
L 466.934291 346.023529 
z
" clip-path="url(#p2c38dcd14e)" style="fill: #a3e301; fill-opacity: 0.5"/>
   </g>
   <g id="patch_96">
    <path d="M 471.135505 378 
L 475.336718 378 
L 475.336718 321.660504 
L 471.135505 321.660504 
z
" clip-path="url(#p2c38dcd14e)" style="fill: #a3e301; fill-opacity: 0.5"/>
   </g>
   <g id="patch_97">
    <path d="M 475.336718 378 
L 479.537932 378 
L 479.537932 294.252101 
L 475.336718 294.252101 
z
" clip-path="url(#p2c38dcd14e)" style="fill: #a3e301; fill-opacity: 0.5"/>
   </g>
   <g id="patch_98">
    <path d="M 479.537932 378 
L 483.739146 378 
L 483.739146 304.910924 
L 479.537932 304.910924 
z
" clip-path="url(#p2c38dcd14e)" style="fill: #a3e301; fill-opacity: 0.5"/>
   </g>
   <g id="patch_99">
    <path d="M 483.739146 378 
L 487.940359 378 
L 487.940359 344.50084 
L 483.739146 344.50084 
z
" clip-path="url(#p2c38dcd14e)" style="fill: #a3e301; fill-opacity: 0.5"/>
   </g>
   <g id="patch_100">
    <path d="M 487.940359 378 
L 492.141573 378 
L 492.141573 373.431933 
L 487.940359 373.431933 
z
" clip-path="url(#p2c38dcd14e)" style="fill: #a3e301; fill-opacity: 0.5"/>
   </g>
   <g id="patch_101">
    <path d="M 492.141573 378 
L 496.342786 378 
L 496.342786 374.954622 
L 492.141573 374.954622 
z
" clip-path="url(#p2c38dcd14e)" style="fill: #a3e301; fill-opacity: 0.5"/>
   </g>
   <g id="patch_102">
    <path d="M 496.342786 378 
L 500.544 378 
L 500.544 376.477311 
L 496.342786 376.477311 
z
" clip-path="url(#p2c38dcd14e)" style="fill: #a3e301; fill-opacity: 0.5"/>
   </g>
   <g id="matplotlib.axis_1">
    <g id="xtick_1">
     <g id="line2d_1">
      <defs>
       <path id="m6b01190e19" d="M 0 0 
L 0 3.5 
" style="stroke: #000000; stroke-width: 0.8"/>
      </defs>
      <g>
       <use xlink:href="#m6b01190e19" x="72" y="378" style="stroke: #000000; stroke-width: 0.8"/>
      </g>
     </g>
     <g id="text_1">
      <!-- 0.00 -->
      <g transform="translate(60.867188 392.598437)scale(0.1 -0.1)">
       <defs>
        <path id="DejaVuSans-30" d="M 2034 4250 
Q 1547 4250 1301 3770 
Q 1056 3291 1056 2328 
Q 1056 1369 1301 889 
Q 1547 409 2034 409 
Q 2525 409 2770 889 
Q 3016 1369 3016 2328 
Q 3016 3291 2770 3770 
Q 2525 4250 2034 4250 
z
M 2034 4750 
Q 2819 4750 3233 4129 
Q 3647 3509 3647 2328 
Q 3647 1150 3233 529 
Q 2819 -91 2034 -91 
Q 1250 -91 836 529 
Q 422 1150 422 2328 
Q 422 3509 836 4129 
Q 1250 4750 2034 4750 
z
" transform="scale(0.015625)"/>
        <path id="DejaVuSans-2e" d="M 684 794 
L 1344 794 
L 1344 0 
L 684 0 
L 684 794 
z
" transform="scale(0.015625)"/>
       </defs>
       <use xlink:href="#DejaVuSans-30"/>
       <use xlink:href="#DejaVuSans-2e" x="63.623047"/>
       <use xlink:href="#DejaVuSans-30" x="95.410156"/>
       <use xlink:href="#DejaVuSans-30" x="159.033203"/>
      </g>
     </g>
    </g>
    <g id="xtick_2">
     <g id="line2d_2">
      <g>
       <use xlink:href="#m6b01190e19" x="183.6" y="378" style="stroke: #000000; stroke-width: 0.8"/>
      </g>
     </g>
     <g id="text_2">
      <!-- 0.25 -->
      <g transform="translate(172.467187 392.598437)scale(0.1 -0.1)">
       <defs>
        <path id="DejaVuSans-32" d="M 1228 531 
L 3431 531 
L 3431 0 
L 469 0 
L 469 531 
Q 828 903 1448 1529 
Q 2069 2156 2228 2338 
Q 2531 2678 2651 2914 
Q 2772 3150 2772 3378 
Q 2772 3750 2511 3984 
Q 2250 4219 1831 4219 
Q 1534 4219 1204 4116 
Q 875 4013 500 3803 
L 500 4441 
Q 881 4594 1212 4672 
Q 1544 4750 1819 4750 
Q 2544 4750 2975 4387 
Q 3406 4025 3406 3419 
Q 3406 3131 3298 2873 
Q 3191 2616 2906 2266 
Q 2828 2175 2409 1742 
Q 1991 1309 1228 531 
z
" transform="scale(0.015625)"/>
        <path id="DejaVuSans-35" d="M 691 4666 
L 3169 4666 
L 3169 4134 
L 1269 4134 
L 1269 2991 
Q 1406 3038 1543 3061 
Q 1681 3084 1819 3084 
Q 2600 3084 3056 2656 
Q 3513 2228 3513 1497 
Q 3513 744 3044 326 
Q 2575 -91 1722 -91 
Q 1428 -91 1123 -41 
Q 819 9 494 109 
L 494 744 
Q 775 591 1075 516 
Q 1375 441 1709 441 
Q 2250 441 2565 725 
Q 2881 1009 2881 1497 
Q 2881 1984 2565 2268 
Q 2250 2553 1709 2553 
Q 1456 2553 1204 2497 
Q 953 2441 691 2322 
L 691 4666 
z
" transform="scale(0.015625)"/>
       </defs>
       <use xlink:href="#DejaVuSans-30"/>
       <use xlink:href="#DejaVuSans-2e" x="63.623047"/>
       <use xlink:href="#DejaVuSans-32" x="95.410156"/>
       <use xlink:href="#DejaVuSans-35" x="159.033203"/>
      </g>
     </g>
    </g>
    <g id="xtick_3">
     <g id="line2d_3">
      <g>
       <use xlink:href="#m6b01190e19" x="295.2" y="378" style="stroke: #000000; stroke-width: 0.8"/>
      </g>
     </g>
     <g id="text_3">
      <!-- 0.50 -->
      <g transform="translate(284.067187 392.598437)scale(0.1 -0.1)">
       <use xlink:href="#DejaVuSans-30"/>
       <use xlink:href="#DejaVuSans-2e" x="63.623047"/>
       <use xlink:href="#DejaVuSans-35" x="95.410156"/>
       <use xlink:href="#DejaVuSans-30" x="159.033203"/>
      </g>
     </g>
    </g>
    <g id="xtick_4">
     <g id="line2d_4">
      <g>
       <use xlink:href="#m6b01190e19" x="406.8" y="378" style="stroke: #000000; stroke-width: 0.8"/>
      </g>
     </g>
     <g id="text_4">
      <!-- 0.75 -->
      <g transform="translate(395.667187 392.598437)scale(0.1 -0.1)">
       <defs>
        <path id="DejaVuSans-37" d="M 525 4666 
L 3525 4666 
L 3525 4397 
L 1831 0 
L 1172 0 
L 2766 4134 
L 525 4134 
L 525 4666 
z
" transform="scale(0.015625)"/>
       </defs>
       <use xlink:href="#DejaVuSans-30"/>
       <use xlink:href="#DejaVuSans-2e" x="63.623047"/>
       <use xlink:href="#DejaVuSans-37" x="95.410156"/>
       <use xlink:href="#DejaVuSans-35" x="159.033203"/>
      </g>
     </g>
    </g>
    <g id="xtick_5">
     <g id="line2d_5">
      <g>
       <use xlink:href="#m6b01190e19" x="518.4" y="378" style="stroke: #000000; stroke-width: 0.8"/>
      </g>
     </g>
     <g id="text_5">
      <!-- 1.00 -->
      <g transform="translate(507.267187 392.598437)scale(0.1 -0.1)">
       <defs>
        <path id="DejaVuSans-31" d="M 794 531 
L 1825 531 
L 1825 4091 
L 703 3866 
L 703 4441 
L 1819 4666 
L 2450 4666 
L 2450 531 
L 3481 531 
L 3481 0 
L 794 0 
L 794 531 
z
" transform="scale(0.015625)"/>
       </defs>
       <use xlink:href="#DejaVuSans-31"/>
       <use xlink:href="#DejaVuSans-2e" x="63.623047"/>
       <use xlink:href="#DejaVuSans-30" x="95.410156"/>
       <use xlink:href="#DejaVuSans-30" x="159.033203"/>
      </g>
     </g>
    </g>
    <g id="text_6">
     <!-- ratio_roeske -->
     <g transform="translate(264.697656 406.276563)scale(0.1 -0.1)">
      <defs>
       <path id="DejaVuSans-72" d="M 2631 2963 
Q 2534 3019 2420 3045 
Q 2306 3072 2169 3072 
Q 1681 3072 1420 2755 
Q 1159 2438 1159 1844 
L 1159 0 
L 581 0 
L 581 3500 
L 1159 3500 
L 1159 2956 
Q 1341 3275 1631 3429 
Q 1922 3584 2338 3584 
Q 2397 3584 2469 3576 
Q 2541 3569 2628 3553 
L 2631 2963 
z
" transform="scale(0.015625)"/>
       <path id="DejaVuSans-61" d="M 2194 1759 
Q 1497 1759 1228 1600 
Q 959 1441 959 1056 
Q 959 750 1161 570 
Q 1363 391 1709 391 
Q 2188 391 2477 730 
Q 2766 1069 2766 1631 
L 2766 1759 
L 2194 1759 
z
M 3341 1997 
L 3341 0 
L 2766 0 
L 2766 531 
Q 2569 213 2275 61 
Q 1981 -91 1556 -91 
Q 1019 -91 701 211 
Q 384 513 384 1019 
Q 384 1609 779 1909 
Q 1175 2209 1959 2209 
L 2766 2209 
L 2766 2266 
Q 2766 2663 2505 2880 
Q 2244 3097 1772 3097 
Q 1472 3097 1187 3025 
Q 903 2953 641 2809 
L 641 3341 
Q 956 3463 1253 3523 
Q 1550 3584 1831 3584 
Q 2591 3584 2966 3190 
Q 3341 2797 3341 1997 
z
" transform="scale(0.015625)"/>
       <path id="DejaVuSans-74" d="M 1172 4494 
L 1172 3500 
L 2356 3500 
L 2356 3053 
L 1172 3053 
L 1172 1153 
Q 1172 725 1289 603 
Q 1406 481 1766 481 
L 2356 481 
L 2356 0 
L 1766 0 
Q 1100 0 847 248 
Q 594 497 594 1153 
L 594 3053 
L 172 3053 
L 172 3500 
L 594 3500 
L 594 4494 
L 1172 4494 
z
" transform="scale(0.015625)"/>
       <path id="DejaVuSans-69" d="M 603 3500 
L 1178 3500 
L 1178 0 
L 603 0 
L 603 3500 
z
M 603 4863 
L 1178 4863 
L 1178 4134 
L 603 4134 
L 603 4863 
z
" transform="scale(0.015625)"/>
       <path id="DejaVuSans-6f" d="M 1959 3097 
Q 1497 3097 1228 2736 
Q 959 2375 959 1747 
Q 959 1119 1226 758 
Q 1494 397 1959 397 
Q 2419 397 2687 759 
Q 2956 1122 2956 1747 
Q 2956 2369 2687 2733 
Q 2419 3097 1959 3097 
z
M 1959 3584 
Q 2709 3584 3137 3096 
Q 3566 2609 3566 1747 
Q 3566 888 3137 398 
Q 2709 -91 1959 -91 
Q 1206 -91 779 398 
Q 353 888 353 1747 
Q 353 2609 779 3096 
Q 1206 3584 1959 3584 
z
" transform="scale(0.015625)"/>
       <path id="DejaVuSans-5f" d="M 3263 -1063 
L 3263 -1509 
L -63 -1509 
L -63 -1063 
L 3263 -1063 
z
" transform="scale(0.015625)"/>
       <path id="DejaVuSans-65" d="M 3597 1894 
L 3597 1613 
L 953 1613 
Q 991 1019 1311 708 
Q 1631 397 2203 397 
Q 2534 397 2845 478 
Q 3156 559 3463 722 
L 3463 178 
Q 3153 47 2828 -22 
Q 2503 -91 2169 -91 
Q 1331 -91 842 396 
Q 353 884 353 1716 
Q 353 2575 817 3079 
Q 1281 3584 2069 3584 
Q 2775 3584 3186 3129 
Q 3597 2675 3597 1894 
z
M 3022 2063 
Q 3016 2534 2758 2815 
Q 2500 3097 2075 3097 
Q 1594 3097 1305 2825 
Q 1016 2553 972 2059 
L 3022 2063 
z
" transform="scale(0.015625)"/>
       <path id="DejaVuSans-73" d="M 2834 3397 
L 2834 2853 
Q 2591 2978 2328 3040 
Q 2066 3103 1784 3103 
Q 1356 3103 1142 2972 
Q 928 2841 928 2578 
Q 928 2378 1081 2264 
Q 1234 2150 1697 2047 
L 1894 2003 
Q 2506 1872 2764 1633 
Q 3022 1394 3022 966 
Q 3022 478 2636 193 
Q 2250 -91 1575 -91 
Q 1294 -91 989 -36 
Q 684 19 347 128 
L 347 722 
Q 666 556 975 473 
Q 1284 391 1588 391 
Q 1994 391 2212 530 
Q 2431 669 2431 922 
Q 2431 1156 2273 1281 
Q 2116 1406 1581 1522 
L 1381 1569 
Q 847 1681 609 1914 
Q 372 2147 372 2553 
Q 372 3047 722 3315 
Q 1072 3584 1716 3584 
Q 2034 3584 2315 3537 
Q 2597 3491 2834 3397 
z
" transform="scale(0.015625)"/>
       <path id="DejaVuSans-6b" d="M 581 4863 
L 1159 4863 
L 1159 1991 
L 2875 3500 
L 3609 3500 
L 1753 1863 
L 3688 0 
L 2938 0 
L 1159 1709 
L 1159 0 
L 581 0 
L 581 4863 
z
" transform="scale(0.015625)"/>
      </defs>
      <use xlink:href="#DejaVuSans-72"/>
      <use xlink:href="#DejaVuSans-61" x="41.113281"/>
      <use xlink:href="#DejaVuSans-74" x="102.392578"/>
      <use xlink:href="#DejaVuSans-69" x="141.601562"/>
      <use xlink:href="#DejaVuSans-6f" x="169.384766"/>
      <use xlink:href="#DejaVuSans-5f" x="230.566406"/>
      <use xlink:href="#DejaVuSans-72" x="280.566406"/>
      <use xlink:href="#DejaVuSans-6f" x="319.429688"/>
      <use xlink:href="#DejaVuSans-65" x="380.611328"/>
      <use xlink:href="#DejaVuSans-73" x="442.134766"/>
      <use xlink:href="#DejaVuSans-6b" x="494.234375"/>
      <use xlink:href="#DejaVuSans-65" x="548.519531"/>
     </g>
    </g>
   </g>
   <g id="matplotlib.axis_2">
    <g id="ytick_1">
     <g id="line2d_6">
      <defs>
       <path id="m2bf91d80ff" d="M 0 0 
L -3.5 0 
" style="stroke: #000000; stroke-width: 0.8"/>
      </defs>
      <g>
       <use xlink:href="#m2bf91d80ff" x="72" y="378" style="stroke: #000000; stroke-width: 0.8"/>
      </g>
     </g>
     <g id="text_7">
      <!-- 0.0 -->
      <g transform="translate(49.096875 381.799219)scale(0.1 -0.1)">
       <use xlink:href="#DejaVuSans-30"/>
       <use xlink:href="#DejaVuSans-2e" x="63.623047"/>
       <use xlink:href="#DejaVuSans-30" x="95.410156"/>
      </g>
     </g>
    </g>
    <g id="ytick_2">
     <g id="line2d_7">
      <g>
       <use xlink:href="#m2bf91d80ff" x="72" y="324.282063" style="stroke: #000000; stroke-width: 0.8"/>
      </g>
     </g>
     <g id="text_8">
      <!-- 0.5 -->
      <g transform="translate(49.096875 328.081282)scale(0.1 -0.1)">
       <use xlink:href="#DejaVuSans-30"/>
       <use xlink:href="#DejaVuSans-2e" x="63.623047"/>
       <use xlink:href="#DejaVuSans-35" x="95.410156"/>
      </g>
     </g>
    </g>
    <g id="ytick_3">
     <g id="line2d_8">
      <g>
       <use xlink:href="#m2bf91d80ff" x="72" y="270.564127" style="stroke: #000000; stroke-width: 0.8"/>
      </g>
     </g>
     <g id="text_9">
      <!-- 1.0 -->
      <g transform="translate(49.096875 274.363346)scale(0.1 -0.1)">
       <use xlink:href="#DejaVuSans-31"/>
       <use xlink:href="#DejaVuSans-2e" x="63.623047"/>
       <use xlink:href="#DejaVuSans-30" x="95.410156"/>
      </g>
     </g>
    </g>
    <g id="ytick_4">
     <g id="line2d_9">
      <g>
       <use xlink:href="#m2bf91d80ff" x="72" y="216.84619" style="stroke: #000000; stroke-width: 0.8"/>
      </g>
     </g>
     <g id="text_10">
      <!-- 1.5 -->
      <g transform="translate(49.096875 220.645409)scale(0.1 -0.1)">
       <use xlink:href="#DejaVuSans-31"/>
       <use xlink:href="#DejaVuSans-2e" x="63.623047"/>
       <use xlink:href="#DejaVuSans-35" x="95.410156"/>
      </g>
     </g>
    </g>
    <g id="ytick_5">
     <g id="line2d_10">
      <g>
       <use xlink:href="#m2bf91d80ff" x="72" y="163.128254" style="stroke: #000000; stroke-width: 0.8"/>
      </g>
     </g>
     <g id="text_11">
      <!-- 2.0 -->
      <g transform="translate(49.096875 166.927472)scale(0.1 -0.1)">
       <use xlink:href="#DejaVuSans-32"/>
       <use xlink:href="#DejaVuSans-2e" x="63.623047"/>
       <use xlink:href="#DejaVuSans-30" x="95.410156"/>
      </g>
     </g>
    </g>
    <g id="ytick_6">
     <g id="line2d_11">
      <g>
       <use xlink:href="#m2bf91d80ff" x="72" y="109.410317" style="stroke: #000000; stroke-width: 0.8"/>
      </g>
     </g>
     <g id="text_12">
      <!-- 2.5 -->
      <g transform="translate(49.096875 113.209536)scale(0.1 -0.1)">
       <use xlink:href="#DejaVuSans-32"/>
       <use xlink:href="#DejaVuSans-2e" x="63.623047"/>
       <use xlink:href="#DejaVuSans-35" x="95.410156"/>
      </g>
     </g>
    </g>
    <g id="ytick_7">
     <g id="line2d_12">
      <g>
       <use xlink:href="#m2bf91d80ff" x="72" y="55.69238" style="stroke: #000000; stroke-width: 0.8"/>
      </g>
     </g>
     <g id="text_13">
      <!-- 3.0 -->
      <g transform="translate(49.096875 59.491599)scale(0.1 -0.1)">
       <defs>
        <path id="DejaVuSans-33" d="M 2597 2516 
Q 3050 2419 3304 2112 
Q 3559 1806 3559 1356 
Q 3559 666 3084 287 
Q 2609 -91 1734 -91 
Q 1441 -91 1130 -33 
Q 819 25 488 141 
L 488 750 
Q 750 597 1062 519 
Q 1375 441 1716 441 
Q 2309 441 2620 675 
Q 2931 909 2931 1356 
Q 2931 1769 2642 2001 
Q 2353 2234 1838 2234 
L 1294 2234 
L 1294 2753 
L 1863 2753 
Q 2328 2753 2575 2939 
Q 2822 3125 2822 3475 
Q 2822 3834 2567 4026 
Q 2313 4219 1838 4219 
Q 1578 4219 1281 4162 
Q 984 4106 628 3988 
L 628 4550 
Q 988 4650 1302 4700 
Q 1616 4750 1894 4750 
Q 2613 4750 3031 4423 
Q 3450 4097 3450 3541 
Q 3450 3153 3228 2886 
Q 3006 2619 2597 2516 
z
" transform="scale(0.015625)"/>
       </defs>
       <use xlink:href="#DejaVuSans-33"/>
       <use xlink:href="#DejaVuSans-2e" x="63.623047"/>
       <use xlink:href="#DejaVuSans-30" x="95.410156"/>
      </g>
     </g>
    </g>
    <g id="text_14">
     <!-- Density -->
     <g transform="translate(43.017187 233.928594)rotate(-90)scale(0.1 -0.1)">
      <defs>
       <path id="DejaVuSans-44" d="M 1259 4147 
L 1259 519 
L 2022 519 
Q 2988 519 3436 956 
Q 3884 1394 3884 2338 
Q 3884 3275 3436 3711 
Q 2988 4147 2022 4147 
L 1259 4147 
z
M 628 4666 
L 1925 4666 
Q 3281 4666 3915 4102 
Q 4550 3538 4550 2338 
Q 4550 1131 3912 565 
Q 3275 0 1925 0 
L 628 0 
L 628 4666 
z
" transform="scale(0.015625)"/>
       <path id="DejaVuSans-6e" d="M 3513 2113 
L 3513 0 
L 2938 0 
L 2938 2094 
Q 2938 2591 2744 2837 
Q 2550 3084 2163 3084 
Q 1697 3084 1428 2787 
Q 1159 2491 1159 1978 
L 1159 0 
L 581 0 
L 581 3500 
L 1159 3500 
L 1159 2956 
Q 1366 3272 1645 3428 
Q 1925 3584 2291 3584 
Q 2894 3584 3203 3211 
Q 3513 2838 3513 2113 
z
" transform="scale(0.015625)"/>
       <path id="DejaVuSans-79" d="M 2059 -325 
Q 1816 -950 1584 -1140 
Q 1353 -1331 966 -1331 
L 506 -1331 
L 506 -850 
L 844 -850 
Q 1081 -850 1212 -737 
Q 1344 -625 1503 -206 
L 1606 56 
L 191 3500 
L 800 3500 
L 1894 763 
L 2988 3500 
L 3597 3500 
L 2059 -325 
z
" transform="scale(0.015625)"/>
      </defs>
      <use xlink:href="#DejaVuSans-44"/>
      <use xlink:href="#DejaVuSans-65" x="77.001953"/>
      <use xlink:href="#DejaVuSans-6e" x="138.525391"/>
      <use xlink:href="#DejaVuSans-73" x="201.904297"/>
      <use xlink:href="#DejaVuSans-69" x="254.003906"/>
      <use xlink:href="#DejaVuSans-74" x="281.787109"/>
      <use xlink:href="#DejaVuSans-79" x="320.996094"/>
     </g>
    </g>
   </g>
   <g id="line2d_13">
    <path d="M 80.422642 376.475907 
L 84.644967 375.670705 
L 86.756129 375.106374 
L 88.867292 374.397657 
L 90.978455 373.511278 
L 93.089617 372.409337 
L 95.20078 371.049691 
L 97.311942 369.386692 
L 99.423105 367.372353 
L 101.534268 364.957995 
L 103.64543 362.096396 
L 105.756593 358.74445 
L 107.867755 354.86625 
L 109.978918 350.436478 
L 112.090081 345.443891 
L 114.201243 339.894626 
L 116.312406 333.815008 
L 118.423568 327.253493 
L 122.645894 312.992247 
L 131.090544 283.129173 
L 133.201707 276.174672 
L 135.312869 269.688834 
L 137.424032 263.777033 
L 139.535194 258.518624 
L 141.646357 253.962369 
L 143.75752 250.123984 
L 145.868682 246.986027 
L 147.979845 244.500144 
L 150.091007 242.591459 
L 152.20217 241.1647 
L 154.313333 240.111505 
L 156.424495 239.318263 
L 164.869146 236.696414 
L 166.980308 235.800726 
L 169.091471 234.72911 
L 171.202634 233.478743 
L 173.313796 232.06491 
L 177.536121 228.875177 
L 185.980772 222.243158 
L 190.203097 219.3838 
L 194.425422 216.988676 
L 198.647747 214.968379 
L 204.981235 212.121031 
L 207.092398 211.06111 
L 209.20356 209.87287 
L 211.314723 208.512913 
L 213.425886 206.940086 
L 215.537048 205.116865 
L 217.648211 203.0107 
L 219.759373 200.595275 
L 221.870536 197.851644 
L 223.981699 194.769151 
L 226.092861 191.346096 
L 228.204024 187.590084 
L 230.315186 183.518062 
L 232.426349 179.156036 
L 236.648674 169.707957 
L 242.982162 154.461328 
L 247.204487 144.286435 
L 251.426813 134.759189 
L 253.537975 130.429939 
L 255.649138 126.496318 
L 257.7603 123.038578 
L 259.871463 120.135784 
L 261.982626 117.863841 
L 264.093788 116.293041 
L 266.204951 115.485222 
L 268.316113 115.49066 
L 270.427276 116.34493 
L 272.538439 118.06602 
L 274.649601 120.652012 
L 276.760764 124.079686 
L 278.871926 128.304286 
L 280.983089 133.260677 
L 283.094252 138.865912 
L 285.205414 145.023144 
L 289.427739 158.5673 
L 295.761227 180.395335 
L 302.094715 202.148119 
L 308.428203 222.978581 
L 329.539829 290.53307 
L 333.762154 303.485121 
L 337.984479 315.459734 
L 340.095642 320.92922 
L 342.206805 325.97917 
L 344.317967 330.561722 
L 346.42913 334.637163 
L 348.540292 338.174743 
L 350.651455 341.152865 
L 352.762618 343.558695 
L 354.87378 345.387304 
L 356.984943 346.640457 
L 359.096105 347.325207 
L 361.207268 347.452452 
L 363.318431 347.035575 
L 365.429593 346.08931 
L 367.540756 344.628931 
L 369.651918 342.669833 
L 371.763081 340.227557 
L 373.874244 337.318295 
L 375.985406 333.959846 
L 378.096569 330.173007 
L 380.207731 325.983305 
L 382.318894 321.422961 
L 386.541219 311.364649 
L 390.763545 300.460735 
L 397.097032 284.019182 
L 399.208195 278.944863 
L 401.319358 274.269096 
L 403.43052 270.10682 
L 405.541683 266.563585 
L 407.652845 263.729728 
L 409.764008 261.67497 
L 411.875171 260.443923 
L 413.986333 260.052919 
L 416.097496 260.4885 
L 418.208658 261.707772 
L 420.319821 263.640649 
L 422.430984 266.193871 
L 424.542146 269.256505 
L 426.653309 272.706485 
L 430.875634 280.266967 
L 435.097959 287.939503 
L 439.320284 295.012682 
L 441.431447 298.189281 
L 443.54261 301.095432 
L 445.653772 303.731523 
L 447.764935 306.112971 
L 449.876097 308.266718 
L 451.98726 310.227746 
L 456.209585 313.733682 
L 464.654236 320.262361 
L 468.876561 323.912617 
L 470.987724 325.949009 
L 473.098886 328.156843 
L 475.210049 330.54953 
L 477.321211 333.130907 
L 481.543537 338.820353 
L 485.765862 345.034432 
L 492.09935 354.563174 
L 496.321675 360.443547 
L 498.432837 363.102264 
L 500.544 365.52947 
L 500.544 365.52947 
" clip-path="url(#p2c38dcd14e)" style="fill: none; stroke: #a3e301; stroke-width: 1.5; stroke-linecap: square"/>
   </g>
   <g id="patch_103">
    <path d="M 72 378 
L 72 51.84 
" style="fill: none; stroke: #000000; stroke-width: 0.8; stroke-linejoin: miter; stroke-linecap: square"/>
   </g>
   <g id="patch_104">
    <path d="M 518.4 378 
L 518.4 51.84 
" style="fill: none; stroke: #000000; stroke-width: 0.8; stroke-linejoin: miter; stroke-linecap: square"/>
   </g>
   <g id="patch_105">
    <path d="M 72 378 
L 518.4 378 
" style="fill: none; stroke: #000000; stroke-width: 0.8; stroke-linejoin: miter; stroke-linecap: square"/>
   </g>
   <g id="patch_106">
    <path d="M 72 51.84 
L 518.4 51.84 
" style="fill: none; stroke: #000000; stroke-width: 0.8; stroke-linejoin: miter; stroke-linecap: square"/>
   </g>
   <g id="text_15">
    <!-- rhythms containing lengths &lt;0.3900197265882724 -->
    <g transform="translate(139.006875 45.84)scale(0.12 -0.12)">
     <defs>
      <path id="DejaVuSans-68" d="M 3513 2113 
L 3513 0 
L 2938 0 
L 2938 2094 
Q 2938 2591 2744 2837 
Q 2550 3084 2163 3084 
Q 1697 3084 1428 2787 
Q 1159 2491 1159 1978 
L 1159 0 
L 581 0 
L 581 4863 
L 1159 4863 
L 1159 2956 
Q 1366 3272 1645 3428 
Q 1925 3584 2291 3584 
Q 2894 3584 3203 3211 
Q 3513 2838 3513 2113 
z
" transform="scale(0.015625)"/>
      <path id="DejaVuSans-6d" d="M 3328 2828 
Q 3544 3216 3844 3400 
Q 4144 3584 4550 3584 
Q 5097 3584 5394 3201 
Q 5691 2819 5691 2113 
L 5691 0 
L 5113 0 
L 5113 2094 
Q 5113 2597 4934 2840 
Q 4756 3084 4391 3084 
Q 3944 3084 3684 2787 
Q 3425 2491 3425 1978 
L 3425 0 
L 2847 0 
L 2847 2094 
Q 2847 2600 2669 2842 
Q 2491 3084 2119 3084 
Q 1678 3084 1418 2786 
Q 1159 2488 1159 1978 
L 1159 0 
L 581 0 
L 581 3500 
L 1159 3500 
L 1159 2956 
Q 1356 3278 1631 3431 
Q 1906 3584 2284 3584 
Q 2666 3584 2933 3390 
Q 3200 3197 3328 2828 
z
" transform="scale(0.015625)"/>
      <path id="DejaVuSans-20" transform="scale(0.015625)"/>
      <path id="DejaVuSans-63" d="M 3122 3366 
L 3122 2828 
Q 2878 2963 2633 3030 
Q 2388 3097 2138 3097 
Q 1578 3097 1268 2742 
Q 959 2388 959 1747 
Q 959 1106 1268 751 
Q 1578 397 2138 397 
Q 2388 397 2633 464 
Q 2878 531 3122 666 
L 3122 134 
Q 2881 22 2623 -34 
Q 2366 -91 2075 -91 
Q 1284 -91 818 406 
Q 353 903 353 1747 
Q 353 2603 823 3093 
Q 1294 3584 2113 3584 
Q 2378 3584 2631 3529 
Q 2884 3475 3122 3366 
z
" transform="scale(0.015625)"/>
      <path id="DejaVuSans-67" d="M 2906 1791 
Q 2906 2416 2648 2759 
Q 2391 3103 1925 3103 
Q 1463 3103 1205 2759 
Q 947 2416 947 1791 
Q 947 1169 1205 825 
Q 1463 481 1925 481 
Q 2391 481 2648 825 
Q 2906 1169 2906 1791 
z
M 3481 434 
Q 3481 -459 3084 -895 
Q 2688 -1331 1869 -1331 
Q 1566 -1331 1297 -1286 
Q 1028 -1241 775 -1147 
L 775 -588 
Q 1028 -725 1275 -790 
Q 1522 -856 1778 -856 
Q 2344 -856 2625 -561 
Q 2906 -266 2906 331 
L 2906 616 
Q 2728 306 2450 153 
Q 2172 0 1784 0 
Q 1141 0 747 490 
Q 353 981 353 1791 
Q 353 2603 747 3093 
Q 1141 3584 1784 3584 
Q 2172 3584 2450 3431 
Q 2728 3278 2906 2969 
L 2906 3500 
L 3481 3500 
L 3481 434 
z
" transform="scale(0.015625)"/>
      <path id="DejaVuSans-6c" d="M 603 4863 
L 1178 4863 
L 1178 0 
L 603 0 
L 603 4863 
z
" transform="scale(0.015625)"/>
      <path id="DejaVuSans-3c" d="M 4684 3150 
L 1459 2003 
L 4684 863 
L 4684 294 
L 678 1747 
L 678 2266 
L 4684 3719 
L 4684 3150 
z
" transform="scale(0.015625)"/>
      <path id="DejaVuSans-39" d="M 703 97 
L 703 672 
Q 941 559 1184 500 
Q 1428 441 1663 441 
Q 2288 441 2617 861 
Q 2947 1281 2994 2138 
Q 2813 1869 2534 1725 
Q 2256 1581 1919 1581 
Q 1219 1581 811 2004 
Q 403 2428 403 3163 
Q 403 3881 828 4315 
Q 1253 4750 1959 4750 
Q 2769 4750 3195 4129 
Q 3622 3509 3622 2328 
Q 3622 1225 3098 567 
Q 2575 -91 1691 -91 
Q 1453 -91 1209 -44 
Q 966 3 703 97 
z
M 1959 2075 
Q 2384 2075 2632 2365 
Q 2881 2656 2881 3163 
Q 2881 3666 2632 3958 
Q 2384 4250 1959 4250 
Q 1534 4250 1286 3958 
Q 1038 3666 1038 3163 
Q 1038 2656 1286 2365 
Q 1534 2075 1959 2075 
z
" transform="scale(0.015625)"/>
      <path id="DejaVuSans-36" d="M 2113 2584 
Q 1688 2584 1439 2293 
Q 1191 2003 1191 1497 
Q 1191 994 1439 701 
Q 1688 409 2113 409 
Q 2538 409 2786 701 
Q 3034 994 3034 1497 
Q 3034 2003 2786 2293 
Q 2538 2584 2113 2584 
z
M 3366 4563 
L 3366 3988 
Q 3128 4100 2886 4159 
Q 2644 4219 2406 4219 
Q 1781 4219 1451 3797 
Q 1122 3375 1075 2522 
Q 1259 2794 1537 2939 
Q 1816 3084 2150 3084 
Q 2853 3084 3261 2657 
Q 3669 2231 3669 1497 
Q 3669 778 3244 343 
Q 2819 -91 2113 -91 
Q 1303 -91 875 529 
Q 447 1150 447 2328 
Q 447 3434 972 4092 
Q 1497 4750 2381 4750 
Q 2619 4750 2861 4703 
Q 3103 4656 3366 4563 
z
" transform="scale(0.015625)"/>
      <path id="DejaVuSans-38" d="M 2034 2216 
Q 1584 2216 1326 1975 
Q 1069 1734 1069 1313 
Q 1069 891 1326 650 
Q 1584 409 2034 409 
Q 2484 409 2743 651 
Q 3003 894 3003 1313 
Q 3003 1734 2745 1975 
Q 2488 2216 2034 2216 
z
M 1403 2484 
Q 997 2584 770 2862 
Q 544 3141 544 3541 
Q 544 4100 942 4425 
Q 1341 4750 2034 4750 
Q 2731 4750 3128 4425 
Q 3525 4100 3525 3541 
Q 3525 3141 3298 2862 
Q 3072 2584 2669 2484 
Q 3125 2378 3379 2068 
Q 3634 1759 3634 1313 
Q 3634 634 3220 271 
Q 2806 -91 2034 -91 
Q 1263 -91 848 271 
Q 434 634 434 1313 
Q 434 1759 690 2068 
Q 947 2378 1403 2484 
z
M 1172 3481 
Q 1172 3119 1398 2916 
Q 1625 2713 2034 2713 
Q 2441 2713 2670 2916 
Q 2900 3119 2900 3481 
Q 2900 3844 2670 4047 
Q 2441 4250 2034 4250 
Q 1625 4250 1398 4047 
Q 1172 3844 1172 3481 
z
" transform="scale(0.015625)"/>
      <path id="DejaVuSans-34" d="M 2419 4116 
L 825 1625 
L 2419 1625 
L 2419 4116 
z
M 2253 4666 
L 3047 4666 
L 3047 1625 
L 3713 1625 
L 3713 1100 
L 3047 1100 
L 3047 0 
L 2419 0 
L 2419 1100 
L 313 1100 
L 313 1709 
L 2253 4666 
z
" transform="scale(0.015625)"/>
     </defs>
     <use xlink:href="#DejaVuSans-72"/>
     <use xlink:href="#DejaVuSans-68" x="39.363281"/>
     <use xlink:href="#DejaVuSans-79" x="102.742188"/>
     <use xlink:href="#DejaVuSans-74" x="161.921875"/>
     <use xlink:href="#DejaVuSans-68" x="201.130859"/>
     <use xlink:href="#DejaVuSans-6d" x="264.509766"/>
     <use xlink:href="#DejaVuSans-73" x="361.921875"/>
     <use xlink:href="#DejaVuSans-20" x="414.021484"/>
     <use xlink:href="#DejaVuSans-63" x="445.808594"/>
     <use xlink:href="#DejaVuSans-6f" x="500.789062"/>
     <use xlink:href="#DejaVuSans-6e" x="561.970703"/>
     <use xlink:href="#DejaVuSans-74" x="625.349609"/>
     <use xlink:href="#DejaVuSans-61" x="664.558594"/>
     <use xlink:href="#DejaVuSans-69" x="725.837891"/>
     <use xlink:href="#DejaVuSans-6e" x="753.621094"/>
     <use xlink:href="#DejaVuSans-69" x="817"/>
     <use xlink:href="#DejaVuSans-6e" x="844.783203"/>
     <use xlink:href="#DejaVuSans-67" x="908.162109"/>
     <use xlink:href="#DejaVuSans-20" x="971.638672"/>
     <use xlink:href="#DejaVuSans-6c" x="1003.425781"/>
     <use xlink:href="#DejaVuSans-65" x="1031.208984"/>
     <use xlink:href="#DejaVuSans-6e" x="1092.732422"/>
     <use xlink:href="#DejaVuSans-67" x="1156.111328"/>
     <use xlink:href="#DejaVuSans-74" x="1219.587891"/>
     <use xlink:href="#DejaVuSans-68" x="1258.796875"/>
     <use xlink:href="#DejaVuSans-73" x="1322.175781"/>
     <use xlink:href="#DejaVuSans-20" x="1374.275391"/>
     <use xlink:href="#DejaVuSans-3c" x="1406.0625"/>
     <use xlink:href="#DejaVuSans-30" x="1489.851562"/>
     <use xlink:href="#DejaVuSans-2e" x="1553.474609"/>
     <use xlink:href="#DejaVuSans-33" x="1585.261719"/>
     <use xlink:href="#DejaVuSans-39" x="1648.884766"/>
     <use xlink:href="#DejaVuSans-30" x="1712.507812"/>
     <use xlink:href="#DejaVuSans-30" x="1776.130859"/>
     <use xlink:href="#DejaVuSans-31" x="1839.753906"/>
     <use xlink:href="#DejaVuSans-39" x="1903.376953"/>
     <use xlink:href="#DejaVuSans-37" x="1967"/>
     <use xlink:href="#DejaVuSans-32" x="2030.623047"/>
     <use xlink:href="#DejaVuSans-36" x="2094.246094"/>
     <use xlink:href="#DejaVuSans-35" x="2157.869141"/>
     <use xlink:href="#DejaVuSans-38" x="2221.492188"/>
     <use xlink:href="#DejaVuSans-38" x="2285.115234"/>
     <use xlink:href="#DejaVuSans-32" x="2348.738281"/>
     <use xlink:href="#DejaVuSans-37" x="2412.361328"/>
     <use xlink:href="#DejaVuSans-32" x="2475.984375"/>
     <use xlink:href="#DejaVuSans-34" x="2539.607422"/>
    </g>
   </g>
  </g>
 </g>
 <defs>
  <clipPath id="p2c38dcd14e">
   <rect x="72" y="51.84" width="446.4" height="326.16"/>
  </clipPath>
 </defs>
</svg>
