<?xml version="1.0" encoding="utf-8" standalone="no"?>
<!DOCTYPE svg PUBLIC "-//W3C//DTD SVG 1.1//EN"
  "http://www.w3.org/Graphics/SVG/1.1/DTD/svg11.dtd">
<svg xmlns:xlink="http://www.w3.org/1999/xlink" width="576pt" height="432pt" viewBox="0 0 576 432" xmlns="http://www.w3.org/2000/svg" version="1.1">
 <metadata>
  <rdf:RDF xmlns:dc="http://purl.org/dc/elements/1.1/" xmlns:cc="http://creativecommons.org/ns#" xmlns:rdf="http://www.w3.org/1999/02/22-rdf-syntax-ns#">
   <cc:Work>
    <dc:type rdf:resource="http://purl.org/dc/dcmitype/StillImage"/>
    <dc:date>2022-04-12T10:24:54.203875</dc:date>
    <dc:format>image/svg+xml</dc:format>
    <dc:creator>
     <cc:Agent>
      <dc:title>Matplotlib v3.5.1, https://matplotlib.org/</dc:title>
     </cc:Agent>
    </dc:creator>
   </cc:Work>
  </rdf:RDF>
 </metadata>
 <defs>
  <style type="text/css">*{stroke-linejoin: round; stroke-linecap: butt}</style>
 </defs>
 <g id="figure_1">
  <g id="patch_1">
   <path d="M 0 432 
L 576 432 
L 576 0 
L 0 0 
L 0 432 
z
" style="fill: none"/>
  </g>
  <g id="axes_1">
   <g id="patch_2">
    <path d="M 72 378 
L 518.4 378 
L 518.4 51.84 
L 72 51.84 
z
" style="fill: #ffffff"/>
   </g>
   <g id="patch_3">
    <path d="M 120.404819 378 
L 123.945235 378 
L 123.945235 369.249899 
L 120.404819 369.249899 
z
" clip-path="url(#pde0af7ab46)" style="fill: #a3e301; fill-opacity: 0.5"/>
   </g>
   <g id="patch_4">
    <path d="M 123.945235 378 
L 127.48565 378 
L 127.48565 364.874849 
L 123.945235 364.874849 
z
" clip-path="url(#pde0af7ab46)" style="fill: #a3e301; fill-opacity: 0.5"/>
   </g>
   <g id="patch_5">
    <path d="M 127.48565 378 
L 131.026065 378 
L 131.026065 378 
L 127.48565 378 
z
" clip-path="url(#pde0af7ab46)" style="fill: #a3e301; fill-opacity: 0.5"/>
   </g>
   <g id="patch_6">
    <path d="M 131.026065 378 
L 134.566481 378 
L 134.566481 360.499799 
L 131.026065 360.499799 
z
" clip-path="url(#pde0af7ab46)" style="fill: #a3e301; fill-opacity: 0.5"/>
   </g>
   <g id="patch_7">
    <path d="M 134.566481 378 
L 138.106896 378 
L 138.106896 351.749698 
L 134.566481 351.749698 
z
" clip-path="url(#pde0af7ab46)" style="fill: #a3e301; fill-opacity: 0.5"/>
   </g>
   <g id="patch_8">
    <path d="M 138.106896 378 
L 141.647312 378 
L 141.647312 369.249899 
L 138.106896 369.249899 
z
" clip-path="url(#pde0af7ab46)" style="fill: #a3e301; fill-opacity: 0.5"/>
   </g>
   <g id="patch_9">
    <path d="M 141.647312 378 
L 145.187727 378 
L 145.187727 351.749698 
L 141.647312 351.749698 
z
" clip-path="url(#pde0af7ab46)" style="fill: #a3e301; fill-opacity: 0.5"/>
   </g>
   <g id="patch_10">
    <path d="M 145.187727 378 
L 148.728142 378 
L 148.728142 338.624547 
L 145.187727 338.624547 
z
" clip-path="url(#pde0af7ab46)" style="fill: #a3e301; fill-opacity: 0.5"/>
   </g>
   <g id="patch_11">
    <path d="M 148.728142 378 
L 152.268558 378 
L 152.268558 351.749698 
L 148.728142 351.749698 
z
" clip-path="url(#pde0af7ab46)" style="fill: #a3e301; fill-opacity: 0.5"/>
   </g>
   <g id="patch_12">
    <path d="M 152.268558 378 
L 155.808973 378 
L 155.808973 338.624547 
L 152.268558 338.624547 
z
" clip-path="url(#pde0af7ab46)" style="fill: #a3e301; fill-opacity: 0.5"/>
   </g>
   <g id="patch_13">
    <path d="M 155.808973 378 
L 159.349389 378 
L 159.349389 360.499799 
L 155.808973 360.499799 
z
" clip-path="url(#pde0af7ab46)" style="fill: #a3e301; fill-opacity: 0.5"/>
   </g>
   <g id="patch_14">
    <path d="M 159.349389 378 
L 162.889804 378 
L 162.889804 373.62495 
L 159.349389 373.62495 
z
" clip-path="url(#pde0af7ab46)" style="fill: #a3e301; fill-opacity: 0.5"/>
   </g>
   <g id="patch_15">
    <path d="M 162.889804 378 
L 166.430219 378 
L 166.430219 373.62495 
L 162.889804 373.62495 
z
" clip-path="url(#pde0af7ab46)" style="fill: #a3e301; fill-opacity: 0.5"/>
   </g>
   <g id="patch_16">
    <path d="M 166.430219 378 
L 169.970635 378 
L 169.970635 373.62495 
L 166.430219 373.62495 
z
" clip-path="url(#pde0af7ab46)" style="fill: #a3e301; fill-opacity: 0.5"/>
   </g>
   <g id="patch_17">
    <path d="M 169.970635 378 
L 173.51105 378 
L 173.51105 378 
L 169.970635 378 
z
" clip-path="url(#pde0af7ab46)" style="fill: #a3e301; fill-opacity: 0.5"/>
   </g>
   <g id="patch_18">
    <path d="M 173.51105 378 
L 177.051466 378 
L 177.051466 369.249899 
L 173.51105 369.249899 
z
" clip-path="url(#pde0af7ab46)" style="fill: #a3e301; fill-opacity: 0.5"/>
   </g>
   <g id="patch_19">
    <path d="M 177.051466 378 
L 180.591881 378 
L 180.591881 378 
L 177.051466 378 
z
" clip-path="url(#pde0af7ab46)" style="fill: #a3e301; fill-opacity: 0.5"/>
   </g>
   <g id="patch_20">
    <path d="M 180.591881 378 
L 184.132296 378 
L 184.132296 351.749698 
L 180.591881 351.749698 
z
" clip-path="url(#pde0af7ab46)" style="fill: #a3e301; fill-opacity: 0.5"/>
   </g>
   <g id="patch_21">
    <path d="M 184.132296 378 
L 187.672712 378 
L 187.672712 351.749698 
L 184.132296 351.749698 
z
" clip-path="url(#pde0af7ab46)" style="fill: #a3e301; fill-opacity: 0.5"/>
   </g>
   <g id="patch_22">
    <path d="M 187.672712 378 
L 191.213127 378 
L 191.213127 290.498994 
L 187.672712 290.498994 
z
" clip-path="url(#pde0af7ab46)" style="fill: #a3e301; fill-opacity: 0.5"/>
   </g>
   <g id="patch_23">
    <path d="M 191.213127 378 
L 194.753543 378 
L 194.753543 303.624145 
L 191.213127 303.624145 
z
" clip-path="url(#pde0af7ab46)" style="fill: #a3e301; fill-opacity: 0.5"/>
   </g>
   <g id="patch_24">
    <path d="M 194.753543 378 
L 198.293958 378 
L 198.293958 202.997988 
L 194.753543 202.997988 
z
" clip-path="url(#pde0af7ab46)" style="fill: #a3e301; fill-opacity: 0.5"/>
   </g>
   <g id="patch_25">
    <path d="M 198.293958 378 
L 201.834373 378 
L 201.834373 237.99839 
L 198.293958 237.99839 
z
" clip-path="url(#pde0af7ab46)" style="fill: #a3e301; fill-opacity: 0.5"/>
   </g>
   <g id="patch_26">
    <path d="M 201.834373 378 
L 205.374789 378 
L 205.374789 154.872435 
L 201.834373 154.872435 
z
" clip-path="url(#pde0af7ab46)" style="fill: #a3e301; fill-opacity: 0.5"/>
   </g>
   <g id="patch_27">
    <path d="M 205.374789 378 
L 208.915204 378 
L 208.915204 124.247082 
L 205.374789 124.247082 
z
" clip-path="url(#pde0af7ab46)" style="fill: #a3e301; fill-opacity: 0.5"/>
   </g>
   <g id="patch_28">
    <path d="M 208.915204 378 
L 212.45562 378 
L 212.45562 163.622535 
L 208.915204 163.622535 
z
" clip-path="url(#pde0af7ab46)" style="fill: #a3e301; fill-opacity: 0.5"/>
   </g>
   <g id="patch_29">
    <path d="M 212.45562 378 
L 215.996035 378 
L 215.996035 84.87163 
L 212.45562 84.87163 
z
" clip-path="url(#pde0af7ab46)" style="fill: #a3e301; fill-opacity: 0.5"/>
   </g>
   <g id="patch_30">
    <path d="M 215.996035 378 
L 219.53645 378 
L 219.53645 67.371429 
L 215.996035 67.371429 
z
" clip-path="url(#pde0af7ab46)" style="fill: #a3e301; fill-opacity: 0.5"/>
   </g>
   <g id="patch_31">
    <path d="M 219.53645 378 
L 223.076866 378 
L 223.076866 84.87163 
L 219.53645 84.87163 
z
" clip-path="url(#pde0af7ab46)" style="fill: #a3e301; fill-opacity: 0.5"/>
   </g>
   <g id="patch_32">
    <path d="M 223.076866 378 
L 226.617281 378 
L 226.617281 124.247082 
L 223.076866 124.247082 
z
" clip-path="url(#pde0af7ab46)" style="fill: #a3e301; fill-opacity: 0.5"/>
   </g>
   <g id="patch_33">
    <path d="M 226.617281 378 
L 230.157697 378 
L 230.157697 106.746881 
L 226.617281 106.746881 
z
" clip-path="url(#pde0af7ab46)" style="fill: #a3e301; fill-opacity: 0.5"/>
   </g>
   <g id="patch_34">
    <path d="M 230.157697 378 
L 233.698112 378 
L 233.698112 132.997183 
L 230.157697 132.997183 
z
" clip-path="url(#pde0af7ab46)" style="fill: #a3e301; fill-opacity: 0.5"/>
   </g>
   <g id="patch_35">
    <path d="M 233.698112 378 
L 237.238527 378 
L 237.238527 137.372233 
L 233.698112 137.372233 
z
" clip-path="url(#pde0af7ab46)" style="fill: #a3e301; fill-opacity: 0.5"/>
   </g>
   <g id="patch_36">
    <path d="M 237.238527 378 
L 240.778943 378 
L 240.778943 185.497787 
L 237.238527 185.497787 
z
" clip-path="url(#pde0af7ab46)" style="fill: #a3e301; fill-opacity: 0.5"/>
   </g>
   <g id="patch_37">
    <path d="M 240.778943 378 
L 244.319358 378 
L 244.319358 233.62334 
L 240.778943 233.62334 
z
" clip-path="url(#pde0af7ab46)" style="fill: #a3e301; fill-opacity: 0.5"/>
   </g>
   <g id="patch_38">
    <path d="M 244.319358 378 
L 247.859774 378 
L 247.859774 181.122736 
L 244.319358 181.122736 
z
" clip-path="url(#pde0af7ab46)" style="fill: #a3e301; fill-opacity: 0.5"/>
   </g>
   <g id="patch_39">
    <path d="M 247.859774 378 
L 251.400189 378 
L 251.400189 202.997988 
L 247.859774 202.997988 
z
" clip-path="url(#pde0af7ab46)" style="fill: #a3e301; fill-opacity: 0.5"/>
   </g>
   <g id="patch_40">
    <path d="M 251.400189 378 
L 254.940604 378 
L 254.940604 233.62334 
L 251.400189 233.62334 
z
" clip-path="url(#pde0af7ab46)" style="fill: #a3e301; fill-opacity: 0.5"/>
   </g>
   <g id="patch_41">
    <path d="M 254.940604 378 
L 258.48102 378 
L 258.48102 233.62334 
L 254.940604 233.62334 
z
" clip-path="url(#pde0af7ab46)" style="fill: #a3e301; fill-opacity: 0.5"/>
   </g>
   <g id="patch_42">
    <path d="M 258.48102 378 
L 262.021435 378 
L 262.021435 207.373038 
L 258.48102 207.373038 
z
" clip-path="url(#pde0af7ab46)" style="fill: #a3e301; fill-opacity: 0.5"/>
   </g>
   <g id="patch_43">
    <path d="M 262.021435 378 
L 265.561851 378 
L 265.561851 211.748089 
L 262.021435 211.748089 
z
" clip-path="url(#pde0af7ab46)" style="fill: #a3e301; fill-opacity: 0.5"/>
   </g>
   <g id="patch_44">
    <path d="M 265.561851 378 
L 269.102266 378 
L 269.102266 255.498592 
L 265.561851 255.498592 
z
" clip-path="url(#pde0af7ab46)" style="fill: #a3e301; fill-opacity: 0.5"/>
   </g>
   <g id="patch_45">
    <path d="M 269.102266 378 
L 272.642681 378 
L 272.642681 281.748893 
L 269.102266 281.748893 
z
" clip-path="url(#pde0af7ab46)" style="fill: #a3e301; fill-opacity: 0.5"/>
   </g>
   <g id="patch_46">
    <path d="M 272.642681 378 
L 276.183097 378 
L 276.183097 255.498592 
L 272.642681 255.498592 
z
" clip-path="url(#pde0af7ab46)" style="fill: #a3e301; fill-opacity: 0.5"/>
   </g>
   <g id="patch_47">
    <path d="M 276.183097 378 
L 279.723512 378 
L 279.723512 246.748491 
L 276.183097 246.748491 
z
" clip-path="url(#pde0af7ab46)" style="fill: #a3e301; fill-opacity: 0.5"/>
   </g>
   <g id="patch_48">
    <path d="M 279.723512 378 
L 283.263928 378 
L 283.263928 237.99839 
L 279.723512 237.99839 
z
" clip-path="url(#pde0af7ab46)" style="fill: #a3e301; fill-opacity: 0.5"/>
   </g>
   <g id="patch_49">
    <path d="M 283.263928 378 
L 286.804343 378 
L 286.804343 277.373843 
L 283.263928 277.373843 
z
" clip-path="url(#pde0af7ab46)" style="fill: #a3e301; fill-opacity: 0.5"/>
   </g>
   <g id="patch_50">
    <path d="M 286.804343 378 
L 290.344758 378 
L 290.344758 286.123944 
L 286.804343 286.123944 
z
" clip-path="url(#pde0af7ab46)" style="fill: #a3e301; fill-opacity: 0.5"/>
   </g>
   <g id="patch_51">
    <path d="M 290.344758 378 
L 293.885174 378 
L 293.885174 281.748893 
L 290.344758 281.748893 
z
" clip-path="url(#pde0af7ab46)" style="fill: #a3e301; fill-opacity: 0.5"/>
   </g>
   <g id="patch_52">
    <path d="M 293.885174 378 
L 297.425589 378 
L 297.425589 299.249095 
L 293.885174 299.249095 
z
" clip-path="url(#pde0af7ab46)" style="fill: #a3e301; fill-opacity: 0.5"/>
   </g>
   <g id="patch_53">
    <path d="M 297.425589 378 
L 300.966005 378 
L 300.966005 307.999195 
L 297.425589 307.999195 
z
" clip-path="url(#pde0af7ab46)" style="fill: #a3e301; fill-opacity: 0.5"/>
   </g>
   <g id="patch_54">
    <path d="M 300.966005 378 
L 304.50642 378 
L 304.50642 299.249095 
L 300.966005 299.249095 
z
" clip-path="url(#pde0af7ab46)" style="fill: #a3e301; fill-opacity: 0.5"/>
   </g>
   <g id="patch_55">
    <path d="M 304.50642 378 
L 308.046835 378 
L 308.046835 321.124346 
L 304.50642 321.124346 
z
" clip-path="url(#pde0af7ab46)" style="fill: #a3e301; fill-opacity: 0.5"/>
   </g>
   <g id="patch_56">
    <path d="M 308.046835 378 
L 311.587251 378 
L 311.587251 325.499396 
L 308.046835 325.499396 
z
" clip-path="url(#pde0af7ab46)" style="fill: #a3e301; fill-opacity: 0.5"/>
   </g>
   <g id="patch_57">
    <path d="M 311.587251 378 
L 315.127666 378 
L 315.127666 299.249095 
L 311.587251 299.249095 
z
" clip-path="url(#pde0af7ab46)" style="fill: #a3e301; fill-opacity: 0.5"/>
   </g>
   <g id="patch_58">
    <path d="M 315.127666 378 
L 318.668082 378 
L 318.668082 264.248692 
L 315.127666 264.248692 
z
" clip-path="url(#pde0af7ab46)" style="fill: #a3e301; fill-opacity: 0.5"/>
   </g>
   <g id="patch_59">
    <path d="M 318.668082 378 
L 322.208497 378 
L 322.208497 299.249095 
L 318.668082 299.249095 
z
" clip-path="url(#pde0af7ab46)" style="fill: #a3e301; fill-opacity: 0.5"/>
   </g>
   <g id="patch_60">
    <path d="M 322.208497 378 
L 325.748912 378 
L 325.748912 312.374245 
L 322.208497 312.374245 
z
" clip-path="url(#pde0af7ab46)" style="fill: #a3e301; fill-opacity: 0.5"/>
   </g>
   <g id="patch_61">
    <path d="M 325.748912 378 
L 329.289328 378 
L 329.289328 316.749296 
L 325.748912 316.749296 
z
" clip-path="url(#pde0af7ab46)" style="fill: #a3e301; fill-opacity: 0.5"/>
   </g>
   <g id="patch_62">
    <path d="M 329.289328 378 
L 332.829743 378 
L 332.829743 325.499396 
L 329.289328 325.499396 
z
" clip-path="url(#pde0af7ab46)" style="fill: #a3e301; fill-opacity: 0.5"/>
   </g>
   <g id="patch_63">
    <path d="M 332.829743 378 
L 336.370159 378 
L 336.370159 286.123944 
L 332.829743 286.123944 
z
" clip-path="url(#pde0af7ab46)" style="fill: #a3e301; fill-opacity: 0.5"/>
   </g>
   <g id="patch_64">
    <path d="M 336.370159 378 
L 339.910574 378 
L 339.910574 316.749296 
L 336.370159 316.749296 
z
" clip-path="url(#pde0af7ab46)" style="fill: #a3e301; fill-opacity: 0.5"/>
   </g>
   <g id="patch_65">
    <path d="M 339.910574 378 
L 343.450989 378 
L 343.450989 325.499396 
L 339.910574 325.499396 
z
" clip-path="url(#pde0af7ab46)" style="fill: #a3e301; fill-opacity: 0.5"/>
   </g>
   <g id="patch_66">
    <path d="M 343.450989 378 
L 346.991405 378 
L 346.991405 299.249095 
L 343.450989 299.249095 
z
" clip-path="url(#pde0af7ab46)" style="fill: #a3e301; fill-opacity: 0.5"/>
   </g>
   <g id="patch_67">
    <path d="M 346.991405 378 
L 350.53182 378 
L 350.53182 277.373843 
L 346.991405 277.373843 
z
" clip-path="url(#pde0af7ab46)" style="fill: #a3e301; fill-opacity: 0.5"/>
   </g>
   <g id="patch_68">
    <path d="M 350.53182 378 
L 354.072236 378 
L 354.072236 303.624145 
L 350.53182 303.624145 
z
" clip-path="url(#pde0af7ab46)" style="fill: #a3e301; fill-opacity: 0.5"/>
   </g>
   <g id="patch_69">
    <path d="M 354.072236 378 
L 357.612651 378 
L 357.612651 303.624145 
L 354.072236 303.624145 
z
" clip-path="url(#pde0af7ab46)" style="fill: #a3e301; fill-opacity: 0.5"/>
   </g>
   <g id="patch_70">
    <path d="M 357.612651 378 
L 361.153066 378 
L 361.153066 312.374245 
L 357.612651 312.374245 
z
" clip-path="url(#pde0af7ab46)" style="fill: #a3e301; fill-opacity: 0.5"/>
   </g>
   <g id="patch_71">
    <path d="M 361.153066 378 
L 364.693482 378 
L 364.693482 321.124346 
L 361.153066 321.124346 
z
" clip-path="url(#pde0af7ab46)" style="fill: #a3e301; fill-opacity: 0.5"/>
   </g>
   <g id="patch_72">
    <path d="M 364.693482 378 
L 368.233897 378 
L 368.233897 307.999195 
L 364.693482 307.999195 
z
" clip-path="url(#pde0af7ab46)" style="fill: #a3e301; fill-opacity: 0.5"/>
   </g>
   <g id="patch_73">
    <path d="M 368.233897 378 
L 371.774313 378 
L 371.774313 299.249095 
L 368.233897 299.249095 
z
" clip-path="url(#pde0af7ab46)" style="fill: #a3e301; fill-opacity: 0.5"/>
   </g>
   <g id="patch_74">
    <path d="M 371.774313 378 
L 375.314728 378 
L 375.314728 277.373843 
L 371.774313 277.373843 
z
" clip-path="url(#pde0af7ab46)" style="fill: #a3e301; fill-opacity: 0.5"/>
   </g>
   <g id="patch_75">
    <path d="M 375.314728 378 
L 378.855143 378 
L 378.855143 277.373843 
L 375.314728 277.373843 
z
" clip-path="url(#pde0af7ab46)" style="fill: #a3e301; fill-opacity: 0.5"/>
   </g>
   <g id="patch_76">
    <path d="M 378.855143 378 
L 382.395559 378 
L 382.395559 290.498994 
L 378.855143 290.498994 
z
" clip-path="url(#pde0af7ab46)" style="fill: #a3e301; fill-opacity: 0.5"/>
   </g>
   <g id="patch_77">
    <path d="M 382.395559 378 
L 385.935974 378 
L 385.935974 264.248692 
L 382.395559 264.248692 
z
" clip-path="url(#pde0af7ab46)" style="fill: #a3e301; fill-opacity: 0.5"/>
   </g>
   <g id="patch_78">
    <path d="M 385.935974 378 
L 389.47639 378 
L 389.47639 312.374245 
L 385.935974 312.374245 
z
" clip-path="url(#pde0af7ab46)" style="fill: #a3e301; fill-opacity: 0.5"/>
   </g>
   <g id="patch_79">
    <path d="M 389.47639 378 
L 393.016805 378 
L 393.016805 325.499396 
L 389.47639 325.499396 
z
" clip-path="url(#pde0af7ab46)" style="fill: #a3e301; fill-opacity: 0.5"/>
   </g>
   <g id="patch_80">
    <path d="M 393.016805 378 
L 396.55722 378 
L 396.55722 286.123944 
L 393.016805 286.123944 
z
" clip-path="url(#pde0af7ab46)" style="fill: #a3e301; fill-opacity: 0.5"/>
   </g>
   <g id="patch_81">
    <path d="M 396.55722 378 
L 400.097636 378 
L 400.097636 303.624145 
L 396.55722 303.624145 
z
" clip-path="url(#pde0af7ab46)" style="fill: #a3e301; fill-opacity: 0.5"/>
   </g>
   <g id="patch_82">
    <path d="M 400.097636 378 
L 403.638051 378 
L 403.638051 321.124346 
L 400.097636 321.124346 
z
" clip-path="url(#pde0af7ab46)" style="fill: #a3e301; fill-opacity: 0.5"/>
   </g>
   <g id="patch_83">
    <path d="M 403.638051 378 
L 407.178467 378 
L 407.178467 334.249497 
L 403.638051 334.249497 
z
" clip-path="url(#pde0af7ab46)" style="fill: #a3e301; fill-opacity: 0.5"/>
   </g>
   <g id="patch_84">
    <path d="M 407.178467 378 
L 410.718882 378 
L 410.718882 338.624547 
L 407.178467 338.624547 
z
" clip-path="url(#pde0af7ab46)" style="fill: #a3e301; fill-opacity: 0.5"/>
   </g>
   <g id="patch_85">
    <path d="M 410.718882 378 
L 414.259297 378 
L 414.259297 321.124346 
L 410.718882 321.124346 
z
" clip-path="url(#pde0af7ab46)" style="fill: #a3e301; fill-opacity: 0.5"/>
   </g>
   <g id="patch_86">
    <path d="M 414.259297 378 
L 417.799713 378 
L 417.799713 321.124346 
L 414.259297 321.124346 
z
" clip-path="url(#pde0af7ab46)" style="fill: #a3e301; fill-opacity: 0.5"/>
   </g>
   <g id="patch_87">
    <path d="M 417.799713 378 
L 421.340128 378 
L 421.340128 272.998793 
L 417.799713 272.998793 
z
" clip-path="url(#pde0af7ab46)" style="fill: #a3e301; fill-opacity: 0.5"/>
   </g>
   <g id="patch_88">
    <path d="M 421.340128 378 
L 424.880544 378 
L 424.880544 281.748893 
L 421.340128 281.748893 
z
" clip-path="url(#pde0af7ab46)" style="fill: #a3e301; fill-opacity: 0.5"/>
   </g>
   <g id="patch_89">
    <path d="M 424.880544 378 
L 428.420959 378 
L 428.420959 290.498994 
L 424.880544 290.498994 
z
" clip-path="url(#pde0af7ab46)" style="fill: #a3e301; fill-opacity: 0.5"/>
   </g>
   <g id="patch_90">
    <path d="M 428.420959 378 
L 431.961374 378 
L 431.961374 242.373441 
L 428.420959 242.373441 
z
" clip-path="url(#pde0af7ab46)" style="fill: #a3e301; fill-opacity: 0.5"/>
   </g>
   <g id="patch_91">
    <path d="M 431.961374 378 
L 435.50179 378 
L 435.50179 272.998793 
L 431.961374 272.998793 
z
" clip-path="url(#pde0af7ab46)" style="fill: #a3e301; fill-opacity: 0.5"/>
   </g>
   <g id="patch_92">
    <path d="M 435.50179 378 
L 439.042205 378 
L 439.042205 220.498189 
L 435.50179 220.498189 
z
" clip-path="url(#pde0af7ab46)" style="fill: #a3e301; fill-opacity: 0.5"/>
   </g>
   <g id="patch_93">
    <path d="M 439.042205 378 
L 442.582621 378 
L 442.582621 220.498189 
L 439.042205 220.498189 
z
" clip-path="url(#pde0af7ab46)" style="fill: #a3e301; fill-opacity: 0.5"/>
   </g>
   <g id="patch_94">
    <path d="M 442.582621 378 
L 446.123036 378 
L 446.123036 137.372233 
L 442.582621 137.372233 
z
" clip-path="url(#pde0af7ab46)" style="fill: #a3e301; fill-opacity: 0.5"/>
   </g>
   <g id="patch_95">
    <path d="M 446.123036 378 
L 449.663451 378 
L 449.663451 163.622535 
L 446.123036 163.622535 
z
" clip-path="url(#pde0af7ab46)" style="fill: #a3e301; fill-opacity: 0.5"/>
   </g>
   <g id="patch_96">
    <path d="M 449.663451 378 
L 453.203867 378 
L 453.203867 163.622535 
L 449.663451 163.622535 
z
" clip-path="url(#pde0af7ab46)" style="fill: #a3e301; fill-opacity: 0.5"/>
   </g>
   <g id="patch_97">
    <path d="M 453.203867 378 
L 456.744282 378 
L 456.744282 229.24829 
L 453.203867 229.24829 
z
" clip-path="url(#pde0af7ab46)" style="fill: #a3e301; fill-opacity: 0.5"/>
   </g>
   <g id="patch_98">
    <path d="M 456.744282 378 
L 460.284698 378 
L 460.284698 242.373441 
L 456.744282 242.373441 
z
" clip-path="url(#pde0af7ab46)" style="fill: #a3e301; fill-opacity: 0.5"/>
   </g>
   <g id="patch_99">
    <path d="M 460.284698 378 
L 463.825113 378 
L 463.825113 299.249095 
L 460.284698 299.249095 
z
" clip-path="url(#pde0af7ab46)" style="fill: #a3e301; fill-opacity: 0.5"/>
   </g>
   <g id="patch_100">
    <path d="M 463.825113 378 
L 467.365528 378 
L 467.365528 351.749698 
L 463.825113 351.749698 
z
" clip-path="url(#pde0af7ab46)" style="fill: #a3e301; fill-opacity: 0.5"/>
   </g>
   <g id="patch_101">
    <path d="M 467.365528 378 
L 470.905944 378 
L 470.905944 378 
L 467.365528 378 
z
" clip-path="url(#pde0af7ab46)" style="fill: #a3e301; fill-opacity: 0.5"/>
   </g>
   <g id="patch_102">
    <path d="M 470.905944 378 
L 474.446359 378 
L 474.446359 364.874849 
L 470.905944 364.874849 
z
" clip-path="url(#pde0af7ab46)" style="fill: #a3e301; fill-opacity: 0.5"/>
   </g>
   <g id="patch_103">
    <path d="M 75.235058 378 
L 77.44559 378 
L 77.44559 360.671356 
L 75.235058 360.671356 
L 75.235058 378 
z
" clip-path="url(#pde0af7ab46)" style="fill: none"/>
   </g>
   <g id="patch_104">
    <path d="M 77.44559 378 
L 79.656122 378 
L 79.656122 346.327752 
L 77.44559 346.327752 
L 77.44559 378 
z
" clip-path="url(#pde0af7ab46)" style="fill: none"/>
   </g>
   <g id="patch_105">
    <path d="M 79.656122 378 
L 81.866654 378 
L 81.866654 341.738079 
L 79.656122 341.738079 
L 79.656122 378 
z
" clip-path="url(#pde0af7ab46)" style="fill: none"/>
   </g>
   <g id="patch_106">
    <path d="M 81.866654 378 
L 84.077186 378 
L 84.077186 338.977268 
L 81.866654 338.977268 
L 81.866654 378 
z
" clip-path="url(#pde0af7ab46)" style="fill: none"/>
   </g>
   <g id="patch_107">
    <path d="M 84.077186 378 
L 86.287718 378 
L 86.287718 337.694962 
L 84.077186 337.694962 
L 84.077186 378 
z
" clip-path="url(#pde0af7ab46)" style="fill: none"/>
   </g>
   <g id="patch_108">
    <path d="M 86.287718 378 
L 88.49825 378 
L 88.49825 335.950185 
L 86.287718 335.950185 
L 86.287718 378 
z
" clip-path="url(#pde0af7ab46)" style="fill: none"/>
   </g>
   <g id="patch_109">
    <path d="M 88.49825 378 
L 90.708782 378 
L 90.708782 334.646858 
L 88.49825 334.646858 
L 88.49825 378 
z
" clip-path="url(#pde0af7ab46)" style="fill: none"/>
   </g>
   <g id="patch_110">
    <path d="M 90.708782 378 
L 92.919314 378 
L 92.919314 335.71895 
L 90.708782 335.71895 
L 90.708782 378 
z
" clip-path="url(#pde0af7ab46)" style="fill: none"/>
   </g>
   <g id="patch_111">
    <path d="M 92.919314 378 
L 95.129846 378 
L 95.129846 333.967166 
L 92.919314 333.967166 
L 92.919314 378 
z
" clip-path="url(#pde0af7ab46)" style="fill: none"/>
   </g>
   <g id="patch_112">
    <path d="M 95.129846 378 
L 97.340378 378 
L 97.340378 333.539731 
L 95.129846 333.539731 
L 95.129846 378 
z
" clip-path="url(#pde0af7ab46)" style="fill: none"/>
   </g>
   <g id="patch_113">
    <path d="M 97.340378 378 
L 99.550911 378 
L 99.550911 333.763959 
L 97.340378 333.763959 
L 97.340378 378 
z
" clip-path="url(#pde0af7ab46)" style="fill: none"/>
   </g>
   <g id="patch_114">
    <path d="M 99.550911 378 
L 101.761443 378 
L 101.761443 332.103269 
L 99.550911 332.103269 
L 99.550911 378 
z
" clip-path="url(#pde0af7ab46)" style="fill: none"/>
   </g>
   <g id="patch_115">
    <path d="M 101.761443 378 
L 103.971975 378 
L 103.971975 330.792934 
L 101.761443 330.792934 
L 101.761443 378 
z
" clip-path="url(#pde0af7ab46)" style="fill: none"/>
   </g>
   <g id="patch_116">
    <path d="M 103.971975 378 
L 106.182507 378 
L 106.182507 331.872033 
L 103.971975 331.872033 
L 103.971975 378 
z
" clip-path="url(#pde0af7ab46)" style="fill: none"/>
   </g>
   <g id="patch_117">
    <path d="M 106.182507 378 
L 108.393039 378 
L 108.393039 331.724883 
L 106.182507 331.724883 
L 106.182507 378 
z
" clip-path="url(#pde0af7ab46)" style="fill: none"/>
   </g>
   <g id="patch_118">
    <path d="M 108.393039 378 
L 110.603571 378 
L 110.603571 329.510629 
L 108.393039 329.510629 
L 108.393039 378 
z
" clip-path="url(#pde0af7ab46)" style="fill: none"/>
   </g>
   <g id="patch_119">
    <path d="M 110.603571 378 
L 112.814103 378 
L 112.814103 328.844951 
L 110.603571 328.844951 
L 110.603571 378 
z
" clip-path="url(#pde0af7ab46)" style="fill: none"/>
   </g>
   <g id="patch_120">
    <path d="M 112.814103 378 
L 115.024635 378 
L 115.024635 328.354452 
L 112.814103 328.354452 
L 112.814103 378 
z
" clip-path="url(#pde0af7ab46)" style="fill: none"/>
   </g>
   <g id="patch_121">
    <path d="M 115.024635 378 
L 117.235167 378 
L 117.235167 328.277373 
L 115.024635 328.277373 
L 115.024635 378 
z
" clip-path="url(#pde0af7ab46)" style="fill: none"/>
   </g>
   <g id="patch_122">
    <path d="M 117.235167 378 
L 119.445699 378 
L 119.445699 327.373453 
L 117.235167 327.373453 
L 117.235167 378 
z
" clip-path="url(#pde0af7ab46)" style="fill: none"/>
   </g>
   <g id="patch_123">
    <path d="M 119.445699 378 
L 121.656231 378 
L 121.656231 326.308368 
L 119.445699 326.308368 
L 119.445699 378 
z
" clip-path="url(#pde0af7ab46)" style="fill: none"/>
   </g>
   <g id="patch_124">
    <path d="M 121.656231 378 
L 123.866763 378 
L 123.866763 326.805875 
L 121.656231 326.805875 
L 121.656231 378 
z
" clip-path="url(#pde0af7ab46)" style="fill: none"/>
   </g>
   <g id="patch_125">
    <path d="M 123.866763 378 
L 126.077295 378 
L 126.077295 327.289367 
L 123.866763 327.289367 
L 123.866763 378 
z
" clip-path="url(#pde0af7ab46)" style="fill: none"/>
   </g>
   <g id="patch_126">
    <path d="M 126.077295 378 
L 128.287827 378 
L 128.287827 324.864899 
L 126.077295 324.864899 
L 126.077295 378 
z
" clip-path="url(#pde0af7ab46)" style="fill: none"/>
   </g>
   <g id="patch_127">
    <path d="M 128.287827 378 
L 130.498359 378 
L 130.498359 324.661692 
L 128.287827 324.661692 
L 128.287827 378 
z
" clip-path="url(#pde0af7ab46)" style="fill: none"/>
   </g>
   <g id="patch_128">
    <path d="M 130.498359 378 
L 132.708891 378 
L 132.708891 323.302308 
L 130.498359 323.302308 
L 130.498359 378 
z
" clip-path="url(#pde0af7ab46)" style="fill: none"/>
   </g>
   <g id="patch_129">
    <path d="M 132.708891 378 
L 134.919423 378 
L 134.919423 323.827843 
L 132.708891 323.827843 
L 132.708891 378 
z
" clip-path="url(#pde0af7ab46)" style="fill: none"/>
   </g>
   <g id="patch_130">
    <path d="M 134.919423 378 
L 137.129955 378 
L 137.129955 322.566558 
L 134.919423 322.566558 
L 134.919423 378 
z
" clip-path="url(#pde0af7ab46)" style="fill: none"/>
   </g>
   <g id="patch_131">
    <path d="M 137.129955 378 
L 139.340487 378 
L 139.340487 323.050051 
L 137.129955 323.050051 
L 137.129955 378 
z
" clip-path="url(#pde0af7ab46)" style="fill: none"/>
   </g>
   <g id="patch_132">
    <path d="M 139.340487 378 
L 141.551019 378 
L 141.551019 320.520475 
L 139.340487 320.520475 
L 139.340487 378 
z
" clip-path="url(#pde0af7ab46)" style="fill: none"/>
   </g>
   <g id="patch_133">
    <path d="M 141.551019 378 
L 143.761551 378 
L 143.761551 322.188173 
L 141.551019 322.188173 
L 141.551019 378 
z
" clip-path="url(#pde0af7ab46)" style="fill: none"/>
   </g>
   <g id="patch_134">
    <path d="M 143.761551 378 
L 145.972083 378 
L 145.972083 319.980926 
L 143.761551 319.980926 
L 143.761551 378 
z
" clip-path="url(#pde0af7ab46)" style="fill: none"/>
   </g>
   <g id="patch_135">
    <path d="M 145.972083 378 
L 148.182615 378 
L 148.182615 318.89482 
L 145.972083 318.89482 
L 145.972083 378 
z
" clip-path="url(#pde0af7ab46)" style="fill: none"/>
   </g>
   <g id="patch_136">
    <path d="M 148.182615 378 
L 150.393147 378 
L 150.393147 318.761684 
L 148.182615 318.761684 
L 148.182615 378 
z
" clip-path="url(#pde0af7ab46)" style="fill: none"/>
   </g>
   <g id="patch_137">
    <path d="M 150.393147 378 
L 152.603679 378 
L 152.603679 317.493393 
L 150.393147 317.493393 
L 150.393147 378 
z
" clip-path="url(#pde0af7ab46)" style="fill: none"/>
   </g>
   <g id="patch_138">
    <path d="M 152.603679 378 
L 154.814211 378 
L 154.814211 317.129022 
L 152.603679 317.129022 
L 152.603679 378 
z
" clip-path="url(#pde0af7ab46)" style="fill: none"/>
   </g>
   <g id="patch_139">
    <path d="M 154.814211 378 
L 157.024743 378 
L 157.024743 315.895766 
L 154.814211 315.895766 
L 154.814211 378 
z
" clip-path="url(#pde0af7ab46)" style="fill: none"/>
   </g>
   <g id="patch_140">
    <path d="M 157.024743 378 
L 159.235276 378 
L 159.235276 316.070945 
L 157.024743 316.070945 
L 157.024743 378 
z
" clip-path="url(#pde0af7ab46)" style="fill: none"/>
   </g>
   <g id="patch_141">
    <path d="M 159.235276 378 
L 161.445808 378 
L 161.445808 315.944816 
L 159.235276 315.944816 
L 159.235276 378 
z
" clip-path="url(#pde0af7ab46)" style="fill: none"/>
   </g>
   <g id="patch_142">
    <path d="M 161.445808 378 
L 163.65634 378 
L 163.65634 313.443269 
L 161.445808 313.443269 
L 161.445808 378 
z
" clip-path="url(#pde0af7ab46)" style="fill: none"/>
   </g>
   <g id="patch_143">
    <path d="M 163.65634 378 
L 165.866872 378 
L 165.866872 314.291132 
L 163.65634 314.291132 
L 163.65634 378 
z
" clip-path="url(#pde0af7ab46)" style="fill: none"/>
   </g>
   <g id="patch_144">
    <path d="M 165.866872 378 
L 168.077404 378 
L 168.077404 313.036855 
L 165.866872 313.036855 
L 165.866872 378 
z
" clip-path="url(#pde0af7ab46)" style="fill: none"/>
   </g>
   <g id="patch_145">
    <path d="M 168.077404 378 
L 170.287936 378 
L 170.287936 312.055857 
L 168.077404 312.055857 
L 168.077404 378 
z
" clip-path="url(#pde0af7ab46)" style="fill: none"/>
   </g>
   <g id="patch_146">
    <path d="M 170.287936 378 
L 172.498468 378 
L 172.498468 311.761557 
L 170.287936 311.761557 
L 170.287936 378 
z
" clip-path="url(#pde0af7ab46)" style="fill: none"/>
   </g>
   <g id="patch_147">
    <path d="M 172.498468 378 
L 174.709 378 
L 174.709 310.388159 
L 172.498468 310.388159 
L 172.498468 378 
z
" clip-path="url(#pde0af7ab46)" style="fill: none"/>
   </g>
   <g id="patch_148">
    <path d="M 174.709 378 
L 176.919532 378 
L 176.919532 310.051816 
L 174.709 310.051816 
L 174.709 378 
z
" clip-path="url(#pde0af7ab46)" style="fill: none"/>
   </g>
   <g id="patch_149">
    <path d="M 176.919532 378 
L 179.130064 378 
L 179.130064 308.11084 
L 176.919532 308.11084 
L 176.919532 378 
z
" clip-path="url(#pde0af7ab46)" style="fill: none"/>
   </g>
   <g id="patch_150">
    <path d="M 179.130064 378 
L 181.340596 378 
L 181.340596 307.543262 
L 179.130064 307.543262 
L 179.130064 378 
z
" clip-path="url(#pde0af7ab46)" style="fill: none"/>
   </g>
   <g id="patch_151">
    <path d="M 181.340596 378 
L 183.551128 378 
L 183.551128 306.457156 
L 181.340596 306.457156 
L 181.340596 378 
z
" clip-path="url(#pde0af7ab46)" style="fill: none"/>
   </g>
   <g id="patch_152">
    <path d="M 183.551128 378 
L 185.76166 378 
L 185.76166 306.169864 
L 183.551128 306.169864 
L 183.551128 378 
z
" clip-path="url(#pde0af7ab46)" style="fill: none"/>
   </g>
   <g id="patch_153">
    <path d="M 185.76166 378 
L 187.972192 378 
L 187.972192 303.899552 
L 185.76166 303.899552 
L 185.76166 378 
z
" clip-path="url(#pde0af7ab46)" style="fill: none"/>
   </g>
   <g id="patch_154">
    <path d="M 187.972192 378 
L 190.182724 378 
L 190.182724 304.256916 
L 187.972192 304.256916 
L 187.972192 378 
z
" clip-path="url(#pde0af7ab46)" style="fill: none"/>
   </g>
   <g id="patch_155">
    <path d="M 190.182724 378 
L 192.393256 378 
L 192.393256 302.280904 
L 190.182724 302.280904 
L 190.182724 378 
z
" clip-path="url(#pde0af7ab46)" style="fill: none"/>
   </g>
   <g id="patch_156">
    <path d="M 192.393256 378 
L 194.603788 378 
L 194.603788 301.159762 
L 192.393256 301.159762 
L 192.393256 378 
z
" clip-path="url(#pde0af7ab46)" style="fill: none"/>
   </g>
   <g id="patch_157">
    <path d="M 194.603788 378 
L 196.81432 378 
L 196.81432 299.260829 
L 194.603788 299.260829 
L 194.603788 378 
z
" clip-path="url(#pde0af7ab46)" style="fill: none"/>
   </g>
   <g id="patch_158">
    <path d="M 196.81432 378 
L 199.024852 378 
L 199.024852 298.973536 
L 196.81432 298.973536 
L 196.81432 378 
z
" clip-path="url(#pde0af7ab46)" style="fill: none"/>
   </g>
   <g id="patch_159">
    <path d="M 199.024852 378 
L 201.235384 378 
L 201.235384 298.307859 
L 199.024852 298.307859 
L 199.024852 378 
z
" clip-path="url(#pde0af7ab46)" style="fill: none"/>
   </g>
   <g id="patch_160">
    <path d="M 201.235384 378 
L 203.445916 378 
L 203.445916 296.850375 
L 201.235384 296.850375 
L 201.235384 378 
z
" clip-path="url(#pde0af7ab46)" style="fill: none"/>
   </g>
   <g id="patch_161">
    <path d="M 203.445916 378 
L 205.656448 378 
L 205.656448 296.051561 
L 203.445916 296.051561 
L 203.445916 378 
z
" clip-path="url(#pde0af7ab46)" style="fill: none"/>
   </g>
   <g id="patch_162">
    <path d="M 205.656448 378 
L 207.86698 378 
L 207.86698 295.497998 
L 205.656448 295.497998 
L 205.656448 378 
z
" clip-path="url(#pde0af7ab46)" style="fill: none"/>
   </g>
   <g id="patch_163">
    <path d="M 207.86698 378 
L 210.077512 378 
L 210.077512 293.970442 
L 207.86698 293.970442 
L 207.86698 378 
z
" clip-path="url(#pde0af7ab46)" style="fill: none"/>
   </g>
   <g id="patch_164">
    <path d="M 210.077512 378 
L 212.288044 378 
L 212.288044 292.498944 
L 210.077512 292.498944 
L 210.077512 378 
z
" clip-path="url(#pde0af7ab46)" style="fill: none"/>
   </g>
   <g id="patch_165">
    <path d="M 212.288044 378 
L 214.498576 378 
L 214.498576 291.04146 
L 212.288044 291.04146 
L 212.288044 378 
z
" clip-path="url(#pde0af7ab46)" style="fill: none"/>
   </g>
   <g id="patch_166">
    <path d="M 214.498576 378 
L 216.709109 378 
L 216.709109 290.670082 
L 214.498576 290.670082 
L 214.498576 378 
z
" clip-path="url(#pde0af7ab46)" style="fill: none"/>
   </g>
   <g id="patch_167">
    <path d="M 216.709109 378 
L 218.919641 378 
L 218.919641 289.661054 
L 216.709109 289.661054 
L 216.709109 378 
z
" clip-path="url(#pde0af7ab46)" style="fill: none"/>
   </g>
   <g id="patch_168">
    <path d="M 218.919641 378 
L 221.130173 378 
L 221.130173 288.511884 
L 218.919641 288.511884 
L 218.919641 378 
z
" clip-path="url(#pde0af7ab46)" style="fill: none"/>
   </g>
   <g id="patch_169">
    <path d="M 221.130173 378 
L 223.340705 378 
L 223.340705 286.816158 
L 221.130173 286.816158 
L 221.130173 378 
z
" clip-path="url(#pde0af7ab46)" style="fill: none"/>
   </g>
   <g id="patch_170">
    <path d="M 223.340705 378 
L 225.551237 378 
L 225.551237 283.284562 
L 223.340705 283.284562 
L 223.340705 378 
z
" clip-path="url(#pde0af7ab46)" style="fill: none"/>
   </g>
   <g id="patch_171">
    <path d="M 225.551237 378 
L 227.761769 378 
L 227.761769 282.597863 
L 225.551237 282.597863 
L 225.551237 378 
z
" clip-path="url(#pde0af7ab46)" style="fill: none"/>
   </g>
   <g id="patch_172">
    <path d="M 227.761769 378 
L 229.972301 378 
L 229.972301 281.771021 
L 227.761769 281.771021 
L 227.761769 378 
z
" clip-path="url(#pde0af7ab46)" style="fill: none"/>
   </g>
   <g id="patch_173">
    <path d="M 229.972301 378 
L 232.182833 378 
L 232.182833 279.129331 
L 229.972301 279.129331 
L 229.972301 378 
z
" clip-path="url(#pde0af7ab46)" style="fill: none"/>
   </g>
   <g id="patch_174">
    <path d="M 232.182833 378 
L 234.393365 378 
L 234.393365 278.218404 
L 232.182833 278.218404 
L 232.182833 378 
z
" clip-path="url(#pde0af7ab46)" style="fill: none"/>
   </g>
   <g id="patch_175">
    <path d="M 234.393365 378 
L 236.603897 378 
L 236.603897 276.004149 
L 234.393365 276.004149 
L 234.393365 378 
z
" clip-path="url(#pde0af7ab46)" style="fill: none"/>
   </g>
   <g id="patch_176">
    <path d="M 236.603897 378 
L 238.814429 378 
L 238.814429 274.819943 
L 236.603897 274.819943 
L 236.603897 378 
z
" clip-path="url(#pde0af7ab46)" style="fill: none"/>
   </g>
   <g id="patch_177">
    <path d="M 238.814429 378 
L 241.024961 378 
L 241.024961 274.988115 
L 238.814429 274.988115 
L 238.814429 378 
z
" clip-path="url(#pde0af7ab46)" style="fill: none"/>
   </g>
   <g id="patch_178">
    <path d="M 241.024961 378 
L 243.235493 378 
L 243.235493 273.285381 
L 241.024961 273.285381 
L 241.024961 378 
z
" clip-path="url(#pde0af7ab46)" style="fill: none"/>
   </g>
   <g id="patch_179">
    <path d="M 243.235493 378 
L 245.446025 378 
L 245.446025 270.741791 
L 243.235493 270.741791 
L 243.235493 378 
z
" clip-path="url(#pde0af7ab46)" style="fill: none"/>
   </g>
   <g id="patch_180">
    <path d="M 245.446025 378 
L 247.656557 378 
L 247.656557 269.501528 
L 245.446025 269.501528 
L 245.446025 378 
z
" clip-path="url(#pde0af7ab46)" style="fill: none"/>
   </g>
   <g id="patch_181">
    <path d="M 247.656557 378 
L 249.867089 378 
L 249.867089 267.602595 
L 247.656557 267.602595 
L 247.656557 378 
z
" clip-path="url(#pde0af7ab46)" style="fill: none"/>
   </g>
   <g id="patch_182">
    <path d="M 249.867089 378 
L 252.077621 378 
L 252.077621 264.393327 
L 249.867089 264.393327 
L 249.867089 378 
z
" clip-path="url(#pde0af7ab46)" style="fill: none"/>
   </g>
   <g id="patch_183">
    <path d="M 252.077621 378 
L 254.288153 378 
L 254.288153 263.979906 
L 252.077621 263.979906 
L 252.077621 378 
z
" clip-path="url(#pde0af7ab46)" style="fill: none"/>
   </g>
   <g id="patch_184">
    <path d="M 254.288153 378 
L 256.498685 378 
L 256.498685 262.123016 
L 254.288153 262.123016 
L 254.288153 378 
z
" clip-path="url(#pde0af7ab46)" style="fill: none"/>
   </g>
   <g id="patch_185">
    <path d="M 256.498685 378 
L 258.709217 378 
L 258.709217 259.971825 
L 256.498685 259.971825 
L 256.498685 378 
z
" clip-path="url(#pde0af7ab46)" style="fill: none"/>
   </g>
   <g id="patch_186">
    <path d="M 258.709217 378 
L 260.919749 378 
L 260.919749 256.790586 
L 258.709217 256.790586 
L 258.709217 378 
z
" clip-path="url(#pde0af7ab46)" style="fill: none"/>
   </g>
   <g id="patch_187">
    <path d="M 260.919749 378 
L 263.130281 378 
L 263.130281 255.669445 
L 260.919749 255.669445 
L 260.919749 378 
z
" clip-path="url(#pde0af7ab46)" style="fill: none"/>
   </g>
   <g id="patch_188">
    <path d="M 263.130281 378 
L 265.340813 378 
L 265.340813 252.144856 
L 263.130281 252.144856 
L 263.130281 378 
z
" clip-path="url(#pde0af7ab46)" style="fill: none"/>
   </g>
   <g id="patch_189">
    <path d="M 265.340813 378 
L 267.551345 378 
L 267.551345 251.325021 
L 265.340813 251.325021 
L 265.340813 378 
z
" clip-path="url(#pde0af7ab46)" style="fill: none"/>
   </g>
   <g id="patch_190">
    <path d="M 267.551345 378 
L 269.761877 378 
L 269.761877 250.00768 
L 267.551345 250.00768 
L 267.551345 378 
z
" clip-path="url(#pde0af7ab46)" style="fill: none"/>
   </g>
   <g id="patch_191">
    <path d="M 269.761877 378 
L 271.972409 378 
L 271.972409 246.237842 
L 269.761877 246.237842 
L 269.761877 378 
z
" clip-path="url(#pde0af7ab46)" style="fill: none"/>
   </g>
   <g id="patch_192">
    <path d="M 271.972409 378 
L 274.182941 378 
L 274.182941 243.364916 
L 271.972409 243.364916 
L 271.972409 378 
z
" clip-path="url(#pde0af7ab46)" style="fill: none"/>
   </g>
   <g id="patch_193">
    <path d="M 274.182941 378 
L 276.393474 378 
L 276.393474 241.57109 
L 274.182941 241.57109 
L 274.182941 378 
z
" clip-path="url(#pde0af7ab46)" style="fill: none"/>
   </g>
   <g id="patch_194">
    <path d="M 276.393474 378 
L 278.604006 378 
L 278.604006 237.808259 
L 276.393474 237.808259 
L 276.393474 378 
z
" clip-path="url(#pde0af7ab46)" style="fill: none"/>
   </g>
   <g id="patch_195">
    <path d="M 278.604006 378 
L 280.814538 378 
L 280.814538 237.149588 
L 278.604006 237.149588 
L 278.604006 378 
z
" clip-path="url(#pde0af7ab46)" style="fill: none"/>
   </g>
   <g id="patch_196">
    <path d="M 280.814538 378 
L 283.02507 378 
L 283.02507 234.514905 
L 280.814538 234.514905 
L 280.814538 378 
z
" clip-path="url(#pde0af7ab46)" style="fill: none"/>
   </g>
   <g id="patch_197">
    <path d="M 283.02507 378 
L 285.235602 378 
L 285.235602 231.992337 
L 283.02507 231.992337 
L 283.02507 378 
z
" clip-path="url(#pde0af7ab46)" style="fill: none"/>
   </g>
   <g id="patch_198">
    <path d="M 285.235602 378 
L 287.446134 378 
L 287.446134 228.881169 
L 285.235602 228.881169 
L 285.235602 378 
z
" clip-path="url(#pde0af7ab46)" style="fill: none"/>
   </g>
   <g id="patch_199">
    <path d="M 287.446134 378 
L 289.656666 378 
L 289.656666 226.596843 
L 287.446134 226.596843 
L 287.446134 378 
z
" clip-path="url(#pde0af7ab46)" style="fill: none"/>
   </g>
   <g id="patch_200">
    <path d="M 289.656666 378 
L 291.867198 378 
L 291.867198 222.287456 
L 289.656666 222.287456 
L 289.656666 378 
z
" clip-path="url(#pde0af7ab46)" style="fill: none"/>
   </g>
   <g id="patch_201">
    <path d="M 291.867198 378 
L 294.07773 378 
L 294.07773 220.185315 
L 291.867198 220.185315 
L 291.867198 378 
z
" clip-path="url(#pde0af7ab46)" style="fill: none"/>
   </g>
   <g id="patch_202">
    <path d="M 294.07773 378 
L 296.288262 378 
L 296.288262 216.688755 
L 294.07773 216.688755 
L 294.07773 378 
z
" clip-path="url(#pde0af7ab46)" style="fill: none"/>
   </g>
   <g id="patch_203">
    <path d="M 296.288262 378 
L 298.498794 378 
L 298.498794 219.358473 
L 296.288262 219.358473 
L 296.288262 378 
z
" clip-path="url(#pde0af7ab46)" style="fill: none"/>
   </g>
   <g id="patch_204">
    <path d="M 298.498794 378 
L 300.709326 378 
L 300.709326 223.093276 
L 298.498794 223.093276 
L 298.498794 378 
z
" clip-path="url(#pde0af7ab46)" style="fill: none"/>
   </g>
   <g id="patch_205">
    <path d="M 300.709326 378 
L 302.919858 378 
L 302.919858 225.657887 
L 300.709326 225.657887 
L 300.709326 378 
z
" clip-path="url(#pde0af7ab46)" style="fill: none"/>
   </g>
   <g id="patch_206">
    <path d="M 302.919858 378 
L 305.13039 378 
L 305.13039 228.502784 
L 302.919858 228.502784 
L 302.919858 378 
z
" clip-path="url(#pde0af7ab46)" style="fill: none"/>
   </g>
   <g id="patch_207">
    <path d="M 305.13039 378 
L 307.340922 378 
L 307.340922 231.424759 
L 305.13039 231.424759 
L 305.13039 378 
z
" clip-path="url(#pde0af7ab46)" style="fill: none"/>
   </g>
   <g id="patch_208">
    <path d="M 307.340922 378 
L 309.551454 378 
L 309.551454 233.624999 
L 307.340922 233.624999 
L 307.340922 378 
z
" clip-path="url(#pde0af7ab46)" style="fill: none"/>
   </g>
   <g id="patch_209">
    <path d="M 309.551454 378 
L 311.761986 378 
L 311.761986 236.273696 
L 309.551454 236.273696 
L 309.551454 378 
z
" clip-path="url(#pde0af7ab46)" style="fill: none"/>
   </g>
   <g id="patch_210">
    <path d="M 311.761986 378 
L 313.972518 378 
L 313.972518 237.752202 
L 311.761986 237.752202 
L 311.761986 378 
z
" clip-path="url(#pde0af7ab46)" style="fill: none"/>
   </g>
   <g id="patch_211">
    <path d="M 313.972518 378 
L 316.18305 378 
L 316.18305 241.080591 
L 313.972518 241.080591 
L 313.972518 378 
z
" clip-path="url(#pde0af7ab46)" style="fill: none"/>
   </g>
   <g id="patch_212">
    <path d="M 316.18305 378 
L 318.393582 378 
L 318.393582 243.82038 
L 316.18305 243.82038 
L 316.18305 378 
z
" clip-path="url(#pde0af7ab46)" style="fill: none"/>
   </g>
   <g id="patch_213">
    <path d="M 318.393582 378 
L 320.604114 378 
L 320.604114 246.300906 
L 318.393582 246.300906 
L 318.393582 378 
z
" clip-path="url(#pde0af7ab46)" style="fill: none"/>
   </g>
   <g id="patch_214">
    <path d="M 320.604114 378 
L 322.814646 378 
L 322.814646 248.80946 
L 320.604114 248.80946 
L 320.604114 378 
z
" clip-path="url(#pde0af7ab46)" style="fill: none"/>
   </g>
   <g id="patch_215">
    <path d="M 322.814646 378 
L 325.025178 378 
L 325.025178 249.306967 
L 322.814646 249.306967 
L 322.814646 378 
z
" clip-path="url(#pde0af7ab46)" style="fill: none"/>
   </g>
   <g id="patch_216">
    <path d="M 325.025178 378 
L 327.23571 378 
L 327.23571 253.125855 
L 325.025178 253.125855 
L 325.025178 378 
z
" clip-path="url(#pde0af7ab46)" style="fill: none"/>
   </g>
   <g id="patch_217">
    <path d="M 327.23571 378 
L 329.446242 378 
L 329.446242 255.641416 
L 327.23571 255.641416 
L 327.23571 378 
z
" clip-path="url(#pde0af7ab46)" style="fill: none"/>
   </g>
   <g id="patch_218">
    <path d="M 329.446242 378 
L 331.656774 378 
L 331.656774 257.512321 
L 329.446242 257.512321 
L 329.446242 378 
z
" clip-path="url(#pde0af7ab46)" style="fill: none"/>
   </g>
   <g id="patch_219">
    <path d="M 331.656774 378 
L 333.867306 378 
L 333.867306 259.69154 
L 331.656774 259.69154 
L 331.656774 378 
z
" clip-path="url(#pde0af7ab46)" style="fill: none"/>
   </g>
   <g id="patch_220">
    <path d="M 333.867306 378 
L 336.077839 378 
L 336.077839 263.153064 
L 333.867306 263.153064 
L 333.867306 378 
z
" clip-path="url(#pde0af7ab46)" style="fill: none"/>
   </g>
   <g id="patch_221">
    <path d="M 336.077839 378 
L 338.288371 378 
L 338.288371 263.167079 
L 336.077839 263.167079 
L 336.077839 378 
z
" clip-path="url(#pde0af7ab46)" style="fill: none"/>
   </g>
   <g id="patch_222">
    <path d="M 338.288371 378 
L 340.498903 378 
L 340.498903 265.598554 
L 338.288371 265.598554 
L 338.288371 378 
z
" clip-path="url(#pde0af7ab46)" style="fill: none"/>
   </g>
   <g id="patch_223">
    <path d="M 340.498903 378 
L 342.709435 378 
L 342.709435 267.063046 
L 340.498903 267.063046 
L 340.498903 378 
z
" clip-path="url(#pde0af7ab46)" style="fill: none"/>
   </g>
   <g id="patch_224">
    <path d="M 342.709435 378 
L 344.919967 378 
L 344.919967 268.289294 
L 342.709435 268.289294 
L 342.709435 378 
z
" clip-path="url(#pde0af7ab46)" style="fill: none"/>
   </g>
   <g id="patch_225">
    <path d="M 344.919967 378 
L 347.130499 378 
L 347.130499 270.994048 
L 344.919967 270.994048 
L 344.919967 378 
z
" clip-path="url(#pde0af7ab46)" style="fill: none"/>
   </g>
   <g id="patch_226">
    <path d="M 347.130499 378 
L 349.341031 378 
L 349.341031 271.316376 
L 347.130499 271.316376 
L 347.130499 378 
z
" clip-path="url(#pde0af7ab46)" style="fill: none"/>
   </g>
   <g id="patch_227">
    <path d="M 349.341031 378 
L 351.551563 378 
L 351.551563 274.497615 
L 349.341031 274.497615 
L 349.341031 378 
z
" clip-path="url(#pde0af7ab46)" style="fill: none"/>
   </g>
   <g id="patch_228">
    <path d="M 351.551563 378 
L 353.762095 378 
L 353.762095 275.31745 
L 351.551563 275.31745 
L 351.551563 378 
z
" clip-path="url(#pde0af7ab46)" style="fill: none"/>
   </g>
   <g id="patch_229">
    <path d="M 353.762095 378 
L 355.972627 378 
L 355.972627 277.776954 
L 353.762095 277.776954 
L 353.762095 378 
z
" clip-path="url(#pde0af7ab46)" style="fill: none"/>
   </g>
   <g id="patch_230">
    <path d="M 355.972627 378 
L 358.183159 378 
L 358.183159 280.397623 
L 355.972627 280.397623 
L 355.972627 378 
z
" clip-path="url(#pde0af7ab46)" style="fill: none"/>
   </g>
   <g id="patch_231">
    <path d="M 358.183159 378 
L 360.393691 378 
L 360.393691 281.462707 
L 358.183159 281.462707 
L 358.183159 378 
z
" clip-path="url(#pde0af7ab46)" style="fill: none"/>
   </g>
   <g id="patch_232">
    <path d="M 360.393691 378 
L 362.604223 378 
L 362.604223 282.843113 
L 360.393691 282.843113 
L 360.393691 378 
z
" clip-path="url(#pde0af7ab46)" style="fill: none"/>
   </g>
   <g id="patch_233">
    <path d="M 362.604223 378 
L 364.814755 378 
L 364.814755 282.100356 
L 362.604223 282.100356 
L 362.604223 378 
z
" clip-path="url(#pde0af7ab46)" style="fill: none"/>
   </g>
   <g id="patch_234">
    <path d="M 364.814755 378 
L 367.025287 378 
L 367.025287 283.41069 
L 364.814755 283.41069 
L 364.814755 378 
z
" clip-path="url(#pde0af7ab46)" style="fill: none"/>
   </g>
   <g id="patch_235">
    <path d="M 367.025287 378 
L 369.235819 378 
L 369.235819 285.519838 
L 367.025287 285.519838 
L 367.025287 378 
z
" clip-path="url(#pde0af7ab46)" style="fill: none"/>
   </g>
   <g id="patch_236">
    <path d="M 369.235819 378 
L 371.446351 378 
L 371.446351 288.308678 
L 369.235819 288.308678 
L 369.235819 378 
z
" clip-path="url(#pde0af7ab46)" style="fill: none"/>
   </g>
   <g id="patch_237">
    <path d="M 371.446351 378 
L 373.656883 378 
L 373.656883 289.899297 
L 371.446351 289.899297 
L 371.446351 378 
z
" clip-path="url(#pde0af7ab46)" style="fill: none"/>
   </g>
   <g id="patch_238">
    <path d="M 373.656883 378 
L 375.867415 378 
L 375.867415 291.146567 
L 373.656883 291.146567 
L 373.656883 378 
z
" clip-path="url(#pde0af7ab46)" style="fill: none"/>
   </g>
   <g id="patch_239">
    <path d="M 375.867415 378 
L 378.077947 378 
L 378.077947 291.889323 
L 375.867415 291.889323 
L 375.867415 378 
z
" clip-path="url(#pde0af7ab46)" style="fill: none"/>
   </g>
   <g id="patch_240">
    <path d="M 378.077947 378 
L 380.288479 378 
L 380.288479 292.505951 
L 378.077947 292.505951 
L 378.077947 378 
z
" clip-path="url(#pde0af7ab46)" style="fill: none"/>
   </g>
   <g id="patch_241">
    <path d="M 380.288479 378 
L 382.499011 378 
L 382.499011 294.24372 
L 380.288479 294.24372 
L 380.288479 378 
z
" clip-path="url(#pde0af7ab46)" style="fill: none"/>
   </g>
   <g id="patch_242">
    <path d="M 382.499011 378 
L 384.709543 378 
L 384.709543 293.514978 
L 382.499011 293.514978 
L 382.499011 378 
z
" clip-path="url(#pde0af7ab46)" style="fill: none"/>
   </g>
   <g id="patch_243">
    <path d="M 384.709543 378 
L 386.920075 378 
L 386.920075 295.217712 
L 384.709543 295.217712 
L 384.709543 378 
z
" clip-path="url(#pde0af7ab46)" style="fill: none"/>
   </g>
   <g id="patch_244">
    <path d="M 386.920075 378 
L 389.130607 378 
L 389.130607 297.796338 
L 386.920075 297.796338 
L 386.920075 378 
z
" clip-path="url(#pde0af7ab46)" style="fill: none"/>
   </g>
   <g id="patch_245">
    <path d="M 389.130607 378 
L 391.341139 378 
L 391.341139 298.363916 
L 389.130607 298.363916 
L 389.130607 378 
z
" clip-path="url(#pde0af7ab46)" style="fill: none"/>
   </g>
   <g id="patch_246">
    <path d="M 391.341139 378 
L 393.551672 378 
L 393.551672 299.884464 
L 391.341139 299.884464 
L 391.341139 378 
z
" clip-path="url(#pde0af7ab46)" style="fill: none"/>
   </g>
   <g id="patch_247">
    <path d="M 393.551672 378 
L 395.762204 378 
L 395.762204 299.807385 
L 393.551672 299.807385 
L 393.551672 378 
z
" clip-path="url(#pde0af7ab46)" style="fill: none"/>
   </g>
   <g id="patch_248">
    <path d="M 395.762204 378 
L 397.972736 378 
L 397.972736 302.007626 
L 395.762204 302.007626 
L 395.762204 378 
z
" clip-path="url(#pde0af7ab46)" style="fill: none"/>
   </g>
   <g id="patch_249">
    <path d="M 397.972736 378 
L 400.183268 378 
L 400.183268 302.007626 
L 397.972736 302.007626 
L 397.972736 378 
z
" clip-path="url(#pde0af7ab46)" style="fill: none"/>
   </g>
   <g id="patch_250">
    <path d="M 400.183268 378 
L 402.3938 378 
L 402.3938 304.600265 
L 400.183268 304.600265 
L 400.183268 378 
z
" clip-path="url(#pde0af7ab46)" style="fill: none"/>
   </g>
   <g id="patch_251">
    <path d="M 402.3938 378 
L 404.604332 378 
L 404.604332 304.824494 
L 402.3938 304.824494 
L 402.3938 378 
z
" clip-path="url(#pde0af7ab46)" style="fill: none"/>
   </g>
   <g id="patch_252">
    <path d="M 404.604332 378 
L 406.814864 378 
L 406.814864 306.232928 
L 404.604332 306.232928 
L 404.604332 378 
z
" clip-path="url(#pde0af7ab46)" style="fill: none"/>
   </g>
   <g id="patch_253">
    <path d="M 406.814864 378 
L 409.025396 378 
L 409.025396 307.347062 
L 406.814864 307.347062 
L 406.814864 378 
z
" clip-path="url(#pde0af7ab46)" style="fill: none"/>
   </g>
   <g id="patch_254">
    <path d="M 409.025396 378 
L 411.235928 378 
L 411.235928 307.326041 
L 409.025396 307.326041 
L 409.025396 378 
z
" clip-path="url(#pde0af7ab46)" style="fill: none"/>
   </g>
   <g id="patch_255">
    <path d="M 411.235928 378 
L 413.44646 378 
L 413.44646 307.711433 
L 411.235928 307.711433 
L 411.235928 378 
z
" clip-path="url(#pde0af7ab46)" style="fill: none"/>
   </g>
   <g id="patch_256">
    <path d="M 413.44646 378 
L 415.656992 378 
L 415.656992 310.11488 
L 413.44646 310.11488 
L 413.44646 378 
z
" clip-path="url(#pde0af7ab46)" style="fill: none"/>
   </g>
   <g id="patch_257">
    <path d="M 415.656992 378 
L 417.867524 378 
L 417.867524 310.374144 
L 415.656992 310.374144 
L 415.656992 378 
z
" clip-path="url(#pde0af7ab46)" style="fill: none"/>
   </g>
   <g id="patch_258">
    <path d="M 417.867524 378 
L 420.078056 378 
L 420.078056 311.6074 
L 417.867524 311.6074 
L 417.867524 378 
z
" clip-path="url(#pde0af7ab46)" style="fill: none"/>
   </g>
   <g id="patch_259">
    <path d="M 420.078056 378 
L 422.288588 378 
L 422.288588 312.567377 
L 420.078056 312.567377 
L 420.078056 378 
z
" clip-path="url(#pde0af7ab46)" style="fill: none"/>
   </g>
   <g id="patch_260">
    <path d="M 422.288588 378 
L 424.49912 378 
L 424.49912 313.184005 
L 422.288588 313.184005 
L 422.288588 378 
z
" clip-path="url(#pde0af7ab46)" style="fill: none"/>
   </g>
   <g id="patch_261">
    <path d="M 424.49912 378 
L 426.709652 378 
L 426.709652 313.303127 
L 424.49912 313.303127 
L 424.49912 378 
z
" clip-path="url(#pde0af7ab46)" style="fill: none"/>
   </g>
   <g id="patch_262">
    <path d="M 426.709652 378 
L 428.920184 378 
L 428.920184 314.017854 
L 426.709652 314.017854 
L 426.709652 378 
z
" clip-path="url(#pde0af7ab46)" style="fill: none"/>
   </g>
   <g id="patch_263">
    <path d="M 428.920184 378 
L 431.130716 378 
L 431.130716 314.157997 
L 428.920184 314.157997 
L 428.920184 378 
z
" clip-path="url(#pde0af7ab46)" style="fill: none"/>
   </g>
   <g id="patch_264">
    <path d="M 431.130716 378 
L 433.341248 378 
L 433.341248 315.986859 
L 431.130716 315.986859 
L 431.130716 378 
z
" clip-path="url(#pde0af7ab46)" style="fill: none"/>
   </g>
   <g id="patch_265">
    <path d="M 433.341248 378 
L 435.55178 378 
L 435.55178 315.860731 
L 433.341248 315.860731 
L 433.341248 378 
z
" clip-path="url(#pde0af7ab46)" style="fill: none"/>
   </g>
   <g id="patch_266">
    <path d="M 435.55178 378 
L 437.762312 378 
L 437.762312 316.729615 
L 435.55178 316.729615 
L 435.55178 378 
z
" clip-path="url(#pde0af7ab46)" style="fill: none"/>
   </g>
   <g id="patch_267">
    <path d="M 437.762312 378 
L 439.972844 378 
L 439.972844 317.514414 
L 437.762312 317.514414 
L 437.762312 378 
z
" clip-path="url(#pde0af7ab46)" style="fill: none"/>
   </g>
   <g id="patch_268">
    <path d="M 439.972844 378 
L 442.183376 378 
L 442.183376 319.027955 
L 439.972844 319.027955 
L 439.972844 378 
z
" clip-path="url(#pde0af7ab46)" style="fill: none"/>
   </g>
   <g id="patch_269">
    <path d="M 442.183376 378 
L 444.393908 378 
L 444.393908 318.418335 
L 442.183376 318.418335 
L 442.183376 378 
z
" clip-path="url(#pde0af7ab46)" style="fill: none"/>
   </g>
   <g id="patch_270">
    <path d="M 444.393908 378 
L 446.60444 378 
L 446.60444 319.455391 
L 444.393908 319.455391 
L 444.393908 378 
z
" clip-path="url(#pde0af7ab46)" style="fill: none"/>
   </g>
   <g id="patch_271">
    <path d="M 446.60444 378 
L 448.814972 378 
L 448.814972 321.725702 
L 446.60444 321.725702 
L 446.60444 378 
z
" clip-path="url(#pde0af7ab46)" style="fill: none"/>
   </g>
   <g id="patch_272">
    <path d="M 448.814972 378 
L 451.025504 378 
L 451.025504 322.055038 
L 448.814972 322.055038 
L 448.814972 378 
z
" clip-path="url(#pde0af7ab46)" style="fill: none"/>
   </g>
   <g id="patch_273">
    <path d="M 451.025504 378 
L 453.236037 378 
L 453.236037 323.141143 
L 451.025504 323.141143 
L 451.025504 378 
z
" clip-path="url(#pde0af7ab46)" style="fill: none"/>
   </g>
   <g id="patch_274">
    <path d="M 453.236037 378 
L 455.446569 378 
L 455.446569 322.566558 
L 453.236037 322.566558 
L 453.236037 378 
z
" clip-path="url(#pde0af7ab46)" style="fill: none"/>
   </g>
   <g id="patch_275">
    <path d="M 455.446569 378 
L 457.657101 378 
L 457.657101 324.052071 
L 455.446569 324.052071 
L 455.446569 378 
z
" clip-path="url(#pde0af7ab46)" style="fill: none"/>
   </g>
   <g id="patch_276">
    <path d="M 457.657101 378 
L 459.867633 378 
L 459.867633 324.633663 
L 457.657101 324.633663 
L 457.657101 378 
z
" clip-path="url(#pde0af7ab46)" style="fill: none"/>
   </g>
   <g id="patch_277">
    <path d="M 459.867633 378 
L 462.078165 378 
L 462.078165 324.73877 
L 459.867633 324.73877 
L 459.867633 378 
z
" clip-path="url(#pde0af7ab46)" style="fill: none"/>
   </g>
   <g id="patch_278">
    <path d="M 462.078165 378 
L 464.288697 378 
L 464.288697 324.731763 
L 462.078165 324.731763 
L 462.078165 378 
z
" clip-path="url(#pde0af7ab46)" style="fill: none"/>
   </g>
   <g id="patch_279">
    <path d="M 464.288697 378 
L 466.499229 378 
L 466.499229 325.607655 
L 464.288697 325.607655 
L 464.288697 378 
z
" clip-path="url(#pde0af7ab46)" style="fill: none"/>
   </g>
   <g id="patch_280">
    <path d="M 466.499229 378 
L 468.709761 378 
L 468.709761 326.364425 
L 466.499229 326.364425 
L 466.499229 378 
z
" clip-path="url(#pde0af7ab46)" style="fill: none"/>
   </g>
   <g id="patch_281">
    <path d="M 468.709761 378 
L 470.920293 378 
L 470.920293 326.42749 
L 468.709761 326.42749 
L 468.709761 378 
z
" clip-path="url(#pde0af7ab46)" style="fill: none"/>
   </g>
   <g id="patch_282">
    <path d="M 470.920293 378 
L 473.130825 378 
L 473.130825 326.917989 
L 470.920293 326.917989 
L 470.920293 378 
z
" clip-path="url(#pde0af7ab46)" style="fill: none"/>
   </g>
   <g id="patch_283">
    <path d="M 473.130825 378 
L 475.341357 378 
L 475.341357 328.508609 
L 473.130825 328.508609 
L 473.130825 378 
z
" clip-path="url(#pde0af7ab46)" style="fill: none"/>
   </g>
   <g id="patch_284">
    <path d="M 475.341357 378 
L 477.551889 378 
L 477.551889 329.293408 
L 475.341357 329.293408 
L 475.341357 378 
z
" clip-path="url(#pde0af7ab46)" style="fill: none"/>
   </g>
   <g id="patch_285">
    <path d="M 477.551889 378 
L 479.762421 378 
L 479.762421 328.648751 
L 477.551889 328.648751 
L 477.551889 378 
z
" clip-path="url(#pde0af7ab46)" style="fill: none"/>
   </g>
   <g id="patch_286">
    <path d="M 479.762421 378 
L 481.972953 378 
L 481.972953 330.477613 
L 479.762421 330.477613 
L 479.762421 378 
z
" clip-path="url(#pde0af7ab46)" style="fill: none"/>
   </g>
   <g id="patch_287">
    <path d="M 481.972953 378 
L 484.183485 378 
L 484.183485 331.921083 
L 481.972953 331.921083 
L 481.972953 378 
z
" clip-path="url(#pde0af7ab46)" style="fill: none"/>
   </g>
   <g id="patch_288">
    <path d="M 484.183485 378 
L 486.394017 378 
L 486.394017 330.547685 
L 484.183485 330.547685 
L 484.183485 378 
z
" clip-path="url(#pde0af7ab46)" style="fill: none"/>
   </g>
   <g id="patch_289">
    <path d="M 486.394017 378 
L 488.604549 378 
L 488.604549 331.402555 
L 486.394017 331.402555 
L 486.394017 378 
z
" clip-path="url(#pde0af7ab46)" style="fill: none"/>
   </g>
   <g id="patch_290">
    <path d="M 488.604549 378 
L 490.815081 378 
L 490.815081 331.914076 
L 488.604549 331.914076 
L 488.604549 378 
z
" clip-path="url(#pde0af7ab46)" style="fill: none"/>
   </g>
   <g id="patch_291">
    <path d="M 490.815081 378 
L 493.025613 378 
L 493.025613 332.523697 
L 490.815081 332.523697 
L 490.815081 378 
z
" clip-path="url(#pde0af7ab46)" style="fill: none"/>
   </g>
   <g id="patch_292">
    <path d="M 493.025613 378 
L 495.236145 378 
L 495.236145 333.259446 
L 493.025613 333.259446 
L 493.025613 378 
z
" clip-path="url(#pde0af7ab46)" style="fill: none"/>
   </g>
   <g id="patch_293">
    <path d="M 495.236145 378 
L 497.446677 378 
L 497.446677 334.296502 
L 495.236145 334.296502 
L 495.236145 378 
z
" clip-path="url(#pde0af7ab46)" style="fill: none"/>
   </g>
   <g id="patch_294">
    <path d="M 497.446677 378 
L 499.657209 378 
L 499.657209 334.331537 
L 497.446677 334.331537 
L 497.446677 378 
z
" clip-path="url(#pde0af7ab46)" style="fill: none"/>
   </g>
   <g id="patch_295">
    <path d="M 499.657209 378 
L 501.867741 378 
L 501.867741 335.144365 
L 499.657209 335.144365 
L 499.657209 378 
z
" clip-path="url(#pde0af7ab46)" style="fill: none"/>
   </g>
   <g id="patch_296">
    <path d="M 501.867741 378 
L 504.078273 378 
L 504.078273 335.929164 
L 501.867741 335.929164 
L 501.867741 378 
z
" clip-path="url(#pde0af7ab46)" style="fill: none"/>
   </g>
   <g id="patch_297">
    <path d="M 504.078273 378 
L 506.288805 378 
L 506.288805 337.330591 
L 504.078273 337.330591 
L 504.078273 378 
z
" clip-path="url(#pde0af7ab46)" style="fill: none"/>
   </g>
   <g id="patch_298">
    <path d="M 506.288805 378 
L 508.499337 378 
L 508.499337 338.36064 
L 506.288805 338.36064 
L 506.288805 378 
z
" clip-path="url(#pde0af7ab46)" style="fill: none"/>
   </g>
   <g id="patch_299">
    <path d="M 508.499337 378 
L 510.70987 378 
L 510.70987 341.990335 
L 508.499337 341.990335 
L 508.499337 378 
z
" clip-path="url(#pde0af7ab46)" style="fill: none"/>
   </g>
   <g id="patch_300">
    <path d="M 510.70987 378 
L 512.920402 378 
L 512.920402 346.432859 
L 510.70987 346.432859 
L 510.70987 378 
z
" clip-path="url(#pde0af7ab46)" style="fill: none"/>
   </g>
   <g id="patch_301">
    <path d="M 512.920402 378 
L 515.130934 378 
L 515.130934 360.426107 
L 512.920402 360.426107 
L 512.920402 378 
z
" clip-path="url(#pde0af7ab46)" style="fill: none"/>
   </g>
   <g id="matplotlib.axis_1">
    <g id="xtick_1">
     <g id="line2d_1">
      <defs>
       <path id="m890366e886" d="M 0 0 
L 0 3.5 
" style="stroke: #000000; stroke-width: 0.8"/>
      </defs>
      <g>
       <use xlink:href="#m890366e886" x="72" y="378" style="stroke: #000000; stroke-width: 0.8"/>
      </g>
     </g>
     <g id="text_1">
      <!-- 0.00 -->
      <g transform="translate(60.867188 392.598437)scale(0.1 -0.1)">
       <defs>
        <path id="DejaVuSans-30" d="M 2034 4250 
Q 1547 4250 1301 3770 
Q 1056 3291 1056 2328 
Q 1056 1369 1301 889 
Q 1547 409 2034 409 
Q 2525 409 2770 889 
Q 3016 1369 3016 2328 
Q 3016 3291 2770 3770 
Q 2525 4250 2034 4250 
z
M 2034 4750 
Q 2819 4750 3233 4129 
Q 3647 3509 3647 2328 
Q 3647 1150 3233 529 
Q 2819 -91 2034 -91 
Q 1250 -91 836 529 
Q 422 1150 422 2328 
Q 422 3509 836 4129 
Q 1250 4750 2034 4750 
z
" transform="scale(0.015625)"/>
        <path id="DejaVuSans-2e" d="M 684 794 
L 1344 794 
L 1344 0 
L 684 0 
L 684 794 
z
" transform="scale(0.015625)"/>
       </defs>
       <use xlink:href="#DejaVuSans-30"/>
       <use xlink:href="#DejaVuSans-2e" x="63.623047"/>
       <use xlink:href="#DejaVuSans-30" x="95.410156"/>
       <use xlink:href="#DejaVuSans-30" x="159.033203"/>
      </g>
     </g>
    </g>
    <g id="xtick_2">
     <g id="line2d_2">
      <g>
       <use xlink:href="#m890366e886" x="183.6" y="378" style="stroke: #000000; stroke-width: 0.8"/>
      </g>
     </g>
     <g id="text_2">
      <!-- 0.25 -->
      <g transform="translate(172.467187 392.598437)scale(0.1 -0.1)">
       <defs>
        <path id="DejaVuSans-32" d="M 1228 531 
L 3431 531 
L 3431 0 
L 469 0 
L 469 531 
Q 828 903 1448 1529 
Q 2069 2156 2228 2338 
Q 2531 2678 2651 2914 
Q 2772 3150 2772 3378 
Q 2772 3750 2511 3984 
Q 2250 4219 1831 4219 
Q 1534 4219 1204 4116 
Q 875 4013 500 3803 
L 500 4441 
Q 881 4594 1212 4672 
Q 1544 4750 1819 4750 
Q 2544 4750 2975 4387 
Q 3406 4025 3406 3419 
Q 3406 3131 3298 2873 
Q 3191 2616 2906 2266 
Q 2828 2175 2409 1742 
Q 1991 1309 1228 531 
z
" transform="scale(0.015625)"/>
        <path id="DejaVuSans-35" d="M 691 4666 
L 3169 4666 
L 3169 4134 
L 1269 4134 
L 1269 2991 
Q 1406 3038 1543 3061 
Q 1681 3084 1819 3084 
Q 2600 3084 3056 2656 
Q 3513 2228 3513 1497 
Q 3513 744 3044 326 
Q 2575 -91 1722 -91 
Q 1428 -91 1123 -41 
Q 819 9 494 109 
L 494 744 
Q 775 591 1075 516 
Q 1375 441 1709 441 
Q 2250 441 2565 725 
Q 2881 1009 2881 1497 
Q 2881 1984 2565 2268 
Q 2250 2553 1709 2553 
Q 1456 2553 1204 2497 
Q 953 2441 691 2322 
L 691 4666 
z
" transform="scale(0.015625)"/>
       </defs>
       <use xlink:href="#DejaVuSans-30"/>
       <use xlink:href="#DejaVuSans-2e" x="63.623047"/>
       <use xlink:href="#DejaVuSans-32" x="95.410156"/>
       <use xlink:href="#DejaVuSans-35" x="159.033203"/>
      </g>
     </g>
    </g>
    <g id="xtick_3">
     <g id="line2d_3">
      <g>
       <use xlink:href="#m890366e886" x="295.2" y="378" style="stroke: #000000; stroke-width: 0.8"/>
      </g>
     </g>
     <g id="text_3">
      <!-- 0.50 -->
      <g transform="translate(284.067187 392.598437)scale(0.1 -0.1)">
       <use xlink:href="#DejaVuSans-30"/>
       <use xlink:href="#DejaVuSans-2e" x="63.623047"/>
       <use xlink:href="#DejaVuSans-35" x="95.410156"/>
       <use xlink:href="#DejaVuSans-30" x="159.033203"/>
      </g>
     </g>
    </g>
    <g id="xtick_4">
     <g id="line2d_4">
      <g>
       <use xlink:href="#m890366e886" x="406.8" y="378" style="stroke: #000000; stroke-width: 0.8"/>
      </g>
     </g>
     <g id="text_4">
      <!-- 0.75 -->
      <g transform="translate(395.667187 392.598437)scale(0.1 -0.1)">
       <defs>
        <path id="DejaVuSans-37" d="M 525 4666 
L 3525 4666 
L 3525 4397 
L 1831 0 
L 1172 0 
L 2766 4134 
L 525 4134 
L 525 4666 
z
" transform="scale(0.015625)"/>
       </defs>
       <use xlink:href="#DejaVuSans-30"/>
       <use xlink:href="#DejaVuSans-2e" x="63.623047"/>
       <use xlink:href="#DejaVuSans-37" x="95.410156"/>
       <use xlink:href="#DejaVuSans-35" x="159.033203"/>
      </g>
     </g>
    </g>
    <g id="xtick_5">
     <g id="line2d_5">
      <g>
       <use xlink:href="#m890366e886" x="518.4" y="378" style="stroke: #000000; stroke-width: 0.8"/>
      </g>
     </g>
     <g id="text_5">
      <!-- 1.00 -->
      <g transform="translate(507.267187 392.598437)scale(0.1 -0.1)">
       <defs>
        <path id="DejaVuSans-31" d="M 794 531 
L 1825 531 
L 1825 4091 
L 703 3866 
L 703 4441 
L 1819 4666 
L 2450 4666 
L 2450 531 
L 3481 531 
L 3481 0 
L 794 0 
L 794 531 
z
" transform="scale(0.015625)"/>
       </defs>
       <use xlink:href="#DejaVuSans-31"/>
       <use xlink:href="#DejaVuSans-2e" x="63.623047"/>
       <use xlink:href="#DejaVuSans-30" x="95.410156"/>
       <use xlink:href="#DejaVuSans-30" x="159.033203"/>
      </g>
     </g>
    </g>
    <g id="text_6">
     <!-- ratio_roeske -->
     <g transform="translate(264.697656 406.276563)scale(0.1 -0.1)">
      <defs>
       <path id="DejaVuSans-72" d="M 2631 2963 
Q 2534 3019 2420 3045 
Q 2306 3072 2169 3072 
Q 1681 3072 1420 2755 
Q 1159 2438 1159 1844 
L 1159 0 
L 581 0 
L 581 3500 
L 1159 3500 
L 1159 2956 
Q 1341 3275 1631 3429 
Q 1922 3584 2338 3584 
Q 2397 3584 2469 3576 
Q 2541 3569 2628 3553 
L 2631 2963 
z
" transform="scale(0.015625)"/>
       <path id="DejaVuSans-61" d="M 2194 1759 
Q 1497 1759 1228 1600 
Q 959 1441 959 1056 
Q 959 750 1161 570 
Q 1363 391 1709 391 
Q 2188 391 2477 730 
Q 2766 1069 2766 1631 
L 2766 1759 
L 2194 1759 
z
M 3341 1997 
L 3341 0 
L 2766 0 
L 2766 531 
Q 2569 213 2275 61 
Q 1981 -91 1556 -91 
Q 1019 -91 701 211 
Q 384 513 384 1019 
Q 384 1609 779 1909 
Q 1175 2209 1959 2209 
L 2766 2209 
L 2766 2266 
Q 2766 2663 2505 2880 
Q 2244 3097 1772 3097 
Q 1472 3097 1187 3025 
Q 903 2953 641 2809 
L 641 3341 
Q 956 3463 1253 3523 
Q 1550 3584 1831 3584 
Q 2591 3584 2966 3190 
Q 3341 2797 3341 1997 
z
" transform="scale(0.015625)"/>
       <path id="DejaVuSans-74" d="M 1172 4494 
L 1172 3500 
L 2356 3500 
L 2356 3053 
L 1172 3053 
L 1172 1153 
Q 1172 725 1289 603 
Q 1406 481 1766 481 
L 2356 481 
L 2356 0 
L 1766 0 
Q 1100 0 847 248 
Q 594 497 594 1153 
L 594 3053 
L 172 3053 
L 172 3500 
L 594 3500 
L 594 4494 
L 1172 4494 
z
" transform="scale(0.015625)"/>
       <path id="DejaVuSans-69" d="M 603 3500 
L 1178 3500 
L 1178 0 
L 603 0 
L 603 3500 
z
M 603 4863 
L 1178 4863 
L 1178 4134 
L 603 4134 
L 603 4863 
z
" transform="scale(0.015625)"/>
       <path id="DejaVuSans-6f" d="M 1959 3097 
Q 1497 3097 1228 2736 
Q 959 2375 959 1747 
Q 959 1119 1226 758 
Q 1494 397 1959 397 
Q 2419 397 2687 759 
Q 2956 1122 2956 1747 
Q 2956 2369 2687 2733 
Q 2419 3097 1959 3097 
z
M 1959 3584 
Q 2709 3584 3137 3096 
Q 3566 2609 3566 1747 
Q 3566 888 3137 398 
Q 2709 -91 1959 -91 
Q 1206 -91 779 398 
Q 353 888 353 1747 
Q 353 2609 779 3096 
Q 1206 3584 1959 3584 
z
" transform="scale(0.015625)"/>
       <path id="DejaVuSans-5f" d="M 3263 -1063 
L 3263 -1509 
L -63 -1509 
L -63 -1063 
L 3263 -1063 
z
" transform="scale(0.015625)"/>
       <path id="DejaVuSans-65" d="M 3597 1894 
L 3597 1613 
L 953 1613 
Q 991 1019 1311 708 
Q 1631 397 2203 397 
Q 2534 397 2845 478 
Q 3156 559 3463 722 
L 3463 178 
Q 3153 47 2828 -22 
Q 2503 -91 2169 -91 
Q 1331 -91 842 396 
Q 353 884 353 1716 
Q 353 2575 817 3079 
Q 1281 3584 2069 3584 
Q 2775 3584 3186 3129 
Q 3597 2675 3597 1894 
z
M 3022 2063 
Q 3016 2534 2758 2815 
Q 2500 3097 2075 3097 
Q 1594 3097 1305 2825 
Q 1016 2553 972 2059 
L 3022 2063 
z
" transform="scale(0.015625)"/>
       <path id="DejaVuSans-73" d="M 2834 3397 
L 2834 2853 
Q 2591 2978 2328 3040 
Q 2066 3103 1784 3103 
Q 1356 3103 1142 2972 
Q 928 2841 928 2578 
Q 928 2378 1081 2264 
Q 1234 2150 1697 2047 
L 1894 2003 
Q 2506 1872 2764 1633 
Q 3022 1394 3022 966 
Q 3022 478 2636 193 
Q 2250 -91 1575 -91 
Q 1294 -91 989 -36 
Q 684 19 347 128 
L 347 722 
Q 666 556 975 473 
Q 1284 391 1588 391 
Q 1994 391 2212 530 
Q 2431 669 2431 922 
Q 2431 1156 2273 1281 
Q 2116 1406 1581 1522 
L 1381 1569 
Q 847 1681 609 1914 
Q 372 2147 372 2553 
Q 372 3047 722 3315 
Q 1072 3584 1716 3584 
Q 2034 3584 2315 3537 
Q 2597 3491 2834 3397 
z
" transform="scale(0.015625)"/>
       <path id="DejaVuSans-6b" d="M 581 4863 
L 1159 4863 
L 1159 1991 
L 2875 3500 
L 3609 3500 
L 1753 1863 
L 3688 0 
L 2938 0 
L 1159 1709 
L 1159 0 
L 581 0 
L 581 4863 
z
" transform="scale(0.015625)"/>
      </defs>
      <use xlink:href="#DejaVuSans-72"/>
      <use xlink:href="#DejaVuSans-61" x="41.113281"/>
      <use xlink:href="#DejaVuSans-74" x="102.392578"/>
      <use xlink:href="#DejaVuSans-69" x="141.601562"/>
      <use xlink:href="#DejaVuSans-6f" x="169.384766"/>
      <use xlink:href="#DejaVuSans-5f" x="230.566406"/>
      <use xlink:href="#DejaVuSans-72" x="280.566406"/>
      <use xlink:href="#DejaVuSans-6f" x="319.429688"/>
      <use xlink:href="#DejaVuSans-65" x="380.611328"/>
      <use xlink:href="#DejaVuSans-73" x="442.134766"/>
      <use xlink:href="#DejaVuSans-6b" x="494.234375"/>
      <use xlink:href="#DejaVuSans-65" x="548.519531"/>
     </g>
    </g>
   </g>
   <g id="matplotlib.axis_2">
    <g id="ytick_1">
     <g id="line2d_6">
      <defs>
       <path id="mf68dfe605d" d="M 0 0 
L -3.5 0 
" style="stroke: #000000; stroke-width: 0.8"/>
      </defs>
      <g>
       <use xlink:href="#mf68dfe605d" x="72" y="378" style="stroke: #000000; stroke-width: 0.8"/>
      </g>
     </g>
     <g id="text_7">
      <!-- 0.0 -->
      <g transform="translate(49.096875 381.799219)scale(0.1 -0.1)">
       <use xlink:href="#DejaVuSans-30"/>
       <use xlink:href="#DejaVuSans-2e" x="63.623047"/>
       <use xlink:href="#DejaVuSans-30" x="95.410156"/>
      </g>
     </g>
    </g>
    <g id="ytick_2">
     <g id="line2d_7">
      <g>
       <use xlink:href="#mf68dfe605d" x="72" y="338.113855" style="stroke: #000000; stroke-width: 0.8"/>
      </g>
     </g>
     <g id="text_8">
      <!-- 0.5 -->
      <g transform="translate(49.096875 341.913074)scale(0.1 -0.1)">
       <use xlink:href="#DejaVuSans-30"/>
       <use xlink:href="#DejaVuSans-2e" x="63.623047"/>
       <use xlink:href="#DejaVuSans-35" x="95.410156"/>
      </g>
     </g>
    </g>
    <g id="ytick_3">
     <g id="line2d_8">
      <g>
       <use xlink:href="#mf68dfe605d" x="72" y="298.22771" style="stroke: #000000; stroke-width: 0.8"/>
      </g>
     </g>
     <g id="text_9">
      <!-- 1.0 -->
      <g transform="translate(49.096875 302.026929)scale(0.1 -0.1)">
       <use xlink:href="#DejaVuSans-31"/>
       <use xlink:href="#DejaVuSans-2e" x="63.623047"/>
       <use xlink:href="#DejaVuSans-30" x="95.410156"/>
      </g>
     </g>
    </g>
    <g id="ytick_4">
     <g id="line2d_9">
      <g>
       <use xlink:href="#mf68dfe605d" x="72" y="258.341566" style="stroke: #000000; stroke-width: 0.8"/>
      </g>
     </g>
     <g id="text_10">
      <!-- 1.5 -->
      <g transform="translate(49.096875 262.140784)scale(0.1 -0.1)">
       <use xlink:href="#DejaVuSans-31"/>
       <use xlink:href="#DejaVuSans-2e" x="63.623047"/>
       <use xlink:href="#DejaVuSans-35" x="95.410156"/>
      </g>
     </g>
    </g>
    <g id="ytick_5">
     <g id="line2d_10">
      <g>
       <use xlink:href="#mf68dfe605d" x="72" y="218.455421" style="stroke: #000000; stroke-width: 0.8"/>
      </g>
     </g>
     <g id="text_11">
      <!-- 2.0 -->
      <g transform="translate(49.096875 222.25464)scale(0.1 -0.1)">
       <use xlink:href="#DejaVuSans-32"/>
       <use xlink:href="#DejaVuSans-2e" x="63.623047"/>
       <use xlink:href="#DejaVuSans-30" x="95.410156"/>
      </g>
     </g>
    </g>
    <g id="ytick_6">
     <g id="line2d_11">
      <g>
       <use xlink:href="#mf68dfe605d" x="72" y="178.569276" style="stroke: #000000; stroke-width: 0.8"/>
      </g>
     </g>
     <g id="text_12">
      <!-- 2.5 -->
      <g transform="translate(49.096875 182.368495)scale(0.1 -0.1)">
       <use xlink:href="#DejaVuSans-32"/>
       <use xlink:href="#DejaVuSans-2e" x="63.623047"/>
       <use xlink:href="#DejaVuSans-35" x="95.410156"/>
      </g>
     </g>
    </g>
    <g id="ytick_7">
     <g id="line2d_12">
      <g>
       <use xlink:href="#mf68dfe605d" x="72" y="138.683131" style="stroke: #000000; stroke-width: 0.8"/>
      </g>
     </g>
     <g id="text_13">
      <!-- 3.0 -->
      <g transform="translate(49.096875 142.48235)scale(0.1 -0.1)">
       <defs>
        <path id="DejaVuSans-33" d="M 2597 2516 
Q 3050 2419 3304 2112 
Q 3559 1806 3559 1356 
Q 3559 666 3084 287 
Q 2609 -91 1734 -91 
Q 1441 -91 1130 -33 
Q 819 25 488 141 
L 488 750 
Q 750 597 1062 519 
Q 1375 441 1716 441 
Q 2309 441 2620 675 
Q 2931 909 2931 1356 
Q 2931 1769 2642 2001 
Q 2353 2234 1838 2234 
L 1294 2234 
L 1294 2753 
L 1863 2753 
Q 2328 2753 2575 2939 
Q 2822 3125 2822 3475 
Q 2822 3834 2567 4026 
Q 2313 4219 1838 4219 
Q 1578 4219 1281 4162 
Q 984 4106 628 3988 
L 628 4550 
Q 988 4650 1302 4700 
Q 1616 4750 1894 4750 
Q 2613 4750 3031 4423 
Q 3450 4097 3450 3541 
Q 3450 3153 3228 2886 
Q 3006 2619 2597 2516 
z
" transform="scale(0.015625)"/>
       </defs>
       <use xlink:href="#DejaVuSans-33"/>
       <use xlink:href="#DejaVuSans-2e" x="63.623047"/>
       <use xlink:href="#DejaVuSans-30" x="95.410156"/>
      </g>
     </g>
    </g>
    <g id="ytick_8">
     <g id="line2d_13">
      <g>
       <use xlink:href="#mf68dfe605d" x="72" y="98.796987" style="stroke: #000000; stroke-width: 0.8"/>
      </g>
     </g>
     <g id="text_14">
      <!-- 3.5 -->
      <g transform="translate(49.096875 102.596205)scale(0.1 -0.1)">
       <use xlink:href="#DejaVuSans-33"/>
       <use xlink:href="#DejaVuSans-2e" x="63.623047"/>
       <use xlink:href="#DejaVuSans-35" x="95.410156"/>
      </g>
     </g>
    </g>
    <g id="ytick_9">
     <g id="line2d_14">
      <g>
       <use xlink:href="#mf68dfe605d" x="72" y="58.910842" style="stroke: #000000; stroke-width: 0.8"/>
      </g>
     </g>
     <g id="text_15">
      <!-- 4.0 -->
      <g transform="translate(49.096875 62.710061)scale(0.1 -0.1)">
       <defs>
        <path id="DejaVuSans-34" d="M 2419 4116 
L 825 1625 
L 2419 1625 
L 2419 4116 
z
M 2253 4666 
L 3047 4666 
L 3047 1625 
L 3713 1625 
L 3713 1100 
L 3047 1100 
L 3047 0 
L 2419 0 
L 2419 1100 
L 313 1100 
L 313 1709 
L 2253 4666 
z
" transform="scale(0.015625)"/>
       </defs>
       <use xlink:href="#DejaVuSans-34"/>
       <use xlink:href="#DejaVuSans-2e" x="63.623047"/>
       <use xlink:href="#DejaVuSans-30" x="95.410156"/>
      </g>
     </g>
    </g>
    <g id="text_16">
     <!-- Density -->
     <g transform="translate(43.017187 233.928594)rotate(-90)scale(0.1 -0.1)">
      <defs>
       <path id="DejaVuSans-44" d="M 1259 4147 
L 1259 519 
L 2022 519 
Q 2988 519 3436 956 
Q 3884 1394 3884 2338 
Q 3884 3275 3436 3711 
Q 2988 4147 2022 4147 
L 1259 4147 
z
M 628 4666 
L 1925 4666 
Q 3281 4666 3915 4102 
Q 4550 3538 4550 2338 
Q 4550 1131 3912 565 
Q 3275 0 1925 0 
L 628 0 
L 628 4666 
z
" transform="scale(0.015625)"/>
       <path id="DejaVuSans-6e" d="M 3513 2113 
L 3513 0 
L 2938 0 
L 2938 2094 
Q 2938 2591 2744 2837 
Q 2550 3084 2163 3084 
Q 1697 3084 1428 2787 
Q 1159 2491 1159 1978 
L 1159 0 
L 581 0 
L 581 3500 
L 1159 3500 
L 1159 2956 
Q 1366 3272 1645 3428 
Q 1925 3584 2291 3584 
Q 2894 3584 3203 3211 
Q 3513 2838 3513 2113 
z
" transform="scale(0.015625)"/>
       <path id="DejaVuSans-79" d="M 2059 -325 
Q 1816 -950 1584 -1140 
Q 1353 -1331 966 -1331 
L 506 -1331 
L 506 -850 
L 844 -850 
Q 1081 -850 1212 -737 
Q 1344 -625 1503 -206 
L 1606 56 
L 191 3500 
L 800 3500 
L 1894 763 
L 2988 3500 
L 3597 3500 
L 2059 -325 
z
" transform="scale(0.015625)"/>
      </defs>
      <use xlink:href="#DejaVuSans-44"/>
      <use xlink:href="#DejaVuSans-65" x="77.001953"/>
      <use xlink:href="#DejaVuSans-6e" x="138.525391"/>
      <use xlink:href="#DejaVuSans-73" x="201.904297"/>
      <use xlink:href="#DejaVuSans-69" x="254.003906"/>
      <use xlink:href="#DejaVuSans-74" x="281.787109"/>
      <use xlink:href="#DejaVuSans-79" x="320.996094"/>
     </g>
    </g>
   </g>
   <g id="line2d_15">
    <path d="M 120.404819 370.038545 
L 136.416748 363.363176 
L 141.754058 361.505303 
L 150.649574 358.563058 
L 154.20778 357.040457 
L 155.986884 356.095329 
L 157.765987 354.981402 
L 159.54509 353.66125 
L 161.324193 352.09616 
L 163.103296 350.247023 
L 164.8824 348.075308 
L 166.661503 345.544109 
L 168.440606 342.619224 
L 170.219709 339.27025 
L 171.998813 335.471642 
L 173.777916 331.203733 
L 175.557019 326.453647 
L 177.336122 321.216105 
L 179.115225 315.494084 
L 180.894329 309.29929 
L 184.452535 295.583428 
L 188.010741 280.342622 
L 191.568948 263.987025 
L 202.243567 213.836364 
L 205.801774 198.850862 
L 207.580877 192.02331 
L 209.35998 185.724786 
L 211.139083 180.010034 
L 212.918186 174.925007 
L 214.69729 170.506072 
L 216.476393 166.779451 
L 218.255496 163.760909 
L 220.034599 161.455705 
L 221.813703 159.8588 
L 223.592806 158.955317 
L 225.371909 158.721235 
L 227.151012 159.124292 
L 228.930115 160.125067 
L 230.709219 161.678197 
L 232.488322 163.733693 
L 234.267425 166.238313 
L 236.046528 169.136928 
L 237.825631 172.373861 
L 241.383838 179.644619 
L 244.942044 187.638551 
L 260.953973 224.790057 
L 266.291283 236.063409 
L 271.628593 246.57903 
L 275.186799 253.186225 
L 278.745005 259.477242 
L 282.303212 265.443625 
L 285.861418 271.062938 
L 289.419625 276.30169 
L 292.977831 281.12109 
L 296.536038 285.484178 
L 300.094244 289.362707 
L 303.65245 292.742348 
L 307.210657 295.625213 
L 310.768863 298.029387 
L 314.32707 299.985887 
L 317.885276 301.534019 
L 321.443483 302.716388 
L 325.001689 303.574666 
L 328.559895 304.146847 
L 332.118102 304.466153 
L 335.676308 304.561386 
L 339.234515 304.458258 
L 342.792721 304.181311 
L 348.130031 303.496889 
L 355.246444 302.25056 
L 364.14196 300.65756 
L 367.700166 300.187844 
L 371.258373 299.89531 
L 374.816579 299.814741 
L 378.374785 299.951654 
L 383.712095 300.476926 
L 389.049405 301.089514 
L 392.607611 301.289733 
L 394.386714 301.255888 
L 396.165818 301.098782 
L 397.944921 300.793224 
L 399.724024 300.315212 
L 401.503127 299.64279 
L 403.282231 298.75689 
L 405.061334 297.64217 
L 406.840437 296.287795 
L 408.61954 294.688159 
L 410.398643 292.843514 
L 412.177747 290.760488 
L 413.95685 288.452471 
L 417.515056 283.250125 
L 421.073263 277.483693 
L 426.410572 268.571159 
L 429.968779 263.114563 
L 431.747882 260.718668 
L 433.526985 258.628298 
L 435.306088 256.903711 
L 437.085192 255.601022 
L 438.864295 254.770566 
L 440.643398 254.455352 
L 442.422501 254.68966 
L 444.201604 255.49785 
L 445.980708 256.893438 
L 447.759811 258.87848 
L 449.538914 261.443302 
L 451.318017 264.566606 
L 453.097121 268.215937 
L 454.876224 272.348525 
L 456.655327 276.912447 
L 460.213533 287.089833 
L 463.77174 298.210305 
L 470.888153 321.012083 
L 474.446359 331.671989 
L 474.446359 331.671989 
" clip-path="url(#pde0af7ab46)" style="fill: none; stroke: #a3e301; stroke-width: 1.5; stroke-linecap: square"/>
   </g>
   <g id="line2d_16">
    <path d="M 75.235058 363.009791 
L 79.656122 351.130186 
L 81.866654 345.988008 
L 84.077186 341.969512 
L 86.287718 339.088216 
L 88.49825 337.1255 
L 90.708782 335.790866 
L 92.919314 334.830159 
L 97.340378 333.391824 
L 117.235167 327.786729 
L 126.077295 325.607206 
L 141.551019 321.20426 
L 148.182615 318.972044 
L 154.814211 316.777517 
L 165.866872 313.305741 
L 170.287936 311.732532 
L 174.709 309.958965 
L 183.551128 306.036414 
L 190.182724 302.851226 
L 196.81432 299.558532 
L 210.077512 293.263946 
L 214.498576 290.884939 
L 218.919641 288.240129 
L 223.340705 285.221685 
L 232.182833 278.922292 
L 245.446025 269.958447 
L 249.867089 266.316536 
L 256.498685 260.408631 
L 263.130281 254.116701 
L 267.551345 249.692868 
L 271.972409 244.991303 
L 283.02507 232.738873 
L 287.446134 227.726831 
L 289.656666 225.488329 
L 291.867198 223.749042 
L 294.07773 222.767912 
L 296.288262 222.708137 
L 298.498794 223.570903 
L 300.709326 225.199226 
L 302.919858 227.347662 
L 307.340922 232.296486 
L 313.972518 239.78016 
L 320.604114 246.992165 
L 329.446242 256.254659 
L 333.867306 260.547107 
L 338.288371 264.365933 
L 353.762095 276.709598 
L 358.183159 279.892545 
L 362.604223 282.612631 
L 367.025287 285.332854 
L 373.656883 289.657573 
L 378.077947 292.091805 
L 386.920075 296.478064 
L 395.762204 301.044753 
L 404.604332 305.363816 
L 409.025396 307.259327 
L 420.078056 311.632738 
L 424.49912 313.115918 
L 437.762312 317.257598 
L 444.393908 319.667532 
L 451.025504 322.0723 
L 455.446569 323.377666 
L 459.867633 324.445129 
L 466.499229 325.940989 
L 470.920293 327.140031 
L 479.762421 329.778021 
L 486.394017 331.383746 
L 490.815081 332.447209 
L 495.236145 333.724356 
L 497.446677 334.515332 
L 499.657209 335.51307 
L 501.867741 336.883778 
L 504.078273 338.8781 
L 506.288805 341.790728 
L 508.499337 345.844642 
L 510.70987 351.024659 
L 515.130934 362.963673 
L 515.130934 362.963673 
" clip-path="url(#pde0af7ab46)" style="fill: none; stroke-dasharray: 5.55,2.4; stroke-dashoffset: 0; stroke: #fc6983; stroke-width: 1.5"/>
   </g>
   <g id="patch_302">
    <path d="M 72 378 
L 72 51.84 
" style="fill: none; stroke: #000000; stroke-width: 0.8; stroke-linejoin: miter; stroke-linecap: square"/>
   </g>
   <g id="patch_303">
    <path d="M 518.4 378 
L 518.4 51.84 
" style="fill: none; stroke: #000000; stroke-width: 0.8; stroke-linejoin: miter; stroke-linecap: square"/>
   </g>
   <g id="patch_304">
    <path d="M 72 378 
L 518.4 378 
" style="fill: none; stroke: #000000; stroke-width: 0.8; stroke-linejoin: miter; stroke-linecap: square"/>
   </g>
   <g id="patch_305">
    <path d="M 72 51.84 
L 518.4 51.84 
" style="fill: none; stroke: #000000; stroke-width: 0.8; stroke-linejoin: miter; stroke-linecap: square"/>
   </g>
  </g>
 </g>
 <defs>
  <clipPath id="pde0af7ab46">
   <rect x="72" y="51.84" width="446.4" height="326.16"/>
  </clipPath>
 </defs>
</svg>
