<?xml version="1.0" encoding="utf-8" standalone="no"?>
<!DOCTYPE svg PUBLIC "-//W3C//DTD SVG 1.1//EN"
  "http://www.w3.org/Graphics/SVG/1.1/DTD/svg11.dtd">
<svg xmlns:xlink="http://www.w3.org/1999/xlink" width="576pt" height="432pt" viewBox="0 0 576 432" xmlns="http://www.w3.org/2000/svg" version="1.1">
 <metadata>
  <rdf:RDF xmlns:dc="http://purl.org/dc/elements/1.1/" xmlns:cc="http://creativecommons.org/ns#" xmlns:rdf="http://www.w3.org/1999/02/22-rdf-syntax-ns#">
   <cc:Work>
    <dc:type rdf:resource="http://purl.org/dc/dcmitype/StillImage"/>
    <dc:date>2022-07-29T12:04:25.230504</dc:date>
    <dc:format>image/svg+xml</dc:format>
    <dc:creator>
     <cc:Agent>
      <dc:title>Matplotlib v3.5.1, https://matplotlib.org/</dc:title>
     </cc:Agent>
    </dc:creator>
   </cc:Work>
  </rdf:RDF>
 </metadata>
 <defs>
  <style type="text/css">*{stroke-linejoin: round; stroke-linecap: butt}</style>
 </defs>
 <g id="figure_1">
  <g id="patch_1">
   <path d="M 0 432 
L 576 432 
L 576 0 
L 0 0 
L 0 432 
z
" style="fill: none"/>
  </g>
  <g id="axes_1">
   <g id="patch_2">
    <path d="M 72 378 
L 518.4 378 
L 518.4 51.84 
L 72 51.84 
z
" style="fill: #ffffff"/>
   </g>
   <g id="patch_3">
    <path d="M 126.776249 378 
L 130.080137 378 
L 130.080137 377.572725 
L 126.776249 377.572725 
z
" clip-path="url(#p99b8939432)" style="fill: #24b4b1; fill-opacity: 0.5"/>
   </g>
   <g id="patch_4">
    <path d="M 130.080137 378 
L 133.384025 378 
L 133.384025 378 
L 130.080137 378 
z
" clip-path="url(#p99b8939432)" style="fill: #24b4b1; fill-opacity: 0.5"/>
   </g>
   <g id="patch_5">
    <path d="M 133.384025 378 
L 136.687914 378 
L 136.687914 378 
L 133.384025 378 
z
" clip-path="url(#p99b8939432)" style="fill: #24b4b1; fill-opacity: 0.5"/>
   </g>
   <g id="patch_6">
    <path d="M 136.687914 378 
L 139.991802 378 
L 139.991802 378 
L 136.687914 378 
z
" clip-path="url(#p99b8939432)" style="fill: #24b4b1; fill-opacity: 0.5"/>
   </g>
   <g id="patch_7">
    <path d="M 139.991802 378 
L 143.29569 378 
L 143.29569 377.572725 
L 139.991802 377.572725 
z
" clip-path="url(#p99b8939432)" style="fill: #24b4b1; fill-opacity: 0.5"/>
   </g>
   <g id="patch_8">
    <path d="M 143.29569 378 
L 146.599578 378 
L 146.599578 377.572725 
L 143.29569 377.572725 
z
" clip-path="url(#p99b8939432)" style="fill: #24b4b1; fill-opacity: 0.5"/>
   </g>
   <g id="patch_9">
    <path d="M 146.599578 378 
L 149.903467 378 
L 149.903467 378 
L 146.599578 378 
z
" clip-path="url(#p99b8939432)" style="fill: #24b4b1; fill-opacity: 0.5"/>
   </g>
   <g id="patch_10">
    <path d="M 149.903467 378 
L 153.207355 378 
L 153.207355 377.145451 
L 149.903467 377.145451 
z
" clip-path="url(#p99b8939432)" style="fill: #24b4b1; fill-opacity: 0.5"/>
   </g>
   <g id="patch_11">
    <path d="M 153.207355 378 
L 156.511243 378 
L 156.511243 378 
L 153.207355 378 
z
" clip-path="url(#p99b8939432)" style="fill: #24b4b1; fill-opacity: 0.5"/>
   </g>
   <g id="patch_12">
    <path d="M 156.511243 378 
L 159.815131 378 
L 159.815131 377.145451 
L 156.511243 377.145451 
z
" clip-path="url(#p99b8939432)" style="fill: #24b4b1; fill-opacity: 0.5"/>
   </g>
   <g id="patch_13">
    <path d="M 159.815131 378 
L 163.11902 378 
L 163.11902 376.718176 
L 159.815131 376.718176 
z
" clip-path="url(#p99b8939432)" style="fill: #24b4b1; fill-opacity: 0.5"/>
   </g>
   <g id="patch_14">
    <path d="M 163.11902 378 
L 166.422908 378 
L 166.422908 376.718176 
L 163.11902 376.718176 
z
" clip-path="url(#p99b8939432)" style="fill: #24b4b1; fill-opacity: 0.5"/>
   </g>
   <g id="patch_15">
    <path d="M 166.422908 378 
L 169.726796 378 
L 169.726796 374.581804 
L 166.422908 374.581804 
z
" clip-path="url(#p99b8939432)" style="fill: #24b4b1; fill-opacity: 0.5"/>
   </g>
   <g id="patch_16">
    <path d="M 169.726796 378 
L 173.030685 378 
L 173.030685 372.872706 
L 169.726796 372.872706 
z
" clip-path="url(#p99b8939432)" style="fill: #24b4b1; fill-opacity: 0.5"/>
   </g>
   <g id="patch_17">
    <path d="M 173.030685 378 
L 176.334573 378 
L 176.334573 374.154529 
L 173.030685 374.154529 
z
" clip-path="url(#p99b8939432)" style="fill: #24b4b1; fill-opacity: 0.5"/>
   </g>
   <g id="patch_18">
    <path d="M 176.334573 378 
L 179.638461 378 
L 179.638461 372.445431 
L 176.334573 372.445431 
z
" clip-path="url(#p99b8939432)" style="fill: #24b4b1; fill-opacity: 0.5"/>
   </g>
   <g id="patch_19">
    <path d="M 179.638461 378 
L 182.942349 378 
L 182.942349 363.472667 
L 179.638461 363.472667 
z
" clip-path="url(#p99b8939432)" style="fill: #24b4b1; fill-opacity: 0.5"/>
   </g>
   <g id="patch_20">
    <path d="M 182.942349 378 
L 186.246238 378 
L 186.246238 356.209 
L 182.942349 356.209 
z
" clip-path="url(#p99b8939432)" style="fill: #24b4b1; fill-opacity: 0.5"/>
   </g>
   <g id="patch_21">
    <path d="M 186.246238 378 
L 189.550126 378 
L 189.550126 346.808961 
L 186.246238 346.808961 
z
" clip-path="url(#p99b8939432)" style="fill: #24b4b1; fill-opacity: 0.5"/>
   </g>
   <g id="patch_22">
    <path d="M 189.550126 378 
L 192.854014 378 
L 192.854014 340.827117 
L 189.550126 340.827117 
z
" clip-path="url(#p99b8939432)" style="fill: #24b4b1; fill-opacity: 0.5"/>
   </g>
   <g id="patch_23">
    <path d="M 192.854014 378 
L 196.157902 378 
L 196.157902 333.563451 
L 192.854014 333.563451 
z
" clip-path="url(#p99b8939432)" style="fill: #24b4b1; fill-opacity: 0.5"/>
   </g>
   <g id="patch_24">
    <path d="M 196.157902 378 
L 199.461791 378 
L 199.461791 339.118019 
L 196.157902 339.118019 
z
" clip-path="url(#p99b8939432)" style="fill: #24b4b1; fill-opacity: 0.5"/>
   </g>
   <g id="patch_25">
    <path d="M 199.461791 378 
L 202.765679 378 
L 202.765679 339.118019 
L 199.461791 339.118019 
z
" clip-path="url(#p99b8939432)" style="fill: #24b4b1; fill-opacity: 0.5"/>
   </g>
   <g id="patch_26">
    <path d="M 202.765679 378 
L 206.069567 378 
L 206.069567 343.390764 
L 202.765679 343.390764 
z
" clip-path="url(#p99b8939432)" style="fill: #24b4b1; fill-opacity: 0.5"/>
   </g>
   <g id="patch_27">
    <path d="M 206.069567 378 
L 209.373455 378 
L 209.373455 348.518059 
L 206.069567 348.518059 
z
" clip-path="url(#p99b8939432)" style="fill: #24b4b1; fill-opacity: 0.5"/>
   </g>
   <g id="patch_28">
    <path d="M 209.373455 378 
L 212.677344 378 
L 212.677344 354.499902 
L 209.373455 354.499902 
z
" clip-path="url(#p99b8939432)" style="fill: #24b4b1; fill-opacity: 0.5"/>
   </g>
   <g id="patch_29">
    <path d="M 212.677344 378 
L 215.981232 378 
L 215.981232 346.808961 
L 212.677344 346.808961 
z
" clip-path="url(#p99b8939432)" style="fill: #24b4b1; fill-opacity: 0.5"/>
   </g>
   <g id="patch_30">
    <path d="M 215.981232 378 
L 219.28512 378 
L 219.28512 342.108941 
L 215.981232 342.108941 
z
" clip-path="url(#p99b8939432)" style="fill: #24b4b1; fill-opacity: 0.5"/>
   </g>
   <g id="patch_31">
    <path d="M 219.28512 378 
L 222.589008 378 
L 222.589008 339.545294 
L 219.28512 339.545294 
z
" clip-path="url(#p99b8939432)" style="fill: #24b4b1; fill-opacity: 0.5"/>
   </g>
   <g id="patch_32">
    <path d="M 222.589008 378 
L 225.892897 378 
L 225.892897 333.136176 
L 222.589008 333.136176 
z
" clip-path="url(#p99b8939432)" style="fill: #24b4b1; fill-opacity: 0.5"/>
   </g>
   <g id="patch_33">
    <path d="M 225.892897 378 
L 229.196785 378 
L 229.196785 316.045196 
L 225.892897 316.045196 
z
" clip-path="url(#p99b8939432)" style="fill: #24b4b1; fill-opacity: 0.5"/>
   </g>
   <g id="patch_34">
    <path d="M 229.196785 378 
L 232.500673 378 
L 232.500673 310.917901 
L 229.196785 310.917901 
z
" clip-path="url(#p99b8939432)" style="fill: #24b4b1; fill-opacity: 0.5"/>
   </g>
   <g id="patch_35">
    <path d="M 232.500673 378 
L 235.804561 378 
L 235.804561 310.917901 
L 232.500673 310.917901 
z
" clip-path="url(#p99b8939432)" style="fill: #24b4b1; fill-opacity: 0.5"/>
   </g>
   <g id="patch_36">
    <path d="M 235.804561 378 
L 239.10845 378 
L 239.10845 278.017764 
L 235.804561 278.017764 
z
" clip-path="url(#p99b8939432)" style="fill: #24b4b1; fill-opacity: 0.5"/>
   </g>
   <g id="patch_37">
    <path d="M 239.10845 378 
L 242.412338 378 
L 242.412338 264.772254 
L 239.10845 264.772254 
z
" clip-path="url(#p99b8939432)" style="fill: #24b4b1; fill-opacity: 0.5"/>
   </g>
   <g id="patch_38">
    <path d="M 242.412338 378 
L 245.716226 378 
L 245.716226 235.290312 
L 242.412338 235.290312 
z
" clip-path="url(#p99b8939432)" style="fill: #24b4b1; fill-opacity: 0.5"/>
   </g>
   <g id="patch_39">
    <path d="M 245.716226 378 
L 249.020114 378 
L 249.020114 226.744822 
L 245.716226 226.744822 
z
" clip-path="url(#p99b8939432)" style="fill: #24b4b1; fill-opacity: 0.5"/>
   </g>
   <g id="patch_40">
    <path d="M 249.020114 378 
L 252.324003 378 
L 252.324003 207.517469 
L 249.020114 207.517469 
z
" clip-path="url(#p99b8939432)" style="fill: #24b4b1; fill-opacity: 0.5"/>
   </g>
   <g id="patch_41">
    <path d="M 252.324003 378 
L 255.627891 378 
L 255.627891 219.90843 
L 252.324003 219.90843 
z
" clip-path="url(#p99b8939432)" style="fill: #24b4b1; fill-opacity: 0.5"/>
   </g>
   <g id="patch_42">
    <path d="M 255.627891 378 
L 258.931779 378 
L 258.931779 242.126705 
L 255.627891 242.126705 
z
" clip-path="url(#p99b8939432)" style="fill: #24b4b1; fill-opacity: 0.5"/>
   </g>
   <g id="patch_43">
    <path d="M 258.931779 378 
L 262.235667 378 
L 262.235667 248.535822 
L 258.931779 248.535822 
z
" clip-path="url(#p99b8939432)" style="fill: #24b4b1; fill-opacity: 0.5"/>
   </g>
   <g id="patch_44">
    <path d="M 262.235667 378 
L 265.539556 378 
L 265.539556 270.754097 
L 262.235667 270.754097 
z
" clip-path="url(#p99b8939432)" style="fill: #24b4b1; fill-opacity: 0.5"/>
   </g>
   <g id="patch_45">
    <path d="M 265.539556 378 
L 268.843444 378 
L 268.843444 301.090588 
L 265.539556 301.090588 
z
" clip-path="url(#p99b8939432)" style="fill: #24b4b1; fill-opacity: 0.5"/>
   </g>
   <g id="patch_46">
    <path d="M 268.843444 378 
L 272.147332 378 
L 272.147332 301.945137 
L 268.843444 301.945137 
z
" clip-path="url(#p99b8939432)" style="fill: #24b4b1; fill-opacity: 0.5"/>
   </g>
   <g id="patch_47">
    <path d="M 272.147332 378 
L 275.45122 378 
L 275.45122 321.17249 
L 272.147332 321.17249 
z
" clip-path="url(#p99b8939432)" style="fill: #24b4b1; fill-opacity: 0.5"/>
   </g>
   <g id="patch_48">
    <path d="M 275.45122 378 
L 278.755109 378 
L 278.755109 323.736137 
L 275.45122 323.736137 
z
" clip-path="url(#p99b8939432)" style="fill: #24b4b1; fill-opacity: 0.5"/>
   </g>
   <g id="patch_49">
    <path d="M 278.755109 378 
L 282.058997 378 
L 282.058997 322.454313 
L 278.755109 322.454313 
z
" clip-path="url(#p99b8939432)" style="fill: #24b4b1; fill-opacity: 0.5"/>
   </g>
   <g id="patch_50">
    <path d="M 282.058997 378 
L 285.362885 378 
L 285.362885 311.77245 
L 282.058997 311.77245 
z
" clip-path="url(#p99b8939432)" style="fill: #24b4b1; fill-opacity: 0.5"/>
   </g>
   <g id="patch_51">
    <path d="M 285.362885 378 
L 288.666773 378 
L 288.666773 292.545097 
L 285.362885 292.545097 
z
" clip-path="url(#p99b8939432)" style="fill: #24b4b1; fill-opacity: 0.5"/>
   </g>
   <g id="patch_52">
    <path d="M 288.666773 378 
L 291.970662 378 
L 291.970662 197.262881 
L 288.666773 197.262881 
z
" clip-path="url(#p99b8939432)" style="fill: #24b4b1; fill-opacity: 0.5"/>
   </g>
   <g id="patch_53">
    <path d="M 291.970662 378 
L 295.27455 378 
L 295.27455 67.371429 
L 291.970662 67.371429 
z
" clip-path="url(#p99b8939432)" style="fill: #24b4b1; fill-opacity: 0.5"/>
   </g>
   <g id="patch_54">
    <path d="M 295.27455 378 
L 298.578438 378 
L 298.578438 147.271763 
L 295.27455 147.271763 
z
" clip-path="url(#p99b8939432)" style="fill: #24b4b1; fill-opacity: 0.5"/>
   </g>
   <g id="patch_55">
    <path d="M 298.578438 378 
L 301.882327 378 
L 301.882327 175.899155 
L 298.578438 175.899155 
z
" clip-path="url(#p99b8939432)" style="fill: #24b4b1; fill-opacity: 0.5"/>
   </g>
   <g id="patch_56">
    <path d="M 301.882327 378 
L 305.186215 378 
L 305.186215 245.117626 
L 301.882327 245.117626 
z
" clip-path="url(#p99b8939432)" style="fill: #24b4b1; fill-opacity: 0.5"/>
   </g>
   <g id="patch_57">
    <path d="M 305.186215 378 
L 308.490103 378 
L 308.490103 267.335901 
L 305.186215 267.335901 
z
" clip-path="url(#p99b8939432)" style="fill: #24b4b1; fill-opacity: 0.5"/>
   </g>
   <g id="patch_58">
    <path d="M 308.490103 378 
L 311.793991 378 
L 311.793991 295.963293 
L 308.490103 295.963293 
z
" clip-path="url(#p99b8939432)" style="fill: #24b4b1; fill-opacity: 0.5"/>
   </g>
   <g id="patch_59">
    <path d="M 311.793991 378 
L 315.09788 378 
L 315.09788 299.808764 
L 311.793991 299.808764 
z
" clip-path="url(#p99b8939432)" style="fill: #24b4b1; fill-opacity: 0.5"/>
   </g>
   <g id="patch_60">
    <path d="M 315.09788 378 
L 318.401768 378 
L 318.401768 295.963293 
L 315.09788 295.963293 
z
" clip-path="url(#p99b8939432)" style="fill: #24b4b1; fill-opacity: 0.5"/>
   </g>
   <g id="patch_61">
    <path d="M 318.401768 378 
L 321.705656 378 
L 321.705656 301.517862 
L 318.401768 301.517862 
z
" clip-path="url(#p99b8939432)" style="fill: #24b4b1; fill-opacity: 0.5"/>
   </g>
   <g id="patch_62">
    <path d="M 321.705656 378 
L 325.009544 378 
L 325.009544 293.399646 
L 321.705656 293.399646 
z
" clip-path="url(#p99b8939432)" style="fill: #24b4b1; fill-opacity: 0.5"/>
   </g>
   <g id="patch_63">
    <path d="M 325.009544 378 
L 328.313433 378 
L 328.313433 295.963293 
L 325.009544 295.963293 
z
" clip-path="url(#p99b8939432)" style="fill: #24b4b1; fill-opacity: 0.5"/>
   </g>
   <g id="patch_64">
    <path d="M 328.313433 378 
L 331.617321 378 
L 331.617321 289.126901 
L 328.313433 289.126901 
z
" clip-path="url(#p99b8939432)" style="fill: #24b4b1; fill-opacity: 0.5"/>
   </g>
   <g id="patch_65">
    <path d="M 331.617321 378 
L 334.921209 378 
L 334.921209 284.426882 
L 331.617321 284.426882 
z
" clip-path="url(#p99b8939432)" style="fill: #24b4b1; fill-opacity: 0.5"/>
   </g>
   <g id="patch_66">
    <path d="M 334.921209 378 
L 338.225097 378 
L 338.225097 253.663117 
L 334.921209 253.663117 
z
" clip-path="url(#p99b8939432)" style="fill: #24b4b1; fill-opacity: 0.5"/>
   </g>
   <g id="patch_67">
    <path d="M 338.225097 378 
L 341.528986 378 
L 341.528986 261.781332 
L 338.225097 261.781332 
z
" clip-path="url(#p99b8939432)" style="fill: #24b4b1; fill-opacity: 0.5"/>
   </g>
   <g id="patch_68">
    <path d="M 341.528986 378 
L 344.832874 378 
L 344.832874 261.781332 
L 341.528986 261.781332 
z
" clip-path="url(#p99b8939432)" style="fill: #24b4b1; fill-opacity: 0.5"/>
   </g>
   <g id="patch_69">
    <path d="M 344.832874 378 
L 348.136762 378 
L 348.136762 278.017764 
L 344.832874 278.017764 
z
" clip-path="url(#p99b8939432)" style="fill: #24b4b1; fill-opacity: 0.5"/>
   </g>
   <g id="patch_70">
    <path d="M 348.136762 378 
L 351.44065 378 
L 351.44065 284.426882 
L 348.136762 284.426882 
z
" clip-path="url(#p99b8939432)" style="fill: #24b4b1; fill-opacity: 0.5"/>
   </g>
   <g id="patch_71">
    <path d="M 351.44065 378 
L 354.744539 378 
L 354.744539 292.972372 
L 351.44065 292.972372 
z
" clip-path="url(#p99b8939432)" style="fill: #24b4b1; fill-opacity: 0.5"/>
   </g>
   <g id="patch_72">
    <path d="M 354.744539 378 
L 358.048427 378 
L 358.048427 285.708705 
L 354.744539 285.708705 
z
" clip-path="url(#p99b8939432)" style="fill: #24b4b1; fill-opacity: 0.5"/>
   </g>
   <g id="patch_73">
    <path d="M 358.048427 378 
L 361.352315 378 
L 361.352315 280.581411 
L 358.048427 280.581411 
z
" clip-path="url(#p99b8939432)" style="fill: #24b4b1; fill-opacity: 0.5"/>
   </g>
   <g id="patch_74">
    <path d="M 361.352315 378 
L 364.656203 378 
L 364.656203 285.708705 
L 361.352315 285.708705 
z
" clip-path="url(#p99b8939432)" style="fill: #24b4b1; fill-opacity: 0.5"/>
   </g>
   <g id="patch_75">
    <path d="M 364.656203 378 
L 367.960092 378 
L 367.960092 268.19045 
L 364.656203 268.19045 
z
" clip-path="url(#p99b8939432)" style="fill: #24b4b1; fill-opacity: 0.5"/>
   </g>
   <g id="patch_76">
    <path d="M 367.960092 378 
L 371.26398 378 
L 371.26398 268.617725 
L 367.960092 268.617725 
z
" clip-path="url(#p99b8939432)" style="fill: #24b4b1; fill-opacity: 0.5"/>
   </g>
   <g id="patch_77">
    <path d="M 371.26398 378 
L 374.567868 378 
L 374.567868 279.726862 
L 371.26398 279.726862 
z
" clip-path="url(#p99b8939432)" style="fill: #24b4b1; fill-opacity: 0.5"/>
   </g>
   <g id="patch_78">
    <path d="M 374.567868 378 
L 377.871756 378 
L 377.871756 270.326823 
L 374.567868 270.326823 
z
" clip-path="url(#p99b8939432)" style="fill: #24b4b1; fill-opacity: 0.5"/>
   </g>
   <g id="patch_79">
    <path d="M 377.871756 378 
L 381.175645 378 
L 381.175645 278.872313 
L 377.871756 278.872313 
z
" clip-path="url(#p99b8939432)" style="fill: #24b4b1; fill-opacity: 0.5"/>
   </g>
   <g id="patch_80">
    <path d="M 381.175645 378 
L 384.479533 378 
L 384.479533 303.654235 
L 381.175645 303.654235 
z
" clip-path="url(#p99b8939432)" style="fill: #24b4b1; fill-opacity: 0.5"/>
   </g>
   <g id="patch_81">
    <path d="M 384.479533 378 
L 387.783421 378 
L 387.783421 316.045196 
L 384.479533 316.045196 
z
" clip-path="url(#p99b8939432)" style="fill: #24b4b1; fill-opacity: 0.5"/>
   </g>
   <g id="patch_82">
    <path d="M 387.783421 378 
L 391.087309 378 
L 391.087309 335.272549 
L 387.783421 335.272549 
z
" clip-path="url(#p99b8939432)" style="fill: #24b4b1; fill-opacity: 0.5"/>
   </g>
   <g id="patch_83">
    <path d="M 391.087309 378 
L 394.391198 378 
L 394.391198 348.945333 
L 391.087309 348.945333 
z
" clip-path="url(#p99b8939432)" style="fill: #24b4b1; fill-opacity: 0.5"/>
   </g>
   <g id="patch_84">
    <path d="M 394.391198 378 
L 397.695086 378 
L 397.695086 360.909019 
L 394.391198 360.909019 
z
" clip-path="url(#p99b8939432)" style="fill: #24b4b1; fill-opacity: 0.5"/>
   </g>
   <g id="patch_85">
    <path d="M 397.695086 378 
L 400.998974 378 
L 400.998974 369.027235 
L 397.695086 369.027235 
z
" clip-path="url(#p99b8939432)" style="fill: #24b4b1; fill-opacity: 0.5"/>
   </g>
   <g id="patch_86">
    <path d="M 400.998974 378 
L 404.302862 378 
L 404.302862 372.018157 
L 400.998974 372.018157 
z
" clip-path="url(#p99b8939432)" style="fill: #24b4b1; fill-opacity: 0.5"/>
   </g>
   <g id="patch_87">
    <path d="M 404.302862 378 
L 407.606751 378 
L 407.606751 375.863627 
L 404.302862 375.863627 
z
" clip-path="url(#p99b8939432)" style="fill: #24b4b1; fill-opacity: 0.5"/>
   </g>
   <g id="patch_88">
    <path d="M 407.606751 378 
L 410.910639 378 
L 410.910639 374.581804 
L 407.606751 374.581804 
z
" clip-path="url(#p99b8939432)" style="fill: #24b4b1; fill-opacity: 0.5"/>
   </g>
   <g id="patch_89">
    <path d="M 410.910639 378 
L 414.214527 378 
L 414.214527 376.718176 
L 410.910639 376.718176 
z
" clip-path="url(#p99b8939432)" style="fill: #24b4b1; fill-opacity: 0.5"/>
   </g>
   <g id="patch_90">
    <path d="M 414.214527 378 
L 417.518416 378 
L 417.518416 376.718176 
L 414.214527 376.718176 
z
" clip-path="url(#p99b8939432)" style="fill: #24b4b1; fill-opacity: 0.5"/>
   </g>
   <g id="patch_91">
    <path d="M 417.518416 378 
L 420.822304 378 
L 420.822304 377.572725 
L 417.518416 377.572725 
z
" clip-path="url(#p99b8939432)" style="fill: #24b4b1; fill-opacity: 0.5"/>
   </g>
   <g id="patch_92">
    <path d="M 420.822304 378 
L 424.126192 378 
L 424.126192 378 
L 420.822304 378 
z
" clip-path="url(#p99b8939432)" style="fill: #24b4b1; fill-opacity: 0.5"/>
   </g>
   <g id="patch_93">
    <path d="M 424.126192 378 
L 427.43008 378 
L 427.43008 377.145451 
L 424.126192 377.145451 
z
" clip-path="url(#p99b8939432)" style="fill: #24b4b1; fill-opacity: 0.5"/>
   </g>
   <g id="patch_94">
    <path d="M 427.43008 378 
L 430.733969 378 
L 430.733969 378 
L 427.43008 378 
z
" clip-path="url(#p99b8939432)" style="fill: #24b4b1; fill-opacity: 0.5"/>
   </g>
   <g id="patch_95">
    <path d="M 430.733969 378 
L 434.037857 378 
L 434.037857 377.145451 
L 430.733969 377.145451 
z
" clip-path="url(#p99b8939432)" style="fill: #24b4b1; fill-opacity: 0.5"/>
   </g>
   <g id="patch_96">
    <path d="M 434.037857 378 
L 437.341745 378 
L 437.341745 376.290902 
L 434.037857 376.290902 
z
" clip-path="url(#p99b8939432)" style="fill: #24b4b1; fill-opacity: 0.5"/>
   </g>
   <g id="patch_97">
    <path d="M 437.341745 378 
L 440.645633 378 
L 440.645633 378 
L 437.341745 378 
z
" clip-path="url(#p99b8939432)" style="fill: #24b4b1; fill-opacity: 0.5"/>
   </g>
   <g id="patch_98">
    <path d="M 440.645633 378 
L 443.949522 378 
L 443.949522 378 
L 440.645633 378 
z
" clip-path="url(#p99b8939432)" style="fill: #24b4b1; fill-opacity: 0.5"/>
   </g>
   <g id="patch_99">
    <path d="M 443.949522 378 
L 447.25341 378 
L 447.25341 377.572725 
L 443.949522 377.572725 
z
" clip-path="url(#p99b8939432)" style="fill: #24b4b1; fill-opacity: 0.5"/>
   </g>
   <g id="patch_100">
    <path d="M 447.25341 378 
L 450.557298 378 
L 450.557298 378 
L 447.25341 378 
z
" clip-path="url(#p99b8939432)" style="fill: #24b4b1; fill-opacity: 0.5"/>
   </g>
   <g id="patch_101">
    <path d="M 450.557298 378 
L 453.861186 378 
L 453.861186 378 
L 450.557298 378 
z
" clip-path="url(#p99b8939432)" style="fill: #24b4b1; fill-opacity: 0.5"/>
   </g>
   <g id="patch_102">
    <path d="M 453.861186 378 
L 457.165075 378 
L 457.165075 377.572725 
L 453.861186 377.572725 
z
" clip-path="url(#p99b8939432)" style="fill: #24b4b1; fill-opacity: 0.5"/>
   </g>
   <g id="patch_103">
    <path d="M 124.614115 378 
L 128.02577 378 
L 128.02577 375.307547 
L 124.614115 375.307547 
L 124.614115 378 
z
" clip-path="url(#p99b8939432)" style="fill: none"/>
   </g>
   <g id="patch_104">
    <path d="M 128.02577 378 
L 131.437424 378 
L 131.437424 370.687717 
L 128.02577 370.687717 
L 128.02577 378 
z
" clip-path="url(#p99b8939432)" style="fill: none"/>
   </g>
   <g id="patch_105">
    <path d="M 131.437424 378 
L 134.849079 378 
L 134.849079 366.649659 
L 131.437424 366.649659 
L 131.437424 378 
z
" clip-path="url(#p99b8939432)" style="fill: none"/>
   </g>
   <g id="patch_106">
    <path d="M 134.849079 378 
L 138.260734 378 
L 138.260734 363.051446 
L 134.849079 363.051446 
L 134.849079 378 
z
" clip-path="url(#p99b8939432)" style="fill: none"/>
   </g>
   <g id="patch_107">
    <path d="M 138.260734 378 
L 141.672388 378 
L 141.672388 360.003145 
L 138.260734 360.003145 
L 138.260734 378 
z
" clip-path="url(#p99b8939432)" style="fill: none"/>
   </g>
   <g id="patch_108">
    <path d="M 141.672388 378 
L 145.084043 378 
L 145.084043 357.209316 
L 141.672388 357.209316 
L 141.672388 378 
z
" clip-path="url(#p99b8939432)" style="fill: none"/>
   </g>
   <g id="patch_109">
    <path d="M 145.084043 378 
L 148.495698 378 
L 148.495698 354.489554 
L 145.084043 354.489554 
L 145.084043 378 
z
" clip-path="url(#p99b8939432)" style="fill: none"/>
   </g>
   <g id="patch_110">
    <path d="M 148.495698 378 
L 151.907352 378 
L 151.907352 352.267981 
L 148.495698 352.267981 
L 148.495698 378 
z
" clip-path="url(#p99b8939432)" style="fill: none"/>
   </g>
   <g id="patch_111">
    <path d="M 151.907352 378 
L 155.319007 378 
L 155.319007 350.028615 
L 151.907352 350.028615 
L 151.907352 378 
z
" clip-path="url(#p99b8939432)" style="fill: none"/>
   </g>
   <g id="patch_112">
    <path d="M 155.319007 378 
L 158.730662 378 
L 158.730662 347.835178 
L 155.319007 347.835178 
L 155.319007 378 
z
" clip-path="url(#p99b8939432)" style="fill: none"/>
   </g>
   <g id="patch_113">
    <path d="M 158.730662 378 
L 162.142316 378 
L 162.142316 345.998418 
L 158.730662 345.998418 
L 158.730662 378 
z
" clip-path="url(#p99b8939432)" style="fill: none"/>
   </g>
   <g id="patch_114">
    <path d="M 162.142316 378 
L 165.553971 378 
L 165.553971 343.987458 
L 162.142316 343.987458 
L 162.142316 378 
z
" clip-path="url(#p99b8939432)" style="fill: none"/>
   </g>
   <g id="patch_115">
    <path d="M 165.553971 378 
L 168.965626 378 
L 168.965626 342.487513 
L 165.553971 342.487513 
L 165.553971 378 
z
" clip-path="url(#p99b8939432)" style="fill: none"/>
   </g>
   <g id="patch_116">
    <path d="M 168.965626 378 
L 172.37728 378 
L 172.37728 340.764542 
L 168.965626 340.764542 
L 168.965626 378 
z
" clip-path="url(#p99b8939432)" style="fill: none"/>
   </g>
   <g id="patch_117">
    <path d="M 172.37728 378 
L 175.788935 378 
L 175.788935 339.041571 
L 172.37728 339.041571 
L 172.37728 378 
z
" clip-path="url(#p99b8939432)" style="fill: none"/>
   </g>
   <g id="patch_118">
    <path d="M 175.788935 378 
L 179.20059 378 
L 179.20059 337.515144 
L 175.788935 337.515144 
L 175.788935 378 
z
" clip-path="url(#p99b8939432)" style="fill: none"/>
   </g>
   <g id="patch_119">
    <path d="M 179.20059 378 
L 182.612244 378 
L 182.612244 336.09299 
L 179.20059 336.09299 
L 179.20059 378 
z
" clip-path="url(#p99b8939432)" style="fill: none"/>
   </g>
   <g id="patch_120">
    <path d="M 182.612244 378 
L 186.023899 378 
L 186.023899 334.556219 
L 182.612244 334.556219 
L 182.612244 378 
z
" clip-path="url(#p99b8939432)" style="fill: none"/>
   </g>
   <g id="patch_121">
    <path d="M 186.023899 378 
L 189.435554 378 
L 189.435554 332.511742 
L 186.023899 332.511742 
L 186.023899 378 
z
" clip-path="url(#p99b8939432)" style="fill: none"/>
   </g>
   <g id="patch_122">
    <path d="M 189.435554 378 
L 192.847208 378 
L 192.847208 331.114414 
L 189.435554 331.114414 
L 189.435554 378 
z
" clip-path="url(#p99b8939432)" style="fill: none"/>
   </g>
   <g id="patch_123">
    <path d="M 192.847208 378 
L 196.258863 378 
L 196.258863 329.361651 
L 192.847208 329.361651 
L 192.847208 378 
z
" clip-path="url(#p99b8939432)" style="fill: none"/>
   </g>
   <g id="patch_124">
    <path d="M 196.258863 378 
L 199.670518 378 
L 199.670518 328.2159 
L 196.258863 328.2159 
L 196.258863 378 
z
" clip-path="url(#p99b8939432)" style="fill: none"/>
   </g>
   <g id="patch_125">
    <path d="M 199.670518 378 
L 203.082172 378 
L 203.082172 326.58396 
L 199.670518 326.58396 
L 199.670518 378 
z
" clip-path="url(#p99b8939432)" style="fill: none"/>
   </g>
   <g id="patch_126">
    <path d="M 203.082172 378 
L 206.493827 378 
L 206.493827 324.839059 
L 203.082172 324.839059 
L 203.082172 378 
z
" clip-path="url(#p99b8939432)" style="fill: none"/>
   </g>
   <g id="patch_127">
    <path d="M 206.493827 378 
L 209.905482 378 
L 209.905482 323.494281 
L 206.493827 323.494281 
L 206.493827 378 
z
" clip-path="url(#p99b8939432)" style="fill: none"/>
   </g>
   <g id="patch_128">
    <path d="M 209.905482 378 
L 213.317136 378 
L 213.317136 321.823032 
L 209.905482 321.823032 
L 209.905482 378 
z
" clip-path="url(#p99b8939432)" style="fill: none"/>
   </g>
   <g id="patch_129">
    <path d="M 213.317136 378 
L 216.728791 378 
L 216.728791 320.347086 
L 213.317136 320.347086 
L 213.317136 378 
z
" clip-path="url(#p99b8939432)" style="fill: none"/>
   </g>
   <g id="patch_130">
    <path d="M 216.728791 378 
L 220.140446 378 
L 220.140446 318.297644 
L 216.728791 318.297644 
L 216.728791 378 
z
" clip-path="url(#p99b8939432)" style="fill: none"/>
   </g>
   <g id="patch_131">
    <path d="M 220.140446 378 
L 223.5521 378 
L 223.5521 316.877558 
L 220.140446 316.877558 
L 220.140446 378 
z
" clip-path="url(#p99b8939432)" style="fill: none"/>
   </g>
   <g id="patch_132">
    <path d="M 223.5521 378 
L 226.963755 378 
L 226.963755 314.847564 
L 223.5521 314.847564 
L 223.5521 378 
z
" clip-path="url(#p99b8939432)" style="fill: none"/>
   </g>
   <g id="patch_133">
    <path d="M 226.963755 378 
L 230.37541 378 
L 230.37541 313.265278 
L 226.963755 313.265278 
L 226.963755 378 
z
" clip-path="url(#p99b8939432)" style="fill: none"/>
   </g>
   <g id="patch_134">
    <path d="M 230.37541 378 
L 233.787064 378 
L 233.787064 311.273351 
L 230.37541 311.273351 
L 230.37541 378 
z
" clip-path="url(#p99b8939432)" style="fill: none"/>
   </g>
   <g id="patch_135">
    <path d="M 233.787064 378 
L 237.198719 378 
L 237.198719 309.721684 
L 233.787064 309.721684 
L 233.787064 378 
z
" clip-path="url(#p99b8939432)" style="fill: none"/>
   </g>
   <g id="patch_136">
    <path d="M 237.198719 378 
L 240.610374 378 
L 240.610374 307.859683 
L 237.198719 307.859683 
L 237.198719 378 
z
" clip-path="url(#p99b8939432)" style="fill: none"/>
   </g>
   <g id="patch_137">
    <path d="M 240.610374 378 
L 244.022028 378 
L 244.022028 305.490391 
L 240.610374 305.490391 
L 240.610374 378 
z
" clip-path="url(#p99b8939432)" style="fill: none"/>
   </g>
   <g id="patch_138">
    <path d="M 244.022028 378 
L 247.433683 378 
L 247.433683 303.59984 
L 244.022028 303.59984 
L 244.022028 378 
z
" clip-path="url(#p99b8939432)" style="fill: none"/>
   </g>
   <g id="patch_139">
    <path d="M 247.433683 378 
L 250.845338 378 
L 250.845338 301.479228 
L 247.433683 301.479228 
L 247.433683 378 
z
" clip-path="url(#p99b8939432)" style="fill: none"/>
   </g>
   <g id="patch_140">
    <path d="M 250.845338 378 
L 254.256992 378 
L 254.256992 299.375168 
L 250.845338 299.375168 
L 250.845338 378 
z
" clip-path="url(#p99b8939432)" style="fill: none"/>
   </g>
   <g id="patch_141">
    <path d="M 254.256992 378 
L 257.668647 378 
L 257.668647 297.255384 
L 254.256992 297.255384 
L 254.256992 378 
z
" clip-path="url(#p99b8939432)" style="fill: none"/>
   </g>
   <g id="patch_142">
    <path d="M 257.668647 378 
L 261.080302 378 
L 261.080302 294.8443 
L 257.668647 294.8443 
L 257.668647 378 
z
" clip-path="url(#p99b8939432)" style="fill: none"/>
   </g>
   <g id="patch_143">
    <path d="M 261.080302 378 
L 264.491956 378 
L 264.491956 291.997094 
L 261.080302 291.997094 
L 261.080302 378 
z
" clip-path="url(#p99b8939432)" style="fill: none"/>
   </g>
   <g id="patch_144">
    <path d="M 264.491956 378 
L 267.903611 378 
L 267.903611 289.766832 
L 264.491956 289.766832 
L 264.491956 378 
z
" clip-path="url(#p99b8939432)" style="fill: none"/>
   </g>
   <g id="patch_145">
    <path d="M 267.903611 378 
L 271.315266 378 
L 271.315266 287.207615 
L 267.903611 287.207615 
L 267.903611 378 
z
" clip-path="url(#p99b8939432)" style="fill: none"/>
   </g>
   <g id="patch_146">
    <path d="M 271.315266 378 
L 274.72692 378 
L 274.72692 284.770877 
L 271.315266 284.770877 
L 271.315266 378 
z
" clip-path="url(#p99b8939432)" style="fill: none"/>
   </g>
   <g id="patch_147">
    <path d="M 274.72692 378 
L 278.138575 378 
L 278.138575 281.462309 
L 274.72692 281.462309 
L 274.72692 378 
z
" clip-path="url(#p99b8939432)" style="fill: none"/>
   </g>
   <g id="patch_148">
    <path d="M 278.138575 378 
L 281.55023 378 
L 281.55023 279.003227 
L 278.138575 279.003227 
L 278.138575 378 
z
" clip-path="url(#p99b8939432)" style="fill: none"/>
   </g>
   <g id="patch_149">
    <path d="M 281.55023 378 
L 284.961884 378 
L 284.961884 275.468737 
L 281.55023 275.468737 
L 281.55023 378 
z
" clip-path="url(#p99b8939432)" style="fill: none"/>
   </g>
   <g id="patch_150">
    <path d="M 284.961884 378 
L 288.373539 378 
L 288.373539 272.353403 
L 284.961884 272.353403 
L 284.961884 378 
z
" clip-path="url(#p99b8939432)" style="fill: none"/>
   </g>
   <g id="patch_151">
    <path d="M 288.373539 378 
L 291.785194 378 
L 291.785194 269.14828 
L 288.373539 269.14828 
L 288.373539 378 
z
" clip-path="url(#p99b8939432)" style="fill: none"/>
   </g>
   <g id="patch_152">
    <path d="M 291.785194 378 
L 295.196848 378 
L 295.196848 265.954742 
L 291.785194 265.954742 
L 291.785194 378 
z
" clip-path="url(#p99b8939432)" style="fill: none"/>
   </g>
   <g id="patch_153">
    <path d="M 295.196848 378 
L 298.608503 378 
L 298.608503 265.29187 
L 295.196848 265.29187 
L 295.196848 378 
z
" clip-path="url(#p99b8939432)" style="fill: none"/>
   </g>
   <g id="patch_154">
    <path d="M 298.608503 378 
L 302.020158 378 
L 302.020158 268.878496 
L 298.608503 268.878496 
L 298.608503 378 
z
" clip-path="url(#p99b8939432)" style="fill: none"/>
   </g>
   <g id="patch_155">
    <path d="M 302.020158 378 
L 305.431812 378 
L 305.431812 272.41547 
L 302.020158 272.41547 
L 302.020158 378 
z
" clip-path="url(#p99b8939432)" style="fill: none"/>
   </g>
   <g id="patch_156">
    <path d="M 305.431812 378 
L 308.843467 378 
L 308.843467 275.60818 
L 305.431812 275.60818 
L 305.431812 378 
z
" clip-path="url(#p99b8939432)" style="fill: none"/>
   </g>
   <g id="patch_157">
    <path d="M 308.843467 378 
L 312.255122 378 
L 312.255122 278.551796 
L 308.843467 278.551796 
L 308.843467 378 
z
" clip-path="url(#p99b8939432)" style="fill: none"/>
   </g>
   <g id="patch_158">
    <path d="M 312.255122 378 
L 315.666776 378 
L 315.666776 281.725058 
L 312.255122 281.725058 
L 312.255122 378 
z
" clip-path="url(#p99b8939432)" style="fill: none"/>
   </g>
   <g id="patch_159">
    <path d="M 315.666776 378 
L 319.078431 378 
L 319.078431 284.416683 
L 315.666776 284.416683 
L 315.666776 378 
z
" clip-path="url(#p99b8939432)" style="fill: none"/>
   </g>
   <g id="patch_160">
    <path d="M 319.078431 378 
L 322.490086 378 
L 322.490086 286.86749 
L 319.078431 286.86749 
L 319.078431 378 
z
" clip-path="url(#p99b8939432)" style="fill: none"/>
   </g>
   <g id="patch_161">
    <path d="M 322.490086 378 
L 325.90174 378 
L 325.90174 289.897172 
L 322.490086 289.897172 
L 322.490086 378 
z
" clip-path="url(#p99b8939432)" style="fill: none"/>
   </g>
   <g id="patch_162">
    <path d="M 325.90174 378 
L 329.313395 378 
L 329.313395 292.296256 
L 325.90174 292.296256 
L 325.90174 378 
z
" clip-path="url(#p99b8939432)" style="fill: none"/>
   </g>
   <g id="patch_163">
    <path d="M 329.313395 378 
L 332.72505 378 
L 332.72505 294.771475 
L 329.313395 294.771475 
L 329.313395 378 
z
" clip-path="url(#p99b8939432)" style="fill: none"/>
   </g>
   <g id="patch_164">
    <path d="M 332.72505 378 
L 336.136704 378 
L 336.136704 297.101045 
L 332.72505 297.101045 
L 332.72505 378 
z
" clip-path="url(#p99b8939432)" style="fill: none"/>
   </g>
   <g id="patch_165">
    <path d="M 336.136704 378 
L 339.548359 378 
L 339.548359 299.287861 
L 336.136704 299.287861 
L 336.136704 378 
z
" clip-path="url(#p99b8939432)" style="fill: none"/>
   </g>
   <g id="patch_166">
    <path d="M 339.548359 378 
L 342.960014 378 
L 342.960014 301.16393 
L 339.548359 301.16393 
L 339.548359 378 
z
" clip-path="url(#p99b8939432)" style="fill: none"/>
   </g>
   <g id="patch_167">
    <path d="M 342.960014 378 
L 346.371668 378 
L 346.371668 303.584116 
L 342.960014 303.584116 
L 342.960014 378 
z
" clip-path="url(#p99b8939432)" style="fill: none"/>
   </g>
   <g id="patch_168">
    <path d="M 346.371668 378 
L 349.783323 378 
L 349.783323 305.438669 
L 346.371668 305.438669 
L 346.371668 378 
z
" clip-path="url(#p99b8939432)" style="fill: none"/>
   </g>
   <g id="patch_169">
    <path d="M 349.783323 378 
L 353.194977 378 
L 353.194977 307.613485 
L 349.783323 307.613485 
L 349.783323 378 
z
" clip-path="url(#p99b8939432)" style="fill: none"/>
   </g>
   <g id="patch_170">
    <path d="M 353.194977 378 
L 356.606632 378 
L 356.606632 309.550794 
L 353.194977 309.550794 
L 353.194977 378 
z
" clip-path="url(#p99b8939432)" style="fill: none"/>
   </g>
   <g id="patch_171">
    <path d="M 356.606632 378 
L 360.018287 378 
L 360.018287 311.407001 
L 356.606632 311.407001 
L 356.606632 378 
z
" clip-path="url(#p99b8939432)" style="fill: none"/>
   </g>
   <g id="patch_172">
    <path d="M 360.018287 378 
L 363.429941 378 
L 363.429941 313.175902 
L 360.018287 313.175902 
L 360.018287 378 
z
" clip-path="url(#p99b8939432)" style="fill: none"/>
   </g>
   <g id="patch_173">
    <path d="M 363.429941 378 
L 366.841596 378 
L 366.841596 314.788808 
L 363.429941 314.788808 
L 363.429941 378 
z
" clip-path="url(#p99b8939432)" style="fill: none"/>
   </g>
   <g id="patch_174">
    <path d="M 366.841596 378 
L 370.253251 378 
L 370.253251 316.455091 
L 366.841596 316.455091 
L 366.841596 378 
z
" clip-path="url(#p99b8939432)" style="fill: none"/>
   </g>
   <g id="patch_175">
    <path d="M 370.253251 378 
L 373.664905 378 
L 373.664905 318.455707 
L 370.253251 318.455707 
L 370.253251 378 
z
" clip-path="url(#p99b8939432)" style="fill: none"/>
   </g>
   <g id="patch_176">
    <path d="M 373.664905 378 
L 377.07656 378 
L 377.07656 320.011926 
L 373.664905 320.011926 
L 373.664905 378 
z
" clip-path="url(#p99b8939432)" style="fill: none"/>
   </g>
   <g id="patch_177">
    <path d="M 377.07656 378 
L 380.488215 378 
L 380.488215 321.658348 
L 377.07656 321.658348 
L 377.07656 378 
z
" clip-path="url(#p99b8939432)" style="fill: none"/>
   </g>
   <g id="patch_178">
    <path d="M 380.488215 378 
L 383.899869 378 
L 383.899869 323.215808 
L 380.488215 323.215808 
L 380.488215 378 
z
" clip-path="url(#p99b8939432)" style="fill: none"/>
   </g>
   <g id="patch_179">
    <path d="M 383.899869 378 
L 387.311524 378 
L 387.311524 324.827059 
L 383.899869 324.827059 
L 383.899869 378 
z
" clip-path="url(#p99b8939432)" style="fill: none"/>
   </g>
   <g id="patch_180">
    <path d="M 387.311524 378 
L 390.723179 378 
L 390.723179 326.804504 
L 387.311524 326.804504 
L 387.311524 378 
z
" clip-path="url(#p99b8939432)" style="fill: none"/>
   </g>
   <g id="patch_181">
    <path d="M 390.723179 378 
L 394.134833 378 
L 394.134833 328.04501 
L 390.723179 328.04501 
L 390.723179 378 
z
" clip-path="url(#p99b8939432)" style="fill: none"/>
   </g>
   <g id="patch_182">
    <path d="M 394.134833 378 
L 397.546488 378 
L 397.546488 329.655847 
L 394.134833 329.655847 
L 394.134833 378 
z
" clip-path="url(#p99b8939432)" style="fill: none"/>
   </g>
   <g id="patch_183">
    <path d="M 397.546488 378 
L 400.958143 378 
L 400.958143 331.366819 
L 397.546488 331.366819 
L 397.546488 378 
z
" clip-path="url(#p99b8939432)" style="fill: none"/>
   </g>
   <g id="patch_184">
    <path d="M 400.958143 378 
L 404.369797 378 
L 404.369797 332.833661 
L 400.958143 332.833661 
L 400.958143 378 
z
" clip-path="url(#p99b8939432)" style="fill: none"/>
   </g>
   <g id="patch_185">
    <path d="M 404.369797 378 
L 407.781452 378 
L 407.781452 334.351812 
L 404.369797 334.351812 
L 404.369797 378 
z
" clip-path="url(#p99b8939432)" style="fill: none"/>
   </g>
   <g id="patch_186">
    <path d="M 407.781452 378 
L 411.193107 378 
L 411.193107 335.807069 
L 407.781452 335.807069 
L 407.781452 378 
z
" clip-path="url(#p99b8939432)" style="fill: none"/>
   </g>
   <g id="patch_187">
    <path d="M 411.193107 378 
L 414.604761 378 
L 414.604761 337.192398 
L 411.193107 337.192398 
L 411.193107 378 
z
" clip-path="url(#p99b8939432)" style="fill: none"/>
   </g>
   <g id="patch_188">
    <path d="M 414.604761 378 
L 418.016416 378 
L 418.016416 339.06557 
L 414.604761 339.06557 
L 414.604761 378 
z
" clip-path="url(#p99b8939432)" style="fill: none"/>
   </g>
   <g id="patch_189">
    <path d="M 418.016416 378 
L 421.428071 378 
L 421.428071 340.810885 
L 418.016416 340.810885 
L 418.016416 378 
z
" clip-path="url(#p99b8939432)" style="fill: none"/>
   </g>
   <g id="patch_190">
    <path d="M 421.428071 378 
L 424.839725 378 
L 424.839725 342.34476 
L 421.428071 342.34476 
L 421.428071 378 
z
" clip-path="url(#p99b8939432)" style="fill: none"/>
   </g>
   <g id="patch_191">
    <path d="M 424.839725 378 
L 428.25138 378 
L 428.25138 344.158762 
L 424.839725 344.158762 
L 424.839725 378 
z
" clip-path="url(#p99b8939432)" style="fill: none"/>
   </g>
   <g id="patch_192">
    <path d="M 428.25138 378 
L 431.663035 378 
L 431.663035 346.050554 
L 428.25138 346.050554 
L 428.25138 378 
z
" clip-path="url(#p99b8939432)" style="fill: none"/>
   </g>
   <g id="patch_193">
    <path d="M 431.663035 378 
L 435.074689 378 
L 435.074689 347.874487 
L 431.663035 347.874487 
L 431.663035 378 
z
" clip-path="url(#p99b8939432)" style="fill: none"/>
   </g>
   <g id="patch_194">
    <path d="M 435.074689 378 
L 438.486344 378 
L 438.486344 349.762556 
L 435.074689 349.762556 
L 435.074689 378 
z
" clip-path="url(#p99b8939432)" style="fill: none"/>
   </g>
   <g id="patch_195">
    <path d="M 438.486344 378 
L 441.897999 378 
L 441.897999 352.325082 
L 438.486344 352.325082 
L 438.486344 378 
z
" clip-path="url(#p99b8939432)" style="fill: none"/>
   </g>
   <g id="patch_196">
    <path d="M 441.897999 378 
L 445.309653 378 
L 445.309653 354.686926 
L 441.897999 354.686926 
L 441.897999 378 
z
" clip-path="url(#p99b8939432)" style="fill: none"/>
   </g>
   <g id="patch_197">
    <path d="M 445.309653 378 
L 448.721308 378 
L 448.721308 357.059529 
L 445.309653 357.059529 
L 445.309653 378 
z
" clip-path="url(#p99b8939432)" style="fill: none"/>
   </g>
   <g id="patch_198">
    <path d="M 448.721308 378 
L 452.132963 378 
L 452.132963 359.842599 
L 448.721308 359.842599 
L 448.721308 378 
z
" clip-path="url(#p99b8939432)" style="fill: none"/>
   </g>
   <g id="patch_199">
    <path d="M 452.132963 378 
L 455.544617 378 
L 455.544617 363.064273 
L 452.132963 363.064273 
L 452.132963 378 
z
" clip-path="url(#p99b8939432)" style="fill: none"/>
   </g>
   <g id="patch_200">
    <path d="M 455.544617 378 
L 458.956272 378 
L 458.956272 366.641383 
L 455.544617 366.641383 
L 455.544617 378 
z
" clip-path="url(#p99b8939432)" style="fill: none"/>
   </g>
   <g id="patch_201">
    <path d="M 458.956272 378 
L 462.367927 378 
L 462.367927 370.750198 
L 458.956272 370.750198 
L 458.956272 378 
z
" clip-path="url(#p99b8939432)" style="fill: none"/>
   </g>
   <g id="patch_202">
    <path d="M 462.367927 378 
L 465.779581 378 
L 465.779581 375.398578 
L 462.367927 375.398578 
L 462.367927 378 
z
" clip-path="url(#p99b8939432)" style="fill: none"/>
   </g>
   <g id="matplotlib.axis_1">
    <g id="xtick_1">
     <g id="line2d_1">
      <defs>
       <path id="m9ee607df2f" d="M 0 0 
L 0 3.5 
" style="stroke: #000000; stroke-width: 0.8"/>
      </defs>
      <g>
       <use xlink:href="#m9ee607df2f" x="72" y="378" style="stroke: #000000; stroke-width: 0.8"/>
      </g>
     </g>
     <g id="text_1">
      <!-- 0.00 -->
      <g transform="translate(60.867188 392.598437)scale(0.1 -0.1)">
       <defs>
        <path id="DejaVuSans-30" d="M 2034 4250 
Q 1547 4250 1301 3770 
Q 1056 3291 1056 2328 
Q 1056 1369 1301 889 
Q 1547 409 2034 409 
Q 2525 409 2770 889 
Q 3016 1369 3016 2328 
Q 3016 3291 2770 3770 
Q 2525 4250 2034 4250 
z
M 2034 4750 
Q 2819 4750 3233 4129 
Q 3647 3509 3647 2328 
Q 3647 1150 3233 529 
Q 2819 -91 2034 -91 
Q 1250 -91 836 529 
Q 422 1150 422 2328 
Q 422 3509 836 4129 
Q 1250 4750 2034 4750 
z
" transform="scale(0.015625)"/>
        <path id="DejaVuSans-2e" d="M 684 794 
L 1344 794 
L 1344 0 
L 684 0 
L 684 794 
z
" transform="scale(0.015625)"/>
       </defs>
       <use xlink:href="#DejaVuSans-30"/>
       <use xlink:href="#DejaVuSans-2e" x="63.623047"/>
       <use xlink:href="#DejaVuSans-30" x="95.410156"/>
       <use xlink:href="#DejaVuSans-30" x="159.033203"/>
      </g>
     </g>
    </g>
    <g id="xtick_2">
     <g id="line2d_2">
      <g>
       <use xlink:href="#m9ee607df2f" x="183.6" y="378" style="stroke: #000000; stroke-width: 0.8"/>
      </g>
     </g>
     <g id="text_2">
      <!-- 0.25 -->
      <g transform="translate(172.467187 392.598437)scale(0.1 -0.1)">
       <defs>
        <path id="DejaVuSans-32" d="M 1228 531 
L 3431 531 
L 3431 0 
L 469 0 
L 469 531 
Q 828 903 1448 1529 
Q 2069 2156 2228 2338 
Q 2531 2678 2651 2914 
Q 2772 3150 2772 3378 
Q 2772 3750 2511 3984 
Q 2250 4219 1831 4219 
Q 1534 4219 1204 4116 
Q 875 4013 500 3803 
L 500 4441 
Q 881 4594 1212 4672 
Q 1544 4750 1819 4750 
Q 2544 4750 2975 4387 
Q 3406 4025 3406 3419 
Q 3406 3131 3298 2873 
Q 3191 2616 2906 2266 
Q 2828 2175 2409 1742 
Q 1991 1309 1228 531 
z
" transform="scale(0.015625)"/>
        <path id="DejaVuSans-35" d="M 691 4666 
L 3169 4666 
L 3169 4134 
L 1269 4134 
L 1269 2991 
Q 1406 3038 1543 3061 
Q 1681 3084 1819 3084 
Q 2600 3084 3056 2656 
Q 3513 2228 3513 1497 
Q 3513 744 3044 326 
Q 2575 -91 1722 -91 
Q 1428 -91 1123 -41 
Q 819 9 494 109 
L 494 744 
Q 775 591 1075 516 
Q 1375 441 1709 441 
Q 2250 441 2565 725 
Q 2881 1009 2881 1497 
Q 2881 1984 2565 2268 
Q 2250 2553 1709 2553 
Q 1456 2553 1204 2497 
Q 953 2441 691 2322 
L 691 4666 
z
" transform="scale(0.015625)"/>
       </defs>
       <use xlink:href="#DejaVuSans-30"/>
       <use xlink:href="#DejaVuSans-2e" x="63.623047"/>
       <use xlink:href="#DejaVuSans-32" x="95.410156"/>
       <use xlink:href="#DejaVuSans-35" x="159.033203"/>
      </g>
     </g>
    </g>
    <g id="xtick_3">
     <g id="line2d_3">
      <g>
       <use xlink:href="#m9ee607df2f" x="295.2" y="378" style="stroke: #000000; stroke-width: 0.8"/>
      </g>
     </g>
     <g id="text_3">
      <!-- 0.50 -->
      <g transform="translate(284.067187 392.598437)scale(0.1 -0.1)">
       <use xlink:href="#DejaVuSans-30"/>
       <use xlink:href="#DejaVuSans-2e" x="63.623047"/>
       <use xlink:href="#DejaVuSans-35" x="95.410156"/>
       <use xlink:href="#DejaVuSans-30" x="159.033203"/>
      </g>
     </g>
    </g>
    <g id="xtick_4">
     <g id="line2d_4">
      <g>
       <use xlink:href="#m9ee607df2f" x="406.8" y="378" style="stroke: #000000; stroke-width: 0.8"/>
      </g>
     </g>
     <g id="text_4">
      <!-- 0.75 -->
      <g transform="translate(395.667187 392.598437)scale(0.1 -0.1)">
       <defs>
        <path id="DejaVuSans-37" d="M 525 4666 
L 3525 4666 
L 3525 4397 
L 1831 0 
L 1172 0 
L 2766 4134 
L 525 4134 
L 525 4666 
z
" transform="scale(0.015625)"/>
       </defs>
       <use xlink:href="#DejaVuSans-30"/>
       <use xlink:href="#DejaVuSans-2e" x="63.623047"/>
       <use xlink:href="#DejaVuSans-37" x="95.410156"/>
       <use xlink:href="#DejaVuSans-35" x="159.033203"/>
      </g>
     </g>
    </g>
    <g id="xtick_5">
     <g id="line2d_5">
      <g>
       <use xlink:href="#m9ee607df2f" x="518.4" y="378" style="stroke: #000000; stroke-width: 0.8"/>
      </g>
     </g>
     <g id="text_5">
      <!-- 1.00 -->
      <g transform="translate(507.267187 392.598437)scale(0.1 -0.1)">
       <defs>
        <path id="DejaVuSans-31" d="M 794 531 
L 1825 531 
L 1825 4091 
L 703 3866 
L 703 4441 
L 1819 4666 
L 2450 4666 
L 2450 531 
L 3481 531 
L 3481 0 
L 794 0 
L 794 531 
z
" transform="scale(0.015625)"/>
       </defs>
       <use xlink:href="#DejaVuSans-31"/>
       <use xlink:href="#DejaVuSans-2e" x="63.623047"/>
       <use xlink:href="#DejaVuSans-30" x="95.410156"/>
       <use xlink:href="#DejaVuSans-30" x="159.033203"/>
      </g>
     </g>
    </g>
    <g id="text_6">
     <!-- ratio_roeske -->
     <g transform="translate(264.697656 406.276563)scale(0.1 -0.1)">
      <defs>
       <path id="DejaVuSans-72" d="M 2631 2963 
Q 2534 3019 2420 3045 
Q 2306 3072 2169 3072 
Q 1681 3072 1420 2755 
Q 1159 2438 1159 1844 
L 1159 0 
L 581 0 
L 581 3500 
L 1159 3500 
L 1159 2956 
Q 1341 3275 1631 3429 
Q 1922 3584 2338 3584 
Q 2397 3584 2469 3576 
Q 2541 3569 2628 3553 
L 2631 2963 
z
" transform="scale(0.015625)"/>
       <path id="DejaVuSans-61" d="M 2194 1759 
Q 1497 1759 1228 1600 
Q 959 1441 959 1056 
Q 959 750 1161 570 
Q 1363 391 1709 391 
Q 2188 391 2477 730 
Q 2766 1069 2766 1631 
L 2766 1759 
L 2194 1759 
z
M 3341 1997 
L 3341 0 
L 2766 0 
L 2766 531 
Q 2569 213 2275 61 
Q 1981 -91 1556 -91 
Q 1019 -91 701 211 
Q 384 513 384 1019 
Q 384 1609 779 1909 
Q 1175 2209 1959 2209 
L 2766 2209 
L 2766 2266 
Q 2766 2663 2505 2880 
Q 2244 3097 1772 3097 
Q 1472 3097 1187 3025 
Q 903 2953 641 2809 
L 641 3341 
Q 956 3463 1253 3523 
Q 1550 3584 1831 3584 
Q 2591 3584 2966 3190 
Q 3341 2797 3341 1997 
z
" transform="scale(0.015625)"/>
       <path id="DejaVuSans-74" d="M 1172 4494 
L 1172 3500 
L 2356 3500 
L 2356 3053 
L 1172 3053 
L 1172 1153 
Q 1172 725 1289 603 
Q 1406 481 1766 481 
L 2356 481 
L 2356 0 
L 1766 0 
Q 1100 0 847 248 
Q 594 497 594 1153 
L 594 3053 
L 172 3053 
L 172 3500 
L 594 3500 
L 594 4494 
L 1172 4494 
z
" transform="scale(0.015625)"/>
       <path id="DejaVuSans-69" d="M 603 3500 
L 1178 3500 
L 1178 0 
L 603 0 
L 603 3500 
z
M 603 4863 
L 1178 4863 
L 1178 4134 
L 603 4134 
L 603 4863 
z
" transform="scale(0.015625)"/>
       <path id="DejaVuSans-6f" d="M 1959 3097 
Q 1497 3097 1228 2736 
Q 959 2375 959 1747 
Q 959 1119 1226 758 
Q 1494 397 1959 397 
Q 2419 397 2687 759 
Q 2956 1122 2956 1747 
Q 2956 2369 2687 2733 
Q 2419 3097 1959 3097 
z
M 1959 3584 
Q 2709 3584 3137 3096 
Q 3566 2609 3566 1747 
Q 3566 888 3137 398 
Q 2709 -91 1959 -91 
Q 1206 -91 779 398 
Q 353 888 353 1747 
Q 353 2609 779 3096 
Q 1206 3584 1959 3584 
z
" transform="scale(0.015625)"/>
       <path id="DejaVuSans-5f" d="M 3263 -1063 
L 3263 -1509 
L -63 -1509 
L -63 -1063 
L 3263 -1063 
z
" transform="scale(0.015625)"/>
       <path id="DejaVuSans-65" d="M 3597 1894 
L 3597 1613 
L 953 1613 
Q 991 1019 1311 708 
Q 1631 397 2203 397 
Q 2534 397 2845 478 
Q 3156 559 3463 722 
L 3463 178 
Q 3153 47 2828 -22 
Q 2503 -91 2169 -91 
Q 1331 -91 842 396 
Q 353 884 353 1716 
Q 353 2575 817 3079 
Q 1281 3584 2069 3584 
Q 2775 3584 3186 3129 
Q 3597 2675 3597 1894 
z
M 3022 2063 
Q 3016 2534 2758 2815 
Q 2500 3097 2075 3097 
Q 1594 3097 1305 2825 
Q 1016 2553 972 2059 
L 3022 2063 
z
" transform="scale(0.015625)"/>
       <path id="DejaVuSans-73" d="M 2834 3397 
L 2834 2853 
Q 2591 2978 2328 3040 
Q 2066 3103 1784 3103 
Q 1356 3103 1142 2972 
Q 928 2841 928 2578 
Q 928 2378 1081 2264 
Q 1234 2150 1697 2047 
L 1894 2003 
Q 2506 1872 2764 1633 
Q 3022 1394 3022 966 
Q 3022 478 2636 193 
Q 2250 -91 1575 -91 
Q 1294 -91 989 -36 
Q 684 19 347 128 
L 347 722 
Q 666 556 975 473 
Q 1284 391 1588 391 
Q 1994 391 2212 530 
Q 2431 669 2431 922 
Q 2431 1156 2273 1281 
Q 2116 1406 1581 1522 
L 1381 1569 
Q 847 1681 609 1914 
Q 372 2147 372 2553 
Q 372 3047 722 3315 
Q 1072 3584 1716 3584 
Q 2034 3584 2315 3537 
Q 2597 3491 2834 3397 
z
" transform="scale(0.015625)"/>
       <path id="DejaVuSans-6b" d="M 581 4863 
L 1159 4863 
L 1159 1991 
L 2875 3500 
L 3609 3500 
L 1753 1863 
L 3688 0 
L 2938 0 
L 1159 1709 
L 1159 0 
L 581 0 
L 581 4863 
z
" transform="scale(0.015625)"/>
      </defs>
      <use xlink:href="#DejaVuSans-72"/>
      <use xlink:href="#DejaVuSans-61" x="41.113281"/>
      <use xlink:href="#DejaVuSans-74" x="102.392578"/>
      <use xlink:href="#DejaVuSans-69" x="141.601562"/>
      <use xlink:href="#DejaVuSans-6f" x="169.384766"/>
      <use xlink:href="#DejaVuSans-5f" x="230.566406"/>
      <use xlink:href="#DejaVuSans-72" x="280.566406"/>
      <use xlink:href="#DejaVuSans-6f" x="319.429688"/>
      <use xlink:href="#DejaVuSans-65" x="380.611328"/>
      <use xlink:href="#DejaVuSans-73" x="442.134766"/>
      <use xlink:href="#DejaVuSans-6b" x="494.234375"/>
      <use xlink:href="#DejaVuSans-65" x="548.519531"/>
     </g>
    </g>
   </g>
   <g id="matplotlib.axis_2">
    <g id="ytick_1">
     <g id="line2d_6">
      <defs>
       <path id="m41166e12c7" d="M 0 0 
L -3.5 0 
" style="stroke: #000000; stroke-width: 0.8"/>
      </defs>
      <g>
       <use xlink:href="#m41166e12c7" x="72" y="378" style="stroke: #000000; stroke-width: 0.8"/>
      </g>
     </g>
     <g id="text_7">
      <!-- 0 -->
      <g transform="translate(58.6375 381.799219)scale(0.1 -0.1)">
       <use xlink:href="#DejaVuSans-30"/>
      </g>
     </g>
    </g>
    <g id="ytick_2">
     <g id="line2d_7">
      <g>
       <use xlink:href="#m41166e12c7" x="72" y="334.375561" style="stroke: #000000; stroke-width: 0.8"/>
      </g>
     </g>
     <g id="text_8">
      <!-- 1 -->
      <g transform="translate(58.6375 338.174779)scale(0.1 -0.1)">
       <use xlink:href="#DejaVuSans-31"/>
      </g>
     </g>
    </g>
    <g id="ytick_3">
     <g id="line2d_8">
      <g>
       <use xlink:href="#m41166e12c7" x="72" y="290.751121" style="stroke: #000000; stroke-width: 0.8"/>
      </g>
     </g>
     <g id="text_9">
      <!-- 2 -->
      <g transform="translate(58.6375 294.55034)scale(0.1 -0.1)">
       <use xlink:href="#DejaVuSans-32"/>
      </g>
     </g>
    </g>
    <g id="ytick_4">
     <g id="line2d_9">
      <g>
       <use xlink:href="#m41166e12c7" x="72" y="247.126682" style="stroke: #000000; stroke-width: 0.8"/>
      </g>
     </g>
     <g id="text_10">
      <!-- 3 -->
      <g transform="translate(58.6375 250.925901)scale(0.1 -0.1)">
       <defs>
        <path id="DejaVuSans-33" d="M 2597 2516 
Q 3050 2419 3304 2112 
Q 3559 1806 3559 1356 
Q 3559 666 3084 287 
Q 2609 -91 1734 -91 
Q 1441 -91 1130 -33 
Q 819 25 488 141 
L 488 750 
Q 750 597 1062 519 
Q 1375 441 1716 441 
Q 2309 441 2620 675 
Q 2931 909 2931 1356 
Q 2931 1769 2642 2001 
Q 2353 2234 1838 2234 
L 1294 2234 
L 1294 2753 
L 1863 2753 
Q 2328 2753 2575 2939 
Q 2822 3125 2822 3475 
Q 2822 3834 2567 4026 
Q 2313 4219 1838 4219 
Q 1578 4219 1281 4162 
Q 984 4106 628 3988 
L 628 4550 
Q 988 4650 1302 4700 
Q 1616 4750 1894 4750 
Q 2613 4750 3031 4423 
Q 3450 4097 3450 3541 
Q 3450 3153 3228 2886 
Q 3006 2619 2597 2516 
z
" transform="scale(0.015625)"/>
       </defs>
       <use xlink:href="#DejaVuSans-33"/>
      </g>
     </g>
    </g>
    <g id="ytick_5">
     <g id="line2d_10">
      <g>
       <use xlink:href="#m41166e12c7" x="72" y="203.502243" style="stroke: #000000; stroke-width: 0.8"/>
      </g>
     </g>
     <g id="text_11">
      <!-- 4 -->
      <g transform="translate(58.6375 207.301462)scale(0.1 -0.1)">
       <defs>
        <path id="DejaVuSans-34" d="M 2419 4116 
L 825 1625 
L 2419 1625 
L 2419 4116 
z
M 2253 4666 
L 3047 4666 
L 3047 1625 
L 3713 1625 
L 3713 1100 
L 3047 1100 
L 3047 0 
L 2419 0 
L 2419 1100 
L 313 1100 
L 313 1709 
L 2253 4666 
z
" transform="scale(0.015625)"/>
       </defs>
       <use xlink:href="#DejaVuSans-34"/>
      </g>
     </g>
    </g>
    <g id="ytick_6">
     <g id="line2d_11">
      <g>
       <use xlink:href="#m41166e12c7" x="72" y="159.877804" style="stroke: #000000; stroke-width: 0.8"/>
      </g>
     </g>
     <g id="text_12">
      <!-- 5 -->
      <g transform="translate(58.6375 163.677022)scale(0.1 -0.1)">
       <use xlink:href="#DejaVuSans-35"/>
      </g>
     </g>
    </g>
    <g id="ytick_7">
     <g id="line2d_12">
      <g>
       <use xlink:href="#m41166e12c7" x="72" y="116.253364" style="stroke: #000000; stroke-width: 0.8"/>
      </g>
     </g>
     <g id="text_13">
      <!-- 6 -->
      <g transform="translate(58.6375 120.052583)scale(0.1 -0.1)">
       <defs>
        <path id="DejaVuSans-36" d="M 2113 2584 
Q 1688 2584 1439 2293 
Q 1191 2003 1191 1497 
Q 1191 994 1439 701 
Q 1688 409 2113 409 
Q 2538 409 2786 701 
Q 3034 994 3034 1497 
Q 3034 2003 2786 2293 
Q 2538 2584 2113 2584 
z
M 3366 4563 
L 3366 3988 
Q 3128 4100 2886 4159 
Q 2644 4219 2406 4219 
Q 1781 4219 1451 3797 
Q 1122 3375 1075 2522 
Q 1259 2794 1537 2939 
Q 1816 3084 2150 3084 
Q 2853 3084 3261 2657 
Q 3669 2231 3669 1497 
Q 3669 778 3244 343 
Q 2819 -91 2113 -91 
Q 1303 -91 875 529 
Q 447 1150 447 2328 
Q 447 3434 972 4092 
Q 1497 4750 2381 4750 
Q 2619 4750 2861 4703 
Q 3103 4656 3366 4563 
z
" transform="scale(0.015625)"/>
       </defs>
       <use xlink:href="#DejaVuSans-36"/>
      </g>
     </g>
    </g>
    <g id="ytick_8">
     <g id="line2d_13">
      <g>
       <use xlink:href="#m41166e12c7" x="72" y="72.628925" style="stroke: #000000; stroke-width: 0.8"/>
      </g>
     </g>
     <g id="text_14">
      <!-- 7 -->
      <g transform="translate(58.6375 76.428144)scale(0.1 -0.1)">
       <use xlink:href="#DejaVuSans-37"/>
      </g>
     </g>
    </g>
    <g id="text_15">
     <!-- Density -->
     <g transform="translate(52.557812 233.928594)rotate(-90)scale(0.1 -0.1)">
      <defs>
       <path id="DejaVuSans-44" d="M 1259 4147 
L 1259 519 
L 2022 519 
Q 2988 519 3436 956 
Q 3884 1394 3884 2338 
Q 3884 3275 3436 3711 
Q 2988 4147 2022 4147 
L 1259 4147 
z
M 628 4666 
L 1925 4666 
Q 3281 4666 3915 4102 
Q 4550 3538 4550 2338 
Q 4550 1131 3912 565 
Q 3275 0 1925 0 
L 628 0 
L 628 4666 
z
" transform="scale(0.015625)"/>
       <path id="DejaVuSans-6e" d="M 3513 2113 
L 3513 0 
L 2938 0 
L 2938 2094 
Q 2938 2591 2744 2837 
Q 2550 3084 2163 3084 
Q 1697 3084 1428 2787 
Q 1159 2491 1159 1978 
L 1159 0 
L 581 0 
L 581 3500 
L 1159 3500 
L 1159 2956 
Q 1366 3272 1645 3428 
Q 1925 3584 2291 3584 
Q 2894 3584 3203 3211 
Q 3513 2838 3513 2113 
z
" transform="scale(0.015625)"/>
       <path id="DejaVuSans-79" d="M 2059 -325 
Q 1816 -950 1584 -1140 
Q 1353 -1331 966 -1331 
L 506 -1331 
L 506 -850 
L 844 -850 
Q 1081 -850 1212 -737 
Q 1344 -625 1503 -206 
L 1606 56 
L 191 3500 
L 800 3500 
L 1894 763 
L 2988 3500 
L 3597 3500 
L 2059 -325 
z
" transform="scale(0.015625)"/>
      </defs>
      <use xlink:href="#DejaVuSans-44"/>
      <use xlink:href="#DejaVuSans-65" x="77.001953"/>
      <use xlink:href="#DejaVuSans-6e" x="138.525391"/>
      <use xlink:href="#DejaVuSans-73" x="201.904297"/>
      <use xlink:href="#DejaVuSans-69" x="254.003906"/>
      <use xlink:href="#DejaVuSans-74" x="281.787109"/>
      <use xlink:href="#DejaVuSans-79" x="320.996094"/>
     </g>
    </g>
   </g>
   <g id="line2d_14">
    <path d="M 126.776249 377.908328 
L 143.378702 377.734017 
L 150.019684 377.503292 
L 155.00042 377.148789 
L 158.320911 376.749221 
L 161.641401 376.150292 
L 164.961892 375.267852 
L 166.622137 374.681432 
L 168.282383 373.968707 
L 169.942628 373.101562 
L 171.602874 372.048553 
L 173.263119 370.777982 
L 174.923364 369.262508 
L 176.58361 367.484758 
L 178.243855 365.443016 
L 179.9041 363.155851 
L 183.224591 358.033425 
L 186.545082 352.696724 
L 188.205327 350.189107 
L 189.865572 347.919982 
L 191.525818 345.973959 
L 193.186063 344.414884 
L 194.846308 343.279845 
L 196.506554 342.575489 
L 198.166799 342.276875 
L 199.827045 342.32887 
L 201.48729 342.649966 
L 206.468026 344.154899 
L 208.128271 344.452173 
L 209.788517 344.471602 
L 211.448762 344.132746 
L 213.109007 343.376977 
L 214.769253 342.166939 
L 216.429498 340.483233 
L 218.089743 338.319362 
L 219.749989 335.676151 
L 221.410234 332.556736 
L 223.07048 328.962854 
L 224.730725 324.892851 
L 226.39097 320.3417 
L 228.051216 315.303316 
L 229.711461 309.775419 
L 231.371706 303.766943 
L 234.692197 290.456754 
L 241.333178 261.769897 
L 242.993424 255.27763 
L 244.653669 249.541157 
L 246.313914 244.798298 
L 247.97416 241.254007 
L 249.634405 239.063832 
L 251.294651 238.32182 
L 252.954896 239.053827 
L 254.615141 241.216356 
L 256.275387 244.700319 
L 257.935632 249.338694 
L 259.595877 254.916788 
L 262.916368 267.865262 
L 266.236859 281.314961 
L 267.897104 287.501332 
L 269.557349 292.946672 
L 271.217595 297.369901 
L 272.87784 300.49286 
L 274.538086 302.04127 
L 276.198331 301.752397 
L 277.858576 299.393641 
L 279.518822 294.794368 
L 281.179067 287.889655 
L 282.839312 278.769793 
L 284.499558 267.724532 
L 287.820048 242.132263 
L 289.480294 229.217217 
L 291.140539 217.504125 
L 292.800784 207.937452 
L 294.46103 201.299584 
L 296.121275 198.102186 
L 297.78152 198.517338 
L 299.441766 202.362799 
L 301.102011 209.143208 
L 302.762257 218.13634 
L 306.082747 239.407498 
L 307.742993 250.098191 
L 309.403238 259.985534 
L 311.063483 268.663055 
L 312.723729 275.905163 
L 314.383974 281.640451 
L 316.044219 285.912527 
L 317.704465 288.838271 
L 319.36471 290.571021 
L 321.024955 291.273303 
L 322.685201 291.100901 
L 324.345446 290.197701 
L 326.005692 288.69897 
L 327.665937 286.739455 
L 330.986428 282.023645 
L 334.306918 277.345652 
L 335.967164 275.44429 
L 337.627409 274.025327 
L 339.287654 273.179176 
L 340.9479 272.938081 
L 342.608145 273.27138 
L 344.26839 274.089901 
L 345.928636 275.258679 
L 350.909372 279.234597 
L 352.569617 280.219445 
L 354.229863 280.865848 
L 355.890108 281.140842 
L 357.550353 281.059459 
L 359.210599 280.680068 
L 362.531089 279.42632 
L 364.191335 278.802665 
L 365.85158 278.361001 
L 367.511825 278.231814 
L 369.172071 278.533789 
L 370.832316 279.369368 
L 372.492561 280.821712 
L 374.152807 282.952146 
L 375.813052 285.797346 
L 377.473298 289.366132 
L 379.133543 293.636417 
L 380.793788 298.553358 
L 382.454034 304.029818 
L 385.774524 316.17478 
L 390.75526 335.148688 
L 394.075751 346.616928 
L 395.735996 351.667015 
L 397.396242 356.178319 
L 399.056487 360.126142 
L 400.716733 363.51322 
L 402.376978 366.365349 
L 404.037223 368.725753 
L 405.697469 370.648934 
L 407.357714 372.194752 
L 409.017959 373.423321 
L 410.678205 374.391109 
L 412.33845 375.148357 
L 413.998695 375.737774 
L 417.319186 376.545538 
L 420.639677 377.013347 
L 423.960167 377.262402 
L 428.940904 377.401986 
L 442.222866 377.642488 
L 453.844584 377.864636 
L 457.165075 377.892358 
L 457.165075 377.892358 
" clip-path="url(#p99b8939432)" style="fill: none; stroke: #24b4b1; stroke-width: 1.5; stroke-linecap: square"/>
   </g>
   <g id="line2d_15">
    <path d="M 124.614115 376.307224 
L 126.328514 374.778267 
L 129.757313 370.767305 
L 133.186112 366.73522 
L 136.61491 363.148523 
L 140.043709 359.999233 
L 143.472508 357.169941 
L 146.901306 354.556876 
L 150.330105 352.177497 
L 155.473303 348.873883 
L 160.616501 345.879595 
L 165.759699 343.158353 
L 174.331696 339.015205 
L 188.04689 332.524117 
L 193.190088 330.136749 
L 201.762085 326.339075 
L 217.191679 319.103063 
L 237.764471 308.397103 
L 241.193269 306.357039 
L 256.622863 296.701586 
L 260.051662 294.222294 
L 265.19486 290.42606 
L 270.338058 286.672405 
L 273.766857 283.943926 
L 278.910055 279.556916 
L 284.053253 274.802274 
L 289.196451 269.989326 
L 290.91085 268.492952 
L 292.625249 267.193894 
L 294.339649 266.332766 
L 296.054048 266.190169 
L 297.768447 266.862258 
L 299.482847 268.163395 
L 304.626045 273.17227 
L 309.769243 277.936855 
L 314.912441 282.401764 
L 328.627635 293.046116 
L 333.770833 296.574292 
L 338.914031 299.877082 
L 350.914826 307.213975 
L 357.772424 311.09396 
L 374.916417 319.793667 
L 392.06041 327.991759 
L 416.062001 338.912941 
L 429.777195 345.930734 
L 434.920393 348.814032 
L 438.349192 350.995778 
L 445.206789 355.837196 
L 448.635588 358.482733 
L 452.064387 361.453297 
L 455.493185 364.87117 
L 458.921984 368.738871 
L 464.065182 374.832709 
L 465.779581 376.347533 
L 465.779581 376.347533 
" clip-path="url(#p99b8939432)" style="fill: none; stroke-dasharray: 5.55,2.4; stroke-dashoffset: 0; stroke: #fc6983; stroke-width: 1.5"/>
   </g>
   <g id="patch_203">
    <path d="M 72 378 
L 72 51.84 
" style="fill: none; stroke: #000000; stroke-width: 0.8; stroke-linejoin: miter; stroke-linecap: square"/>
   </g>
   <g id="patch_204">
    <path d="M 518.4 378 
L 518.4 51.84 
" style="fill: none; stroke: #000000; stroke-width: 0.8; stroke-linejoin: miter; stroke-linecap: square"/>
   </g>
   <g id="patch_205">
    <path d="M 72 378 
L 518.4 378 
" style="fill: none; stroke: #000000; stroke-width: 0.8; stroke-linejoin: miter; stroke-linecap: square"/>
   </g>
   <g id="patch_206">
    <path d="M 72 51.84 
L 518.4 51.84 
" style="fill: none; stroke: #000000; stroke-width: 0.8; stroke-linejoin: miter; stroke-linecap: square"/>
   </g>
  </g>
 </g>
 <defs>
  <clipPath id="p99b8939432">
   <rect x="72" y="51.84" width="446.4" height="326.16"/>
  </clipPath>
 </defs>
</svg>
