<?xml version="1.0" encoding="utf-8" standalone="no"?>
<!DOCTYPE svg PUBLIC "-//W3C//DTD SVG 1.1//EN"
  "http://www.w3.org/Graphics/SVG/1.1/DTD/svg11.dtd">
<svg xmlns:xlink="http://www.w3.org/1999/xlink" width="576pt" height="432pt" viewBox="0 0 576 432" xmlns="http://www.w3.org/2000/svg" version="1.1">
 <metadata>
  <rdf:RDF xmlns:dc="http://purl.org/dc/elements/1.1/" xmlns:cc="http://creativecommons.org/ns#" xmlns:rdf="http://www.w3.org/1999/02/22-rdf-syntax-ns#">
   <cc:Work>
    <dc:type rdf:resource="http://purl.org/dc/dcmitype/StillImage"/>
    <dc:date>2022-03-21T07:00:29.223140</dc:date>
    <dc:format>image/svg+xml</dc:format>
    <dc:creator>
     <cc:Agent>
      <dc:title>Matplotlib v3.5.1, https://matplotlib.org/</dc:title>
     </cc:Agent>
    </dc:creator>
   </cc:Work>
  </rdf:RDF>
 </metadata>
 <defs>
  <style type="text/css">*{stroke-linejoin: round; stroke-linecap: butt}</style>
 </defs>
 <g id="figure_1">
  <g id="patch_1">
   <path d="M 0 432 
L 576 432 
L 576 0 
L 0 0 
L 0 432 
z
" style="fill: none"/>
  </g>
  <g id="axes_1">
   <g id="patch_2">
    <path d="M 72 378 
L 518.4 378 
L 518.4 51.84 
L 72 51.84 
z
" style="fill: #ffffff"/>
   </g>
   <g id="patch_3">
    <path d="M 77.695189 378 
L 81.958405 378 
L 81.958405 374.695441 
L 77.695189 374.695441 
z
" clip-path="url(#p5a69268c20)" style="fill: #a3e301"/>
   </g>
   <g id="patch_4">
    <path d="M 81.958405 378 
L 86.221621 378 
L 86.221621 375.79696 
L 81.958405 375.79696 
z
" clip-path="url(#p5a69268c20)" style="fill: #a3e301"/>
   </g>
   <g id="patch_5">
    <path d="M 86.221621 378 
L 90.484836 378 
L 90.484836 376.89848 
L 86.221621 376.89848 
z
" clip-path="url(#p5a69268c20)" style="fill: #a3e301"/>
   </g>
   <g id="patch_6">
    <path d="M 90.484836 378 
L 94.748052 378 
L 94.748052 375.79696 
L 90.484836 375.79696 
z
" clip-path="url(#p5a69268c20)" style="fill: #a3e301"/>
   </g>
   <g id="patch_7">
    <path d="M 94.748052 378 
L 99.011268 378 
L 99.011268 368.086322 
L 94.748052 368.086322 
z
" clip-path="url(#p5a69268c20)" style="fill: #a3e301"/>
   </g>
   <g id="patch_8">
    <path d="M 99.011268 378 
L 103.274484 378 
L 103.274484 358.172644 
L 99.011268 358.172644 
z
" clip-path="url(#p5a69268c20)" style="fill: #a3e301"/>
   </g>
   <g id="patch_9">
    <path d="M 103.274484 378 
L 107.5377 378 
L 107.5377 357.071125 
L 103.274484 357.071125 
z
" clip-path="url(#p5a69268c20)" style="fill: #a3e301"/>
   </g>
   <g id="patch_10">
    <path d="M 107.5377 378 
L 111.800916 378 
L 111.800916 355.969605 
L 107.5377 355.969605 
z
" clip-path="url(#p5a69268c20)" style="fill: #a3e301"/>
   </g>
   <g id="patch_11">
    <path d="M 111.800916 378 
L 116.064131 378 
L 116.064131 348.258967 
L 111.800916 348.258967 
z
" clip-path="url(#p5a69268c20)" style="fill: #a3e301"/>
   </g>
   <g id="patch_12">
    <path d="M 116.064131 378 
L 120.327347 378 
L 120.327347 349.360486 
L 116.064131 349.360486 
z
" clip-path="url(#p5a69268c20)" style="fill: #a3e301"/>
   </g>
   <g id="patch_13">
    <path d="M 120.327347 378 
L 124.590563 378 
L 124.590563 352.665046 
L 120.327347 352.665046 
z
" clip-path="url(#p5a69268c20)" style="fill: #a3e301"/>
   </g>
   <g id="patch_14">
    <path d="M 124.590563 378 
L 128.853779 378 
L 128.853779 344.954407 
L 124.590563 344.954407 
z
" clip-path="url(#p5a69268c20)" style="fill: #a3e301"/>
   </g>
   <g id="patch_15">
    <path d="M 128.853779 378 
L 133.116995 378 
L 133.116995 337.243769 
L 128.853779 337.243769 
z
" clip-path="url(#p5a69268c20)" style="fill: #a3e301"/>
   </g>
   <g id="patch_16">
    <path d="M 133.116995 378 
L 137.380211 378 
L 137.380211 311.908815 
L 133.116995 311.908815 
z
" clip-path="url(#p5a69268c20)" style="fill: #a3e301"/>
   </g>
   <g id="patch_17">
    <path d="M 137.380211 378 
L 141.643426 378 
L 141.643426 294.284498 
L 137.380211 294.284498 
z
" clip-path="url(#p5a69268c20)" style="fill: #a3e301"/>
   </g>
   <g id="patch_18">
    <path d="M 141.643426 378 
L 145.906642 378 
L 145.906642 270.051064 
L 141.643426 270.051064 
z
" clip-path="url(#p5a69268c20)" style="fill: #a3e301"/>
   </g>
   <g id="patch_19">
    <path d="M 145.906642 378 
L 150.169858 378 
L 150.169858 244.716109 
L 145.906642 244.716109 
z
" clip-path="url(#p5a69268c20)" style="fill: #a3e301"/>
   </g>
   <g id="patch_20">
    <path d="M 150.169858 378 
L 154.433074 378 
L 154.433074 205.061398 
L 150.169858 205.061398 
z
" clip-path="url(#p5a69268c20)" style="fill: #a3e301"/>
   </g>
   <g id="patch_21">
    <path d="M 154.433074 378 
L 158.69629 378 
L 158.69629 200.655319 
L 154.433074 200.655319 
z
" clip-path="url(#p5a69268c20)" style="fill: #a3e301"/>
   </g>
   <g id="patch_22">
    <path d="M 158.69629 378 
L 162.959506 378 
L 162.959506 148.883891 
L 158.69629 148.883891 
z
" clip-path="url(#p5a69268c20)" style="fill: #a3e301"/>
   </g>
   <g id="patch_23">
    <path d="M 162.959506 378 
L 167.222721 378 
L 167.222721 147.782371 
L 162.959506 147.782371 
z
" clip-path="url(#p5a69268c20)" style="fill: #a3e301"/>
   </g>
   <g id="patch_24">
    <path d="M 167.222721 378 
L 171.485937 378 
L 171.485937 116.939818 
L 167.222721 116.939818 
z
" clip-path="url(#p5a69268c20)" style="fill: #a3e301"/>
   </g>
   <g id="patch_25">
    <path d="M 171.485937 378 
L 175.749153 378 
L 175.749153 134.564134 
L 171.485937 134.564134 
z
" clip-path="url(#p5a69268c20)" style="fill: #a3e301"/>
   </g>
   <g id="patch_26">
    <path d="M 175.749153 378 
L 180.012369 378 
L 180.012369 159.899088 
L 175.749153 159.899088 
z
" clip-path="url(#p5a69268c20)" style="fill: #a3e301"/>
   </g>
   <g id="patch_27">
    <path d="M 180.012369 378 
L 184.275585 378 
L 184.275585 154.391489 
L 180.012369 154.391489 
z
" clip-path="url(#p5a69268c20)" style="fill: #a3e301"/>
   </g>
   <g id="patch_28">
    <path d="M 184.275585 378 
L 188.538801 378 
L 188.538801 148.883891 
L 184.275585 148.883891 
z
" clip-path="url(#p5a69268c20)" style="fill: #a3e301"/>
   </g>
   <g id="patch_29">
    <path d="M 188.538801 378 
L 192.802016 378 
L 192.802016 183.031003 
L 188.538801 183.031003 
z
" clip-path="url(#p5a69268c20)" style="fill: #a3e301"/>
   </g>
   <g id="patch_30">
    <path d="M 192.802016 378 
L 197.065232 378 
L 197.065232 183.031003 
L 192.802016 183.031003 
z
" clip-path="url(#p5a69268c20)" style="fill: #a3e301"/>
   </g>
   <g id="patch_31">
    <path d="M 197.065232 378 
L 201.328448 378 
L 201.328448 151.08693 
L 197.065232 151.08693 
z
" clip-path="url(#p5a69268c20)" style="fill: #a3e301"/>
   </g>
   <g id="patch_32">
    <path d="M 201.328448 378 
L 205.591664 378 
L 205.591664 142.274772 
L 201.328448 142.274772 
z
" clip-path="url(#p5a69268c20)" style="fill: #a3e301"/>
   </g>
   <g id="patch_33">
    <path d="M 205.591664 378 
L 209.85488 378 
L 209.85488 115.838298 
L 205.591664 115.838298 
z
" clip-path="url(#p5a69268c20)" style="fill: #a3e301"/>
   </g>
   <g id="patch_34">
    <path d="M 209.85488 378 
L 214.118096 378 
L 214.118096 93.807903 
L 209.85488 93.807903 
z
" clip-path="url(#p5a69268c20)" style="fill: #a3e301"/>
   </g>
   <g id="patch_35">
    <path d="M 214.118096 378 
L 218.381311 378 
L 218.381311 80.589666 
L 214.118096 80.589666 
z
" clip-path="url(#p5a69268c20)" style="fill: #a3e301"/>
   </g>
   <g id="patch_36">
    <path d="M 218.381311 378 
L 222.644527 378 
L 222.644527 108.12766 
L 218.381311 108.12766 
z
" clip-path="url(#p5a69268c20)" style="fill: #a3e301"/>
   </g>
   <g id="patch_37">
    <path d="M 222.644527 378 
L 226.907743 378 
L 226.907743 125.751976 
L 222.644527 125.751976 
z
" clip-path="url(#p5a69268c20)" style="fill: #a3e301"/>
   </g>
   <g id="patch_38">
    <path d="M 226.907743 378 
L 231.170959 378 
L 231.170959 147.782371 
L 226.907743 147.782371 
z
" clip-path="url(#p5a69268c20)" style="fill: #a3e301"/>
   </g>
   <g id="patch_39">
    <path d="M 231.170959 378 
L 235.434175 378 
L 235.434175 153.28997 
L 231.170959 153.28997 
z
" clip-path="url(#p5a69268c20)" style="fill: #a3e301"/>
   </g>
   <g id="patch_40">
    <path d="M 235.434175 378 
L 239.697391 378 
L 239.697391 188.538602 
L 235.434175 188.538602 
z
" clip-path="url(#p5a69268c20)" style="fill: #a3e301"/>
   </g>
   <g id="patch_41">
    <path d="M 239.697391 378 
L 243.960606 378 
L 243.960606 184.132523 
L 239.697391 184.132523 
z
" clip-path="url(#p5a69268c20)" style="fill: #a3e301"/>
   </g>
   <g id="patch_42">
    <path d="M 243.960606 378 
L 248.223822 378 
L 248.223822 177.523404 
L 243.960606 177.523404 
z
" clip-path="url(#p5a69268c20)" style="fill: #a3e301"/>
   </g>
   <g id="patch_43">
    <path d="M 248.223822 378 
L 252.487038 378 
L 252.487038 199.553799 
L 248.223822 199.553799 
z
" clip-path="url(#p5a69268c20)" style="fill: #a3e301"/>
   </g>
   <g id="patch_44">
    <path d="M 252.487038 378 
L 256.750254 378 
L 256.750254 159.899088 
L 252.487038 159.899088 
z
" clip-path="url(#p5a69268c20)" style="fill: #a3e301"/>
   </g>
   <g id="patch_45">
    <path d="M 256.750254 378 
L 261.01347 378 
L 261.01347 134.564134 
L 256.750254 134.564134 
z
" clip-path="url(#p5a69268c20)" style="fill: #a3e301"/>
   </g>
   <g id="patch_46">
    <path d="M 261.01347 378 
L 265.276686 378 
L 265.276686 92.706383 
L 261.01347 92.706383 
z
" clip-path="url(#p5a69268c20)" style="fill: #a3e301"/>
   </g>
   <g id="patch_47">
    <path d="M 265.276686 378 
L 269.539901 378 
L 269.539901 67.371429 
L 265.276686 67.371429 
z
" clip-path="url(#p5a69268c20)" style="fill: #a3e301"/>
   </g>
   <g id="patch_48">
    <path d="M 269.539901 378 
L 273.803117 378 
L 273.803117 111.432219 
L 269.539901 111.432219 
z
" clip-path="url(#p5a69268c20)" style="fill: #a3e301"/>
   </g>
   <g id="patch_49">
    <path d="M 273.803117 378 
L 278.066333 378 
L 278.066333 114.736778 
L 273.803117 114.736778 
z
" clip-path="url(#p5a69268c20)" style="fill: #a3e301"/>
   </g>
   <g id="patch_50">
    <path d="M 278.066333 378 
L 282.329549 378 
L 282.329549 114.736778 
L 278.066333 114.736778 
z
" clip-path="url(#p5a69268c20)" style="fill: #a3e301"/>
   </g>
   <g id="patch_51">
    <path d="M 282.329549 378 
L 286.592765 378 
L 286.592765 159.899088 
L 282.329549 159.899088 
z
" clip-path="url(#p5a69268c20)" style="fill: #a3e301"/>
   </g>
   <g id="patch_52">
    <path d="M 286.592765 378 
L 290.855981 378 
L 290.855981 175.320365 
L 286.592765 175.320365 
z
" clip-path="url(#p5a69268c20)" style="fill: #a3e301"/>
   </g>
   <g id="patch_53">
    <path d="M 290.855981 378 
L 295.119196 378 
L 295.119196 249.122188 
L 290.855981 249.122188 
z
" clip-path="url(#p5a69268c20)" style="fill: #a3e301"/>
   </g>
   <g id="patch_54">
    <path d="M 295.119196 378 
L 299.382412 378 
L 299.382412 260.137386 
L 295.119196 260.137386 
z
" clip-path="url(#p5a69268c20)" style="fill: #a3e301"/>
   </g>
   <g id="patch_55">
    <path d="M 299.382412 378 
L 303.645628 378 
L 303.645628 277.761702 
L 299.382412 277.761702 
z
" clip-path="url(#p5a69268c20)" style="fill: #a3e301"/>
   </g>
   <g id="patch_56">
    <path d="M 303.645628 378 
L 307.908844 378 
L 307.908844 289.878419 
L 303.645628 289.878419 
z
" clip-path="url(#p5a69268c20)" style="fill: #a3e301"/>
   </g>
   <g id="patch_57">
    <path d="M 307.908844 378 
L 312.17206 378 
L 312.17206 306.401216 
L 307.908844 306.401216 
z
" clip-path="url(#p5a69268c20)" style="fill: #a3e301"/>
   </g>
   <g id="patch_58">
    <path d="M 312.17206 378 
L 316.435276 378 
L 316.435276 321.822492 
L 312.17206 321.822492 
z
" clip-path="url(#p5a69268c20)" style="fill: #a3e301"/>
   </g>
   <g id="patch_59">
    <path d="M 316.435276 378 
L 320.698491 378 
L 320.698491 297.589058 
L 316.435276 297.589058 
z
" clip-path="url(#p5a69268c20)" style="fill: #a3e301"/>
   </g>
   <g id="patch_60">
    <path d="M 320.698491 378 
L 324.961707 378 
L 324.961707 286.57386 
L 320.698491 286.57386 
z
" clip-path="url(#p5a69268c20)" style="fill: #a3e301"/>
   </g>
   <g id="patch_61">
    <path d="M 324.961707 378 
L 329.224923 378 
L 329.224923 297.589058 
L 324.961707 297.589058 
z
" clip-path="url(#p5a69268c20)" style="fill: #a3e301"/>
   </g>
   <g id="patch_62">
    <path d="M 329.224923 378 
L 333.488139 378 
L 333.488139 285.47234 
L 329.224923 285.47234 
z
" clip-path="url(#p5a69268c20)" style="fill: #a3e301"/>
   </g>
   <g id="patch_63">
    <path d="M 333.488139 378 
L 337.751355 378 
L 337.751355 315.213374 
L 333.488139 315.213374 
z
" clip-path="url(#p5a69268c20)" style="fill: #a3e301"/>
   </g>
   <g id="patch_64">
    <path d="M 337.751355 378 
L 342.014571 378 
L 342.014571 313.010334 
L 337.751355 313.010334 
z
" clip-path="url(#p5a69268c20)" style="fill: #a3e301"/>
   </g>
   <g id="patch_65">
    <path d="M 342.014571 378 
L 346.277786 378 
L 346.277786 298.690578 
L 342.014571 298.690578 
z
" clip-path="url(#p5a69268c20)" style="fill: #a3e301"/>
   </g>
   <g id="patch_66">
    <path d="M 346.277786 378 
L 350.541002 378 
L 350.541002 303.096657 
L 346.277786 303.096657 
z
" clip-path="url(#p5a69268c20)" style="fill: #a3e301"/>
   </g>
   <g id="patch_67">
    <path d="M 350.541002 378 
L 354.804218 378 
L 354.804218 306.401216 
L 350.541002 306.401216 
z
" clip-path="url(#p5a69268c20)" style="fill: #a3e301"/>
   </g>
   <g id="patch_68">
    <path d="M 354.804218 378 
L 359.067434 378 
L 359.067434 286.57386 
L 354.804218 286.57386 
z
" clip-path="url(#p5a69268c20)" style="fill: #a3e301"/>
   </g>
   <g id="patch_69">
    <path d="M 359.067434 378 
L 363.33065 378 
L 363.33065 262.340426 
L 359.067434 262.340426 
z
" clip-path="url(#p5a69268c20)" style="fill: #a3e301"/>
   </g>
   <g id="patch_70">
    <path d="M 363.33065 378 
L 367.593866 378 
L 367.593866 260.137386 
L 363.33065 260.137386 
z
" clip-path="url(#p5a69268c20)" style="fill: #a3e301"/>
   </g>
   <g id="patch_71">
    <path d="M 367.593866 378 
L 371.857081 378 
L 371.857081 184.132523 
L 367.593866 184.132523 
z
" clip-path="url(#p5a69268c20)" style="fill: #a3e301"/>
   </g>
   <g id="patch_72">
    <path d="M 371.857081 378 
L 376.120297 378 
L 376.120297 176.421884 
L 371.857081 176.421884 
z
" clip-path="url(#p5a69268c20)" style="fill: #a3e301"/>
   </g>
   <g id="patch_73">
    <path d="M 376.120297 378 
L 380.383513 378 
L 380.383513 141.173252 
L 376.120297 141.173252 
z
" clip-path="url(#p5a69268c20)" style="fill: #a3e301"/>
   </g>
   <g id="patch_74">
    <path d="M 380.383513 378 
L 384.646729 378 
L 384.646729 143.376292 
L 380.383513 143.376292 
z
" clip-path="url(#p5a69268c20)" style="fill: #a3e301"/>
   </g>
   <g id="patch_75">
    <path d="M 384.646729 378 
L 388.909945 378 
L 388.909945 132.361094 
L 384.646729 132.361094 
z
" clip-path="url(#p5a69268c20)" style="fill: #a3e301"/>
   </g>
   <g id="patch_76">
    <path d="M 388.909945 378 
L 393.173161 378 
L 393.173161 127.955015 
L 388.909945 127.955015 
z
" clip-path="url(#p5a69268c20)" style="fill: #a3e301"/>
   </g>
   <g id="patch_77">
    <path d="M 393.173161 378 
L 397.436376 378 
L 397.436376 91.604863 
L 393.173161 91.604863 
z
" clip-path="url(#p5a69268c20)" style="fill: #a3e301"/>
   </g>
   <g id="patch_78">
    <path d="M 397.436376 378 
L 401.699592 378 
L 401.699592 109.229179 
L 397.436376 109.229179 
z
" clip-path="url(#p5a69268c20)" style="fill: #a3e301"/>
   </g>
   <g id="patch_79">
    <path d="M 401.699592 378 
L 405.962808 378 
L 405.962808 135.665653 
L 401.699592 135.665653 
z
" clip-path="url(#p5a69268c20)" style="fill: #a3e301"/>
   </g>
   <g id="patch_80">
    <path d="M 405.962808 378 
L 410.226024 378 
L 410.226024 134.564134 
L 405.962808 134.564134 
z
" clip-path="url(#p5a69268c20)" style="fill: #a3e301"/>
   </g>
   <g id="patch_81">
    <path d="M 410.226024 378 
L 414.48924 378 
L 414.48924 179.726444 
L 410.226024 179.726444 
z
" clip-path="url(#p5a69268c20)" style="fill: #a3e301"/>
   </g>
   <g id="patch_82">
    <path d="M 414.48924 378 
L 418.752456 378 
L 418.752456 183.031003 
L 414.48924 183.031003 
z
" clip-path="url(#p5a69268c20)" style="fill: #a3e301"/>
   </g>
   <g id="patch_83">
    <path d="M 418.752456 378 
L 423.015671 378 
L 423.015671 200.655319 
L 418.752456 200.655319 
z
" clip-path="url(#p5a69268c20)" style="fill: #a3e301"/>
   </g>
   <g id="patch_84">
    <path d="M 423.015671 378 
L 427.278887 378 
L 427.278887 181.929483 
L 423.015671 181.929483 
z
" clip-path="url(#p5a69268c20)" style="fill: #a3e301"/>
   </g>
   <g id="patch_85">
    <path d="M 427.278887 378 
L 431.542103 378 
L 431.542103 199.553799 
L 427.278887 199.553799 
z
" clip-path="url(#p5a69268c20)" style="fill: #a3e301"/>
   </g>
   <g id="patch_86">
    <path d="M 431.542103 378 
L 435.805319 378 
L 435.805319 200.655319 
L 431.542103 200.655319 
z
" clip-path="url(#p5a69268c20)" style="fill: #a3e301"/>
   </g>
   <g id="patch_87">
    <path d="M 435.805319 378 
L 440.068535 378 
L 440.068535 209.467477 
L 435.805319 209.467477 
z
" clip-path="url(#p5a69268c20)" style="fill: #a3e301"/>
   </g>
   <g id="patch_88">
    <path d="M 440.068535 378 
L 444.331751 378 
L 444.331751 162.102128 
L 440.068535 162.102128 
z
" clip-path="url(#p5a69268c20)" style="fill: #a3e301"/>
   </g>
   <g id="patch_89">
    <path d="M 444.331751 378 
L 448.594966 378 
L 448.594966 161.000608 
L 444.331751 161.000608 
z
" clip-path="url(#p5a69268c20)" style="fill: #a3e301"/>
   </g>
   <g id="patch_90">
    <path d="M 448.594966 378 
L 452.858182 378 
L 452.858182 192.944681 
L 448.594966 192.944681 
z
" clip-path="url(#p5a69268c20)" style="fill: #a3e301"/>
   </g>
   <g id="patch_91">
    <path d="M 452.858182 378 
L 457.121398 378 
L 457.121398 169.812766 
L 452.858182 169.812766 
z
" clip-path="url(#p5a69268c20)" style="fill: #a3e301"/>
   </g>
   <g id="patch_92">
    <path d="M 457.121398 378 
L 461.384614 378 
L 461.384614 173.117325 
L 457.121398 173.117325 
z
" clip-path="url(#p5a69268c20)" style="fill: #a3e301"/>
   </g>
   <g id="patch_93">
    <path d="M 461.384614 378 
L 465.64783 378 
L 465.64783 175.320365 
L 461.384614 175.320365 
z
" clip-path="url(#p5a69268c20)" style="fill: #a3e301"/>
   </g>
   <g id="patch_94">
    <path d="M 465.64783 378 
L 469.911046 378 
L 469.911046 262.340426 
L 465.64783 262.340426 
z
" clip-path="url(#p5a69268c20)" style="fill: #a3e301"/>
   </g>
   <g id="patch_95">
    <path d="M 469.911046 378 
L 474.174261 378 
L 474.174261 275.558663 
L 469.911046 275.558663 
z
" clip-path="url(#p5a69268c20)" style="fill: #a3e301"/>
   </g>
   <g id="patch_96">
    <path d="M 474.174261 378 
L 478.437477 378 
L 478.437477 309.705775 
L 474.174261 309.705775 
z
" clip-path="url(#p5a69268c20)" style="fill: #a3e301"/>
   </g>
   <g id="patch_97">
    <path d="M 478.437477 378 
L 482.700693 378 
L 482.700693 338.345289 
L 478.437477 338.345289 
z
" clip-path="url(#p5a69268c20)" style="fill: #a3e301"/>
   </g>
   <g id="patch_98">
    <path d="M 482.700693 378 
L 486.963909 378 
L 486.963909 362.578723 
L 482.700693 362.578723 
z
" clip-path="url(#p5a69268c20)" style="fill: #a3e301"/>
   </g>
   <g id="patch_99">
    <path d="M 486.963909 378 
L 491.227125 378 
L 491.227125 371.390881 
L 486.963909 371.390881 
z
" clip-path="url(#p5a69268c20)" style="fill: #a3e301"/>
   </g>
   <g id="patch_100">
    <path d="M 491.227125 378 
L 495.490341 378 
L 495.490341 372.492401 
L 491.227125 372.492401 
z
" clip-path="url(#p5a69268c20)" style="fill: #a3e301"/>
   </g>
   <g id="patch_101">
    <path d="M 495.490341 378 
L 499.753556 378 
L 499.753556 376.89848 
L 495.490341 376.89848 
z
" clip-path="url(#p5a69268c20)" style="fill: #a3e301"/>
   </g>
   <g id="patch_102">
    <path d="M 499.753556 378 
L 504.016772 378 
L 504.016772 375.79696 
L 499.753556 375.79696 
z
" clip-path="url(#p5a69268c20)" style="fill: #a3e301"/>
   </g>
   <g id="matplotlib.axis_1">
    <g id="xtick_1">
     <g id="line2d_1">
      <defs>
       <path id="mdcb8698c90" d="M 0 0 
L 0 3.5 
" style="stroke: #000000; stroke-width: 0.8"/>
      </defs>
      <g>
       <use xlink:href="#mdcb8698c90" x="72" y="378" style="stroke: #000000; stroke-width: 0.8"/>
      </g>
     </g>
     <g id="text_1">
      <!-- 0.00 -->
      <g transform="translate(60.867188 392.598437)scale(0.1 -0.1)">
       <defs>
        <path id="DejaVuSans-30" d="M 2034 4250 
Q 1547 4250 1301 3770 
Q 1056 3291 1056 2328 
Q 1056 1369 1301 889 
Q 1547 409 2034 409 
Q 2525 409 2770 889 
Q 3016 1369 3016 2328 
Q 3016 3291 2770 3770 
Q 2525 4250 2034 4250 
z
M 2034 4750 
Q 2819 4750 3233 4129 
Q 3647 3509 3647 2328 
Q 3647 1150 3233 529 
Q 2819 -91 2034 -91 
Q 1250 -91 836 529 
Q 422 1150 422 2328 
Q 422 3509 836 4129 
Q 1250 4750 2034 4750 
z
" transform="scale(0.015625)"/>
        <path id="DejaVuSans-2e" d="M 684 794 
L 1344 794 
L 1344 0 
L 684 0 
L 684 794 
z
" transform="scale(0.015625)"/>
       </defs>
       <use xlink:href="#DejaVuSans-30"/>
       <use xlink:href="#DejaVuSans-2e" x="63.623047"/>
       <use xlink:href="#DejaVuSans-30" x="95.410156"/>
       <use xlink:href="#DejaVuSans-30" x="159.033203"/>
      </g>
     </g>
    </g>
    <g id="xtick_2">
     <g id="line2d_2">
      <g>
       <use xlink:href="#mdcb8698c90" x="183.6" y="378" style="stroke: #000000; stroke-width: 0.8"/>
      </g>
     </g>
     <g id="text_2">
      <!-- 0.25 -->
      <g transform="translate(172.467187 392.598437)scale(0.1 -0.1)">
       <defs>
        <path id="DejaVuSans-32" d="M 1228 531 
L 3431 531 
L 3431 0 
L 469 0 
L 469 531 
Q 828 903 1448 1529 
Q 2069 2156 2228 2338 
Q 2531 2678 2651 2914 
Q 2772 3150 2772 3378 
Q 2772 3750 2511 3984 
Q 2250 4219 1831 4219 
Q 1534 4219 1204 4116 
Q 875 4013 500 3803 
L 500 4441 
Q 881 4594 1212 4672 
Q 1544 4750 1819 4750 
Q 2544 4750 2975 4387 
Q 3406 4025 3406 3419 
Q 3406 3131 3298 2873 
Q 3191 2616 2906 2266 
Q 2828 2175 2409 1742 
Q 1991 1309 1228 531 
z
" transform="scale(0.015625)"/>
        <path id="DejaVuSans-35" d="M 691 4666 
L 3169 4666 
L 3169 4134 
L 1269 4134 
L 1269 2991 
Q 1406 3038 1543 3061 
Q 1681 3084 1819 3084 
Q 2600 3084 3056 2656 
Q 3513 2228 3513 1497 
Q 3513 744 3044 326 
Q 2575 -91 1722 -91 
Q 1428 -91 1123 -41 
Q 819 9 494 109 
L 494 744 
Q 775 591 1075 516 
Q 1375 441 1709 441 
Q 2250 441 2565 725 
Q 2881 1009 2881 1497 
Q 2881 1984 2565 2268 
Q 2250 2553 1709 2553 
Q 1456 2553 1204 2497 
Q 953 2441 691 2322 
L 691 4666 
z
" transform="scale(0.015625)"/>
       </defs>
       <use xlink:href="#DejaVuSans-30"/>
       <use xlink:href="#DejaVuSans-2e" x="63.623047"/>
       <use xlink:href="#DejaVuSans-32" x="95.410156"/>
       <use xlink:href="#DejaVuSans-35" x="159.033203"/>
      </g>
     </g>
    </g>
    <g id="xtick_3">
     <g id="line2d_3">
      <g>
       <use xlink:href="#mdcb8698c90" x="295.2" y="378" style="stroke: #000000; stroke-width: 0.8"/>
      </g>
     </g>
     <g id="text_3">
      <!-- 0.50 -->
      <g transform="translate(284.067187 392.598437)scale(0.1 -0.1)">
       <use xlink:href="#DejaVuSans-30"/>
       <use xlink:href="#DejaVuSans-2e" x="63.623047"/>
       <use xlink:href="#DejaVuSans-35" x="95.410156"/>
       <use xlink:href="#DejaVuSans-30" x="159.033203"/>
      </g>
     </g>
    </g>
    <g id="xtick_4">
     <g id="line2d_4">
      <g>
       <use xlink:href="#mdcb8698c90" x="406.8" y="378" style="stroke: #000000; stroke-width: 0.8"/>
      </g>
     </g>
     <g id="text_4">
      <!-- 0.75 -->
      <g transform="translate(395.667187 392.598437)scale(0.1 -0.1)">
       <defs>
        <path id="DejaVuSans-37" d="M 525 4666 
L 3525 4666 
L 3525 4397 
L 1831 0 
L 1172 0 
L 2766 4134 
L 525 4134 
L 525 4666 
z
" transform="scale(0.015625)"/>
       </defs>
       <use xlink:href="#DejaVuSans-30"/>
       <use xlink:href="#DejaVuSans-2e" x="63.623047"/>
       <use xlink:href="#DejaVuSans-37" x="95.410156"/>
       <use xlink:href="#DejaVuSans-35" x="159.033203"/>
      </g>
     </g>
    </g>
    <g id="xtick_5">
     <g id="line2d_5">
      <g>
       <use xlink:href="#mdcb8698c90" x="518.4" y="378" style="stroke: #000000; stroke-width: 0.8"/>
      </g>
     </g>
     <g id="text_5">
      <!-- 1.00 -->
      <g transform="translate(507.267187 392.598437)scale(0.1 -0.1)">
       <defs>
        <path id="DejaVuSans-31" d="M 794 531 
L 1825 531 
L 1825 4091 
L 703 3866 
L 703 4441 
L 1819 4666 
L 2450 4666 
L 2450 531 
L 3481 531 
L 3481 0 
L 794 0 
L 794 531 
z
" transform="scale(0.015625)"/>
       </defs>
       <use xlink:href="#DejaVuSans-31"/>
       <use xlink:href="#DejaVuSans-2e" x="63.623047"/>
       <use xlink:href="#DejaVuSans-30" x="95.410156"/>
       <use xlink:href="#DejaVuSans-30" x="159.033203"/>
      </g>
     </g>
    </g>
   </g>
   <g id="matplotlib.axis_2">
    <g id="ytick_1">
     <g id="line2d_6">
      <defs>
       <path id="m93716b3d90" d="M 0 0 
L -3.5 0 
" style="stroke: #000000; stroke-width: 0.8"/>
      </defs>
      <g>
       <use xlink:href="#m93716b3d90" x="72" y="378" style="stroke: #000000; stroke-width: 0.8"/>
      </g>
     </g>
     <g id="text_6">
      <!-- 0.00 -->
      <g transform="translate(42.734375 381.799219)scale(0.1 -0.1)">
       <use xlink:href="#DejaVuSans-30"/>
       <use xlink:href="#DejaVuSans-2e" x="63.623047"/>
       <use xlink:href="#DejaVuSans-30" x="95.410156"/>
       <use xlink:href="#DejaVuSans-30" x="159.033203"/>
      </g>
     </g>
    </g>
    <g id="ytick_2">
     <g id="line2d_7">
      <g>
       <use xlink:href="#m93716b3d90" x="72" y="341.725272" style="stroke: #000000; stroke-width: 0.8"/>
      </g>
     </g>
     <g id="text_7">
      <!-- 0.25 -->
      <g transform="translate(42.734375 345.52449)scale(0.1 -0.1)">
       <use xlink:href="#DejaVuSans-30"/>
       <use xlink:href="#DejaVuSans-2e" x="63.623047"/>
       <use xlink:href="#DejaVuSans-32" x="95.410156"/>
       <use xlink:href="#DejaVuSans-35" x="159.033203"/>
      </g>
     </g>
    </g>
    <g id="ytick_3">
     <g id="line2d_8">
      <g>
       <use xlink:href="#m93716b3d90" x="72" y="305.450543" style="stroke: #000000; stroke-width: 0.8"/>
      </g>
     </g>
     <g id="text_8">
      <!-- 0.50 -->
      <g transform="translate(42.734375 309.249762)scale(0.1 -0.1)">
       <use xlink:href="#DejaVuSans-30"/>
       <use xlink:href="#DejaVuSans-2e" x="63.623047"/>
       <use xlink:href="#DejaVuSans-35" x="95.410156"/>
       <use xlink:href="#DejaVuSans-30" x="159.033203"/>
      </g>
     </g>
    </g>
    <g id="ytick_4">
     <g id="line2d_9">
      <g>
       <use xlink:href="#m93716b3d90" x="72" y="269.175815" style="stroke: #000000; stroke-width: 0.8"/>
      </g>
     </g>
     <g id="text_9">
      <!-- 0.75 -->
      <g transform="translate(42.734375 272.975033)scale(0.1 -0.1)">
       <use xlink:href="#DejaVuSans-30"/>
       <use xlink:href="#DejaVuSans-2e" x="63.623047"/>
       <use xlink:href="#DejaVuSans-37" x="95.410156"/>
       <use xlink:href="#DejaVuSans-35" x="159.033203"/>
      </g>
     </g>
    </g>
    <g id="ytick_5">
     <g id="line2d_10">
      <g>
       <use xlink:href="#m93716b3d90" x="72" y="232.901086" style="stroke: #000000; stroke-width: 0.8"/>
      </g>
     </g>
     <g id="text_10">
      <!-- 1.00 -->
      <g transform="translate(42.734375 236.700305)scale(0.1 -0.1)">
       <use xlink:href="#DejaVuSans-31"/>
       <use xlink:href="#DejaVuSans-2e" x="63.623047"/>
       <use xlink:href="#DejaVuSans-30" x="95.410156"/>
       <use xlink:href="#DejaVuSans-30" x="159.033203"/>
      </g>
     </g>
    </g>
    <g id="ytick_6">
     <g id="line2d_11">
      <g>
       <use xlink:href="#m93716b3d90" x="72" y="196.626358" style="stroke: #000000; stroke-width: 0.8"/>
      </g>
     </g>
     <g id="text_11">
      <!-- 1.25 -->
      <g transform="translate(42.734375 200.425576)scale(0.1 -0.1)">
       <use xlink:href="#DejaVuSans-31"/>
       <use xlink:href="#DejaVuSans-2e" x="63.623047"/>
       <use xlink:href="#DejaVuSans-32" x="95.410156"/>
       <use xlink:href="#DejaVuSans-35" x="159.033203"/>
      </g>
     </g>
    </g>
    <g id="ytick_7">
     <g id="line2d_12">
      <g>
       <use xlink:href="#m93716b3d90" x="72" y="160.351629" style="stroke: #000000; stroke-width: 0.8"/>
      </g>
     </g>
     <g id="text_12">
      <!-- 1.50 -->
      <g transform="translate(42.734375 164.150848)scale(0.1 -0.1)">
       <use xlink:href="#DejaVuSans-31"/>
       <use xlink:href="#DejaVuSans-2e" x="63.623047"/>
       <use xlink:href="#DejaVuSans-35" x="95.410156"/>
       <use xlink:href="#DejaVuSans-30" x="159.033203"/>
      </g>
     </g>
    </g>
    <g id="ytick_8">
     <g id="line2d_13">
      <g>
       <use xlink:href="#m93716b3d90" x="72" y="124.076901" style="stroke: #000000; stroke-width: 0.8"/>
      </g>
     </g>
     <g id="text_13">
      <!-- 1.75 -->
      <g transform="translate(42.734375 127.876119)scale(0.1 -0.1)">
       <use xlink:href="#DejaVuSans-31"/>
       <use xlink:href="#DejaVuSans-2e" x="63.623047"/>
       <use xlink:href="#DejaVuSans-37" x="95.410156"/>
       <use xlink:href="#DejaVuSans-35" x="159.033203"/>
      </g>
     </g>
    </g>
    <g id="ytick_9">
     <g id="line2d_14">
      <g>
       <use xlink:href="#m93716b3d90" x="72" y="87.802172" style="stroke: #000000; stroke-width: 0.8"/>
      </g>
     </g>
     <g id="text_14">
      <!-- 2.00 -->
      <g transform="translate(42.734375 91.601391)scale(0.1 -0.1)">
       <use xlink:href="#DejaVuSans-32"/>
       <use xlink:href="#DejaVuSans-2e" x="63.623047"/>
       <use xlink:href="#DejaVuSans-30" x="95.410156"/>
       <use xlink:href="#DejaVuSans-30" x="159.033203"/>
      </g>
     </g>
    </g>
   </g>
   <g id="patch_103">
    <path d="M 72.665748 378 
L 72.665748 313.776899 
L 77.116438 313.776899 
L 77.116438 303.525344 
L 81.567129 303.525344 
L 81.567129 301.121778 
L 86.017819 301.121778 
L 86.017819 300.192217 
L 90.468509 300.192217 
L 90.468509 297.755943 
L 94.919199 297.755943 
L 94.919199 296.806334 
L 99.36989 296.806334 
L 99.36989 294.28776 
L 103.82058 294.28776 
L 103.82058 293.059599 
L 108.27127 293.059599 
L 108.27127 291.31654 
L 112.72196 291.31654 
L 112.72196 289.075463 
L 117.172651 289.075463 
L 117.172651 286.835441 
L 121.623341 286.835441 
L 121.623341 284.563766 
L 126.074031 284.563766 
L 126.074031 282.452469 
L 130.524721 282.452469 
L 130.524721 279.953942 
L 134.975412 279.953942 
L 134.975412 278.139134 
L 139.426102 278.139134 
L 139.426102 275.470733 
L 143.876792 275.470733 
L 143.876792 272.893073 
L 148.327482 272.893073 
L 148.327482 271.136297 
L 152.778173 271.136297 
L 152.778173 268.096493 
L 157.228863 268.096493 
L 157.228863 265.952487 
L 161.679553 265.952487 
L 161.679553 262.632022 
L 166.130243 262.632022 
L 166.130243 260.17781 
L 170.580934 260.17781 
L 170.580934 257.16122 
L 175.031624 257.16122 
L 175.031624 252.437443 
L 179.482314 252.437443 
L 179.482314 250.460147 
L 183.933004 250.460147 
L 183.933004 245.992765 
L 188.383695 245.992765 
L 188.383695 242.603716 
L 192.834385 242.603716 
L 192.834385 239.41303 
L 197.285075 239.41303 
L 197.285075 235.726438 
L 201.735766 235.726438 
L 201.735766 231.07441 
L 206.186456 231.07441 
L 206.186456 227.89322 
L 210.637146 227.89322 
L 210.637146 222.060512 
L 215.087836 222.060512 
L 215.087836 217.81787 
L 219.538527 217.81787 
L 219.538527 212.504281 
L 223.989217 212.504281 
L 223.989217 207.873355 
L 228.439907 207.873355 
L 228.439907 203.959912 
L 232.890597 203.959912 
L 232.890597 196.947578 
L 237.341288 196.947578 
L 237.341288 191.369154 
L 241.791978 191.369154 
L 241.791978 184.976176 
L 246.242668 184.976176 
L 246.242668 179.124475 
L 250.693358 179.124475 
L 250.693358 173.375121 
L 255.144049 173.375121 
L 255.144049 164.827587 
L 259.594739 164.827587 
L 259.594739 157.108322 
L 264.045429 157.108322 
L 264.045429 149.728806 
L 268.496119 149.728806 
L 268.496119 140.836247 
L 272.94681 140.836247 
L 272.94681 132.645343 
L 277.3975 132.645343 
L 277.3975 124.182218 
L 281.84819 124.182218 
L 281.84819 114.29468 
L 286.29888 114.29468 
L 286.29888 103.764573 
L 290.749571 103.764573 
L 290.749571 92.5307 
L 295.200261 92.5307 
L 295.200261 92.691078 
L 299.650951 92.691078 
L 299.650951 103.987203 
L 304.101641 103.987203 
L 304.101641 113.951765 
L 308.552332 113.951765 
L 308.552332 122.692387 
L 313.003022 122.692387 
L 313.003022 133.455676 
L 317.453712 133.455676 
L 317.453712 141.380689 
L 321.904402 141.380689 
L 321.904402 150.059059 
L 326.355093 150.059059 
L 326.355093 158.31116 
L 330.805783 158.31116 
L 330.805783 163.958167 
L 335.256473 163.958167 
L 335.256473 171.661605 
L 339.707164 171.661605 
L 339.707164 178.874412 
L 344.157854 178.874412 
L 344.157854 185.380287 
L 348.608544 185.380287 
L 348.608544 191.961077 
L 353.059234 191.961077 
L 353.059234 198.082888 
L 357.509925 198.082888 
L 357.509925 202.995531 
L 361.960615 202.995531 
L 361.960615 208.567625 
L 366.411305 208.567625 
L 366.411305 212.957983 
L 370.861995 212.957983 
L 370.861995 217.448578 
L 375.312686 217.448578 
L 375.312686 223.703335 
L 379.763376 223.703335 
L 379.763376 226.505736 
L 384.214066 226.505736 
L 384.214066 231.483797 
L 388.664756 231.483797 
L 388.664756 235.711666 
L 393.115447 235.711666 
L 393.115447 239.253707 
L 397.566137 239.253707 
L 397.566137 242.858 
L 402.016827 242.858 
L 402.016827 246.884342 
L 406.467517 246.884342 
L 406.467517 250.217469 
L 410.918208 250.217469 
L 410.918208 253.056799 
L 415.368898 253.056799 
L 415.368898 256.181012 
L 419.819588 256.181012 
L 419.819588 260.327638 
L 424.270278 260.327638 
L 424.270278 262.565549 
L 428.720969 262.565549 
L 428.720969 266.005243 
L 433.171659 266.005243 
L 433.171659 268.100714 
L 437.622349 268.100714 
L 437.622349 270.717413 
L 442.073039 270.717413 
L 442.073039 273.405862 
L 446.52373 273.405862 
L 446.52373 275.649049 
L 450.97442 275.649049 
L 450.97442 278.313229 
L 455.42511 278.313229 
L 455.42511 280.301077 
L 459.8758 280.301077 
L 459.8758 282.363838 
L 464.326491 282.363838 
L 464.326491 285.329783 
L 468.777181 285.329783 
L 468.777181 286.682448 
L 473.227871 286.682448 
L 473.227871 289.081793 
L 477.678561 289.081793 
L 477.678561 291.276445 
L 482.129252 291.276445 
L 482.129252 292.71985 
L 486.579942 292.71985 
L 486.579942 294.529383 
L 491.030632 294.529383 
L 491.030632 296.212301 
L 495.481323 296.212301 
L 495.481323 298.755142 
L 499.932013 298.755142 
L 499.932013 299.801822 
L 504.382703 299.801822 
L 504.382703 301.497401 
L 508.833393 301.497401 
L 508.833393 303.32065 
L 513.284084 303.32065 
L 513.284084 313.576426 
L 517.734774 313.576426 
L 517.734774 378 
L 517.734774 378 
" clip-path="url(#p5a69268c20)" style="fill: none; stroke: #fc6983; stroke-linejoin: miter"/>
   </g>
   <g id="patch_104">
    <path d="M 72.748335 378 
L 72.748335 377.069111 
L 81.64711 376.988898 
L 81.64711 374.707059 
L 86.096498 374.707059 
L 86.096498 365.596588 
L 90.545885 365.596588 
L 90.545885 348.826864 
L 94.995273 348.826864 
L 94.995273 328.566832 
L 99.444661 328.566832 
L 99.444661 307.245038 
L 103.894048 307.245038 
L 103.894048 292.345535 
L 108.343436 292.345535 
L 108.343436 282.840334 
L 112.792823 282.840334 
L 112.792823 273.318246 
L 117.242211 273.318246 
L 117.242211 264.99196 
L 121.691599 264.99196 
L 121.691599 259.165987 
L 126.140986 259.165987 
L 126.140986 254.607586 
L 130.590374 254.607586 
L 130.590374 250.510407 
L 135.039761 250.510407 
L 135.039761 246.978939 
L 139.489149 246.978939 
L 139.489149 239.501218 
L 143.938537 239.501218 
L 143.938537 232.313741 
L 148.387924 232.313741 
L 148.387924 224.97006 
L 152.837312 224.97006 
L 152.837312 222.909861 
L 157.286699 222.909861 
L 157.286699 220.146746 
L 161.736087 220.146746 
L 161.736087 219.612698 
L 166.185475 219.612698 
L 166.185475 217.964117 
L 170.634862 217.964117 
L 170.634862 216.253265 
L 175.08425 216.253265 
L 175.08425 216.661716 
L 183.983025 216.753539 
L 183.983025 216.998398 
L 188.432412 216.998398 
L 188.432412 216.832696 
L 192.8818 216.832696 
L 192.8818 217.95884 
L 197.331188 217.95884 
L 197.331188 216.798922 
L 201.780575 216.798922 
L 201.780575 215.949301 
L 206.229963 215.949301 
L 206.229963 215.040576 
L 210.67935 215.040576 
L 210.67935 214.22684 
L 215.128738 214.22684 
L 215.128738 211.683254 
L 219.578126 211.683254 
L 219.578126 210.441013 
L 224.027513 210.441013 
L 224.027513 207.424594 
L 228.476901 207.424594 
L 228.476901 207.298998 
L 232.926288 207.298998 
L 232.926288 205.607144 
L 237.375676 205.607144 
L 237.375676 205.438275 
L 246.274451 205.331677 
L 246.274451 202.989678 
L 250.723839 202.989678 
L 250.723839 204.989718 
L 255.173226 204.989718 
L 255.173226 204.285746 
L 259.622614 204.285746 
L 259.622614 201.261939 
L 264.072002 201.261939 
L 264.072002 197.869788 
L 268.521389 197.869788 
L 268.521389 193.877097 
L 272.970777 193.877097 
L 272.970777 191.09815 
L 277.420164 191.09815 
L 277.420164 185.716513 
L 281.869552 185.716513 
L 281.869552 180.848871 
L 286.318939 180.848871 
L 286.318939 176.276749 
L 290.768327 176.276749 
L 290.768327 170.049713 
L 295.217715 170.049713 
L 295.217715 178.214518 
L 299.667102 178.214518 
L 299.667102 174.993346 
L 304.11649 174.993346 
L 304.11649 177.753295 
L 308.565877 177.753295 
L 308.565877 182.224096 
L 313.015265 182.224096 
L 313.015265 186.471146 
L 317.464653 186.471146 
L 317.464653 189.963563 
L 321.91404 189.963563 
L 321.91404 192.672851 
L 326.363428 192.672851 
L 326.363428 196.359468 
L 330.812815 196.359468 
L 330.812815 197.029666 
L 335.262203 197.029666 
L 335.262203 198.763737 
L 339.711591 198.763737 
L 339.711591 194.133566 
L 344.160978 194.133566 
L 344.160978 195.328313 
L 348.610366 195.328313 
L 348.610366 193.033808 
L 353.059753 193.033808 
L 353.059753 191.965713 
L 361.958529 191.917164 
L 361.958529 190.550382 
L 366.407916 190.550382 
L 366.407916 192.817445 
L 370.857304 192.817445 
L 370.857304 193.292389 
L 375.306691 193.292389 
L 375.306691 196.794305 
L 379.756079 196.794305 
L 379.756079 198.557928 
L 384.205467 198.557928 
L 384.205467 200.822881 
L 388.654854 200.822881 
L 388.654854 202.075676 
L 397.553629 201.970133 
L 397.553629 200.927368 
L 402.003017 200.927368 
L 402.003017 201.69361 
L 406.452404 201.69361 
L 406.452404 199.572196 
L 410.901792 199.572196 
L 410.901792 199.958484 
L 415.35118 199.958484 
L 415.35118 197.346295 
L 419.800567 197.346295 
L 419.800567 198.984322 
L 424.249955 198.984322 
L 424.249955 196.663432 
L 428.699342 196.663432 
L 428.699342 198.399614 
L 433.14873 198.399614 
L 433.14873 202.124226 
L 437.598118 202.124226 
L 437.598118 207.448869 
L 442.047505 207.448869 
L 442.047505 213.798335 
L 446.496893 213.798335 
L 446.496893 222.166838 
L 450.94628 222.166838 
L 450.94628 230.336921 
L 455.395668 230.336921 
L 455.395668 232.535381 
L 459.845056 232.535381 
L 459.845056 233.252018 
L 464.294443 233.252018 
L 464.294443 231.617157 
L 468.743831 231.617157 
L 468.743831 236.772932 
L 473.193218 236.772932 
L 473.193218 247.402166 
L 477.642606 247.402166 
L 477.642606 264.902248 
L 482.091994 264.902248 
L 482.091994 286.510064 
L 486.541381 286.510064 
L 486.541381 312.408201 
L 490.990769 312.408201 
L 490.990769 339.779719 
L 495.440156 339.779719 
L 495.440156 360.516805 
L 499.889544 360.516805 
L 499.889544 371.73919 
L 504.338931 371.73919 
L 504.338931 376.640606 
L 508.788319 376.640606 
L 508.788319 377.006841 
L 517.687094 377.106051 
L 517.687094 378 
L 517.687094 378 
" clip-path="url(#p5a69268c20)" style="fill: none; stroke: #15215b; stroke-linejoin: miter"/>
   </g>
   <g id="patch_105">
    <path d="M 72 378 
L 72 51.84 
" style="fill: none; stroke: #000000; stroke-width: 0.8; stroke-linejoin: miter; stroke-linecap: square"/>
   </g>
   <g id="patch_106">
    <path d="M 518.4 378 
L 518.4 51.84 
" style="fill: none; stroke: #000000; stroke-width: 0.8; stroke-linejoin: miter; stroke-linecap: square"/>
   </g>
   <g id="patch_107">
    <path d="M 72 378 
L 518.4 378 
" style="fill: none; stroke: #000000; stroke-width: 0.8; stroke-linejoin: miter; stroke-linecap: square"/>
   </g>
   <g id="patch_108">
    <path d="M 72 51.84 
L 518.4 51.84 
" style="fill: none; stroke: #000000; stroke-width: 0.8; stroke-linejoin: miter; stroke-linecap: square"/>
   </g>
  </g>
 </g>
 <defs>
  <clipPath id="p5a69268c20">
   <rect x="72" y="51.84" width="446.4" height="326.16"/>
  </clipPath>
 </defs>
</svg>
