<?xml version="1.0" encoding="utf-8" standalone="no"?>
<!DOCTYPE svg PUBLIC "-//W3C//DTD SVG 1.1//EN"
  "http://www.w3.org/Graphics/SVG/1.1/DTD/svg11.dtd">
<svg xmlns:xlink="http://www.w3.org/1999/xlink" width="576pt" height="432pt" viewBox="0 0 576 432" xmlns="http://www.w3.org/2000/svg" version="1.1">
 <metadata>
  <rdf:RDF xmlns:dc="http://purl.org/dc/elements/1.1/" xmlns:cc="http://creativecommons.org/ns#" xmlns:rdf="http://www.w3.org/1999/02/22-rdf-syntax-ns#">
   <cc:Work>
    <dc:type rdf:resource="http://purl.org/dc/dcmitype/StillImage"/>
    <dc:date>2022-03-08T14:12:07.889932</dc:date>
    <dc:format>image/svg+xml</dc:format>
    <dc:creator>
     <cc:Agent>
      <dc:title>Matplotlib v3.5.1, https://matplotlib.org/</dc:title>
     </cc:Agent>
    </dc:creator>
   </cc:Work>
  </rdf:RDF>
 </metadata>
 <defs>
  <style type="text/css">*{stroke-linejoin: round; stroke-linecap: butt}</style>
 </defs>
 <g id="figure_1">
  <g id="patch_1">
   <path d="M 0 432 
L 576 432 
L 576 0 
L 0 0 
L 0 432 
z
" style="fill: none"/>
  </g>
  <g id="axes_1">
   <g id="patch_2">
    <path d="M 72 378 
L 518.4 378 
L 518.4 51.84 
L 72 51.84 
z
" style="fill: #ffffff"/>
   </g>
   <g id="patch_3">
    <path d="M 120.404819 378 
L 123.945235 378 
L 123.945235 369.249899 
L 120.404819 369.249899 
z
" clip-path="url(#pb59f74beef)" style="fill: #a3e301"/>
   </g>
   <g id="patch_4">
    <path d="M 123.945235 378 
L 127.48565 378 
L 127.48565 364.874849 
L 123.945235 364.874849 
z
" clip-path="url(#pb59f74beef)" style="fill: #a3e301"/>
   </g>
   <g id="patch_5">
    <path d="M 127.48565 378 
L 131.026065 378 
L 131.026065 378 
L 127.48565 378 
z
" clip-path="url(#pb59f74beef)" style="fill: #a3e301"/>
   </g>
   <g id="patch_6">
    <path d="M 131.026065 378 
L 134.566481 378 
L 134.566481 360.499799 
L 131.026065 360.499799 
z
" clip-path="url(#pb59f74beef)" style="fill: #a3e301"/>
   </g>
   <g id="patch_7">
    <path d="M 134.566481 378 
L 138.106896 378 
L 138.106896 351.749698 
L 134.566481 351.749698 
z
" clip-path="url(#pb59f74beef)" style="fill: #a3e301"/>
   </g>
   <g id="patch_8">
    <path d="M 138.106896 378 
L 141.647312 378 
L 141.647312 369.249899 
L 138.106896 369.249899 
z
" clip-path="url(#pb59f74beef)" style="fill: #a3e301"/>
   </g>
   <g id="patch_9">
    <path d="M 141.647312 378 
L 145.187727 378 
L 145.187727 351.749698 
L 141.647312 351.749698 
z
" clip-path="url(#pb59f74beef)" style="fill: #a3e301"/>
   </g>
   <g id="patch_10">
    <path d="M 145.187727 378 
L 148.728142 378 
L 148.728142 338.624547 
L 145.187727 338.624547 
z
" clip-path="url(#pb59f74beef)" style="fill: #a3e301"/>
   </g>
   <g id="patch_11">
    <path d="M 148.728142 378 
L 152.268558 378 
L 152.268558 351.749698 
L 148.728142 351.749698 
z
" clip-path="url(#pb59f74beef)" style="fill: #a3e301"/>
   </g>
   <g id="patch_12">
    <path d="M 152.268558 378 
L 155.808973 378 
L 155.808973 338.624547 
L 152.268558 338.624547 
z
" clip-path="url(#pb59f74beef)" style="fill: #a3e301"/>
   </g>
   <g id="patch_13">
    <path d="M 155.808973 378 
L 159.349389 378 
L 159.349389 360.499799 
L 155.808973 360.499799 
z
" clip-path="url(#pb59f74beef)" style="fill: #a3e301"/>
   </g>
   <g id="patch_14">
    <path d="M 159.349389 378 
L 162.889804 378 
L 162.889804 373.62495 
L 159.349389 373.62495 
z
" clip-path="url(#pb59f74beef)" style="fill: #a3e301"/>
   </g>
   <g id="patch_15">
    <path d="M 162.889804 378 
L 166.430219 378 
L 166.430219 373.62495 
L 162.889804 373.62495 
z
" clip-path="url(#pb59f74beef)" style="fill: #a3e301"/>
   </g>
   <g id="patch_16">
    <path d="M 166.430219 378 
L 169.970635 378 
L 169.970635 373.62495 
L 166.430219 373.62495 
z
" clip-path="url(#pb59f74beef)" style="fill: #a3e301"/>
   </g>
   <g id="patch_17">
    <path d="M 169.970635 378 
L 173.51105 378 
L 173.51105 378 
L 169.970635 378 
z
" clip-path="url(#pb59f74beef)" style="fill: #a3e301"/>
   </g>
   <g id="patch_18">
    <path d="M 173.51105 378 
L 177.051466 378 
L 177.051466 369.249899 
L 173.51105 369.249899 
z
" clip-path="url(#pb59f74beef)" style="fill: #a3e301"/>
   </g>
   <g id="patch_19">
    <path d="M 177.051466 378 
L 180.591881 378 
L 180.591881 378 
L 177.051466 378 
z
" clip-path="url(#pb59f74beef)" style="fill: #a3e301"/>
   </g>
   <g id="patch_20">
    <path d="M 180.591881 378 
L 184.132296 378 
L 184.132296 351.749698 
L 180.591881 351.749698 
z
" clip-path="url(#pb59f74beef)" style="fill: #a3e301"/>
   </g>
   <g id="patch_21">
    <path d="M 184.132296 378 
L 187.672712 378 
L 187.672712 351.749698 
L 184.132296 351.749698 
z
" clip-path="url(#pb59f74beef)" style="fill: #a3e301"/>
   </g>
   <g id="patch_22">
    <path d="M 187.672712 378 
L 191.213127 378 
L 191.213127 290.498994 
L 187.672712 290.498994 
z
" clip-path="url(#pb59f74beef)" style="fill: #a3e301"/>
   </g>
   <g id="patch_23">
    <path d="M 191.213127 378 
L 194.753543 378 
L 194.753543 303.624145 
L 191.213127 303.624145 
z
" clip-path="url(#pb59f74beef)" style="fill: #a3e301"/>
   </g>
   <g id="patch_24">
    <path d="M 194.753543 378 
L 198.293958 378 
L 198.293958 202.997988 
L 194.753543 202.997988 
z
" clip-path="url(#pb59f74beef)" style="fill: #a3e301"/>
   </g>
   <g id="patch_25">
    <path d="M 198.293958 378 
L 201.834373 378 
L 201.834373 237.99839 
L 198.293958 237.99839 
z
" clip-path="url(#pb59f74beef)" style="fill: #a3e301"/>
   </g>
   <g id="patch_26">
    <path d="M 201.834373 378 
L 205.374789 378 
L 205.374789 154.872435 
L 201.834373 154.872435 
z
" clip-path="url(#pb59f74beef)" style="fill: #a3e301"/>
   </g>
   <g id="patch_27">
    <path d="M 205.374789 378 
L 208.915204 378 
L 208.915204 124.247082 
L 205.374789 124.247082 
z
" clip-path="url(#pb59f74beef)" style="fill: #a3e301"/>
   </g>
   <g id="patch_28">
    <path d="M 208.915204 378 
L 212.45562 378 
L 212.45562 163.622535 
L 208.915204 163.622535 
z
" clip-path="url(#pb59f74beef)" style="fill: #a3e301"/>
   </g>
   <g id="patch_29">
    <path d="M 212.45562 378 
L 215.996035 378 
L 215.996035 84.87163 
L 212.45562 84.87163 
z
" clip-path="url(#pb59f74beef)" style="fill: #a3e301"/>
   </g>
   <g id="patch_30">
    <path d="M 215.996035 378 
L 219.53645 378 
L 219.53645 67.371429 
L 215.996035 67.371429 
z
" clip-path="url(#pb59f74beef)" style="fill: #a3e301"/>
   </g>
   <g id="patch_31">
    <path d="M 219.53645 378 
L 223.076866 378 
L 223.076866 84.87163 
L 219.53645 84.87163 
z
" clip-path="url(#pb59f74beef)" style="fill: #a3e301"/>
   </g>
   <g id="patch_32">
    <path d="M 223.076866 378 
L 226.617281 378 
L 226.617281 124.247082 
L 223.076866 124.247082 
z
" clip-path="url(#pb59f74beef)" style="fill: #a3e301"/>
   </g>
   <g id="patch_33">
    <path d="M 226.617281 378 
L 230.157697 378 
L 230.157697 106.746881 
L 226.617281 106.746881 
z
" clip-path="url(#pb59f74beef)" style="fill: #a3e301"/>
   </g>
   <g id="patch_34">
    <path d="M 230.157697 378 
L 233.698112 378 
L 233.698112 132.997183 
L 230.157697 132.997183 
z
" clip-path="url(#pb59f74beef)" style="fill: #a3e301"/>
   </g>
   <g id="patch_35">
    <path d="M 233.698112 378 
L 237.238527 378 
L 237.238527 137.372233 
L 233.698112 137.372233 
z
" clip-path="url(#pb59f74beef)" style="fill: #a3e301"/>
   </g>
   <g id="patch_36">
    <path d="M 237.238527 378 
L 240.778943 378 
L 240.778943 185.497787 
L 237.238527 185.497787 
z
" clip-path="url(#pb59f74beef)" style="fill: #a3e301"/>
   </g>
   <g id="patch_37">
    <path d="M 240.778943 378 
L 244.319358 378 
L 244.319358 233.62334 
L 240.778943 233.62334 
z
" clip-path="url(#pb59f74beef)" style="fill: #a3e301"/>
   </g>
   <g id="patch_38">
    <path d="M 244.319358 378 
L 247.859774 378 
L 247.859774 181.122736 
L 244.319358 181.122736 
z
" clip-path="url(#pb59f74beef)" style="fill: #a3e301"/>
   </g>
   <g id="patch_39">
    <path d="M 247.859774 378 
L 251.400189 378 
L 251.400189 202.997988 
L 247.859774 202.997988 
z
" clip-path="url(#pb59f74beef)" style="fill: #a3e301"/>
   </g>
   <g id="patch_40">
    <path d="M 251.400189 378 
L 254.940604 378 
L 254.940604 233.62334 
L 251.400189 233.62334 
z
" clip-path="url(#pb59f74beef)" style="fill: #a3e301"/>
   </g>
   <g id="patch_41">
    <path d="M 254.940604 378 
L 258.48102 378 
L 258.48102 233.62334 
L 254.940604 233.62334 
z
" clip-path="url(#pb59f74beef)" style="fill: #a3e301"/>
   </g>
   <g id="patch_42">
    <path d="M 258.48102 378 
L 262.021435 378 
L 262.021435 207.373038 
L 258.48102 207.373038 
z
" clip-path="url(#pb59f74beef)" style="fill: #a3e301"/>
   </g>
   <g id="patch_43">
    <path d="M 262.021435 378 
L 265.561851 378 
L 265.561851 211.748089 
L 262.021435 211.748089 
z
" clip-path="url(#pb59f74beef)" style="fill: #a3e301"/>
   </g>
   <g id="patch_44">
    <path d="M 265.561851 378 
L 269.102266 378 
L 269.102266 255.498592 
L 265.561851 255.498592 
z
" clip-path="url(#pb59f74beef)" style="fill: #a3e301"/>
   </g>
   <g id="patch_45">
    <path d="M 269.102266 378 
L 272.642681 378 
L 272.642681 281.748893 
L 269.102266 281.748893 
z
" clip-path="url(#pb59f74beef)" style="fill: #a3e301"/>
   </g>
   <g id="patch_46">
    <path d="M 272.642681 378 
L 276.183097 378 
L 276.183097 255.498592 
L 272.642681 255.498592 
z
" clip-path="url(#pb59f74beef)" style="fill: #a3e301"/>
   </g>
   <g id="patch_47">
    <path d="M 276.183097 378 
L 279.723512 378 
L 279.723512 246.748491 
L 276.183097 246.748491 
z
" clip-path="url(#pb59f74beef)" style="fill: #a3e301"/>
   </g>
   <g id="patch_48">
    <path d="M 279.723512 378 
L 283.263928 378 
L 283.263928 237.99839 
L 279.723512 237.99839 
z
" clip-path="url(#pb59f74beef)" style="fill: #a3e301"/>
   </g>
   <g id="patch_49">
    <path d="M 283.263928 378 
L 286.804343 378 
L 286.804343 277.373843 
L 283.263928 277.373843 
z
" clip-path="url(#pb59f74beef)" style="fill: #a3e301"/>
   </g>
   <g id="patch_50">
    <path d="M 286.804343 378 
L 290.344758 378 
L 290.344758 286.123944 
L 286.804343 286.123944 
z
" clip-path="url(#pb59f74beef)" style="fill: #a3e301"/>
   </g>
   <g id="patch_51">
    <path d="M 290.344758 378 
L 293.885174 378 
L 293.885174 281.748893 
L 290.344758 281.748893 
z
" clip-path="url(#pb59f74beef)" style="fill: #a3e301"/>
   </g>
   <g id="patch_52">
    <path d="M 293.885174 378 
L 297.425589 378 
L 297.425589 299.249095 
L 293.885174 299.249095 
z
" clip-path="url(#pb59f74beef)" style="fill: #a3e301"/>
   </g>
   <g id="patch_53">
    <path d="M 297.425589 378 
L 300.966005 378 
L 300.966005 307.999195 
L 297.425589 307.999195 
z
" clip-path="url(#pb59f74beef)" style="fill: #a3e301"/>
   </g>
   <g id="patch_54">
    <path d="M 300.966005 378 
L 304.50642 378 
L 304.50642 299.249095 
L 300.966005 299.249095 
z
" clip-path="url(#pb59f74beef)" style="fill: #a3e301"/>
   </g>
   <g id="patch_55">
    <path d="M 304.50642 378 
L 308.046835 378 
L 308.046835 321.124346 
L 304.50642 321.124346 
z
" clip-path="url(#pb59f74beef)" style="fill: #a3e301"/>
   </g>
   <g id="patch_56">
    <path d="M 308.046835 378 
L 311.587251 378 
L 311.587251 325.499396 
L 308.046835 325.499396 
z
" clip-path="url(#pb59f74beef)" style="fill: #a3e301"/>
   </g>
   <g id="patch_57">
    <path d="M 311.587251 378 
L 315.127666 378 
L 315.127666 299.249095 
L 311.587251 299.249095 
z
" clip-path="url(#pb59f74beef)" style="fill: #a3e301"/>
   </g>
   <g id="patch_58">
    <path d="M 315.127666 378 
L 318.668082 378 
L 318.668082 264.248692 
L 315.127666 264.248692 
z
" clip-path="url(#pb59f74beef)" style="fill: #a3e301"/>
   </g>
   <g id="patch_59">
    <path d="M 318.668082 378 
L 322.208497 378 
L 322.208497 299.249095 
L 318.668082 299.249095 
z
" clip-path="url(#pb59f74beef)" style="fill: #a3e301"/>
   </g>
   <g id="patch_60">
    <path d="M 322.208497 378 
L 325.748912 378 
L 325.748912 312.374245 
L 322.208497 312.374245 
z
" clip-path="url(#pb59f74beef)" style="fill: #a3e301"/>
   </g>
   <g id="patch_61">
    <path d="M 325.748912 378 
L 329.289328 378 
L 329.289328 316.749296 
L 325.748912 316.749296 
z
" clip-path="url(#pb59f74beef)" style="fill: #a3e301"/>
   </g>
   <g id="patch_62">
    <path d="M 329.289328 378 
L 332.829743 378 
L 332.829743 325.499396 
L 329.289328 325.499396 
z
" clip-path="url(#pb59f74beef)" style="fill: #a3e301"/>
   </g>
   <g id="patch_63">
    <path d="M 332.829743 378 
L 336.370159 378 
L 336.370159 286.123944 
L 332.829743 286.123944 
z
" clip-path="url(#pb59f74beef)" style="fill: #a3e301"/>
   </g>
   <g id="patch_64">
    <path d="M 336.370159 378 
L 339.910574 378 
L 339.910574 316.749296 
L 336.370159 316.749296 
z
" clip-path="url(#pb59f74beef)" style="fill: #a3e301"/>
   </g>
   <g id="patch_65">
    <path d="M 339.910574 378 
L 343.450989 378 
L 343.450989 325.499396 
L 339.910574 325.499396 
z
" clip-path="url(#pb59f74beef)" style="fill: #a3e301"/>
   </g>
   <g id="patch_66">
    <path d="M 343.450989 378 
L 346.991405 378 
L 346.991405 299.249095 
L 343.450989 299.249095 
z
" clip-path="url(#pb59f74beef)" style="fill: #a3e301"/>
   </g>
   <g id="patch_67">
    <path d="M 346.991405 378 
L 350.53182 378 
L 350.53182 277.373843 
L 346.991405 277.373843 
z
" clip-path="url(#pb59f74beef)" style="fill: #a3e301"/>
   </g>
   <g id="patch_68">
    <path d="M 350.53182 378 
L 354.072236 378 
L 354.072236 303.624145 
L 350.53182 303.624145 
z
" clip-path="url(#pb59f74beef)" style="fill: #a3e301"/>
   </g>
   <g id="patch_69">
    <path d="M 354.072236 378 
L 357.612651 378 
L 357.612651 303.624145 
L 354.072236 303.624145 
z
" clip-path="url(#pb59f74beef)" style="fill: #a3e301"/>
   </g>
   <g id="patch_70">
    <path d="M 357.612651 378 
L 361.153066 378 
L 361.153066 312.374245 
L 357.612651 312.374245 
z
" clip-path="url(#pb59f74beef)" style="fill: #a3e301"/>
   </g>
   <g id="patch_71">
    <path d="M 361.153066 378 
L 364.693482 378 
L 364.693482 321.124346 
L 361.153066 321.124346 
z
" clip-path="url(#pb59f74beef)" style="fill: #a3e301"/>
   </g>
   <g id="patch_72">
    <path d="M 364.693482 378 
L 368.233897 378 
L 368.233897 307.999195 
L 364.693482 307.999195 
z
" clip-path="url(#pb59f74beef)" style="fill: #a3e301"/>
   </g>
   <g id="patch_73">
    <path d="M 368.233897 378 
L 371.774313 378 
L 371.774313 299.249095 
L 368.233897 299.249095 
z
" clip-path="url(#pb59f74beef)" style="fill: #a3e301"/>
   </g>
   <g id="patch_74">
    <path d="M 371.774313 378 
L 375.314728 378 
L 375.314728 277.373843 
L 371.774313 277.373843 
z
" clip-path="url(#pb59f74beef)" style="fill: #a3e301"/>
   </g>
   <g id="patch_75">
    <path d="M 375.314728 378 
L 378.855143 378 
L 378.855143 277.373843 
L 375.314728 277.373843 
z
" clip-path="url(#pb59f74beef)" style="fill: #a3e301"/>
   </g>
   <g id="patch_76">
    <path d="M 378.855143 378 
L 382.395559 378 
L 382.395559 290.498994 
L 378.855143 290.498994 
z
" clip-path="url(#pb59f74beef)" style="fill: #a3e301"/>
   </g>
   <g id="patch_77">
    <path d="M 382.395559 378 
L 385.935974 378 
L 385.935974 264.248692 
L 382.395559 264.248692 
z
" clip-path="url(#pb59f74beef)" style="fill: #a3e301"/>
   </g>
   <g id="patch_78">
    <path d="M 385.935974 378 
L 389.47639 378 
L 389.47639 312.374245 
L 385.935974 312.374245 
z
" clip-path="url(#pb59f74beef)" style="fill: #a3e301"/>
   </g>
   <g id="patch_79">
    <path d="M 389.47639 378 
L 393.016805 378 
L 393.016805 325.499396 
L 389.47639 325.499396 
z
" clip-path="url(#pb59f74beef)" style="fill: #a3e301"/>
   </g>
   <g id="patch_80">
    <path d="M 393.016805 378 
L 396.55722 378 
L 396.55722 286.123944 
L 393.016805 286.123944 
z
" clip-path="url(#pb59f74beef)" style="fill: #a3e301"/>
   </g>
   <g id="patch_81">
    <path d="M 396.55722 378 
L 400.097636 378 
L 400.097636 303.624145 
L 396.55722 303.624145 
z
" clip-path="url(#pb59f74beef)" style="fill: #a3e301"/>
   </g>
   <g id="patch_82">
    <path d="M 400.097636 378 
L 403.638051 378 
L 403.638051 321.124346 
L 400.097636 321.124346 
z
" clip-path="url(#pb59f74beef)" style="fill: #a3e301"/>
   </g>
   <g id="patch_83">
    <path d="M 403.638051 378 
L 407.178467 378 
L 407.178467 334.249497 
L 403.638051 334.249497 
z
" clip-path="url(#pb59f74beef)" style="fill: #a3e301"/>
   </g>
   <g id="patch_84">
    <path d="M 407.178467 378 
L 410.718882 378 
L 410.718882 338.624547 
L 407.178467 338.624547 
z
" clip-path="url(#pb59f74beef)" style="fill: #a3e301"/>
   </g>
   <g id="patch_85">
    <path d="M 410.718882 378 
L 414.259297 378 
L 414.259297 321.124346 
L 410.718882 321.124346 
z
" clip-path="url(#pb59f74beef)" style="fill: #a3e301"/>
   </g>
   <g id="patch_86">
    <path d="M 414.259297 378 
L 417.799713 378 
L 417.799713 321.124346 
L 414.259297 321.124346 
z
" clip-path="url(#pb59f74beef)" style="fill: #a3e301"/>
   </g>
   <g id="patch_87">
    <path d="M 417.799713 378 
L 421.340128 378 
L 421.340128 272.998793 
L 417.799713 272.998793 
z
" clip-path="url(#pb59f74beef)" style="fill: #a3e301"/>
   </g>
   <g id="patch_88">
    <path d="M 421.340128 378 
L 424.880544 378 
L 424.880544 281.748893 
L 421.340128 281.748893 
z
" clip-path="url(#pb59f74beef)" style="fill: #a3e301"/>
   </g>
   <g id="patch_89">
    <path d="M 424.880544 378 
L 428.420959 378 
L 428.420959 290.498994 
L 424.880544 290.498994 
z
" clip-path="url(#pb59f74beef)" style="fill: #a3e301"/>
   </g>
   <g id="patch_90">
    <path d="M 428.420959 378 
L 431.961374 378 
L 431.961374 242.373441 
L 428.420959 242.373441 
z
" clip-path="url(#pb59f74beef)" style="fill: #a3e301"/>
   </g>
   <g id="patch_91">
    <path d="M 431.961374 378 
L 435.50179 378 
L 435.50179 272.998793 
L 431.961374 272.998793 
z
" clip-path="url(#pb59f74beef)" style="fill: #a3e301"/>
   </g>
   <g id="patch_92">
    <path d="M 435.50179 378 
L 439.042205 378 
L 439.042205 220.498189 
L 435.50179 220.498189 
z
" clip-path="url(#pb59f74beef)" style="fill: #a3e301"/>
   </g>
   <g id="patch_93">
    <path d="M 439.042205 378 
L 442.582621 378 
L 442.582621 220.498189 
L 439.042205 220.498189 
z
" clip-path="url(#pb59f74beef)" style="fill: #a3e301"/>
   </g>
   <g id="patch_94">
    <path d="M 442.582621 378 
L 446.123036 378 
L 446.123036 137.372233 
L 442.582621 137.372233 
z
" clip-path="url(#pb59f74beef)" style="fill: #a3e301"/>
   </g>
   <g id="patch_95">
    <path d="M 446.123036 378 
L 449.663451 378 
L 449.663451 163.622535 
L 446.123036 163.622535 
z
" clip-path="url(#pb59f74beef)" style="fill: #a3e301"/>
   </g>
   <g id="patch_96">
    <path d="M 449.663451 378 
L 453.203867 378 
L 453.203867 163.622535 
L 449.663451 163.622535 
z
" clip-path="url(#pb59f74beef)" style="fill: #a3e301"/>
   </g>
   <g id="patch_97">
    <path d="M 453.203867 378 
L 456.744282 378 
L 456.744282 229.24829 
L 453.203867 229.24829 
z
" clip-path="url(#pb59f74beef)" style="fill: #a3e301"/>
   </g>
   <g id="patch_98">
    <path d="M 456.744282 378 
L 460.284698 378 
L 460.284698 242.373441 
L 456.744282 242.373441 
z
" clip-path="url(#pb59f74beef)" style="fill: #a3e301"/>
   </g>
   <g id="patch_99">
    <path d="M 460.284698 378 
L 463.825113 378 
L 463.825113 299.249095 
L 460.284698 299.249095 
z
" clip-path="url(#pb59f74beef)" style="fill: #a3e301"/>
   </g>
   <g id="patch_100">
    <path d="M 463.825113 378 
L 467.365528 378 
L 467.365528 351.749698 
L 463.825113 351.749698 
z
" clip-path="url(#pb59f74beef)" style="fill: #a3e301"/>
   </g>
   <g id="patch_101">
    <path d="M 467.365528 378 
L 470.905944 378 
L 470.905944 378 
L 467.365528 378 
z
" clip-path="url(#pb59f74beef)" style="fill: #a3e301"/>
   </g>
   <g id="patch_102">
    <path d="M 470.905944 378 
L 474.446359 378 
L 474.446359 364.874849 
L 470.905944 364.874849 
z
" clip-path="url(#pb59f74beef)" style="fill: #a3e301"/>
   </g>
   <g id="matplotlib.axis_1">
    <g id="xtick_1">
     <g id="line2d_1">
      <defs>
       <path id="m89f646c35e" d="M 0 0 
L 0 3.5 
" style="stroke: #000000; stroke-width: 0.8"/>
      </defs>
      <g>
       <use xlink:href="#m89f646c35e" x="72" y="378" style="stroke: #000000; stroke-width: 0.8"/>
      </g>
     </g>
     <g id="text_1">
      <!-- 0.00 -->
      <g transform="translate(60.867188 392.598437)scale(0.1 -0.1)">
       <defs>
        <path id="DejaVuSans-30" d="M 2034 4250 
Q 1547 4250 1301 3770 
Q 1056 3291 1056 2328 
Q 1056 1369 1301 889 
Q 1547 409 2034 409 
Q 2525 409 2770 889 
Q 3016 1369 3016 2328 
Q 3016 3291 2770 3770 
Q 2525 4250 2034 4250 
z
M 2034 4750 
Q 2819 4750 3233 4129 
Q 3647 3509 3647 2328 
Q 3647 1150 3233 529 
Q 2819 -91 2034 -91 
Q 1250 -91 836 529 
Q 422 1150 422 2328 
Q 422 3509 836 4129 
Q 1250 4750 2034 4750 
z
" transform="scale(0.015625)"/>
        <path id="DejaVuSans-2e" d="M 684 794 
L 1344 794 
L 1344 0 
L 684 0 
L 684 794 
z
" transform="scale(0.015625)"/>
       </defs>
       <use xlink:href="#DejaVuSans-30"/>
       <use xlink:href="#DejaVuSans-2e" x="63.623047"/>
       <use xlink:href="#DejaVuSans-30" x="95.410156"/>
       <use xlink:href="#DejaVuSans-30" x="159.033203"/>
      </g>
     </g>
    </g>
    <g id="xtick_2">
     <g id="line2d_2">
      <g>
       <use xlink:href="#m89f646c35e" x="183.6" y="378" style="stroke: #000000; stroke-width: 0.8"/>
      </g>
     </g>
     <g id="text_2">
      <!-- 0.25 -->
      <g transform="translate(172.467187 392.598437)scale(0.1 -0.1)">
       <defs>
        <path id="DejaVuSans-32" d="M 1228 531 
L 3431 531 
L 3431 0 
L 469 0 
L 469 531 
Q 828 903 1448 1529 
Q 2069 2156 2228 2338 
Q 2531 2678 2651 2914 
Q 2772 3150 2772 3378 
Q 2772 3750 2511 3984 
Q 2250 4219 1831 4219 
Q 1534 4219 1204 4116 
Q 875 4013 500 3803 
L 500 4441 
Q 881 4594 1212 4672 
Q 1544 4750 1819 4750 
Q 2544 4750 2975 4387 
Q 3406 4025 3406 3419 
Q 3406 3131 3298 2873 
Q 3191 2616 2906 2266 
Q 2828 2175 2409 1742 
Q 1991 1309 1228 531 
z
" transform="scale(0.015625)"/>
        <path id="DejaVuSans-35" d="M 691 4666 
L 3169 4666 
L 3169 4134 
L 1269 4134 
L 1269 2991 
Q 1406 3038 1543 3061 
Q 1681 3084 1819 3084 
Q 2600 3084 3056 2656 
Q 3513 2228 3513 1497 
Q 3513 744 3044 326 
Q 2575 -91 1722 -91 
Q 1428 -91 1123 -41 
Q 819 9 494 109 
L 494 744 
Q 775 591 1075 516 
Q 1375 441 1709 441 
Q 2250 441 2565 725 
Q 2881 1009 2881 1497 
Q 2881 1984 2565 2268 
Q 2250 2553 1709 2553 
Q 1456 2553 1204 2497 
Q 953 2441 691 2322 
L 691 4666 
z
" transform="scale(0.015625)"/>
       </defs>
       <use xlink:href="#DejaVuSans-30"/>
       <use xlink:href="#DejaVuSans-2e" x="63.623047"/>
       <use xlink:href="#DejaVuSans-32" x="95.410156"/>
       <use xlink:href="#DejaVuSans-35" x="159.033203"/>
      </g>
     </g>
    </g>
    <g id="xtick_3">
     <g id="line2d_3">
      <g>
       <use xlink:href="#m89f646c35e" x="295.2" y="378" style="stroke: #000000; stroke-width: 0.8"/>
      </g>
     </g>
     <g id="text_3">
      <!-- 0.50 -->
      <g transform="translate(284.067187 392.598437)scale(0.1 -0.1)">
       <use xlink:href="#DejaVuSans-30"/>
       <use xlink:href="#DejaVuSans-2e" x="63.623047"/>
       <use xlink:href="#DejaVuSans-35" x="95.410156"/>
       <use xlink:href="#DejaVuSans-30" x="159.033203"/>
      </g>
     </g>
    </g>
    <g id="xtick_4">
     <g id="line2d_4">
      <g>
       <use xlink:href="#m89f646c35e" x="406.8" y="378" style="stroke: #000000; stroke-width: 0.8"/>
      </g>
     </g>
     <g id="text_4">
      <!-- 0.75 -->
      <g transform="translate(395.667187 392.598437)scale(0.1 -0.1)">
       <defs>
        <path id="DejaVuSans-37" d="M 525 4666 
L 3525 4666 
L 3525 4397 
L 1831 0 
L 1172 0 
L 2766 4134 
L 525 4134 
L 525 4666 
z
" transform="scale(0.015625)"/>
       </defs>
       <use xlink:href="#DejaVuSans-30"/>
       <use xlink:href="#DejaVuSans-2e" x="63.623047"/>
       <use xlink:href="#DejaVuSans-37" x="95.410156"/>
       <use xlink:href="#DejaVuSans-35" x="159.033203"/>
      </g>
     </g>
    </g>
    <g id="xtick_5">
     <g id="line2d_5">
      <g>
       <use xlink:href="#m89f646c35e" x="518.4" y="378" style="stroke: #000000; stroke-width: 0.8"/>
      </g>
     </g>
     <g id="text_5">
      <!-- 1.00 -->
      <g transform="translate(507.267187 392.598437)scale(0.1 -0.1)">
       <defs>
        <path id="DejaVuSans-31" d="M 794 531 
L 1825 531 
L 1825 4091 
L 703 3866 
L 703 4441 
L 1819 4666 
L 2450 4666 
L 2450 531 
L 3481 531 
L 3481 0 
L 794 0 
L 794 531 
z
" transform="scale(0.015625)"/>
       </defs>
       <use xlink:href="#DejaVuSans-31"/>
       <use xlink:href="#DejaVuSans-2e" x="63.623047"/>
       <use xlink:href="#DejaVuSans-30" x="95.410156"/>
       <use xlink:href="#DejaVuSans-30" x="159.033203"/>
      </g>
     </g>
    </g>
   </g>
   <g id="matplotlib.axis_2">
    <g id="ytick_1">
     <g id="line2d_6">
      <defs>
       <path id="mf52ca5cdef" d="M 0 0 
L -3.5 0 
" style="stroke: #000000; stroke-width: 0.8"/>
      </defs>
      <g>
       <use xlink:href="#mf52ca5cdef" x="72" y="378" style="stroke: #000000; stroke-width: 0.8"/>
      </g>
     </g>
     <g id="text_6">
      <!-- 0.0 -->
      <g transform="translate(49.096875 381.799219)scale(0.1 -0.1)">
       <use xlink:href="#DejaVuSans-30"/>
       <use xlink:href="#DejaVuSans-2e" x="63.623047"/>
       <use xlink:href="#DejaVuSans-30" x="95.410156"/>
      </g>
     </g>
    </g>
    <g id="ytick_2">
     <g id="line2d_7">
      <g>
       <use xlink:href="#mf52ca5cdef" x="72" y="338.113855" style="stroke: #000000; stroke-width: 0.8"/>
      </g>
     </g>
     <g id="text_7">
      <!-- 0.5 -->
      <g transform="translate(49.096875 341.913074)scale(0.1 -0.1)">
       <use xlink:href="#DejaVuSans-30"/>
       <use xlink:href="#DejaVuSans-2e" x="63.623047"/>
       <use xlink:href="#DejaVuSans-35" x="95.410156"/>
      </g>
     </g>
    </g>
    <g id="ytick_3">
     <g id="line2d_8">
      <g>
       <use xlink:href="#mf52ca5cdef" x="72" y="298.22771" style="stroke: #000000; stroke-width: 0.8"/>
      </g>
     </g>
     <g id="text_8">
      <!-- 1.0 -->
      <g transform="translate(49.096875 302.026929)scale(0.1 -0.1)">
       <use xlink:href="#DejaVuSans-31"/>
       <use xlink:href="#DejaVuSans-2e" x="63.623047"/>
       <use xlink:href="#DejaVuSans-30" x="95.410156"/>
      </g>
     </g>
    </g>
    <g id="ytick_4">
     <g id="line2d_9">
      <g>
       <use xlink:href="#mf52ca5cdef" x="72" y="258.341566" style="stroke: #000000; stroke-width: 0.8"/>
      </g>
     </g>
     <g id="text_9">
      <!-- 1.5 -->
      <g transform="translate(49.096875 262.140784)scale(0.1 -0.1)">
       <use xlink:href="#DejaVuSans-31"/>
       <use xlink:href="#DejaVuSans-2e" x="63.623047"/>
       <use xlink:href="#DejaVuSans-35" x="95.410156"/>
      </g>
     </g>
    </g>
    <g id="ytick_5">
     <g id="line2d_10">
      <g>
       <use xlink:href="#mf52ca5cdef" x="72" y="218.455421" style="stroke: #000000; stroke-width: 0.8"/>
      </g>
     </g>
     <g id="text_10">
      <!-- 2.0 -->
      <g transform="translate(49.096875 222.25464)scale(0.1 -0.1)">
       <use xlink:href="#DejaVuSans-32"/>
       <use xlink:href="#DejaVuSans-2e" x="63.623047"/>
       <use xlink:href="#DejaVuSans-30" x="95.410156"/>
      </g>
     </g>
    </g>
    <g id="ytick_6">
     <g id="line2d_11">
      <g>
       <use xlink:href="#mf52ca5cdef" x="72" y="178.569276" style="stroke: #000000; stroke-width: 0.8"/>
      </g>
     </g>
     <g id="text_11">
      <!-- 2.5 -->
      <g transform="translate(49.096875 182.368495)scale(0.1 -0.1)">
       <use xlink:href="#DejaVuSans-32"/>
       <use xlink:href="#DejaVuSans-2e" x="63.623047"/>
       <use xlink:href="#DejaVuSans-35" x="95.410156"/>
      </g>
     </g>
    </g>
    <g id="ytick_7">
     <g id="line2d_12">
      <g>
       <use xlink:href="#mf52ca5cdef" x="72" y="138.683131" style="stroke: #000000; stroke-width: 0.8"/>
      </g>
     </g>
     <g id="text_12">
      <!-- 3.0 -->
      <g transform="translate(49.096875 142.48235)scale(0.1 -0.1)">
       <defs>
        <path id="DejaVuSans-33" d="M 2597 2516 
Q 3050 2419 3304 2112 
Q 3559 1806 3559 1356 
Q 3559 666 3084 287 
Q 2609 -91 1734 -91 
Q 1441 -91 1130 -33 
Q 819 25 488 141 
L 488 750 
Q 750 597 1062 519 
Q 1375 441 1716 441 
Q 2309 441 2620 675 
Q 2931 909 2931 1356 
Q 2931 1769 2642 2001 
Q 2353 2234 1838 2234 
L 1294 2234 
L 1294 2753 
L 1863 2753 
Q 2328 2753 2575 2939 
Q 2822 3125 2822 3475 
Q 2822 3834 2567 4026 
Q 2313 4219 1838 4219 
Q 1578 4219 1281 4162 
Q 984 4106 628 3988 
L 628 4550 
Q 988 4650 1302 4700 
Q 1616 4750 1894 4750 
Q 2613 4750 3031 4423 
Q 3450 4097 3450 3541 
Q 3450 3153 3228 2886 
Q 3006 2619 2597 2516 
z
" transform="scale(0.015625)"/>
       </defs>
       <use xlink:href="#DejaVuSans-33"/>
       <use xlink:href="#DejaVuSans-2e" x="63.623047"/>
       <use xlink:href="#DejaVuSans-30" x="95.410156"/>
      </g>
     </g>
    </g>
    <g id="ytick_8">
     <g id="line2d_13">
      <g>
       <use xlink:href="#mf52ca5cdef" x="72" y="98.796987" style="stroke: #000000; stroke-width: 0.8"/>
      </g>
     </g>
     <g id="text_13">
      <!-- 3.5 -->
      <g transform="translate(49.096875 102.596205)scale(0.1 -0.1)">
       <use xlink:href="#DejaVuSans-33"/>
       <use xlink:href="#DejaVuSans-2e" x="63.623047"/>
       <use xlink:href="#DejaVuSans-35" x="95.410156"/>
      </g>
     </g>
    </g>
    <g id="ytick_9">
     <g id="line2d_14">
      <g>
       <use xlink:href="#mf52ca5cdef" x="72" y="58.910842" style="stroke: #000000; stroke-width: 0.8"/>
      </g>
     </g>
     <g id="text_14">
      <!-- 4.0 -->
      <g transform="translate(49.096875 62.710061)scale(0.1 -0.1)">
       <defs>
        <path id="DejaVuSans-34" d="M 2419 4116 
L 825 1625 
L 2419 1625 
L 2419 4116 
z
M 2253 4666 
L 3047 4666 
L 3047 1625 
L 3713 1625 
L 3713 1100 
L 3047 1100 
L 3047 0 
L 2419 0 
L 2419 1100 
L 313 1100 
L 313 1709 
L 2253 4666 
z
" transform="scale(0.015625)"/>
       </defs>
       <use xlink:href="#DejaVuSans-34"/>
       <use xlink:href="#DejaVuSans-2e" x="63.623047"/>
       <use xlink:href="#DejaVuSans-30" x="95.410156"/>
      </g>
     </g>
    </g>
   </g>
   <g id="patch_103">
    <path d="M 75.242008 378 
L 75.242008 353.244503 
L 79.641299 353.244503 
L 79.641299 340.407276 
L 84.04059 340.407276 
L 84.04059 336.826513 
L 88.439881 336.826513 
L 88.439881 335.435755 
L 92.839173 335.435755 
L 92.839173 333.284481 
L 97.238464 333.284481 
L 97.238464 332.742261 
L 101.637755 332.742261 
L 101.637755 332.052163 
L 106.037046 332.052163 
L 106.037046 330.348044 
L 110.436338 330.348044 
L 110.436338 329.084039 
L 114.835629 329.084039 
L 114.835629 328.636884 
L 119.23492 328.636884 
L 119.23492 326.830658 
L 123.634211 326.830658 
L 123.634211 325.813116 
L 128.033503 325.813116 
L 128.033503 323.982244 
L 132.432794 323.982244 
L 132.432794 323.447067 
L 136.832085 323.447067 
L 136.832085 321.704218 
L 141.231376 321.704218 
L 141.231376 320.341627 
L 145.630668 320.341627 
L 145.630668 319.954327 
L 150.029959 319.954327 
L 150.029959 318.859325 
L 154.42925 318.859325 
L 154.42925 316.672841 
L 158.828541 316.672841 
L 158.828541 314.806761 
L 163.227833 314.806761 
L 163.227833 313.454732 
L 167.627124 313.454732 
L 167.627124 311.902012 
L 172.026415 311.902012 
L 172.026415 310.032411 
L 176.425706 310.032411 
L 176.425706 308.208581 
L 180.824998 308.208581 
L 180.824998 306.726279 
L 185.224289 306.726279 
L 185.224289 304.022223 
L 189.62358 304.022223 
L 189.62358 302.856802 
L 194.022871 302.856802 
L 194.022871 300.304145 
L 198.422163 300.304145 
L 198.422163 297.589525 
L 202.821454 297.589525 
L 202.821454 296.318478 
L 207.220745 296.318478 
L 207.220745 293.596817 
L 211.620036 293.596817 
L 211.620036 290.128723 
L 216.019328 290.128723 
L 216.019328 288.688672 
L 220.418619 288.688672 
L 220.418619 285.368457 
L 224.81791 285.368457 
L 224.81791 282.875655 
L 229.217201 282.875655 
L 229.217201 279.756131 
L 233.616493 279.756131 
L 233.616493 277.354873 
L 238.015784 277.354873 
L 238.015784 274.453645 
L 242.415075 274.453645 
L 242.415075 270.693317 
L 246.814366 270.693317 
L 246.814366 266.841444 
L 251.213658 266.841444 
L 251.213658 262.922675 
L 255.612949 262.922675 
L 255.612949 259.940467 
L 260.01224 259.940467 
L 260.01224 254.771775 
L 264.411531 254.771775 
L 264.411531 249.909402 
L 268.810823 249.909402 
L 268.810823 245.480101 
L 273.210114 245.480101 
L 273.210114 240.920527 
L 277.609405 240.920527 
L 277.609405 236.920776 
L 282.008696 236.920776 
L 282.008696 231.769689 
L 286.407988 231.769689 
L 286.407988 225.428536 
L 290.807279 225.428536 
L 290.807279 219.562705 
L 295.20657 219.562705 
L 295.20657 219.81621 
L 299.605861 219.81621 
L 299.605861 224.963776 
L 304.005153 224.963776 
L 304.005153 230.889463 
L 308.404444 230.889463 
L 308.404444 236.579248 
L 312.803735 236.579248 
L 312.803735 240.607166 
L 317.203026 240.607166 
L 317.203026 245.916694 
L 321.602318 245.916694 
L 321.602318 250.412892 
L 326.001609 250.412892 
L 326.001609 254.314057 
L 330.4009 254.314057 
L 330.4009 260.246785 
L 334.800191 260.246785 
L 334.800191 264.725379 
L 339.199483 264.725379 
L 339.199483 266.989322 
L 343.598774 266.989322 
L 343.598774 270.348268 
L 347.998065 270.348268 
L 347.998065 274.798694 
L 352.397356 274.798694 
L 352.397356 276.252829 
L 356.796648 276.252829 
L 356.796648 280.379332 
L 361.195939 280.379332 
L 361.195939 283.150286 
L 365.59523 283.150286 
L 365.59523 285.938844 
L 369.994521 285.938844 
L 369.994521 289.248497 
L 374.393813 289.248497 
L 374.393813 290.378708 
L 378.793104 290.378708 
L 378.793104 292.526461 
L 383.192395 292.526461 
L 383.192395 295.522753 
L 387.591686 295.522753 
L 387.591686 297.72332 
L 391.990978 297.72332 
L 391.990978 300.283019 
L 396.390269 300.283019 
L 396.390269 302.582172 
L 400.78956 302.582172 
L 400.78956 304.993993 
L 405.188851 304.993993 
L 405.188851 307.31075 
L 409.588143 307.31075 
L 409.588143 308.000847 
L 413.987434 308.000847 
L 413.987434 309.395127 
L 418.386725 309.395127 
L 418.386725 311.560484 
L 422.786016 311.560484 
L 422.786016 313.197706 
L 427.185308 313.197706 
L 427.185308 314.489879 
L 431.584599 314.489879 
L 431.584599 315.792615 
L 435.98389 315.792615 
L 435.98389 318.331189 
L 440.383181 318.331189 
L 440.383181 319.57759 
L 444.782473 319.57759 
L 444.782473 320.883846 
L 449.181764 320.883846 
L 449.181764 321.704218 
L 453.581055 321.704218 
L 453.581055 323.781553 
L 457.980346 323.781553 
L 457.980346 324.320252 
L 462.379637 324.320252 
L 462.379637 325.777907 
L 466.778929 325.777907 
L 466.778929 327.006704 
L 471.17822 327.006704 
L 471.17822 328.175645 
L 475.577511 328.175645 
L 475.577511 328.988974 
L 479.976802 328.988974 
L 479.976802 330.168478 
L 484.376094 330.168478 
L 484.376094 331.080393 
L 488.775385 331.080393 
L 488.775385 332.928869 
L 493.174676 332.928869 
L 493.174676 334.221042 
L 497.573967 334.221042 
L 497.573967 335.185771 
L 501.973259 335.185771 
L 501.973259 336.594133 
L 506.37255 336.594133 
L 506.37255 340.167854 
L 510.771841 340.167854 
L 510.771841 353.93108 
L 515.171132 353.93108 
L 515.171132 378 
L 515.171132 378 
" clip-path="url(#pb59f74beef)" style="fill: none; stroke: #fc6983; stroke-linejoin: miter"/>
   </g>
   <g id="patch_104">
    <path d="M 80.716883 378 
L 80.716883 377.565043 
L 85.061493 377.565043 
L 85.061493 377.083738 
L 89.406103 377.083738 
L 89.406103 373.293908 
L 93.750712 373.293908 
L 93.750712 370.398948 
L 98.095322 370.398948 
L 98.095322 368.063728 
L 102.439932 368.063728 
L 102.439932 360.409198 
L 106.784541 360.409198 
L 106.784541 351.011274 
L 111.129151 351.011274 
L 111.129151 340.401175 
L 115.473761 340.401175 
L 115.473761 338.229955 
L 119.81837 338.229955 
L 119.81837 340.262131 
L 124.16298 340.262131 
L 124.16298 338.158651 
L 128.50759 338.158651 
L 128.50759 330.25099 
L 132.8522 330.25099 
L 132.8522 322.311241 
L 137.196809 322.311241 
L 137.196809 310.132445 
L 141.541419 310.132445 
L 141.541419 301.536696 
L 145.886029 301.536696 
L 145.886029 297.960779 
L 150.230638 297.960779 
L 150.230638 303.804177 
L 154.575248 303.804177 
L 154.575248 307.558355 
L 158.919858 307.558355 
L 158.919858 313.141492 
L 163.264467 313.141492 
L 163.264467 315.487408 
L 167.609077 315.487408 
L 167.609077 319.184542 
L 171.953687 319.184542 
L 171.953687 318.895759 
L 176.298296 318.895759 
L 176.298296 315.630017 
L 180.642906 315.630017 
L 180.642906 310.85975 
L 184.987516 310.85975 
L 184.987516 300.752348 
L 189.332125 300.752348 
L 189.332125 291.461381 
L 193.676735 291.461381 
L 193.676735 279.646237 
L 198.021345 279.646237 
L 198.021345 270.0344 
L 202.365954 270.0344 
L 202.365954 261.791608 
L 206.710564 261.791608 
L 206.710564 256.768211 
L 211.055174 256.768211 
L 211.055174 260.312041 
L 215.399783 260.312041 
L 215.399783 257.948299 
L 219.744393 257.948299 
L 219.744393 263.535001 
L 224.089003 263.535001 
L 224.089003 268.02718 
L 228.433612 268.02718 
L 228.433612 273.439186 
L 232.778222 273.439186 
L 232.778222 283.446763 
L 237.122832 283.446763 
L 237.122832 288.47016 
L 241.467441 288.47016 
L 241.467441 291.53625 
L 245.812051 291.53625 
L 245.812051 291.689555 
L 250.156661 291.689555 
L 250.156661 286.584158 
L 254.50127 286.584158 
L 254.50127 284.006503 
L 258.84588 284.006503 
L 258.84588 280.266585 
L 263.19049 280.266585 
L 263.19049 270.294661 
L 267.535099 270.294661 
L 267.535099 267.210745 
L 271.879709 267.210745 
L 271.879709 262.568826 
L 276.224319 262.568826 
L 276.224319 249.858812 
L 280.568928 249.858812 
L 280.568928 239.829844 
L 284.913538 239.829844 
L 284.913538 231.166356 
L 289.258148 231.166356 
L 289.258148 220.741649 
L 293.602758 220.741649 
L 293.602758 215.365295 
L 297.947367 215.365295 
L 297.947367 221.943128 
L 302.291977 221.943128 
L 302.291977 230.713573 
L 306.636587 230.713573 
L 306.636587 239.398452 
L 310.981196 239.398452 
L 310.981196 255.206644 
L 315.325806 255.206644 
L 315.325806 266.5797 
L 319.670416 266.5797 
L 319.670416 273.485534 
L 324.015025 273.485534 
L 324.015025 282.013544 
L 328.359635 282.013544 
L 328.359635 285.17946 
L 332.704245 285.17946 
L 332.704245 287.272245 
L 337.048854 287.272245 
L 337.048854 284.092068 
L 341.393464 284.092068 
L 341.393464 284.719547 
L 345.738074 284.719547 
L 345.738074 279.45728 
L 350.082683 279.45728 
L 350.082683 276.341277 
L 354.427293 276.341277 
L 354.427293 270.127096 
L 358.771903 270.127096 
L 358.771903 268.975529 
L 363.116512 268.975529 
L 363.116512 263.346045 
L 367.461122 263.346045 
L 367.461122 261.238999 
L 371.805732 261.238999 
L 371.805732 260.632911 
L 376.150341 260.632911 
L 376.150341 261.385173 
L 380.494951 261.385173 
L 380.494951 261.552738 
L 384.839561 261.552738 
L 384.839561 265.396047 
L 389.18417 265.396047 
L 389.18417 270.455096 
L 393.52878 270.455096 
L 393.52878 277.097104 
L 397.87339 277.097104 
L 397.87339 285.011895 
L 402.217999 285.011895 
L 402.217999 290.302684 
L 406.562609 290.302684 
L 406.562609 298.884172 
L 410.907219 298.884172 
L 410.907219 300.688174 
L 415.251828 300.688174 
L 415.251828 303.258698 
L 419.596438 303.258698 
L 419.596438 299.604346 
L 423.941048 299.604346 
L 423.941048 298.153301 
L 428.285657 298.153301 
L 428.285657 297.0053 
L 432.630267 297.0053 
L 432.630267 292.099555 
L 436.974877 292.099555 
L 436.974877 285.953114 
L 441.319487 285.953114 
L 441.319487 278.97241 
L 445.664096 278.97241 
L 445.664096 279.318236 
L 450.008706 279.318236 
L 450.008706 287.411289 
L 454.353316 287.411289 
L 454.353316 299.051737 
L 458.697925 299.051737 
L 458.697925 302.841567 
L 463.042535 302.841567 
L 463.042535 307.618964 
L 471.731754 307.522703 
L 471.731754 304.688352 
L 476.076364 304.688352 
L 476.076364 312.592448 
L 480.420974 312.592448 
L 480.420974 329.523684 
L 484.765583 329.523684 
L 484.765583 347.356922 
L 489.110193 347.356922 
L 489.110193 355.86354 
L 493.454803 355.86354 
L 493.454803 363.475288 
L 497.799412 363.475288 
L 497.799412 371.489906 
L 502.144022 371.489906 
L 502.144022 376.049824 
L 506.488632 376.049824 
L 506.488632 376.566781 
L 510.833241 376.566781 
L 510.833241 377.258434 
L 515.177851 377.258434 
L 515.177851 378 
L 515.177851 378 
" clip-path="url(#pb59f74beef)" style="fill: none; stroke: #15215b; stroke-linejoin: miter"/>
   </g>
   <g id="patch_105">
    <path d="M 72 378 
L 72 51.84 
" style="fill: none; stroke: #000000; stroke-width: 0.8; stroke-linejoin: miter; stroke-linecap: square"/>
   </g>
   <g id="patch_106">
    <path d="M 518.4 378 
L 518.4 51.84 
" style="fill: none; stroke: #000000; stroke-width: 0.8; stroke-linejoin: miter; stroke-linecap: square"/>
   </g>
   <g id="patch_107">
    <path d="M 72 378 
L 518.4 378 
" style="fill: none; stroke: #000000; stroke-width: 0.8; stroke-linejoin: miter; stroke-linecap: square"/>
   </g>
   <g id="patch_108">
    <path d="M 72 51.84 
L 518.4 51.84 
" style="fill: none; stroke: #000000; stroke-width: 0.8; stroke-linejoin: miter; stroke-linecap: square"/>
   </g>
  </g>
 </g>
 <defs>
  <clipPath id="pb59f74beef">
   <rect x="72" y="51.84" width="446.4" height="326.16"/>
  </clipPath>
 </defs>
</svg>
