<?xml version="1.0" encoding="utf-8" standalone="no"?>
<!DOCTYPE svg PUBLIC "-//W3C//DTD SVG 1.1//EN"
  "http://www.w3.org/Graphics/SVG/1.1/DTD/svg11.dtd">
<svg xmlns:xlink="http://www.w3.org/1999/xlink" width="576pt" height="432pt" viewBox="0 0 576 432" xmlns="http://www.w3.org/2000/svg" version="1.1">
 <metadata>
  <rdf:RDF xmlns:dc="http://purl.org/dc/elements/1.1/" xmlns:cc="http://creativecommons.org/ns#" xmlns:rdf="http://www.w3.org/1999/02/22-rdf-syntax-ns#">
   <cc:Work>
    <dc:type rdf:resource="http://purl.org/dc/dcmitype/StillImage"/>
    <dc:date>2022-04-04T21:00:53.791700</dc:date>
    <dc:format>image/svg+xml</dc:format>
    <dc:creator>
     <cc:Agent>
      <dc:title>Matplotlib v3.5.1, https://matplotlib.org/</dc:title>
     </cc:Agent>
    </dc:creator>
   </cc:Work>
  </rdf:RDF>
 </metadata>
 <defs>
  <style type="text/css">*{stroke-linejoin: round; stroke-linecap: butt}</style>
 </defs>
 <g id="figure_1">
  <g id="patch_1">
   <path d="M 0 432 
L 576 432 
L 576 0 
L 0 0 
L 0 432 
z
" style="fill: none"/>
  </g>
  <g id="axes_1">
   <g id="patch_2">
    <path d="M 72 378 
L 518.4 378 
L 518.4 51.84 
L 72 51.84 
z
" style="fill: #ffffff"/>
   </g>
   <g id="patch_3">
    <path d="M 192.60055 378 
L 194.665057 378 
L 194.665057 372.550376 
L 192.60055 372.550376 
z
" clip-path="url(#p82d2fbcf43)" style="fill: #a3e301; fill-opacity: 0.5"/>
   </g>
   <g id="patch_4">
    <path d="M 194.665057 378 
L 196.729564 378 
L 196.729564 378 
L 194.665057 378 
z
" clip-path="url(#p82d2fbcf43)" style="fill: #a3e301; fill-opacity: 0.5"/>
   </g>
   <g id="patch_5">
    <path d="M 196.729564 378 
L 198.794071 378 
L 198.794071 378 
L 196.729564 378 
z
" clip-path="url(#p82d2fbcf43)" style="fill: #a3e301; fill-opacity: 0.5"/>
   </g>
   <g id="patch_6">
    <path d="M 198.794071 378 
L 200.858578 378 
L 200.858578 372.550376 
L 198.794071 372.550376 
z
" clip-path="url(#p82d2fbcf43)" style="fill: #a3e301; fill-opacity: 0.5"/>
   </g>
   <g id="patch_7">
    <path d="M 200.858578 378 
L 202.923085 378 
L 202.923085 372.550376 
L 200.858578 372.550376 
z
" clip-path="url(#p82d2fbcf43)" style="fill: #a3e301; fill-opacity: 0.5"/>
   </g>
   <g id="patch_8">
    <path d="M 202.923085 378 
L 204.987591 378 
L 204.987591 378 
L 202.923085 378 
z
" clip-path="url(#p82d2fbcf43)" style="fill: #a3e301; fill-opacity: 0.5"/>
   </g>
   <g id="patch_9">
    <path d="M 204.987591 378 
L 207.052098 378 
L 207.052098 378 
L 204.987591 378 
z
" clip-path="url(#p82d2fbcf43)" style="fill: #a3e301; fill-opacity: 0.5"/>
   </g>
   <g id="patch_10">
    <path d="M 207.052098 378 
L 209.116605 378 
L 209.116605 378 
L 207.052098 378 
z
" clip-path="url(#p82d2fbcf43)" style="fill: #a3e301; fill-opacity: 0.5"/>
   </g>
   <g id="patch_11">
    <path d="M 209.116605 378 
L 211.181112 378 
L 211.181112 372.550376 
L 209.116605 372.550376 
z
" clip-path="url(#p82d2fbcf43)" style="fill: #a3e301; fill-opacity: 0.5"/>
   </g>
   <g id="patch_12">
    <path d="M 211.181112 378 
L 213.245619 378 
L 213.245619 372.550376 
L 211.181112 372.550376 
z
" clip-path="url(#p82d2fbcf43)" style="fill: #a3e301; fill-opacity: 0.5"/>
   </g>
   <g id="patch_13">
    <path d="M 213.245619 378 
L 215.310126 378 
L 215.310126 378 
L 213.245619 378 
z
" clip-path="url(#p82d2fbcf43)" style="fill: #a3e301; fill-opacity: 0.5"/>
   </g>
   <g id="patch_14">
    <path d="M 215.310126 378 
L 217.374633 378 
L 217.374633 372.550376 
L 215.310126 372.550376 
z
" clip-path="url(#p82d2fbcf43)" style="fill: #a3e301; fill-opacity: 0.5"/>
   </g>
   <g id="patch_15">
    <path d="M 217.374633 378 
L 219.43914 378 
L 219.43914 361.651128 
L 217.374633 361.651128 
z
" clip-path="url(#p82d2fbcf43)" style="fill: #a3e301; fill-opacity: 0.5"/>
   </g>
   <g id="patch_16">
    <path d="M 219.43914 378 
L 221.503646 378 
L 221.503646 372.550376 
L 219.43914 372.550376 
z
" clip-path="url(#p82d2fbcf43)" style="fill: #a3e301; fill-opacity: 0.5"/>
   </g>
   <g id="patch_17">
    <path d="M 221.503646 378 
L 223.568153 378 
L 223.568153 378 
L 221.503646 378 
z
" clip-path="url(#p82d2fbcf43)" style="fill: #a3e301; fill-opacity: 0.5"/>
   </g>
   <g id="patch_18">
    <path d="M 223.568153 378 
L 225.63266 378 
L 225.63266 367.100752 
L 223.568153 367.100752 
z
" clip-path="url(#p82d2fbcf43)" style="fill: #a3e301; fill-opacity: 0.5"/>
   </g>
   <g id="patch_19">
    <path d="M 225.63266 378 
L 227.697167 378 
L 227.697167 378 
L 225.63266 378 
z
" clip-path="url(#p82d2fbcf43)" style="fill: #a3e301; fill-opacity: 0.5"/>
   </g>
   <g id="patch_20">
    <path d="M 227.697167 378 
L 229.761674 378 
L 229.761674 372.550376 
L 227.697167 372.550376 
z
" clip-path="url(#p82d2fbcf43)" style="fill: #a3e301; fill-opacity: 0.5"/>
   </g>
   <g id="patch_21">
    <path d="M 229.761674 378 
L 231.826181 378 
L 231.826181 361.651128 
L 229.761674 361.651128 
z
" clip-path="url(#p82d2fbcf43)" style="fill: #a3e301; fill-opacity: 0.5"/>
   </g>
   <g id="patch_22">
    <path d="M 231.826181 378 
L 233.890688 378 
L 233.890688 372.550376 
L 231.826181 372.550376 
z
" clip-path="url(#p82d2fbcf43)" style="fill: #a3e301; fill-opacity: 0.5"/>
   </g>
   <g id="patch_23">
    <path d="M 233.890688 378 
L 235.955194 378 
L 235.955194 356.201504 
L 233.890688 356.201504 
z
" clip-path="url(#p82d2fbcf43)" style="fill: #a3e301; fill-opacity: 0.5"/>
   </g>
   <g id="patch_24">
    <path d="M 235.955194 378 
L 238.019701 378 
L 238.019701 361.651128 
L 235.955194 361.651128 
z
" clip-path="url(#p82d2fbcf43)" style="fill: #a3e301; fill-opacity: 0.5"/>
   </g>
   <g id="patch_25">
    <path d="M 238.019701 378 
L 240.084208 378 
L 240.084208 350.75188 
L 238.019701 350.75188 
z
" clip-path="url(#p82d2fbcf43)" style="fill: #a3e301; fill-opacity: 0.5"/>
   </g>
   <g id="patch_26">
    <path d="M 240.084208 378 
L 242.148715 378 
L 242.148715 334.403008 
L 240.084208 334.403008 
z
" clip-path="url(#p82d2fbcf43)" style="fill: #a3e301; fill-opacity: 0.5"/>
   </g>
   <g id="patch_27">
    <path d="M 242.148715 378 
L 244.213222 378 
L 244.213222 339.852632 
L 242.148715 339.852632 
z
" clip-path="url(#p82d2fbcf43)" style="fill: #a3e301; fill-opacity: 0.5"/>
   </g>
   <g id="patch_28">
    <path d="M 244.213222 378 
L 246.277729 378 
L 246.277729 339.852632 
L 244.213222 339.852632 
z
" clip-path="url(#p82d2fbcf43)" style="fill: #a3e301; fill-opacity: 0.5"/>
   </g>
   <g id="patch_29">
    <path d="M 246.277729 378 
L 248.342236 378 
L 248.342236 345.302256 
L 246.277729 345.302256 
z
" clip-path="url(#p82d2fbcf43)" style="fill: #a3e301; fill-opacity: 0.5"/>
   </g>
   <g id="patch_30">
    <path d="M 248.342236 378 
L 250.406743 378 
L 250.406743 328.953383 
L 248.342236 328.953383 
z
" clip-path="url(#p82d2fbcf43)" style="fill: #a3e301; fill-opacity: 0.5"/>
   </g>
   <g id="patch_31">
    <path d="M 250.406743 378 
L 252.471249 378 
L 252.471249 334.403008 
L 250.406743 334.403008 
z
" clip-path="url(#p82d2fbcf43)" style="fill: #a3e301; fill-opacity: 0.5"/>
   </g>
   <g id="patch_32">
    <path d="M 252.471249 378 
L 254.535756 378 
L 254.535756 290.806015 
L 252.471249 290.806015 
z
" clip-path="url(#p82d2fbcf43)" style="fill: #a3e301; fill-opacity: 0.5"/>
   </g>
   <g id="patch_33">
    <path d="M 254.535756 378 
L 256.600263 378 
L 256.600263 334.403008 
L 254.535756 334.403008 
z
" clip-path="url(#p82d2fbcf43)" style="fill: #a3e301; fill-opacity: 0.5"/>
   </g>
   <g id="patch_34">
    <path d="M 256.600263 378 
L 258.66477 378 
L 258.66477 318.054135 
L 256.600263 318.054135 
z
" clip-path="url(#p82d2fbcf43)" style="fill: #a3e301; fill-opacity: 0.5"/>
   </g>
   <g id="patch_35">
    <path d="M 258.66477 378 
L 260.729277 378 
L 260.729277 290.806015 
L 258.66477 290.806015 
z
" clip-path="url(#p82d2fbcf43)" style="fill: #a3e301; fill-opacity: 0.5"/>
   </g>
   <g id="patch_36">
    <path d="M 260.729277 378 
L 262.793784 378 
L 262.793784 323.503759 
L 260.729277 323.503759 
z
" clip-path="url(#p82d2fbcf43)" style="fill: #a3e301; fill-opacity: 0.5"/>
   </g>
   <g id="patch_37">
    <path d="M 262.793784 378 
L 264.858291 378 
L 264.858291 285.356391 
L 262.793784 285.356391 
z
" clip-path="url(#p82d2fbcf43)" style="fill: #a3e301; fill-opacity: 0.5"/>
   </g>
   <g id="patch_38">
    <path d="M 264.858291 378 
L 266.922798 378 
L 266.922798 230.86015 
L 264.858291 230.86015 
z
" clip-path="url(#p82d2fbcf43)" style="fill: #a3e301; fill-opacity: 0.5"/>
   </g>
   <g id="patch_39">
    <path d="M 266.922798 378 
L 268.987304 378 
L 268.987304 258.108271 
L 266.922798 258.108271 
z
" clip-path="url(#p82d2fbcf43)" style="fill: #a3e301; fill-opacity: 0.5"/>
   </g>
   <g id="patch_40">
    <path d="M 268.987304 378 
L 271.051811 378 
L 271.051811 258.108271 
L 268.987304 258.108271 
z
" clip-path="url(#p82d2fbcf43)" style="fill: #a3e301; fill-opacity: 0.5"/>
   </g>
   <g id="patch_41">
    <path d="M 271.051811 378 
L 273.116318 378 
L 273.116318 181.813534 
L 271.051811 181.813534 
z
" clip-path="url(#p82d2fbcf43)" style="fill: #a3e301; fill-opacity: 0.5"/>
   </g>
   <g id="patch_42">
    <path d="M 273.116318 378 
L 275.180825 378 
L 275.180825 192.712782 
L 273.116318 192.712782 
z
" clip-path="url(#p82d2fbcf43)" style="fill: #a3e301; fill-opacity: 0.5"/>
   </g>
   <g id="patch_43">
    <path d="M 275.180825 378 
L 277.245332 378 
L 277.245332 252.658647 
L 275.180825 252.658647 
z
" clip-path="url(#p82d2fbcf43)" style="fill: #a3e301; fill-opacity: 0.5"/>
   </g>
   <g id="patch_44">
    <path d="M 277.245332 378 
L 279.309839 378 
L 279.309839 203.61203 
L 277.245332 203.61203 
z
" clip-path="url(#p82d2fbcf43)" style="fill: #a3e301; fill-opacity: 0.5"/>
   </g>
   <g id="patch_45">
    <path d="M 279.309839 378 
L 281.374346 378 
L 281.374346 170.914286 
L 279.309839 170.914286 
z
" clip-path="url(#p82d2fbcf43)" style="fill: #a3e301; fill-opacity: 0.5"/>
   </g>
   <g id="patch_46">
    <path d="M 281.374346 378 
L 283.438852 378 
L 283.438852 143.666165 
L 281.374346 143.666165 
z
" clip-path="url(#p82d2fbcf43)" style="fill: #a3e301; fill-opacity: 0.5"/>
   </g>
   <g id="patch_47">
    <path d="M 283.438852 378 
L 285.503359 378 
L 285.503359 110.968421 
L 283.438852 110.968421 
z
" clip-path="url(#p82d2fbcf43)" style="fill: #a3e301; fill-opacity: 0.5"/>
   </g>
   <g id="patch_48">
    <path d="M 285.503359 378 
L 287.567866 378 
L 287.567866 121.867669 
L 285.503359 121.867669 
z
" clip-path="url(#p82d2fbcf43)" style="fill: #a3e301; fill-opacity: 0.5"/>
   </g>
   <g id="patch_49">
    <path d="M 287.567866 378 
L 289.632373 378 
L 289.632373 127.317293 
L 287.567866 127.317293 
z
" clip-path="url(#p82d2fbcf43)" style="fill: #a3e301; fill-opacity: 0.5"/>
   </g>
   <g id="patch_50">
    <path d="M 289.632373 378 
L 291.69688 378 
L 291.69688 105.518797 
L 289.632373 105.518797 
z
" clip-path="url(#p82d2fbcf43)" style="fill: #a3e301; fill-opacity: 0.5"/>
   </g>
   <g id="patch_51">
    <path d="M 291.69688 378 
L 293.761387 378 
L 293.761387 127.317293 
L 291.69688 127.317293 
z
" clip-path="url(#p82d2fbcf43)" style="fill: #a3e301; fill-opacity: 0.5"/>
   </g>
   <g id="patch_52">
    <path d="M 293.761387 378 
L 295.825894 378 
L 295.825894 67.371429 
L 293.761387 67.371429 
z
" clip-path="url(#p82d2fbcf43)" style="fill: #a3e301; fill-opacity: 0.5"/>
   </g>
   <g id="patch_53">
    <path d="M 295.825894 378 
L 297.890401 378 
L 297.890401 116.418045 
L 295.825894 116.418045 
z
" clip-path="url(#p82d2fbcf43)" style="fill: #a3e301; fill-opacity: 0.5"/>
   </g>
   <g id="patch_54">
    <path d="M 297.890401 378 
L 299.954907 378 
L 299.954907 132.766917 
L 297.890401 132.766917 
z
" clip-path="url(#p82d2fbcf43)" style="fill: #a3e301; fill-opacity: 0.5"/>
   </g>
   <g id="patch_55">
    <path d="M 299.954907 378 
L 302.019414 378 
L 302.019414 72.821053 
L 299.954907 72.821053 
z
" clip-path="url(#p82d2fbcf43)" style="fill: #a3e301; fill-opacity: 0.5"/>
   </g>
   <g id="patch_56">
    <path d="M 302.019414 378 
L 304.083921 378 
L 304.083921 198.162406 
L 302.019414 198.162406 
z
" clip-path="url(#p82d2fbcf43)" style="fill: #a3e301; fill-opacity: 0.5"/>
   </g>
   <g id="patch_57">
    <path d="M 304.083921 378 
L 306.148428 378 
L 306.148428 116.418045 
L 304.083921 116.418045 
z
" clip-path="url(#p82d2fbcf43)" style="fill: #a3e301; fill-opacity: 0.5"/>
   </g>
   <g id="patch_58">
    <path d="M 306.148428 378 
L 308.212935 378 
L 308.212935 214.511278 
L 306.148428 214.511278 
z
" clip-path="url(#p82d2fbcf43)" style="fill: #a3e301; fill-opacity: 0.5"/>
   </g>
   <g id="patch_59">
    <path d="M 308.212935 378 
L 310.277442 378 
L 310.277442 143.666165 
L 308.212935 143.666165 
z
" clip-path="url(#p82d2fbcf43)" style="fill: #a3e301; fill-opacity: 0.5"/>
   </g>
   <g id="patch_60">
    <path d="M 310.277442 378 
L 312.341949 378 
L 312.341949 154.565414 
L 310.277442 154.565414 
z
" clip-path="url(#p82d2fbcf43)" style="fill: #a3e301; fill-opacity: 0.5"/>
   </g>
   <g id="patch_61">
    <path d="M 312.341949 378 
L 314.406455 378 
L 314.406455 230.86015 
L 312.341949 230.86015 
z
" clip-path="url(#p82d2fbcf43)" style="fill: #a3e301; fill-opacity: 0.5"/>
   </g>
   <g id="patch_62">
    <path d="M 314.406455 378 
L 316.470962 378 
L 316.470962 247.209023 
L 314.406455 247.209023 
z
" clip-path="url(#p82d2fbcf43)" style="fill: #a3e301; fill-opacity: 0.5"/>
   </g>
   <g id="patch_63">
    <path d="M 316.470962 378 
L 318.535469 378 
L 318.535469 225.410526 
L 316.470962 225.410526 
z
" clip-path="url(#p82d2fbcf43)" style="fill: #a3e301; fill-opacity: 0.5"/>
   </g>
   <g id="patch_64">
    <path d="M 318.535469 378 
L 320.599976 378 
L 320.599976 241.759398 
L 318.535469 241.759398 
z
" clip-path="url(#p82d2fbcf43)" style="fill: #a3e301; fill-opacity: 0.5"/>
   </g>
   <g id="patch_65">
    <path d="M 320.599976 378 
L 322.664483 378 
L 322.664483 258.108271 
L 320.599976 258.108271 
z
" clip-path="url(#p82d2fbcf43)" style="fill: #a3e301; fill-opacity: 0.5"/>
   </g>
   <g id="patch_66">
    <path d="M 322.664483 378 
L 324.72899 378 
L 324.72899 241.759398 
L 322.664483 241.759398 
z
" clip-path="url(#p82d2fbcf43)" style="fill: #a3e301; fill-opacity: 0.5"/>
   </g>
   <g id="patch_67">
    <path d="M 324.72899 378 
L 326.793497 378 
L 326.793497 258.108271 
L 324.72899 258.108271 
z
" clip-path="url(#p82d2fbcf43)" style="fill: #a3e301; fill-opacity: 0.5"/>
   </g>
   <g id="patch_68">
    <path d="M 326.793497 378 
L 328.858004 378 
L 328.858004 301.705263 
L 326.793497 301.705263 
z
" clip-path="url(#p82d2fbcf43)" style="fill: #a3e301; fill-opacity: 0.5"/>
   </g>
   <g id="patch_69">
    <path d="M 328.858004 378 
L 330.92251 378 
L 330.92251 318.054135 
L 328.858004 318.054135 
z
" clip-path="url(#p82d2fbcf43)" style="fill: #a3e301; fill-opacity: 0.5"/>
   </g>
   <g id="patch_70">
    <path d="M 330.92251 378 
L 332.987017 378 
L 332.987017 312.604511 
L 330.92251 312.604511 
z
" clip-path="url(#p82d2fbcf43)" style="fill: #a3e301; fill-opacity: 0.5"/>
   </g>
   <g id="patch_71">
    <path d="M 332.987017 378 
L 335.051524 378 
L 335.051524 279.906767 
L 332.987017 279.906767 
z
" clip-path="url(#p82d2fbcf43)" style="fill: #a3e301; fill-opacity: 0.5"/>
   </g>
   <g id="patch_72">
    <path d="M 335.051524 378 
L 337.116031 378 
L 337.116031 307.154887 
L 335.051524 307.154887 
z
" clip-path="url(#p82d2fbcf43)" style="fill: #a3e301; fill-opacity: 0.5"/>
   </g>
   <g id="patch_73">
    <path d="M 337.116031 378 
L 339.180538 378 
L 339.180538 323.503759 
L 337.116031 323.503759 
z
" clip-path="url(#p82d2fbcf43)" style="fill: #a3e301; fill-opacity: 0.5"/>
   </g>
   <g id="patch_74">
    <path d="M 339.180538 378 
L 341.245045 378 
L 341.245045 345.302256 
L 339.180538 345.302256 
z
" clip-path="url(#p82d2fbcf43)" style="fill: #a3e301; fill-opacity: 0.5"/>
   </g>
   <g id="patch_75">
    <path d="M 341.245045 378 
L 343.309552 378 
L 343.309552 334.403008 
L 341.245045 334.403008 
z
" clip-path="url(#p82d2fbcf43)" style="fill: #a3e301; fill-opacity: 0.5"/>
   </g>
   <g id="patch_76">
    <path d="M 343.309552 378 
L 345.374058 378 
L 345.374058 356.201504 
L 343.309552 356.201504 
z
" clip-path="url(#p82d2fbcf43)" style="fill: #a3e301; fill-opacity: 0.5"/>
   </g>
   <g id="patch_77">
    <path d="M 345.374058 378 
L 347.438565 378 
L 347.438565 367.100752 
L 345.374058 367.100752 
z
" clip-path="url(#p82d2fbcf43)" style="fill: #a3e301; fill-opacity: 0.5"/>
   </g>
   <g id="patch_78">
    <path d="M 347.438565 378 
L 349.503072 378 
L 349.503072 361.651128 
L 347.438565 361.651128 
z
" clip-path="url(#p82d2fbcf43)" style="fill: #a3e301; fill-opacity: 0.5"/>
   </g>
   <g id="patch_79">
    <path d="M 349.503072 378 
L 351.567579 378 
L 351.567579 356.201504 
L 349.503072 356.201504 
z
" clip-path="url(#p82d2fbcf43)" style="fill: #a3e301; fill-opacity: 0.5"/>
   </g>
   <g id="patch_80">
    <path d="M 351.567579 378 
L 353.632086 378 
L 353.632086 350.75188 
L 351.567579 350.75188 
z
" clip-path="url(#p82d2fbcf43)" style="fill: #a3e301; fill-opacity: 0.5"/>
   </g>
   <g id="patch_81">
    <path d="M 353.632086 378 
L 355.696593 378 
L 355.696593 345.302256 
L 353.632086 345.302256 
z
" clip-path="url(#p82d2fbcf43)" style="fill: #a3e301; fill-opacity: 0.5"/>
   </g>
   <g id="patch_82">
    <path d="M 355.696593 378 
L 357.7611 378 
L 357.7611 372.550376 
L 355.696593 372.550376 
z
" clip-path="url(#p82d2fbcf43)" style="fill: #a3e301; fill-opacity: 0.5"/>
   </g>
   <g id="patch_83">
    <path d="M 357.7611 378 
L 359.825607 378 
L 359.825607 372.550376 
L 357.7611 372.550376 
z
" clip-path="url(#p82d2fbcf43)" style="fill: #a3e301; fill-opacity: 0.5"/>
   </g>
   <g id="patch_84">
    <path d="M 359.825607 378 
L 361.890113 378 
L 361.890113 361.651128 
L 359.825607 361.651128 
z
" clip-path="url(#p82d2fbcf43)" style="fill: #a3e301; fill-opacity: 0.5"/>
   </g>
   <g id="patch_85">
    <path d="M 361.890113 378 
L 363.95462 378 
L 363.95462 367.100752 
L 361.890113 367.100752 
z
" clip-path="url(#p82d2fbcf43)" style="fill: #a3e301; fill-opacity: 0.5"/>
   </g>
   <g id="patch_86">
    <path d="M 363.95462 378 
L 366.019127 378 
L 366.019127 367.100752 
L 363.95462 367.100752 
z
" clip-path="url(#p82d2fbcf43)" style="fill: #a3e301; fill-opacity: 0.5"/>
   </g>
   <g id="patch_87">
    <path d="M 366.019127 378 
L 368.083634 378 
L 368.083634 356.201504 
L 366.019127 356.201504 
z
" clip-path="url(#p82d2fbcf43)" style="fill: #a3e301; fill-opacity: 0.5"/>
   </g>
   <g id="patch_88">
    <path d="M 368.083634 378 
L 370.148141 378 
L 370.148141 372.550376 
L 368.083634 372.550376 
z
" clip-path="url(#p82d2fbcf43)" style="fill: #a3e301; fill-opacity: 0.5"/>
   </g>
   <g id="patch_89">
    <path d="M 370.148141 378 
L 372.212648 378 
L 372.212648 356.201504 
L 370.148141 356.201504 
z
" clip-path="url(#p82d2fbcf43)" style="fill: #a3e301; fill-opacity: 0.5"/>
   </g>
   <g id="patch_90">
    <path d="M 372.212648 378 
L 374.277155 378 
L 374.277155 361.651128 
L 372.212648 361.651128 
z
" clip-path="url(#p82d2fbcf43)" style="fill: #a3e301; fill-opacity: 0.5"/>
   </g>
   <g id="patch_91">
    <path d="M 374.277155 378 
L 376.341661 378 
L 376.341661 378 
L 374.277155 378 
z
" clip-path="url(#p82d2fbcf43)" style="fill: #a3e301; fill-opacity: 0.5"/>
   </g>
   <g id="patch_92">
    <path d="M 376.341661 378 
L 378.406168 378 
L 378.406168 367.100752 
L 376.341661 367.100752 
z
" clip-path="url(#p82d2fbcf43)" style="fill: #a3e301; fill-opacity: 0.5"/>
   </g>
   <g id="patch_93">
    <path d="M 378.406168 378 
L 380.470675 378 
L 380.470675 372.550376 
L 378.406168 372.550376 
z
" clip-path="url(#p82d2fbcf43)" style="fill: #a3e301; fill-opacity: 0.5"/>
   </g>
   <g id="patch_94">
    <path d="M 380.470675 378 
L 382.535182 378 
L 382.535182 367.100752 
L 380.470675 367.100752 
z
" clip-path="url(#p82d2fbcf43)" style="fill: #a3e301; fill-opacity: 0.5"/>
   </g>
   <g id="patch_95">
    <path d="M 382.535182 378 
L 384.599689 378 
L 384.599689 378 
L 382.535182 378 
z
" clip-path="url(#p82d2fbcf43)" style="fill: #a3e301; fill-opacity: 0.5"/>
   </g>
   <g id="patch_96">
    <path d="M 384.599689 378 
L 386.664196 378 
L 386.664196 378 
L 384.599689 378 
z
" clip-path="url(#p82d2fbcf43)" style="fill: #a3e301; fill-opacity: 0.5"/>
   </g>
   <g id="patch_97">
    <path d="M 386.664196 378 
L 388.728703 378 
L 388.728703 378 
L 386.664196 378 
z
" clip-path="url(#p82d2fbcf43)" style="fill: #a3e301; fill-opacity: 0.5"/>
   </g>
   <g id="patch_98">
    <path d="M 388.728703 378 
L 390.79321 378 
L 390.79321 378 
L 388.728703 378 
z
" clip-path="url(#p82d2fbcf43)" style="fill: #a3e301; fill-opacity: 0.5"/>
   </g>
   <g id="patch_99">
    <path d="M 390.79321 378 
L 392.857716 378 
L 392.857716 378 
L 390.79321 378 
z
" clip-path="url(#p82d2fbcf43)" style="fill: #a3e301; fill-opacity: 0.5"/>
   </g>
   <g id="patch_100">
    <path d="M 392.857716 378 
L 394.922223 378 
L 394.922223 378 
L 392.857716 378 
z
" clip-path="url(#p82d2fbcf43)" style="fill: #a3e301; fill-opacity: 0.5"/>
   </g>
   <g id="patch_101">
    <path d="M 394.922223 378 
L 396.98673 378 
L 396.98673 372.550376 
L 394.922223 372.550376 
z
" clip-path="url(#p82d2fbcf43)" style="fill: #a3e301; fill-opacity: 0.5"/>
   </g>
   <g id="patch_102">
    <path d="M 396.98673 378 
L 399.051237 378 
L 399.051237 372.550376 
L 396.98673 372.550376 
z
" clip-path="url(#p82d2fbcf43)" style="fill: #a3e301; fill-opacity: 0.5"/>
   </g>
   <g id="matplotlib.axis_1">
    <g id="xtick_1">
     <g id="line2d_1">
      <defs>
       <path id="mddc4b60b9a" d="M 0 0 
L 0 3.5 
" style="stroke: #000000; stroke-width: 0.8"/>
      </defs>
      <g>
       <use xlink:href="#mddc4b60b9a" x="72" y="378" style="stroke: #000000; stroke-width: 0.8"/>
      </g>
     </g>
     <g id="text_1">
      <!-- 0.00 -->
      <g transform="translate(60.867188 392.598437)scale(0.1 -0.1)">
       <defs>
        <path id="DejaVuSans-30" d="M 2034 4250 
Q 1547 4250 1301 3770 
Q 1056 3291 1056 2328 
Q 1056 1369 1301 889 
Q 1547 409 2034 409 
Q 2525 409 2770 889 
Q 3016 1369 3016 2328 
Q 3016 3291 2770 3770 
Q 2525 4250 2034 4250 
z
M 2034 4750 
Q 2819 4750 3233 4129 
Q 3647 3509 3647 2328 
Q 3647 1150 3233 529 
Q 2819 -91 2034 -91 
Q 1250 -91 836 529 
Q 422 1150 422 2328 
Q 422 3509 836 4129 
Q 1250 4750 2034 4750 
z
" transform="scale(0.015625)"/>
        <path id="DejaVuSans-2e" d="M 684 794 
L 1344 794 
L 1344 0 
L 684 0 
L 684 794 
z
" transform="scale(0.015625)"/>
       </defs>
       <use xlink:href="#DejaVuSans-30"/>
       <use xlink:href="#DejaVuSans-2e" x="63.623047"/>
       <use xlink:href="#DejaVuSans-30" x="95.410156"/>
       <use xlink:href="#DejaVuSans-30" x="159.033203"/>
      </g>
     </g>
    </g>
    <g id="xtick_2">
     <g id="line2d_2">
      <g>
       <use xlink:href="#mddc4b60b9a" x="183.6" y="378" style="stroke: #000000; stroke-width: 0.8"/>
      </g>
     </g>
     <g id="text_2">
      <!-- 0.25 -->
      <g transform="translate(172.467187 392.598437)scale(0.1 -0.1)">
       <defs>
        <path id="DejaVuSans-32" d="M 1228 531 
L 3431 531 
L 3431 0 
L 469 0 
L 469 531 
Q 828 903 1448 1529 
Q 2069 2156 2228 2338 
Q 2531 2678 2651 2914 
Q 2772 3150 2772 3378 
Q 2772 3750 2511 3984 
Q 2250 4219 1831 4219 
Q 1534 4219 1204 4116 
Q 875 4013 500 3803 
L 500 4441 
Q 881 4594 1212 4672 
Q 1544 4750 1819 4750 
Q 2544 4750 2975 4387 
Q 3406 4025 3406 3419 
Q 3406 3131 3298 2873 
Q 3191 2616 2906 2266 
Q 2828 2175 2409 1742 
Q 1991 1309 1228 531 
z
" transform="scale(0.015625)"/>
        <path id="DejaVuSans-35" d="M 691 4666 
L 3169 4666 
L 3169 4134 
L 1269 4134 
L 1269 2991 
Q 1406 3038 1543 3061 
Q 1681 3084 1819 3084 
Q 2600 3084 3056 2656 
Q 3513 2228 3513 1497 
Q 3513 744 3044 326 
Q 2575 -91 1722 -91 
Q 1428 -91 1123 -41 
Q 819 9 494 109 
L 494 744 
Q 775 591 1075 516 
Q 1375 441 1709 441 
Q 2250 441 2565 725 
Q 2881 1009 2881 1497 
Q 2881 1984 2565 2268 
Q 2250 2553 1709 2553 
Q 1456 2553 1204 2497 
Q 953 2441 691 2322 
L 691 4666 
z
" transform="scale(0.015625)"/>
       </defs>
       <use xlink:href="#DejaVuSans-30"/>
       <use xlink:href="#DejaVuSans-2e" x="63.623047"/>
       <use xlink:href="#DejaVuSans-32" x="95.410156"/>
       <use xlink:href="#DejaVuSans-35" x="159.033203"/>
      </g>
     </g>
    </g>
    <g id="xtick_3">
     <g id="line2d_3">
      <g>
       <use xlink:href="#mddc4b60b9a" x="295.2" y="378" style="stroke: #000000; stroke-width: 0.8"/>
      </g>
     </g>
     <g id="text_3">
      <!-- 0.50 -->
      <g transform="translate(284.067187 392.598437)scale(0.1 -0.1)">
       <use xlink:href="#DejaVuSans-30"/>
       <use xlink:href="#DejaVuSans-2e" x="63.623047"/>
       <use xlink:href="#DejaVuSans-35" x="95.410156"/>
       <use xlink:href="#DejaVuSans-30" x="159.033203"/>
      </g>
     </g>
    </g>
    <g id="xtick_4">
     <g id="line2d_4">
      <g>
       <use xlink:href="#mddc4b60b9a" x="406.8" y="378" style="stroke: #000000; stroke-width: 0.8"/>
      </g>
     </g>
     <g id="text_4">
      <!-- 0.75 -->
      <g transform="translate(395.667187 392.598437)scale(0.1 -0.1)">
       <defs>
        <path id="DejaVuSans-37" d="M 525 4666 
L 3525 4666 
L 3525 4397 
L 1831 0 
L 1172 0 
L 2766 4134 
L 525 4134 
L 525 4666 
z
" transform="scale(0.015625)"/>
       </defs>
       <use xlink:href="#DejaVuSans-30"/>
       <use xlink:href="#DejaVuSans-2e" x="63.623047"/>
       <use xlink:href="#DejaVuSans-37" x="95.410156"/>
       <use xlink:href="#DejaVuSans-35" x="159.033203"/>
      </g>
     </g>
    </g>
    <g id="xtick_5">
     <g id="line2d_5">
      <g>
       <use xlink:href="#mddc4b60b9a" x="518.4" y="378" style="stroke: #000000; stroke-width: 0.8"/>
      </g>
     </g>
     <g id="text_5">
      <!-- 1.00 -->
      <g transform="translate(507.267187 392.598437)scale(0.1 -0.1)">
       <defs>
        <path id="DejaVuSans-31" d="M 794 531 
L 1825 531 
L 1825 4091 
L 703 3866 
L 703 4441 
L 1819 4666 
L 2450 4666 
L 2450 531 
L 3481 531 
L 3481 0 
L 794 0 
L 794 531 
z
" transform="scale(0.015625)"/>
       </defs>
       <use xlink:href="#DejaVuSans-31"/>
       <use xlink:href="#DejaVuSans-2e" x="63.623047"/>
       <use xlink:href="#DejaVuSans-30" x="95.410156"/>
       <use xlink:href="#DejaVuSans-30" x="159.033203"/>
      </g>
     </g>
    </g>
    <g id="text_6">
     <!-- ratio_roeske -->
     <g transform="translate(264.697656 406.276563)scale(0.1 -0.1)">
      <defs>
       <path id="DejaVuSans-72" d="M 2631 2963 
Q 2534 3019 2420 3045 
Q 2306 3072 2169 3072 
Q 1681 3072 1420 2755 
Q 1159 2438 1159 1844 
L 1159 0 
L 581 0 
L 581 3500 
L 1159 3500 
L 1159 2956 
Q 1341 3275 1631 3429 
Q 1922 3584 2338 3584 
Q 2397 3584 2469 3576 
Q 2541 3569 2628 3553 
L 2631 2963 
z
" transform="scale(0.015625)"/>
       <path id="DejaVuSans-61" d="M 2194 1759 
Q 1497 1759 1228 1600 
Q 959 1441 959 1056 
Q 959 750 1161 570 
Q 1363 391 1709 391 
Q 2188 391 2477 730 
Q 2766 1069 2766 1631 
L 2766 1759 
L 2194 1759 
z
M 3341 1997 
L 3341 0 
L 2766 0 
L 2766 531 
Q 2569 213 2275 61 
Q 1981 -91 1556 -91 
Q 1019 -91 701 211 
Q 384 513 384 1019 
Q 384 1609 779 1909 
Q 1175 2209 1959 2209 
L 2766 2209 
L 2766 2266 
Q 2766 2663 2505 2880 
Q 2244 3097 1772 3097 
Q 1472 3097 1187 3025 
Q 903 2953 641 2809 
L 641 3341 
Q 956 3463 1253 3523 
Q 1550 3584 1831 3584 
Q 2591 3584 2966 3190 
Q 3341 2797 3341 1997 
z
" transform="scale(0.015625)"/>
       <path id="DejaVuSans-74" d="M 1172 4494 
L 1172 3500 
L 2356 3500 
L 2356 3053 
L 1172 3053 
L 1172 1153 
Q 1172 725 1289 603 
Q 1406 481 1766 481 
L 2356 481 
L 2356 0 
L 1766 0 
Q 1100 0 847 248 
Q 594 497 594 1153 
L 594 3053 
L 172 3053 
L 172 3500 
L 594 3500 
L 594 4494 
L 1172 4494 
z
" transform="scale(0.015625)"/>
       <path id="DejaVuSans-69" d="M 603 3500 
L 1178 3500 
L 1178 0 
L 603 0 
L 603 3500 
z
M 603 4863 
L 1178 4863 
L 1178 4134 
L 603 4134 
L 603 4863 
z
" transform="scale(0.015625)"/>
       <path id="DejaVuSans-6f" d="M 1959 3097 
Q 1497 3097 1228 2736 
Q 959 2375 959 1747 
Q 959 1119 1226 758 
Q 1494 397 1959 397 
Q 2419 397 2687 759 
Q 2956 1122 2956 1747 
Q 2956 2369 2687 2733 
Q 2419 3097 1959 3097 
z
M 1959 3584 
Q 2709 3584 3137 3096 
Q 3566 2609 3566 1747 
Q 3566 888 3137 398 
Q 2709 -91 1959 -91 
Q 1206 -91 779 398 
Q 353 888 353 1747 
Q 353 2609 779 3096 
Q 1206 3584 1959 3584 
z
" transform="scale(0.015625)"/>
       <path id="DejaVuSans-5f" d="M 3263 -1063 
L 3263 -1509 
L -63 -1509 
L -63 -1063 
L 3263 -1063 
z
" transform="scale(0.015625)"/>
       <path id="DejaVuSans-65" d="M 3597 1894 
L 3597 1613 
L 953 1613 
Q 991 1019 1311 708 
Q 1631 397 2203 397 
Q 2534 397 2845 478 
Q 3156 559 3463 722 
L 3463 178 
Q 3153 47 2828 -22 
Q 2503 -91 2169 -91 
Q 1331 -91 842 396 
Q 353 884 353 1716 
Q 353 2575 817 3079 
Q 1281 3584 2069 3584 
Q 2775 3584 3186 3129 
Q 3597 2675 3597 1894 
z
M 3022 2063 
Q 3016 2534 2758 2815 
Q 2500 3097 2075 3097 
Q 1594 3097 1305 2825 
Q 1016 2553 972 2059 
L 3022 2063 
z
" transform="scale(0.015625)"/>
       <path id="DejaVuSans-73" d="M 2834 3397 
L 2834 2853 
Q 2591 2978 2328 3040 
Q 2066 3103 1784 3103 
Q 1356 3103 1142 2972 
Q 928 2841 928 2578 
Q 928 2378 1081 2264 
Q 1234 2150 1697 2047 
L 1894 2003 
Q 2506 1872 2764 1633 
Q 3022 1394 3022 966 
Q 3022 478 2636 193 
Q 2250 -91 1575 -91 
Q 1294 -91 989 -36 
Q 684 19 347 128 
L 347 722 
Q 666 556 975 473 
Q 1284 391 1588 391 
Q 1994 391 2212 530 
Q 2431 669 2431 922 
Q 2431 1156 2273 1281 
Q 2116 1406 1581 1522 
L 1381 1569 
Q 847 1681 609 1914 
Q 372 2147 372 2553 
Q 372 3047 722 3315 
Q 1072 3584 1716 3584 
Q 2034 3584 2315 3537 
Q 2597 3491 2834 3397 
z
" transform="scale(0.015625)"/>
       <path id="DejaVuSans-6b" d="M 581 4863 
L 1159 4863 
L 1159 1991 
L 2875 3500 
L 3609 3500 
L 1753 1863 
L 3688 0 
L 2938 0 
L 1159 1709 
L 1159 0 
L 581 0 
L 581 4863 
z
" transform="scale(0.015625)"/>
      </defs>
      <use xlink:href="#DejaVuSans-72"/>
      <use xlink:href="#DejaVuSans-61" x="41.113281"/>
      <use xlink:href="#DejaVuSans-74" x="102.392578"/>
      <use xlink:href="#DejaVuSans-69" x="141.601562"/>
      <use xlink:href="#DejaVuSans-6f" x="169.384766"/>
      <use xlink:href="#DejaVuSans-5f" x="230.566406"/>
      <use xlink:href="#DejaVuSans-72" x="280.566406"/>
      <use xlink:href="#DejaVuSans-6f" x="319.429688"/>
      <use xlink:href="#DejaVuSans-65" x="380.611328"/>
      <use xlink:href="#DejaVuSans-73" x="442.134766"/>
      <use xlink:href="#DejaVuSans-6b" x="494.234375"/>
      <use xlink:href="#DejaVuSans-65" x="548.519531"/>
     </g>
    </g>
   </g>
   <g id="matplotlib.axis_2">
    <g id="ytick_1">
     <g id="line2d_6">
      <defs>
       <path id="m58471025d6" d="M 0 0 
L -3.5 0 
" style="stroke: #000000; stroke-width: 0.8"/>
      </defs>
      <g>
       <use xlink:href="#m58471025d6" x="72" y="378" style="stroke: #000000; stroke-width: 0.8"/>
      </g>
     </g>
     <g id="text_7">
      <!-- 0 -->
      <g transform="translate(58.6375 381.799219)scale(0.1 -0.1)">
       <use xlink:href="#DejaVuSans-30"/>
      </g>
     </g>
    </g>
    <g id="ytick_2">
     <g id="line2d_7">
      <g>
       <use xlink:href="#m58471025d6" x="72" y="308.186653" style="stroke: #000000; stroke-width: 0.8"/>
      </g>
     </g>
     <g id="text_8">
      <!-- 2 -->
      <g transform="translate(58.6375 311.985872)scale(0.1 -0.1)">
       <use xlink:href="#DejaVuSans-32"/>
      </g>
     </g>
    </g>
    <g id="ytick_3">
     <g id="line2d_8">
      <g>
       <use xlink:href="#m58471025d6" x="72" y="238.373306" style="stroke: #000000; stroke-width: 0.8"/>
      </g>
     </g>
     <g id="text_9">
      <!-- 4 -->
      <g transform="translate(58.6375 242.172525)scale(0.1 -0.1)">
       <defs>
        <path id="DejaVuSans-34" d="M 2419 4116 
L 825 1625 
L 2419 1625 
L 2419 4116 
z
M 2253 4666 
L 3047 4666 
L 3047 1625 
L 3713 1625 
L 3713 1100 
L 3047 1100 
L 3047 0 
L 2419 0 
L 2419 1100 
L 313 1100 
L 313 1709 
L 2253 4666 
z
" transform="scale(0.015625)"/>
       </defs>
       <use xlink:href="#DejaVuSans-34"/>
      </g>
     </g>
    </g>
    <g id="ytick_4">
     <g id="line2d_9">
      <g>
       <use xlink:href="#m58471025d6" x="72" y="168.559959" style="stroke: #000000; stroke-width: 0.8"/>
      </g>
     </g>
     <g id="text_10">
      <!-- 6 -->
      <g transform="translate(58.6375 172.359178)scale(0.1 -0.1)">
       <defs>
        <path id="DejaVuSans-36" d="M 2113 2584 
Q 1688 2584 1439 2293 
Q 1191 2003 1191 1497 
Q 1191 994 1439 701 
Q 1688 409 2113 409 
Q 2538 409 2786 701 
Q 3034 994 3034 1497 
Q 3034 2003 2786 2293 
Q 2538 2584 2113 2584 
z
M 3366 4563 
L 3366 3988 
Q 3128 4100 2886 4159 
Q 2644 4219 2406 4219 
Q 1781 4219 1451 3797 
Q 1122 3375 1075 2522 
Q 1259 2794 1537 2939 
Q 1816 3084 2150 3084 
Q 2853 3084 3261 2657 
Q 3669 2231 3669 1497 
Q 3669 778 3244 343 
Q 2819 -91 2113 -91 
Q 1303 -91 875 529 
Q 447 1150 447 2328 
Q 447 3434 972 4092 
Q 1497 4750 2381 4750 
Q 2619 4750 2861 4703 
Q 3103 4656 3366 4563 
z
" transform="scale(0.015625)"/>
       </defs>
       <use xlink:href="#DejaVuSans-36"/>
      </g>
     </g>
    </g>
    <g id="ytick_5">
     <g id="line2d_10">
      <g>
       <use xlink:href="#m58471025d6" x="72" y="98.746613" style="stroke: #000000; stroke-width: 0.8"/>
      </g>
     </g>
     <g id="text_11">
      <!-- 8 -->
      <g transform="translate(58.6375 102.545831)scale(0.1 -0.1)">
       <defs>
        <path id="DejaVuSans-38" d="M 2034 2216 
Q 1584 2216 1326 1975 
Q 1069 1734 1069 1313 
Q 1069 891 1326 650 
Q 1584 409 2034 409 
Q 2484 409 2743 651 
Q 3003 894 3003 1313 
Q 3003 1734 2745 1975 
Q 2488 2216 2034 2216 
z
M 1403 2484 
Q 997 2584 770 2862 
Q 544 3141 544 3541 
Q 544 4100 942 4425 
Q 1341 4750 2034 4750 
Q 2731 4750 3128 4425 
Q 3525 4100 3525 3541 
Q 3525 3141 3298 2862 
Q 3072 2584 2669 2484 
Q 3125 2378 3379 2068 
Q 3634 1759 3634 1313 
Q 3634 634 3220 271 
Q 2806 -91 2034 -91 
Q 1263 -91 848 271 
Q 434 634 434 1313 
Q 434 1759 690 2068 
Q 947 2378 1403 2484 
z
M 1172 3481 
Q 1172 3119 1398 2916 
Q 1625 2713 2034 2713 
Q 2441 2713 2670 2916 
Q 2900 3119 2900 3481 
Q 2900 3844 2670 4047 
Q 2441 4250 2034 4250 
Q 1625 4250 1398 4047 
Q 1172 3844 1172 3481 
z
" transform="scale(0.015625)"/>
       </defs>
       <use xlink:href="#DejaVuSans-38"/>
      </g>
     </g>
    </g>
    <g id="text_12">
     <!-- Density -->
     <g transform="translate(52.557812 233.928594)rotate(-90)scale(0.1 -0.1)">
      <defs>
       <path id="DejaVuSans-44" d="M 1259 4147 
L 1259 519 
L 2022 519 
Q 2988 519 3436 956 
Q 3884 1394 3884 2338 
Q 3884 3275 3436 3711 
Q 2988 4147 2022 4147 
L 1259 4147 
z
M 628 4666 
L 1925 4666 
Q 3281 4666 3915 4102 
Q 4550 3538 4550 2338 
Q 4550 1131 3912 565 
Q 3275 0 1925 0 
L 628 0 
L 628 4666 
z
" transform="scale(0.015625)"/>
       <path id="DejaVuSans-6e" d="M 3513 2113 
L 3513 0 
L 2938 0 
L 2938 2094 
Q 2938 2591 2744 2837 
Q 2550 3084 2163 3084 
Q 1697 3084 1428 2787 
Q 1159 2491 1159 1978 
L 1159 0 
L 581 0 
L 581 3500 
L 1159 3500 
L 1159 2956 
Q 1366 3272 1645 3428 
Q 1925 3584 2291 3584 
Q 2894 3584 3203 3211 
Q 3513 2838 3513 2113 
z
" transform="scale(0.015625)"/>
       <path id="DejaVuSans-79" d="M 2059 -325 
Q 1816 -950 1584 -1140 
Q 1353 -1331 966 -1331 
L 506 -1331 
L 506 -850 
L 844 -850 
Q 1081 -850 1212 -737 
Q 1344 -625 1503 -206 
L 1606 56 
L 191 3500 
L 800 3500 
L 1894 763 
L 2988 3500 
L 3597 3500 
L 2059 -325 
z
" transform="scale(0.015625)"/>
      </defs>
      <use xlink:href="#DejaVuSans-44"/>
      <use xlink:href="#DejaVuSans-65" x="77.001953"/>
      <use xlink:href="#DejaVuSans-6e" x="138.525391"/>
      <use xlink:href="#DejaVuSans-73" x="201.904297"/>
      <use xlink:href="#DejaVuSans-69" x="254.003906"/>
      <use xlink:href="#DejaVuSans-74" x="281.787109"/>
      <use xlink:href="#DejaVuSans-79" x="320.996094"/>
     </g>
    </g>
   </g>
   <g id="line2d_11">
    <path d="M 192.60055 376.720769 
L 200.900075 375.745254 
L 206.087279 375.147308 
L 209.1996 374.556549 
L 213.349363 373.441745 
L 217.499126 372.347733 
L 222.686329 371.184366 
L 224.76121 370.410594 
L 225.798651 369.862201 
L 226.836091 369.177432 
L 227.873532 368.340308 
L 228.910973 367.340584 
L 230.985854 364.843751 
L 233.060735 361.729473 
L 235.135616 358.126321 
L 239.285379 350.184282 
L 246.547463 335.943325 
L 248.622345 331.456285 
L 250.697226 326.517097 
L 252.772107 321.001715 
L 254.846988 314.758616 
L 256.92187 307.575562 
L 258.996751 299.214055 
L 261.071632 289.512686 
L 263.146514 278.499044 
L 266.258836 260.131643 
L 277.670683 189.025261 
L 282.857886 155.928195 
L 284.932767 144.07786 
L 287.007648 133.963303 
L 288.045089 129.707083 
L 289.08253 126.046182 
L 290.11997 123.018691 
L 291.157411 120.658844 
L 292.194851 118.997493 
L 293.232292 118.060777 
L 294.269733 117.86728 
L 295.307173 118.424406 
L 296.344614 119.72502 
L 297.382055 121.745328 
L 298.419495 124.444741 
L 299.456936 127.768005 
L 300.494377 131.649354 
L 302.569258 140.804141 
L 304.644139 151.383488 
L 306.71902 162.999727 
L 309.831342 181.846488 
L 317.093427 227.418565 
L 320.205749 244.884746 
L 323.318071 260.814301 
L 326.430392 275.705535 
L 329.542714 289.604564 
L 332.655036 302.439065 
L 337.842239 322.556976 
L 340.954561 334.006815 
L 343.029443 340.829246 
L 345.104324 346.577797 
L 346.141765 348.983134 
L 347.179205 351.072778 
L 348.216646 352.865145 
L 349.254086 354.392191 
L 350.291527 355.694956 
L 352.366408 357.805317 
L 354.44129 359.509438 
L 356.516171 360.983495 
L 358.591052 362.248759 
L 360.665933 363.246958 
L 362.740815 363.947388 
L 365.853137 364.60729 
L 368.965459 365.293024 
L 371.04034 366.017099 
L 373.115221 367.020542 
L 375.190102 368.26576 
L 379.339865 371.123774 
L 382.452187 373.20355 
L 384.527068 374.38804 
L 386.601949 375.321296 
L 388.676831 375.961742 
L 390.751712 376.320507 
L 393.864034 376.488809 
L 399.051237 376.62585 
L 399.051237 376.62585 
" clip-path="url(#p82d2fbcf43)" style="fill: none; stroke: #a3e301; stroke-width: 1.5; stroke-linecap: square"/>
   </g>
   <g id="patch_103">
    <path d="M 157.082638 378 
L 157.082638 376.093397 
L 159.844288 376.093397 
L 159.844288 372.858691 
L 162.605937 372.858691 
L 162.605937 369.697316 
L 165.367586 369.697316 
L 165.367586 366.59705 
L 168.129236 366.59705 
L 168.129236 363.553818 
L 170.890885 363.553818 
L 170.890885 360.930203 
L 173.652534 360.930203 
L 173.652534 358.253626 
L 176.414184 358.253626 
L 176.414184 355.625936 
L 179.175833 355.625936 
L 179.175833 353.19787 
L 181.937483 353.19787 
L 181.937483 351.429781 
L 184.699132 351.429781 
L 184.699132 349.849093 
L 187.460781 349.849093 
L 187.460781 347.433249 
L 190.222431 347.433249 
L 190.222431 346.060332 
L 192.98408 346.060332 
L 192.98408 343.17191 
L 195.745729 343.17191 
L 195.745729 341.876398 
L 198.507379 341.876398 
L 198.507379 338.820945 
L 201.269028 338.820945 
L 201.269028 336.625093 
L 204.030677 336.625093 
L 204.030677 336.307326 
L 206.792327 336.307326 
L 206.792327 333.374091 
L 209.553976 333.374091 
L 209.553976 332.815962 
L 212.315625 332.815962 
L 212.315625 330.19642 
L 215.077275 330.19642 
L 215.077275 327.499473 
L 217.838924 327.499473 
L 217.838924 326.167296 
L 220.600574 326.167296 
L 220.600574 325.108072 
L 223.362223 325.108072 
L 223.362223 323.775895 
L 226.123872 323.775895 
L 226.123872 320.891547 
L 228.885522 320.891547 
L 228.885522 319.147902 
L 231.647171 319.147902 
L 231.647171 317.204634 
L 234.40882 317.204634 
L 234.40882 315.196183 
L 237.17047 315.196183 
L 237.17047 314.047332 
L 239.932119 314.047332 
L 239.932119 311.627414 
L 242.693768 311.627414 
L 242.693768 309.085277 
L 245.455418 309.085277 
L 245.455418 307.55755 
L 248.217067 307.55755 
L 248.217067 305.703909 
L 250.978716 305.703909 
L 250.978716 304.106925 
L 253.740366 304.106925 
L 253.740366 302.241062 
L 256.502015 302.241062 
L 256.502015 300.269277 
L 259.263665 300.269277 
L 259.263665 297.714918 
L 262.025314 297.714918 
L 262.025314 295.857202 
L 264.786963 295.857202 
L 264.786963 293.555428 
L 267.548613 293.555428 
L 267.548613 290.801446 
L 270.310262 290.801446 
L 270.310262 288.882622 
L 273.071911 288.882622 
L 273.071911 285.427923 
L 275.833561 285.427923 
L 275.833561 283.42762 
L 278.59521 283.42762 
L 278.59521 280.18884 
L 281.356859 280.18884 
L 281.356859 278.453342 
L 284.118509 278.453342 
L 284.118509 277.137461 
L 286.880158 277.137461 
L 286.880158 272.395398 
L 289.641808 272.395398 
L 289.641808 269.91437 
L 292.403457 269.91437 
L 292.403457 266.911878 
L 295.165106 266.911878 
L 295.165106 268.064802 
L 297.926756 268.064802 
L 297.926756 268.883664 
L 300.688405 268.883664 
L 300.688405 272.52169 
L 303.450054 272.52169 
L 303.450054 275.133083 
L 306.211704 275.133083 
L 306.211704 279.296647 
L 308.973353 279.296647 
L 308.973353 282.026185 
L 311.735002 282.026185 
L 311.735002 283.093557 
L 314.496652 283.093557 
L 314.496652 287.208234 
L 317.258301 287.208234 
L 317.258301 289.143354 
L 320.01995 289.143354 
L 320.01995 290.337017 
L 322.7816 290.337017 
L 322.7816 293.192847 
L 325.543249 293.192847 
L 325.543249 294.85094 
L 328.304899 294.85094 
L 328.304899 297.710844 
L 331.066548 297.710844 
L 331.066548 300.322238 
L 333.828197 300.322238 
L 333.828197 302.489572 
L 336.589847 302.489572 
L 336.589847 303.235103 
L 339.351496 303.235103 
L 339.351496 306.612397 
L 342.113145 306.612397 
L 342.113145 308.616774 
L 344.874795 308.616774 
L 344.874795 310.291162 
L 347.636444 310.291162 
L 347.636444 310.861513 
L 350.398093 310.861513 
L 350.398093 314.564722 
L 353.159743 314.564722 
L 353.159743 316.483547 
L 355.921392 316.483547 
L 355.921392 317.909425 
L 358.683041 317.909425 
L 358.683041 319.082719 
L 361.444691 319.082719 
L 361.444691 321.738926 
L 364.20634 321.738926 
L 364.20634 323.099621 
L 366.96799 323.099621 
L 366.96799 325.266956 
L 369.729639 325.266956 
L 369.729639 326.155074 
L 372.491288 326.155074 
L 372.491288 328.632028 
L 375.252938 328.632028 
L 375.252938 330.546778 
L 378.014587 330.546778 
L 378.014587 332.062283 
L 380.776236 332.062283 
L 380.776236 333.695932 
L 383.537886 333.695932 
L 383.537886 335.231806 
L 386.299535 335.231806 
L 386.299535 337.855422 
L 389.061184 337.855422 
L 389.061184 339.322039 
L 391.822834 339.322039 
L 391.822834 341.424191 
L 394.584483 341.424191 
L 394.584483 343.73004 
L 397.346132 343.73004 
L 397.346132 345.139622 
L 400.107782 345.139622 
L 400.107782 348.113596 
L 402.869431 348.113596 
L 402.869431 349.486513 
L 405.631081 349.486513 
L 405.631081 351.939023 
L 408.39273 351.939023 
L 408.39273 353.320088 
L 411.154379 353.320088 
L 411.154379 355.91926 
L 413.916029 355.91926 
L 413.916029 358.514358 
L 416.677678 358.514358 
L 416.677678 360.917981 
L 419.439327 360.917981 
L 419.439327 363.867512 
L 422.200977 363.867512 
L 422.200977 366.59705 
L 424.962626 366.59705 
L 424.962626 369.473249 
L 427.724275 369.473249 
L 427.724275 372.565368 
L 430.485925 372.565368 
L 430.485925 375.983401 
L 433.247574 375.983401 
L 433.247574 378 
L 433.247574 378 
" clip-path="url(#p82d2fbcf43)" style="fill: none; stroke: #fc6983; stroke-linejoin: miter"/>
   </g>
   <g id="patch_104">
    <path d="M 157.324581 378 
L 157.324581 377.967394 
L 171.126664 377.898106 
L 171.126664 377.853273 
L 173.88708 377.853273 
L 173.88708 377.731 
L 179.407913 377.739152 
L 179.407913 377.555743 
L 184.928746 377.620955 
L 184.928746 377.380485 
L 187.689163 377.380485 
L 187.689163 377.119637 
L 190.449579 377.119637 
L 190.449579 376.879167 
L 193.209996 376.879167 
L 193.209996 376.410455 
L 195.970412 376.410455 
L 195.970412 376.104773 
L 198.730829 376.104773 
L 198.730829 375.420046 
L 201.491245 375.420046 
L 201.491245 374.348122 
L 204.251662 374.348122 
L 204.251662 373.863107 
L 207.012078 373.863107 
L 207.012078 372.652607 
L 209.772495 372.652607 
L 209.772495 370.908183 
L 212.532911 370.908183 
L 212.532911 369.693608 
L 215.293328 369.693608 
L 215.293328 367.460093 
L 218.053744 367.460093 
L 218.053744 366.229214 
L 220.814161 366.229214 
L 220.814161 363.714473 
L 223.574577 363.714473 
L 223.574577 359.997382 
L 226.334994 359.997382 
L 226.334994 357.515246 
L 229.09541 357.515246 
L 229.09541 355.913474 
L 231.855827 355.913474 
L 231.855827 351.752126 
L 234.616244 351.752126 
L 234.616244 347.158749 
L 237.37666 347.158749 
L 237.37666 342.023295 
L 240.137077 342.023295 
L 240.137077 337.621478 
L 242.897493 337.621478 
L 242.897493 331.38557 
L 245.65791 331.38557 
L 245.65791 324.81545 
L 248.418326 324.81545 
L 248.418326 318.913754 
L 251.178743 318.913754 
L 251.178743 308.508347 
L 253.939159 308.508347 
L 253.939159 299.594667 
L 256.699576 299.594667 
L 256.699576 291.940396 
L 259.459992 291.940396 
L 259.459992 279.896535 
L 262.220409 279.896535 
L 262.220409 269.132461 
L 264.980825 269.132461 
L 264.980825 256.754388 
L 267.741242 256.754388 
L 267.741242 244.40892 
L 270.501658 244.40892 
L 270.501658 231.566211 
L 273.262075 231.566211 
L 273.262075 218.617532 
L 276.022491 218.617532 
L 276.022491 205.403928 
L 278.782908 205.403928 
L 278.782908 193.735036 
L 281.543324 193.735036 
L 281.543324 182.172114 
L 284.303741 182.172114 
L 284.303741 173.323647 
L 287.064157 173.323647 
L 287.064157 168.318617 
L 289.824574 168.318617 
L 289.824574 163.717088 
L 292.58499 163.717088 
L 292.58499 154.876771 
L 295.345407 154.876771 
L 295.345407 158.915846 
L 298.105823 158.915846 
L 298.105823 163.1098 
L 300.86624 163.1098 
L 300.86624 168.713966 
L 303.626656 168.713966 
L 303.626656 173.686389 
L 306.387073 173.686389 
L 306.387073 181.34066 
L 309.147489 181.34066 
L 309.147489 193.4049 
L 311.907906 193.4049 
L 311.907906 206.349504 
L 314.668322 206.349504 
L 314.668322 219.510122 
L 317.428739 219.510122 
L 317.428739 234.394786 
L 320.189155 234.394786 
L 320.189155 244.225511 
L 322.949572 244.225511 
L 322.949572 256.98263 
L 325.709989 256.98263 
L 325.709989 270.09434 
L 328.470405 270.09434 
L 328.470405 280.964383 
L 331.230822 280.964383 
L 331.230822 291.602108 
L 333.991238 291.602108 
L 333.991238 300.678818 
L 336.751655 300.678818 
L 336.751655 310.635892 
L 339.512071 310.635892 
L 339.512071 318.330921 
L 342.272488 318.330921 
L 342.272488 326.299025 
L 345.032904 326.299025 
L 345.032904 330.488903 
L 347.793321 330.488903 
L 347.793321 338.783068 
L 350.553737 338.783068 
L 350.553737 343.498719 
L 353.314154 343.498719 
L 353.314154 347.566324 
L 356.07457 347.566324 
L 356.07457 351.788808 
L 358.834987 351.788808 
L 358.834987 356.435171 
L 361.595403 356.435171 
L 361.595403 358.750201 
L 364.35582 358.750201 
L 364.35582 361.358685 
L 367.116236 361.358685 
L 367.116236 364.56223 
L 369.876653 364.56223 
L 369.876653 366.60826 
L 372.637069 366.60826 
L 372.637069 368.695047 
L 375.397486 368.695047 
L 375.397486 370.207153 
L 378.157902 370.207153 
L 378.157902 371.572532 
L 380.918319 371.572532 
L 380.918319 373.170228 
L 383.678735 373.170228 
L 383.678735 373.704152 
L 386.439152 373.704152 
L 386.439152 374.894273 
L 389.199568 374.894273 
L 389.199568 375.342607 
L 391.959985 375.342607 
L 391.959985 376.231122 
L 394.720401 376.231122 
L 394.720401 376.642773 
L 397.480818 376.642773 
L 397.480818 376.952531 
L 400.241234 376.952531 
L 400.241234 377.229682 
L 403.001651 377.229682 
L 403.001651 377.49053 
L 405.762067 377.49053 
L 405.762067 377.637258 
L 414.043317 377.70247 
L 414.043317 377.804364 
L 425.084983 377.914409 
L 425.084983 377.930712 
L 433.366233 377.947015 
L 433.366233 378 
" clip-path="url(#p82d2fbcf43)" style="fill: none; stroke: #15215b; stroke-linejoin: miter"/>
   </g>
   <g id="patch_105">
    <path d="M 72 378 
L 72 51.84 
" style="fill: none; stroke: #000000; stroke-width: 0.8; stroke-linejoin: miter; stroke-linecap: square"/>
   </g>
   <g id="patch_106">
    <path d="M 518.4 378 
L 518.4 51.84 
" style="fill: none; stroke: #000000; stroke-width: 0.8; stroke-linejoin: miter; stroke-linecap: square"/>
   </g>
   <g id="patch_107">
    <path d="M 72 378 
L 518.4 378 
" style="fill: none; stroke: #000000; stroke-width: 0.8; stroke-linejoin: miter; stroke-linecap: square"/>
   </g>
   <g id="patch_108">
    <path d="M 72 51.84 
L 518.4 51.84 
" style="fill: none; stroke: #000000; stroke-width: 0.8; stroke-linejoin: miter; stroke-linecap: square"/>
   </g>
  </g>
 </g>
 <defs>
  <clipPath id="p82d2fbcf43">
   <rect x="72" y="51.84" width="446.4" height="326.16"/>
  </clipPath>
 </defs>
</svg>
