<?xml version="1.0" encoding="utf-8" standalone="no"?>
<!DOCTYPE svg PUBLIC "-//W3C//DTD SVG 1.1//EN"
  "http://www.w3.org/Graphics/SVG/1.1/DTD/svg11.dtd">
<svg xmlns:xlink="http://www.w3.org/1999/xlink" width="576pt" height="432pt" viewBox="0 0 576 432" xmlns="http://www.w3.org/2000/svg" version="1.1">
 <metadata>
  <rdf:RDF xmlns:dc="http://purl.org/dc/elements/1.1/" xmlns:cc="http://creativecommons.org/ns#" xmlns:rdf="http://www.w3.org/1999/02/22-rdf-syntax-ns#">
   <cc:Work>
    <dc:type rdf:resource="http://purl.org/dc/dcmitype/StillImage"/>
    <dc:date>2022-05-18T16:43:46.514207</dc:date>
    <dc:format>image/svg+xml</dc:format>
    <dc:creator>
     <cc:Agent>
      <dc:title>Matplotlib v3.5.1, https://matplotlib.org/</dc:title>
     </cc:Agent>
    </dc:creator>
   </cc:Work>
  </rdf:RDF>
 </metadata>
 <defs>
  <style type="text/css">*{stroke-linejoin: round; stroke-linecap: butt}</style>
 </defs>
 <g id="figure_1">
  <g id="patch_1">
   <path d="M 0 432 
L 576 432 
L 576 0 
L 0 0 
L 0 432 
z
" style="fill: none"/>
  </g>
  <g id="axes_1">
   <g id="patch_2">
    <path d="M 72 378 
L 518.4 378 
L 518.4 51.84 
L 72 51.84 
z
" style="fill: #ffffff"/>
   </g>
   <g id="patch_3">
    <path d="M 99.101627 378 
L 103.11605 378 
L 103.11605 367.645714 
L 99.101627 367.645714 
z
" clip-path="url(#p467a48194a)" style="fill: #a3e301; fill-opacity: 0.5"/>
   </g>
   <g id="patch_4">
    <path d="M 103.11605 378 
L 107.130474 378 
L 107.130474 378 
L 103.11605 378 
z
" clip-path="url(#p467a48194a)" style="fill: #a3e301; fill-opacity: 0.5"/>
   </g>
   <g id="patch_5">
    <path d="M 107.130474 378 
L 111.144898 378 
L 111.144898 378 
L 107.130474 378 
z
" clip-path="url(#p467a48194a)" style="fill: #a3e301; fill-opacity: 0.5"/>
   </g>
   <g id="patch_6">
    <path d="M 111.144898 378 
L 115.159322 378 
L 115.159322 378 
L 111.144898 378 
z
" clip-path="url(#p467a48194a)" style="fill: #a3e301; fill-opacity: 0.5"/>
   </g>
   <g id="patch_7">
    <path d="M 115.159322 378 
L 119.173745 378 
L 119.173745 357.291429 
L 115.159322 357.291429 
z
" clip-path="url(#p467a48194a)" style="fill: #a3e301; fill-opacity: 0.5"/>
   </g>
   <g id="patch_8">
    <path d="M 119.173745 378 
L 123.188169 378 
L 123.188169 378 
L 119.173745 378 
z
" clip-path="url(#p467a48194a)" style="fill: #a3e301; fill-opacity: 0.5"/>
   </g>
   <g id="patch_9">
    <path d="M 123.188169 378 
L 127.202593 378 
L 127.202593 378 
L 123.188169 378 
z
" clip-path="url(#p467a48194a)" style="fill: #a3e301; fill-opacity: 0.5"/>
   </g>
   <g id="patch_10">
    <path d="M 127.202593 378 
L 131.217017 378 
L 131.217017 378 
L 127.202593 378 
z
" clip-path="url(#p467a48194a)" style="fill: #a3e301; fill-opacity: 0.5"/>
   </g>
   <g id="patch_11">
    <path d="M 131.217017 378 
L 135.23144 378 
L 135.23144 378 
L 131.217017 378 
z
" clip-path="url(#p467a48194a)" style="fill: #a3e301; fill-opacity: 0.5"/>
   </g>
   <g id="patch_12">
    <path d="M 135.23144 378 
L 139.245864 378 
L 139.245864 367.645714 
L 135.23144 367.645714 
z
" clip-path="url(#p467a48194a)" style="fill: #a3e301; fill-opacity: 0.5"/>
   </g>
   <g id="patch_13">
    <path d="M 139.245864 378 
L 143.260288 378 
L 143.260288 378 
L 139.245864 378 
z
" clip-path="url(#p467a48194a)" style="fill: #a3e301; fill-opacity: 0.5"/>
   </g>
   <g id="patch_14">
    <path d="M 143.260288 378 
L 147.274712 378 
L 147.274712 378 
L 143.260288 378 
z
" clip-path="url(#p467a48194a)" style="fill: #a3e301; fill-opacity: 0.5"/>
   </g>
   <g id="patch_15">
    <path d="M 147.274712 378 
L 151.289135 378 
L 151.289135 378 
L 147.274712 378 
z
" clip-path="url(#p467a48194a)" style="fill: #a3e301; fill-opacity: 0.5"/>
   </g>
   <g id="patch_16">
    <path d="M 151.289135 378 
L 155.303559 378 
L 155.303559 378 
L 151.289135 378 
z
" clip-path="url(#p467a48194a)" style="fill: #a3e301; fill-opacity: 0.5"/>
   </g>
   <g id="patch_17">
    <path d="M 155.303559 378 
L 159.317983 378 
L 159.317983 378 
L 155.303559 378 
z
" clip-path="url(#p467a48194a)" style="fill: #a3e301; fill-opacity: 0.5"/>
   </g>
   <g id="patch_18">
    <path d="M 159.317983 378 
L 163.332406 378 
L 163.332406 378 
L 159.317983 378 
z
" clip-path="url(#p467a48194a)" style="fill: #a3e301; fill-opacity: 0.5"/>
   </g>
   <g id="patch_19">
    <path d="M 163.332406 378 
L 167.34683 378 
L 167.34683 357.291429 
L 163.332406 357.291429 
z
" clip-path="url(#p467a48194a)" style="fill: #a3e301; fill-opacity: 0.5"/>
   </g>
   <g id="patch_20">
    <path d="M 167.34683 378 
L 171.361254 378 
L 171.361254 367.645714 
L 167.34683 367.645714 
z
" clip-path="url(#p467a48194a)" style="fill: #a3e301; fill-opacity: 0.5"/>
   </g>
   <g id="patch_21">
    <path d="M 171.361254 378 
L 175.375678 378 
L 175.375678 346.937143 
L 171.361254 346.937143 
z
" clip-path="url(#p467a48194a)" style="fill: #a3e301; fill-opacity: 0.5"/>
   </g>
   <g id="patch_22">
    <path d="M 175.375678 378 
L 179.390101 378 
L 179.390101 357.291429 
L 175.375678 357.291429 
z
" clip-path="url(#p467a48194a)" style="fill: #a3e301; fill-opacity: 0.5"/>
   </g>
   <g id="patch_23">
    <path d="M 179.390101 378 
L 183.404525 378 
L 183.404525 357.291429 
L 179.390101 357.291429 
z
" clip-path="url(#p467a48194a)" style="fill: #a3e301; fill-opacity: 0.5"/>
   </g>
   <g id="patch_24">
    <path d="M 183.404525 378 
L 187.418949 378 
L 187.418949 357.291429 
L 183.404525 357.291429 
z
" clip-path="url(#p467a48194a)" style="fill: #a3e301; fill-opacity: 0.5"/>
   </g>
   <g id="patch_25">
    <path d="M 187.418949 378 
L 191.433373 378 
L 191.433373 336.582857 
L 187.418949 336.582857 
z
" clip-path="url(#p467a48194a)" style="fill: #a3e301; fill-opacity: 0.5"/>
   </g>
   <g id="patch_26">
    <path d="M 191.433373 378 
L 195.447796 378 
L 195.447796 346.937143 
L 191.433373 346.937143 
z
" clip-path="url(#p467a48194a)" style="fill: #a3e301; fill-opacity: 0.5"/>
   </g>
   <g id="patch_27">
    <path d="M 195.447796 378 
L 199.46222 378 
L 199.46222 305.52 
L 195.447796 305.52 
z
" clip-path="url(#p467a48194a)" style="fill: #a3e301; fill-opacity: 0.5"/>
   </g>
   <g id="patch_28">
    <path d="M 199.46222 378 
L 203.476644 378 
L 203.476644 305.52 
L 199.46222 305.52 
z
" clip-path="url(#p467a48194a)" style="fill: #a3e301; fill-opacity: 0.5"/>
   </g>
   <g id="patch_29">
    <path d="M 203.476644 378 
L 207.491068 378 
L 207.491068 336.582857 
L 203.476644 336.582857 
z
" clip-path="url(#p467a48194a)" style="fill: #a3e301; fill-opacity: 0.5"/>
   </g>
   <g id="patch_30">
    <path d="M 207.491068 378 
L 211.505491 378 
L 211.505491 326.228571 
L 207.491068 326.228571 
z
" clip-path="url(#p467a48194a)" style="fill: #a3e301; fill-opacity: 0.5"/>
   </g>
   <g id="patch_31">
    <path d="M 211.505491 378 
L 215.519915 378 
L 215.519915 305.52 
L 211.505491 305.52 
z
" clip-path="url(#p467a48194a)" style="fill: #a3e301; fill-opacity: 0.5"/>
   </g>
   <g id="patch_32">
    <path d="M 215.519915 378 
L 219.534339 378 
L 219.534339 284.811429 
L 215.519915 284.811429 
z
" clip-path="url(#p467a48194a)" style="fill: #a3e301; fill-opacity: 0.5"/>
   </g>
   <g id="patch_33">
    <path d="M 219.534339 378 
L 223.548762 378 
L 223.548762 212.331429 
L 219.534339 212.331429 
z
" clip-path="url(#p467a48194a)" style="fill: #a3e301; fill-opacity: 0.5"/>
   </g>
   <g id="patch_34">
    <path d="M 223.548762 378 
L 227.563186 378 
L 227.563186 274.457143 
L 223.548762 274.457143 
z
" clip-path="url(#p467a48194a)" style="fill: #a3e301; fill-opacity: 0.5"/>
   </g>
   <g id="patch_35">
    <path d="M 227.563186 378 
L 231.57761 378 
L 231.57761 191.622857 
L 227.563186 191.622857 
z
" clip-path="url(#p467a48194a)" style="fill: #a3e301; fill-opacity: 0.5"/>
   </g>
   <g id="patch_36">
    <path d="M 231.57761 378 
L 235.592034 378 
L 235.592034 222.685714 
L 231.57761 222.685714 
z
" clip-path="url(#p467a48194a)" style="fill: #a3e301; fill-opacity: 0.5"/>
   </g>
   <g id="patch_37">
    <path d="M 235.592034 378 
L 239.606457 378 
L 239.606457 274.457143 
L 235.592034 274.457143 
z
" clip-path="url(#p467a48194a)" style="fill: #a3e301; fill-opacity: 0.5"/>
   </g>
   <g id="patch_38">
    <path d="M 239.606457 378 
L 243.620881 378 
L 243.620881 129.497143 
L 239.606457 129.497143 
z
" clip-path="url(#p467a48194a)" style="fill: #a3e301; fill-opacity: 0.5"/>
   </g>
   <g id="patch_39">
    <path d="M 243.620881 378 
L 247.635305 378 
L 247.635305 212.331429 
L 243.620881 212.331429 
z
" clip-path="url(#p467a48194a)" style="fill: #a3e301; fill-opacity: 0.5"/>
   </g>
   <g id="patch_40">
    <path d="M 247.635305 378 
L 251.649729 378 
L 251.649729 284.811429 
L 247.635305 284.811429 
z
" clip-path="url(#p467a48194a)" style="fill: #a3e301; fill-opacity: 0.5"/>
   </g>
   <g id="patch_41">
    <path d="M 251.649729 378 
L 255.664152 378 
L 255.664152 284.811429 
L 251.649729 284.811429 
z
" clip-path="url(#p467a48194a)" style="fill: #a3e301; fill-opacity: 0.5"/>
   </g>
   <g id="patch_42">
    <path d="M 255.664152 378 
L 259.678576 378 
L 259.678576 315.874286 
L 255.664152 315.874286 
z
" clip-path="url(#p467a48194a)" style="fill: #a3e301; fill-opacity: 0.5"/>
   </g>
   <g id="patch_43">
    <path d="M 259.678576 378 
L 263.693 378 
L 263.693 295.165714 
L 259.678576 295.165714 
z
" clip-path="url(#p467a48194a)" style="fill: #a3e301; fill-opacity: 0.5"/>
   </g>
   <g id="patch_44">
    <path d="M 263.693 378 
L 267.707424 378 
L 267.707424 243.394286 
L 263.693 243.394286 
z
" clip-path="url(#p467a48194a)" style="fill: #a3e301; fill-opacity: 0.5"/>
   </g>
   <g id="patch_45">
    <path d="M 267.707424 378 
L 271.721847 378 
L 271.721847 243.394286 
L 267.707424 243.394286 
z
" clip-path="url(#p467a48194a)" style="fill: #a3e301; fill-opacity: 0.5"/>
   </g>
   <g id="patch_46">
    <path d="M 271.721847 378 
L 275.736271 378 
L 275.736271 160.56 
L 271.721847 160.56 
z
" clip-path="url(#p467a48194a)" style="fill: #a3e301; fill-opacity: 0.5"/>
   </g>
   <g id="patch_47">
    <path d="M 275.736271 378 
L 279.750695 378 
L 279.750695 191.622857 
L 275.736271 191.622857 
z
" clip-path="url(#p467a48194a)" style="fill: #a3e301; fill-opacity: 0.5"/>
   </g>
   <g id="patch_48">
    <path d="M 279.750695 378 
L 283.765118 378 
L 283.765118 160.56 
L 279.750695 160.56 
z
" clip-path="url(#p467a48194a)" style="fill: #a3e301; fill-opacity: 0.5"/>
   </g>
   <g id="patch_49">
    <path d="M 283.765118 378 
L 287.779542 378 
L 287.779542 201.977143 
L 283.765118 201.977143 
z
" clip-path="url(#p467a48194a)" style="fill: #a3e301; fill-opacity: 0.5"/>
   </g>
   <g id="patch_50">
    <path d="M 287.779542 378 
L 291.793966 378 
L 291.793966 233.04 
L 287.779542 233.04 
z
" clip-path="url(#p467a48194a)" style="fill: #a3e301; fill-opacity: 0.5"/>
   </g>
   <g id="patch_51">
    <path d="M 291.793966 378 
L 295.80839 378 
L 295.80839 233.04 
L 291.793966 233.04 
z
" clip-path="url(#p467a48194a)" style="fill: #a3e301; fill-opacity: 0.5"/>
   </g>
   <g id="patch_52">
    <path d="M 295.80839 378 
L 299.822813 378 
L 299.822813 67.371429 
L 295.80839 67.371429 
z
" clip-path="url(#p467a48194a)" style="fill: #a3e301; fill-opacity: 0.5"/>
   </g>
   <g id="patch_53">
    <path d="M 299.822813 378 
L 303.837237 378 
L 303.837237 253.748571 
L 299.822813 253.748571 
z
" clip-path="url(#p467a48194a)" style="fill: #a3e301; fill-opacity: 0.5"/>
   </g>
   <g id="patch_54">
    <path d="M 303.837237 378 
L 307.851661 378 
L 307.851661 264.102857 
L 303.837237 264.102857 
z
" clip-path="url(#p467a48194a)" style="fill: #a3e301; fill-opacity: 0.5"/>
   </g>
   <g id="patch_55">
    <path d="M 307.851661 378 
L 311.866085 378 
L 311.866085 295.165714 
L 307.851661 295.165714 
z
" clip-path="url(#p467a48194a)" style="fill: #a3e301; fill-opacity: 0.5"/>
   </g>
   <g id="patch_56">
    <path d="M 311.866085 378 
L 315.880508 378 
L 315.880508 274.457143 
L 311.866085 274.457143 
z
" clip-path="url(#p467a48194a)" style="fill: #a3e301; fill-opacity: 0.5"/>
   </g>
   <g id="patch_57">
    <path d="M 315.880508 378 
L 319.894932 378 
L 319.894932 326.228571 
L 315.880508 326.228571 
z
" clip-path="url(#p467a48194a)" style="fill: #a3e301; fill-opacity: 0.5"/>
   </g>
   <g id="patch_58">
    <path d="M 319.894932 378 
L 323.909356 378 
L 323.909356 357.291429 
L 319.894932 357.291429 
z
" clip-path="url(#p467a48194a)" style="fill: #a3e301; fill-opacity: 0.5"/>
   </g>
   <g id="patch_59">
    <path d="M 323.909356 378 
L 327.923779 378 
L 327.923779 346.937143 
L 323.909356 346.937143 
z
" clip-path="url(#p467a48194a)" style="fill: #a3e301; fill-opacity: 0.5"/>
   </g>
   <g id="patch_60">
    <path d="M 327.923779 378 
L 331.938203 378 
L 331.938203 336.582857 
L 327.923779 336.582857 
z
" clip-path="url(#p467a48194a)" style="fill: #a3e301; fill-opacity: 0.5"/>
   </g>
   <g id="patch_61">
    <path d="M 331.938203 378 
L 335.952627 378 
L 335.952627 346.937143 
L 331.938203 346.937143 
z
" clip-path="url(#p467a48194a)" style="fill: #a3e301; fill-opacity: 0.5"/>
   </g>
   <g id="patch_62">
    <path d="M 335.952627 378 
L 339.967051 378 
L 339.967051 378 
L 335.952627 378 
z
" clip-path="url(#p467a48194a)" style="fill: #a3e301; fill-opacity: 0.5"/>
   </g>
   <g id="patch_63">
    <path d="M 339.967051 378 
L 343.981474 378 
L 343.981474 367.645714 
L 339.967051 367.645714 
z
" clip-path="url(#p467a48194a)" style="fill: #a3e301; fill-opacity: 0.5"/>
   </g>
   <g id="patch_64">
    <path d="M 343.981474 378 
L 347.995898 378 
L 347.995898 367.645714 
L 343.981474 367.645714 
z
" clip-path="url(#p467a48194a)" style="fill: #a3e301; fill-opacity: 0.5"/>
   </g>
   <g id="patch_65">
    <path d="M 347.995898 378 
L 352.010322 378 
L 352.010322 357.291429 
L 347.995898 357.291429 
z
" clip-path="url(#p467a48194a)" style="fill: #a3e301; fill-opacity: 0.5"/>
   </g>
   <g id="patch_66">
    <path d="M 352.010322 378 
L 356.024746 378 
L 356.024746 357.291429 
L 352.010322 357.291429 
z
" clip-path="url(#p467a48194a)" style="fill: #a3e301; fill-opacity: 0.5"/>
   </g>
   <g id="patch_67">
    <path d="M 356.024746 378 
L 360.039169 378 
L 360.039169 357.291429 
L 356.024746 357.291429 
z
" clip-path="url(#p467a48194a)" style="fill: #a3e301; fill-opacity: 0.5"/>
   </g>
   <g id="patch_68">
    <path d="M 360.039169 378 
L 364.053593 378 
L 364.053593 315.874286 
L 360.039169 315.874286 
z
" clip-path="url(#p467a48194a)" style="fill: #a3e301; fill-opacity: 0.5"/>
   </g>
   <g id="patch_69">
    <path d="M 364.053593 378 
L 368.068017 378 
L 368.068017 326.228571 
L 364.053593 326.228571 
z
" clip-path="url(#p467a48194a)" style="fill: #a3e301; fill-opacity: 0.5"/>
   </g>
   <g id="patch_70">
    <path d="M 368.068017 378 
L 372.082441 378 
L 372.082441 295.165714 
L 368.068017 295.165714 
z
" clip-path="url(#p467a48194a)" style="fill: #a3e301; fill-opacity: 0.5"/>
   </g>
   <g id="patch_71">
    <path d="M 372.082441 378 
L 376.096864 378 
L 376.096864 243.394286 
L 372.082441 243.394286 
z
" clip-path="url(#p467a48194a)" style="fill: #a3e301; fill-opacity: 0.5"/>
   </g>
   <g id="patch_72">
    <path d="M 376.096864 378 
L 380.111288 378 
L 380.111288 253.748571 
L 376.096864 253.748571 
z
" clip-path="url(#p467a48194a)" style="fill: #a3e301; fill-opacity: 0.5"/>
   </g>
   <g id="patch_73">
    <path d="M 380.111288 378 
L 384.125712 378 
L 384.125712 243.394286 
L 380.111288 243.394286 
z
" clip-path="url(#p467a48194a)" style="fill: #a3e301; fill-opacity: 0.5"/>
   </g>
   <g id="patch_74">
    <path d="M 384.125712 378 
L 388.140135 378 
L 388.140135 222.685714 
L 384.125712 222.685714 
z
" clip-path="url(#p467a48194a)" style="fill: #a3e301; fill-opacity: 0.5"/>
   </g>
   <g id="patch_75">
    <path d="M 388.140135 378 
L 392.154559 378 
L 392.154559 150.205714 
L 388.140135 150.205714 
z
" clip-path="url(#p467a48194a)" style="fill: #a3e301; fill-opacity: 0.5"/>
   </g>
   <g id="patch_76">
    <path d="M 392.154559 378 
L 396.168983 378 
L 396.168983 305.52 
L 392.154559 305.52 
z
" clip-path="url(#p467a48194a)" style="fill: #a3e301; fill-opacity: 0.5"/>
   </g>
   <g id="patch_77">
    <path d="M 396.168983 378 
L 400.183407 378 
L 400.183407 346.937143 
L 396.168983 346.937143 
z
" clip-path="url(#p467a48194a)" style="fill: #a3e301; fill-opacity: 0.5"/>
   </g>
   <g id="patch_78">
    <path d="M 400.183407 378 
L 404.19783 378 
L 404.19783 305.52 
L 400.183407 305.52 
z
" clip-path="url(#p467a48194a)" style="fill: #a3e301; fill-opacity: 0.5"/>
   </g>
   <g id="patch_79">
    <path d="M 404.19783 378 
L 408.212254 378 
L 408.212254 378 
L 404.19783 378 
z
" clip-path="url(#p467a48194a)" style="fill: #a3e301; fill-opacity: 0.5"/>
   </g>
   <g id="patch_80">
    <path d="M 408.212254 378 
L 412.226678 378 
L 412.226678 378 
L 408.212254 378 
z
" clip-path="url(#p467a48194a)" style="fill: #a3e301; fill-opacity: 0.5"/>
   </g>
   <g id="patch_81">
    <path d="M 412.226678 378 
L 416.241102 378 
L 416.241102 367.645714 
L 412.226678 367.645714 
z
" clip-path="url(#p467a48194a)" style="fill: #a3e301; fill-opacity: 0.5"/>
   </g>
   <g id="patch_82">
    <path d="M 416.241102 378 
L 420.255525 378 
L 420.255525 378 
L 416.241102 378 
z
" clip-path="url(#p467a48194a)" style="fill: #a3e301; fill-opacity: 0.5"/>
   </g>
   <g id="patch_83">
    <path d="M 420.255525 378 
L 424.269949 378 
L 424.269949 378 
L 420.255525 378 
z
" clip-path="url(#p467a48194a)" style="fill: #a3e301; fill-opacity: 0.5"/>
   </g>
   <g id="patch_84">
    <path d="M 424.269949 378 
L 428.284373 378 
L 428.284373 378 
L 424.269949 378 
z
" clip-path="url(#p467a48194a)" style="fill: #a3e301; fill-opacity: 0.5"/>
   </g>
   <g id="patch_85">
    <path d="M 428.284373 378 
L 432.298797 378 
L 432.298797 367.645714 
L 428.284373 367.645714 
z
" clip-path="url(#p467a48194a)" style="fill: #a3e301; fill-opacity: 0.5"/>
   </g>
   <g id="patch_86">
    <path d="M 432.298797 378 
L 436.31322 378 
L 436.31322 378 
L 432.298797 378 
z
" clip-path="url(#p467a48194a)" style="fill: #a3e301; fill-opacity: 0.5"/>
   </g>
   <g id="patch_87">
    <path d="M 436.31322 378 
L 440.327644 378 
L 440.327644 378 
L 436.31322 378 
z
" clip-path="url(#p467a48194a)" style="fill: #a3e301; fill-opacity: 0.5"/>
   </g>
   <g id="patch_88">
    <path d="M 440.327644 378 
L 444.342068 378 
L 444.342068 378 
L 440.327644 378 
z
" clip-path="url(#p467a48194a)" style="fill: #a3e301; fill-opacity: 0.5"/>
   </g>
   <g id="patch_89">
    <path d="M 444.342068 378 
L 448.356491 378 
L 448.356491 378 
L 444.342068 378 
z
" clip-path="url(#p467a48194a)" style="fill: #a3e301; fill-opacity: 0.5"/>
   </g>
   <g id="patch_90">
    <path d="M 448.356491 378 
L 452.370915 378 
L 452.370915 367.645714 
L 448.356491 367.645714 
z
" clip-path="url(#p467a48194a)" style="fill: #a3e301; fill-opacity: 0.5"/>
   </g>
   <g id="patch_91">
    <path d="M 452.370915 378 
L 456.385339 378 
L 456.385339 378 
L 452.370915 378 
z
" clip-path="url(#p467a48194a)" style="fill: #a3e301; fill-opacity: 0.5"/>
   </g>
   <g id="patch_92">
    <path d="M 456.385339 378 
L 460.399763 378 
L 460.399763 378 
L 456.385339 378 
z
" clip-path="url(#p467a48194a)" style="fill: #a3e301; fill-opacity: 0.5"/>
   </g>
   <g id="patch_93">
    <path d="M 460.399763 378 
L 464.414186 378 
L 464.414186 378 
L 460.399763 378 
z
" clip-path="url(#p467a48194a)" style="fill: #a3e301; fill-opacity: 0.5"/>
   </g>
   <g id="patch_94">
    <path d="M 464.414186 378 
L 468.42861 378 
L 468.42861 378 
L 464.414186 378 
z
" clip-path="url(#p467a48194a)" style="fill: #a3e301; fill-opacity: 0.5"/>
   </g>
   <g id="patch_95">
    <path d="M 468.42861 378 
L 472.443034 378 
L 472.443034 378 
L 468.42861 378 
z
" clip-path="url(#p467a48194a)" style="fill: #a3e301; fill-opacity: 0.5"/>
   </g>
   <g id="patch_96">
    <path d="M 472.443034 378 
L 476.457458 378 
L 476.457458 367.645714 
L 472.443034 367.645714 
z
" clip-path="url(#p467a48194a)" style="fill: #a3e301; fill-opacity: 0.5"/>
   </g>
   <g id="patch_97">
    <path d="M 476.457458 378 
L 480.471881 378 
L 480.471881 378 
L 476.457458 378 
z
" clip-path="url(#p467a48194a)" style="fill: #a3e301; fill-opacity: 0.5"/>
   </g>
   <g id="patch_98">
    <path d="M 480.471881 378 
L 484.486305 378 
L 484.486305 367.645714 
L 480.471881 367.645714 
z
" clip-path="url(#p467a48194a)" style="fill: #a3e301; fill-opacity: 0.5"/>
   </g>
   <g id="patch_99">
    <path d="M 484.486305 378 
L 488.500729 378 
L 488.500729 378 
L 484.486305 378 
z
" clip-path="url(#p467a48194a)" style="fill: #a3e301; fill-opacity: 0.5"/>
   </g>
   <g id="patch_100">
    <path d="M 488.500729 378 
L 492.515153 378 
L 492.515153 378 
L 488.500729 378 
z
" clip-path="url(#p467a48194a)" style="fill: #a3e301; fill-opacity: 0.5"/>
   </g>
   <g id="patch_101">
    <path d="M 492.515153 378 
L 496.529576 378 
L 496.529576 378 
L 492.515153 378 
z
" clip-path="url(#p467a48194a)" style="fill: #a3e301; fill-opacity: 0.5"/>
   </g>
   <g id="patch_102">
    <path d="M 496.529576 378 
L 500.544 378 
L 500.544 367.645714 
L 496.529576 367.645714 
z
" clip-path="url(#p467a48194a)" style="fill: #a3e301; fill-opacity: 0.5"/>
   </g>
   <g id="matplotlib.axis_1">
    <g id="xtick_1">
     <g id="line2d_1">
      <defs>
       <path id="m49761ef2d6" d="M 0 0 
L 0 3.5 
" style="stroke: #000000; stroke-width: 0.8"/>
      </defs>
      <g>
       <use xlink:href="#m49761ef2d6" x="72" y="378" style="stroke: #000000; stroke-width: 0.8"/>
      </g>
     </g>
     <g id="text_1">
      <!-- 0.00 -->
      <g transform="translate(60.867188 392.598437)scale(0.1 -0.1)">
       <defs>
        <path id="DejaVuSans-30" d="M 2034 4250 
Q 1547 4250 1301 3770 
Q 1056 3291 1056 2328 
Q 1056 1369 1301 889 
Q 1547 409 2034 409 
Q 2525 409 2770 889 
Q 3016 1369 3016 2328 
Q 3016 3291 2770 3770 
Q 2525 4250 2034 4250 
z
M 2034 4750 
Q 2819 4750 3233 4129 
Q 3647 3509 3647 2328 
Q 3647 1150 3233 529 
Q 2819 -91 2034 -91 
Q 1250 -91 836 529 
Q 422 1150 422 2328 
Q 422 3509 836 4129 
Q 1250 4750 2034 4750 
z
" transform="scale(0.015625)"/>
        <path id="DejaVuSans-2e" d="M 684 794 
L 1344 794 
L 1344 0 
L 684 0 
L 684 794 
z
" transform="scale(0.015625)"/>
       </defs>
       <use xlink:href="#DejaVuSans-30"/>
       <use xlink:href="#DejaVuSans-2e" x="63.623047"/>
       <use xlink:href="#DejaVuSans-30" x="95.410156"/>
       <use xlink:href="#DejaVuSans-30" x="159.033203"/>
      </g>
     </g>
    </g>
    <g id="xtick_2">
     <g id="line2d_2">
      <g>
       <use xlink:href="#m49761ef2d6" x="183.6" y="378" style="stroke: #000000; stroke-width: 0.8"/>
      </g>
     </g>
     <g id="text_2">
      <!-- 0.25 -->
      <g transform="translate(172.467187 392.598437)scale(0.1 -0.1)">
       <defs>
        <path id="DejaVuSans-32" d="M 1228 531 
L 3431 531 
L 3431 0 
L 469 0 
L 469 531 
Q 828 903 1448 1529 
Q 2069 2156 2228 2338 
Q 2531 2678 2651 2914 
Q 2772 3150 2772 3378 
Q 2772 3750 2511 3984 
Q 2250 4219 1831 4219 
Q 1534 4219 1204 4116 
Q 875 4013 500 3803 
L 500 4441 
Q 881 4594 1212 4672 
Q 1544 4750 1819 4750 
Q 2544 4750 2975 4387 
Q 3406 4025 3406 3419 
Q 3406 3131 3298 2873 
Q 3191 2616 2906 2266 
Q 2828 2175 2409 1742 
Q 1991 1309 1228 531 
z
" transform="scale(0.015625)"/>
        <path id="DejaVuSans-35" d="M 691 4666 
L 3169 4666 
L 3169 4134 
L 1269 4134 
L 1269 2991 
Q 1406 3038 1543 3061 
Q 1681 3084 1819 3084 
Q 2600 3084 3056 2656 
Q 3513 2228 3513 1497 
Q 3513 744 3044 326 
Q 2575 -91 1722 -91 
Q 1428 -91 1123 -41 
Q 819 9 494 109 
L 494 744 
Q 775 591 1075 516 
Q 1375 441 1709 441 
Q 2250 441 2565 725 
Q 2881 1009 2881 1497 
Q 2881 1984 2565 2268 
Q 2250 2553 1709 2553 
Q 1456 2553 1204 2497 
Q 953 2441 691 2322 
L 691 4666 
z
" transform="scale(0.015625)"/>
       </defs>
       <use xlink:href="#DejaVuSans-30"/>
       <use xlink:href="#DejaVuSans-2e" x="63.623047"/>
       <use xlink:href="#DejaVuSans-32" x="95.410156"/>
       <use xlink:href="#DejaVuSans-35" x="159.033203"/>
      </g>
     </g>
    </g>
    <g id="xtick_3">
     <g id="line2d_3">
      <g>
       <use xlink:href="#m49761ef2d6" x="295.2" y="378" style="stroke: #000000; stroke-width: 0.8"/>
      </g>
     </g>
     <g id="text_3">
      <!-- 0.50 -->
      <g transform="translate(284.067187 392.598437)scale(0.1 -0.1)">
       <use xlink:href="#DejaVuSans-30"/>
       <use xlink:href="#DejaVuSans-2e" x="63.623047"/>
       <use xlink:href="#DejaVuSans-35" x="95.410156"/>
       <use xlink:href="#DejaVuSans-30" x="159.033203"/>
      </g>
     </g>
    </g>
    <g id="xtick_4">
     <g id="line2d_4">
      <g>
       <use xlink:href="#m49761ef2d6" x="406.8" y="378" style="stroke: #000000; stroke-width: 0.8"/>
      </g>
     </g>
     <g id="text_4">
      <!-- 0.75 -->
      <g transform="translate(395.667187 392.598437)scale(0.1 -0.1)">
       <defs>
        <path id="DejaVuSans-37" d="M 525 4666 
L 3525 4666 
L 3525 4397 
L 1831 0 
L 1172 0 
L 2766 4134 
L 525 4134 
L 525 4666 
z
" transform="scale(0.015625)"/>
       </defs>
       <use xlink:href="#DejaVuSans-30"/>
       <use xlink:href="#DejaVuSans-2e" x="63.623047"/>
       <use xlink:href="#DejaVuSans-37" x="95.410156"/>
       <use xlink:href="#DejaVuSans-35" x="159.033203"/>
      </g>
     </g>
    </g>
    <g id="xtick_5">
     <g id="line2d_5">
      <g>
       <use xlink:href="#m49761ef2d6" x="518.4" y="378" style="stroke: #000000; stroke-width: 0.8"/>
      </g>
     </g>
     <g id="text_5">
      <!-- 1.00 -->
      <g transform="translate(507.267187 392.598437)scale(0.1 -0.1)">
       <defs>
        <path id="DejaVuSans-31" d="M 794 531 
L 1825 531 
L 1825 4091 
L 703 3866 
L 703 4441 
L 1819 4666 
L 2450 4666 
L 2450 531 
L 3481 531 
L 3481 0 
L 794 0 
L 794 531 
z
" transform="scale(0.015625)"/>
       </defs>
       <use xlink:href="#DejaVuSans-31"/>
       <use xlink:href="#DejaVuSans-2e" x="63.623047"/>
       <use xlink:href="#DejaVuSans-30" x="95.410156"/>
       <use xlink:href="#DejaVuSans-30" x="159.033203"/>
      </g>
     </g>
    </g>
    <g id="text_6">
     <!-- ratio_roeske -->
     <g transform="translate(264.697656 406.276563)scale(0.1 -0.1)">
      <defs>
       <path id="DejaVuSans-72" d="M 2631 2963 
Q 2534 3019 2420 3045 
Q 2306 3072 2169 3072 
Q 1681 3072 1420 2755 
Q 1159 2438 1159 1844 
L 1159 0 
L 581 0 
L 581 3500 
L 1159 3500 
L 1159 2956 
Q 1341 3275 1631 3429 
Q 1922 3584 2338 3584 
Q 2397 3584 2469 3576 
Q 2541 3569 2628 3553 
L 2631 2963 
z
" transform="scale(0.015625)"/>
       <path id="DejaVuSans-61" d="M 2194 1759 
Q 1497 1759 1228 1600 
Q 959 1441 959 1056 
Q 959 750 1161 570 
Q 1363 391 1709 391 
Q 2188 391 2477 730 
Q 2766 1069 2766 1631 
L 2766 1759 
L 2194 1759 
z
M 3341 1997 
L 3341 0 
L 2766 0 
L 2766 531 
Q 2569 213 2275 61 
Q 1981 -91 1556 -91 
Q 1019 -91 701 211 
Q 384 513 384 1019 
Q 384 1609 779 1909 
Q 1175 2209 1959 2209 
L 2766 2209 
L 2766 2266 
Q 2766 2663 2505 2880 
Q 2244 3097 1772 3097 
Q 1472 3097 1187 3025 
Q 903 2953 641 2809 
L 641 3341 
Q 956 3463 1253 3523 
Q 1550 3584 1831 3584 
Q 2591 3584 2966 3190 
Q 3341 2797 3341 1997 
z
" transform="scale(0.015625)"/>
       <path id="DejaVuSans-74" d="M 1172 4494 
L 1172 3500 
L 2356 3500 
L 2356 3053 
L 1172 3053 
L 1172 1153 
Q 1172 725 1289 603 
Q 1406 481 1766 481 
L 2356 481 
L 2356 0 
L 1766 0 
Q 1100 0 847 248 
Q 594 497 594 1153 
L 594 3053 
L 172 3053 
L 172 3500 
L 594 3500 
L 594 4494 
L 1172 4494 
z
" transform="scale(0.015625)"/>
       <path id="DejaVuSans-69" d="M 603 3500 
L 1178 3500 
L 1178 0 
L 603 0 
L 603 3500 
z
M 603 4863 
L 1178 4863 
L 1178 4134 
L 603 4134 
L 603 4863 
z
" transform="scale(0.015625)"/>
       <path id="DejaVuSans-6f" d="M 1959 3097 
Q 1497 3097 1228 2736 
Q 959 2375 959 1747 
Q 959 1119 1226 758 
Q 1494 397 1959 397 
Q 2419 397 2687 759 
Q 2956 1122 2956 1747 
Q 2956 2369 2687 2733 
Q 2419 3097 1959 3097 
z
M 1959 3584 
Q 2709 3584 3137 3096 
Q 3566 2609 3566 1747 
Q 3566 888 3137 398 
Q 2709 -91 1959 -91 
Q 1206 -91 779 398 
Q 353 888 353 1747 
Q 353 2609 779 3096 
Q 1206 3584 1959 3584 
z
" transform="scale(0.015625)"/>
       <path id="DejaVuSans-5f" d="M 3263 -1063 
L 3263 -1509 
L -63 -1509 
L -63 -1063 
L 3263 -1063 
z
" transform="scale(0.015625)"/>
       <path id="DejaVuSans-65" d="M 3597 1894 
L 3597 1613 
L 953 1613 
Q 991 1019 1311 708 
Q 1631 397 2203 397 
Q 2534 397 2845 478 
Q 3156 559 3463 722 
L 3463 178 
Q 3153 47 2828 -22 
Q 2503 -91 2169 -91 
Q 1331 -91 842 396 
Q 353 884 353 1716 
Q 353 2575 817 3079 
Q 1281 3584 2069 3584 
Q 2775 3584 3186 3129 
Q 3597 2675 3597 1894 
z
M 3022 2063 
Q 3016 2534 2758 2815 
Q 2500 3097 2075 3097 
Q 1594 3097 1305 2825 
Q 1016 2553 972 2059 
L 3022 2063 
z
" transform="scale(0.015625)"/>
       <path id="DejaVuSans-73" d="M 2834 3397 
L 2834 2853 
Q 2591 2978 2328 3040 
Q 2066 3103 1784 3103 
Q 1356 3103 1142 2972 
Q 928 2841 928 2578 
Q 928 2378 1081 2264 
Q 1234 2150 1697 2047 
L 1894 2003 
Q 2506 1872 2764 1633 
Q 3022 1394 3022 966 
Q 3022 478 2636 193 
Q 2250 -91 1575 -91 
Q 1294 -91 989 -36 
Q 684 19 347 128 
L 347 722 
Q 666 556 975 473 
Q 1284 391 1588 391 
Q 1994 391 2212 530 
Q 2431 669 2431 922 
Q 2431 1156 2273 1281 
Q 2116 1406 1581 1522 
L 1381 1569 
Q 847 1681 609 1914 
Q 372 2147 372 2553 
Q 372 3047 722 3315 
Q 1072 3584 1716 3584 
Q 2034 3584 2315 3537 
Q 2597 3491 2834 3397 
z
" transform="scale(0.015625)"/>
       <path id="DejaVuSans-6b" d="M 581 4863 
L 1159 4863 
L 1159 1991 
L 2875 3500 
L 3609 3500 
L 1753 1863 
L 3688 0 
L 2938 0 
L 1159 1709 
L 1159 0 
L 581 0 
L 581 4863 
z
" transform="scale(0.015625)"/>
      </defs>
      <use xlink:href="#DejaVuSans-72"/>
      <use xlink:href="#DejaVuSans-61" x="41.113281"/>
      <use xlink:href="#DejaVuSans-74" x="102.392578"/>
      <use xlink:href="#DejaVuSans-69" x="141.601562"/>
      <use xlink:href="#DejaVuSans-6f" x="169.384766"/>
      <use xlink:href="#DejaVuSans-5f" x="230.566406"/>
      <use xlink:href="#DejaVuSans-72" x="280.566406"/>
      <use xlink:href="#DejaVuSans-6f" x="319.429688"/>
      <use xlink:href="#DejaVuSans-65" x="380.611328"/>
      <use xlink:href="#DejaVuSans-73" x="442.134766"/>
      <use xlink:href="#DejaVuSans-6b" x="494.234375"/>
      <use xlink:href="#DejaVuSans-65" x="548.519531"/>
     </g>
    </g>
   </g>
   <g id="matplotlib.axis_2">
    <g id="ytick_1">
     <g id="line2d_6">
      <defs>
       <path id="mc6ccfc8ec8" d="M 0 0 
L -3.5 0 
" style="stroke: #000000; stroke-width: 0.8"/>
      </defs>
      <g>
       <use xlink:href="#mc6ccfc8ec8" x="72" y="378" style="stroke: #000000; stroke-width: 0.8"/>
      </g>
     </g>
     <g id="text_7">
      <!-- 0 -->
      <g transform="translate(58.6375 381.799219)scale(0.1 -0.1)">
       <use xlink:href="#DejaVuSans-30"/>
      </g>
     </g>
    </g>
    <g id="ytick_2">
     <g id="line2d_7">
      <g>
       <use xlink:href="#mc6ccfc8ec8" x="72" y="327.066151" style="stroke: #000000; stroke-width: 0.8"/>
      </g>
     </g>
     <g id="text_8">
      <!-- 1 -->
      <g transform="translate(58.6375 330.86537)scale(0.1 -0.1)">
       <use xlink:href="#DejaVuSans-31"/>
      </g>
     </g>
    </g>
    <g id="ytick_3">
     <g id="line2d_8">
      <g>
       <use xlink:href="#mc6ccfc8ec8" x="72" y="276.132302" style="stroke: #000000; stroke-width: 0.8"/>
      </g>
     </g>
     <g id="text_9">
      <!-- 2 -->
      <g transform="translate(58.6375 279.931521)scale(0.1 -0.1)">
       <use xlink:href="#DejaVuSans-32"/>
      </g>
     </g>
    </g>
    <g id="ytick_4">
     <g id="line2d_9">
      <g>
       <use xlink:href="#mc6ccfc8ec8" x="72" y="225.198453" style="stroke: #000000; stroke-width: 0.8"/>
      </g>
     </g>
     <g id="text_10">
      <!-- 3 -->
      <g transform="translate(58.6375 228.997672)scale(0.1 -0.1)">
       <defs>
        <path id="DejaVuSans-33" d="M 2597 2516 
Q 3050 2419 3304 2112 
Q 3559 1806 3559 1356 
Q 3559 666 3084 287 
Q 2609 -91 1734 -91 
Q 1441 -91 1130 -33 
Q 819 25 488 141 
L 488 750 
Q 750 597 1062 519 
Q 1375 441 1716 441 
Q 2309 441 2620 675 
Q 2931 909 2931 1356 
Q 2931 1769 2642 2001 
Q 2353 2234 1838 2234 
L 1294 2234 
L 1294 2753 
L 1863 2753 
Q 2328 2753 2575 2939 
Q 2822 3125 2822 3475 
Q 2822 3834 2567 4026 
Q 2313 4219 1838 4219 
Q 1578 4219 1281 4162 
Q 984 4106 628 3988 
L 628 4550 
Q 988 4650 1302 4700 
Q 1616 4750 1894 4750 
Q 2613 4750 3031 4423 
Q 3450 4097 3450 3541 
Q 3450 3153 3228 2886 
Q 3006 2619 2597 2516 
z
" transform="scale(0.015625)"/>
       </defs>
       <use xlink:href="#DejaVuSans-33"/>
      </g>
     </g>
    </g>
    <g id="ytick_5">
     <g id="line2d_10">
      <g>
       <use xlink:href="#mc6ccfc8ec8" x="72" y="174.264604" style="stroke: #000000; stroke-width: 0.8"/>
      </g>
     </g>
     <g id="text_11">
      <!-- 4 -->
      <g transform="translate(58.6375 178.063823)scale(0.1 -0.1)">
       <defs>
        <path id="DejaVuSans-34" d="M 2419 4116 
L 825 1625 
L 2419 1625 
L 2419 4116 
z
M 2253 4666 
L 3047 4666 
L 3047 1625 
L 3713 1625 
L 3713 1100 
L 3047 1100 
L 3047 0 
L 2419 0 
L 2419 1100 
L 313 1100 
L 313 1709 
L 2253 4666 
z
" transform="scale(0.015625)"/>
       </defs>
       <use xlink:href="#DejaVuSans-34"/>
      </g>
     </g>
    </g>
    <g id="ytick_6">
     <g id="line2d_11">
      <g>
       <use xlink:href="#mc6ccfc8ec8" x="72" y="123.330755" style="stroke: #000000; stroke-width: 0.8"/>
      </g>
     </g>
     <g id="text_12">
      <!-- 5 -->
      <g transform="translate(58.6375 127.129974)scale(0.1 -0.1)">
       <use xlink:href="#DejaVuSans-35"/>
      </g>
     </g>
    </g>
    <g id="ytick_7">
     <g id="line2d_12">
      <g>
       <use xlink:href="#mc6ccfc8ec8" x="72" y="72.396906" style="stroke: #000000; stroke-width: 0.8"/>
      </g>
     </g>
     <g id="text_13">
      <!-- 6 -->
      <g transform="translate(58.6375 76.196125)scale(0.1 -0.1)">
       <defs>
        <path id="DejaVuSans-36" d="M 2113 2584 
Q 1688 2584 1439 2293 
Q 1191 2003 1191 1497 
Q 1191 994 1439 701 
Q 1688 409 2113 409 
Q 2538 409 2786 701 
Q 3034 994 3034 1497 
Q 3034 2003 2786 2293 
Q 2538 2584 2113 2584 
z
M 3366 4563 
L 3366 3988 
Q 3128 4100 2886 4159 
Q 2644 4219 2406 4219 
Q 1781 4219 1451 3797 
Q 1122 3375 1075 2522 
Q 1259 2794 1537 2939 
Q 1816 3084 2150 3084 
Q 2853 3084 3261 2657 
Q 3669 2231 3669 1497 
Q 3669 778 3244 343 
Q 2819 -91 2113 -91 
Q 1303 -91 875 529 
Q 447 1150 447 2328 
Q 447 3434 972 4092 
Q 1497 4750 2381 4750 
Q 2619 4750 2861 4703 
Q 3103 4656 3366 4563 
z
" transform="scale(0.015625)"/>
       </defs>
       <use xlink:href="#DejaVuSans-36"/>
      </g>
     </g>
    </g>
    <g id="text_14">
     <!-- Density -->
     <g transform="translate(52.557812 233.928594)rotate(-90)scale(0.1 -0.1)">
      <defs>
       <path id="DejaVuSans-44" d="M 1259 4147 
L 1259 519 
L 2022 519 
Q 2988 519 3436 956 
Q 3884 1394 3884 2338 
Q 3884 3275 3436 3711 
Q 2988 4147 2022 4147 
L 1259 4147 
z
M 628 4666 
L 1925 4666 
Q 3281 4666 3915 4102 
Q 4550 3538 4550 2338 
Q 4550 1131 3912 565 
Q 3275 0 1925 0 
L 628 0 
L 628 4666 
z
" transform="scale(0.015625)"/>
       <path id="DejaVuSans-6e" d="M 3513 2113 
L 3513 0 
L 2938 0 
L 2938 2094 
Q 2938 2591 2744 2837 
Q 2550 3084 2163 3084 
Q 1697 3084 1428 2787 
Q 1159 2491 1159 1978 
L 1159 0 
L 581 0 
L 581 3500 
L 1159 3500 
L 1159 2956 
Q 1366 3272 1645 3428 
Q 1925 3584 2291 3584 
Q 2894 3584 3203 3211 
Q 3513 2838 3513 2113 
z
" transform="scale(0.015625)"/>
       <path id="DejaVuSans-79" d="M 2059 -325 
Q 1816 -950 1584 -1140 
Q 1353 -1331 966 -1331 
L 506 -1331 
L 506 -850 
L 844 -850 
Q 1081 -850 1212 -737 
Q 1344 -625 1503 -206 
L 1606 56 
L 191 3500 
L 800 3500 
L 1894 763 
L 2988 3500 
L 3597 3500 
L 2059 -325 
z
" transform="scale(0.015625)"/>
      </defs>
      <use xlink:href="#DejaVuSans-44"/>
      <use xlink:href="#DejaVuSans-65" x="77.001953"/>
      <use xlink:href="#DejaVuSans-6e" x="138.525391"/>
      <use xlink:href="#DejaVuSans-73" x="201.904297"/>
      <use xlink:href="#DejaVuSans-69" x="254.003906"/>
      <use xlink:href="#DejaVuSans-74" x="281.787109"/>
      <use xlink:href="#DejaVuSans-79" x="320.996094"/>
     </g>
    </g>
   </g>
   <g id="line2d_13">
    <path d="M 99.101627 375.894244 
L 109.188119 375.30508 
L 117.257312 375.081816 
L 133.395699 374.791707 
L 137.430296 374.482675 
L 141.464892 373.945419 
L 145.499489 373.108625 
L 149.534086 371.908521 
L 153.568682 370.294955 
L 157.603279 368.235184 
L 161.637876 365.713986 
L 165.672473 362.729621 
L 169.707069 359.286338 
L 173.741666 355.38518 
L 177.776263 351.015388 
L 181.810859 346.148596 
L 185.845456 340.737728 
L 189.880053 334.722145 
L 193.91465 328.040306 
L 197.949246 320.650345 
L 201.983843 312.557123 
L 206.01844 303.841308 
L 212.070335 290.023507 
L 218.12223 276.280343 
L 222.156827 267.845017 
L 224.174125 264.003764 
L 226.191423 260.474311 
L 228.208722 257.292124 
L 230.22602 254.481759 
L 232.243318 252.055027 
L 234.260617 250.009738 
L 236.277915 248.329141 
L 238.295213 246.982171 
L 240.312512 245.92453 
L 242.32981 245.100597 
L 246.364407 243.891428 
L 250.399004 242.799081 
L 252.416302 242.130168 
L 254.4336 241.306298 
L 256.450899 240.288488 
L 258.468197 239.05361 
L 260.485495 237.596048 
L 262.502794 235.928393 
L 266.53739 232.101455 
L 272.589286 226.040258 
L 274.606584 224.248576 
L 276.623882 222.716194 
L 278.641181 221.528588 
L 280.658479 220.765478 
L 282.675777 220.497887 
L 284.693076 220.785691 
L 286.710374 221.675691 
L 288.727672 223.200231 
L 290.744971 225.376357 
L 292.762269 228.205491 
L 294.779567 231.673589 
L 296.796866 235.751735 
L 298.814164 240.397149 
L 300.831463 245.554534 
L 302.848761 251.157747 
L 306.883358 263.394493 
L 318.987148 302.140847 
L 321.004446 308.011319 
L 323.021744 313.519665 
L 325.039043 318.60871 
L 327.056341 323.229155 
L 329.07364 327.339489 
L 331.090938 330.905719 
L 333.108236 333.900993 
L 335.125535 336.30521 
L 337.142833 338.104682 
L 339.160131 339.291939 
L 341.17743 339.865694 
L 343.194728 339.831016 
L 345.212026 339.199697 
L 347.229325 337.990777 
L 349.246623 336.231198 
L 351.263921 333.956482 
L 353.28122 331.211373 
L 355.298518 328.050324 
L 357.315817 324.537743 
L 361.350413 316.764328 
L 367.402308 304.601972 
L 369.419607 300.81917 
L 371.436905 297.346612 
L 373.454203 294.284827 
L 375.471502 291.726819 
L 377.4888 289.754669 
L 379.506099 288.436347 
L 381.523397 287.822931 
L 383.540695 287.946408 
L 385.557994 288.818214 
L 387.575292 290.428635 
L 389.59259 292.747117 
L 391.609889 295.723511 
L 393.627187 299.290184 
L 395.644485 303.364887 
L 397.661784 307.854228 
L 401.69638 317.670894 
L 407.748276 332.965348 
L 411.782872 342.498809 
L 413.800171 346.863762 
L 415.817469 350.902113 
L 417.834767 354.587139 
L 419.852066 357.905124 
L 421.869364 360.854062 
L 423.886662 363.442009 
L 425.903961 365.685221 
L 427.921259 367.60622 
L 429.938557 369.231892 
L 431.955856 370.591722 
L 433.973154 371.716229 
L 435.990453 372.635651 
L 438.007751 373.378911 
L 440.025049 373.972851 
L 444.059646 374.806969 
L 448.094243 375.297729 
L 452.128839 375.560804 
L 458.180734 375.694514 
L 468.267226 375.593428 
L 480.371016 375.475425 
L 488.44021 375.617123 
L 496.509403 375.964749 
L 500.544 376.194819 
L 500.544 376.194819 
" clip-path="url(#p467a48194a)" style="fill: none; stroke: #a3e301; stroke-width: 1.5; stroke-linecap: square"/>
   </g>
   <g id="patch_103">
    <path d="M 72 378 
L 72 51.84 
" style="fill: none; stroke: #000000; stroke-width: 0.8; stroke-linejoin: miter; stroke-linecap: square"/>
   </g>
   <g id="patch_104">
    <path d="M 518.4 378 
L 518.4 51.84 
" style="fill: none; stroke: #000000; stroke-width: 0.8; stroke-linejoin: miter; stroke-linecap: square"/>
   </g>
   <g id="patch_105">
    <path d="M 72 378 
L 518.4 378 
" style="fill: none; stroke: #000000; stroke-width: 0.8; stroke-linejoin: miter; stroke-linecap: square"/>
   </g>
   <g id="patch_106">
    <path d="M 72 51.84 
L 518.4 51.84 
" style="fill: none; stroke: #000000; stroke-width: 0.8; stroke-linejoin: miter; stroke-linecap: square"/>
   </g>
   <g id="text_15">
    <!-- rhythms containing lengths &gt;0.36540571809567496 -->
    <g transform="translate(135.189375 45.84)scale(0.12 -0.12)">
     <defs>
      <path id="DejaVuSans-68" d="M 3513 2113 
L 3513 0 
L 2938 0 
L 2938 2094 
Q 2938 2591 2744 2837 
Q 2550 3084 2163 3084 
Q 1697 3084 1428 2787 
Q 1159 2491 1159 1978 
L 1159 0 
L 581 0 
L 581 4863 
L 1159 4863 
L 1159 2956 
Q 1366 3272 1645 3428 
Q 1925 3584 2291 3584 
Q 2894 3584 3203 3211 
Q 3513 2838 3513 2113 
z
" transform="scale(0.015625)"/>
      <path id="DejaVuSans-6d" d="M 3328 2828 
Q 3544 3216 3844 3400 
Q 4144 3584 4550 3584 
Q 5097 3584 5394 3201 
Q 5691 2819 5691 2113 
L 5691 0 
L 5113 0 
L 5113 2094 
Q 5113 2597 4934 2840 
Q 4756 3084 4391 3084 
Q 3944 3084 3684 2787 
Q 3425 2491 3425 1978 
L 3425 0 
L 2847 0 
L 2847 2094 
Q 2847 2600 2669 2842 
Q 2491 3084 2119 3084 
Q 1678 3084 1418 2786 
Q 1159 2488 1159 1978 
L 1159 0 
L 581 0 
L 581 3500 
L 1159 3500 
L 1159 2956 
Q 1356 3278 1631 3431 
Q 1906 3584 2284 3584 
Q 2666 3584 2933 3390 
Q 3200 3197 3328 2828 
z
" transform="scale(0.015625)"/>
      <path id="DejaVuSans-20" transform="scale(0.015625)"/>
      <path id="DejaVuSans-63" d="M 3122 3366 
L 3122 2828 
Q 2878 2963 2633 3030 
Q 2388 3097 2138 3097 
Q 1578 3097 1268 2742 
Q 959 2388 959 1747 
Q 959 1106 1268 751 
Q 1578 397 2138 397 
Q 2388 397 2633 464 
Q 2878 531 3122 666 
L 3122 134 
Q 2881 22 2623 -34 
Q 2366 -91 2075 -91 
Q 1284 -91 818 406 
Q 353 903 353 1747 
Q 353 2603 823 3093 
Q 1294 3584 2113 3584 
Q 2378 3584 2631 3529 
Q 2884 3475 3122 3366 
z
" transform="scale(0.015625)"/>
      <path id="DejaVuSans-67" d="M 2906 1791 
Q 2906 2416 2648 2759 
Q 2391 3103 1925 3103 
Q 1463 3103 1205 2759 
Q 947 2416 947 1791 
Q 947 1169 1205 825 
Q 1463 481 1925 481 
Q 2391 481 2648 825 
Q 2906 1169 2906 1791 
z
M 3481 434 
Q 3481 -459 3084 -895 
Q 2688 -1331 1869 -1331 
Q 1566 -1331 1297 -1286 
Q 1028 -1241 775 -1147 
L 775 -588 
Q 1028 -725 1275 -790 
Q 1522 -856 1778 -856 
Q 2344 -856 2625 -561 
Q 2906 -266 2906 331 
L 2906 616 
Q 2728 306 2450 153 
Q 2172 0 1784 0 
Q 1141 0 747 490 
Q 353 981 353 1791 
Q 353 2603 747 3093 
Q 1141 3584 1784 3584 
Q 2172 3584 2450 3431 
Q 2728 3278 2906 2969 
L 2906 3500 
L 3481 3500 
L 3481 434 
z
" transform="scale(0.015625)"/>
      <path id="DejaVuSans-6c" d="M 603 4863 
L 1178 4863 
L 1178 0 
L 603 0 
L 603 4863 
z
" transform="scale(0.015625)"/>
      <path id="DejaVuSans-3e" d="M 678 3150 
L 678 3719 
L 4684 2266 
L 4684 1747 
L 678 294 
L 678 863 
L 3897 2003 
L 678 3150 
z
" transform="scale(0.015625)"/>
      <path id="DejaVuSans-38" d="M 2034 2216 
Q 1584 2216 1326 1975 
Q 1069 1734 1069 1313 
Q 1069 891 1326 650 
Q 1584 409 2034 409 
Q 2484 409 2743 651 
Q 3003 894 3003 1313 
Q 3003 1734 2745 1975 
Q 2488 2216 2034 2216 
z
M 1403 2484 
Q 997 2584 770 2862 
Q 544 3141 544 3541 
Q 544 4100 942 4425 
Q 1341 4750 2034 4750 
Q 2731 4750 3128 4425 
Q 3525 4100 3525 3541 
Q 3525 3141 3298 2862 
Q 3072 2584 2669 2484 
Q 3125 2378 3379 2068 
Q 3634 1759 3634 1313 
Q 3634 634 3220 271 
Q 2806 -91 2034 -91 
Q 1263 -91 848 271 
Q 434 634 434 1313 
Q 434 1759 690 2068 
Q 947 2378 1403 2484 
z
M 1172 3481 
Q 1172 3119 1398 2916 
Q 1625 2713 2034 2713 
Q 2441 2713 2670 2916 
Q 2900 3119 2900 3481 
Q 2900 3844 2670 4047 
Q 2441 4250 2034 4250 
Q 1625 4250 1398 4047 
Q 1172 3844 1172 3481 
z
" transform="scale(0.015625)"/>
      <path id="DejaVuSans-39" d="M 703 97 
L 703 672 
Q 941 559 1184 500 
Q 1428 441 1663 441 
Q 2288 441 2617 861 
Q 2947 1281 2994 2138 
Q 2813 1869 2534 1725 
Q 2256 1581 1919 1581 
Q 1219 1581 811 2004 
Q 403 2428 403 3163 
Q 403 3881 828 4315 
Q 1253 4750 1959 4750 
Q 2769 4750 3195 4129 
Q 3622 3509 3622 2328 
Q 3622 1225 3098 567 
Q 2575 -91 1691 -91 
Q 1453 -91 1209 -44 
Q 966 3 703 97 
z
M 1959 2075 
Q 2384 2075 2632 2365 
Q 2881 2656 2881 3163 
Q 2881 3666 2632 3958 
Q 2384 4250 1959 4250 
Q 1534 4250 1286 3958 
Q 1038 3666 1038 3163 
Q 1038 2656 1286 2365 
Q 1534 2075 1959 2075 
z
" transform="scale(0.015625)"/>
     </defs>
     <use xlink:href="#DejaVuSans-72"/>
     <use xlink:href="#DejaVuSans-68" x="39.363281"/>
     <use xlink:href="#DejaVuSans-79" x="102.742188"/>
     <use xlink:href="#DejaVuSans-74" x="161.921875"/>
     <use xlink:href="#DejaVuSans-68" x="201.130859"/>
     <use xlink:href="#DejaVuSans-6d" x="264.509766"/>
     <use xlink:href="#DejaVuSans-73" x="361.921875"/>
     <use xlink:href="#DejaVuSans-20" x="414.021484"/>
     <use xlink:href="#DejaVuSans-63" x="445.808594"/>
     <use xlink:href="#DejaVuSans-6f" x="500.789062"/>
     <use xlink:href="#DejaVuSans-6e" x="561.970703"/>
     <use xlink:href="#DejaVuSans-74" x="625.349609"/>
     <use xlink:href="#DejaVuSans-61" x="664.558594"/>
     <use xlink:href="#DejaVuSans-69" x="725.837891"/>
     <use xlink:href="#DejaVuSans-6e" x="753.621094"/>
     <use xlink:href="#DejaVuSans-69" x="817"/>
     <use xlink:href="#DejaVuSans-6e" x="844.783203"/>
     <use xlink:href="#DejaVuSans-67" x="908.162109"/>
     <use xlink:href="#DejaVuSans-20" x="971.638672"/>
     <use xlink:href="#DejaVuSans-6c" x="1003.425781"/>
     <use xlink:href="#DejaVuSans-65" x="1031.208984"/>
     <use xlink:href="#DejaVuSans-6e" x="1092.732422"/>
     <use xlink:href="#DejaVuSans-67" x="1156.111328"/>
     <use xlink:href="#DejaVuSans-74" x="1219.587891"/>
     <use xlink:href="#DejaVuSans-68" x="1258.796875"/>
     <use xlink:href="#DejaVuSans-73" x="1322.175781"/>
     <use xlink:href="#DejaVuSans-20" x="1374.275391"/>
     <use xlink:href="#DejaVuSans-3e" x="1406.0625"/>
     <use xlink:href="#DejaVuSans-30" x="1489.851562"/>
     <use xlink:href="#DejaVuSans-2e" x="1553.474609"/>
     <use xlink:href="#DejaVuSans-33" x="1585.261719"/>
     <use xlink:href="#DejaVuSans-36" x="1648.884766"/>
     <use xlink:href="#DejaVuSans-35" x="1712.507812"/>
     <use xlink:href="#DejaVuSans-34" x="1776.130859"/>
     <use xlink:href="#DejaVuSans-30" x="1839.753906"/>
     <use xlink:href="#DejaVuSans-35" x="1903.376953"/>
     <use xlink:href="#DejaVuSans-37" x="1967"/>
     <use xlink:href="#DejaVuSans-31" x="2030.623047"/>
     <use xlink:href="#DejaVuSans-38" x="2094.246094"/>
     <use xlink:href="#DejaVuSans-30" x="2157.869141"/>
     <use xlink:href="#DejaVuSans-39" x="2221.492188"/>
     <use xlink:href="#DejaVuSans-35" x="2285.115234"/>
     <use xlink:href="#DejaVuSans-36" x="2348.738281"/>
     <use xlink:href="#DejaVuSans-37" x="2412.361328"/>
     <use xlink:href="#DejaVuSans-34" x="2475.984375"/>
     <use xlink:href="#DejaVuSans-39" x="2539.607422"/>
     <use xlink:href="#DejaVuSans-36" x="2603.230469"/>
    </g>
   </g>
  </g>
 </g>
 <defs>
  <clipPath id="p467a48194a">
   <rect x="72" y="51.84" width="446.4" height="326.16"/>
  </clipPath>
 </defs>
</svg>
