<?xml version="1.0" encoding="utf-8" standalone="no"?>
<!DOCTYPE svg PUBLIC "-//W3C//DTD SVG 1.1//EN"
  "http://www.w3.org/Graphics/SVG/1.1/DTD/svg11.dtd">
<svg xmlns:xlink="http://www.w3.org/1999/xlink" width="576pt" height="432pt" viewBox="0 0 576 432" xmlns="http://www.w3.org/2000/svg" version="1.1">
 <metadata>
  <rdf:RDF xmlns:dc="http://purl.org/dc/elements/1.1/" xmlns:cc="http://creativecommons.org/ns#" xmlns:rdf="http://www.w3.org/1999/02/22-rdf-syntax-ns#">
   <cc:Work>
    <dc:type rdf:resource="http://purl.org/dc/dcmitype/StillImage"/>
    <dc:date>2022-04-04T20:28:33.087198</dc:date>
    <dc:format>image/svg+xml</dc:format>
    <dc:creator>
     <cc:Agent>
      <dc:title>Matplotlib v3.5.1, https://matplotlib.org/</dc:title>
     </cc:Agent>
    </dc:creator>
   </cc:Work>
  </rdf:RDF>
 </metadata>
 <defs>
  <style type="text/css">*{stroke-linejoin: round; stroke-linecap: butt}</style>
 </defs>
 <g id="figure_1">
  <g id="patch_1">
   <path d="M 0 432 
L 576 432 
L 576 0 
L 0 0 
L 0 432 
z
" style="fill: none"/>
  </g>
  <g id="axes_1">
   <g id="patch_2">
    <path d="M 72 378 
L 518.4 378 
L 518.4 51.84 
L 72 51.84 
z
" style="fill: #ffffff"/>
   </g>
   <g id="patch_3">
    <path d="M 192.60055 378 
L 194.665057 378 
L 194.665057 372.972571 
L 192.60055 372.972571 
z
" clip-path="url(#p15ce872082)" style="fill: #a3e301; opacity: 0.5"/>
   </g>
   <g id="patch_4">
    <path d="M 194.665057 378 
L 196.729564 378 
L 196.729564 378 
L 194.665057 378 
z
" clip-path="url(#p15ce872082)" style="fill: #a3e301; opacity: 0.5"/>
   </g>
   <g id="patch_5">
    <path d="M 196.729564 378 
L 198.794071 378 
L 198.794071 378 
L 196.729564 378 
z
" clip-path="url(#p15ce872082)" style="fill: #a3e301; opacity: 0.5"/>
   </g>
   <g id="patch_6">
    <path d="M 198.794071 378 
L 200.858578 378 
L 200.858578 372.972571 
L 198.794071 372.972571 
z
" clip-path="url(#p15ce872082)" style="fill: #a3e301; opacity: 0.5"/>
   </g>
   <g id="patch_7">
    <path d="M 200.858578 378 
L 202.923085 378 
L 202.923085 372.972571 
L 200.858578 372.972571 
z
" clip-path="url(#p15ce872082)" style="fill: #a3e301; opacity: 0.5"/>
   </g>
   <g id="patch_8">
    <path d="M 202.923085 378 
L 204.987591 378 
L 204.987591 378 
L 202.923085 378 
z
" clip-path="url(#p15ce872082)" style="fill: #a3e301; opacity: 0.5"/>
   </g>
   <g id="patch_9">
    <path d="M 204.987591 378 
L 207.052098 378 
L 207.052098 378 
L 204.987591 378 
z
" clip-path="url(#p15ce872082)" style="fill: #a3e301; opacity: 0.5"/>
   </g>
   <g id="patch_10">
    <path d="M 207.052098 378 
L 209.116605 378 
L 209.116605 378 
L 207.052098 378 
z
" clip-path="url(#p15ce872082)" style="fill: #a3e301; opacity: 0.5"/>
   </g>
   <g id="patch_11">
    <path d="M 209.116605 378 
L 211.181112 378 
L 211.181112 372.972571 
L 209.116605 372.972571 
z
" clip-path="url(#p15ce872082)" style="fill: #a3e301; opacity: 0.5"/>
   </g>
   <g id="patch_12">
    <path d="M 211.181112 378 
L 213.245619 378 
L 213.245619 372.972571 
L 211.181112 372.972571 
z
" clip-path="url(#p15ce872082)" style="fill: #a3e301; opacity: 0.5"/>
   </g>
   <g id="patch_13">
    <path d="M 213.245619 378 
L 215.310126 378 
L 215.310126 378 
L 213.245619 378 
z
" clip-path="url(#p15ce872082)" style="fill: #a3e301; opacity: 0.5"/>
   </g>
   <g id="patch_14">
    <path d="M 215.310126 378 
L 217.374633 378 
L 217.374633 372.972571 
L 215.310126 372.972571 
z
" clip-path="url(#p15ce872082)" style="fill: #a3e301; opacity: 0.5"/>
   </g>
   <g id="patch_15">
    <path d="M 217.374633 378 
L 219.43914 378 
L 219.43914 362.917712 
L 217.374633 362.917712 
z
" clip-path="url(#p15ce872082)" style="fill: #a3e301; opacity: 0.5"/>
   </g>
   <g id="patch_16">
    <path d="M 219.43914 378 
L 221.503646 378 
L 221.503646 372.972571 
L 219.43914 372.972571 
z
" clip-path="url(#p15ce872082)" style="fill: #a3e301; opacity: 0.5"/>
   </g>
   <g id="patch_17">
    <path d="M 221.503646 378 
L 223.568153 378 
L 223.568153 378 
L 221.503646 378 
z
" clip-path="url(#p15ce872082)" style="fill: #a3e301; opacity: 0.5"/>
   </g>
   <g id="patch_18">
    <path d="M 223.568153 378 
L 225.63266 378 
L 225.63266 367.945141 
L 223.568153 367.945141 
z
" clip-path="url(#p15ce872082)" style="fill: #a3e301; opacity: 0.5"/>
   </g>
   <g id="patch_19">
    <path d="M 225.63266 378 
L 227.697167 378 
L 227.697167 378 
L 225.63266 378 
z
" clip-path="url(#p15ce872082)" style="fill: #a3e301; opacity: 0.5"/>
   </g>
   <g id="patch_20">
    <path d="M 227.697167 378 
L 229.761674 378 
L 229.761674 372.972571 
L 227.697167 372.972571 
z
" clip-path="url(#p15ce872082)" style="fill: #a3e301; opacity: 0.5"/>
   </g>
   <g id="patch_21">
    <path d="M 229.761674 378 
L 231.826181 378 
L 231.826181 362.917712 
L 229.761674 362.917712 
z
" clip-path="url(#p15ce872082)" style="fill: #a3e301; opacity: 0.5"/>
   </g>
   <g id="patch_22">
    <path d="M 231.826181 378 
L 233.890688 378 
L 233.890688 372.972571 
L 231.826181 372.972571 
z
" clip-path="url(#p15ce872082)" style="fill: #a3e301; opacity: 0.5"/>
   </g>
   <g id="patch_23">
    <path d="M 233.890688 378 
L 235.955194 378 
L 235.955194 357.890282 
L 233.890688 357.890282 
z
" clip-path="url(#p15ce872082)" style="fill: #a3e301; opacity: 0.5"/>
   </g>
   <g id="patch_24">
    <path d="M 235.955194 378 
L 238.019701 378 
L 238.019701 362.917712 
L 235.955194 362.917712 
z
" clip-path="url(#p15ce872082)" style="fill: #a3e301; opacity: 0.5"/>
   </g>
   <g id="patch_25">
    <path d="M 238.019701 378 
L 240.084208 378 
L 240.084208 352.862853 
L 238.019701 352.862853 
z
" clip-path="url(#p15ce872082)" style="fill: #a3e301; opacity: 0.5"/>
   </g>
   <g id="patch_26">
    <path d="M 240.084208 378 
L 242.148715 378 
L 242.148715 337.780565 
L 240.084208 337.780565 
z
" clip-path="url(#p15ce872082)" style="fill: #a3e301; opacity: 0.5"/>
   </g>
   <g id="patch_27">
    <path d="M 242.148715 378 
L 244.213222 378 
L 244.213222 342.807994 
L 242.148715 342.807994 
z
" clip-path="url(#p15ce872082)" style="fill: #a3e301; opacity: 0.5"/>
   </g>
   <g id="patch_28">
    <path d="M 244.213222 378 
L 246.277729 378 
L 246.277729 342.807994 
L 244.213222 342.807994 
z
" clip-path="url(#p15ce872082)" style="fill: #a3e301; opacity: 0.5"/>
   </g>
   <g id="patch_29">
    <path d="M 246.277729 378 
L 248.342236 378 
L 248.342236 347.835423 
L 246.277729 347.835423 
z
" clip-path="url(#p15ce872082)" style="fill: #a3e301; opacity: 0.5"/>
   </g>
   <g id="patch_30">
    <path d="M 248.342236 378 
L 250.406743 378 
L 250.406743 332.753135 
L 248.342236 332.753135 
z
" clip-path="url(#p15ce872082)" style="fill: #a3e301; opacity: 0.5"/>
   </g>
   <g id="patch_31">
    <path d="M 250.406743 378 
L 252.471249 378 
L 252.471249 337.780565 
L 250.406743 337.780565 
z
" clip-path="url(#p15ce872082)" style="fill: #a3e301; opacity: 0.5"/>
   </g>
   <g id="patch_32">
    <path d="M 252.471249 378 
L 254.535756 378 
L 254.535756 297.561129 
L 252.471249 297.561129 
z
" clip-path="url(#p15ce872082)" style="fill: #a3e301; opacity: 0.5"/>
   </g>
   <g id="patch_33">
    <path d="M 254.535756 378 
L 256.600263 378 
L 256.600263 337.780565 
L 254.535756 337.780565 
z
" clip-path="url(#p15ce872082)" style="fill: #a3e301; opacity: 0.5"/>
   </g>
   <g id="patch_34">
    <path d="M 256.600263 378 
L 258.66477 378 
L 258.66477 322.698276 
L 256.600263 322.698276 
z
" clip-path="url(#p15ce872082)" style="fill: #a3e301; opacity: 0.5"/>
   </g>
   <g id="patch_35">
    <path d="M 258.66477 378 
L 260.729277 378 
L 260.729277 297.561129 
L 258.66477 297.561129 
z
" clip-path="url(#p15ce872082)" style="fill: #a3e301; opacity: 0.5"/>
   </g>
   <g id="patch_36">
    <path d="M 260.729277 378 
L 262.793784 378 
L 262.793784 327.725706 
L 260.729277 327.725706 
z
" clip-path="url(#p15ce872082)" style="fill: #a3e301; opacity: 0.5"/>
   </g>
   <g id="patch_37">
    <path d="M 262.793784 378 
L 264.858291 378 
L 264.858291 292.5337 
L 262.793784 292.5337 
z
" clip-path="url(#p15ce872082)" style="fill: #a3e301; opacity: 0.5"/>
   </g>
   <g id="patch_38">
    <path d="M 264.858291 378 
L 266.922798 378 
L 266.922798 242.259405 
L 264.858291 242.259405 
z
" clip-path="url(#p15ce872082)" style="fill: #a3e301; opacity: 0.5"/>
   </g>
   <g id="patch_39">
    <path d="M 266.922798 378 
L 268.987304 378 
L 268.987304 267.396552 
L 266.922798 267.396552 
z
" clip-path="url(#p15ce872082)" style="fill: #a3e301; opacity: 0.5"/>
   </g>
   <g id="patch_40">
    <path d="M 268.987304 378 
L 271.051811 378 
L 271.051811 267.396552 
L 268.987304 267.396552 
z
" clip-path="url(#p15ce872082)" style="fill: #a3e301; opacity: 0.5"/>
   </g>
   <g id="patch_41">
    <path d="M 271.051811 378 
L 273.116318 378 
L 273.116318 197.01254 
L 271.051811 197.01254 
z
" clip-path="url(#p15ce872082)" style="fill: #a3e301; opacity: 0.5"/>
   </g>
   <g id="patch_42">
    <path d="M 273.116318 378 
L 275.180825 378 
L 275.180825 207.067399 
L 273.116318 207.067399 
z
" clip-path="url(#p15ce872082)" style="fill: #a3e301; opacity: 0.5"/>
   </g>
   <g id="patch_43">
    <path d="M 275.180825 378 
L 277.245332 378 
L 277.245332 262.369123 
L 275.180825 262.369123 
z
" clip-path="url(#p15ce872082)" style="fill: #a3e301; opacity: 0.5"/>
   </g>
   <g id="patch_44">
    <path d="M 277.245332 378 
L 279.309839 378 
L 279.309839 217.122258 
L 277.245332 217.122258 
z
" clip-path="url(#p15ce872082)" style="fill: #a3e301; opacity: 0.5"/>
   </g>
   <g id="patch_45">
    <path d="M 279.309839 378 
L 281.374346 378 
L 281.374346 186.957682 
L 279.309839 186.957682 
z
" clip-path="url(#p15ce872082)" style="fill: #a3e301; opacity: 0.5"/>
   </g>
   <g id="patch_46">
    <path d="M 281.374346 378 
L 283.438852 378 
L 283.438852 161.820534 
L 281.374346 161.820534 
z
" clip-path="url(#p15ce872082)" style="fill: #a3e301; opacity: 0.5"/>
   </g>
   <g id="patch_47">
    <path d="M 283.438852 378 
L 285.503359 378 
L 285.503359 131.655958 
L 283.438852 131.655958 
z
" clip-path="url(#p15ce872082)" style="fill: #a3e301; opacity: 0.5"/>
   </g>
   <g id="patch_48">
    <path d="M 285.503359 378 
L 287.567866 378 
L 287.567866 141.710817 
L 285.503359 141.710817 
z
" clip-path="url(#p15ce872082)" style="fill: #a3e301; opacity: 0.5"/>
   </g>
   <g id="patch_49">
    <path d="M 287.567866 378 
L 289.632373 378 
L 289.632373 146.738246 
L 287.567866 146.738246 
z
" clip-path="url(#p15ce872082)" style="fill: #a3e301; opacity: 0.5"/>
   </g>
   <g id="patch_50">
    <path d="M 289.632373 378 
L 291.69688 378 
L 291.69688 126.628528 
L 289.632373 126.628528 
z
" clip-path="url(#p15ce872082)" style="fill: #a3e301; opacity: 0.5"/>
   </g>
   <g id="patch_51">
    <path d="M 291.69688 378 
L 293.761387 378 
L 293.761387 146.738246 
L 291.69688 146.738246 
z
" clip-path="url(#p15ce872082)" style="fill: #a3e301; opacity: 0.5"/>
   </g>
   <g id="patch_52">
    <path d="M 293.761387 378 
L 295.825894 378 
L 295.825894 91.436522 
L 293.761387 91.436522 
z
" clip-path="url(#p15ce872082)" style="fill: #a3e301; opacity: 0.5"/>
   </g>
   <g id="patch_53">
    <path d="M 295.825894 378 
L 297.890401 378 
L 297.890401 136.683387 
L 295.825894 136.683387 
z
" clip-path="url(#p15ce872082)" style="fill: #a3e301; opacity: 0.5"/>
   </g>
   <g id="patch_54">
    <path d="M 297.890401 378 
L 299.954907 378 
L 299.954907 151.765675 
L 297.890401 151.765675 
z
" clip-path="url(#p15ce872082)" style="fill: #a3e301; opacity: 0.5"/>
   </g>
   <g id="patch_55">
    <path d="M 299.954907 378 
L 302.019414 378 
L 302.019414 96.463952 
L 299.954907 96.463952 
z
" clip-path="url(#p15ce872082)" style="fill: #a3e301; opacity: 0.5"/>
   </g>
   <g id="patch_56">
    <path d="M 302.019414 378 
L 304.083921 378 
L 304.083921 212.094829 
L 302.019414 212.094829 
z
" clip-path="url(#p15ce872082)" style="fill: #a3e301; opacity: 0.5"/>
   </g>
   <g id="patch_57">
    <path d="M 304.083921 378 
L 306.148428 378 
L 306.148428 136.683387 
L 304.083921 136.683387 
z
" clip-path="url(#p15ce872082)" style="fill: #a3e301; opacity: 0.5"/>
   </g>
   <g id="patch_58">
    <path d="M 306.148428 378 
L 308.212935 378 
L 308.212935 227.177117 
L 306.148428 227.177117 
z
" clip-path="url(#p15ce872082)" style="fill: #a3e301; opacity: 0.5"/>
   </g>
   <g id="patch_59">
    <path d="M 308.212935 378 
L 310.277442 378 
L 310.277442 161.820534 
L 308.212935 161.820534 
z
" clip-path="url(#p15ce872082)" style="fill: #a3e301; opacity: 0.5"/>
   </g>
   <g id="patch_60">
    <path d="M 310.277442 378 
L 312.341949 378 
L 312.341949 171.875393 
L 310.277442 171.875393 
z
" clip-path="url(#p15ce872082)" style="fill: #a3e301; opacity: 0.5"/>
   </g>
   <g id="patch_61">
    <path d="M 312.341949 378 
L 314.406455 378 
L 314.406455 242.259405 
L 312.341949 242.259405 
z
" clip-path="url(#p15ce872082)" style="fill: #a3e301; opacity: 0.5"/>
   </g>
   <g id="patch_62">
    <path d="M 314.406455 378 
L 316.470962 378 
L 316.470962 257.341694 
L 314.406455 257.341694 
z
" clip-path="url(#p15ce872082)" style="fill: #a3e301; opacity: 0.5"/>
   </g>
   <g id="patch_63">
    <path d="M 316.470962 378 
L 318.535469 378 
L 318.535469 237.231976 
L 316.470962 237.231976 
z
" clip-path="url(#p15ce872082)" style="fill: #a3e301; opacity: 0.5"/>
   </g>
   <g id="patch_64">
    <path d="M 318.535469 378 
L 320.599976 378 
L 320.599976 252.314264 
L 318.535469 252.314264 
z
" clip-path="url(#p15ce872082)" style="fill: #a3e301; opacity: 0.5"/>
   </g>
   <g id="patch_65">
    <path d="M 320.599976 378 
L 322.664483 378 
L 322.664483 267.396552 
L 320.599976 267.396552 
z
" clip-path="url(#p15ce872082)" style="fill: #a3e301; opacity: 0.5"/>
   </g>
   <g id="patch_66">
    <path d="M 322.664483 378 
L 324.72899 378 
L 324.72899 252.314264 
L 322.664483 252.314264 
z
" clip-path="url(#p15ce872082)" style="fill: #a3e301; opacity: 0.5"/>
   </g>
   <g id="patch_67">
    <path d="M 324.72899 378 
L 326.793497 378 
L 326.793497 267.396552 
L 324.72899 267.396552 
z
" clip-path="url(#p15ce872082)" style="fill: #a3e301; opacity: 0.5"/>
   </g>
   <g id="patch_68">
    <path d="M 326.793497 378 
L 328.858004 378 
L 328.858004 307.615988 
L 326.793497 307.615988 
z
" clip-path="url(#p15ce872082)" style="fill: #a3e301; opacity: 0.5"/>
   </g>
   <g id="patch_69">
    <path d="M 328.858004 378 
L 330.92251 378 
L 330.92251 322.698276 
L 328.858004 322.698276 
z
" clip-path="url(#p15ce872082)" style="fill: #a3e301; opacity: 0.5"/>
   </g>
   <g id="patch_70">
    <path d="M 330.92251 378 
L 332.987017 378 
L 332.987017 317.670847 
L 330.92251 317.670847 
z
" clip-path="url(#p15ce872082)" style="fill: #a3e301; opacity: 0.5"/>
   </g>
   <g id="patch_71">
    <path d="M 332.987017 378 
L 335.051524 378 
L 335.051524 287.50627 
L 332.987017 287.50627 
z
" clip-path="url(#p15ce872082)" style="fill: #a3e301; opacity: 0.5"/>
   </g>
   <g id="patch_72">
    <path d="M 335.051524 378 
L 337.116031 378 
L 337.116031 312.643417 
L 335.051524 312.643417 
z
" clip-path="url(#p15ce872082)" style="fill: #a3e301; opacity: 0.5"/>
   </g>
   <g id="patch_73">
    <path d="M 337.116031 378 
L 339.180538 378 
L 339.180538 327.725706 
L 337.116031 327.725706 
z
" clip-path="url(#p15ce872082)" style="fill: #a3e301; opacity: 0.5"/>
   </g>
   <g id="patch_74">
    <path d="M 339.180538 378 
L 341.245045 378 
L 341.245045 347.835423 
L 339.180538 347.835423 
z
" clip-path="url(#p15ce872082)" style="fill: #a3e301; opacity: 0.5"/>
   </g>
   <g id="patch_75">
    <path d="M 341.245045 378 
L 343.309552 378 
L 343.309552 337.780565 
L 341.245045 337.780565 
z
" clip-path="url(#p15ce872082)" style="fill: #a3e301; opacity: 0.5"/>
   </g>
   <g id="patch_76">
    <path d="M 343.309552 378 
L 345.374058 378 
L 345.374058 357.890282 
L 343.309552 357.890282 
z
" clip-path="url(#p15ce872082)" style="fill: #a3e301; opacity: 0.5"/>
   </g>
   <g id="patch_77">
    <path d="M 345.374058 378 
L 347.438565 378 
L 347.438565 367.945141 
L 345.374058 367.945141 
z
" clip-path="url(#p15ce872082)" style="fill: #a3e301; opacity: 0.5"/>
   </g>
   <g id="patch_78">
    <path d="M 347.438565 378 
L 349.503072 378 
L 349.503072 362.917712 
L 347.438565 362.917712 
z
" clip-path="url(#p15ce872082)" style="fill: #a3e301; opacity: 0.5"/>
   </g>
   <g id="patch_79">
    <path d="M 349.503072 378 
L 351.567579 378 
L 351.567579 357.890282 
L 349.503072 357.890282 
z
" clip-path="url(#p15ce872082)" style="fill: #a3e301; opacity: 0.5"/>
   </g>
   <g id="patch_80">
    <path d="M 351.567579 378 
L 353.632086 378 
L 353.632086 352.862853 
L 351.567579 352.862853 
z
" clip-path="url(#p15ce872082)" style="fill: #a3e301; opacity: 0.5"/>
   </g>
   <g id="patch_81">
    <path d="M 353.632086 378 
L 355.696593 378 
L 355.696593 347.835423 
L 353.632086 347.835423 
z
" clip-path="url(#p15ce872082)" style="fill: #a3e301; opacity: 0.5"/>
   </g>
   <g id="patch_82">
    <path d="M 355.696593 378 
L 357.7611 378 
L 357.7611 372.972571 
L 355.696593 372.972571 
z
" clip-path="url(#p15ce872082)" style="fill: #a3e301; opacity: 0.5"/>
   </g>
   <g id="patch_83">
    <path d="M 357.7611 378 
L 359.825607 378 
L 359.825607 372.972571 
L 357.7611 372.972571 
z
" clip-path="url(#p15ce872082)" style="fill: #a3e301; opacity: 0.5"/>
   </g>
   <g id="patch_84">
    <path d="M 359.825607 378 
L 361.890113 378 
L 361.890113 362.917712 
L 359.825607 362.917712 
z
" clip-path="url(#p15ce872082)" style="fill: #a3e301; opacity: 0.5"/>
   </g>
   <g id="patch_85">
    <path d="M 361.890113 378 
L 363.95462 378 
L 363.95462 367.945141 
L 361.890113 367.945141 
z
" clip-path="url(#p15ce872082)" style="fill: #a3e301; opacity: 0.5"/>
   </g>
   <g id="patch_86">
    <path d="M 363.95462 378 
L 366.019127 378 
L 366.019127 367.945141 
L 363.95462 367.945141 
z
" clip-path="url(#p15ce872082)" style="fill: #a3e301; opacity: 0.5"/>
   </g>
   <g id="patch_87">
    <path d="M 366.019127 378 
L 368.083634 378 
L 368.083634 357.890282 
L 366.019127 357.890282 
z
" clip-path="url(#p15ce872082)" style="fill: #a3e301; opacity: 0.5"/>
   </g>
   <g id="patch_88">
    <path d="M 368.083634 378 
L 370.148141 378 
L 370.148141 372.972571 
L 368.083634 372.972571 
z
" clip-path="url(#p15ce872082)" style="fill: #a3e301; opacity: 0.5"/>
   </g>
   <g id="patch_89">
    <path d="M 370.148141 378 
L 372.212648 378 
L 372.212648 357.890282 
L 370.148141 357.890282 
z
" clip-path="url(#p15ce872082)" style="fill: #a3e301; opacity: 0.5"/>
   </g>
   <g id="patch_90">
    <path d="M 372.212648 378 
L 374.277155 378 
L 374.277155 362.917712 
L 372.212648 362.917712 
z
" clip-path="url(#p15ce872082)" style="fill: #a3e301; opacity: 0.5"/>
   </g>
   <g id="patch_91">
    <path d="M 374.277155 378 
L 376.341661 378 
L 376.341661 378 
L 374.277155 378 
z
" clip-path="url(#p15ce872082)" style="fill: #a3e301; opacity: 0.5"/>
   </g>
   <g id="patch_92">
    <path d="M 376.341661 378 
L 378.406168 378 
L 378.406168 367.945141 
L 376.341661 367.945141 
z
" clip-path="url(#p15ce872082)" style="fill: #a3e301; opacity: 0.5"/>
   </g>
   <g id="patch_93">
    <path d="M 378.406168 378 
L 380.470675 378 
L 380.470675 372.972571 
L 378.406168 372.972571 
z
" clip-path="url(#p15ce872082)" style="fill: #a3e301; opacity: 0.5"/>
   </g>
   <g id="patch_94">
    <path d="M 380.470675 378 
L 382.535182 378 
L 382.535182 367.945141 
L 380.470675 367.945141 
z
" clip-path="url(#p15ce872082)" style="fill: #a3e301; opacity: 0.5"/>
   </g>
   <g id="patch_95">
    <path d="M 382.535182 378 
L 384.599689 378 
L 384.599689 378 
L 382.535182 378 
z
" clip-path="url(#p15ce872082)" style="fill: #a3e301; opacity: 0.5"/>
   </g>
   <g id="patch_96">
    <path d="M 384.599689 378 
L 386.664196 378 
L 386.664196 378 
L 384.599689 378 
z
" clip-path="url(#p15ce872082)" style="fill: #a3e301; opacity: 0.5"/>
   </g>
   <g id="patch_97">
    <path d="M 386.664196 378 
L 388.728703 378 
L 388.728703 378 
L 386.664196 378 
z
" clip-path="url(#p15ce872082)" style="fill: #a3e301; opacity: 0.5"/>
   </g>
   <g id="patch_98">
    <path d="M 388.728703 378 
L 390.79321 378 
L 390.79321 378 
L 388.728703 378 
z
" clip-path="url(#p15ce872082)" style="fill: #a3e301; opacity: 0.5"/>
   </g>
   <g id="patch_99">
    <path d="M 390.79321 378 
L 392.857716 378 
L 392.857716 378 
L 390.79321 378 
z
" clip-path="url(#p15ce872082)" style="fill: #a3e301; opacity: 0.5"/>
   </g>
   <g id="patch_100">
    <path d="M 392.857716 378 
L 394.922223 378 
L 394.922223 378 
L 392.857716 378 
z
" clip-path="url(#p15ce872082)" style="fill: #a3e301; opacity: 0.5"/>
   </g>
   <g id="patch_101">
    <path d="M 394.922223 378 
L 396.98673 378 
L 396.98673 372.972571 
L 394.922223 372.972571 
z
" clip-path="url(#p15ce872082)" style="fill: #a3e301; opacity: 0.5"/>
   </g>
   <g id="patch_102">
    <path d="M 396.98673 378 
L 399.051237 378 
L 399.051237 372.972571 
L 396.98673 372.972571 
z
" clip-path="url(#p15ce872082)" style="fill: #a3e301; opacity: 0.5"/>
   </g>
   <g id="patch_103">
    <path d="M 204.119111 378 
L 206.055691 378 
L 206.055691 372.644335 
L 204.119111 372.644335 
z
" clip-path="url(#p15ce872082)" style="fill: #24b4b1; opacity: 0.5"/>
   </g>
   <g id="patch_104">
    <path d="M 206.055691 378 
L 207.992271 378 
L 207.992271 378 
L 206.055691 378 
z
" clip-path="url(#p15ce872082)" style="fill: #24b4b1; opacity: 0.5"/>
   </g>
   <g id="patch_105">
    <path d="M 207.992271 378 
L 209.928851 378 
L 209.928851 378 
L 207.992271 378 
z
" clip-path="url(#p15ce872082)" style="fill: #24b4b1; opacity: 0.5"/>
   </g>
   <g id="patch_106">
    <path d="M 209.928851 378 
L 211.865431 378 
L 211.865431 367.28867 
L 209.928851 367.28867 
z
" clip-path="url(#p15ce872082)" style="fill: #24b4b1; opacity: 0.5"/>
   </g>
   <g id="patch_107">
    <path d="M 211.865431 378 
L 213.802011 378 
L 213.802011 372.644335 
L 211.865431 372.644335 
z
" clip-path="url(#p15ce872082)" style="fill: #24b4b1; opacity: 0.5"/>
   </g>
   <g id="patch_108">
    <path d="M 213.802011 378 
L 215.738591 378 
L 215.738591 378 
L 213.802011 378 
z
" clip-path="url(#p15ce872082)" style="fill: #24b4b1; opacity: 0.5"/>
   </g>
   <g id="patch_109">
    <path d="M 215.738591 378 
L 217.675171 378 
L 217.675171 378 
L 215.738591 378 
z
" clip-path="url(#p15ce872082)" style="fill: #24b4b1; opacity: 0.5"/>
   </g>
   <g id="patch_110">
    <path d="M 217.675171 378 
L 219.611751 378 
L 219.611751 378 
L 217.675171 378 
z
" clip-path="url(#p15ce872082)" style="fill: #24b4b1; opacity: 0.5"/>
   </g>
   <g id="patch_111">
    <path d="M 219.611751 378 
L 221.548331 378 
L 221.548331 378 
L 219.611751 378 
z
" clip-path="url(#p15ce872082)" style="fill: #24b4b1; opacity: 0.5"/>
   </g>
   <g id="patch_112">
    <path d="M 221.548331 378 
L 223.484911 378 
L 223.484911 372.644335 
L 221.548331 372.644335 
z
" clip-path="url(#p15ce872082)" style="fill: #24b4b1; opacity: 0.5"/>
   </g>
   <g id="patch_113">
    <path d="M 223.484911 378 
L 225.421491 378 
L 225.421491 378 
L 223.484911 378 
z
" clip-path="url(#p15ce872082)" style="fill: #24b4b1; opacity: 0.5"/>
   </g>
   <g id="patch_114">
    <path d="M 225.421491 378 
L 227.358071 378 
L 227.358071 372.644335 
L 225.421491 372.644335 
z
" clip-path="url(#p15ce872082)" style="fill: #24b4b1; opacity: 0.5"/>
   </g>
   <g id="patch_115">
    <path d="M 227.358071 378 
L 229.294651 378 
L 229.294651 378 
L 227.358071 378 
z
" clip-path="url(#p15ce872082)" style="fill: #24b4b1; opacity: 0.5"/>
   </g>
   <g id="patch_116">
    <path d="M 229.294651 378 
L 231.231231 378 
L 231.231231 367.28867 
L 229.294651 367.28867 
z
" clip-path="url(#p15ce872082)" style="fill: #24b4b1; opacity: 0.5"/>
   </g>
   <g id="patch_117">
    <path d="M 231.231231 378 
L 233.167811 378 
L 233.167811 361.933005 
L 231.231231 361.933005 
z
" clip-path="url(#p15ce872082)" style="fill: #24b4b1; opacity: 0.5"/>
   </g>
   <g id="patch_118">
    <path d="M 233.167811 378 
L 235.104391 378 
L 235.104391 367.28867 
L 233.167811 367.28867 
z
" clip-path="url(#p15ce872082)" style="fill: #24b4b1; opacity: 0.5"/>
   </g>
   <g id="patch_119">
    <path d="M 235.104391 378 
L 237.040971 378 
L 237.040971 351.221675 
L 235.104391 351.221675 
z
" clip-path="url(#p15ce872082)" style="fill: #24b4b1; opacity: 0.5"/>
   </g>
   <g id="patch_120">
    <path d="M 237.040971 378 
L 238.977551 378 
L 238.977551 356.57734 
L 237.040971 356.57734 
z
" clip-path="url(#p15ce872082)" style="fill: #24b4b1; opacity: 0.5"/>
   </g>
   <g id="patch_121">
    <path d="M 238.977551 378 
L 240.914131 378 
L 240.914131 372.644335 
L 238.977551 372.644335 
z
" clip-path="url(#p15ce872082)" style="fill: #24b4b1; opacity: 0.5"/>
   </g>
   <g id="patch_122">
    <path d="M 240.914131 378 
L 242.850711 378 
L 242.850711 361.933005 
L 240.914131 361.933005 
z
" clip-path="url(#p15ce872082)" style="fill: #24b4b1; opacity: 0.5"/>
   </g>
   <g id="patch_123">
    <path d="M 242.850711 378 
L 244.787291 378 
L 244.787291 356.57734 
L 242.850711 356.57734 
z
" clip-path="url(#p15ce872082)" style="fill: #24b4b1; opacity: 0.5"/>
   </g>
   <g id="patch_124">
    <path d="M 244.787291 378 
L 246.723872 378 
L 246.723872 340.510345 
L 244.787291 340.510345 
z
" clip-path="url(#p15ce872082)" style="fill: #24b4b1; opacity: 0.5"/>
   </g>
   <g id="patch_125">
    <path d="M 246.723872 378 
L 248.660452 378 
L 248.660452 356.57734 
L 246.723872 356.57734 
z
" clip-path="url(#p15ce872082)" style="fill: #24b4b1; opacity: 0.5"/>
   </g>
   <g id="patch_126">
    <path d="M 248.660452 378 
L 250.597032 378 
L 250.597032 351.221675 
L 248.660452 351.221675 
z
" clip-path="url(#p15ce872082)" style="fill: #24b4b1; opacity: 0.5"/>
   </g>
   <g id="patch_127">
    <path d="M 250.597032 378 
L 252.533612 378 
L 252.533612 356.57734 
L 250.597032 356.57734 
z
" clip-path="url(#p15ce872082)" style="fill: #24b4b1; opacity: 0.5"/>
   </g>
   <g id="patch_128">
    <path d="M 252.533612 378 
L 254.470192 378 
L 254.470192 329.799015 
L 252.533612 329.799015 
z
" clip-path="url(#p15ce872082)" style="fill: #24b4b1; opacity: 0.5"/>
   </g>
   <g id="patch_129">
    <path d="M 254.470192 378 
L 256.406772 378 
L 256.406772 313.73202 
L 254.470192 313.73202 
z
" clip-path="url(#p15ce872082)" style="fill: #24b4b1; opacity: 0.5"/>
   </g>
   <g id="patch_130">
    <path d="M 256.406772 378 
L 258.343352 378 
L 258.343352 324.44335 
L 256.406772 324.44335 
z
" clip-path="url(#p15ce872082)" style="fill: #24b4b1; opacity: 0.5"/>
   </g>
   <g id="patch_131">
    <path d="M 258.343352 378 
L 260.279932 378 
L 260.279932 324.44335 
L 258.343352 324.44335 
z
" clip-path="url(#p15ce872082)" style="fill: #24b4b1; opacity: 0.5"/>
   </g>
   <g id="patch_132">
    <path d="M 260.279932 378 
L 262.216512 378 
L 262.216512 297.665025 
L 260.279932 297.665025 
z
" clip-path="url(#p15ce872082)" style="fill: #24b4b1; opacity: 0.5"/>
   </g>
   <g id="patch_133">
    <path d="M 262.216512 378 
L 264.153092 378 
L 264.153092 313.73202 
L 262.216512 313.73202 
z
" clip-path="url(#p15ce872082)" style="fill: #24b4b1; opacity: 0.5"/>
   </g>
   <g id="patch_134">
    <path d="M 264.153092 378 
L 266.089672 378 
L 266.089672 254.819704 
L 264.153092 254.819704 
z
" clip-path="url(#p15ce872082)" style="fill: #24b4b1; opacity: 0.5"/>
   </g>
   <g id="patch_135">
    <path d="M 266.089672 378 
L 268.026252 378 
L 268.026252 249.464039 
L 266.089672 249.464039 
z
" clip-path="url(#p15ce872082)" style="fill: #24b4b1; opacity: 0.5"/>
   </g>
   <g id="patch_136">
    <path d="M 268.026252 378 
L 269.962832 378 
L 269.962832 260.175369 
L 268.026252 260.175369 
z
" clip-path="url(#p15ce872082)" style="fill: #24b4b1; opacity: 0.5"/>
   </g>
   <g id="patch_137">
    <path d="M 269.962832 378 
L 271.899412 378 
L 271.899412 228.041379 
L 269.962832 228.041379 
z
" clip-path="url(#p15ce872082)" style="fill: #24b4b1; opacity: 0.5"/>
   </g>
   <g id="patch_138">
    <path d="M 271.899412 378 
L 273.835992 378 
L 273.835992 265.531034 
L 271.899412 265.531034 
z
" clip-path="url(#p15ce872082)" style="fill: #24b4b1; opacity: 0.5"/>
   </g>
   <g id="patch_139">
    <path d="M 273.835992 378 
L 275.772572 378 
L 275.772572 217.330049 
L 273.835992 217.330049 
z
" clip-path="url(#p15ce872082)" style="fill: #24b4b1; opacity: 0.5"/>
   </g>
   <g id="patch_140">
    <path d="M 275.772572 378 
L 277.709152 378 
L 277.709152 190.551724 
L 275.772572 190.551724 
z
" clip-path="url(#p15ce872082)" style="fill: #24b4b1; opacity: 0.5"/>
   </g>
   <g id="patch_141">
    <path d="M 277.709152 378 
L 279.645732 378 
L 279.645732 174.484729 
L 277.709152 174.484729 
z
" clip-path="url(#p15ce872082)" style="fill: #24b4b1; opacity: 0.5"/>
   </g>
   <g id="patch_142">
    <path d="M 279.645732 378 
L 281.582312 378 
L 281.582312 190.551724 
L 279.645732 190.551724 
z
" clip-path="url(#p15ce872082)" style="fill: #24b4b1; opacity: 0.5"/>
   </g>
   <g id="patch_143">
    <path d="M 281.582312 378 
L 283.518892 378 
L 283.518892 190.551724 
L 281.582312 190.551724 
z
" clip-path="url(#p15ce872082)" style="fill: #24b4b1; opacity: 0.5"/>
   </g>
   <g id="patch_144">
    <path d="M 283.518892 378 
L 285.455472 378 
L 285.455472 179.840394 
L 283.518892 179.840394 
z
" clip-path="url(#p15ce872082)" style="fill: #24b4b1; opacity: 0.5"/>
   </g>
   <g id="patch_145">
    <path d="M 285.455472 378 
L 287.392052 378 
L 287.392052 120.928079 
L 285.455472 120.928079 
z
" clip-path="url(#p15ce872082)" style="fill: #24b4b1; opacity: 0.5"/>
   </g>
   <g id="patch_146">
    <path d="M 287.392052 378 
L 289.328633 378 
L 289.328633 115.572414 
L 287.392052 115.572414 
z
" clip-path="url(#p15ce872082)" style="fill: #24b4b1; opacity: 0.5"/>
   </g>
   <g id="patch_147">
    <path d="M 289.328633 378 
L 291.265213 378 
L 291.265213 67.371429 
L 289.328633 67.371429 
z
" clip-path="url(#p15ce872082)" style="fill: #24b4b1; opacity: 0.5"/>
   </g>
   <g id="patch_148">
    <path d="M 291.265213 378 
L 293.201793 378 
L 293.201793 110.216749 
L 291.265213 110.216749 
z
" clip-path="url(#p15ce872082)" style="fill: #24b4b1; opacity: 0.5"/>
   </g>
   <g id="patch_149">
    <path d="M 293.201793 378 
L 295.138373 378 
L 295.138373 99.505419 
L 293.201793 99.505419 
z
" clip-path="url(#p15ce872082)" style="fill: #24b4b1; opacity: 0.5"/>
   </g>
   <g id="patch_150">
    <path d="M 295.138373 378 
L 297.074953 378 
L 297.074953 153.062069 
L 295.138373 153.062069 
z
" clip-path="url(#p15ce872082)" style="fill: #24b4b1; opacity: 0.5"/>
   </g>
   <g id="patch_151">
    <path d="M 297.074953 378 
L 299.011533 378 
L 299.011533 147.706404 
L 297.074953 147.706404 
z
" clip-path="url(#p15ce872082)" style="fill: #24b4b1; opacity: 0.5"/>
   </g>
   <g id="patch_152">
    <path d="M 299.011533 378 
L 300.948113 378 
L 300.948113 126.283744 
L 299.011533 126.283744 
z
" clip-path="url(#p15ce872082)" style="fill: #24b4b1; opacity: 0.5"/>
   </g>
   <g id="patch_153">
    <path d="M 300.948113 378 
L 302.884693 378 
L 302.884693 72.727094 
L 300.948113 72.727094 
z
" clip-path="url(#p15ce872082)" style="fill: #24b4b1; opacity: 0.5"/>
   </g>
   <g id="patch_154">
    <path d="M 302.884693 378 
L 304.821273 378 
L 304.821273 120.928079 
L 302.884693 120.928079 
z
" clip-path="url(#p15ce872082)" style="fill: #24b4b1; opacity: 0.5"/>
   </g>
   <g id="patch_155">
    <path d="M 304.821273 378 
L 306.757853 378 
L 306.757853 131.639409 
L 304.821273 131.639409 
z
" clip-path="url(#p15ce872082)" style="fill: #24b4b1; opacity: 0.5"/>
   </g>
   <g id="patch_156">
    <path d="M 306.757853 378 
L 308.694433 378 
L 308.694433 115.572414 
L 306.757853 115.572414 
z
" clip-path="url(#p15ce872082)" style="fill: #24b4b1; opacity: 0.5"/>
   </g>
   <g id="patch_157">
    <path d="M 308.694433 378 
L 310.631013 378 
L 310.631013 201.263054 
L 308.694433 201.263054 
z
" clip-path="url(#p15ce872082)" style="fill: #24b4b1; opacity: 0.5"/>
   </g>
   <g id="patch_158">
    <path d="M 310.631013 378 
L 312.567593 378 
L 312.567593 206.618719 
L 310.631013 206.618719 
z
" clip-path="url(#p15ce872082)" style="fill: #24b4b1; opacity: 0.5"/>
   </g>
   <g id="patch_159">
    <path d="M 312.567593 378 
L 314.504173 378 
L 314.504173 211.974384 
L 312.567593 211.974384 
z
" clip-path="url(#p15ce872082)" style="fill: #24b4b1; opacity: 0.5"/>
   </g>
   <g id="patch_160">
    <path d="M 314.504173 378 
L 316.440753 378 
L 316.440753 228.041379 
L 314.504173 228.041379 
z
" clip-path="url(#p15ce872082)" style="fill: #24b4b1; opacity: 0.5"/>
   </g>
   <g id="patch_161">
    <path d="M 316.440753 378 
L 318.377333 378 
L 318.377333 238.752709 
L 316.440753 238.752709 
z
" clip-path="url(#p15ce872082)" style="fill: #24b4b1; opacity: 0.5"/>
   </g>
   <g id="patch_162">
    <path d="M 318.377333 378 
L 320.313913 378 
L 320.313913 249.464039 
L 318.377333 249.464039 
z
" clip-path="url(#p15ce872082)" style="fill: #24b4b1; opacity: 0.5"/>
   </g>
   <g id="patch_163">
    <path d="M 320.313913 378 
L 322.250493 378 
L 322.250493 249.464039 
L 320.313913 249.464039 
z
" clip-path="url(#p15ce872082)" style="fill: #24b4b1; opacity: 0.5"/>
   </g>
   <g id="patch_164">
    <path d="M 322.250493 378 
L 324.187073 378 
L 324.187073 324.44335 
L 322.250493 324.44335 
z
" clip-path="url(#p15ce872082)" style="fill: #24b4b1; opacity: 0.5"/>
   </g>
   <g id="patch_165">
    <path d="M 324.187073 378 
L 326.123653 378 
L 326.123653 270.8867 
L 324.187073 270.8867 
z
" clip-path="url(#p15ce872082)" style="fill: #24b4b1; opacity: 0.5"/>
   </g>
   <g id="patch_166">
    <path d="M 326.123653 378 
L 328.060233 378 
L 328.060233 303.02069 
L 326.123653 303.02069 
z
" clip-path="url(#p15ce872082)" style="fill: #24b4b1; opacity: 0.5"/>
   </g>
   <g id="patch_167">
    <path d="M 328.060233 378 
L 329.996813 378 
L 329.996813 324.44335 
L 328.060233 324.44335 
z
" clip-path="url(#p15ce872082)" style="fill: #24b4b1; opacity: 0.5"/>
   </g>
   <g id="patch_168">
    <path d="M 329.996813 378 
L 331.933394 378 
L 331.933394 292.30936 
L 329.996813 292.30936 
z
" clip-path="url(#p15ce872082)" style="fill: #24b4b1; opacity: 0.5"/>
   </g>
   <g id="patch_169">
    <path d="M 331.933394 378 
L 333.869974 378 
L 333.869974 335.15468 
L 331.933394 335.15468 
z
" clip-path="url(#p15ce872082)" style="fill: #24b4b1; opacity: 0.5"/>
   </g>
   <g id="patch_170">
    <path d="M 333.869974 378 
L 335.806554 378 
L 335.806554 335.15468 
L 333.869974 335.15468 
z
" clip-path="url(#p15ce872082)" style="fill: #24b4b1; opacity: 0.5"/>
   </g>
   <g id="patch_171">
    <path d="M 335.806554 378 
L 337.743134 378 
L 337.743134 345.86601 
L 335.806554 345.86601 
z
" clip-path="url(#p15ce872082)" style="fill: #24b4b1; opacity: 0.5"/>
   </g>
   <g id="patch_172">
    <path d="M 337.743134 378 
L 339.679714 378 
L 339.679714 329.799015 
L 337.743134 329.799015 
z
" clip-path="url(#p15ce872082)" style="fill: #24b4b1; opacity: 0.5"/>
   </g>
   <g id="patch_173">
    <path d="M 339.679714 378 
L 341.616294 378 
L 341.616294 335.15468 
L 339.679714 335.15468 
z
" clip-path="url(#p15ce872082)" style="fill: #24b4b1; opacity: 0.5"/>
   </g>
   <g id="patch_174">
    <path d="M 341.616294 378 
L 343.552874 378 
L 343.552874 351.221675 
L 341.616294 351.221675 
z
" clip-path="url(#p15ce872082)" style="fill: #24b4b1; opacity: 0.5"/>
   </g>
   <g id="patch_175">
    <path d="M 343.552874 378 
L 345.489454 378 
L 345.489454 361.933005 
L 343.552874 361.933005 
z
" clip-path="url(#p15ce872082)" style="fill: #24b4b1; opacity: 0.5"/>
   </g>
   <g id="patch_176">
    <path d="M 345.489454 378 
L 347.426034 378 
L 347.426034 367.28867 
L 345.489454 367.28867 
z
" clip-path="url(#p15ce872082)" style="fill: #24b4b1; opacity: 0.5"/>
   </g>
   <g id="patch_177">
    <path d="M 347.426034 378 
L 349.362614 378 
L 349.362614 361.933005 
L 347.426034 361.933005 
z
" clip-path="url(#p15ce872082)" style="fill: #24b4b1; opacity: 0.5"/>
   </g>
   <g id="patch_178">
    <path d="M 349.362614 378 
L 351.299194 378 
L 351.299194 361.933005 
L 349.362614 361.933005 
z
" clip-path="url(#p15ce872082)" style="fill: #24b4b1; opacity: 0.5"/>
   </g>
   <g id="patch_179">
    <path d="M 351.299194 378 
L 353.235774 378 
L 353.235774 367.28867 
L 351.299194 367.28867 
z
" clip-path="url(#p15ce872082)" style="fill: #24b4b1; opacity: 0.5"/>
   </g>
   <g id="patch_180">
    <path d="M 353.235774 378 
L 355.172354 378 
L 355.172354 361.933005 
L 353.235774 361.933005 
z
" clip-path="url(#p15ce872082)" style="fill: #24b4b1; opacity: 0.5"/>
   </g>
   <g id="patch_181">
    <path d="M 355.172354 378 
L 357.108934 378 
L 357.108934 367.28867 
L 355.172354 367.28867 
z
" clip-path="url(#p15ce872082)" style="fill: #24b4b1; opacity: 0.5"/>
   </g>
   <g id="patch_182">
    <path d="M 357.108934 378 
L 359.045514 378 
L 359.045514 361.933005 
L 357.108934 361.933005 
z
" clip-path="url(#p15ce872082)" style="fill: #24b4b1; opacity: 0.5"/>
   </g>
   <g id="patch_183">
    <path d="M 359.045514 378 
L 360.982094 378 
L 360.982094 361.933005 
L 359.045514 361.933005 
z
" clip-path="url(#p15ce872082)" style="fill: #24b4b1; opacity: 0.5"/>
   </g>
   <g id="patch_184">
    <path d="M 360.982094 378 
L 362.918674 378 
L 362.918674 367.28867 
L 360.982094 367.28867 
z
" clip-path="url(#p15ce872082)" style="fill: #24b4b1; opacity: 0.5"/>
   </g>
   <g id="patch_185">
    <path d="M 362.918674 378 
L 364.855254 378 
L 364.855254 356.57734 
L 362.918674 356.57734 
z
" clip-path="url(#p15ce872082)" style="fill: #24b4b1; opacity: 0.5"/>
   </g>
   <g id="patch_186">
    <path d="M 364.855254 378 
L 366.791834 378 
L 366.791834 361.933005 
L 364.855254 361.933005 
z
" clip-path="url(#p15ce872082)" style="fill: #24b4b1; opacity: 0.5"/>
   </g>
   <g id="patch_187">
    <path d="M 366.791834 378 
L 368.728414 378 
L 368.728414 372.644335 
L 366.791834 372.644335 
z
" clip-path="url(#p15ce872082)" style="fill: #24b4b1; opacity: 0.5"/>
   </g>
   <g id="patch_188">
    <path d="M 368.728414 378 
L 370.664994 378 
L 370.664994 378 
L 368.728414 378 
z
" clip-path="url(#p15ce872082)" style="fill: #24b4b1; opacity: 0.5"/>
   </g>
   <g id="patch_189">
    <path d="M 370.664994 378 
L 372.601575 378 
L 372.601575 367.28867 
L 370.664994 367.28867 
z
" clip-path="url(#p15ce872082)" style="fill: #24b4b1; opacity: 0.5"/>
   </g>
   <g id="patch_190">
    <path d="M 372.601575 378 
L 374.538155 378 
L 374.538155 372.644335 
L 372.601575 372.644335 
z
" clip-path="url(#p15ce872082)" style="fill: #24b4b1; opacity: 0.5"/>
   </g>
   <g id="patch_191">
    <path d="M 374.538155 378 
L 376.474735 378 
L 376.474735 378 
L 374.538155 378 
z
" clip-path="url(#p15ce872082)" style="fill: #24b4b1; opacity: 0.5"/>
   </g>
   <g id="patch_192">
    <path d="M 376.474735 378 
L 378.411315 378 
L 378.411315 378 
L 376.474735 378 
z
" clip-path="url(#p15ce872082)" style="fill: #24b4b1; opacity: 0.5"/>
   </g>
   <g id="patch_193">
    <path d="M 378.411315 378 
L 380.347895 378 
L 380.347895 378 
L 378.411315 378 
z
" clip-path="url(#p15ce872082)" style="fill: #24b4b1; opacity: 0.5"/>
   </g>
   <g id="patch_194">
    <path d="M 380.347895 378 
L 382.284475 378 
L 382.284475 378 
L 380.347895 378 
z
" clip-path="url(#p15ce872082)" style="fill: #24b4b1; opacity: 0.5"/>
   </g>
   <g id="patch_195">
    <path d="M 382.284475 378 
L 384.221055 378 
L 384.221055 372.644335 
L 382.284475 372.644335 
z
" clip-path="url(#p15ce872082)" style="fill: #24b4b1; opacity: 0.5"/>
   </g>
   <g id="patch_196">
    <path d="M 384.221055 378 
L 386.157635 378 
L 386.157635 378 
L 384.221055 378 
z
" clip-path="url(#p15ce872082)" style="fill: #24b4b1; opacity: 0.5"/>
   </g>
   <g id="patch_197">
    <path d="M 386.157635 378 
L 388.094215 378 
L 388.094215 378 
L 386.157635 378 
z
" clip-path="url(#p15ce872082)" style="fill: #24b4b1; opacity: 0.5"/>
   </g>
   <g id="patch_198">
    <path d="M 388.094215 378 
L 390.030795 378 
L 390.030795 378 
L 388.094215 378 
z
" clip-path="url(#p15ce872082)" style="fill: #24b4b1; opacity: 0.5"/>
   </g>
   <g id="patch_199">
    <path d="M 390.030795 378 
L 391.967375 378 
L 391.967375 378 
L 390.030795 378 
z
" clip-path="url(#p15ce872082)" style="fill: #24b4b1; opacity: 0.5"/>
   </g>
   <g id="patch_200">
    <path d="M 391.967375 378 
L 393.903955 378 
L 393.903955 378 
L 391.967375 378 
z
" clip-path="url(#p15ce872082)" style="fill: #24b4b1; opacity: 0.5"/>
   </g>
   <g id="patch_201">
    <path d="M 393.903955 378 
L 395.840535 378 
L 395.840535 378 
L 393.903955 378 
z
" clip-path="url(#p15ce872082)" style="fill: #24b4b1; opacity: 0.5"/>
   </g>
   <g id="patch_202">
    <path d="M 395.840535 378 
L 397.777115 378 
L 397.777115 372.644335 
L 395.840535 372.644335 
z
" clip-path="url(#p15ce872082)" style="fill: #24b4b1; opacity: 0.5"/>
   </g>
   <g id="matplotlib.axis_1">
    <g id="xtick_1">
     <g id="line2d_1">
      <defs>
       <path id="mff53e092d8" d="M 0 0 
L 0 3.5 
" style="stroke: #000000; stroke-width: 0.8"/>
      </defs>
      <g>
       <use xlink:href="#mff53e092d8" x="72" y="378" style="stroke: #000000; stroke-width: 0.8"/>
      </g>
     </g>
     <g id="text_1">
      <!-- 0.00 -->
      <g transform="translate(60.867188 392.598437)scale(0.1 -0.1)">
       <defs>
        <path id="DejaVuSans-30" d="M 2034 4250 
Q 1547 4250 1301 3770 
Q 1056 3291 1056 2328 
Q 1056 1369 1301 889 
Q 1547 409 2034 409 
Q 2525 409 2770 889 
Q 3016 1369 3016 2328 
Q 3016 3291 2770 3770 
Q 2525 4250 2034 4250 
z
M 2034 4750 
Q 2819 4750 3233 4129 
Q 3647 3509 3647 2328 
Q 3647 1150 3233 529 
Q 2819 -91 2034 -91 
Q 1250 -91 836 529 
Q 422 1150 422 2328 
Q 422 3509 836 4129 
Q 1250 4750 2034 4750 
z
" transform="scale(0.015625)"/>
        <path id="DejaVuSans-2e" d="M 684 794 
L 1344 794 
L 1344 0 
L 684 0 
L 684 794 
z
" transform="scale(0.015625)"/>
       </defs>
       <use xlink:href="#DejaVuSans-30"/>
       <use xlink:href="#DejaVuSans-2e" x="63.623047"/>
       <use xlink:href="#DejaVuSans-30" x="95.410156"/>
       <use xlink:href="#DejaVuSans-30" x="159.033203"/>
      </g>
     </g>
    </g>
    <g id="xtick_2">
     <g id="line2d_2">
      <g>
       <use xlink:href="#mff53e092d8" x="183.6" y="378" style="stroke: #000000; stroke-width: 0.8"/>
      </g>
     </g>
     <g id="text_2">
      <!-- 0.25 -->
      <g transform="translate(172.467187 392.598437)scale(0.1 -0.1)">
       <defs>
        <path id="DejaVuSans-32" d="M 1228 531 
L 3431 531 
L 3431 0 
L 469 0 
L 469 531 
Q 828 903 1448 1529 
Q 2069 2156 2228 2338 
Q 2531 2678 2651 2914 
Q 2772 3150 2772 3378 
Q 2772 3750 2511 3984 
Q 2250 4219 1831 4219 
Q 1534 4219 1204 4116 
Q 875 4013 500 3803 
L 500 4441 
Q 881 4594 1212 4672 
Q 1544 4750 1819 4750 
Q 2544 4750 2975 4387 
Q 3406 4025 3406 3419 
Q 3406 3131 3298 2873 
Q 3191 2616 2906 2266 
Q 2828 2175 2409 1742 
Q 1991 1309 1228 531 
z
" transform="scale(0.015625)"/>
        <path id="DejaVuSans-35" d="M 691 4666 
L 3169 4666 
L 3169 4134 
L 1269 4134 
L 1269 2991 
Q 1406 3038 1543 3061 
Q 1681 3084 1819 3084 
Q 2600 3084 3056 2656 
Q 3513 2228 3513 1497 
Q 3513 744 3044 326 
Q 2575 -91 1722 -91 
Q 1428 -91 1123 -41 
Q 819 9 494 109 
L 494 744 
Q 775 591 1075 516 
Q 1375 441 1709 441 
Q 2250 441 2565 725 
Q 2881 1009 2881 1497 
Q 2881 1984 2565 2268 
Q 2250 2553 1709 2553 
Q 1456 2553 1204 2497 
Q 953 2441 691 2322 
L 691 4666 
z
" transform="scale(0.015625)"/>
       </defs>
       <use xlink:href="#DejaVuSans-30"/>
       <use xlink:href="#DejaVuSans-2e" x="63.623047"/>
       <use xlink:href="#DejaVuSans-32" x="95.410156"/>
       <use xlink:href="#DejaVuSans-35" x="159.033203"/>
      </g>
     </g>
    </g>
    <g id="xtick_3">
     <g id="line2d_3">
      <g>
       <use xlink:href="#mff53e092d8" x="295.2" y="378" style="stroke: #000000; stroke-width: 0.8"/>
      </g>
     </g>
     <g id="text_3">
      <!-- 0.50 -->
      <g transform="translate(284.067187 392.598437)scale(0.1 -0.1)">
       <use xlink:href="#DejaVuSans-30"/>
       <use xlink:href="#DejaVuSans-2e" x="63.623047"/>
       <use xlink:href="#DejaVuSans-35" x="95.410156"/>
       <use xlink:href="#DejaVuSans-30" x="159.033203"/>
      </g>
     </g>
    </g>
    <g id="xtick_4">
     <g id="line2d_4">
      <g>
       <use xlink:href="#mff53e092d8" x="406.8" y="378" style="stroke: #000000; stroke-width: 0.8"/>
      </g>
     </g>
     <g id="text_4">
      <!-- 0.75 -->
      <g transform="translate(395.667187 392.598437)scale(0.1 -0.1)">
       <defs>
        <path id="DejaVuSans-37" d="M 525 4666 
L 3525 4666 
L 3525 4397 
L 1831 0 
L 1172 0 
L 2766 4134 
L 525 4134 
L 525 4666 
z
" transform="scale(0.015625)"/>
       </defs>
       <use xlink:href="#DejaVuSans-30"/>
       <use xlink:href="#DejaVuSans-2e" x="63.623047"/>
       <use xlink:href="#DejaVuSans-37" x="95.410156"/>
       <use xlink:href="#DejaVuSans-35" x="159.033203"/>
      </g>
     </g>
    </g>
    <g id="xtick_5">
     <g id="line2d_5">
      <g>
       <use xlink:href="#mff53e092d8" x="518.4" y="378" style="stroke: #000000; stroke-width: 0.8"/>
      </g>
     </g>
     <g id="text_5">
      <!-- 1.00 -->
      <g transform="translate(507.267187 392.598437)scale(0.1 -0.1)">
       <defs>
        <path id="DejaVuSans-31" d="M 794 531 
L 1825 531 
L 1825 4091 
L 703 3866 
L 703 4441 
L 1819 4666 
L 2450 4666 
L 2450 531 
L 3481 531 
L 3481 0 
L 794 0 
L 794 531 
z
" transform="scale(0.015625)"/>
       </defs>
       <use xlink:href="#DejaVuSans-31"/>
       <use xlink:href="#DejaVuSans-2e" x="63.623047"/>
       <use xlink:href="#DejaVuSans-30" x="95.410156"/>
       <use xlink:href="#DejaVuSans-30" x="159.033203"/>
      </g>
     </g>
    </g>
   </g>
   <g id="matplotlib.axis_2">
    <g id="ytick_1">
     <g id="line2d_6">
      <defs>
       <path id="m14378a4b18" d="M 0 0 
L -3.5 0 
" style="stroke: #000000; stroke-width: 0.8"/>
      </defs>
      <g>
       <use xlink:href="#m14378a4b18" x="72" y="378" style="stroke: #000000; stroke-width: 0.8"/>
      </g>
     </g>
     <g id="text_6">
      <!-- 0 -->
      <g transform="translate(58.6375 381.799219)scale(0.1 -0.1)">
       <use xlink:href="#DejaVuSans-30"/>
      </g>
     </g>
    </g>
    <g id="ytick_2">
     <g id="line2d_7">
      <g>
       <use xlink:href="#m14378a4b18" x="72" y="313.59525" style="stroke: #000000; stroke-width: 0.8"/>
      </g>
     </g>
     <g id="text_7">
      <!-- 2 -->
      <g transform="translate(58.6375 317.394469)scale(0.1 -0.1)">
       <use xlink:href="#DejaVuSans-32"/>
      </g>
     </g>
    </g>
    <g id="ytick_3">
     <g id="line2d_8">
      <g>
       <use xlink:href="#m14378a4b18" x="72" y="249.1905" style="stroke: #000000; stroke-width: 0.8"/>
      </g>
     </g>
     <g id="text_8">
      <!-- 4 -->
      <g transform="translate(58.6375 252.989719)scale(0.1 -0.1)">
       <defs>
        <path id="DejaVuSans-34" d="M 2419 4116 
L 825 1625 
L 2419 1625 
L 2419 4116 
z
M 2253 4666 
L 3047 4666 
L 3047 1625 
L 3713 1625 
L 3713 1100 
L 3047 1100 
L 3047 0 
L 2419 0 
L 2419 1100 
L 313 1100 
L 313 1709 
L 2253 4666 
z
" transform="scale(0.015625)"/>
       </defs>
       <use xlink:href="#DejaVuSans-34"/>
      </g>
     </g>
    </g>
    <g id="ytick_4">
     <g id="line2d_9">
      <g>
       <use xlink:href="#m14378a4b18" x="72" y="184.78575" style="stroke: #000000; stroke-width: 0.8"/>
      </g>
     </g>
     <g id="text_9">
      <!-- 6 -->
      <g transform="translate(58.6375 188.584969)scale(0.1 -0.1)">
       <defs>
        <path id="DejaVuSans-36" d="M 2113 2584 
Q 1688 2584 1439 2293 
Q 1191 2003 1191 1497 
Q 1191 994 1439 701 
Q 1688 409 2113 409 
Q 2538 409 2786 701 
Q 3034 994 3034 1497 
Q 3034 2003 2786 2293 
Q 2538 2584 2113 2584 
z
M 3366 4563 
L 3366 3988 
Q 3128 4100 2886 4159 
Q 2644 4219 2406 4219 
Q 1781 4219 1451 3797 
Q 1122 3375 1075 2522 
Q 1259 2794 1537 2939 
Q 1816 3084 2150 3084 
Q 2853 3084 3261 2657 
Q 3669 2231 3669 1497 
Q 3669 778 3244 343 
Q 2819 -91 2113 -91 
Q 1303 -91 875 529 
Q 447 1150 447 2328 
Q 447 3434 972 4092 
Q 1497 4750 2381 4750 
Q 2619 4750 2861 4703 
Q 3103 4656 3366 4563 
z
" transform="scale(0.015625)"/>
       </defs>
       <use xlink:href="#DejaVuSans-36"/>
      </g>
     </g>
    </g>
    <g id="ytick_5">
     <g id="line2d_10">
      <g>
       <use xlink:href="#m14378a4b18" x="72" y="120.381" style="stroke: #000000; stroke-width: 0.8"/>
      </g>
     </g>
     <g id="text_10">
      <!-- 8 -->
      <g transform="translate(58.6375 124.180219)scale(0.1 -0.1)">
       <defs>
        <path id="DejaVuSans-38" d="M 2034 2216 
Q 1584 2216 1326 1975 
Q 1069 1734 1069 1313 
Q 1069 891 1326 650 
Q 1584 409 2034 409 
Q 2484 409 2743 651 
Q 3003 894 3003 1313 
Q 3003 1734 2745 1975 
Q 2488 2216 2034 2216 
z
M 1403 2484 
Q 997 2584 770 2862 
Q 544 3141 544 3541 
Q 544 4100 942 4425 
Q 1341 4750 2034 4750 
Q 2731 4750 3128 4425 
Q 3525 4100 3525 3541 
Q 3525 3141 3298 2862 
Q 3072 2584 2669 2484 
Q 3125 2378 3379 2068 
Q 3634 1759 3634 1313 
Q 3634 634 3220 271 
Q 2806 -91 2034 -91 
Q 1263 -91 848 271 
Q 434 634 434 1313 
Q 434 1759 690 2068 
Q 947 2378 1403 2484 
z
M 1172 3481 
Q 1172 3119 1398 2916 
Q 1625 2713 2034 2713 
Q 2441 2713 2670 2916 
Q 2900 3119 2900 3481 
Q 2900 3844 2670 4047 
Q 2441 4250 2034 4250 
Q 1625 4250 1398 4047 
Q 1172 3844 1172 3481 
z
" transform="scale(0.015625)"/>
       </defs>
       <use xlink:href="#DejaVuSans-38"/>
      </g>
     </g>
    </g>
    <g id="ytick_6">
     <g id="line2d_11">
      <g>
       <use xlink:href="#m14378a4b18" x="72" y="55.97625" style="stroke: #000000; stroke-width: 0.8"/>
      </g>
     </g>
     <g id="text_11">
      <!-- 10 -->
      <g transform="translate(52.275 59.775469)scale(0.1 -0.1)">
       <use xlink:href="#DejaVuSans-31"/>
       <use xlink:href="#DejaVuSans-30" x="63.623047"/>
      </g>
     </g>
    </g>
   </g>
   <g id="patch_203">
    <path d="M 157.180236 378 
L 157.180236 376.134935 
L 159.940496 376.134935 
L 159.940496 372.908673 
L 162.700756 372.908673 
L 162.700756 369.573365 
L 165.461016 369.573365 
L 165.461016 367.475167 
L 168.221275 367.475167 
L 168.221275 364.568523 
L 170.981535 364.568523 
L 170.981535 362.56433 
L 173.741795 362.56433 
L 173.741795 359.958503 
L 176.502055 359.958503 
L 176.502055 357.61213 
L 179.262315 357.61213 
L 179.262315 355.859872 
L 182.022575 355.859872 
L 182.022575 353.430775 
L 184.782835 353.430775 
L 184.782835 351.3965 
L 187.543095 351.3965 
L 187.543095 349.790889 
L 190.303355 349.790889 
L 190.303355 347.937105 
L 193.063615 347.937105 
L 193.063615 346.199887 
L 195.823875 346.199887 
L 195.823875 344.959017 
L 198.584135 344.959017 
L 198.584135 342.518639 
L 201.344395 342.518639 
L 201.344395 341.142402 
L 204.104655 341.142402 
L 204.104655 339.247255 
L 206.864914 339.247255 
L 206.864914 336.874561 
L 209.625174 336.874561 
L 209.625174 335.468242 
L 212.385434 335.468242 
L 212.385434 334.0168 
L 215.145694 334.0168 
L 215.145694 332.136694 
L 217.905954 332.136694 
L 217.905954 330.252828 
L 220.666214 330.252828 
L 220.666214 328.996917 
L 223.426474 328.996917 
L 223.426474 327.45899 
L 226.186734 327.45899 
L 226.186734 325.725532 
L 228.946994 325.725532 
L 228.946994 324.025916 
L 231.707254 324.025916 
L 231.707254 322.882812 
L 234.467514 322.882812 
L 234.467514 321.085431 
L 237.227774 321.085431 
L 237.227774 319.017314 
L 239.988034 319.017314 
L 239.988034 317.663638 
L 242.748293 317.663638 
L 242.748293 315.75345 
L 245.508553 315.75345 
L 245.508553 313.158904 
L 248.268813 313.158904 
L 248.268813 312.057162 
L 251.029073 312.057162 
L 251.029073 309.737111 
L 253.789333 309.737111 
L 253.789333 306.589813 
L 256.549593 306.589813 
L 256.549593 305.536954 
L 259.309853 305.536954 
L 259.309853 304.615702 
L 262.070113 304.615702 
L 262.070113 301.979793 
L 264.830373 301.979793 
L 264.830373 299.603339 
L 267.590633 299.603339 
L 267.590633 297.347212 
L 270.350893 297.347212 
L 270.350893 295.959694 
L 273.111153 295.959694 
L 273.111153 292.237084 
L 275.871413 292.237084 
L 275.871413 291.221827 
L 278.631673 291.221827 
L 278.631673 289.556053 
L 281.391932 289.556053 
L 281.391932 285.912407 
L 284.152192 285.912407 
L 284.152192 283.878133 
L 286.912452 283.878133 
L 286.912452 281.34751 
L 289.672712 281.34751 
L 289.672712 276.823975 
L 292.432972 276.823975 
L 292.432972 275.207084 
L 295.193232 275.207084 
L 295.193232 274.868665 
L 297.953492 274.868665 
L 297.953492 277.715145 
L 300.713752 277.715145 
L 300.713752 279.975032 
L 303.474012 279.975032 
L 303.474012 283.48331 
L 306.234272 283.48331 
L 306.234272 286.14178 
L 308.994532 286.14178 
L 308.994532 288.063249 
L 311.754792 288.063249 
L 311.754792 291.28951 
L 314.515052 291.28951 
L 314.515052 292.977846 
L 317.275311 292.977846 
L 317.275311 295.658877 
L 320.035571 295.658877 
L 320.035571 297.813478 
L 322.795831 297.813478 
L 322.795831 300.073366 
L 325.556091 300.073366 
L 325.556091 302.517504 
L 328.316351 302.517504 
L 328.316351 304.277283 
L 331.076611 304.277283 
L 331.076611 305.555755 
L 333.836871 305.555755 
L 333.836871 307.533626 
L 336.597131 307.533626 
L 336.597131 310.827572 
L 339.357391 310.827572 
L 339.357391 311.271277 
L 342.117651 311.271277 
L 342.117651 313.249149 
L 344.877911 313.249149 
L 344.877911 314.373452 
L 347.638171 314.373452 
L 347.638171 316.847672 
L 350.398431 316.847672 
L 350.398431 319.084998 
L 353.158691 319.084998 
L 353.158691 320.844777 
L 355.91895 320.844777 
L 355.91895 322.600796 
L 358.67921 322.600796 
L 358.67921 324.146243 
L 361.43947 324.146243 
L 361.43947 326.022589 
L 364.19973 326.022589 
L 364.19973 326.966402 
L 366.95999 326.966402 
L 366.95999 329.019478 
L 369.72025 329.019478 
L 369.72025 330.843181 
L 372.48051 330.843181 
L 372.48051 332.497674 
L 375.24077 332.497674 
L 375.24077 333.283558 
L 378.00103 333.283558 
L 378.00103 335.449441 
L 380.76129 335.449441 
L 380.76129 337.844696 
L 383.52155 337.844696 
L 383.52155 339.153249 
L 386.28181 339.153249 
L 386.28181 340.991993 
L 389.04207 340.991993 
L 389.04207 342.202781 
L 391.802329 342.202781 
L 391.802329 343.699346 
L 394.562589 343.699346 
L 394.562589 346.07956 
L 397.322849 346.07956 
L 397.322849 347.797977 
L 400.083109 347.797977 
L 400.083109 349.79841 
L 402.843369 349.79841 
L 402.843369 352.001894 
L 405.603629 352.001894 
L 405.603629 353.024672 
L 408.363889 353.024672 
L 408.363889 355.976438 
L 411.124149 355.976438 
L 411.124149 357.912947 
L 413.884409 357.912947 
L 413.884409 359.514798 
L 416.644669 359.514798 
L 416.644669 362.319916 
L 419.404929 362.319916 
L 419.404929 364.613645 
L 422.165189 364.613645 
L 422.165189 367.283396 
L 424.925449 367.283396 
L 424.925449 370.129876 
L 427.685709 370.129876 
L 427.685709 372.908673 
L 430.445968 372.908673 
L 430.445968 376.172537 
L 433.206228 376.172537 
L 433.206228 378 
L 433.206228 378 
" clip-path="url(#p15ce872082)" style="fill: none; stroke: #fc6983; stroke-linejoin: miter"/>
   </g>
   <g id="patch_204">
    <path d="M 157.033767 378 
L 157.033767 377.939765 
L 173.575514 377.879529 
L 173.575514 377.792941 
L 179.08943 377.702587 
L 179.08943 377.668705 
L 187.360304 377.574587 
L 187.360304 377.299763 
L 190.117261 377.299763 
L 190.117261 376.998586 
L 192.874219 376.998586 
L 192.874219 376.814115 
L 195.631177 376.814115 
L 195.631177 376.241878 
L 198.388135 376.241878 
L 198.388135 375.775053 
L 201.145093 375.775053 
L 201.145093 374.596697 
L 203.90205 374.596697 
L 203.90205 373.764695 
L 206.659008 373.764695 
L 206.659008 373.207517 
L 209.415966 373.207517 
L 209.415966 371.268688 
L 212.172924 371.268688 
L 212.172924 370.24845 
L 214.929882 370.24845 
L 214.929882 369.19433 
L 217.68684 369.19433 
L 217.68684 367.138795 
L 220.443797 367.138795 
L 220.443797 365.038084 
L 223.200755 365.038084 
L 223.200755 362.082782 
L 225.957713 362.082782 
L 225.957713 359.842776 
L 228.714671 359.842776 
L 228.714671 357.47477 
L 231.471629 357.47477 
L 231.471629 353.860643 
L 234.228587 353.860643 
L 234.228587 350.137339 
L 236.985544 350.137339 
L 236.985544 346.214505 
L 239.742502 346.214505 
L 239.742502 341.384374 
L 242.49946 341.384374 
L 242.49946 334.615416 
L 245.256418 334.615416 
L 245.256418 329.167872 
L 248.013376 329.167872 
L 248.013376 324.051623 
L 250.770334 324.051623 
L 250.770334 315.215835 
L 253.527291 315.215835 
L 253.527291 307.313697 
L 256.284249 307.313697 
L 256.284249 299.6525 
L 259.041207 299.6525 
L 259.041207 289.770121 
L 261.798165 289.770121 
L 261.798165 280.279273 
L 264.555123 280.279273 
L 264.555123 268.593595 
L 267.31208 268.593595 
L 267.31208 256.474975 
L 270.069038 256.474975 
L 270.069038 245.402946 
L 272.825996 245.402946 
L 272.825996 233.178914 
L 275.582954 233.178914 
L 275.582954 220.988764 
L 278.339912 220.988764 
L 278.339912 211.095091 
L 281.09687 211.095091 
L 281.09687 197.854586 
L 283.853827 197.854586 
L 283.853827 190.159507 
L 286.610785 190.159507 
L 286.610785 184.919023 
L 289.367743 184.919023 
L 289.367743 179.497832 
L 292.124701 179.497832 
L 292.124701 175.936411 
L 294.881659 175.936411 
L 294.881659 173.43664 
L 297.638617 173.43664 
L 297.638617 180.871953 
L 300.395574 180.871953 
L 300.395574 183.691725 
L 303.152532 183.691725 
L 303.152532 187.305852 
L 305.90949 187.305852 
L 305.90949 197.888468 
L 308.666448 197.888468 
L 308.666448 205.342606 
L 311.423406 205.342606 
L 311.423406 217.40099 
L 314.180364 217.40099 
L 314.180364 229.037727 
L 316.937321 229.037727 
L 316.937321 239.782225 
L 319.694279 239.782225 
L 319.694279 252.958731 
L 322.451237 252.958731 
L 322.451237 265.205351 
L 325.208195 265.205351 
L 325.208195 275.780438 
L 327.965153 275.780438 
L 327.965153 286.502348 
L 330.722111 286.502348 
L 330.722111 296.478845 
L 333.479068 296.478845 
L 333.479068 305.058632 
L 336.236026 305.058632 
L 336.236026 313.510419 
L 338.992984 313.510419 
L 338.992984 322.628561 
L 341.749942 322.628561 
L 341.749942 328.509047 
L 344.5069 328.509047 
L 344.5069 334.856357 
L 347.263857 334.856357 
L 347.263857 340.062959 
L 350.020815 340.062959 
L 350.020815 344.780148 
L 352.777773 344.780148 
L 352.777773 349.934044 
L 355.534731 349.934044 
L 355.534731 353.341112 
L 358.291689 353.341112 
L 358.291689 357.233828 
L 361.048647 357.233828 
L 361.048647 359.805129 
L 363.805604 359.805129 
L 363.805604 361.676192 
L 366.562562 361.676192 
L 366.562562 365.501144 
L 369.31952 365.501144 
L 369.31952 367.040912 
L 372.076478 367.040912 
L 372.076478 368.799035 
L 374.833436 368.799035 
L 374.833436 370.368921 
L 377.590394 370.368921 
L 377.590394 371.660219 
L 380.347351 371.660219 
L 380.347351 372.891281 
L 383.104309 372.891281 
L 383.104309 374.122343 
L 385.861267 374.122343 
L 385.861267 374.976933 
L 388.618225 374.976933 
L 388.618225 375.564229 
L 391.375183 375.564229 
L 391.375183 376.249407 
L 394.132141 376.249407 
L 394.132141 376.799056 
L 399.646056 376.836703 
L 399.646056 377.171763 
L 402.403014 377.171763 
L 402.403014 377.540705 
L 405.159972 377.540705 
L 405.159972 377.72894 
L 416.187803 377.834353 
L 416.187803 377.905882 
L 432.72955 377.969882 
L 432.72955 378 
" clip-path="url(#p15ce872082)" style="fill: none; stroke: #15215b; stroke-linejoin: miter"/>
   </g>
   <g id="patch_205">
    <path d="M 72 378 
L 72 51.84 
" style="fill: none; stroke: #000000; stroke-width: 0.8; stroke-linejoin: miter; stroke-linecap: square"/>
   </g>
   <g id="patch_206">
    <path d="M 518.4 378 
L 518.4 51.84 
" style="fill: none; stroke: #000000; stroke-width: 0.8; stroke-linejoin: miter; stroke-linecap: square"/>
   </g>
   <g id="patch_207">
    <path d="M 72 378 
L 518.4 378 
" style="fill: none; stroke: #000000; stroke-width: 0.8; stroke-linejoin: miter; stroke-linecap: square"/>
   </g>
   <g id="patch_208">
    <path d="M 72 51.84 
L 518.4 51.84 
" style="fill: none; stroke: #000000; stroke-width: 0.8; stroke-linejoin: miter; stroke-linecap: square"/>
   </g>
  </g>
 </g>
 <defs>
  <clipPath id="p15ce872082">
   <rect x="72" y="51.84" width="446.4" height="326.16"/>
  </clipPath>
 </defs>
</svg>
